# Generated by Visualization Toolkit
v -0.01601400040090084 -0.40074700117111206 -0.020868999883532524
v -0.021023999899625778 -0.4070659875869751 -0.021717000752687454
v -0.021445000544190407 -0.39987701177597046 -0.01822499930858612
v -0.01939300075173378 -0.39263099431991577 -0.014918000437319279
v -0.0184480007737875 -0.4057160019874573 -0.023460999131202698
v -0.015248999930918217 -0.3925260007381439 -0.014196000061929226
v -0.009855999611318111 -0.3951689898967743 -0.014426000416278839
v -0.004985000006854534 -0.39785900712013245 -0.01895800046622753
v -0.010006999596953392 -0.4011160135269165 -0.023804999887943268
v -0.014948000200092793 -0.40432101488113403 -0.02269200049340725
v -0.016224000602960587 -0.4043540060520172 -0.022915000095963478
v -0.02176699973642826 -0.39763399958610535 -0.02188500016927719
v -0.02471200004220009 -0.39114299416542053 -0.016798999160528183
v -0.02104800008237362 -0.3961839973926544 -0.02598400041460991
v -0.02252900041639805 -0.3845120072364807 -0.009429000318050385
v -0.014558999799191952 -0.38430899381637573 -0.00803999975323677
v -0.017343999817967415 -0.3946549892425537 -0.02921600081026554
v -0.007083000149577856 -0.3852989971637726 -0.01140500046312809
v -0.002937000012025237 -0.3863990008831024 -0.018647000193595886
v -0.006380999926477671 -0.3904530107975006 -0.025793999433517456
v -0.012242999859154224 -0.3945249915122986 -0.02832699939608574
v -0.02590099908411503 -0.3866559863090515 -0.02264999970793724
v -0.024267999455332756 -0.3802179992198944 -0.01723499968647957
v -0.024630000814795494 -0.3874970078468323 -0.029534999281167984
v -0.020214999094605446 -0.3737410008907318 -0.014378000050783157
v -0.0183119997382164 -0.38820600509643555 -0.03497299924492836
v -0.015591000206768513 -0.3736230134963989 -0.013571999967098236
v -0.012445000000298023 -0.3708040118217468 -0.01669500023126602
v -0.00970499962568283 -0.3879869878292084 -0.03347399830818176
v -0.012152000330388546 -0.3680559992790222 -0.02032800018787384
v -0.008093000389635563 -0.3779410123825073 -0.02520499937236309
v -0.024001000449061394 -0.3690069913864136 -0.022390000522136688
v -0.02300100028514862 -0.36438700556755066 -0.018171999603509903
v -0.024380000308156013 -0.3751029968261719 -0.029072999954223633
v -0.019937999546527863 -0.35972899198532104 -0.015651000663638115
v -0.018595000728964806 -0.3810490071773529 -0.03581099957227707
v -0.01611199975013733 -0.3596319854259491 -0.014984999783337116
v -0.009507999755442142 -0.3808180093765259 -0.03422800078988075
v -0.013294000178575516 -0.3468709886074066 -0.01717500016093254
v -0.01244799979031086 -0.3341670036315918 -0.02051600068807602
v -0.007996000349521637 -0.35740798711776733 -0.025662999600172043
v -0.022430000826716423 -0.35919100046157837 -0.0221560001373291
v -0.022110000252723694 -0.34269800782203674 -0.019040999934077263
v -0.021893000230193138 -0.3685019910335541 -0.026398999616503716
v -0.02012999914586544 -0.3261750042438507 -0.017084000632166862
v -0.017860999330878258 -0.3777259886264801 -0.030132999643683434
v -0.01709900051355362 -0.3260979950428009 -0.01655600033700466
v -0.012280999682843685 -0.3775840103626251 -0.02916100062429905
v -0.015421000309288502 -0.2809309959411621 -0.01828099973499775
v -0.01191799994558096 -0.30664899945259094 -0.024754000827670097
v -0.015062999911606312 -0.2358040064573288 -0.021369999274611473
v -0.026907000690698624 -0.30161601305007935 -0.023168999701738358
v -0.02607399970293045 -0.2803710103034973 -0.018343999981880188
v -0.022540999576449394 -0.3300589919090271 -0.026434000581502914
v -0.022839000448584557 -0.2590849995613098 -0.015552000142633915
v -0.017767999321222305 -0.35846298933029175 -0.026402000337839127
v -0.018376000225543976 -0.2589710056781769 -0.014774000272154808
v -0.01457899995148182 -0.358381986618042 -0.025846000760793686
v -0.01727299951016903 -0.19982099533081055 -0.018852999433875084
v -0.015992000699043274 -0.24953700602054596 -0.02389799989759922
v -0.019406000152230263 -0.14074599742889404 -0.02251099981367588
v -0.029506999999284744 -0.23617100715637207 -0.023886999115347862
v -0.02886500023305416 -0.20808100700378418 -0.018418999388813972
v -0.02382900007069111 -0.2649039924144745 -0.026686999946832657
v -0.025349000468850136 -0.17993900179862976 -0.015045000240206718
v -0.019061999395489693 -0.2936230003833771 -0.025119999423623085
v -0.020089000463485718 -0.1798049956560135 -0.014128999784588814
v -0.01699100062251091 -0.29357001185417175 -0.024759000167250633
v -0.01715400069952011 -0.14391200244426727 -0.017808999866247177
v -0.01668900065124035 -0.20083199441432953 -0.024529000744223595
v -0.017349999397993088 -0.10810200124979019 -0.02228499948978424
v -0.030671000480651855 -0.18763799965381622 -0.024286000058054924
v -0.0295609999448061 -0.15937599539756775 -0.019050000235438347
v -0.02574799954891205 -0.19243599474430084 -0.02747100032866001
v -0.026030000299215317 -0.13107599318027496 -0.01637299917638302
v -0.02144699916243553 -0.1972140073776245 -0.02643200010061264
v -0.02140600048005581 -0.13095900416374207 -0.015567000024020672
v -0.019054999575018883 -0.1971530020236969 -0.02601500041782856
v -0.01668900065124035 -0.10624700039625168 -0.016706999391317368
v -0.015691999346017838 -0.139383003115654 -0.02624399960041046
v -0.013081000186502934 -0.08159299939870834 -0.021648000925779343
v -0.030309999361634254 -0.13808999955654144 -0.02442299947142601
v -0.029556000605225563 -0.1104929968714714 -0.020028000697493553
v -0.0265749990940094 -0.13508999347686768 -0.02737800031900406
v -0.026695000007748604 -0.08286400139331818 -0.017695000395178795
v -0.023009000346064568 -0.13206900656223297 -0.02696700021624565
v -0.022709999233484268 -0.08276300132274628 -0.017000000923871994
v -0.02061600051820278 -0.13200800120830536 -0.02655000053346157
v -0.015112999826669693 -0.07685700058937073 -0.014599000103771687
v -0.013187999837100506 -0.1015319973230362 -0.028226999565958977
v -0.00585100008174777 -0.07098100334405899 -0.020430000498890877
v -0.028519000858068466 -0.10512500256299973 -0.024243999272584915
v -0.029656000435352325 -0.08670700341463089 -0.020454000681638718
v -0.027164999395608902 -0.10283800214529037 -0.027455000206828117
v -0.027782000601291656 -0.06821300089359283 -0.016426999121904373
v -0.02406099997460842 -0.10049699991941452 -0.029301000759005547
v -0.022839000448584557 -0.06808800250291824 -0.015565999783575535
v -0.02039399929344654 -0.10040400177240372 -0.028661999851465225
v -0.015073000453412533 -0.06332799792289734 -0.014333000406622887
v -0.01300899963825941 -0.07953199744224548 -0.02875399962067604
v -0.0066639999859035015 -0.05861600115895271 -0.020622000098228455
v -0.027305999770760536 -0.06956899911165237 -0.02417599968612194
v -0.03165299817919731 -0.06719399988651276 -0.019865000620484352
v -0.03092700056731701 -0.06384199857711792 -0.030690999701619148
v -0.03044000081717968 -0.06465300172567368 -0.01159599982202053
v -0.02652299962937832 -0.057944998145103455 -0.03976299986243248
v -0.02215000055730343 -0.06444200128316879 -0.010150999762117863
v -0.01664000004529953 -0.057693999260663986 -0.038040999323129654
v -0.01601400040090084 -0.058306001126766205 -0.01522199995815754
v -0.012540999799966812 -0.054917000234127045 -0.02947399951517582
v -0.014557999558746815 -0.05229699984192848 -0.022022999823093414
v -0.028133999556303024 -0.05655299872159958 -0.024373000487685204
v -0.02959500066936016 -0.05493199825286865 -0.021118000149726868
v -0.027705999091267586 -0.049883998930454254 -0.0271380003541708
v -0.028017999604344368 -0.05322900041937828 -0.016781000420451164
v -0.02536099962890148 -0.043163999915122986 -0.029254000633955002
v -0.023236000910401344 -0.05310700088739395 -0.015946999192237854
v -0.022012999281287193 -0.04307899996638298 -0.02867100015282631
v -0.02003300003707409 -0.050450000911951065 -0.019235000014305115
v -0.01994200050830841 -0.04545300081372261 -0.026037000119686127
v -0.019826000556349754 -0.047867998480796814 -0.02295999974012375
v -0.02437499910593033 -0.05189500004053116 -0.023737000301480293
vn 0.16631799936294556 -0.6012120246887207 0.7815889716148376
vn -0.47360900044441223 -0.7936080098152161 0.3819440007209778
vn -0.4002769887447357 -0.5380439758300781 0.7418130040168762
vn -0.18211999535560608 -0.5599110126495361 0.8082889914512634
vn -0.29290899634361267 -0.9398670196533203 0.17565199732780457
vn -0.06074399873614311 -0.6102910041809082 0.7898449897766113
vn 0.24557699263095856 -0.6492949724197388 0.7197970151901245
vn 0.6172299981117249 -0.6956610083580017 0.3675369918346405
vn 0.7675259709358215 -0.6375600099563599 0.06649100035429001
vn 0.5076959729194641 -0.8589800000190735 0.06631600111722946
vn -0.15202899277210236 -0.9854419827461243 0.07609900087118149
vn -0.9534609913825989 -0.2930630147457123 -0.07088799774646759
vn -0.8882269859313965 -0.1883009970188141 0.4190419912338257
vn -0.742654025554657 -0.4949060082435608 -0.4511460065841675
vn -0.48119500279426575 -0.13269899785518646 0.8665120005607605
vn 0.11141200363636017 -0.08755999803543091 0.9899089932441711
vn -0.18093599379062653 -0.6110020279884338 -0.7706739902496338
vn 0.6717140078544617 -0.020963000133633614 0.7405139803886414
vn 0.9877399802207947 0.1015940010547638 0.11852800101041794
vn 0.898231029510498 0.024682000279426575 -0.4388299882411957
vn 0.5094130039215088 -0.38723599910736084 -0.7684710025787354
vn -0.9764549732208252 -0.14751000702381134 0.1574079990386963
vn -0.8268510103225708 -0.0003870000073220581 0.5624200105667114
vn -0.8910660147666931 -0.3001970052719116 -0.34041500091552734
vn -0.4454590082168579 0.18148300051689148 0.8767150044441223
vn -0.305076003074646 -0.42669498920440674 -0.8513870239257812
vn 0.08284299820661545 0.28773999214172363 0.9541190266609192
vn 0.653535008430481 0.2867020070552826 0.7004960179328918
vn 0.6936709880828857 -0.1923159956932068 -0.6941429972648621
vn 0.9068920016288757 0.24801500141620636 0.34064000844955444
vn 0.9871399998664856 0.15977300703525543 -0.0051910001784563065
vn -0.8792020082473755 0.20590299367904663 -0.42965999245643616
vn -0.9772980213165283 0.11465899646282196 0.17816099524497986
vn -0.4859200119972229 0.35420501232147217 -0.7990130186080933
vn -0.5323110222816467 0.07789099961519241 0.8429579734802246
vn 0.07968000322580338 0.41859200596809387 -0.9046720266342163
vn -0.05389299988746643 0.07195500284433365 0.9959509968757629
vn 0.5411329865455627 0.25251099467277527 -0.8021299839019775
vn 0.5289769768714905 0.06464900076389313 0.8461700081825256
vn 0.8720930218696594 0.02898300066590309 0.4884819984436035
vn 0.9991340041160583 0.02579599991440773 -0.032646000385284424
vn -0.7784640192985535 0.15181699395179749 -0.6090530157089233
vn -0.9393050074577332 0.027067000046372414 0.34201499819755554
vn 0.25473999977111816 0.33857399225234985 -0.905800998210907
vn -0.4644309878349304 0.006874999962747097 0.8855829834938049
vn 0.5000320076942444 0.476269006729126 -0.7232810258865356
vn 0.13641199469566345 0.018523000180721283 0.9904789924621582
vn 0.20826999843120575 0.3082369863986969 -0.9282310009002686
vn 0.8273950219154358 0.03450300171971321 0.5605599880218506
vn 0.7472540140151978 0.04221599921584129 -0.6631960272789001
vn 0.9982119798660278 0.0328419990837574 0.049931999295949936
vn -0.9561259746551514 -0.03890800103545189 -0.2903589904308319
vn -0.7738199830055237 -0.04216799885034561 0.6320000290870667
vn 0.017040999606251717 0.03953399881720543 -0.9990730285644531
vn -0.3632250130176544 -0.02653699927031994 0.9313240051269531
vn 0.39858201146125793 0.09384000301361084 -0.912319004535675
vn 0.40022799372673035 -0.006961999926716089 0.916388988494873
vn 0.2709819972515106 0.059130001813173294 -0.9607660174369812
vn 0.978655993938446 0.010130000300705433 0.20525500178337097
vn 0.8171780109405518 0.013504999689757824 -0.5762270092964172
vn 0.998183012008667 0.010107999667525291 0.05939599871635437
vn -0.9374309778213501 -0.029113000258803368 -0.34695300459861755
vn -0.8168650269508362 -0.01984800025820732 0.5764870047569275
vn -0.10444000363349915 -0.004997999873012304 -0.9945189952850342
vn -0.39868301153182983 -0.002056000055745244 0.9170860052108765
vn 0.2577410042285919 0.00825200043618679 -0.9661790132522583
vn 0.12601499259471893 0.01474899984896183 0.9919189810752869
vn 0.3850660026073456 -0.00483600003644824 -0.9228760004043579
vn 0.7815830111503601 0.0044280001893639565 0.6237850189208984
vn 0.9877300262451172 -0.07862400263547897 0.13493700325489044
vn 0.7366020083427429 -0.04050400108098984 0.6751130223274231
vn -0.9349570274353027 -0.013206000439822674 -0.3545140027999878
vn -0.8611310124397278 0.0007939999923110008 0.5083820223808289
vn -0.22579200565814972 -0.012059999629855156 -0.9741010069847107
vn -0.43354400992393494 0.016813000664114952 0.9009760022163391
vn 0.17243899405002594 -0.006525999866425991 -0.9849990010261536
vn -0.1473120003938675 0.025275999680161476 0.9887670278549194
vn 0.2098959982395172 -0.02464199997484684 -0.9774129986763
vn 0.34361401200294495 -0.018245000392198563 0.9389340281486511
vn 0.9285770058631897 -0.36820998787879944 -0.04653700068593025
vn 0.5622169971466064 -0.13229900598526 0.8163390159606934
vn -0.907971978187561 0.008541000075638294 -0.41894400119781494
vn -0.9782480001449585 0.02105100080370903 0.20636600255966187
vn -0.5227490067481995 -0.030981000512838364 -0.8519240021705627
vn -0.5378350019454956 -0.015088999643921852 0.8429149985313416
vn -0.00006900000153109431 -0.04077399894595146 -0.9991679787635803
vn -0.1892549991607666 -0.03787299990653992 0.9811969995498657
vn 0.09693100303411484 -0.03676199913024902 -0.9946119785308838
vn 0.20976899564266205 -0.05074600130319595 0.9764329791069031
vn 0.5118269920349121 -0.16230900585651398 -0.8436170220375061
vn 0.7599729895591736 -0.12761299312114716 0.6373040080070496
vn -0.9451720118522644 0.0024510000366717577 -0.3265630006790161
vn -0.983597993850708 -0.007741000037640333 -0.18021099269390106
vn -0.9131019711494446 -0.09493499994277954 -0.39652401208877563
vn -0.6709979772567749 -0.3208099901676178 0.6684629917144775
vn -0.27090901136398315 -0.15610000491142273 -0.9498639702796936
vn 0.13561199605464935 -0.4842430055141449 0.864359974861145
vn 0.3606970012187958 -0.09561099857091904 -0.9277700185775757
vn 0.657073974609375 -0.13132299482822418 0.7422990202903748
vn 0.70899897813797 0.22869400680065155 -0.6670979857444763
vn 0.932440996170044 0.33413100242614746 0.13751299679279327
vn -0.9929530024528503 0.020826999098062515 -0.11666800081729889
vn -0.9834190011024475 0.011490000411868095 -0.1809850037097931
vn -0.9984779953956604 0.05098799988627434 -0.021026000380516052
vn -0.7485340237617493 -0.10551899671554565 0.6546459794044495
vn -0.49667099118232727 0.14008000493049622 -0.8565599918365479
vn 0.3575029969215393 -0.18283399939537048 0.9158400297164917
vn 0.632099986076355 0.299113005399704 -0.7148290276527405
vn 0.8106690049171448 0.20259100198745728 0.5493379831314087
vn 0.8062099814414978 0.5914940237998962 -0.012632000260055065
vn 0.7196630239486694 0.6069459915161133 0.3371979892253876
vn -0.9489840269088745 0.31487101316452026 0.016899999231100082
vn -0.8699749708175659 0.4369170069694519 -0.22857700288295746
vn -0.8422290086746216 0.3329409956932068 0.42402899265289307
vn -0.5331739783287048 0.7603350281715393 0.3709680140018463
vn -0.6305570006370544 0.7424259781837463 0.22627699375152588
vn -0.08065199851989746 0.7974410057067871 0.5979830026626587
vn 0.15784099698066711 0.9365670084953308 0.312936007976532
vn -0.0027719999197870493 0.8070430159568787 0.5904859900474548
vn 0.09229400008916855 0.8117750287055969 0.5766310095787048
vn -0.026497000828385353 0.8022369742393494 0.5964170098304749
vn -0.5305789709091187 0.7302219867706299 0.43042001128196716
f 3//3 2//2 1//1
f 4//4 3//3 1//1
f 2//2 5//5 1//1
f 6//6 4//4 1//1
f 7//7 6//6 1//1
f 8//8 7//7 1//1
f 9//9 8//8 1//1
f 10//10 9//9 1//1
f 11//11 10//10 1//1
f 5//5 11//11 1//1
f 3//3 13//13 12//12 2//2
f 2//2 12//12 14//14 5//5
f 4//4 15//15 13//13 3//3
f 6//6 16//16 15//15 4//4
f 5//5 14//14 17//17 11//11
f 7//7 18//18 16//16 6//6
f 8//8 19//19 18//18 7//7
f 9//9 20//20 19//19 8//8
f 10//10 21//21 20//20 9//9
f 11//11 17//17 21//21 10//10
f 13//13 23//23 22//22 12//12
f 12//12 22//22 24//24 14//14
f 15//15 25//25 23//23 13//13
f 14//14 24//24 26//26 17//17
f 16//16 27//27 25//25 15//15
f 18//18 28//28 27//27 16//16
f 17//17 26//26 29//29 21//21
f 19//19 30//30 28//28 18//18
f 20//20 31//31 30//30 19//19
f 21//21 29//29 31//31 20//20
f 23//23 33//33 32//32 22//22
f 22//22 32//32 34//34 24//24
f 25//25 35//35 33//33 23//23
f 24//24 34//34 36//36 26//26
f 27//27 37//37 35//35 25//25
f 26//26 36//36 38//38 29//29
f 28//28 39//39 37//37 27//27
f 30//30 40//40 39//39 28//28
f 29//29 38//38 41//41 31//31
f 31//31 41//41 40//40 30//30
f 33//33 43//43 42//42 32//32
f 32//32 42//42 44//44 34//34
f 35//35 45//45 43//43 33//33
f 34//34 44//44 46//46 36//36
f 37//37 47//47 45//45 35//35
f 36//36 46//46 48//48 38//38
f 39//39 49//49 47//47 37//37
f 38//38 48//48 50//50 41//41
f 40//40 51//51 49//49 39//39
f 41//41 50//50 51//51 40//40
f 43//43 53//53 52//52 42//42
f 42//42 52//52 54//54 44//44
f 45//45 55//55 53//53 43//43
f 44//44 54//54 56//56 46//46
f 47//47 57//57 55//55 45//45
f 46//46 56//56 58//58 48//48
f 49//49 59//59 57//57 47//47
f 48//48 58//58 60//60 50//50
f 51//51 61//61 59//59 49//49
f 50//50 60//60 61//61 51//51
f 53//53 63//63 62//62 52//52
f 52//52 62//62 64//64 54//54
f 55//55 65//65 63//63 53//53
f 54//54 64//64 66//66 56//56
f 57//57 67//67 65//65 55//55
f 56//56 66//66 68//68 58//58
f 59//59 69//69 67//67 57//57
f 58//58 68//68 70//70 60//60
f 61//61 71//71 69//69 59//59
f 60//60 70//70 71//71 61//61
f 63//63 73//73 72//72 62//62
f 62//62 72//72 74//74 64//64
f 65//65 75//75 73//73 63//63
f 64//64 74//74 76//76 66//66
f 67//67 77//77 75//75 65//65
f 66//66 76//76 78//78 68//68
f 69//69 79//79 77//77 67//67
f 68//68 78//78 80//80 70//70
f 71//71 81//81 79//79 69//69
f 70//70 80//80 81//81 71//71
f 73//73 83//83 82//82 72//72
f 72//72 82//82 84//84 74//74
f 75//75 85//85 83//83 73//73
f 74//74 84//84 86//86 76//76
f 77//77 87//87 85//85 75//75
f 76//76 86//86 88//88 78//78
f 79//79 89//89 87//87 77//77
f 78//78 88//88 90//90 80//80
f 81//81 91//91 89//89 79//79
f 80//80 90//90 91//91 81//81
f 83//83 93//93 92//92 82//82
f 82//82 92//92 94//94 84//84
f 85//85 95//95 93//93 83//83
f 84//84 94//94 96//96 86//86
f 87//87 97//97 95//95 85//85
f 86//86 96//96 98//98 88//88
f 89//89 99//99 97//97 87//87
f 88//88 98//98 100//100 90//90
f 91//91 101//101 99//99 89//89
f 90//90 100//100 101//101 91//91
f 93//93 103//103 102//102 92//92
f 92//92 102//102 104//104 94//94
f 95//95 105//105 103//103 93//93
f 94//94 104//104 106//106 96//96
f 97//97 107//107 105//105 95//95
f 96//96 106//106 108//108 98//98
f 99//99 109//109 107//107 97//97
f 98//98 108//108 110//110 100//100
f 101//101 111//111 109//109 99//99
f 100//100 110//110 111//111 101//101
f 103//103 113//113 112//112 102//102
f 102//102 112//112 114//114 104//104
f 105//105 115//115 113//113 103//103
f 104//104 114//114 116//116 106//106
f 107//107 117//117 115//115 105//105
f 106//106 116//116 118//118 108//108
f 109//109 119//119 117//117 107//107
f 108//108 118//118 120//120 110//110
f 111//111 121//121 119//119 109//109
f 110//110 120//120 121//121 111//111
f 113//113 122//122 112//112
f 112//112 122//122 114//114
f 115//115 122//122 113//113
f 114//114 122//122 116//116
f 117//117 122//122 115//115
f 116//116 122//122 118//118
f 119//119 122//122 117//117
f 118//118 122//122 120//120
f 121//121 122//122 119//119
f 120//120 122//122 121//121
