# Generated by Visualization Toolkit
v -0.04432699829339981 -0.08084999769926071 -0.054676998406648636
v -0.0453220009803772 -0.07201000303030014 -0.052928999066352844
v -0.029819000512361526 -0.07650099694728851 -0.06886299699544907
v -0.034255001693964005 -0.08490800112485886 -0.06101299822330475
v -0.059126999229192734 -0.07801099866628647 -0.051587000489234924
v -0.06260000169277191 -0.08397100120782852 -0.05779699981212616
v -0.05320600047707558 -0.08503399789333344 -0.05993799865245819
v -0.0666470006108284 -0.09303399920463562 -0.06597799807786942
v -0.04296699911355972 -0.06222200021147728 -0.06210700049996376
v -0.055024001747369766 -0.06866300106048584 -0.051878999918699265
v -0.05121700093150139 -0.06367799639701843 -0.05332000181078911
v -0.03528200089931488 -0.05752800032496452 -0.07974100112915039
v -0.03881099820137024 -0.05547099933028221 -0.09443099796772003
v -0.03141799941658974 -0.05176600068807602 -0.08780799806118011
v -0.025296999141573906 -0.07168199867010117 -0.060148000717163086
v -0.007544999942183495 -0.08884300291538239 -0.018857000395655632
v -0.035677000880241394 -0.08237099647521973 -0.05046699941158295
v -0.061014000326395035 -0.08715800195932388 -0.04561600089073181
v -0.07080499827861786 -0.07724399864673615 -0.06037300080060959
v -0.062171999365091324 -0.06972800195217133 -0.05192900076508522
v -0.07809700071811676 -0.09147799760103226 -0.07463700324296951
v -0.0845400020480156 -0.09354099631309509 -0.06479399651288986
v -0.07681699842214584 -0.10465999692678452 -0.04422000050544739
v -0.04828299954533577 -0.05494900047779083 -0.06624600291252136
v -0.0507190003991127 -0.05897799879312515 -0.05793200060725212
v -0.06049099937081337 -0.061737000942230225 -0.05465700104832649
v -0.05173400044441223 -0.048677001148462296 -0.08556699752807617
v -0.06271599978208542 -0.0523889996111393 -0.09987600147724152
v -0.05285099893808365 -0.03589100018143654 -0.09516999870538712
v -0.022260000929236412 -0.03525499999523163 -0.09668999910354614
v -0.029868999496102333 -0.05404600128531456 -0.06372799724340439
v -0.034961000084877014 -0.044477999210357666 -0.07717499881982803
v -0.015992000699043274 -0.07845299690961838 -0.03737099841237068
v -0.025342000648379326 -0.06644900143146515 -0.04135400056838989
v -0.027254000306129456 -0.10660099983215332 0.0005830000154674053
v 0.000009999999747378752 -0.08372599631547928 -0.0049230000004172325
v 0 -0.07946900278329849 -0.026655999943614006
v -0.03372899815440178 -0.07529100030660629 -0.043024998158216476
v -0.036187998950481415 -0.0730459988117218 -0.035638000816106796
v -0.02595200017094612 -0.11044000089168549 -0.005669999867677689
v -0.0375789999961853 -0.09997399896383286 -0.017788000404834747
v -0.0461140014231205 -0.06437800079584122 -0.05000000074505806
v -0.10806000232696533 -0.07222799956798553 -0.04270799830555916
v -0.10851199924945831 -0.0881659984588623 -0.05159499868750572
v -0.07758799940347672 -0.04316699877381325 -0.05993900075554848
v -0.04711500182747841 -0.04084499925374985 -0.058660998940467834
v -0.07557400315999985 -0.0668250024318695 -0.06658200174570084
v -0.06945999711751938 -0.06604699790477753 -0.05462599918246269
v -0.08470399677753448 -0.07421500235795975 -0.08532000333070755
v -0.07986100018024445 -0.06277599930763245 -0.0830719992518425
v -0.08984100073575974 -0.07840900123119354 -0.06778299808502197
v -0.09270700067281723 -0.10193099826574326 -0.06475699692964554
v -0.09482499957084656 -0.07545900344848633 -0.059126999229192734
v -0.07146699726581573 -0.1163949966430664 -0.03519599884748459
v -0.11427000164985657 -0.1033179983496666 -0.04371099919080734
v -0.0976720005273819 -0.11772800236940384 -0.061402998864650726
v -0.08894100040197372 -0.1308159977197647 -0.04511699825525284
v -0.06088000163435936 -0.05064300075173378 -0.07306300103664398
v -0.05657000094652176 -0.05496399849653244 -0.06094000115990639
v -0.07011300325393677 -0.06037300080060959 -0.05886299908161163
v -0.06409899890422821 -0.055427998304367065 -0.06077900156378746
v -0.07780399918556213 -0.060867998749017715 -0.0938429981470108
v -0.07937099784612656 -0.04345100000500679 -0.0856110006570816
v -0.02076599933207035 -0.01268799975514412 -0.10658799856901169
v -0.058844998478889465 -0.015488999895751476 -0.0948610007762909
v -0.030136000365018845 -0.023374000564217567 -0.09380999952554703
v -0.022293999791145325 -0.08064000308513641 -0.002345999935641885
v -0.029246000573039055 -0.09167999774217606 -0.0010809999657794833
v -0.04454899951815605 -0.1278270035982132 -0.023459000512957573
v -0.0799970030784607 -0.1267939954996109 -0.030146000906825066
v -0.03908199816942215 -0.10562200099229813 -0.017474999651312828
v -0.002515000058338046 -0.0765250027179718 -0.007104000076651573
v -0.10131999850273132 -0.08318399637937546 -0.058632999658584595
v -0.0862089991569519 -0.025933999568223953 -0.061845000833272934
v -0.11349199712276459 -0.0940679982304573 -0.05871399864554405
v -0.07692299783229828 -0.0008980000275187194 -0.05314800143241882
v -0.08865000307559967 -0.06228100135922432 -0.07622499763965607
v -0.06437599658966064 -0.1337919980287552 -0.03167799860239029
v -0.11344800144433975 -0.11564400047063828 -0.05016399919986725
v -0.05775099992752075 0.02265300042927265 -0.09312599897384644
v -0.007193999830633402 -0.014922999776899815 -0.12326999753713608
v 0 0 -0.12083300203084946
v -0.025767000392079353 -0.01355700008571148 -0.11176499724388123
v -0.05079599842429161 0.03734099864959717 -0.11891099810600281
v -0.07517900317907333 0.0154600003734231 -0.07224699854850769
v -0.09402800351381302 -0.02026199921965599 -0.06398899853229523
v -0.0911640003323555 0.009620999917387962 -0.045499999076128006
v -0.09580200165510178 -0.005518999882042408 -0.040828000754117966
v -0.11069200187921524 -0.02409300021827221 -0.05188100039958954
v -0.08079200237989426 0.03171800076961517 -0.057624999433755875
v -0.07576700299978256 0.08100499957799911 -0.07643499970436096
v -0.03220300003886223 0.042817000299692154 -0.11798600107431412
v -0.01167299970984459 0.020719999447464943 -0.1231440007686615
v -0.0037950000260025263 0.011366999708116055 -0.129271999001503
v -0.022141000255942345 0.01706399954855442 -0.1321679949760437
v -0.04997500032186508 0.0451899990439415 -0.1279429942369461
v -0.07405400276184082 0.07292400300502777 -0.09521699696779251
v -0.12558099627494812 0.031049000099301338 -0.05418999865651131
v -0.09999199956655502 0.05722400173544884 -0.06035200133919716
v -0.11266999691724777 0.004129999782890081 -0.04705300182104111
v -0.10651499778032303 0.024731000885367393 -0.04049300029873848
v -0.12063799798488617 -0.019938999786973 -0.04447900131344795
v -0.12563200294971466 -0.010077999904751778 -0.042406000196933746
v -0.12615300714969635 0.0012750000460073352 -0.05013300105929375
v -0.08458200097084045 0.05276700109243393 -0.050023000687360764
v -0.051690999418497086 0.06547100096940994 -0.11383400112390518
v -0.07255599647760391 0.08000999689102173 -0.09247899800539017
v -0.09286700189113617 0.08027999848127365 -0.06545399874448776
v -0.08541800081729889 0.07653100043535233 -0.060986001044511795
v -0.02280000038444996 0.03611699864268303 -0.13146400451660156
v -0.10901100188493729 0.06640999764204025 -0.06097099930047989
v -0.13682599365711212 0.02710000053048134 -0.0424249991774559
v -0.12295699864625931 0.05636199936270714 -0.04716699942946434
v -0.12945599853992462 0.0052280002273619175 -0.042603999376297
v -0.12411700189113617 0.016543999314308167 -0.030060000717639923
v -0.11831700056791306 0.03679100051522255 -0.03542200103402138
v -0.13792599737644196 0.01680699922144413 -0.0405769981443882
v -0.10183800011873245 0.06464599817991257 -0.047067999839782715
v -0.1050800010561943 0.07171499729156494 -0.05533299967646599
v -0.13694900274276733 0.015754999592900276 -0.03522200137376785
v -0.13452200591564178 0.03237399831414223 -0.036368001252412796
v -0.13352300226688385 0.006378999911248684 -0.036938998848199844
vn -0.2769179940223694 0.5015869736671448 -0.8195899724960327
vn -0.4462360143661499 -0.13642500340938568 -0.8844550251960754
vn -0.2967210114002228 -0.571012020111084 -0.7654420137405396
vn 0.23988699913024902 -0.5682730078697205 -0.7870960235595703
vn 0.16525499522686005 0.2718159854412079 -0.9480540156364441
vn 0.21128800511360168 0.6490150094032288 -0.7308470010757446
vn -0.05330299958586693 0.7461389899253845 -0.6636540293693542
vn 0.4201720058917999 -0.1287190020084381 -0.89826899766922
vn -0.6369100213050842 -0.5440850257873535 -0.5461840033531189
vn -0.025668000802397728 -0.17042699456214905 -0.9850360155105591
vn -0.28025999665260315 -0.4699999988079071 -0.836991012096405
vn -0.7027900218963623 -0.6823570132255554 -0.20118600130081177
vn -0.36294299364089966 -0.8647810220718384 -0.347025990486145
vn 0.8515030145645142 0.026240000501275063 -0.5236930251121521
vn 0.9686260223388672 -0.00025499999173916876 -0.24852100014686584
vn 0.40397700667381287 -0.8742579817771912 -0.269214004278183
vn -0.3632819950580597 -0.663034975528717 0.6545310020446777
vn 0.1559859961271286 -0.2807300090789795 0.9470270276069641
vn 0.7424049973487854 0.23645099997520447 -0.6268380284309387
vn 0.28218400478363037 -0.037992000579833984 -0.9586079716682434
vn -0.016445999965071678 -0.5280969738960266 -0.8490250110626221
vn -0.26433300971984863 -0.6707090139389038 -0.6930209994316101
vn 0.8758879899978638 -0.47439101338386536 -0.08816500008106232
vn -0.37593400478363037 -0.848114013671875 -0.3733310103416443
vn -0.3170270025730133 -0.7047539949417114 -0.634676992893219
vn 0.09224099665880203 -0.5381739735603333 -0.8377709984779358
vn -0.07674600183963776 -0.9969050288200378 -0.017059000208973885
vn -0.024915000423789024 -0.07697299867868423 -0.9967219829559326
vn -0.13399499654769897 -0.08850900083780289 -0.9870219826698303
vn 0.9737759828567505 -0.22706900537014008 -0.014175999909639359
vn 0.8609769940376282 0.5005710124969482 0.09025699645280838
vn 0.8583130240440369 0.3212659955024719 0.4001080095767975
vn 0.8128049969673157 0.0486610010266304 -0.5805000066757202
vn 0.5368250012397766 0.7813109755516052 0.31839001178741455
vn -0.2511500120162964 -0.21388499438762665 0.944021999835968
vn 0.8008599877357483 -0.21453499794006348 0.5591049790382385
vn 0.9203010201454163 0.2564240097999573 -0.2954530119895935
vn -0.6927239894866943 -0.6415960192680359 0.3293749988079071
vn -0.7928100228309631 0.4547410011291504 0.40578600764274597
vn 0.7250660061836243 -0.5831170082092285 -0.36640599370002747
vn -0.3504819869995117 -0.4818359911441803 -0.8031169772148132
vn -0.43514299392700195 0.07592500001192093 0.8971539735794067
vn -0.7910659909248352 0.4588170051574707 0.40459901094436646
vn -0.661532998085022 0.4463289976119995 0.6026319861412048
vn 0.0889120027422905 0.24996499717235565 0.9641640186309814
vn 0.2703770101070404 0.3959909975528717 0.8775460124015808
vn 0.9280099868774414 -0.24542100727558136 -0.2802950143814087
vn 0.6090350151062012 -0.1474819928407669 -0.7793110013008118
vn 0.014546999707818031 -0.4795820116996765 -0.8773769736289978
vn 0.8557000160217285 -0.4756790101528168 -0.2037310004234314
vn -0.8568170070648193 -0.3086549937725067 -0.41303399205207825
vn 0.06620299816131592 -0.09083499759435654 -0.9936630129814148
vn -0.7343159914016724 0.09144700318574905 -0.6726199984550476
vn 0.5791839957237244 0.6514869928359985 -0.49000999331474304
vn -0.5372099876403809 0.34439000487327576 0.7699360251426697
vn 0.0327720008790493 -0.4861159920692444 -0.8732799887657166
vn 0.16228200495243073 -0.8463339805603027 -0.5073300004005432
vn 0.21978899836540222 -0.9602469801902771 -0.1720999926328659
vn -0.09805899858474731 -0.8381959795951843 -0.5364810228347778
vn 0.5900279879570007 -0.6109139919281006 -0.5278739929199219
vn 0.43088701367378235 -0.8064249753952026 -0.40498900413513184
vn 0.03201799839735031 -0.8127430081367493 -0.581741988658905
vn -0.6609500050544739 0.2666209936141968 -0.7014690041542053
vn 0.6705920100212097 -0.637054979801178 0.38008901476860046
vn -0.5656740069389343 -0.27079901099205017 -0.7788969874382019
vn 0.7073360085487366 0.33674201369285583 0.6215159893035889
vn -0.1415870040655136 0.4801740050315857 0.8656709790229797
vn -0.7245740294456482 0.21512900292873383 0.654761016368866
vn 0.5840979814529419 -0.7877699732780457 -0.19557400047779083
vn -0.4819070100784302 -0.21769900619983673 0.8487480282783508
vn -0.05525299906730652 0.8667939901351929 -0.4955950081348419
vn 0.37648698687553406 0.8477370142936707 0.37362998723983765
vn -0.5589929819107056 0.43240100145339966 -0.7074999809265137
vn -0.9432989954948425 0.005640000104904175 0.33189699053764343
vn -0.7875540256500244 0.21328699588775635 -0.578158974647522
vn 0.5246919989585876 -0.07666800171136856 0.847832977771759
vn -0.9097689986228943 0.06757599860429764 -0.40957799553871155
vn 0.23588399589061737 -0.9032819867134094 -0.35838600993156433
vn -0.8093259930610657 -0.5872660279273987 -0.010482000187039375
vn 0.6686000227928162 0.24498699605464935 0.7021080255508423
vn 0.3326910138130188 -0.7746930122375488 -0.5377429723739624
vn 0.8583660125732422 0.1020599976181984 0.5027830004692078
vn -0.34822699427604675 -0.7821490168571472 -0.5167030096054077
vn -0.7304559946060181 -0.3259119987487793 -0.6001790165901184
vn -0.6570529937744141 -0.05287899821996689 -0.7519869804382324
vn -0.6113240122795105 -0.5629600286483765 -0.5562000274658203
vn 0.31167998909950256 0.11464499682188034 0.943244993686676
vn 0.20125199854373932 -0.14453400671482086 0.9688180088996887
vn -0.2791680097579956 -0.8704299926757812 -0.40548500418663025
vn 0.7416520118713379 0.09455499798059464 0.6640869975090027
vn 0.7142950296401978 0.5605149865150452 0.4190540015697479
vn 0.7495080232620239 0.46887698769569397 0.46732500195503235
vn 0.7235879898071289 0.5186430215835571 0.4554460048675537
vn 0.7418990135192871 0.1941870003938675 -0.6417760252952576
vn -0.29645800590515137 -0.28502100706100464 -0.9115239977836609
vn -0.5010150074958801 0.05196800082921982 -0.86387699842453
vn -0.7393850088119507 0.06872700154781342 -0.6697660088539124
vn -0.5032860040664673 0.0009239999926649034 -0.8641189932823181
vn -0.4421919882297516 -0.233707994222641 -0.8659369945526123
vn 0.13991500437259674 -0.12722699344158173 0.9819560050964355
vn 0.44736599922180176 -0.09882199764251709 0.8888750076293945
vn -0.26715800166130066 -0.7087860107421875 0.6528779864311218
vn -0.8441330194473267 -0.21245700120925903 0.4922420084476471
vn -0.7572450041770935 -0.27157899737358093 -0.5939909815788269
vn 0.6068900227546692 0.13407999277114868 0.7833939790725708
vn 0.3078959882259369 0.8448820114135742 -0.4374629855155945
vn -0.2416509985923767 0.8602370023727417 -0.4489949941635132
vn -0.4071120023727417 0.9104620218276978 -0.07293500006198883
vn 0.3047260046005249 0.6762710213661194 0.6706709861755371
vn 0.580420970916748 0.6019740104675293 -0.5483970046043396
vn -0.6936590075492859 0.31224000453948975 -0.6491100192070007
vn -0.9368979930877686 0.1566769927740097 -0.3125289976596832
vn -0.7404710054397583 0.643392026424408 0.19429099559783936
vn -0.7029150128364563 -0.6572170257568359 0.2719840109348297
vn 0.06665799766778946 -0.1868010014295578 0.9801340103149414
vn 0.11871500313282013 0.27311399579048157 0.9546290040016174
vn -0.9307100176811218 -0.3005479872226715 -0.2084439992904663
vn 0.054967001080513 0.5361300110816956 0.8423439860343933
vn -0.3806450068950653 0.846418023109436 0.3724049925804138
vn -0.8349720239639282 -0.05404999852180481 0.547631025314331
vn -0.6150760054588318 0.3520840108394623 0.7054920196533203
vn -0.8516619801521301 -0.4712119996547699 0.22941499948501587
f 1//1 2//2 3//3
f 3//3 4//4 1//1
f 5//5 2//2 1//1
f 5//5 1//1 6//6
f 1//1 7//7 6//6
f 8//8 1//1 4//4
f 4//4 7//7 1//1
f 2//2 9//9 3//3
f 2//2 10//10 11//11
f 9//9 2//2 11//11
f 2//2 5//5 10//10
f 3//3 9//9 12//12
f 12//12 13//13 3//3
f 13//13 14//14 3//3
f 15//15 3//3 14//14
f 15//15 4//4 3//3
f 16//16 4//4 15//15
f 4//4 16//16 17//17
f 8//8 4//4 18//18
f 18//18 4//4 17//17
f 7//7 4//4 8//8
f 6//6 19//19 5//5
f 5//5 19//19 20//20
f 5//5 20//20 10//10
f 8//8 19//19 6//6
f 7//7 8//8 6//6
f 21//21 19//19 8//8
f 8//8 22//22 21//21
f 8//8 18//18 23//23
f 22//22 8//8 23//23
f 12//12 9//9 24//24
f 9//9 11//11 25//25
f 24//24 9//9 25//25
f 10//10 26//26 11//11
f 20//20 26//26 10//10
f 11//11 26//26 25//25
f 13//13 12//12 27//27
f 27//27 12//12 24//24
f 27//27 28//28 13//13
f 13//13 28//28 14//14
f 14//14 29//29 30//30
f 14//14 28//28 29//29
f 14//14 31//31 15//15
f 32//32 31//31 14//14
f 30//30 32//32 14//14
f 15//15 33//33 16//16
f 15//15 31//31 34//34
f 33//33 15//15 34//34
f 35//35 16//16 36//36
f 16//16 33//33 37//37
f 38//38 16//16 39//39
f 17//17 16//16 38//38
f 36//36 16//16 37//37
f 16//16 40//40 41//41
f 16//16 35//35 40//40
f 16//16 41//41 39//39
f 42//42 18//18 17//17
f 38//38 42//42 17//17
f 43//43 44//44 18//18
f 43//43 18//18 45//45
f 44//44 23//23 18//18
f 46//46 18//18 42//42
f 45//45 18//18 46//46
f 19//19 47//47 48//48
f 19//19 48//48 20//20
f 21//21 49//49 19//19
f 19//19 50//50 47//47
f 49//49 50//50 19//19
f 48//48 26//26 20//20
f 21//21 51//51 49//49
f 21//21 22//22 51//51
f 22//22 52//52 53//53
f 22//22 53//53 51//51
f 22//22 23//23 52//52
f 54//54 23//23 55//55
f 44//44 55//55 23//23
f 56//56 23//23 57//57
f 57//57 23//23 54//54
f 52//52 23//23 56//56
f 27//27 24//24 58//58
f 24//24 25//25 59//59
f 58//58 24//24 59//59
f 25//25 26//26 59//59
f 60//60 61//61 26//26
f 59//59 26//26 61//61
f 60//60 26//26 48//48
f 62//62 27//27 58//58
f 28//28 27//27 62//62
f 28//28 62//62 63//63
f 28//28 63//63 29//29
f 30//30 29//29 64//64
f 64//64 29//29 65//65
f 65//65 29//29 63//63
f 32//32 30//30 66//66
f 64//64 66//66 30//30
f 46//46 31//31 32//32
f 34//34 31//31 46//46
f 46//46 32//32 66//66
f 37//37 33//33 34//34
f 37//37 34//34 39//39
f 39//39 34//34 42//42
f 34//34 46//46 42//42
f 36//36 67//67 35//35
f 68//68 35//35 67//67
f 39//39 41//41 35//35
f 39//39 35//35 68//68
f 35//35 69//69 40//40
f 69//69 35//35 70//70
f 71//71 70//70 35//35
f 71//71 35//35 41//41
f 36//36 72//72 67//67
f 72//72 36//36 37//37
f 72//72 37//37 39//39
f 39//39 42//42 38//38
f 68//68 67//67 39//39
f 67//67 72//72 39//39
f 40//40 71//71 41//41
f 40//40 69//69 71//71
f 73//73 44//44 43//43
f 43//43 53//53 73//73
f 74//74 43//43 45//45
f 43//43 74//74 53//53
f 75//75 44//44 73//73
f 55//55 44//44 75//75
f 45//45 46//46 74//74
f 66//66 76//76 46//46
f 46//46 76//76 74//74
f 48//48 47//47 60//60
f 60//60 47//47 61//61
f 50//50 61//61 47//47
f 49//49 62//62 50//50
f 62//62 49//49 77//77
f 49//49 51//51 77//77
f 58//58 61//61 50//50
f 50//50 62//62 58//58
f 53//53 77//77 51//51
f 53//53 52//52 73//73
f 52//52 75//75 73//73
f 52//52 56//56 75//75
f 53//53 74//74 77//77
f 54//54 55//55 70//70
f 54//54 70//70 71//71
f 78//78 57//57 54//54
f 54//54 69//69 78//78
f 69//69 54//54 71//71
f 75//75 79//79 55//55
f 55//55 79//79 70//70
f 56//56 57//57 79//79
f 56//56 79//79 75//75
f 57//57 70//70 79//79
f 78//78 70//70 57//57
f 61//61 58//58 59//59
f 62//62 77//77 63//63
f 74//74 65//65 63//63
f 74//74 63//63 77//77
f 64//64 80//80 66//66
f 64//64 81//81 82//82
f 82//82 80//80 64//64
f 83//83 81//81 64//64
f 83//83 64//64 65//65
f 84//84 83//83 65//65
f 85//85 84//84 65//65
f 85//85 65//65 86//86
f 74//74 86//86 65//65
f 66//66 80//80 76//76
f 78//78 69//69 70//70
f 74//74 76//76 86//86
f 76//76 87//87 88//88
f 89//89 76//76 88//88
f 86//86 76//76 89//89
f 90//90 76//76 80//80
f 76//76 90//90 87//87
f 90//90 80//80 91//91
f 92//92 80//80 93//93
f 91//91 80//80 92//92
f 80//80 82//82 93//93
f 94//94 82//82 81//81
f 83//83 95//95 81//81
f 81//81 95//95 94//94
f 93//93 82//82 94//94
f 95//95 83//83 84//84
f 95//95 84//84 96//96
f 84//84 85//85 97//97
f 84//84 97//97 96//96
f 85//85 98//98 99//99
f 85//85 99//99 97//97
f 98//98 85//85 86//86
f 98//98 86//86 89//89
f 87//87 100//100 88//88
f 90//90 101//101 87//87
f 101//101 100//100 87//87
f 102//102 89//89 88//88
f 102//102 88//88 103//103
f 88//88 100//100 103//103
f 104//104 89//89 103//103
f 103//103 89//89 102//102
f 89//89 104//104 98//98
f 91//91 105//105 90//90
f 90//90 105//105 101//101
f 91//91 92//92 106//106
f 107//107 91//91 106//106
f 108//108 91//91 107//107
f 91//91 108//108 109//109
f 109//109 105//105 91//91
f 92//92 93//93 110//110
f 92//92 110//110 106//106
f 110//110 93//93 94//94
f 110//110 94//94 95//95
f 110//110 95//95 96//96
f 106//106 110//110 96//96
f 106//106 96//96 97//97
f 107//107 106//106 97//97
f 108//108 97//97 111//111
f 97//97 99//99 111//111
f 107//107 97//97 108//108
f 99//99 98//98 111//111
f 98//98 104//104 112//112
f 111//111 98//98 113//113
f 98//98 112//112 113//113
f 114//114 103//103 100//100
f 115//115 100//100 101//101
f 114//114 100//100 115//115
f 105//105 116//116 101//101
f 101//101 116//116 115//115
f 114//114 104//104 103//103
f 117//117 104//104 114//114
f 112//112 104//104 117//117
f 118//118 105//105 109//109
f 116//116 105//105 118//118
f 119//119 109//109 108//108
f 111//111 119//119 108//108
f 118//118 109//109 119//119
f 111//111 113//113 119//119
f 112//112 120//120 121//121
f 113//113 112//112 121//121
f 117//117 120//120 112//112
f 113//113 118//118 119//119
f 113//113 121//121 116//116
f 116//116 118//118 113//113
f 115//115 122//122 114//114
f 114//114 122//122 115//115
f 117//117 114//114 122//122
f 115//115 120//120 122//122
f 115//115 121//121 120//120
f 116//116 121//121 115//115
f 122//122 120//120 117//117
