# Generated by Visualization Toolkit
v -0.01601400040090084 -0.40074700117111206 0.020868999883532524
v -0.021023999899625778 -0.4070659875869751 0.021717000752687454
v -0.021445000544190407 -0.39987701177597046 0.01822499930858612
v -0.01939300075173378 -0.39263099431991577 0.014918000437319279
v -0.015248999930918217 -0.3925260007381439 0.014196000061929226
v -0.009855999611318111 -0.3951689898967743 0.014426000416278839
v -0.004985000006854534 -0.39785900712013245 0.01895800046622753
v -0.010006999596953392 -0.4011160135269165 0.023804999887943268
v -0.014948000200092793 -0.40432101488113403 0.02269200049340725
v -0.016224000602960587 -0.4043540060520172 0.022915000095963478
v -0.0184480007737875 -0.4057160019874573 0.023460999131202698
v -0.02176699973642826 -0.39763399958610535 0.02188500016927719
v -0.02471200004220009 -0.39114299416542053 0.016798999160528183
v -0.02104800008237362 -0.3961839973926544 0.02598400041460991
v -0.02252900041639805 -0.3845120072364807 0.009429000318050385
v -0.014558999799191952 -0.38430899381637573 0.00803999975323677
v -0.007083000149577856 -0.3852989971637726 0.01140500046312809
v -0.002937000012025237 -0.3863990008831024 0.018647000193595886
v -0.006380999926477671 -0.3904530107975006 0.025793999433517456
v -0.012242999859154224 -0.3945249915122986 0.02832699939608574
v -0.017343999817967415 -0.3946549892425537 0.02921600081026554
v -0.02590099908411503 -0.3866559863090515 0.02264999970793724
v -0.024267999455332756 -0.3802179992198944 0.01723499968647957
v -0.024630000814795494 -0.3874970078468323 0.029534999281167984
v -0.020214999094605446 -0.3737410008907318 0.014378000050783157
v -0.0183119997382164 -0.38820600509643555 0.03497299924492836
v -0.015591000206768513 -0.3736230134963989 0.013571999967098236
v -0.012445000000298023 -0.3708040118217468 0.01669500023126602
v -0.012152000330388546 -0.3680559992790222 0.02032800018787384
v -0.008093000389635563 -0.3779410123825073 0.02520499937236309
v -0.00970499962568283 -0.3879869878292084 0.03347399830818176
v -0.024001000449061394 -0.3690069913864136 0.022390000522136688
v -0.02300100028514862 -0.36438700556755066 0.018171999603509903
v -0.024380000308156013 -0.3751029968261719 0.029072999954223633
v -0.019937999546527863 -0.35972899198532104 0.015651000663638115
v -0.018595000728964806 -0.3810490071773529 0.03581099957227707
v -0.01611199975013733 -0.3596319854259491 0.014984999783337116
v -0.009507999755442142 -0.3808180093765259 0.03422800078988075
v -0.013294000178575516 -0.3468709886074066 0.01717500016093254
v -0.01244799979031086 -0.3341670036315918 0.02051600068807602
v -0.007996000349521637 -0.35740798711776733 0.025662999600172043
v -0.022430000826716423 -0.35919100046157837 0.0221560001373291
v -0.022110000252723694 -0.34269800782203674 0.019040999934077263
v -0.021893000230193138 -0.3685019910335541 0.026398999616503716
v -0.02012999914586544 -0.3261750042438507 0.017084000632166862
v -0.017860999330878258 -0.3777259886264801 0.030132999643683434
v -0.01709900051355362 -0.3260979950428009 0.01655600033700466
v -0.012280999682843685 -0.3775840103626251 0.02916100062429905
v -0.015421000309288502 -0.2809309959411621 0.01828099973499775
v -0.01191799994558096 -0.30664899945259094 0.024754000827670097
v -0.015062999911606312 -0.2358040064573288 0.021369999274611473
v -0.026907000690698624 -0.30161601305007935 0.023168999701738358
v -0.02607399970293045 -0.2803710103034973 0.018343999981880188
v -0.022540999576449394 -0.3300589919090271 0.026434000581502914
v -0.022839000448584557 -0.2590849995613098 0.015552000142633915
v -0.017767999321222305 -0.35846298933029175 0.026402000337839127
v -0.018376000225543976 -0.2589710056781769 0.014774000272154808
v -0.01457899995148182 -0.358381986618042 0.025846000760793686
v -0.01727299951016903 -0.19982099533081055 0.018852999433875084
v -0.015992000699043274 -0.24953700602054596 0.02389799989759922
v -0.019406000152230263 -0.14074599742889404 0.02251099981367588
v -0.029506999999284744 -0.23617100715637207 0.023886999115347862
v -0.02886500023305416 -0.20808100700378418 0.018418999388813972
v -0.02382900007069111 -0.2649039924144745 0.026686999946832657
v -0.025349000468850136 -0.17993900179862976 0.015045000240206718
v -0.019061999395489693 -0.2936230003833771 0.025119999423623085
v -0.020089000463485718 -0.1798049956560135 0.014128999784588814
v -0.01699100062251091 -0.29357001185417175 0.024759000167250633
v -0.01715400069952011 -0.14391200244426727 0.017808999866247177
v -0.01668900065124035 -0.20083199441432953 0.024529000744223595
v -0.017349999397993088 -0.10810200124979019 0.02228499948978424
v -0.030671000480651855 -0.18763799965381622 0.024286000058054924
v -0.0295609999448061 -0.15937599539756775 0.019050000235438347
v -0.02574799954891205 -0.19243599474430084 0.02747100032866001
v -0.026030000299215317 -0.13107599318027496 0.01637299917638302
v -0.02144699916243553 -0.1972140073776245 0.02643200010061264
v -0.02140600048005581 -0.13095900416374207 0.015567000024020672
v -0.019054999575018883 -0.1971530020236969 0.02601500041782856
v -0.01668900065124035 -0.10624700039625168 0.016706999391317368
v -0.015691999346017838 -0.139383003115654 0.02624399960041046
v -0.013081000186502934 -0.08159299939870834 0.021648000925779343
v -0.030309999361634254 -0.13808999955654144 0.02442299947142601
v -0.029556000605225563 -0.1104929968714714 0.020028000697493553
v -0.0265749990940094 -0.13508999347686768 0.02737800031900406
v -0.026695000007748604 -0.08286400139331818 0.017695000395178795
v -0.023009000346064568 -0.13206900656223297 0.02696700021624565
v -0.022709999233484268 -0.08276300132274628 0.017000000923871994
v -0.02061600051820278 -0.13200800120830536 0.02655000053346157
v -0.015112999826669693 -0.07685700058937073 0.014599000103771687
v -0.013187999837100506 -0.1015319973230362 0.028226999565958977
v -0.00585100008174777 -0.07098100334405899 0.020430000498890877
v -0.028519000858068466 -0.10512500256299973 0.024243999272584915
v -0.029656000435352325 -0.08670700341463089 0.020454000681638718
v -0.027164999395608902 -0.10283800214529037 0.027455000206828117
v -0.027782000601291656 -0.06821300089359283 0.016426999121904373
v -0.02406099997460842 -0.10049699991941452 0.029301000759005547
v -0.022839000448584557 -0.06808800250291824 0.015565999783575535
v -0.02039399929344654 -0.10040400177240372 0.028661999851465225
v -0.015073000453412533 -0.06332799792289734 0.014333000406622887
v -0.01300899963825941 -0.07953199744224548 0.02875399962067604
v -0.0066639999859035015 -0.05861600115895271 0.020622000098228455
v -0.027305999770760536 -0.06956899911165237 0.02417599968612194
v -0.03165299817919731 -0.06719399988651276 0.019865000620484352
v -0.03092700056731701 -0.06384199857711792 0.030690999701619148
v -0.03044000081717968 -0.06465300172567368 0.01159599982202053
v -0.02652299962937832 -0.057944998145103455 0.03976299986243248
v -0.02215000055730343 -0.06444200128316879 0.010150999762117863
v -0.01664000004529953 -0.057693999260663986 0.038040999323129654
v -0.01601400040090084 -0.058306001126766205 0.01522199995815754
v -0.012540999799966812 -0.054917000234127045 0.02947399951517582
v -0.014557999558746815 -0.05229699984192848 0.022022999823093414
v -0.028133999556303024 -0.05655299872159958 0.024373000487685204
v -0.02959500066936016 -0.05493199825286865 0.021118000149726868
v -0.027705999091267586 -0.049883998930454254 0.0271380003541708
v -0.028017999604344368 -0.05322900041937828 0.016781000420451164
v -0.02536099962890148 -0.043163999915122986 0.029254000633955002
v -0.023236000910401344 -0.05310700088739395 0.015946999192237854
v -0.022012999281287193 -0.04307899996638298 0.02867100015282631
v -0.02003300003707409 -0.050450000911951065 0.019235000014305115
v -0.01994200050830841 -0.04545300081372261 0.026037000119686127
v -0.019826000556349754 -0.047867998480796814 0.02295999974012375
v -0.02437499910593033 -0.05189500004053116 0.023737000301480293
vn 0.16631700098514557 -0.6012099981307983 -0.78159099817276
vn -0.4736129939556122 -0.7936019897460938 -0.3819510042667389
vn -0.400272011756897 -0.5380430221557617 -0.7418169975280762
vn -0.18212200701236725 -0.559909999370575 -0.8082889914512634
vn -0.06074700132012367 -0.6102920174598694 -0.7898439764976501
vn 0.24557800590991974 -0.6492940187454224 -0.7197970151901245
vn 0.6172279715538025 -0.6956610083580017 -0.3675389885902405
vn 0.767524003982544 -0.6375619769096375 -0.06649599969387054
vn 0.5076829791069031 -0.8589879870414734 -0.06632000207901001
vn -0.1520330011844635 -0.9854410290718079 -0.0760980024933815
vn -0.29290398955345154 -0.9398670196533203 -0.17565999925136566
vn -0.9534620046615601 -0.2930630147457123 0.07088799774646759
vn -0.8882250189781189 -0.18830199539661407 -0.41904398798942566
vn -0.7426530122756958 -0.4949069917201996 0.4511469900608063
vn -0.48118698596954346 -0.13270099461078644 -0.8665149807929993
vn 0.11140900105237961 -0.08755899965763092 -0.9899100065231323
vn 0.6717090010643005 -0.020961999893188477 -0.7405179738998413
vn 0.9877399802207947 0.10159199684858322 -0.11852599680423737
vn 0.8982300162315369 0.0246799997985363 0.43883201479911804
vn 0.50941002368927 -0.38723599910736084 0.7684730291366577
vn -0.1809370070695877 -0.6110000014305115 0.770675003528595
vn -0.9764540195465088 -0.14751100540161133 -0.1574079990386963
vn -0.8268510103225708 -0.000387999985832721 -0.562421977519989
vn -0.8910660147666931 -0.3001990020275116 0.34041398763656616
vn -0.44545599818229675 0.18148300051689148 -0.8767169713973999
vn -0.305074006319046 -0.42669299244880676 0.8513889908790588
vn 0.08284299820661545 0.28773900866508484 -0.9541190266609192
vn 0.6535369753837585 0.2867009937763214 -0.7004939913749695
vn 0.9068940281867981 0.24801400303840637 -0.3406350016593933
vn 0.9871399998664856 0.15977300703525543 0.005193000193685293
vn 0.6936709880828857 -0.19231300055980682 0.6941440105438232
vn -0.8792070150375366 0.20590199530124664 0.4296500086784363
vn -0.9772980213165283 0.11465799808502197 -0.17816099524497986
vn -0.48591598868370056 0.354203999042511 0.7990149855613708
vn -0.5323169827461243 0.0778919979929924 -0.8429539799690247
vn 0.07968299835920334 0.41859200596809387 0.9046720266342163
vn -0.05389299988746643 0.07195399701595306 -0.9959509968757629
vn 0.5411379933357239 0.25251200795173645 0.8021270036697388
vn 0.5289729833602905 0.06464800238609314 -0.8461729884147644
vn 0.8720890283584595 0.02898300066590309 -0.48848798871040344
vn 0.9991340041160583 0.02579599991440773 0.03264300152659416
vn -0.7784730195999146 0.1518159955739975 0.6090409755706787
vn -0.939303994178772 0.027067000046372414 -0.3420169949531555
vn 0.254736989736557 0.33857399225234985 0.9058020114898682
vn -0.46443501114845276 0.006874999962747097 -0.8855800032615662
vn 0.5000330209732056 0.476269006729126 0.7232810258865356
vn 0.1364089995622635 0.018523000180721283 -0.9904789924621582
vn 0.20827999711036682 0.3082369863986969 0.9282289743423462
vn 0.8273900151252747 0.03450300171971321 -0.5605679750442505
vn 0.7472590208053589 0.04221599921584129 0.663191020488739
vn 0.9982119798660278 0.0328419990837574 -0.04994399845600128
vn -0.9561290144920349 -0.03890800103545189 0.2903519868850708
vn -0.7738180160522461 -0.04216799885034561 -0.6320030093193054
vn 0.017038000747561455 0.03953399881720543 0.9990730285644531
vn -0.3632270097732544 -0.02653699927031994 -0.9313229918479919
vn 0.3985919952392578 0.09384000301361084 0.9123150110244751
vn 0.40022799372673035 -0.006961999926716089 -0.916388988494873
vn 0.27097898721694946 0.059130001813173294 0.9607669711112976
vn 0.9786570072174072 0.010130000300705433 -0.20524799823760986
vn 0.8171610236167908 0.013504999689757824 0.5762509703636169
vn 0.998183012008667 0.010107999667525291 -0.05939599871635437
vn -0.9374300241470337 -0.029113000258803368 0.34695398807525635
vn -0.8168659806251526 -0.01984800025820732 -0.5764849781990051
vn -0.10443799942731857 -0.004997999873012304 0.9945189952850342
vn -0.39868399500846863 -0.002056000055745244 -0.9170860052108765
vn 0.2577509880065918 0.008252999745309353 0.9661759734153748
vn 0.12601600587368011 0.01474899984896183 -0.9919189810752869
vn 0.3850589990615845 -0.00483600003644824 0.9228789806365967
vn 0.7815819978713989 0.004428999964147806 -0.623786985874176
vn 0.9877319931983948 -0.07862800359725952 -0.13492000102996826
vn 0.736598014831543 -0.04050299897789955 -0.675117015838623
vn -0.9349579811096191 -0.013206000439822674 0.3545129895210266
vn -0.8611289858818054 0.0007939999923110008 -0.5083860158920288
vn -0.2257850021123886 -0.012059000320732594 0.9741020202636719
vn -0.43354499340057373 0.016813000664114952 -0.9009749889373779
vn 0.17244400084018707 -0.006525999866425991 0.9849979877471924
vn -0.14731399714946747 0.025275999680161476 -0.9887670278549194
vn 0.2098979949951172 -0.02464199997484684 0.9774129986763
vn 0.3436119854450226 -0.018245000392198563 -0.9389349818229675
vn 0.9285770058631897 -0.3682110011577606 0.046532999724149704
vn 0.5622149705886841 -0.13230000436306 -0.8163400292396545
vn -0.907971978187561 0.008541000075638294 0.41894400119781494
vn -0.9782469868659973 0.02105100080370903 -0.2063719928264618
vn -0.5227429866790771 -0.030981000512838364 0.8519269824028015
vn -0.537837028503418 -0.01508999988436699 -0.8429139852523804
vn -0.0000670000008540228 -0.04077399894595146 0.9991679787635803
vn -0.18925899267196655 -0.03787299990653992 -0.9811969995498657
vn 0.09692899882793427 -0.03676199913024902 0.9946119785308838
vn 0.20977100729942322 -0.05074699968099594 -0.9764329791069031
vn 0.5118269920349121 -0.1623079925775528 0.8436170220375061
vn 0.759975016117096 -0.12761299312114716 -0.6373019814491272
vn -0.9451709985733032 0.0024510000366717577 0.32656800746917725
vn -0.9835969805717468 -0.007741000037640333 0.18021200597286224
vn -0.9131019711494446 -0.09493599832057953 0.3965260088443756
vn -0.6709960103034973 -0.3208119869232178 -0.6684640049934387
vn -0.2709130048751831 -0.15610100328922272 0.9498630166053772
vn 0.13561199605464935 -0.48424598574638367 -0.8643590211868286
vn 0.3606950044631958 -0.09561099857091904 0.9277700185775757
vn 0.6570760011672974 -0.13132600486278534 -0.7422969937324524
vn 0.7090010046958923 0.22869400680065155 0.6670960187911987
vn 0.9324420094490051 0.3341290056705475 -0.1375100016593933
vn -0.9929519891738892 0.020827999338507652 0.11667200177907944
vn -0.9834190011024475 0.011489000171422958 0.1809840053319931
vn -0.9984779953956604 0.050988998264074326 0.021028000861406326
vn -0.7485330104827881 -0.10552100092172623 -0.6546480059623718
vn -0.4966770112514496 0.14007799327373505 0.8565570116043091
vn 0.35750699043273926 -0.18283599615097046 -0.9158380031585693
vn 0.6320970058441162 0.2991139888763428 0.7148320078849792
vn 0.810670018196106 0.2025890052318573 -0.5493379831314087
vn 0.8062090277671814 0.5914959907531738 0.012628999538719654
vn 0.7196609973907471 0.6069449782371521 -0.3372020125389099
vn -0.9489830136299133 0.314875990152359 -0.016896000131964684
vn -0.8699740171432495 0.4369199872016907 0.22857700288295746
vn -0.8422300219535828 0.33294200897216797 -0.4240260124206543
vn -0.5331739783287048 0.7603359818458557 -0.37096500396728516
vn -0.6305630207061768 0.7424200177192688 -0.22628100216388702
vn -0.08065599948167801 0.7974429726600647 -0.5979800224304199
vn 0.15782999992370605 0.9365699887275696 -0.3129329979419708
vn -0.0027759999502450228 0.8070470094680786 -0.5904800295829773
vn 0.09228599816560745 0.8117700219154358 -0.5766389966011047
vn -0.026499999687075615 0.8022329807281494 -0.596422016620636
vn -0.5305799841880798 0.7302219867706299 -0.4304180145263672
f 1//1 2//2 3//3
f 1//1 3//3 4//4
f 1//1 4//4 5//5
f 1//1 5//5 6//6
f 1//1 6//6 7//7
f 1//1 7//7 8//8
f 1//1 8//8 9//9
f 1//1 9//9 10//10
f 1//1 10//10 11//11
f 1//1 11//11 2//2
f 2//2 12//12 13//13 3//3
f 11//11 14//14 12//12 2//2
f 3//3 13//13 15//15 4//4
f 4//4 15//15 16//16 5//5
f 5//5 16//16 17//17 6//6
f 6//6 17//17 18//18 7//7
f 7//7 18//18 19//19 8//8
f 8//8 19//19 20//20 9//9
f 9//9 20//20 21//21 10//10
f 10//10 21//21 14//14 11//11
f 12//12 22//22 23//23 13//13
f 14//14 24//24 22//22 12//12
f 13//13 23//23 25//25 15//15
f 21//21 26//26 24//24 14//14
f 15//15 25//25 27//27 16//16
f 16//16 27//27 28//28 17//17
f 17//17 28//28 29//29 18//18
f 18//18 29//29 30//30 19//19
f 19//19 30//30 31//31 20//20
f 20//20 31//31 26//26 21//21
f 22//22 32//32 33//33 23//23
f 24//24 34//34 32//32 22//22
f 23//23 33//33 35//35 25//25
f 26//26 36//36 34//34 24//24
f 25//25 35//35 37//37 27//27
f 31//31 38//38 36//36 26//26
f 27//27 37//37 39//39 28//28
f 28//28 39//39 40//40 29//29
f 29//29 40//40 41//41 30//30
f 30//30 41//41 38//38 31//31
f 32//32 42//42 43//43 33//33
f 34//34 44//44 42//42 32//32
f 33//33 43//43 45//45 35//35
f 36//36 46//46 44//44 34//34
f 35//35 45//45 47//47 37//37
f 38//38 48//48 46//46 36//36
f 37//37 47//47 49//49 39//39
f 41//41 50//50 48//48 38//38
f 39//39 49//49 51//51 40//40
f 40//40 51//51 50//50 41//41
f 42//42 52//52 53//53 43//43
f 44//44 54//54 52//52 42//42
f 43//43 53//53 55//55 45//45
f 46//46 56//56 54//54 44//44
f 45//45 55//55 57//57 47//47
f 48//48 58//58 56//56 46//46
f 47//47 57//57 59//59 49//49
f 50//50 60//60 58//58 48//48
f 49//49 59//59 61//61 51//51
f 51//51 61//61 60//60 50//50
f 52//52 62//62 63//63 53//53
f 54//54 64//64 62//62 52//52
f 53//53 63//63 65//65 55//55
f 56//56 66//66 64//64 54//54
f 55//55 65//65 67//67 57//57
f 58//58 68//68 66//66 56//56
f 57//57 67//67 69//69 59//59
f 60//60 70//70 68//68 58//58
f 59//59 69//69 71//71 61//61
f 61//61 71//71 70//70 60//60
f 62//62 72//72 73//73 63//63
f 64//64 74//74 72//72 62//62
f 63//63 73//73 75//75 65//65
f 66//66 76//76 74//74 64//64
f 65//65 75//75 77//77 67//67
f 68//68 78//78 76//76 66//66
f 67//67 77//77 79//79 69//69
f 70//70 80//80 78//78 68//68
f 69//69 79//79 81//81 71//71
f 71//71 81//81 80//80 70//70
f 72//72 82//82 83//83 73//73
f 74//74 84//84 82//82 72//72
f 73//73 83//83 85//85 75//75
f 76//76 86//86 84//84 74//74
f 75//75 85//85 87//87 77//77
f 78//78 88//88 86//86 76//76
f 77//77 87//87 89//89 79//79
f 80//80 90//90 88//88 78//78
f 79//79 89//89 91//91 81//81
f 81//81 91//91 90//90 80//80
f 82//82 92//92 93//93 83//83
f 84//84 94//94 92//92 82//82
f 83//83 93//93 95//95 85//85
f 86//86 96//96 94//94 84//84
f 85//85 95//95 97//97 87//87
f 88//88 98//98 96//96 86//86
f 87//87 97//97 99//99 89//89
f 90//90 100//100 98//98 88//88
f 89//89 99//99 101//101 91//91
f 91//91 101//101 100//100 90//90
f 92//92 102//102 103//103 93//93
f 94//94 104//104 102//102 92//92
f 93//93 103//103 105//105 95//95
f 96//96 106//106 104//104 94//94
f 95//95 105//105 107//107 97//97
f 98//98 108//108 106//106 96//96
f 97//97 107//107 109//109 99//99
f 100//100 110//110 108//108 98//98
f 99//99 109//109 111//111 101//101
f 101//101 111//111 110//110 100//100
f 102//102 112//112 113//113 103//103
f 104//104 114//114 112//112 102//102
f 103//103 113//113 115//115 105//105
f 106//106 116//116 114//114 104//104
f 105//105 115//115 117//117 107//107
f 108//108 118//118 116//116 106//106
f 107//107 117//117 119//119 109//109
f 110//110 120//120 118//118 108//108
f 109//109 119//119 121//121 111//111
f 111//111 121//121 120//120 110//110
f 112//112 122//122 113//113
f 114//114 122//122 112//112
f 113//113 122//122 115//115
f 116//116 122//122 114//114
f 115//115 122//122 117//117
f 118//118 122//122 116//116
f 117//117 122//122 119//119
f 120//120 122//122 118//118
f 119//119 122//122 121//121
f 121//121 122//122 120//120
