# Generated by Visualization Toolkit
v -0.25 0 0.30000001192092896
v -0.25 0 0.4000000059604645
v -0.25 0.10000000149011612 0.30000001192092896
v -0.25 0.10000000149011612 0.4000000059604645
v 0.25 0 0.30000001192092896
v 0.25 0 0.4000000059604645
v 0.25 0.10000000149011612 0.30000001192092896
v 0.25 0.10000000149011612 0.4000000059604645
v -0.25 0 0.30000001192092896
v -0.25 0 0.4000000059604645
v 0.25 0 0.30000001192092896
v 0.25 0 0.4000000059604645
v -0.25 0.10000000149011612 0.30000001192092896
v -0.25 0.10000000149011612 0.4000000059604645
v 0.25 0.10000000149011612 0.30000001192092896
v 0.25 0.10000000149011612 0.4000000059604645
v -0.25 0 0.30000001192092896
v 0.25 0 0.30000001192092896
v -0.25 0.10000000149011612 0.30000001192092896
v 0.25 0.10000000149011612 0.30000001192092896
v -0.25 0 0.4000000059604645
v 0.25 0 0.4000000059604645
v -0.25 0.10000000149011612 0.4000000059604645
v 0.25 0.10000000149011612 0.4000000059604645
vn -1 0 0
vn -1 0 0
vn -1 0 0
vn -1 0 0
vn 1 0 0
vn 1 0 0
vn 1 0 0
vn 1 0 0
vn 0 -1 0
vn 0 -1 0
vn 0 -1 0
vn 0 -1 0
vn 0 1 0
vn 0 1 0
vn 0 1 0
vn 0 1 0
vn 0 0 -1
vn 0 0 -1
vn 0 0 -1
vn 0 0 -1
vn 0 0 1
vn 0 0 1
vn 0 0 1
vn 0 0 1
f 1//1 2//2 4//4 3//3
f 5//5 7//7 8//8 6//6
f 9//9 11//11 12//12 10//10
f 13//13 14//14 16//16 15//15
f 17//17 19//19 20//20 18//18
f 21//21 22//22 24//24 23//23
