# Generated by Visualization Toolkit
v -0.013802999630570412 -0.02690800093114376 0.003992999903857708
v -0.01182200014591217 -0.023895999416708946 0.008425000123679638
v -0.013660999946296215 -0.025862999260425568 0.004056999925523996
v -0.013904999941587448 -0.02604999952018261 0.0027409999165683985
v -0.012682000175118446 -0.027713999152183533 0.006819000001996756
v -0.010397999547421932 -0.028566999360919 0.006014999933540821
v -0.011745000258088112 -0.027668999508023262 0.0024850000627338886
v -0.01169699989259243 -0.02626500092446804 -0.0003279999946244061
v -0.01202400028705597 -0.02247699908912182 0.0034779999405145645
v -0.011909999884665012 -0.027009999379515648 0.009026999585330486
v -0.01043500006198883 -0.020082000643014908 0.0074880002066493034
v -0.009267999790608883 -0.02270199917256832 0.008322999812662601
v -0.013423999771475792 -0.022140000015497208 0.0008800000068731606
v -0.012616000138223171 -0.024167999625205994 -0.0009110000100918114
v -0.009081000462174416 -0.027998000383377075 0.007584000006318092
v -0.005247000139206648 -0.02721400000154972 0.0029279999434947968
v -0.004244000185281038 -0.027458999305963516 0.004370999988168478
v -0.0034050000831484795 -0.024908000603318214 -0.0032430000137537718
v -0.011494000442326069 -0.024013999849557877 -0.00317499996162951
v -0.0035570000763982534 -0.022498000413179398 -0.005508000031113625
v -0.011637000367045403 -0.019666999578475952 -0.000295000005280599
v -0.007323000114411116 -0.01496999990195036 0.006504999939352274
v -0.006878000218421221 -0.014403999783098698 0.004275000188499689
v -0.00863999966531992 -0.017906999215483665 0.0016749999485909939
v -0.004687999840825796 -0.014503000304102898 0.0067449999041855335
v -0.0016199999954551458 -0.024553999304771423 0.0038620000705122948
v -0.002948000095784664 -0.0164170004427433 0.0069240001030266285
v -0.011125000193715096 -0.021379999816417694 -0.0022189998999238014
v -0.0022140000946819782 -0.027799999341368675 0.0023980000987648964
v 0.0007159999804571271 -0.029113000258803368 -0.006302999798208475
v 0.0007019999902695417 -0.0299529992043972 -0.004556000232696533
v -0.010002999566495419 -0.021570999175310135 -0.004732999950647354
v -0.0027540000155568123 -0.020648999139666557 -0.0064650001004338264
v -0.005615000147372484 -0.019155999645590782 -0.006845999974757433
v 0.00013800000306218863 -0.027014000341296196 -0.007156999781727791
v -0.006393000017851591 -0.015370000153779984 -0.0004830000107176602
v -0.006390000227838755 -0.015809999778866768 -0.001281999982893467
v -0.003837999887764454 -0.01638299971818924 -0.004267000127583742
v -0.007102999836206436 -0.013523000292479992 0.0048340000212192535
v -0.00483699981123209 -0.012741000391542912 0.00583800021559
v -0.006147000007331371 -0.012992000207304955 -0.0006099999882280827
v -0.002894999925047159 -0.009789000265300274 0.005437000188976526
v 0.0004769999941345304 -0.013368000276386738 0.006868000142276287
v 0.0014779999619349837 -0.025645999237895012 0.0018729999428614974
v 0.003186000045388937 -0.014688000082969666 0.0059710000641644
v 0.0030670000705868006 -0.016721000894904137 0.00496299983933568
v 0.0013770000077784061 -0.028922999277710915 -0.00039900001138448715
v 0.00048600000445730984 -0.029865000396966934 -0.0012489999644458294
v 0.0026549999602138996 -0.02919900044798851 -0.0035180000122636557
v 0.0026390000712126493 -0.028099000453948975 -0.005934999790042639
v -0.0017010000301524997 -0.018797000870108604 -0.007321999873965979
v -0.00022499999613501132 -0.021340999752283096 -0.0074280002154409885
v -0.004373000003397465 -0.017152000218629837 -0.007763000205159187
v 0.002701000077649951 -0.020423000678420067 -0.0063240001909434795
v 0.001680999994277954 -0.02141599915921688 -0.006889999844133854
v -0.004951000213623047 -0.014096000231802464 -0.0024470000062137842
v -0.003800000064074993 -0.015527999959886074 -0.004280999768525362
v -0.003355999942868948 -0.014774000272154808 -0.005632000043988228
v -0.007375000044703484 -0.012288999743759632 0.0031010000966489315
v -0.006893999874591827 -0.011254999786615372 -0.0015429999912157655
v 0.002452000044286251 -0.008688000030815601 0.006459000054746866
v -0.00016799999866634607 -0.007025000173598528 0.002638000063598156
v 0.0023930000606924295 -0.010394000448286533 0.007203000131994486
v 0.004048999864608049 -0.009965999983251095 0.007044999860227108
v 0.005026999861001968 -0.012240000069141388 0.006566000171005726
v 0.004406000021845102 -0.019733000546693802 0.002237000036984682
v 0.004846999887377024 -0.014446999877691269 0.004352999851107597
v 0.005129000172019005 -0.016008000820875168 0.0012410000199452043
v 0.005578000098466873 -0.01951799914240837 -0.00018400000408291817
v 0.004435000009834766 -0.02633100003004074 -0.0033100000582635403
v 0.0012649999698624015 -0.015035999938845634 -0.008488000370562077
v 0.002094999887049198 -0.019074000418186188 -0.0073079997673630714
v -0.0016629999736323953 -0.013426999561488628 -0.007557999808341265
v -0.0026829999405890703 -0.014073999598622322 -0.007180999964475632
v -0.0032500000670552254 -0.0139340003952384 -0.006653000134974718
v -0.005423999857157469 -0.012075000442564487 -0.00445799995213747
v -0.0033360000234097242 -0.013120999559760094 -0.006533000152558088
v 0.00016199999663513154 -0.006194000132381916 -0.0006960000027902424
v -0.0012509999796748161 -0.009224999696016312 -0.005493000149726868
v 0.004048999864608049 -0.007242999970912933 0.0036639999598264694
v 0.003329999977722764 -0.005896000191569328 0.00008600000001024455
v 0.006672999821603298 -0.010579000227153301 0.0037150001153349876
v 0.006641999818384647 -0.011714999563992023 0.0033259999472647905
v 0.006810000166296959 -0.011927000246942043 -0.0035250000655651093
v 0.005528000183403492 -0.01498399954289198 -0.005417999811470509
v 0.0009319999953731894 -0.013539999723434448 -0.008326999843120575
v 0.004650999791920185 -0.011556999757885933 -0.0056859999895095825
v -0.0024790000170469284 -0.013306000269949436 -0.0070870001800358295
v 0.004035999998450279 -0.006438000127673149 -0.0029980000108480453
v 0.005030000116676092 -0.006711000110954046 -0.0027570000384002924
vn -0.8506789803504944 -0.5254579782485962 -0.015465999953448772
vn -0.7950839996337891 0.2549799978733063 0.5502960085868835
vn -0.9254419803619385 0.2706280052661896 0.2651729881763458
vn -0.9573850035667419 -0.19533999264240265 -0.21273499727249146
vn -0.7867479920387268 -0.5399370193481445 0.2991580069065094
vn -0.1037210002541542 -0.9939529895782471 0.036035001277923584
vn -0.20410600304603577 -0.9277700185775757 -0.3123849928379059
vn -0.37432101368904114 -0.7668840289115906 -0.5213189721107483
vn -0.8212710022926331 0.5395410060882568 0.18549899756908417
vn -0.25486499071121216 -0.4694159924983978 0.845395028591156
vn -0.6157900094985962 0.4418269991874695 0.6523740291595459
vn 0.13547399640083313 0.08672600239515305 0.9869779944419861
vn -0.9395779967308044 0.3344320058822632 -0.07313299924135208
vn -0.8729609847068787 -0.11273500323295593 -0.4745829999446869
vn 0.3670929968357086 -0.573976993560791 0.7319790124893188
vn -0.019324999302625656 -0.9553430080413818 -0.29486700892448425
vn 0.30875998735427856 -0.8938999772071838 0.32497599720954895
vn -0.4951469898223877 -0.7580379843711853 -0.4245089888572693
vn -0.676226019859314 -0.2863439917564392 -0.67876797914505
vn -0.36480599641799927 -0.5172079801559448 -0.7742170095443726
vn -0.7084730267524719 0.685778021812439 -0.16665500402450562
vn -0.658253014087677 0.48314398527145386 0.5773000121116638
vn -0.951291024684906 0.26214599609375 -0.1622530072927475
vn -0.7553939819335938 0.6506519913673401 0.07766400277614594
vn -0.13112999498844147 0.2720859944820404 0.9532960057258606
vn 0.48833099007606506 -0.30614200234413147 0.8171960115432739
vn 0.2479570060968399 -0.19310800731182098 0.9493290185928345
vn -0.7741289734840393 0.40101200342178345 -0.4898099899291992
vn -0.03976999968290329 -0.9219170212745667 0.38533899188041687
vn -0.22233599424362183 -0.7345280051231384 -0.6411200165748596
vn -0.3393099904060364 -0.9209010004997253 -0.19186200201511383
vn -0.6260700225830078 0.21517899632453918 -0.7494890093803406
vn -0.3109000027179718 -0.2540439963340759 -0.9158620238304138
vn -0.42006999254226685 -0.08632999658584595 -0.9033759832382202
vn -0.017281999811530113 -0.1900230050086975 -0.9816280007362366
vn -0.8430110216140747 0.4833329916000366 -0.23605500161647797
vn -0.7302449941635132 0.42686301469802856 -0.5334129929542542
vn -0.7891579866409302 0.4827350080013275 -0.3797309994697571
vn -0.9766200184822083 0.1725340038537979 0.1282380074262619
vn -0.44036999344825745 0.5522900223731995 0.7078490257263184
vn -0.9324430227279663 -0.24684900045394897 -0.2638480067253113
vn -0.38580000400543213 0.502020001411438 0.7740370035171509
vn 0.025627000257372856 -0.06944499909877777 0.9972559809684753
vn 0.49180901050567627 -0.39572200179100037 0.775583028793335
vn 0.3977789878845215 -0.40670499205589294 0.8224130272865295
vn 0.6201429963111877 -0.3685480058193207 0.6925269961357117
vn 0.6506819725036621 -0.5594149827957153 0.5134850144386292
vn 0.1436150074005127 -0.952239990234375 0.2694680094718933
vn 0.6282740235328674 -0.7765380144119263 -0.047543998807668686
vn 0.6500459909439087 -0.3715449869632721 -0.6628680229187012
vn -0.09808000177145004 -0.2501400113105774 -0.9632290005683899
vn -0.048434000462293625 -0.09585999697446823 -0.9942160248756409
vn -0.6879569888114929 0.26109200716018677 -0.6771600246429443
vn 0.7708100080490112 0.004089000169187784 -0.6370519995689392
vn 0.444364994764328 -0.1542769968509674 -0.8824620246887207
vn -0.9052209854125977 -0.11689700186252594 -0.40854600071907043
vn -0.8667870163917542 -0.13091899454593658 -0.48118698596954346
vn -0.987205982208252 0.07736799865961075 -0.1394210010766983
vn -0.8407469987869263 0.48502999544143677 0.2406039983034134
vn -0.9317359924316406 0.1784439980983734 -0.3162679970264435
vn -0.04872699826955795 0.6925539970397949 0.7197189927101135
vn -0.28589099645614624 0.898514986038208 0.3330709934234619
vn -0.1125980019569397 0.17965300381183624 0.9772650003433228
vn 0.4029180109500885 0.2966809868812561 0.8658159971237183
vn 0.6386889815330505 -0.2752610146999359 0.7185459733009338
vn 0.8171939849853516 -0.2541370093822479 0.5173100233078003
vn 0.7630019783973694 -0.47407999634742737 0.4394040107727051
vn 0.964963972568512 -0.2475070059299469 0.08709000051021576
vn 0.9888550043106079 -0.109436996281147 0.100941002368927
vn 0.9469040036201477 -0.31170299649238586 -0.07883299887180328
vn 0.1785919964313507 -0.02508299984037876 -0.9836030006408691
vn 0.5323929786682129 -0.21894699335098267 -0.81769198179245
vn -0.36171799898147583 0.303741991519928 -0.8814200162887573
vn -0.549232006072998 0.34125199913978577 -0.7628179788589478
vn -0.8223029971122742 0.2185239940881729 -0.5254189968109131
vn -0.8399159908294678 -0.03594699874520302 -0.5415239930152893
vn -0.7555919885635376 0.05571100115776062 -0.6526700258255005
vn -0.3749290108680725 0.9225879907608032 -0.09088099747896194
vn -0.36815500259399414 0.6137030124664307 -0.6984480023384094
vn 0.43027299642562866 0.8139129877090454 0.3903979957103729
vn 0.14674699306488037 0.9842810034751892 0.09827099740505219
vn 0.918267011642456 0.2718510031700134 0.28789401054382324
vn 0.9283879995346069 -0.2905929982662201 0.23162800073623657
vn 0.9695749878883362 0.003742000088095665 -0.2447649985551834
vn 0.8163229823112488 -0.20896799862384796 -0.5384690165519714
vn 0.12730099260807037 0.3922559916973114 -0.9110050201416016
vn 0.5763409733772278 0.24879300594329834 -0.7784169912338257
vn -0.4943099915981293 0.2888509929180145 -0.8198919892311096
vn 0.09285300225019455 0.8449239730834961 -0.526764988899231
vn 0.6678140163421631 0.6567299962043762 -0.3503279983997345
f 1//1 2//2 3//3
f 1//1 3//3 4//4
f 5//5 2//2 1//1
f 6//6 1//1 7//7
f 1//1 6//6 5//5
f 1//1 8//8 7//7
f 1//1 4//4 8//8
f 2//2 9//9 3//3
f 2//2 5//5 10//10
f 9//9 2//2 11//11
f 12//12 2//2 10//10
f 11//11 2//2 12//12
f 13//13 3//3 9//9
f 3//3 13//13 4//4
f 4//4 13//13 14//14
f 14//14 8//8 4//4
f 6//6 10//10 5//5
f 10//10 6//6 15//15
f 16//16 6//6 7//7
f 6//6 16//16 17//17
f 17//17 15//15 6//6
f 8//8 16//16 7//7
f 18//18 16//16 8//8
f 14//14 19//19 8//8
f 19//19 20//20 8//8
f 8//8 20//20 18//18
f 13//13 9//9 21//21
f 22//22 9//9 11//11
f 23//23 9//9 22//22
f 9//9 23//23 24//24
f 21//21 9//9 24//24
f 12//12 10//10 15//15
f 22//22 11//11 12//12
f 25//25 22//22 12//12
f 12//12 15//15 26//26
f 27//27 25//25 12//12
f 26//26 27//27 12//12
f 13//13 21//21 28//28
f 14//14 13//13 28//28
f 19//19 14//14 28//28
f 17//17 26//26 15//15
f 29//29 17//17 16//16
f 16//16 18//18 29//29
f 17//17 29//29 26//26
f 18//18 20//20 30//30
f 18//18 30//30 31//31
f 18//18 31//31 29//29
f 19//19 28//28 32//32
f 19//19 32//32 20//20
f 33//33 20//20 34//34
f 32//32 34//34 20//20
f 35//35 20//20 33//33
f 20//20 35//35 30//30
f 21//21 24//24 36//36
f 21//21 36//36 37//37
f 38//38 28//28 21//21
f 38//38 21//21 37//37
f 22//22 39//39 23//23
f 40//40 39//39 22//22
f 25//25 40//40 22//22
f 23//23 36//36 24//24
f 36//36 23//23 41//41
f 41//41 23//23 39//39
f 40//40 25//25 42//42
f 43//43 42//42 25//25
f 25//25 27//27 43//43
f 26//26 44//44 27//27
f 26//26 29//29 44//44
f 43//43 27//27 45//45
f 27//27 46//46 45//45
f 44//44 46//46 27//27
f 32//32 28//28 38//38
f 47//47 44//44 29//29
f 48//48 47//47 29//29
f 29//29 31//31 48//48
f 30//30 49//49 31//31
f 30//30 50//50 49//49
f 50//50 30//30 35//35
f 31//31 49//49 48//48
f 38//38 34//34 32//32
f 34//34 51//51 33//33
f 52//52 33//33 51//51
f 33//33 52//52 35//35
f 34//34 38//38 53//53
f 53//53 51//51 34//34
f 50//50 35//35 54//54
f 35//35 55//55 54//54
f 35//35 52//52 55//55
f 56//56 36//36 41//41
f 37//37 36//36 56//56
f 38//38 37//37 57//57
f 57//57 37//37 56//56
f 53//53 38//38 58//58
f 57//57 58//58 38//38
f 59//59 41//41 39//39
f 39//39 40//40 59//59
f 40//40 42//42 59//59
f 59//59 60//60 41//41
f 60//60 56//56 41//41
f 61//61 62//62 42//42
f 42//42 62//62 59//59
f 42//42 63//63 61//61
f 63//63 42//42 43//43
f 43//43 64//64 63//63
f 43//43 65//65 64//64
f 45//45 65//65 43//43
f 44//44 47//47 66//66
f 44//44 66//66 46//46
f 46//46 67//67 45//45
f 65//65 45//45 67//67
f 46//46 66//66 68//68
f 67//67 46//46 68//68
f 66//66 47//47 69//69
f 69//69 47//47 70//70
f 47//47 49//49 70//70
f 48//48 49//49 47//47
f 50//50 70//70 49//49
f 54//54 70//70 50//50
f 71//71 51//51 53//53
f 72//72 51//51 71//71
f 52//52 51//51 72//72
f 52//52 72//72 55//55
f 73//73 53//53 74//74
f 75//75 53//53 58//58
f 75//75 74//74 53//53
f 73//73 71//71 53//53
f 54//54 68//68 69//69
f 68//68 54//54 72//72
f 54//54 69//69 70//70
f 55//55 72//72 54//54
f 56//56 60//60 76//76
f 56//56 76//76 57//57
f 57//57 77//77 58//58
f 57//57 76//76 77//77
f 77//77 75//75 58//58
f 59//59 62//62 78//78
f 59//59 78//78 60//60
f 60//60 78//78 79//79
f 76//76 60//60 79//79
f 61//61 80//80 62//62
f 80//80 61//61 64//64
f 64//64 61//61 63//63
f 81//81 78//78 62//62
f 80//80 81//81 62//62
f 82//82 64//64 65//65
f 64//64 82//82 80//80
f 83//83 65//65 67//67
f 82//82 65//65 83//83
f 69//69 68//68 66//66
f 67//67 68//68 83//83
f 68//68 84//84 83//83
f 85//85 68//68 72//72
f 68//68 85//85 84//84
f 71//71 73//73 86//86
f 86//86 87//87 71//71
f 87//87 85//85 71//71
f 71//71 85//85 72//72
f 88//88 73//73 74//74
f 79//79 86//86 73//73
f 79//79 73//73 88//88
f 75//75 88//88 74//74
f 77//77 88//88 75//75
f 76//76 79//79 77//77
f 77//77 79//79 88//88
f 89//89 78//78 81//81
f 89//89 79//79 78//78
f 86//86 79//79 89//89
f 90//90 81//81 80//80
f 80//80 82//82 90//90
f 81//81 90//90 89//89
f 82//82 84//84 90//90
f 84//84 82//82 83//83
f 90//90 84//84 87//87
f 87//87 84//84 85//85
f 90//90 87//87 86//86
f 86//86 89//89 90//90
