# Generated by Visualization Toolkit
v -0.02369699999690056 0.015077999792993069 0.0001320000010309741
v -0.016905000433325768 0.02300800010561943 0.0001320000010309741
v -0.016284000128507614 0.023197999224066734 -0.0036589999217540026
v -0.02464899979531765 0.014934999868273735 0.0001320000010309741
v -0.016284000128507614 0.023197999224066734 0.00392200006172061
v -0.019998999312520027 0.00737700005993247 -0.0018579999450594187
v -0.017059000208973885 0.022326000034809113 -0.0013000000035390258
v -0.019999999552965164 0.007375000044703484 0.0001320000010309741
v -0.017059000208973885 0.022326000034809113 0.0015640000347048044
v -0.019998999312520027 0.00737700005993247 0.0021210000850260258
v -0.011285999789834023 0.02651599980890751 -0.010672000236809254
v -0.01724199950695038 0.023103000596165657 -0.004342000000178814
v -0.019169999286532402 0.017402999103069305 -0.010342000052332878
v -0.026110999286174774 0.010363000445067883 -0.004614000208675861
v -0.03178900107741356 0.009260999970138073 -0.0032850001007318497
v -0.03740999847650528 0.009302999824285507 -0.0030879999976605177
v -0.03748999908566475 0.011346999555826187 0.0001320000010309741
v -0.03740999847650528 0.009302999824285507 0.003350999904796481
v -0.03178900107741356 0.009260999970138073 0.003548000007867813
v -0.026110999286174774 0.010363000445067883 0.004877000115811825
v -0.019169999286532402 0.017402999103069305 0.010604999959468842
v -0.011285999789834023 0.02651599980890751 0.010936000384390354
v -0.01724199950695038 0.023103000596165657 0.004604999907314777
v -0.014437000267207623 0.012663999572396278 -0.008612999692559242
v -0.026071999222040176 0.005776999983936548 -0.005847000051289797
v -0.020735999569296837 0.009851999580860138 -0.010738999582827091
v -0.026076000183820724 0.005770999938249588 0.0001320000010309741
v -0.026071999222040176 0.005776999983936548 0.00610999995842576
v -0.014437000267207623 0.012663999572396278 0.008876999840140343
v -0.020735999569296837 0.009851999580860138 0.01100200042128563
v -0.006678000092506409 0.02124599926173687 -0.010742000304162502
v -0.007980999536812305 0.022710999473929405 -0.012021999806165695
v -0.012985999695956707 0.02223699912428856 -0.020035000517964363
v -0.028655000030994415 0.005681999959051609 -0.005034999921917915
v -0.03489400073885918 0.002736999886110425 -0.004896000027656555
v -0.03873100131750107 0.0008570000063627958 -0.004767999984323978
v -0.04324999824166298 0.006012000143527985 -0.0037789999041706324
v -0.04261799901723862 0.010316000320017338 0.0001320000010309741
v -0.04324999824166298 0.006012000143527985 0.0040420000441372395
v -0.03873100131750107 0.0008570000063627958 0.005030999891459942
v -0.03489400073885918 0.002736999886110425 0.005160000175237656
v -0.028655000030994415 0.005681999959051609 0.005297999829053879
v -0.012985999695956707 0.02223699912428856 0.020298000425100327
v -0.007980999536812305 0.022710999473929405 0.012284999713301659
v -0.006678000092506409 0.02124599926173687 0.011005000211298466
v -0.0028780000284314156 0.015571000054478645 -0.009569000452756882
v -0.006033000070601702 0.01013300009071827 -0.008601999841630459
v -0.00445799995213747 0.021359000355005264 -0.018755000084638596
v -0.018338000401854515 0.010857000015676022 -0.020207999274134636
v -0.028658000752329826 0.005677000153809786 0.0001320000010309741
v -0.015742000192403793 0.01691100001335144 -0.021534999832510948
v -0.01940999925136566 0.010569999925792217 -0.015232999809086323
v -0.0028780000284314156 0.015571000054478645 0.009832999669015408
v -0.006033000070601702 0.01013300009071827 0.008864999748766422
v -0.00445799995213747 0.021359000355005264 0.019019000232219696
v -0.018338000401854515 0.010857000015676022 0.0204709991812706
v -0.015742000192403793 0.01691100001335144 0.02179799973964691
v -0.01940999925136566 0.010569999925792217 0.015495999716222286
v -0.001576000009663403 0.025689000263810158 -0.008659999817609787
v -0.0015899999998509884 0.027104999870061874 -0.009619000367820263
v -0.0035910001024603844 0.022274000570178032 -0.011509000323712826
v -0.0022100000642240047 0.02268500067293644 -0.014573999680578709
v -0.006124999839812517 0.025422999635338783 -0.016520999372005463
v -0.010219999589025974 0.018206000328063965 -0.0202029999345541
v -0.004027999937534332 0.027648000046610832 -0.021230999380350113
v -0.03489699959754944 0.002732000080868602 0.0001320000010309741
v -0.03873400017619133 0.0008529999759048223 0.0001320000010309741
v -0.043248001486063004 0.002810999983921647 -0.00368599989451468
v -0.043248001486063004 0.002810999983921647 0.003949000034481287
v -0.010471000336110592 0.023341000080108643 0.022614000365138054
v -0.004027999937534332 0.027648000046610832 0.021469000726938248
v -0.006124999839812517 0.025422999635338783 0.016783999279141426
v -0.0035910001024603844 0.022274000570178032 0.01177200023084879
v -0.0022100000642240047 0.02268500067293644 0.014836999587714672
v -0.0015899999998509884 0.027104999870061874 0.009882000274956226
v -0.001576000009663403 0.025689000263810158 0.00892299972474575
v -0.004705999977886677 0.00901199970394373 -0.003590000094845891
v 0.014131000265479088 0.007532000076025724 -0.0074800001457333565
v 0.01106599997729063 0.008945999667048454 -0.013135000132024288
v 0.007391999941319227 0.0093560004606843 -0.014670999720692635
v 0.003998999949544668 0.014685000292956829 -0.01610800065100193
v -0.0019389999797567725 0.019879000261425972 -0.01600000075995922
v -0.005894000176340342 0.025564000010490417 -0.02307100035250187
v -0.004095999989658594 0.015948999673128128 -0.019852999597787857
v -0.00407399982213974 0.02338399924337864 -0.025095999240875244
v -0.005613999906927347 0.015043999999761581 -0.02696000039577484
v -0.002119000069797039 0.013326999731361866 -0.024095000699162483
v 0.0011790000135079026 0.01974399946630001 -0.017115000635385513
v 0.0016210000030696392 0.01875299960374832 -0.020569000393152237
v 0.0009749999735504389 0.012551999650895596 -0.021945999935269356
v 0.003200999926775694 0.017014000564813614 -0.019866999238729477
v -0.008383999578654766 0.018533999100327492 -0.02347699925303459
v -0.004705999977886677 0.00901199970394373 0.0038530000019818544
v 0.01106599997729063 0.008945999667048454 0.013398000039160252
v 0.014131000265479088 0.007532000076025724 0.00774300005286932
v 0.007391999941319227 0.0093560004606843 0.014933999627828598
v 0.003998999949544668 0.014685000292956829 0.016371000558137894
v -0.0019389999797567725 0.019879000261425972 0.016263000667095184
v -0.005894000176340342 0.025564000010490417 0.023308999836444855
v -0.00407399982213974 0.02338399924337864 0.025333000347018242
v -0.00434499979019165 0.021042000502347946 0.022227000445127487
v -0.005613999906927347 0.015043999999761581 0.027197999879717827
v -0.002119000069797039 0.013326999731361866 0.02433300018310547
v 0.0016210000030696392 0.01875299960374832 0.020833000540733337
v 0.0011790000135079026 0.01974399946630001 0.017378000542521477
v 0.003200999926775694 0.017014000564813614 0.02012999914586544
v 0.0009749999735504389 0.012551999650895596 0.022182999178767204
v -0.008383999578654766 0.018533999100327492 0.02371400035917759
v 0.0006730000022798777 0.0297240000218153 -0.010212999768555164
v 0.00092299998505041 0.02476399950683117 -0.004517000168561935
v 0.0020779999904334545 0.02875399962067604 -0.012544999830424786
v -0.00006500000017695129 0.02448900043964386 -0.002093000104650855
v -0.004730999935418367 0.008313000202178955 0.0001320000010309741
v 0.0011419999646022916 0.0279339998960495 -0.013756000436842442
v 0.0011419999646022916 0.0279339998960495 0.014019000343978405
v 0.0020779999904334545 0.02875399962067604 0.012807999737560749
v 0.0006730000022798777 0.0297240000218153 0.010475999675691128
v 0.00092299998505041 0.02476399950683117 0.004780000075697899
v -0.00006500000017695129 0.02448900043964386 0.0023560000117868185
v 0.015425999648869038 0.007546999957412481 -0.0018939999863505363
v 0.015406999737024307 0.0076950001530349255 0.0001320000010309741
v 0.014375000260770321 0.021550999954342842 -0.0065910001285374165
v 0.011094000190496445 0.022783000022172928 -0.01026500016450882
v 0.008759000338613987 0.024226000532507896 -0.011679000221192837
v 0.004987999796867371 0.02150700055062771 -0.015118000097572803
v 0.003183000022545457 0.018348999321460724 -0.02038699947297573
v -0.001108999946154654 0.015289000235497952 -0.020450999960303307
v -0.0033140000887215137 0.016195999458432198 -0.026427999138832092
v 0.0007389999809674919 0.013813000172376633 -0.02121499925851822
v 0.015425999648869038 0.007546999957412481 0.0021569998934865
v 0.014375000260770321 0.021550999954342842 0.00685400003567338
v 0.011094000190496445 0.022783000022172928 0.010528000071644783
v 0.008759000338613987 0.024226000532507896 0.011943000368773937
v 0.004987999796867371 0.02150700055062771 0.015381000004708767
v 0.003183000022545457 0.018348999321460724 0.020649999380111694
v -0.001108999946154654 0.015289000235497952 0.020688999444246292
v -0.0033140000887215137 0.016195999458432198 0.026666000485420227
v 0.0007389999809674919 0.013813000172376633 0.021453000605106354
v 0.004228999838232994 0.02763500064611435 -0.011762999929487705
v 0.0026469998992979527 0.023416999727487564 0.0001320000010309741
v 0.015277000144124031 0.02142699994146824 0.0001320000010309741
v 0.004228999838232994 0.02763500064611435 0.012025999836623669
vn -0.5934829711914062 0.804847002029419 0
vn 0.995701014995575 -0.09262699633836746 0
vn -0.46393299102783203 0.7088059782981873 0.531374990940094
vn -0.4233100116252899 0.9051399827003479 -0.03911200165748596
vn -0.4793350100517273 0.7086439728736877 -0.5177469849586487
vn 0.8231760263442993 -0.5655940175056458 0.049837999045848846
vn 0.9223660230636597 -0.00684799998998642 0.3862549960613251
vn 0.7288619875907898 -0.6846609711647034 0
vn 0.9223660230636597 -0.00684700021520257 -0.38625699281692505
vn 0.8191480040550232 -0.5706200003623962 -0.05822199955582619
vn 0.2486020028591156 0.9630489945411682 0.1036050021648407
vn -0.7544869780540466 0.5161619782447815 0.4053719937801361
vn -0.9153689742088318 0.2632429897785187 -0.30463701486587524
vn -0.5671619772911072 0.4815309941768646 -0.6681730151176453
vn -0.16507300734519958 0.4185270071029663 -0.89307701587677
vn -0.11482100188732147 0.4565240144729614 -0.8822709918022156
vn -0.2436390072107315 0.9689469933509827 -0.04222000017762184
vn -0.0894239991903305 0.511443018913269 0.8546519875526428
vn -0.12979300320148468 0.4784420132637024 0.868474006652832
vn -0.4256640076637268 0.35923799872398376 0.8305169939994812
vn -0.8902050256729126 0.15900899469852448 0.4269079864025116
vn 0.17220500111579895 0.9108790159225464 -0.37502801418304443
vn -0.8026360273361206 0.470660001039505 -0.3664090037345886
vn 0.8124780058860779 -0.40837499499320984 0.41606399416923523
vn -0.2446569949388504 -0.8079829812049866 -0.5360100269317627
vn -0.8398200273513794 0.02483299933373928 -0.5422959923744202
vn 0.14674299955368042 -0.989175021648407 -0.000003999999989900971
vn -0.0947519987821579 -0.832131028175354 0.5464249849319458
vn 0.6041640043258667 -0.5012040138244629 -0.6194999814033508
vn -0.8799239993095398 0.0017760000191628933 0.4751119911670685
vn -0.08251400291919708 0.8373559713363647 0.5403950214385986
vn 0.27506500482559204 0.9126330018043518 0.3023900091648102
vn -0.5437970161437988 0.7725589871406555 -0.3277769982814789
vn -0.23241999745368958 -0.6647760272026062 -0.7099679708480835
vn 0.18168200552463531 -0.5487920045852661 -0.8159769773483276
vn -0.28218600153923035 -0.3192499876022339 -0.904682993888855
vn -0.5423889756202698 0.3200809955596924 -0.7767639756202698
vn -0.9979810118675232 -0.048643000423908234 0.040839001536369324
vn -0.5022270083427429 0.2760719954967499 0.8194829821586609
vn -0.2821829915046692 -0.3192479908466339 0.9046840071678162
vn 0.24546700716018677 -0.5576009750366211 0.7929859757423401
vn 0.03259899839758873 -0.7127419710159302 0.7006679773330688
vn -0.660502016544342 0.7134720087051392 0.2338709980249405
vn 0.13695800304412842 0.8196820020675659 -0.5562049746513367
vn -0.060217998921871185 0.4459899961948395 -0.8930100202560425
vn -0.47375500202178955 0.4154820144176483 0.7764859795570374
vn -0.5402849912643433 -0.7015569806098938 -0.46466198563575745
vn 0.5896490216255188 -0.7970839738845825 -0.13027699291706085
vn -0.6256189942359924 -0.15140299499034882 -0.7652959823608398
vn 0.23650500178337097 -0.9716299772262573 -0.000006000000212225132
vn -0.6718199849128723 0.4922359883785248 -0.5534989833831787
vn -0.8847000002861023 0.4300540089607239 -0.17988599836826324
vn -0.3040440082550049 0.24053800106048584 -0.9217910170555115
vn -0.5406330227851868 -0.7014179825782776 0.46446600556373596
vn 0.6648290157318115 -0.7295339703559875 -0.16057200729846954
vn -0.6923329830169678 -0.19266000390052795 0.6953830122947693
vn -0.7586789727210999 0.3176400065422058 0.5687810182571411
vn -0.8847000002861023 0.4300540089607239 0.17988599836826324
vn -0.6563519835472107 0.656017005443573 0.3726159930229187
vn -0.5238459706306458 0.8052290081977844 0.2778339982032776
vn -0.4674049913883209 0.8779429793357849 0.10367300361394882
vn -0.07413700222969055 0.9192079901695251 -0.38673099875450134
vn 0.2614069879055023 0.9107649922370911 0.3196460008621216
vn -0.5781919956207275 0.7662749886512756 -0.2802090048789978
vn 0.29214999079704285 0.9295499920845032 0.22491300106048584
vn 0.43337100744247437 -0.9012159705162048 0.000006000000212225132
vn -0.35501500964164734 -0.9348610043525696 0.000011000000085914508
vn -0.928721010684967 -0.36606699228286743 0.058931998908519745
vn -0.928721010684967 -0.36606699228286743 -0.058931998908519745
vn -0.5197550058364868 0.5534600019454956 0.6507980227470398
vn 0.4140999913215637 0.8809530138969421 0.22900399565696716
vn 0.14337800443172455 0.954770028591156 -0.26049500703811646
vn -0.5388950109481812 0.8401240110397339 0.06151299923658371
vn -0.195265993475914 0.8852109909057617 0.4222249984741211
vn -0.7474480271339417 0.6289929747581482 -0.21374699473381042
vn -0.738070011138916 0.5525199770927429 -0.3872640132904053
vn -0.8039050102233887 -0.5740290284156799 0.15565399825572968
vn 0.5904150009155273 -0.7047970294952393 -0.39328300952911377
vn 0.3660080134868622 -0.6327279806137085 -0.6824169754981995
vn 0.16862499713897705 -0.4067929983139038 -0.8978220224380493
vn 0.24288800358772278 -0.42973899841308594 -0.8696720004081726
vn 0.0755700021982193 0.7763540148735046 -0.6257510185241699
vn -0.23354299366474152 0.5121350288391113 -0.8265439867973328
vn 0.718254029750824 0.4601219892501831 -0.5219190120697021
vn 0.5953800082206726 0.5690749883651733 -0.5671640038490295
vn -0.28053998947143555 -0.4628799855709076 -0.8408560156822205
vn -0.18843799829483032 -0.9583079814910889 -0.2147960066795349
vn 0.19510799646377563 0.7209010124206543 -0.6650069952011108
vn 0.048990000039339066 0.41669800877571106 -0.9077240228652954
vn -0.3603940010070801 -0.9245259761810303 -0.12396600097417831
vn 0.23462599515914917 -0.7767530083656311 -0.5844699740409851
vn -0.49386999011039734 0.4186190068721771 -0.7621350288391113
vn -0.8005350232124329 -0.5932360291481018 -0.08493400365114212
vn 0.35092398524284363 -0.652288019657135 0.6718429923057556
vn 0.5845630168914795 -0.7215350270271301 0.37104400992393494
vn 0.17051999270915985 -0.4040699899196625 0.8986939787864685
vn 0.24256600439548492 -0.42788198590278625 0.8706769943237305
vn 0.03853100165724754 0.7607030272483826 0.6479560136795044
vn 0.15988999605178833 0.47171199321746826 0.8671349883079529
vn 0.6244840025901794 0.6047109961509705 0.49431198835372925
vn 0.7719789743423462 0.619862973690033 0.14077700674533844
vn -0.28078600764274597 -0.46207699179649353 0.8412150144577026
vn -0.06342899799346924 -0.9814180135726929 0.18109700083732605
vn 0.10497500002384186 0.528465986251831 0.8424389958381653
vn 0.05460600182414055 0.8724269866943359 0.48568400740623474
vn -0.06892699748277664 -0.8493729829788208 0.5232729911804199
vn -0.4295629858970642 -0.9008650183677673 -0.06258899718523026
vn -0.3595159947872162 0.21955600380897522 0.9069420099258423
vn 0.2444700002670288 0.8510460257530212 0.46470901370048523
vn 0.15569999814033508 0.9474470019340515 0.27946799993515015
vn 0.2458910048007965 0.968612015247345 0.036435000598430634
vn -0.3771919906139374 0.8039690256118774 0.45973899960517883
vn -0.9493589997291565 -0.309455007314682 0.054368000477552414
vn -0.30145400762557983 0.5959360003471375 -0.744301974773407
vn -0.29087701439857483 0.5226140022277832 0.8014150261878967
vn -0.07337799668312073 0.9801790118217468 0.18402400612831116
vn 0.00954699981957674 0.8306090235710144 -0.5567749738693237
vn 0.16154800355434418 0.9445289969444275 -0.28595098853111267
vn -0.4107069969177246 0.8187270164489746 -0.4012559950351715
vn 0.8749409914016724 -0.4581640064716339 -0.15672700107097626
vn 0.688916027545929 -0.7213649749755859 -0.0709030032157898
vn 0.8213719725608826 0.5426560044288635 -0.17570799589157104
vn 0.614005982875824 0.599793016910553 -0.5130749940872192
vn 0.6641150116920471 0.5883349776268005 -0.46131598949432373
vn 0.590707004070282 0.4134669899940491 -0.6929000020027161
vn 0.28874701261520386 0.5193279981613159 -0.8043149709701538
vn 0.502610981464386 0.6494349837303162 -0.570626974105835
vn 0.43046799302101135 0.19205300509929657 -0.8819370269775391
vn 0.2116989940404892 0.3357209861278534 -0.9178640246391296
vn 0.8891000151634216 -0.452906996011734 0.06616000086069107
vn 0.8259469866752625 0.5250419974327087 0.20528900623321533
vn 0.6200439929962158 0.5830109715461731 0.5250179767608643
vn 0.7009009718894958 0.5784810185432434 0.41724899411201477
vn 0.509660005569458 0.4326840043067932 0.7436599731445312
vn 0.12511099874973297 0.4173089861869812 0.9001110196113586
vn 0.7400829792022705 0.35652801394462585 0.5702329874038696
vn 0.490119993686676 0.23968000710010529 0.8380550146102905
vn 0.3311789929866791 0.2905940115451813 0.8977059721946716
vn 0.5588579773902893 0.7406669855117798 -0.3729479908943176
vn -0.0794920027256012 0.9955289959907532 0.051026999950408936
vn 0.7590100169181824 0.6504870057106018 0.027758000418543816
vn 0.5900790095329285 0.740336000919342 0.3220379948616028
f 1//1 2//2 3//3
f 3//3 4//4 1//1
f 5//5 2//2 1//1
f 1//1 4//4 5//5
f 6//6 7//7 2//2
f 8//8 6//6 2//2
f 2//2 7//7 3//3
f 2//2 9//9 10//10
f 2//2 10//10 8//8
f 5//5 9//9 2//2
f 11//11 3//3 7//7
f 11//11 12//12 3//3
f 3//3 13//13 14//14 4//4
f 13//13 3//3 12//12
f 4//4 15//15 16//16 17//17
f 14//14 15//15 4//4
f 17//17 18//18 19//19 4//4
f 4//4 19//19 20//20
f 4//4 20//20 21//21 5//5
f 9//9 5//5 22//22
f 5//5 23//23 22//22
f 23//23 5//5 21//21
f 24//24 7//7 6//6
f 24//24 6//6 25//25 26//26
f 25//25 6//6 8//8 27//27
f 11//11 7//7 24//24
f 27//27 8//8 10//10 28//28
f 29//29 9//9 22//22
f 10//10 9//9 29//29
f 30//30 28//28 10//10 29//29
f 31//31 32//32 11//11 24//24
f 11//11 33//33 13//13 12//12
f 11//11 32//32 33//33
f 14//14 13//13 25//25 34//34
f 13//13 26//26 25//25
f 13//13 33//33 26//26
f 15//15 14//14 34//34 35//35
f 15//15 35//35 36//36
f 16//16 15//15 36//36
f 17//17 16//16 37//37 38//38
f 36//36 37//37 16//16
f 38//38 39//39 18//18 17//17
f 40//40 19//19 18//18
f 18//18 39//39 40//40
f 40//40 41//41 19//19
f 41//41 42//42 20//20 19//19
f 42//42 28//28 21//21 20//20
f 23//23 21//21 43//43 22//22
f 28//28 30//30 21//21
f 30//30 43//43 21//21
f 29//29 22//22 44//44 45//45
f 43//43 44//44 22//22
f 31//31 24//24 46//46
f 46//46 24//24 47//47
f 48//48 47//47 24//24
f 48//48 24//24 26//26 49//49
f 50//50 34//34 25//25 27//27
f 26//26 33//33 51//51
f 26//26 51//51 52//52
f 26//26 52//52 49//49
f 27//27 28//28 42//42 50//50
f 53//53 29//29 45//45
f 54//54 29//29 53//53
f 29//29 54//54 55//55
f 56//56 30//30 29//29 55//55
f 57//57 43//43 30//30
f 58//58 57//57 30//30
f 56//56 58//58 30//30
f 59//59 60//60 31//31 46//46
f 60//60 61//61 31//31
f 61//61 32//32 31//31
f 62//62 63//63 32//32 61//61
f 63//63 33//33 32//32
f 33//33 64//64 51//51
f 33//33 63//63 65//65 64//64
f 66//66 35//35 34//34 50//50
f 67//67 36//36 35//35 66//66
f 67//67 38//38 36//36
f 68//68 36//36 38//38
f 68//68 37//37 36//36
f 37//37 68//68 38//38
f 40//40 38//38 67//67
f 38//38 69//69 39//39
f 38//38 40//40 69//69
f 40//40 39//39 69//69
f 66//66 41//41 40//40 67//67
f 50//50 42//42 41//41 66//66
f 57//57 70//70 43//43
f 70//70 71//71 72//72 43//43
f 44//44 43//43 72//72
f 73//73 44//44 72//72 74//74
f 45//45 44//44 73//73
f 53//53 45//45 75//75 76//76
f 45//45 73//73 75//75
f 59//59 46//46 47//47
f 59//59 47//47 77//77
f 78//78 77//77 47//47 79//79
f 79//79 47//47 80//80
f 80//80 47//47 81//81
f 47//47 48//48 81//81
f 82//82 48//48 63//63 62//62
f 48//48 65//65 63//63
f 48//48 83//83 65//65
f 48//48 84//84 85//85 83//83
f 48//48 49//49 86//86
f 48//48 86//86 87//87
f 84//84 48//48 88//88 89//89
f 48//48 82//82 88//88
f 90//90 91//91 48//48
f 91//91 81//81 48//48
f 48//48 87//87 90//90
f 52//52 51//51 49//49
f 51//51 92//92 49//49
f 92//92 86//86 49//49
f 64//64 92//92 51//51
f 54//54 53//53 76//76
f 93//93 54//54 76//76
f 94//94 54//54 93//93 95//95
f 96//96 54//54 94//94
f 97//97 54//54 96//96
f 97//97 55//55 54//54
f 74//74 72//72 55//55 98//98
f 72//72 71//71 55//55
f 71//71 99//99 55//55
f 99//99 100//100 101//101 55//55
f 102//102 56//56 55//55
f 103//103 102//102 55//55
f 104//104 105//105 55//55 101//101
f 105//105 98//98 55//55
f 55//55 106//106 107//107
f 55//55 97//97 106//106
f 107//107 103//103 55//55
f 56//56 57//57 58//58
f 56//56 108//108 57//57
f 56//56 102//102 108//108
f 57//57 108//108 70//70
f 109//109 59//59 110//110
f 111//111 60//60 59//59 109//109
f 110//110 59//59 112//112
f 112//112 59//59 77//77 113//113
f 111//111 114//114 61//61 60//60
f 114//114 62//62 61//61
f 82//82 62//62 114//114
f 83//83 64//64 65//65
f 92//92 64//64 83//83
f 71//71 70//70 99//99
f 99//99 70//70 108//108
f 75//75 73//73 115//115 116//116
f 73//73 74//74 115//115
f 115//115 74//74 98//98
f 117//117 76//76 75//75 116//116
f 118//118 76//76 117//117
f 119//119 76//76 118//118
f 113//113 93//93 76//76 119//119
f 77//77 78//78 120//120 121//121 113//113
f 78//78 122//122 120//120
f 79//79 123//123 122//122 78//78
f 80//80 123//123 79//79
f 81//81 124//124 123//123 80//80
f 81//81 125//125 124//124
f 81//81 91//91 126//126 125//125
f 88//88 82//82 114//114
f 83//83 85//85 92//92
f 127//127 85//85 84//84
f 127//127 84//84 89//89
f 85//85 128//128 92//92
f 127//127 128//128 85//85
f 92//92 128//128 86//86
f 87//87 86//86 128//128
f 90//90 87//87 128//128 129//129
f 126//126 89//89 88//88 125//125
f 125//125 88//88 114//114
f 129//129 127//127 89//89 126//126
f 91//91 90//90 129//129 126//126
f 113//113 121//121 130//130 95//95 93//93
f 95//95 131//131 132//132 94//94
f 94//94 132//132 96//96
f 130//130 131//131 95//95
f 96//96 132//132 133//133 97//97
f 133//133 134//134 97//97
f 134//134 135//135 106//106 97//97
f 115//115 98//98 105//105
f 108//108 100//100 99//99
f 101//101 100//100 136//136
f 108//108 137//137 100//100
f 100//100 137//137 136//136
f 104//104 101//101 136//136
f 102//102 137//137 108//108
f 137//137 102//102 103//103
f 138//138 137//137 103//103 107//107
f 134//134 105//105 104//104 135//135
f 135//135 104//104 136//136 138//138
f 115//115 105//105 134//134
f 135//135 138//138 107//107 106//106
f 124//124 139//139 109//109 110//110
f 139//139 111//111 109//109
f 124//124 110//110 123//123
f 123//123 110//110 122//122
f 110//110 140//140 141//141 122//122
f 110//110 112//112 140//140
f 125//125 114//114 111//111 139//139
f 140//140 112//112 113//113
f 113//113 119//119 140//140
f 142//142 116//116 115//115 134//134
f 117//117 116//116 142//142
f 118//118 117//117 142//142 133//133
f 132//132 118//118 133//133
f 131//131 118//118 132//132
f 131//131 141//141 140//140 118//118
f 140//140 119//119 118//118
f 122//122 141//141 121//121 120//120
f 130//130 121//121 141//141 131//131
f 124//124 125//125 139//139
f 128//128 127//127 129//129
f 142//142 134//134 133//133
f 138//138 136//136 137//137
