# Generated by Visualization Toolkit
v -0.00992599967867136 0.07024099677801132 0.00014000000373926014
v -0.0021639999467879534 0.07711900025606155 0.00014000000373926014
v -0.00152299995534122 0.07721800357103348 -0.0038960000965744257
v -0.01088900025933981 0.0702349990606308 0.00014000000373926014
v -0.00152299995534122 0.07721800357103348 0.004176999907940626
v -0.007261000107973814 0.06208699941635132 -0.0019779999274760485
v -0.0024049999192357063 0.07646600157022476 -0.0013849999522790313
v -0.007261999882757664 0.062084998935461044 0.00014000000373926014
v -0.0024049999192357063 0.07646600157022476 0.001664999988861382
v -0.007259999867528677 0.06208699941635132 0.002257999964058399
v 0.0038620000705122948 0.07978799939155579 -0.011363999918103218
v -0.0024850000627338886 0.07726199924945831 -0.004623999819159508
v -0.0051369997672736645 0.07189500331878662 -0.011012000031769276
v -0.012931999750435352 0.06591799855232239 -0.004912999924272299
v -0.018704000860452652 0.06564000248908997 -0.003498000092804432
v -0.024271000176668167 0.06648600101470947 -0.0032889998983591795
v -0.024083999916911125 0.06852100044488907 0.00014000000373926014
v -0.024271000176668167 0.06648600101470947 0.0035689999349415302
v -0.018704000860452652 0.06564000248908997 0.003777999896556139
v -0.012931999750435352 0.06591799855232239 0.005193000193685293
v -0.0051369997672736645 0.07189500331878662 0.011292999610304832
v 0.0038620000705122948 0.07978799939155579 0.01164500042796135
v -0.0024850000627338886 0.07726199924945831 0.004904000088572502
v -0.0010610000463202596 0.06652499735355377 -0.009171999990940094
v -0.01348899956792593 0.06137299910187721 -0.006225999910384417
v -0.007670000195503235 0.0646430030465126 -0.011435000225901604
v -0.01349399983882904 0.06136700138449669 0.00014000000373926014
v -0.01348899956792593 0.06137299910187721 0.006506000179797411
v -0.0010610000463202596 0.06652499735355377 0.009452000260353088
v -0.007670000195503235 0.0646430030465126 0.01171599980443716
v 0.007745999842882156 0.07391099631786346 -0.01143800001591444
v 0.006643999833613634 0.07554800063371658 -0.012800999917089939
v 0.0016210000030696392 0.0757950022816658 -0.021333999931812286
v -0.016062000766396523 0.06164800003170967 -0.005361999850720167
v -0.02262900024652481 0.05962599813938141 -0.00521400012075901
v -0.026676999405026436 0.058313999325037 -0.00507699977606535
v -0.030487999320030212 0.06406400352716446 -0.004023000132292509
v -0.029301999136805534 0.06823399662971497 0.00014000000373926014
v -0.030487999320030212 0.06406400352716446 0.004304000176489353
v -0.026676999405026436 0.058313999325037 0.005357000045478344
v -0.02262900024652481 0.05962599813938141 0.005493999924510717
v -0.016062000766396523 0.06164800003170967 0.0056420001201331615
v 0.0016210000030696392 0.0757950022816658 0.02161400020122528
v 0.006643999833613634 0.07554800063371658 0.013081000186502934
v 0.007745999842882156 0.07391099631786346 0.011718000285327435
v 0.01077600009739399 0.06774800270795822 -0.01018999982625246
v 0.006940999999642372 0.06281699985265732 -0.009159999899566174
v 0.009960999712347984 0.07370500266551971 -0.019971000030636787
v -0.005162000190466642 0.06529399752616882 -0.021517999470233917
v -0.01606599986553192 0.061643000692129135 0.00014000000373926014
v -0.0018029999919235706 0.07091700285673141 -0.022931000217795372
v -0.006262000184506178 0.0651639997959137 -0.016220999881625175
v 0.01077600009739399 0.06774800270795822 0.010470000095665455
v 0.006940999999642372 0.06281699985265732 0.009440000168979168
v 0.009960999712347984 0.07370500266551971 0.020251000300049782
v -0.005162000190466642 0.06529399752616882 0.02179799973964691
v -0.0018029999919235706 0.07091700285673141 0.023211000487208366
v -0.006262000184506178 0.0651639997959137 0.01650100015103817
v 0.01338099967688322 0.07757899910211563 -0.009221999906003475
v 0.01355000026524067 0.07898300141096115 -0.010242000222206116
v 0.01093900017440319 0.07448700070381165 -0.012254999950528145
v 0.012361999601125717 0.07469599694013596 -0.01551899965852499
v 0.008836999535560608 0.07796700298786163 -0.01759199984371662
v 0.004377999808639288 0.07407800108194351 -0.023228000849485397
v 0.011895000003278255 0.07981900125741959 -0.02201700024306774
v -0.02263299934566021 0.05962099879980087 0.00014000000373926014
v -0.026681000366806984 0.058309998363256454 0.00014000000373926014
v -0.030900999903678894 0.06089400127530098 -0.003924999851733446
v -0.030900999903678894 0.06089400127530098 0.0042050001211464405
v 0.004257999826222658 0.07652799785137177 0.024080000817775726
v 0.011895000003278255 0.07981900125741959 0.02226400002837181
v 0.008836999535560608 0.07796700298786163 0.017872000113129616
v 0.01093900017440319 0.07448700070381165 0.01253500021994114
v 0.012361999601125717 0.07469599694013596 0.01579900085926056
v 0.01355000026524067 0.07898300141096115 0.010522999800741673
v 0.01338099967688322 0.07757899910211563 0.00950200017541647
v 0.008112000301480293 0.06151600182056427 -0.003823000006377697
v 0.026592999696731567 0.05735500156879425 -0.007964000105857849
v 0.02373800054192543 0.05919399857521057 -0.01398599985986948
v 0.020148999989032745 0.06012599915266037 -0.015622000209987164
v 0.01747800037264824 0.06588699668645859 -0.017152000218629837
v 0.012265999801456928 0.07187899947166443 -0.017037000507116318
v 0.009770000353455544 0.07801999896764755 -0.023925000801682472
v 0.010150999762117863 0.07095299661159515 -0.022825999185442924
v 0.011285999789834023 0.07560800015926361 -0.02602499909698963
v 0.008658000268042088 0.06757300347089767 -0.027959000319242477
v 0.011823000386357307 0.0668639987707138 -0.026899000629782677
v 0.015339000150561333 0.0712990015745163 -0.01822499930858612
v 0.01564900018274784 0.07025499641895294 -0.02190300077199936
v 0.014786999672651291 0.06565500050783157 -0.02449899911880493
v 0.016989000141620636 0.06830699741840363 -0.02115499973297119
v 0.006300000008195639 0.0729290023446083 -0.026208000257611275
v 0.008112000301480293 0.06151600182056427 0.004102999810129404
v 0.02373800054192543 0.05919399857521057 0.014267000369727612
v 0.026592999696731567 0.05735500156879425 0.008244999684393406
v 0.020148999989032745 0.06012599915266037 0.015901999548077583
v 0.01747800037264824 0.06588699668645859 0.01743200048804283
v 0.012265999801456928 0.07187899947166443 0.017317000776529312
v 0.009770000353455544 0.07801999896764755 0.024172000586986542
v 0.011285999789834023 0.07560800015926361 0.026271000504493713
v 0.010033000260591507 0.07337500154972076 0.02366800047457218
v 0.008658000268042088 0.06757300347089767 0.02820499986410141
v 0.011823000386357307 0.0668639987707138 0.027163999155163765
v 0.01564900018274784 0.07025499641895294 0.022182999178767204
v 0.015339000150561333 0.0712990015745163 0.018504999577999115
v 0.016989000141620636 0.06830699741840363 0.021436000242829323
v 0.014786999672651291 0.06565500050783157 0.02476399950683117
v 0.006300000008195639 0.0729290023446083 0.02647400088608265
v 0.016133999451994896 0.08125200122594833 -0.010874999687075615
v 0.015737999230623245 0.07630500197410583 -0.004809999838471413
v 0.017400000244379044 0.0800900012254715 -0.013357999734580517
v 0.014721999876201153 0.07617499679327011 -0.002228999976068735
v 0.0079969996586442 0.06082899868488312 0.00014000000373926014
v 0.01636599935591221 0.07941199839115143 -0.01464799977838993
v 0.01636599935591221 0.07941199839115143 0.014928000047802925
v 0.017400000244379044 0.0800900012254715 0.013639000244438648
v 0.016133999451994896 0.08125200122594833 0.011156000196933746
v 0.015737999230623245 0.07630500197410583 0.005090000107884407
v 0.014721999876201153 0.07617499679327011 0.002509000012651086
v 0.02787799946963787 0.05718500167131424 -0.0020169999916106462
v 0.027878999710083008 0.05733399838209152 0.00014000000373926014
v 0.028656000271439552 0.07119999825954437 -0.007017999887466431
v 0.02556299977004528 0.07288900017738342 -0.010929999873042107
v 0.02343600057065487 0.07465200126171112 -0.012436999939382076
v 0.01934400014579296 0.07249899953603745 -0.01609800010919571
v 0.017145000398159027 0.06963100284337997 -0.021709000691771507
v 0.013024000450968742 0.06986899673938751 -0.023513000458478928
v 0.011090000160038471 0.06838899850845337 -0.027406999841332436
v 0.014720000326633453 0.066941998898983 -0.02368300035595894
v 0.02787799946963787 0.05718500167131424 0.002297000028192997
v 0.028656000271439552 0.07119999825954437 0.007298000156879425
v 0.02556299977004528 0.07288900017738342 0.011210000142455101
v 0.02343600057065487 0.07465200126171112 0.01271700020879507
v 0.01934400014579296 0.07249899953603745 0.016378000378608704
v 0.017145000398159027 0.06963100284337997 0.021988999098539352
v 0.01308200042694807 0.06867200136184692 0.023096000775694847
v 0.011090000160038471 0.06838899850845337 0.027652999386191368
v 0.014720000326633453 0.066941998898983 0.023948999121785164
v 0.019387999549508095 0.07867500185966492 -0.012524999678134918
v 0.017271999269723892 0.07472600042819977 0.00014000000373926014
v 0.029534000903367996 0.07094799727201462 0.00014000000373926014
v 0.019387999549508095 0.07867500185966492 0.012804999947547913
vn -0.4692020118236542 0.8830909729003906 0
vn 0.975184977054596 -0.2213899940252304 -0.000009999999747378752
vn -0.36480000615119934 0.774137020111084 0.5173329710960388
vn -0.28695398569107056 0.9570860266685486 -0.04053699970245361
vn -0.38031598925590515 0.775534987449646 -0.5038899779319763
vn 0.7395409941673279 -0.6713610291481018 0.04850799962878227
vn 0.9210309982299805 -0.12893399596214294 0.3675310015678406
vn 0.6281989812850952 -0.7780529856681824 -0.000014999999621068127
vn 0.9210309982299805 -0.12893100082874298 -0.3675290048122406
vn 0.7349330186843872 -0.6757760047912598 -0.05656599998474121
vn 0.38250699639320374 0.9186969995498657 0.09840600192546844
vn -0.6869230270385742 0.6121990084648132 0.39159899950027466
vn -0.8779889941215515 0.38091400265693665 -0.2898949980735779
vn -0.5054810047149658 0.5651320219039917 -0.6520090103149414
vn -0.1086139976978302 0.45593899488449097 -0.8833590149879456
vn -0.04863400012254715 0.48558199405670166 -0.8728370070457458
vn -0.10241600126028061 0.9937719702720642 -0.04392300173640251
vn -0.01603900082409382 0.5365210175514221 0.8437349796295166
vn -0.06343799829483032 0.5086730122566223 0.8586199879646301
vn -0.3823449909687042 0.4220690131187439 0.8219919800758362
vn -0.8696789741516113 0.2722019851207733 0.4117810130119324
vn 0.30789899826049805 0.8786590099334717 -0.36490800976753235
vn -0.7405120134353638 0.5716360211372375 -0.35337498784065247
vn 0.7499129772186279 -0.5148199796676636 0.41544198989868164
vn -0.3717249929904938 -0.7701669931411743 -0.5183280110359192
vn -0.8432109951972961 0.13674099743366241 -0.5199009776115417
vn 0.0038709999062120914 -0.9999920129776001 -0.0000019999999949504854
vn -0.22326600551605225 -0.8157140016555786 0.5336319804191589
vn 0.537198007106781 -0.5785300135612488 -0.6137760281562805
vn -0.8830320239067078 0.1198429986834526 0.4537540078163147
vn 0.027866000309586525 0.8520740270614624 0.5226789712905884
vn 0.3991299867630005 0.8699390292167664 0.28965699672698975
vn -0.48405399918556213 0.8307949900627136 -0.2747200131416321
vn -0.3420340120792389 -0.6243540048599243 -0.7022780179977417
vn 0.09450499713420868 -0.5636699795722961 -0.820576012134552
vn -0.3306489884853363 -0.2742609977722168 -0.9030240178108215
vn -0.4983319938182831 0.3972879946231842 -0.7706019878387451
vn -0.9959689974784851 0.07988999783992767 0.04078099876642227
vn -0.4648840129375458 0.35021600127220154 0.8131620287895203
vn -0.33063700795173645 -0.2742699980735779 0.9030259847640991
vn 0.16088399291038513 -0.5819939970970154 0.7971190214157104
vn -0.07716300338506699 -0.7121649980545044 0.6977589726448059
vn -0.5515369772911072 0.8024669885635376 0.22771599888801575
vn 0.2581610083580017 0.8013460040092468 -0.5396270155906677
vn 0.004433999769389629 0.4682140052318573 -0.8836039900779724
vn -0.4198620021343231 0.48969998955726624 0.7641400098800659
vn -0.6429679989814758 -0.6251009702682495 -0.4425399899482727
vn 0.4809190034866333 -0.8762770295143127 -0.029239000752568245
vn -0.6586130261421204 -0.15775500237941742 -0.735759973526001
vn 0.09574799984693527 -0.9954059720039368 -0.000003000000106112566
vn -0.6812469959259033 0.5103269815444946 -0.5248519778251648
vn -0.8206599950790405 0.5454630255699158 -0.17025600373744965
vn -0.27724799513816833 0.2910900115966797 -0.9156420230865479
vn -0.6432790160179138 -0.6249110102653503 0.4423559904098511
vn 0.4616430103778839 -0.8717210292816162 -0.16428199410438538
vn -0.72120600938797 -0.1908629983663559 0.6659070253372192
vn -0.7358970046043396 0.4482020139694214 0.5075129866600037
vn -0.8206620216369629 0.5454609990119934 0.17025500535964966
vn -0.5651749968528748 0.7457190155982971 0.3528189957141876
vn -0.40491899847984314 0.8763390183448792 0.2609040141105652
vn -0.3366529941558838 0.9367449879646301 0.09578199684619904
vn 0.0521089993417263 0.9268280267715454 -0.37185201048851013
vn 0.38015100359916687 0.8630170226097107 0.33269599080085754
vn -0.4724169969558716 0.776531994342804 -0.41691699624061584
vn 0.4724940061569214 0.8775299787521362 0.08179199695587158
vn 0.30127599835395813 -0.9535369873046875 0.000003000000106112566
vn -0.47909900546073914 -0.8777610063552856 0.000007999999979801942
vn -0.966280996799469 -0.25359299778938293 0.0446229986846447
vn -0.9662799835205078 -0.25359800457954407 -0.044617000967264175
vn -0.4099920094013214 0.7003250122070312 0.5843380093574524
vn 0.5989810228347778 0.7687129974365234 0.22428299486637115
vn 0.27362701296806335 0.921750009059906 -0.2747809886932373
vn -0.4137980043888092 0.9084349870681763 0.05930599942803383
vn -0.07063400000333786 0.9108920097351074 0.4065549969673157
vn -0.654121994972229 0.7256010174751282 -0.21360500156879425
vn -0.6622269749641418 0.6498450040817261 -0.3730370104312897
vn -0.8772010207176208 -0.457071989774704 0.1469770073890686
vn 0.4970589876174927 -0.7808229923248291 -0.37848100066185
vn 0.29153698682785034 -0.6804689764976501 -0.6722859740257263
vn 0.12070400267839432 -0.4336619973182678 -0.8929539918899536
vn 0.18835200369358063 -0.47588101029396057 -0.8591049909591675
vn 0.1766979992389679 0.7711099982261658 -0.6116920113563538
vn 0.16063599288463593 0.6192860007286072 -0.7685580253601074
vn 0.740119993686676 0.6709719896316528 -0.04493999853730202
vn 0.7458950281143188 0.44583800435066223 -0.4948430061340332
vn -0.026068000122904778 -0.5926690101623535 -0.8050240278244019
vn -0.04433299973607063 -0.9138929843902588 -0.40352699160575867
vn 0.312391996383667 0.7790669798851013 -0.5435680150985718
vn 0.4070329964160919 0.7128810286521912 -0.5710729956626892
vn 0.2202489972114563 -0.8924009799957275 -0.3938409984111786
vn 0.38045600056648254 -0.8026469945907593 -0.45935899019241333
vn -0.3024359941482544 0.38755300641059875 -0.8708239793777466
vn -0.8750360012054443 -0.4773609936237335 -0.08024200052022934
vn 0.2733609974384308 -0.6982629895210266 0.6615909934043884
vn 0.4879849851131439 -0.7963190078735352 0.3574160039424896
vn 0.12303400039672852 -0.4311259984970093 0.8938639760017395
vn 0.18841099739074707 -0.4739930033683777 0.860135018825531
vn 0.13988099992275238 0.7613530158996582 0.6330680251121521
vn 0.35214900970458984 0.5447819828987122 0.7610539793968201
vn 0.7712709903717041 0.5081639885902405 0.38328900933265686
vn 0.8244450092315674 0.5659180283546448 -0.005160000175237656
vn -0.024745000526309013 -0.5904949903488159 0.8066620230674744
vn 0.014485999941825867 -0.9285619854927063 0.37089401483535767
vn 0.2502869963645935 0.6377990245819092 0.7284010052680969
vn 0.1784459948539734 0.8626070022583008 0.4733560085296631
vn 0.05774199962615967 -0.803242027759552 0.5928469896316528
vn -0.23189599812030792 -0.8366209864616394 0.49627599120140076
vn -0.23622600734233856 0.29246100783348083 0.9266409873962402
vn 0.36278998851776123 0.8179720044136047 0.4464370012283325
vn 0.28762099146842957 0.9206240177154541 0.264055997133255
vn 0.3841800093650818 0.9225580096244812 0.03595000132918358
vn -0.2691659927368164 0.8544099926948547 0.44444799423217773
vn -0.9842110276222229 -0.16953100264072418 0.05086899921298027
vn -0.2152090072631836 0.6482980251312256 -0.730338990688324
vn -0.21756799519062042 0.5766609907150269 0.7874810099601746
vn 0.06234300136566162 0.9836069941520691 0.1692039966583252
vn 0.12182699888944626 0.8344630002975464 -0.5374289751052856
vn 0.293846994638443 0.9166809916496277 -0.2708300054073334
vn -0.2990339994430542 0.8716040253639221 -0.38843899965286255
vn 0.808102011680603 -0.5700070261955261 -0.1485379934310913
vn 0.5843849778175354 -0.808696985244751 -0.06711000204086304
vn 0.8889139890670776 0.4262639880180359 -0.16772300004959106
vn 0.7010080218315125 0.5095580220222473 -0.4989379942417145
vn 0.746051013469696 0.4926150143146515 -0.4480389952659607
vn 0.6583660244941711 0.3399670124053955 -0.6715480089187622
vn 0.6809290051460266 0.4330959916114807 -0.5905619859695435
vn 0.7078089714050293 0.5737450122833252 -0.4120959937572479
vn 0.4766309857368469 0.17209500074386597 -0.862093985080719
vn 0.5985980033874512 0.3331950008869171 -0.7284650206565857
vn 0.8216680288314819 -0.5664849877357483 0.06289800256490707
vn 0.8919489979743958 0.4074220061302185 0.19604499638080597
vn 0.7051560282707214 0.491782009601593 0.5107880234718323
vn 0.7796069979667664 0.47805100679397583 0.404572993516922
vn 0.5828549861907959 0.3723030090332031 0.7222679853439331
vn 0.3702400028705597 0.49682798981666565 0.7849100232124329
vn 0.7253810167312622 0.42379701137542725 0.5424190163612366
vn 0.5009509921073914 0.2507759928703308 0.8283470273017883
vn 0.45466598868370056 0.4485340118408203 0.7694780230522156
vn 0.6597099900245667 0.6600300073623657 -0.35936400294303894
vn 0.053470999002456665 0.9974309802055359 0.04767899960279465
vn 0.8402640223503113 0.5415639877319336 0.025769000872969627
vn 0.6895179748535156 0.65482497215271 0.3094649910926819
f 1//1 2//2 3//3
f 3//3 4//4 1//1
f 5//5 2//2 1//1
f 1//1 4//4 5//5
f 6//6 7//7 2//2
f 8//8 6//6 2//2
f 2//2 7//7 3//3
f 2//2 9//9 10//10
f 2//2 10//10 8//8
f 5//5 9//9 2//2
f 11//11 3//3 7//7
f 11//11 12//12 3//3
f 3//3 13//13 14//14 4//4
f 13//13 3//3 12//12
f 4//4 15//15 16//16 17//17
f 14//14 15//15 4//4
f 17//17 18//18 19//19 4//4
f 4//4 19//19 20//20
f 4//4 20//20 21//21 5//5
f 9//9 5//5 22//22
f 5//5 23//23 22//22
f 23//23 5//5 21//21
f 24//24 7//7 6//6
f 24//24 6//6 25//25 26//26
f 25//25 6//6 8//8 27//27
f 11//11 7//7 24//24
f 27//27 8//8 10//10 28//28
f 29//29 9//9 22//22
f 10//10 9//9 29//29
f 30//30 28//28 10//10 29//29
f 31//31 32//32 11//11 24//24
f 11//11 33//33 13//13 12//12
f 11//11 32//32 33//33
f 14//14 13//13 25//25 34//34
f 13//13 26//26 25//25
f 13//13 33//33 26//26
f 15//15 14//14 34//34 35//35
f 15//15 35//35 36//36
f 16//16 15//15 36//36
f 17//17 16//16 37//37 38//38
f 36//36 37//37 16//16
f 38//38 39//39 18//18 17//17
f 40//40 19//19 18//18
f 18//18 39//39 40//40
f 40//40 41//41 19//19
f 41//41 42//42 20//20 19//19
f 42//42 28//28 21//21 20//20
f 23//23 21//21 43//43 22//22
f 28//28 30//30 21//21
f 30//30 43//43 21//21
f 29//29 22//22 44//44 45//45
f 43//43 44//44 22//22
f 31//31 24//24 46//46
f 46//46 24//24 47//47
f 48//48 47//47 24//24
f 48//48 24//24 26//26 49//49
f 50//50 34//34 25//25 27//27
f 26//26 33//33 51//51
f 26//26 51//51 52//52
f 26//26 52//52 49//49
f 27//27 28//28 42//42 50//50
f 53//53 29//29 45//45
f 54//54 29//29 53//53
f 29//29 54//54 55//55
f 56//56 30//30 29//29 55//55
f 57//57 43//43 30//30
f 58//58 57//57 30//30
f 56//56 58//58 30//30
f 59//59 60//60 31//31 46//46
f 60//60 61//61 31//31
f 61//61 32//32 31//31
f 62//62 63//63 32//32 61//61
f 63//63 33//33 32//32
f 33//33 64//64 51//51
f 33//33 63//63 65//65 64//64
f 66//66 35//35 34//34 50//50
f 67//67 36//36 35//35 66//66
f 67//67 38//38 36//36
f 68//68 36//36 38//38
f 68//68 37//37 36//36
f 37//37 68//68 38//38
f 40//40 38//38 67//67
f 38//38 69//69 39//39
f 38//38 40//40 69//69
f 40//40 39//39 69//69
f 66//66 41//41 40//40 67//67
f 50//50 42//42 41//41 66//66
f 57//57 70//70 43//43
f 70//70 71//71 72//72 43//43
f 44//44 43//43 72//72
f 73//73 44//44 72//72 74//74
f 45//45 44//44 73//73
f 53//53 45//45 75//75 76//76
f 45//45 73//73 75//75
f 59//59 46//46 47//47
f 59//59 47//47 77//77
f 78//78 77//77 47//47 79//79
f 79//79 47//47 80//80
f 80//80 47//47 81//81
f 47//47 48//48 81//81
f 82//82 48//48 63//63 62//62
f 48//48 65//65 63//63
f 48//48 83//83 65//65
f 48//48 84//84 85//85 83//83
f 48//48 49//49 86//86
f 48//48 86//86 87//87
f 84//84 48//48 88//88 89//89
f 48//48 82//82 88//88
f 90//90 91//91 48//48
f 91//91 81//81 48//48
f 48//48 87//87 90//90
f 52//52 51//51 49//49
f 51//51 92//92 49//49
f 92//92 86//86 49//49
f 64//64 92//92 51//51
f 54//54 53//53 76//76
f 93//93 54//54 76//76
f 94//94 54//54 93//93 95//95
f 96//96 54//54 94//94
f 97//97 54//54 96//96
f 97//97 55//55 54//54
f 74//74 72//72 55//55 98//98
f 72//72 71//71 55//55
f 71//71 99//99 55//55
f 99//99 100//100 101//101 55//55
f 102//102 56//56 55//55
f 103//103 102//102 55//55
f 104//104 105//105 55//55 101//101
f 105//105 98//98 55//55
f 55//55 106//106 107//107
f 55//55 97//97 106//106
f 107//107 103//103 55//55
f 56//56 57//57 58//58
f 56//56 108//108 57//57
f 56//56 102//102 108//108
f 57//57 108//108 70//70
f 109//109 59//59 110//110
f 111//111 60//60 59//59 109//109
f 110//110 59//59 112//112
f 112//112 59//59 77//77 113//113
f 111//111 114//114 61//61 60//60
f 114//114 62//62 61//61
f 82//82 62//62 114//114
f 83//83 64//64 65//65
f 92//92 64//64 83//83
f 71//71 70//70 99//99
f 99//99 70//70 108//108
f 75//75 73//73 115//115 116//116
f 73//73 74//74 115//115
f 115//115 74//74 98//98
f 117//117 76//76 75//75 116//116
f 118//118 76//76 117//117
f 119//119 76//76 118//118
f 113//113 93//93 76//76 119//119
f 77//77 78//78 120//120 121//121 113//113
f 78//78 122//122 120//120
f 79//79 123//123 122//122 78//78
f 80//80 123//123 79//79
f 81//81 124//124 123//123 80//80
f 81//81 125//125 124//124
f 81//81 91//91 126//126 125//125
f 88//88 82//82 114//114
f 83//83 85//85 92//92
f 127//127 85//85 84//84
f 127//127 84//84 89//89
f 85//85 128//128 92//92
f 127//127 128//128 85//85
f 92//92 128//128 86//86
f 87//87 86//86 128//128
f 90//90 87//87 128//128 129//129
f 126//126 89//89 88//88 125//125
f 125//125 88//88 114//114
f 129//129 127//127 89//89 126//126
f 91//91 90//90 129//129 126//126
f 113//113 121//121 130//130 95//95 93//93
f 95//95 131//131 132//132 94//94
f 94//94 132//132 96//96
f 130//130 131//131 95//95
f 96//96 132//132 133//133 97//97
f 133//133 134//134 97//97
f 134//134 135//135 106//106 97//97
f 115//115 98//98 105//105
f 108//108 100//100 99//99
f 101//101 100//100 136//136
f 108//108 137//137 100//100
f 100//100 137//137 136//136
f 104//104 101//101 136//136
f 102//102 137//137 108//108
f 137//137 102//102 103//103
f 138//138 137//137 103//103 107//107
f 134//134 105//105 104//104 135//135
f 135//135 104//104 136//136 138//138
f 115//115 105//105 134//134
f 135//135 138//138 107//107 106//106
f 124//124 139//139 109//109 110//110
f 139//139 111//111 109//109
f 124//124 110//110 123//123
f 123//123 110//110 122//122
f 110//110 140//140 141//141 122//122
f 110//110 112//112 140//140
f 125//125 114//114 111//111 139//139
f 140//140 112//112 113//113
f 113//113 119//119 140//140
f 142//142 116//116 115//115 134//134
f 117//117 116//116 142//142
f 118//118 117//117 142//142 133//133
f 132//132 118//118 133//133
f 131//131 118//118 132//132
f 131//131 141//141 140//140 118//118
f 140//140 119//119 118//118
f 122//122 141//141 121//121 120//120
f 130//130 121//121 141//141 131//131
f 124//124 125//125 139//139
f 128//128 127//127 129//129
f 142//142 134//134 133//133
f 138//138 136//136 137//137
