# Generated by Visualization Toolkit
v -0.019494999200105667 0.041165001690387726 0.0001500000071246177
v -0.00839299988001585 0.04151799902319908 0.0001500000071246177
v -0.007745999842882156 0.041565001010894775 -0.00418000016361475
v -0.020455999299883842 0.04123799875378609 0.0001500000071246177
v -0.007745999842882156 0.041565001010894775 0.004480000119656324
v -0.014592000283300877 0.02695400081574917 -0.002122000092640519
v -0.008682000450789928 0.04088699817657471 -0.0014850000152364373
v -0.014593999832868576 0.026952000334858894 0.0001500000071246177
v -0.008682000450789928 0.04088699817657471 0.0017859999788925052
v -0.014592000283300877 0.02695400081574917 0.0024220000486820936
v -0.0022060000337660313 0.04283300042152405 -0.012190000154078007
v -0.008702999912202358 0.04168599843978882 -0.0049600000493228436
v -0.011745999567210674 0.03655499964952469 -0.011812999844551086
v -0.023938000202178955 0.037140000611543655 -0.005270000081509352
v -0.03129599988460541 0.039028000086545944 -0.003751999931409955
v -0.03678499907255173 0.04032599925994873 -0.003527000080794096
v -0.036448001861572266 0.04233900085091591 0.0001500000071246177
v -0.03678499907255173 0.04032599925994873 0.003828000044450164
v -0.03129599988460541 0.039028000086545944 0.004052999895066023
v -0.023938000202178955 0.037140000611543655 0.005570999812334776
v -0.011745999567210674 0.03655499964952469 0.012113000266253948
v -0.0022060000337660313 0.04283300042152405 0.012490999884903431
v -0.008702999912202358 0.04168599843978882 0.005260000005364418
v -0.008078999817371368 0.030869999900460243 -0.009837999939918518
v -0.02484400011599064 0.032131001353263855 -0.006678999867290258
v -0.014809999614953995 0.029534999281167984 -0.012267000041902065
v -0.024848999455571175 0.03212700039148331 0.0001500000071246177
v -0.02484400011599064 0.032131001353263855 0.006978999823331833
v -0.008078999817371368 0.030869999900460243 0.010138999670743942
v -0.014809999614953995 0.029534999281167984 0.012567000463604927
v 0.0012519999872893095 0.03751000016927719 -0.012268999591469765
v 0.0002530000056140125 0.0383789986371994 -0.0137320002540946
v -0.0047160000540316105 0.03988799825310707 -0.022884000092744827
v -0.030817000195384026 0.03299200162291527 -0.005750999785959721
v -0.03750300034880638 0.03203900158405304 -0.00559299997985363
v -0.04160799831151962 0.032242000102996826 -0.005446000024676323
v -0.044123001396656036 0.04009300097823143 -0.004315999802201986
v -0.04262999817728996 0.044151000678539276 0.0001500000071246177
v -0.044123001396656036 0.04009300097823143 0.004616000223904848
v -0.04160799831151962 0.032242000102996826 0.005745999980717897
v -0.03750300034880638 0.03203900158405304 0.0058929999358952045
v -0.030817000195384026 0.03299200162291527 0.006051999982446432
v -0.0047160000540316105 0.03988799825310707 0.02318499982357025
v 0.0002530000056140125 0.0383789986371994 0.014031999744474888
v 0.0012519999872893095 0.03751000016927719 0.012570000253617764
v 0.0038169999606907368 0.031120000407099724 -0.010931000113487244
v -0.00037399999564513564 0.026520000770688057 -0.00982499960809946
v 0.0034459999296814203 0.037122998386621475 -0.02142300084233284
v -0.012261000461876392 0.029978999868035316 -0.023081999272108078
v -0.030820999294519424 0.03298800066113472 0.0001500000071246177
v -0.008492999710142612 0.035307999700307846 -0.024598000571131706
v -0.013368000276386738 0.02993899956345558 -0.017400000244379044
v 0.0038169999606907368 0.031120000407099724 0.01123099960386753
v -0.00037399999564513564 0.026520000770688057 0.01012600027024746
v 0.0034459999296814203 0.037122998386621475 0.021724000573158264
v -0.012261000461876392 0.029978999868035316 0.02338300086557865
v -0.008492999710142612 0.035307999700307846 0.024898000061511993
v -0.013368000276386738 0.02993899956345558 0.01769999973475933
v 0.007145000156015158 0.04070400074124336 -0.009891999885439873
v 0.007418000139296055 0.042089998722076416 -0.010986999608576298
v 0.004480000119656324 0.03782200068235397 -0.013144999742507935
v 0.005913999862968922 0.03791499882936478 -0.01664699986577034
v 0.0026420000940561295 0.0414620004594326 -0.018869999796152115
v -0.002032000105828047 0.04040300101041794 -0.025529999285936356
v 0.005963999778032303 0.04837999865412712 -0.02682800032198429
v -0.03750700131058693 0.03203500062227249 0.0001500000071246177
v -0.04161199927330017 0.03223799914121628 0.0001500000071246177
v -0.04562800005078316 0.03516000136733055 -0.004209999926388264
v -0.04562800005078316 0.03516000136733055 0.004511000122874975
v -0.002032000105828047 0.04040300101041794 0.025830000638961792
v 0.005963999778032303 0.04837999865412712 0.027129000052809715
v 0.0026420000940561295 0.0414620004594326 0.01917099952697754
v 0.004480000119656324 0.03782200068235397 0.013446000404655933
v 0.005913999862968922 0.03791499882936478 0.016947999596595764
v 0.007418000139296055 0.042089998722076416 0.011288000270724297
v 0.007145000156015158 0.04070400074124336 0.010192999616265297
v 0.0006970000104047358 0.025127999484539032 -0.004100999794900417
v 0.01881900057196617 0.019468000158667564 -0.008542999625205994
v 0.016109000891447067 0.021534999832510948 -0.015003000386059284
v 0.01259899977594614 0.022756999358534813 -0.016757000237703323
v 0.010362000204622746 0.028717000037431717 -0.01839900016784668
v 0.005609000101685524 0.03511499986052513 -0.018276000395417213
v 0.003711000084877014 0.046730998903512955 -0.02915400080382824
v 0.003493000054731965 0.036789000034332275 -0.02508700080215931
v 0.005042999982833862 0.04416099935770035 -0.03171199932694435
v 0.0018220000201836228 0.03623199835419655 -0.03406799957156181
v 0.0048870001919567585 0.033743999898433685 -0.03044700063765049
v 0.00863100029528141 0.034285999834537506 -0.019548999145627022
v 0.008863000199198723 0.033218998461961746 -0.02349499985575676
v 0.007753000129014254 0.032280001789331436 -0.027730999514460564
v 0.010054999962449074 0.031168999150395393 -0.022693000733852386
v -0.00019099999917671084 0.03946499899029732 -0.029665999114513397
v 0.0006970000104047358 0.025127999484539032 0.004401000216603279
v 0.016109000891447067 0.021534999832510948 0.015302999876439571
v 0.01881900057196617 0.019468000158667564 0.008844000287353992
v 0.01259899977594614 0.022756999358534813 0.017057999968528748
v 0.010362000204622746 0.028717000037431717 0.018698999658226967
v 0.005609000101685524 0.03511499986052513 0.0185759998857975
v 0.003711000084877014 0.046730998903512955 0.029454000294208527
v 0.005042999982833862 0.04416099935770035 0.03201200067996979
v 0.003493000054731965 0.036789000034332275 0.025388000532984734
v 0.0018220000201836228 0.03623199835419655 0.03436899930238724
v 0.0048870001919567585 0.033743999898433685 0.030748000368475914
v 0.008863000199198723 0.033218998461961746 0.023795999586582184
v 0.00863100029528141 0.034285999834537506 0.019850000739097595
v 0.010054999962449074 0.031168999150395393 0.02299400046467781
v 0.007753000129014254 0.032280001789331436 0.028031999245285988
v -0.00019099999917671084 0.03946499899029732 0.02996700070798397
v 0.010162999853491783 0.04413999989628792 -0.01166599988937378
v 0.00940100010484457 0.03924199938774109 -0.005158999934792519
v 0.011339999735355377 0.04287799820303917 -0.014329000376164913
v 0.008377999998629093 0.03919599950313568 -0.0023900000378489494
v 0.0005310000269673765 0.024452000856399536 0.0001500000071246177
v 0.01025800034403801 0.04228699952363968 -0.015713000670075417
v 0.01025800034403801 0.04228699952363968 0.016013000160455704
v 0.011339999735355377 0.04287799820303917 0.014630000106990337
v 0.010162999853491783 0.04413999989628792 0.011966000311076641
v 0.00940100010484457 0.03924199938774109 0.00546000013127923
v 0.008377999998629093 0.03919599950313568 0.0026910000015050173
v 0.020089000463485718 0.019192999228835106 -0.00216299993917346
v 0.020100999623537064 0.019341999664902687 0.0001500000071246177
v 0.021904999390244484 0.03309699892997742 -0.007528000045567751
v 0.018945999443531036 0.03503299877047539 -0.011725000105798244
v 0.016954999417066574 0.03696399927139282 -0.01334100030362606
v 0.012714999727904797 0.03515399992465973 -0.017268000170588493
v 0.010308999568223953 0.03247499838471413 -0.023287000134587288
v 0.0062779998406767845 0.03546399995684624 -0.025841999799013138
v 0.004308000206947327 0.03685799986124039 -0.03339599817991257
v 0.007782000117003918 0.033583998680114746 -0.02680799923837185
v 0.020089000463485718 0.019192999228835106 0.002463999902829528
v 0.021904999390244484 0.03309699892997742 0.007829000242054462
v 0.018945999443531036 0.03503299877047539 0.012024999596178532
v 0.016954999417066574 0.03696399927139282 0.013640999794006348
v 0.012714999727904797 0.03515399992465973 0.017568999901413918
v 0.010308999568223953 0.03247499838471413 0.023586999624967575
v 0.0062779998406767845 0.03546399995684624 0.026142999529838562
v 0.004308000206947327 0.03685799986124039 0.033695999532938004
v 0.007782000117003918 0.033583998680114746 0.027108000591397285
v 0.013217000290751457 0.04130500182509422 -0.013435999862849712
v 0.010812999680638313 0.03754200041294098 0.0001500000071246177
v 0.022762000560760498 0.032774001359939575 0.0001500000071246177
v 0.013217000290751457 0.04130500182509422 0.013736000284552574
vn 0.020927000790834427 0.9997810125350952 0
vn 0.9873359799385071 -0.15864600241184235 0
vn 0.0711430013179779 0.9574249982833862 0.27977800369262695
vn 0.024535000324249268 0.9991779923439026 -0.0322830006480217
vn 0.06673800200223923 0.9595760107040405 -0.2734229862689972
vn 0.5780310034751892 -0.8157050013542175 -0.022477999329566956
vn 0.9161760210990906 -0.2023559957742691 0.3459399938583374
vn 0.3433719873428345 -0.9391989707946777 0
vn 0.9161760210990906 -0.2023569941520691 -0.3459379971027374
vn 0.526278018951416 -0.8471940159797668 -0.07275599986314774
vn 0.5184100270271301 0.8529469966888428 0.06108500063419342
vn -0.607122004032135 0.7027209997177124 0.37092599272727966
vn -0.71526700258255 0.5044370293617249 -0.4836690127849579
vn -0.18550799787044525 0.6067109704017639 -0.7729740142822266
vn 0.014883000403642654 0.4668239951133728 -0.8842250108718872
vn 0.07100600004196167 0.5207710266113281 -0.850737988948822
vn 0.12182500213384628 0.9924280047416687 -0.015689000487327576
vn 0.09296700358390808 0.5340149998664856 0.8403480052947998
vn 0.041147999465465546 0.49920499324798584 0.8655070066452026
vn -0.12251800298690796 0.41764599084854126 0.9003120064735413
vn -0.7544400095939636 0.31664198637008667 0.5749409794807434
vn 0.47375500202178955 0.8024309873580933 -0.36285099387168884
vn -0.6936910152435303 0.6486179828643799 -0.3131909966468811
vn 0.6967849731445312 -0.6294680237770081 0.3438909947872162
vn -0.46059098839759827 -0.6089010238647461 -0.6458290219306946
vn -0.7933650016784668 0.1866060048341751 -0.5794389843940735
vn -0.30056700110435486 -0.9537609815597534 -0.000006000000212225132
vn -0.4029729962348938 -0.7625880241394043 0.5060349702835083
vn 0.3954859972000122 -0.6487720012664795 -0.650143027305603
vn -0.8762570023536682 0.15765100717544556 0.4553239941596985
vn 0.04131099954247475 0.9367129802703857 0.34765198826789856
vn 0.4097599983215332 0.8861749768257141 0.2163120061159134
vn -0.5020970106124878 0.8587589859962463 -0.10213600099086761
vn -0.23998099565505981 -0.5874670147895813 -0.772845983505249
vn -0.019564000889658928 -0.5948219895362854 -0.8036199808120728
vn -0.3737500011920929 -0.23646600544452667 -0.8968799710273743
vn -0.366798996925354 0.4723379909992218 -0.8014699816703796
vn -0.956741988658905 0.28679099678993225 0.048948001116514206
vn -0.3473989963531494 0.41073301434516907 0.8429780006408691
vn -0.3737480044364929 -0.23646500706672668 0.8968819975852966
vn 0.007724999915808439 -0.6157490015029907 0.7879040241241455
vn -0.08688399940729141 -0.7626569867134094 0.6409419775009155
vn -0.5594189763069153 0.815159022808075 0.15022100508213043
vn 0.253383994102478 0.8211429715156555 -0.5113909840583801
vn 0.01893400028347969 0.5638499855995178 -0.825659990310669
vn -0.38667601346969604 0.5374079942703247 0.7494490146636963
vn -0.7014380097389221 -0.5764930248260498 -0.4190939962863922
vn 0.33788999915122986 -0.8813610076904297 -0.33020099997520447
vn -0.7267799973487854 0.022154999896883965 -0.6865130066871643
vn -0.0008219999726861715 -1 -0.000003000000106112566
vn -0.7359210252761841 0.565159022808075 -0.3728489875793457
vn -0.7775269746780396 0.6082590222358704 -0.15960200130939484
vn -0.2627530097961426 0.32648900151252747 -0.907945990562439
vn -0.7017179727554321 -0.5762760043144226 0.4189240038394928
vn 0.326431006193161 -0.9002029895782471 0.2882330119609833
vn -0.7826399803161621 0.005237000063061714 0.6224520206451416
vn -0.7359200119972229 0.5651599764823914 0.3728489875793457
vn -0.7775329947471619 0.6082509756088257 0.1596039980649948
vn -0.508916974067688 0.7949180006980896 0.3303169906139374
vn -0.33062899112701416 0.9120699763298035 0.24251499772071838
vn -0.2836660146713257 0.9579560160636902 0.04305399954319
vn 0.09595999866724014 0.9387220144271851 -0.331046998500824
vn 0.409512996673584 0.8043059706687927 0.4305709898471832
vn -0.6774600148200989 0.7195450067520142 -0.1526550054550171
vn 0.46177101135253906 0.7904639840126038 0.40241000056266785
vn 0.04602999985218048 -0.9989399909973145 0.000007999999979801942
vn -0.6943730115890503 -0.7196149826049805 0.000006000000212225132
vn -0.9980319738388062 -0.06233400106430054 -0.006850000005215406
vn -0.9980319738388062 -0.06233400106430054 0.006850000005215406
vn -0.7048879861831665 0.6859769821166992 0.18046900629997253
vn 0.356128990650177 0.8698149919509888 -0.3414590060710907
vn 0.23939800262451172 0.9036999940872192 -0.3549860119819641
vn -0.3790990114212036 0.9202659726142883 0.09692499786615372
vn -0.06610000133514404 0.9261749982833862 0.3712570071220398
vn -0.5946879982948303 0.7751989960670471 -0.21310299634933472
vn -0.6156399846076965 0.7027580142021179 -0.35653701424598694
vn -0.9123920202255249 -0.3853810131549835 0.13792100548744202
vn 0.4438599944114685 -0.820186972618103 -0.3609449863433838
vn 0.256197988986969 -0.7070509791374207 -0.6591219902038574
vn 0.09795200079679489 -0.45235899090766907 -0.8864399790763855
vn 0.15699699521064758 -0.5101150274276733 -0.8456569910049438
vn 0.2307790070772171 0.7696740031242371 -0.5952669978141785
vn -0.17381100356578827 0.5463809967041016 -0.8193029761314392
vn 0.7277119755744934 0.6236330270767212 0.2855120003223419
vn 0.6690019965171814 0.50211501121521 -0.5480110049247742
vn -0.3104049861431122 -0.4598900079727173 -0.8319550156593323
vn -0.20244699716567993 -0.9079620242118835 -0.36690598726272583
vn 0.3714059889316559 0.8315449953079224 -0.41302600502967834
vn 0.5579720139503479 0.8288059830665588 -0.041808001697063446
vn 0.013716000132262707 -0.9319450259208679 -0.3623409867286682
vn 0.29700300097465515 -0.8401830196380615 -0.45374301075935364
vn -0.5752739906311035 0.47666099667549133 -0.6647210121154785
vn -0.9104869961738586 -0.40661299228668213 -0.07535599917173386
vn 0.2360219955444336 -0.7238799929618835 0.648298978805542
vn 0.4326690137386322 -0.8345239758491516 0.3411270081996918
vn 0.10054100304841995 -0.4499000012874603 0.8874009847640991
vn 0.1573130041360855 -0.5082389712333679 0.8467270135879517
vn 0.19540099799633026 0.7633910179138184 0.6156730055809021
vn -0.2105260044336319 0.7355790138244629 0.6438969969749451
vn 0.6418190002441406 0.668578028678894 0.37559500336647034
vn 0.6740220189094543 0.6626160144805908 -0.3265489935874939
vn -0.3104090094566345 -0.4598880112171173 0.8319550156593323
vn -0.0963750034570694 -0.9299420118331909 0.35485100746154785
vn 0.35418701171875 0.933463990688324 -0.056547001004219055
vn 0.24880999326705933 0.8526909947395325 0.45935899019241333
vn 0.24760299921035767 -0.8050640225410461 0.5390409827232361
vn 0.15459799766540527 -0.901423990726471 0.4043940007686615
vn -0.5752760171890259 0.4766640067100525 0.6647170186042786
vn 0.42977800965309143 0.7960309982299805 0.4261760115623474
vn 0.36065998673439026 0.8991879820823669 0.24776099622249603
vn 0.46233099699020386 0.8860139846801758 0.03505399823188782
vn -0.20809799432754517 0.8803529739379883 0.4262309968471527
vn -0.9954919815063477 -0.08227100223302841 0.0472010001540184
vn -0.16080200672149658 0.6819189786911011 -0.7135329842567444
vn -0.17142699658870697 0.6140099763870239 0.7704570293426514
vn 0.1391340047121048 0.9782050251960754 0.1541299968957901
vn 0.1852869987487793 0.8368880152702332 -0.5150610208511353
vn 0.36741000413894653 0.8944849967956543 -0.2547689974308014
vn -0.2352609932422638 0.8974869847297668 -0.37305501103401184
vn 0.764136016368866 -0.6298090219497681 -0.13941499590873718
vn 0.5198990106582642 -0.8519089818000793 -0.06289400160312653
vn 0.9209780097007751 0.3555240035057068 -0.1593800038099289
vn 0.7498030066490173 0.4515720009803772 -0.48361098766326904
vn 0.7906069755554199 0.43268701434135437 -0.43327000737190247
vn 0.701000988483429 0.2972019910812378 -0.6482809782028198
vn 0.864978015422821 0.4208360016345978 -0.2733309864997864
vn 0.7809879779815674 0.6143190264701843 0.1125589981675148
vn 0.5029079914093018 0.11703100055456161 -0.8563809990882874
vn 0.8621919751167297 0.29611000418663025 -0.4110279977321625
vn 0.776790976524353 -0.6269710063934326 0.05918499827384949
vn 0.9233850240707397 0.3355939984321594 0.18637999892234802
vn 0.7530440092086792 0.43314799666404724 0.4952850043773651
vn 0.8213480114936829 0.4156869947910309 0.3906309902667999
vn 0.6307730078697205 0.3373950123786926 0.698777973651886
vn 0.7292060256004333 0.6506879925727844 0.21180899441242218
vn 0.7082859873771667 0.6626099944114685 -0.24347299337387085
vn 0.5787079930305481 0.1633789986371994 0.7990019917488098
vn 0.8585180044174194 0.45188799500465393 0.24237099289894104
vn 0.7139469981193542 0.609483003616333 -0.3446890115737915
vn 0.12407100200653076 0.9912890195846558 0.04418199881911278
vn 0.8796259760856628 0.47506698966026306 0.02386399917304516
vn 0.7421039938926697 0.6013249754905701 0.29612499475479126
f 1//1 2//2 3//3
f 3//3 4//4 1//1
f 5//5 2//2 1//1
f 1//1 4//4 5//5
f 6//6 7//7 2//2
f 8//8 6//6 2//2
f 2//2 7//7 3//3
f 2//2 9//9 10//10
f 2//2 10//10 8//8
f 5//5 9//9 2//2
f 11//11 3//3 7//7
f 11//11 12//12 3//3
f 3//3 13//13 14//14 4//4
f 13//13 3//3 12//12
f 4//4 15//15 16//16 17//17
f 14//14 15//15 4//4
f 17//17 18//18 19//19 4//4
f 4//4 19//19 20//20
f 4//4 20//20 21//21 5//5
f 9//9 5//5 22//22
f 5//5 23//23 22//22
f 23//23 5//5 21//21
f 24//24 7//7 6//6
f 24//24 6//6 25//25 26//26
f 25//25 6//6 8//8 27//27
f 11//11 7//7 24//24
f 27//27 8//8 10//10 28//28
f 29//29 9//9 22//22
f 10//10 9//9 29//29
f 30//30 28//28 10//10 29//29
f 31//31 32//32 11//11 24//24
f 11//11 33//33 13//13 12//12
f 11//11 32//32 33//33
f 14//14 13//13 25//25 34//34
f 13//13 26//26 25//25
f 13//13 33//33 26//26
f 15//15 14//14 34//34 35//35
f 15//15 35//35 36//36
f 16//16 15//15 36//36
f 17//17 16//16 37//37 38//38
f 36//36 37//37 16//16
f 38//38 39//39 18//18 17//17
f 40//40 19//19 18//18
f 18//18 39//39 40//40
f 40//40 41//41 19//19
f 41//41 42//42 20//20 19//19
f 42//42 28//28 21//21 20//20
f 23//23 21//21 43//43 22//22
f 28//28 30//30 21//21
f 30//30 43//43 21//21
f 29//29 22//22 44//44 45//45
f 43//43 44//44 22//22
f 31//31 24//24 46//46
f 46//46 24//24 47//47
f 48//48 47//47 24//24
f 48//48 24//24 26//26 49//49
f 50//50 34//34 25//25 27//27
f 26//26 33//33 51//51
f 26//26 51//51 52//52
f 26//26 52//52 49//49
f 27//27 28//28 42//42 50//50
f 53//53 29//29 45//45
f 54//54 29//29 53//53
f 29//29 54//54 55//55
f 56//56 30//30 29//29 55//55
f 57//57 43//43 30//30
f 58//58 57//57 30//30
f 56//56 58//58 30//30
f 59//59 60//60 31//31 46//46
f 60//60 61//61 31//31
f 61//61 32//32 31//31
f 62//62 63//63 32//32 61//61
f 63//63 33//33 32//32
f 33//33 64//64 51//51
f 33//33 63//63 65//65 64//64
f 66//66 35//35 34//34 50//50
f 67//67 36//36 35//35 66//66
f 67//67 38//38 36//36
f 68//68 36//36 38//38
f 68//68 37//37 36//36
f 37//37 68//68 38//38
f 40//40 38//38 67//67
f 38//38 69//69 39//39
f 38//38 40//40 69//69
f 40//40 39//39 69//69
f 66//66 41//41 40//40 67//67
f 50//50 42//42 41//41 66//66
f 57//57 70//70 43//43
f 70//70 71//71 72//72 43//43
f 44//44 43//43 72//72
f 73//73 44//44 72//72 74//74
f 45//45 44//44 73//73
f 53//53 45//45 75//75 76//76
f 45//45 73//73 75//75
f 59//59 46//46 47//47
f 59//59 47//47 77//77
f 78//78 77//77 47//47 79//79
f 79//79 47//47 80//80
f 80//80 47//47 81//81
f 47//47 48//48 81//81
f 82//82 48//48 63//63 62//62
f 48//48 65//65 63//63
f 48//48 83//83 65//65
f 48//48 84//84 85//85 83//83
f 48//48 49//49 86//86
f 48//48 86//86 87//87
f 84//84 48//48 88//88 89//89
f 48//48 82//82 88//88
f 90//90 91//91 48//48
f 91//91 81//81 48//48
f 48//48 87//87 90//90
f 52//52 51//51 49//49
f 51//51 92//92 49//49
f 92//92 86//86 49//49
f 64//64 92//92 51//51
f 54//54 53//53 76//76
f 93//93 54//54 76//76
f 94//94 54//54 93//93 95//95
f 96//96 54//54 94//94
f 97//97 54//54 96//96
f 97//97 55//55 54//54
f 74//74 72//72 55//55 98//98
f 72//72 71//71 55//55
f 71//71 99//99 55//55
f 99//99 100//100 101//101 55//55
f 102//102 56//56 55//55
f 103//103 102//102 55//55
f 104//104 105//105 55//55 101//101
f 105//105 98//98 55//55
f 55//55 106//106 107//107
f 55//55 97//97 106//106
f 107//107 103//103 55//55
f 56//56 57//57 58//58
f 56//56 108//108 57//57
f 56//56 102//102 108//108
f 57//57 108//108 70//70
f 109//109 59//59 110//110
f 111//111 60//60 59//59 109//109
f 110//110 59//59 112//112
f 112//112 59//59 77//77 113//113
f 111//111 114//114 61//61 60//60
f 114//114 62//62 61//61
f 82//82 62//62 114//114
f 83//83 64//64 65//65
f 92//92 64//64 83//83
f 71//71 70//70 99//99
f 99//99 70//70 108//108
f 75//75 73//73 115//115 116//116
f 73//73 74//74 115//115
f 115//115 74//74 98//98
f 117//117 76//76 75//75 116//116
f 118//118 76//76 117//117
f 119//119 76//76 118//118
f 113//113 93//93 76//76 119//119
f 77//77 78//78 120//120 121//121 113//113
f 78//78 122//122 120//120
f 79//79 123//123 122//122 78//78
f 80//80 123//123 79//79
f 81//81 124//124 123//123 80//80
f 81//81 125//125 124//124
f 81//81 91//91 126//126 125//125
f 88//88 82//82 114//114
f 83//83 85//85 92//92
f 127//127 85//85 84//84
f 127//127 84//84 89//89
f 85//85 128//128 92//92
f 127//127 128//128 85//85
f 92//92 128//128 86//86
f 87//87 86//86 128//128
f 90//90 87//87 128//128 129//129
f 126//126 89//89 88//88 125//125
f 125//125 88//88 114//114
f 129//129 127//127 89//89 126//126
f 91//91 90//90 129//129 126//126
f 113//113 121//121 130//130 95//95 93//93
f 95//95 131//131 132//132 94//94
f 94//94 132//132 96//96
f 130//130 131//131 95//95
f 96//96 132//132 133//133 97//97
f 133//133 134//134 97//97
f 134//134 135//135 106//106 97//97
f 115//115 98//98 105//105
f 108//108 100//100 99//99
f 101//101 100//100 136//136
f 108//108 137//137 100//100
f 100//100 137//137 136//136
f 104//104 101//101 136//136
f 102//102 137//137 108//108
f 137//137 102//102 103//103
f 138//138 137//137 103//103 107//107
f 134//134 105//105 104//104 135//135
f 135//135 104//104 136//136 138//138
f 115//115 105//105 134//134
f 135//135 138//138 107//107 106//106
f 124//124 139//139 109//109 110//110
f 139//139 111//111 109//109
f 124//124 110//110 123//123
f 123//123 110//110 122//122
f 110//110 140//140 141//141 122//122
f 110//110 112//112 140//140
f 125//125 114//114 111//111 139//139
f 140//140 112//112 113//113
f 113//113 119//119 140//140
f 142//142 116//116 115//115 134//134
f 117//117 116//116 142//142
f 118//118 117//117 142//142 133//133
f 132//132 118//118 133//133
f 131//131 118//118 132//132
f 131//131 141//141 140//140 118//118
f 140//140 119//119 118//118
f 122//122 141//141 121//121 120//120
f 130//130 121//121 141//141 131//131
f 124//124 125//125 139//139
f 128//128 127//127 129//129
f 142//142 134//134 133//133
f 138//138 136//136 137//137
