# Generated by Visualization Toolkit
v 0.5 0.5 0
v 0.5 -0.5 0
v 0.4755282700061798 0.5 -0.15450850129127502
v 0.4755282700061798 -0.5 -0.15450850129127502
v 0.404508501291275 0.5 -0.29389262199401855
v 0.404508501291275 -0.5 -0.29389262199401855
v 0.29389262199401855 0.5 -0.404508501291275
v 0.29389262199401855 -0.5 -0.404508501291275
v 0.15450850129127502 0.5 -0.4755282700061798
v 0.15450850129127502 -0.5 -0.4755282700061798
v -1.0255171711825994e-10 0.5 -0.5
v -1.0255171711825994e-10 -0.5 -0.5
v -0.15450850129127502 0.5 -0.4755282700061798
v -0.15450850129127502 -0.5 -0.4755282700061798
v -0.29389262199401855 0.5 -0.404508501291275
v -0.29389262199401855 -0.5 -0.404508501291275
v -0.404508501291275 0.5 -0.29389262199401855
v -0.404508501291275 -0.5 -0.29389262199401855
v -0.4755282700061798 0.5 -0.15450850129127502
v -0.4755282700061798 -0.5 -0.15450850129127502
v -0.5 0.5 2.051034342365199e-10
v -0.5 -0.5 2.051034342365199e-10
v -0.4755282700061798 0.5 0.15450850129127502
v -0.4755282700061798 -0.5 0.15450850129127502
v -0.404508501291275 0.5 0.29389262199401855
v -0.404508501291275 -0.5 0.29389262199401855
v -0.29389262199401855 0.5 0.404508501291275
v -0.29389262199401855 -0.5 0.404508501291275
v -0.15450850129127502 0.5 0.4755282700061798
v -0.15450850129127502 -0.5 0.4755282700061798
v 3.0765515135477983e-10 0.5 0.5
v 3.0765515135477983e-10 -0.5 0.5
v 0.15450850129127502 0.5 0.4755282700061798
v 0.15450850129127502 -0.5 0.4755282700061798
v 0.29389262199401855 0.5 0.404508501291275
v 0.29389262199401855 -0.5 0.404508501291275
v 0.404508501291275 0.5 0.29389262199401855
v 0.404508501291275 -0.5 0.29389262199401855
v 0.4755282700061798 0.5 0.15450850129127502
v 0.4755282700061798 -0.5 0.15450850129127502
v 0.5 0.5 0
v 0.4755282700061798 0.5 -0.15450850129127502
v 0.404508501291275 0.5 -0.29389262199401855
v 0.29389262199401855 0.5 -0.404508501291275
v 0.15450850129127502 0.5 -0.4755282700061798
v -1.0255171711825994e-10 0.5 -0.5
v -0.15450850129127502 0.5 -0.4755282700061798
v -0.29389262199401855 0.5 -0.404508501291275
v -0.404508501291275 0.5 -0.29389262199401855
v -0.4755282700061798 0.5 -0.15450850129127502
v -0.5 0.5 2.051034342365199e-10
v -0.4755282700061798 0.5 0.15450850129127502
v -0.404508501291275 0.5 0.29389262199401855
v -0.29389262199401855 0.5 0.404508501291275
v -0.15450850129127502 0.5 0.4755282700061798
v 3.0765515135477983e-10 0.5 0.5
v 0.15450850129127502 0.5 0.4755282700061798
v 0.29389262199401855 0.5 0.404508501291275
v 0.404508501291275 0.5 0.29389262199401855
v 0.4755282700061798 0.5 0.15450850129127502
v 0.4755282700061798 -0.5 0.15450850129127502
v 0.404508501291275 -0.5 0.29389262199401855
v 0.29389262199401855 -0.5 0.404508501291275
v 0.15450850129127502 -0.5 0.4755282700061798
v 3.0765515135477983e-10 -0.5 0.5
v -0.15450850129127502 -0.5 0.4755282700061798
v -0.29389262199401855 -0.5 0.404508501291275
v -0.404508501291275 -0.5 0.29389262199401855
v -0.4755282700061798 -0.5 0.15450850129127502
v -0.5 -0.5 2.051034342365199e-10
v -0.4755282700061798 -0.5 -0.15450850129127502
v -0.404508501291275 -0.5 -0.29389262199401855
v -0.29389262199401855 -0.5 -0.404508501291275
v -0.15450850129127502 -0.5 -0.4755282700061798
v -1.0255171711825994e-10 -0.5 -0.5
v 0.15450850129127502 -0.5 -0.4755282700061798
v 0.29389262199401855 -0.5 -0.404508501291275
v 0.404508501291275 -0.5 -0.29389262199401855
v 0.4755282700061798 -0.5 -0.15450850129127502
v 0.5 -0.5 0
vn 1 0 0
vn 1 0 0
vn 0.9510565400123596 0 -0.30901700258255005
vn 0.9510565400123596 0 -0.30901700258255005
vn 0.80901700258255 0 -0.5877852439880371
vn 0.80901700258255 0 -0.5877852439880371
vn 0.5877852439880371 0 -0.80901700258255
vn 0.5877852439880371 0 -0.80901700258255
vn 0.30901700258255005 0 -0.9510565400123596
vn 0.30901700258255005 0 -0.9510565400123596
vn -2.051034342365199e-10 0 -1
vn -2.051034342365199e-10 0 -1
vn -0.30901700258255005 0 -0.9510565400123596
vn -0.30901700258255005 0 -0.9510565400123596
vn -0.5877852439880371 0 -0.80901700258255
vn -0.5877852439880371 0 -0.80901700258255
vn -0.80901700258255 0 -0.5877852439880371
vn -0.80901700258255 0 -0.5877852439880371
vn -0.9510565400123596 0 -0.30901700258255005
vn -0.9510565400123596 0 -0.30901700258255005
vn -1 0 4.102068684730398e-10
vn -1 0 4.102068684730398e-10
vn -0.9510565400123596 0 0.30901700258255005
vn -0.9510565400123596 0 0.30901700258255005
vn -0.80901700258255 0 0.5877852439880371
vn -0.80901700258255 0 0.5877852439880371
vn -0.5877852439880371 0 0.80901700258255
vn -0.5877852439880371 0 0.80901700258255
vn -0.30901700258255005 0 0.9510565400123596
vn -0.30901700258255005 0 0.9510565400123596
vn 6.153103027095597e-10 0 1
vn 6.153103027095597e-10 0 1
vn 0.30901700258255005 0 0.9510565400123596
vn 0.30901700258255005 0 0.9510565400123596
vn 0.5877852439880371 0 0.80901700258255
vn 0.5877852439880371 0 0.80901700258255
vn 0.80901700258255 0 0.5877852439880371
vn 0.80901700258255 0 0.5877852439880371
vn 0.9510565400123596 0 0.30901700258255005
vn 0.9510565400123596 0 0.30901700258255005
vn 0 1 0
vn 0 1 0
vn 0 1 0
vn 0 1 0
vn 0 1 0
vn 0 1 0
vn 0 1 0
vn 0 1 0
vn 0 1 0
vn 0 1 0
vn 0 1 0
vn 0 1 0
vn 0 1 0
vn 0 1 0
vn 0 1 0
vn 0 1 0
vn 0 1 0
vn 0 1 0
vn 0 1 0
vn 0 1 0
vn 0 -1 0
vn 0 -1 0
vn 0 -1 0
vn 0 -1 0
vn 0 -1 0
vn 0 -1 0
vn 0 -1 0
vn 0 -1 0
vn 0 -1 0
vn 0 -1 0
vn 0 -1 0
vn 0 -1 0
vn 0 -1 0
vn 0 -1 0
vn 0 -1 0
vn 0 -1 0
vn 0 -1 0
vn 0 -1 0
vn 0 -1 0
vn 0 -1 0
# tcoords array 0
vt 1 0
vt 1 1
vt 0.8999999761581421 0
vt 0.8999999761581421 1
vt 0.800000011920929 0
vt 0.800000011920929 1
vt 0.699999988079071 0
vt 0.699999988079071 1
vt 0.6000000238418579 0
vt 0.6000000238418579 1
vt 0.5 0
vt 0.5 1
vt 0.4000000059604645 0
vt 0.4000000059604645 1
vt 0.30000001192092896 0
vt 0.30000001192092896 1
vt 0.20000000298023224 0
vt 0.20000000298023224 1
vt 0.10000000149011612 0
vt 0.10000000149011612 1
vt 0 0
vt 0 1
vt 0.10000000149011612 0
vt 0.10000000149011612 1
vt 0.20000000298023224 0
vt 0.20000000298023224 1
vt 0.30000001192092896 0
vt 0.30000001192092896 1
vt 0.4000000059604645 0
vt 0.4000000059604645 1
vt 0.5 0
vt 0.5 1
vt 0.6000000238418579 0
vt 0.6000000238418579 1
vt 0.699999988079071 0
vt 0.699999988079071 1
vt 0.800000011920929 0
vt 0.800000011920929 1
vt 0.8999999761581421 0
vt 0.8999999761581421 1
vt 0.5 0
vt 0.4755282700061798 -0.15450850129127502
vt 0.404508501291275 -0.29389262199401855
vt 0.29389262199401855 -0.404508501291275
vt 0.15450850129127502 -0.4755282700061798
vt -1.0255171711825994e-10 -0.5
vt -0.15450850129127502 -0.4755282700061798
vt -0.29389262199401855 -0.404508501291275
vt -0.404508501291275 -0.29389262199401855
vt -0.4755282700061798 -0.15450850129127502
vt -0.5 2.051034342365199e-10
vt -0.4755282700061798 0.15450850129127502
vt -0.404508501291275 0.29389262199401855
vt -0.29389262199401855 0.404508501291275
vt -0.15450850129127502 0.4755282700061798
vt 3.0765515135477983e-10 0.5
vt 0.15450850129127502 0.4755282700061798
vt 0.29389262199401855 0.404508501291275
vt 0.404508501291275 0.29389262199401855
vt 0.4755282700061798 0.15450850129127502
vt 0.4755282700061798 0.15450850129127502
vt 0.404508501291275 0.29389262199401855
vt 0.29389262199401855 0.404508501291275
vt 0.15450850129127502 0.4755282700061798
vt 3.0765515135477983e-10 0.5
vt -0.15450850129127502 0.4755282700061798
vt -0.29389262199401855 0.404508501291275
vt -0.404508501291275 0.29389262199401855
vt -0.4755282700061798 0.15450850129127502
vt -0.5 2.051034342365199e-10
vt -0.4755282700061798 -0.15450850129127502
vt -0.404508501291275 -0.29389262199401855
vt -0.29389262199401855 -0.404508501291275
vt -0.15450850129127502 -0.4755282700061798
vt -1.0255171711825994e-10 -0.5
vt 0.15450850129127502 -0.4755282700061798
vt 0.29389262199401855 -0.404508501291275
vt 0.404508501291275 -0.29389262199401855
vt 0.4755282700061798 -0.15450850129127502
vt 0.5 0
f 1/1/1 2/2/2 4/4/4 3/3/3
f 3/3/3 4/4/4 6/6/6 5/5/5
f 5/5/5 6/6/6 8/8/8 7/7/7
f 7/7/7 8/8/8 10/10/10 9/9/9
f 9/9/9 10/10/10 12/12/12 11/11/11
f 11/11/11 12/12/12 14/14/14 13/13/13
f 13/13/13 14/14/14 16/16/16 15/15/15
f 15/15/15 16/16/16 18/18/18 17/17/17
f 17/17/17 18/18/18 20/20/20 19/19/19
f 19/19/19 20/20/20 22/22/22 21/21/21
f 21/21/21 22/22/22 24/24/24 23/23/23
f 23/23/23 24/24/24 26/26/26 25/25/25
f 25/25/25 26/26/26 28/28/28 27/27/27
f 27/27/27 28/28/28 30/30/30 29/29/29
f 29/29/29 30/30/30 32/32/32 31/31/31
f 31/31/31 32/32/32 34/34/34 33/33/33
f 33/33/33 34/34/34 36/36/36 35/35/35
f 35/35/35 36/36/36 38/38/38 37/37/37
f 37/37/37 38/38/38 40/40/40 39/39/39
f 39/39/39 40/40/40 2/2/2 1/1/1
f 41/41/41 42/42/42 43/43/43 44/44/44 45/45/45 46/46/46 47/47/47 48/48/48 49/49/49 50/50/50 51/51/51 52/52/52 53/53/53 54/54/54 55/55/55 56/56/56 57/57/57 58/58/58 59/59/59 60/60/60
f 61/61/61 62/62/62 63/63/63 64/64/64 65/65/65 66/66/66 67/67/67 68/68/68 69/69/69 70/70/70 71/71/71 72/72/72 73/73/73 74/74/74 75/75/75 76/76/76 77/77/77 78/78/78 79/79/79 80/80/80
