# Generated by Visualization Toolkit
v 0.04911800101399422 -0.002974000060930848 0.024945000186562538
v 0.05052899941802025 -0.0028699999675154686 0.025265000760555267
v 0.05018699914216995 -0.0030380000825971365 0.024057000875473022
v 0.04421500116586685 -0.001505000051110983 0.024602999910712242
v 0.04636000096797943 -0.003028000006452203 0.023871000856161118
v 0.04959600046277046 -0.0033279999624937773 0.023661000654101372
v 0.04827599972486496 -0.004184000194072723 0.023763999342918396
v 0.048555999994277954 -0.0025369999930262566 0.025947999209165573
v 0.04770699888467789 -0.0042849997989833355 0.023653000593185425
v 0.05065400153398514 -0.003154000034555793 0.025679999962449074
v 0.05065099895000458 -0.0028909998945891857 0.02636300027370453
v 0.04772699996829033 -0.002294000005349517 0.02625199966132641
v 0.04334000125527382 -0.001706999959424138 0.024700000882148743
v 0.04460899904370308 -0.0021069999784231186 0.027885999530553818
v 0.043563999235630035 -0.0017659999430179596 0.023233000189065933
v 0.044307999312877655 -0.0015790000325068831 0.02238599956035614
v 0.04557900130748749 -0.003470999887213111 0.022935999557375908
v 0.04605099931359291 -0.004246000200510025 0.023256000131368637
v 0.048340000212192535 -0.004648000001907349 0.024166999384760857
v 0.04870999976992607 -0.0034630000591278076 0.02800700068473816
v 0.050209999084472656 -0.003160000080242753 0.028857000172138214
v 0.045527998358011246 -0.004765000194311142 0.023420000448822975
v 0.04665900021791458 -0.004825000185519457 0.023925000801682472
v 0.04370399937033653 -0.005646999925374985 0.02586599998176098
v 0.04818499833345413 -0.004523000214248896 0.02580299973487854
v 0.05049100145697594 -0.0035429999697953463 0.02849699929356575
v 0.04628400132060051 -0.0028860000893473625 0.027660999447107315
v 0.043501000851392746 -0.0022529999259859324 0.028578000143170357
v 0.043487999588251114 -0.0033370000310242176 0.029600000008940697
v 0.04296199977397919 -0.004953000228852034 0.028005000203847885
v 0.043170999735593796 -0.005018000025302172 0.02394000068306923
v 0.043028999119997025 -0.005185999907553196 0.024932000786066055
v 0.044863998889923096 -0.0031429999507963657 0.028512999415397644
v 0.04394400119781494 -0.002368000103160739 0.021172000095248222
v 0.043887000530958176 -0.003519000019878149 0.0208320003002882
v 0.04496600106358528 -0.004344000015407801 0.022538000717759132
v 0.04726700112223625 -0.003731000004336238 0.02808300033211708
v 0.049922000616788864 -0.0037070000544190407 0.0297279991209507
v 0.04761099815368652 -0.004435000009834766 0.028529999777674675
v 0.0493599995970726 -0.004085000138729811 0.029841000214219093
v 0.04817499965429306 -0.004608000162988901 0.029224999248981476
v 0.04333699867129326 -0.004885000176727772 0.022513000294566154
v 0.04567699879407883 -0.005274999886751175 0.027424000203609467
v 0.04301200062036514 -0.005384999793022871 0.025828000158071518
v 0.043115001171827316 -0.005413999781012535 0.027876999229192734
v 0.04398500174283981 -0.005495999939739704 0.028471000492572784
v 0.04804300144314766 -0.004989999812096357 0.02863200008869171
v 0.04721200093626976 -0.004714000038802624 0.028230000287294388
v 0.04625000059604645 -0.0051020001992583275 0.027765000239014626
v 0.04881399869918823 -0.004550000187009573 0.02962999977171421
v 0.045607998967170715 -0.003855000017210841 0.02814199961721897
v 0.04324299842119217 -0.004139999859035015 0.02938699908554554
v 0.04327600076794624 -0.004602999892085791 0.02917099930346012
v 0.04291500151157379 -0.005262000020593405 0.0263420008122921
v 0.043372999876737595 -0.004162999801337719 0.021508999168872833
v 0.04347100108861923 -0.003710000077262521 0.021152999252080917
v 0.046633001416921616 -0.004408000037074089 0.02817700058221817
v 0.0457490012049675 -0.004606000147759914 0.028005000203847885
vn 0.014698999933898449 0.8630660176277161 -0.504876971244812
vn 0.5283809900283813 0.817762017250061 -0.2282080054283142
vn 0.8343560099601746 0.12864899635314941 -0.5360029935836792
vn 0.10893899947404861 0.9886320233345032 -0.10362699627876282
vn 0.5079950094223022 0.5121650099754333 -0.6925519704818726
vn -0.1740880012512207 0.6653429865837097 -0.7259560227394104
vn 0.4281359910964966 -0.36357998847961426 -0.8273509740829468
vn 0.1318800002336502 0.990871012210846 0.027966000139713287
vn 0.27121099829673767 -0.5263779759407043 -0.805836021900177
vn 0.8591930270195007 -0.47483399510383606 -0.19058099389076233
vn 0.7689779996871948 0.6356729865074158 0.06777600198984146
vn 0.27242299914360046 0.9015250205993652 0.33621299266815186
vn -0.8433510065078735 0.5371059775352478 0.016638999804854393
vn 0.22838599979877472 0.8255789875984192 0.5160030126571655
vn -0.7177540063858032 0.6703019738197327 -0.18848000466823578
vn 0.3189760148525238 0.8518810272216797 -0.41539499163627625
vn 0.7316910028457642 0.11698500066995621 -0.6715229749679565
vn 0.48150500655174255 -0.12919999659061432 -0.8668680191040039
vn 0.2861280143260956 -0.8770449757575989 -0.38590601086616516
vn -0.21102100610733032 0.7894279956817627 0.5764319896697998
vn 0.28586098551750183 0.8672299981117249 0.4076699912548065
vn 0.24154700338840485 -0.8002510070800781 -0.5488659739494324
vn 0.3081749975681305 -0.9357150197029114 -0.171657994389534
vn 0.002345999935641885 -0.9983170032501221 -0.057948999106884
vn 0.21733400225639343 -0.9748539924621582 -0.04925600066781044
vn 0.8253759741783142 -0.5511040091514587 0.1226309984922409
vn 0.23922599852085114 0.5299260020256042 0.8136029839515686
vn -0.34290000796318054 0.8340250253677368 0.43222901225090027
vn -0.3076629936695099 0.30344000458717346 0.9018129706382751
vn -0.9926599860191345 0.011404000222682953 0.1204029992222786
vn -0.9509320259094238 -0.270702987909317 -0.14982399344444275
vn -0.9809970259666443 -0.15359799563884735 -0.1185469999909401
vn 0.506846010684967 0.1666869968175888 0.8457670211791992
vn -0.4673919975757599 0.5709850192070007 -0.6749230027198792
vn 0.21922199428081512 -0.33481401205062866 -0.9164289832115173
vn 0.4615499973297119 -0.5892500281333923 -0.6631410121917725
vn -0.07250099629163742 0.38655799627304077 0.9194110035896301
vn 0.3267520070075989 0.5640900135040283 0.7583109736442566
vn -0.46015799045562744 0.10292500257492065 0.8818510174751282
vn -0.172884002327919 0.0879639983177185 0.9810069799423218
vn -0.6625159978866577 0.12293300032615662 0.7388920187950134
vn -0.20268599689006805 -0.8908380270004272 -0.40660399198532104
vn 0.253713995218277 -0.8626750111579895 0.4375160038471222
vn -0.5840020179748535 -0.8053629994392395 -0.10164999961853027
vn -0.6337289810180664 -0.7487450242042542 0.1943420022726059
vn 0.03720200061798096 -0.8959980010986328 0.44249698519706726
vn -0.16228699684143066 -0.921800971031189 0.352059006690979
vn -0.21126799285411835 -0.6795769929885864 0.7025250196456909
vn 0.06093199923634529 -0.8827019929885864 0.46596500277519226
vn 0.10592400282621384 -0.809391975402832 0.5776370167732239
vn 0.2158699929714203 0.05414000153541565 0.9749199748039246
vn -0.7698879837989807 -0.14832399785518646 0.6207029819488525
vn 0.08022700250148773 -0.4449619948863983 0.8919489979743958
vn -0.9650530219078064 -0.2619229853153229 -0.008313000202178955
vn -0.5285750031471252 -0.6025720238685608 -0.5979260206222534
vn -0.8954110145568848 0.07626300305128098 -0.43865999579429626
vn -0.18838199973106384 -0.057714998722076416 0.9803979992866516
vn 0.004790999926626682 -0.4023660123348236 0.9154660105705261
f 1//1 2//2 3//3
f 4//4 1//1 5//5
f 1//1 6//6 7//7
f 4//4 8//8 1//1
f 5//5 1//1 9//9
f 7//7 9//9 1//1
f 3//3 6//6 1//1
f 1//1 8//8 2//2
f 2//2 10//10 3//3
f 8//8 11//11 2//2
f 11//11 10//10 2//2
f 6//6 3//3 7//7
f 7//7 3//3 10//10
f 12//12 8//8 4//4
f 4//4 13//13 14//14
f 14//14 12//12 4//4
f 13//13 4//4 15//15
f 4//4 16//16 15//15
f 5//5 16//16 4//4
f 17//17 16//16 5//5
f 5//5 18//18 17//17
f 9//9 18//18 5//5
f 9//9 7//7 19//19
f 19//19 7//7 10//10
f 20//20 8//8 12//12
f 21//21 8//8 20//20
f 21//21 11//11 8//8
f 18//18 9//9 22//22
f 23//23 22//22 9//9
f 23//23 9//9 24//24
f 25//25 9//9 19//19
f 24//24 9//9 25//25
f 26//26 10//10 11//11
f 10//10 25//25 19//19
f 10//10 26//26 25//25
f 21//21 26//26 11//11
f 20//20 12//12 27//27
f 14//14 27//27 12//12
f 28//28 14//14 13//13
f 29//29 28//28 13//13
f 13//13 30//30 29//29
f 13//13 15//15 31//31
f 30//30 13//13 32//32
f 13//13 31//31 32//32
f 33//33 27//27 14//14
f 29//29 33//33 14//14
f 28//28 29//29 14//14
f 34//34 15//15 16//16
f 15//15 34//34 31//31
f 16//16 17//17 34//34
f 17//17 35//35 34//34
f 35//35 17//17 36//36
f 17//17 18//18 36//36
f 36//36 18//18 22//22
f 27//27 37//37 20//20
f 21//21 20//20 38//38
f 20//20 37//37 39//39
f 20//20 40//40 38//38
f 41//41 40//40 20//20
f 41//41 20//20 39//39
f 38//38 26//26 21//21
f 36//36 22//22 42//42
f 22//22 23//23 24//24
f 22//22 24//24 42//42
f 24//24 25//25 43//43
f 24//24 31//31 42//42
f 31//31 24//24 44//44
f 45//45 44//44 24//24
f 46//46 45//45 24//24
f 46//46 24//24 43//43
f 26//26 47//47 25//25
f 48//48 49//49 25//25
f 49//49 43//43 25//25
f 25//25 47//47 48//48
f 50//50 47//47 26//26
f 50//50 26//26 40//40
f 38//38 40//40 26//26
f 51//51 37//37 27//27
f 51//51 27//27 33//33
f 30//30 52//52 29//29
f 53//53 33//33 29//29
f 52//52 53//53 29//29
f 52//52 30//30 53//53
f 30//30 45//45 53//53
f 30//30 54//54 45//45
f 32//32 54//54 30//30
f 55//55 42//42 31//31
f 55//55 31//31 56//56
f 31//31 34//34 56//56
f 32//32 31//31 44//44
f 54//54 32//32 44//44
f 51//51 33//33 53//53
f 34//34 35//35 56//56
f 35//35 55//55 56//56
f 35//35 36//36 55//55
f 55//55 36//36 42//42
f 39//39 37//37 57//57
f 51//51 57//57 37//37
f 48//48 39//39 57//57
f 47//47 39//39 48//48
f 47//47 41//41 39//39
f 40//40 41//41 50//50
f 50//50 41//41 47//47
f 43//43 49//49 58//58
f 58//58 53//53 43//43
f 46//46 43//43 53//53
f 44//44 45//45 54//54
f 53//53 45//45 46//46
f 57//57 58//58 48//48
f 49//49 48//48 58//58
f 51//51 53//53 58//58
f 57//57 51//51 58//58
