# Generated by Visualization Toolkit
v 0.06586199998855591 -0.004236000124365091 -0.010052000172436237
v 0.06707199662923813 -0.00445199990645051 -0.010367999784648418
v 0.0657379999756813 -0.00304599991068244 -0.010777999646961689
v 0.06509800255298615 -0.0027020000852644444 -0.010484999977052212
v 0.0654359981417656 -0.004478999879211187 -0.00991700030863285
v 0.0648220032453537 -0.0029360000044107437 -0.00966500025242567
v 0.06525000184774399 -0.0039889998733997345 -0.009812000207602978
v 0.06812500208616257 -0.0034099998883903027 -0.01156499981880188
v 0.06881900131702423 -0.0037140001077204943 -0.010406999848783016
v 0.06492599844932556 -0.004929000046104193 -0.010084000416100025
v 0.06641700118780136 -0.00481700012460351 -0.010360999964177608
v 0.06842599809169769 -0.003988000098615885 -0.0102530000731349
v 0.06736300140619278 -0.004774000030010939 -0.01005600020289421
v 0.06818100064992905 -0.0043310001492500305 -0.009972999803721905
v 0.06470099836587906 -0.005371000152081251 -0.013314999639987946
v 0.06743799895048141 -0.004954000003635883 -0.010816000401973724
v 0.06726499646902084 -0.004782000090926886 -0.01267900038510561
v 0.06738399714231491 -0.0030350000597536564 -0.01242899987846613
v 0.06421999633312225 -0.0021979999728500843 -0.01090100035071373
v 0.06431099772453308 -0.0022330000065267086 -0.009425000287592411
v 0.06353999674320221 -0.00419900007545948 -0.00865000020712614
v 0.06940300017595291 -0.00344299990683794 -0.010859999805688858
v 0.06947900354862213 -0.0033919999841600657 -0.012356000021100044
v 0.06294699758291245 -0.005212999880313873 -0.009757000021636486
v 0.0692249983549118 -0.0040699997916817665 -0.010666999965906143
v 0.06251800060272217 -0.005634000059217215 -0.01345600001513958
v 0.06287900358438492 -0.0052109998650848866 -0.014305000193417072
v 0.06624600291252136 -0.005224000196903944 -0.013926999643445015
v 0.06559400260448456 -0.005158999934792519 -0.01368200033903122
v 0.06376100331544876 -0.004908999893814325 -0.014089999720454216
v 0.06485600024461746 -0.004315000027418137 -0.01388499978929758
v 0.06790599972009659 -0.004310999996960163 -0.015304000116884708
v 0.06650099903345108 -0.004927000030875206 -0.014387999661266804
v 0.06557399779558182 -0.003244000021368265 -0.013384999707341194
v 0.06347399950027466 -0.0028540000785142183 -0.013945999555289745
v 0.0687830001115799 -0.003622000105679035 -0.014533000066876411
v 0.06807000190019608 -0.003898999886587262 -0.01500799972563982
v 0.06906100362539291 -0.003473999910056591 -0.013961000367999077
v 0.062470998615026474 -0.0023769999388605356 -0.012742999941110611
v 0.06260199844837189 -0.002334000077098608 -0.011531000025570393
v 0.06374700367450714 -0.0022440000902861357 -0.009166000410914421
v 0.06365600228309631 -0.0028460000175982714 -0.008526000194251537
v 0.06328299641609192 -0.003490000031888485 -0.008702999912202358
v 0.0628800019621849 -0.004650999791920185 -0.009324000217020512
v 0.0693809986114502 -0.0036899999249726534 -0.013106999918818474
v 0.06236400082707405 -0.0054779998026788235 -0.011401999741792679
v 0.06877599656581879 -0.004151000175625086 -0.014341999776661396
v 0.06212199851870537 -0.005073000211268663 -0.013787999749183655
v 0.06218000128865242 -0.00545400008559227 -0.01285799965262413
v 0.06284199655056 -0.0035780000034719706 -0.014758000150322914
v 0.06224299967288971 -0.004277000203728676 -0.014558999799191952
v 0.06692799925804138 -0.005148999858647585 -0.014686999842524529
v 0.0626859962940216 -0.0029249999206513166 -0.014289000071585178
v 0.062192998826503754 -0.005229000002145767 -0.011823000386357307
vn 0.46690699458122253 0.26974400877952576 0.8421609997749329
vn -0.21128800511360168 0.03426799923181534 0.9768229722976685
vn 0.4150870144367218 0.744280993938446 0.5232099890708923
vn 0.6663640141487122 0.6733620166778564 0.32022398710250854
vn 0.3714199960231781 -0.24924999475479126 0.8943830132484436
vn 0.6644440293312073 0.28544801473617554 0.6906759738922119
vn 0.47304901480674744 0.038731999695301056 0.8801850080490112
vn 0.03680500015616417 0.92808997631073 0.3705329895019531
vn -0.09747699648141861 0.7441020011901855 0.6609169840812683
vn 0.2516849935054779 -0.8341789841651917 0.49071499705314636
vn 0 0 1
vn -0.2820099890232086 0.7331169843673706 0.6188769936561584
vn -0.11591199785470963 -0.7848269939422607 0.6087790131568909
vn 0.1735839992761612 0.24495400488376617 0.9538689851760864
vn 0.14449100196361542 -0.9139170050621033 -0.37931299209594727
vn -0.23153799772262573 -0.9702939987182617 0.07014100253582001
vn 0.215705007314682 -0.9763609766960144 -0.01381400041282177
vn 0.11431500315666199 0.9703980088233948 -0.21274399757385254
vn 0.23118500411510468 0.9728909730911255 -0.00597799988463521
vn 0.5450209975242615 0.6534299850463867 0.5253400206565857
vn 0.18681700527668 -0.34907999634742737 0.9182829856872559
vn 0.7755200266838074 0.3295539915561676 0.5384820103645325
vn 0.5989540219306946 0.8007829785346985 0.0006430000066757202
vn -0.09888499975204468 -0.9157119989395142 0.38947901129722595
vn 0.5922060012817383 -0.7873809933662415 0.17124100029468536
vn -0.22659599781036377 -0.9580150246620178 -0.1756729930639267
vn -0.04403800144791603 -0.598986029624939 -0.7995479702949524
vn 0.027984000742435455 -0.8564609885215759 -0.5154520273208618
vn -0.347788006067276 -0.4629719853401184 -0.8152920007705688
vn 0.41306400299072266 -0.2189060002565384 -0.8840010166168213
vn 0.01234500017017126 -0.12632200121879578 -0.9919120073318481
vn 0.39626699686050415 -0.7651860117912292 -0.507407009601593
vn -0.18471600115299225 -0.14179199934005737 -0.9725099802017212
vn 0.21210700273513794 0.5005329847335815 -0.8393309712409973
vn 0.2969770133495331 0.6518539786338806 -0.6977750062942505
vn 0.6806139945983887 0.3753010034561157 -0.6292170286178589
vn -0.007860999554395676 0.6270279884338379 -0.7789570093154907
vn 0.6526370048522949 0.68436598777771 -0.3251279890537262
vn -0.2638019919395447 0.9429759979248047 -0.20299099385738373
vn -0.7925249934196472 0.57881098985672 0.19204600155353546
vn -0.21109899878501892 0.8858270049095154 0.4132170081138611
vn -0.2544960081577301 0.42228201031684875 0.8700050115585327
vn -0.7608230113983154 0.08962800353765488 0.6427410244941711
vn -0.9242560267448425 -0.05359699949622154 0.37799298763275146
vn 0.9502509832382202 -0.24864700436592102 -0.18761000037193298
vn -0.6984400153160095 -0.6832200288772583 0.21305100619792938
vn 0.7541409730911255 -0.47056901454925537 -0.458079993724823
vn -0.9733840227127075 -0.1375889927148819 -0.18328499794006348
vn -0.8266609907150269 -0.5625630021095276 -0.012401999905705452
vn 0.15869399905204773 0.1414860039949417 -0.9771379828453064
vn -0.7011550068855286 -0.06002800166606903 -0.7104769945144653
vn 0 0 1
vn -0.874114990234375 0.378244012594223 -0.304720014333725
vn -0.9902799725532532 -0.01582299917936325 0.13818299770355225
f 1//1 2//2 3//3
f 3//3 4//4 1//1
f 1//1 5//5 2//2
f 4//4 6//6 1//1
f 1//1 6//6 7//7
f 1//1 7//7 5//5
f 2//2 8//8 3//3
f 2//2 9//9 8//8
f 2//2 10//10 11//11
f 10//10 2//2 5//5
f 12//12 9//9 2//2
f 2//2 13//13 14//14
f 2//2 14//14 12//12
f 11//11 10//10 2//2
f 15//15 2//2 10//10
f 16//16 13//13 2//2
f 16//16 2//2 17//17
f 2//2 15//15 17//17
f 18//18 3//3 8//8
f 3//3 18//18 19//19
f 19//19 4//4 3//3
f 20//20 6//6 4//4
f 19//19 20//20 4//4
f 21//21 5//5 7//7
f 10//10 5//5 21//21
f 20//20 7//7 6//6
f 7//7 20//20 21//21
f 8//8 22//22 23//23
f 8//8 9//9 22//22
f 8//8 23//23 18//18
f 9//9 12//12 14//14
f 14//14 22//22 9//9
f 10//10 24//24 15//15
f 21//21 24//24 10//10
f 13//13 25//25 14//14
f 16//16 25//25 13//13
f 14//14 25//25 22//22
f 26//26 27//27 15//15
f 26//26 15//15 24//24
f 28//28 15//15 29//29
f 28//28 17//17 15//15
f 15//15 30//30 31//31
f 30//30 15//15 27//27
f 31//31 29//29 15//15
f 25//25 16//16 17//17
f 25//25 17//17 32//32
f 32//32 17//17 33//33
f 33//33 17//17 28//28
f 34//34 18//18 33//33
f 35//35 19//19 18//18
f 18//18 34//34 35//35
f 18//18 36//36 37//37
f 18//18 38//38 36//36
f 38//38 18//18 23//23
f 33//33 18//18 37//37
f 35//35 39//39 19//19
f 19//19 39//39 40//40
f 20//20 19//19 40//40
f 20//20 41//41 42//42
f 21//21 20//20 42//42
f 40//40 41//41 20//20
f 43//43 21//21 42//42
f 21//21 44//44 24//24
f 21//21 43//43 44//44
f 45//45 23//23 22//22
f 25//25 45//45 22//22
f 38//38 23//23 45//45
f 44//44 46//46 24//24
f 46//46 26//26 24//24
f 47//47 45//45 25//25
f 47//47 25//25 32//32
f 48//48 27//27 26//26
f 46//46 49//49 26//26
f 49//49 48//48 26//26
f 50//50 30//30 27//27
f 50//50 27//27 51//51
f 48//48 51//51 27//27
f 28//28 29//29 33//33
f 29//29 31//31 33//33
f 30//30 50//50 35//35
f 30//30 35//35 31//31
f 34//34 33//33 31//31
f 34//34 31//31 35//35
f 32//32 33//33 37//37
f 33//33 52//52 32//32
f 33//33 32//32 52//52
f 37//37 47//47 32//32
f 39//39 35//35 53//53
f 35//35 50//50 53//53
f 47//47 37//37 36//36
f 36//36 38//38 45//45
f 47//47 36//36 45//45
f 40//40 39//39 53//53
f 42//42 40//40 43//43
f 42//42 41//41 40//40
f 44//44 40//40 53//53
f 44//44 43//43 40//40
f 48//48 44//44 53//53
f 46//46 44//44 54//54
f 44//44 48//48 54//54
f 54//54 49//49 46//46
f 51//51 48//48 53//53
f 49//49 54//54 48//48
f 51//51 53//53 50//50
