# Generated by Visualization Toolkit
v -0.0003499999875202775 -0.42443299293518066 -0.02497600018978119
v -0.004000000189989805 -0.4318229854106903 -0.02459999918937683
v -0.004000000189989805 -0.4254409968852997 -0.029999999329447746
v 0.0026759998872876167 -0.4170440137386322 -0.027830999344587326
v 0.0017130000051110983 -0.41536301374435425 -0.022136999294161797
v 0.008839000016450882 -0.40864500403404236 -0.025828000158071518
v -0.006221999879926443 -0.4304800033569336 -0.026941999793052673
v -0.004000000189989805 -0.42208200693130493 -0.024059999734163284
v 0.0026759998872876167 -0.4170440137386322 -0.032168999314308167
v 0.001475999946705997 -0.41989898681640625 -0.03753599897027016
v -0.004000000189989805 -0.4227530062198639 -0.0416099987924099
v -0.00804699957370758 -0.4259450137615204 -0.03556999936699867
v -0.006054999772459269 -0.4291360080242157 -0.030667999759316444
v -0.006054999772459269 -0.4291360080242157 -0.029332000762224197
v 0.008839000016450882 -0.40864500403404236 -0.03417100012302399
v 0.0012369999894872308 -0.40411099791526794 -0.022792000323534012
v 0.0034469999372959137 -0.3975600004196167 -0.027580000460147858
v 0.0034469999372959137 -0.3975600004196167 -0.032419998198747635
v -0.00828499998897314 -0.4205709993839264 -0.024102000519633293
v -0.004000000189989805 -0.4106599986553192 -0.020010000094771385
v 0.004093999974429607 -0.4098210036754608 -0.04114000126719475
v -0.004000000189989805 -0.4109959900379181 -0.044039998203516006
v -0.010665000416338444 -0.41502898931503296 -0.03917500004172325
v -0.012217000126838684 -0.41905900835990906 -0.032669998705387115
v -0.012217000126838684 -0.41905900835990906 -0.027329999953508377
v -0.0002699999895412475 -0.39470601081848145 -0.03513399884104729
v 0.00012599999899975955 -0.38781899213790894 -0.024320999160408974
v 0.0021619999315589666 -0.3831160068511963 -0.027997000142931938
v 0.0021619999315589666 -0.3831160068511963 -0.03200199827551842
v -0.0005089999758638442 -0.3700149953365326 -0.03480499982833862
v -0.011220999993383884 -0.4115000069141388 -0.02006099931895733
v -0.004000000189989805 -0.392520010471344 -0.022439999505877495
v -0.004000000189989805 -0.39184999465942383 -0.034860000014305115
v -0.009712999686598778 -0.4020960032939911 -0.037863001227378845
v -0.017866000533103943 -0.412339985370636 -0.03450499847531319
v -0.017866000533103943 -0.412339985370636 -0.025495000183582306
v -0.004000000189989805 -0.3569149971008301 -0.03539999946951866
v -0.000826000003144145 -0.3654809892177582 -0.025630999356508255
v 0.0008789999992586672 -0.3485180139541626 -0.02841399982571602
v 0.0008789999992586672 -0.3485180139541626 -0.031585998833179474
v -0.0009850000496953726 -0.30199599266052246 -0.03415000066161156
v -0.004000000189989805 -0.25547099113464355 -0.03513000160455704
v -0.010745000094175339 -0.39873600006103516 -0.020716000348329544
v -0.004000000189989805 -0.38244399428367615 -0.024329999461770058
v -0.010110000148415565 -0.3809340000152588 -0.0384100005030632
v -0.018636999651789665 -0.40494999289512634 -0.034756001085042953
v -0.018636999651789665 -0.40494999289512634 -0.02524399943649769
v -0.00828499998897314 -0.32853201031684875 -0.03589800000190735
v 0.0008399999933317304 -0.3011550009250641 -0.023336999118328094
v 0.0031900000758469105 -0.27932101488113403 -0.027664000168442726
v 0.0031900000758469105 -0.27932101488113403 -0.032336000353097916
v -0.0009050000226125121 -0.2183540016412735 -0.03426000103354454
v -0.004000000189989805 -0.15738700330257416 -0.03297000005841255
v -0.006459999829530716 -0.26958000659942627 -0.033385999500751495
v -0.008442999795079231 -0.39201799035072327 -0.0238840002566576
v -0.004000000189989805 -0.32298898696899414 -0.021090000867843628
v -0.012986999936401844 -0.4015919864177704 -0.03292100131511688
v -0.012986999936401844 -0.4015919864177704 -0.02707899920642376
v -0.00913500040769577 -0.3817729949951172 -0.031668998301029205
v 0.001554999966174364 -0.22658400237560272 -0.022353999316692352
v 0.004474000073969364 -0.1976960003376007 -0.027247000485658646
v 0.004474000073969364 -0.1976960003376007 -0.03275299817323685
v 0.0003640000068116933 -0.1607459932565689 -0.036006998270750046
v -0.004000000189989805 -0.12379699945449829 -0.03593999892473221
v -0.006777000147849321 -0.21936200559139252 -0.03382200002670288
v -0.0073379999957978725 -0.31492799520492554 -0.031083999201655388
v -0.008205999620258808 -0.35238200426101685 -0.02421100065112114
v -0.004000000189989805 -0.25547099113464355 -0.020010000094771385
v -0.00913500040769577 -0.3817729949951172 -0.028331000357866287
v -0.0073379999957978725 -0.31492799520492554 -0.028915999457240105
v 0.0012369999894872308 -0.17636600136756897 -0.022792000323534012
v 0.0034469999372959137 -0.14731000363826752 -0.027580000460147858
v 0.0034469999372959137 -0.14731000363826752 -0.032419998198747635
v 0.001554999966174364 -0.12194900214672089 -0.03764500096440315
v -0.004000000189989805 -0.09658800065517426 -0.04106999933719635
v -0.008442999795079231 -0.15604299306869507 -0.03611600026488304
v -0.007852000184357166 -0.21549899876117706 -0.031252000480890274
v -0.007852000184357166 -0.21549899876117706 -0.028748000040650368
v -0.007966999895870686 -0.28519999980926514 -0.024538999423384666
v -0.004000000189989805 -0.20542100071907043 -0.020010000094771385
v -0.008125999942421913 -0.21046000719070435 -0.024320999160408974
v 0.00044299999717622995 -0.1259790062904358 -0.0238840002566576
v 0.002420000033453107 -0.09759499877691269 -0.027914000675082207
v 0.002420000033453107 -0.09759499877691269 -0.032085999846458435
v 0.0035379999317228794 -0.09171699732542038 -0.040376000106334686
v -0.004000000189989805 -0.08584000170230865 -0.048900000751018524
v -0.010745000094175339 -0.117078997194767 -0.03928399831056595
v -0.007852000184357166 -0.14831799268722534 -0.031252000480890274
v -0.007852000184357166 -0.14831799268722534 -0.028748000040650368
v -0.0076500000432133675 -0.15133999288082123 -0.02497600018978119
v -0.004000000189989805 -0.15436400473117828 -0.021630000323057175
v 0.00012599999899975955 -0.10145899653434753 -0.024320999160408974
v 0.00395999988541007 -0.08247999846935272 -0.02741299942135811
v 0.00395999988541007 -0.08247999846935272 -0.032586999237537384
v 0.0038560000248253345 -0.07777699828147888 -0.04081299901008606
v -0.004000000189989805 -0.07307499647140503 -0.04836000129580498
v -0.011220999993383884 -0.09440500289201736 -0.03993900120258331
v -0.009906000457704067 -0.11573400348424911 -0.031918998807668686
v -0.009906000457704067 -0.11573400348424911 -0.028080999851226807
v -0.00749099999666214 -0.11808600276708603 -0.02519500069320202
v -0.004000000189989805 -0.12043700367212296 -0.024329999461770058
v 0.0011579999700188637 -0.08130499720573425 -0.022901000455021858
v 0.009352000430226326 -0.07878600060939789 -0.02566099911928177
v 0.009352000430226326 -0.07878600060939789 -0.034338999539613724
v 0.003140999935567379 -0.07257100194692612 -0.03982999920845032
v -0.004000000189989805 -0.06635600328445435 -0.04025999829173088
v -0.01193500030785799 -0.06904300302267075 -0.040922001004219055
v -0.01992099918425083 -0.07173100113868713 -0.035172998905181885
v -0.01992099918425083 -0.07173100113868713 -0.024826999753713608
v -0.009952000342309475 -0.07777699828147888 -0.02180900052189827
v -0.004000000189989805 -0.08382300287485123 -0.026489999145269394
v -0.0004290000069886446 -0.06870800256729126 -0.025085000321269035
v 0.0037040000315755606 -0.0670280009508133 -0.027496999129652977
v 0.0037040000315755606 -0.0670280009508133 -0.032503001391887665
v -0.00019099999917671084 -0.0643410012125969 -0.035241998732089996
v -0.004000000189989805 -0.06165299937129021 -0.034860000014305115
v -0.007094999775290489 -0.05913500115275383 -0.03426000103354454
v -0.009393000043928623 -0.05661499872803688 -0.031752001494169235
v -0.009393000043928623 -0.05661499872803688 -0.028248000890016556
v -0.006856999825686216 -0.06350100040435791 -0.026068000122904778
v -0.004000000189989805 -0.07038699835538864 -0.025949999690055847
v -0.004000000189989805 -0.06568499654531479 -0.029999999329447746
vn 0.8746240139007568 -0.48380300402641296 -0.031094999983906746
vn 0.4629499912261963 -0.7264670133590698 0.507860004901886
vn 0.7390109896659851 -0.61142498254776 -0.2828820049762726
vn 0.8052110075950623 -0.5665069818496704 -0.17522799968719482
vn 0.38822799921035767 -0.07871299982070923 0.9181960225105286
vn 0.9622899889945984 -0.06411000341176987 0.26436200737953186
vn -0.34010401368141174 -0.8910049796104431 0.30073198676109314
vn -0.17315800487995148 -0.17411400377750397 0.9693819880485535
vn 0.8312129974365234 -0.5523849725723267 -0.06290200352668762
vn 0.762594997882843 -0.5125920176506042 -0.3945850133895874
vn 0.11683899909257889 -0.6696749925613403 -0.7334060072898865
vn -0.36540499329566956 -0.7530590295791626 -0.5471569895744324
vn -0.3490769863128662 -0.9151399731636047 -0.20165500044822693
vn -0.33379700779914856 -0.9396139979362488 0.07553700357675552
vn 0.9490090012550354 -0.09934999793767929 -0.29918500781059265
vn 0.6098660230636597 0.0324379988014698 0.7918400168418884
vn 0.9105910062789917 0.19411900639533997 0.364886999130249
vn 0.9077460169792175 0.2730239927768707 -0.31852099299430847
vn -0.4958609938621521 -0.4312390089035034 0.7537609934806824
vn 0.21671199798583984 -0.10792499780654907 0.9702519774436951
vn 0.6704580187797546 -0.0018019999843090773 -0.7419450283050537
vn -0.036090999841690063 0.04672500118613243 -0.9982560276985168
vn -0.6617580056190491 -0.2239370048046112 -0.715490996837616
vn -0.8058120012283325 -0.5699419975280762 -0.16072699427604675
vn -0.7532719969749451 -0.5748569965362549 0.31956300139427185
vn 0.4437769949436188 0.23736999928951263 -0.8641279935836792
vn 0.5629640221595764 0.09183800220489502 0.8213629722595215
vn 0.956803023815155 0.06973300129175186 0.28224998712539673
vn 0.9786109924316406 0.06174200028181076 -0.1962369978427887
vn 0.5501530170440674 0.02647400088608265 -0.8346440196037292
vn -0.2918429970741272 -0.22908200323581696 0.9286280274391174
vn 0.06984599679708481 0.12454400211572647 0.989753007888794
vn 0.19732099771499634 0.21618899703025818 -0.9562050104141235
vn -0.2856610119342804 0.10043700039386749 -0.9530529975891113
vn -0.8356159925460815 -0.2859230041503906 -0.46903499960899353
vn -0.8006690144538879 -0.38884401321411133 0.4557740092277527
vn 0.21430400013923645 0.004253000020980835 -0.9767580032348633
vn 0.5752580165863037 0.03711400181055069 0.8171300292015076
vn 0.9543430209159851 0.008070999756455421 0.29860401153564453
vn 0.9505710005760193 0.01130400039255619 -0.3103030025959015
vn 0.6261109709739685 0.015200000256299973 -0.7795860171318054
vn -0.01259899977594614 0.020243000239133835 -0.9997159838676453
vn -0.46126899123191833 0.21850000321865082 0.8599349856376648
vn 0.01396500039845705 0.13080400228500366 0.9913100004196167
vn -0.13116499781608582 0.09890499711036682 -0.9864140152931213
vn -0.8285419940948486 0.4844200015068054 -0.2808130085468292
vn -0.9254220128059387 0.3438839912414551 0.15918199717998505
vn -0.8170139789581299 0.06668499857187271 -0.5727480053901672
vn 0.7633829712867737 -0.029934000223875046 0.645251989364624
vn 0.9820899963378906 -0.025882000103592873 0.18662600219249725
vn 0.800154983997345 -0.03049200028181076 -0.5990179777145386
vn -0.10516399890184402 -0.022763000801205635 -0.994193971157074
vn -0.017777999863028526 -0.010254999622702599 -0.9997889995574951
vn -0.8264570236206055 0.02239600010216236 -0.5625540018081665
vn -0.723691999912262 0.3162679970264435 0.6133880019187927
vn 0.10530500113964081 -0.02524299919605255 0.9941200017929077
vn -0.9053559899330139 0.3323509991168976 0.2643350064754486
vn -0.8343409895896912 0.5397459864616394 -0.11201900243759155
vn -0.9814959764480591 0.06454399973154068 0.1802770048379898
vn 0.6741399765014648 -0.0008040000102482736 0.7386029958724976
vn 0.967818021774292 0.002486000070348382 0.2516379952430725
vn 0.9213089942932129 -0.009960000403225422 -0.38870298862457275
vn 0.02804500050842762 -0.05100199952721596 -0.9983050227165222
vn -0.001016999944113195 -0.08592499792575836 -0.996300995349884
vn -0.31166601181030273 -0.032839998602867126 -0.9496240019798279
vn -0.9911050200462341 0.00459699984639883 -0.1330060064792633
vn -0.8526189923286438 0.02556000091135502 0.5219069719314575
vn -0.16130800545215607 -0.0023560000117868185 0.9869009852409363
vn -0.987421989440918 0.09525399655103683 -0.1261879950761795
vn -0.9966830015182495 0.010879999957978725 -0.08065100014209747
vn 0.6517289876937866 0.016195999458432198 0.758279025554657
vn 0.961143970489502 0.019571000710129738 0.27535200119018555
vn 0.9881979823112488 -0.0015040000434964895 -0.15317699313163757
vn 0.45899999141693115 -0.12147500365972519 -0.880092978477478
vn 0.05938100069761276 -0.22989700734615326 -0.9714019894599915
vn -0.586247980594635 -0.09352699667215347 -0.8047149777412415
vn -0.9948310256004333 -0.008078999817371368 -0.10122600197792053
vn -0.999925971031189 -0.0013589999871328473 -0.012102000415325165
vn -0.9470019936561584 0.0051449998281896114 0.32118698954582214
vn -0.2218800038099289 0.015042000450193882 0.9749580025672913
vn -0.939857006072998 0.005890000145882368 0.34151700139045715
vn 0.6354609727859497 0.005886000115424395 0.7721099853515625
vn 0.9861369729042053 -0.04012500122189522 0.16100600361824036
vn 0.9990900158882141 -0.027276000007987022 0.0328029990196228
vn 0.8781269788742065 -0.04255300015211105 -0.4765309989452362
vn -0.04453999921679497 -0.1889680027961731 -0.9809730052947998
vn -0.857358992099762 -0.1634480059146881 -0.4880790114402771
vn -0.9966610074043274 -0.03820599988102913 0.07215899974107742
vn -0.9921069741249084 -0.020586999133229256 0.1236950010061264
vn -0.8748329877853394 0.018099000677466393 0.4840860068798065
vn -0.33148398995399475 0.041669998317956924 0.9425399899482727
vn 0.4221859872341156 -0.06871700286865234 0.9039009809494019
vn 0.8932650089263916 -0.44697999954223633 -0.047814998775720596
vn 0.9342859983444214 -0.3167620003223419 -0.1636189967393875
vn 0.9087870121002197 0.13755500316619873 -0.3939340114593506
vn 0.12020300328731537 0.31129300594329834 -0.9426810145378113
vn -0.8275700211524963 -0.06212000176310539 -0.5579149723052979
vn -0.9895110130310059 -0.1390639990568161 -0.03910600021481514
vn -0.9120360016822815 -0.12213499844074249 0.3915019929409027
vn -0.5182979702949524 -0.025838999077677727 0.8548099994659424
vn -0.2901900112628937 0.02908799983561039 0.9565269947052002
vn 0.04061700031161308 0.07743299752473831 0.9961699843406677
vn 0.958636999130249 -0.003748999908566475 0.28460800647735596
vn 0.8860740065574646 -0.20885899662971497 -0.41382500529289246
vn 0.643435001373291 0.3039590120315552 -0.7025660276412964
vn 0.3019700050354004 0.6224480271339417 -0.7220609784126282
vn -0.4357669949531555 0.4403960108757019 -0.784958004951477
vn -0.9025660157203674 0.23216600716114044 -0.36259400844573975
vn -0.7561929821968079 0.12602199614048004 0.6420990228652954
vn 0.06501799821853638 0.034749001264572144 0.9972789883613586
vn -0.07764600217342377 0.013155000284314156 0.9968940019607544
vn -0.19713500142097473 0.3859440088272095 0.9012129902839661
vn 0.4288319945335388 0.6837360262870789 0.5904300212860107
vn 0.6866130232810974 0.7262279987335205 -0.03398500010371208
vn 0.6475340127944946 0.7422040104866028 -0.17272399365901947
vn 0.602213978767395 0.7708830237388611 -0.20755000412464142
vn 0.41836199164390564 0.8218780159950256 -0.3866400122642517
vn 0.026117000728845596 0.9251360297203064 -0.3787359893321991
vn -0.012659999541938305 0.8707320094108582 0.49159500002861023
vn 0.4351060092449188 0.3547239899635315 0.8275589942932129
vn 0.2884350121021271 0.2572929859161377 0.9222829937934875
vn 0.5180559754371643 0.7391629815101624 0.43041500449180603
f 1//1 2//2 3//3
f 4//4 1//1 3//3
f 1//1 5//5 2//2
f 6//6 5//5 1//1
f 4//4 6//6 1//1
f 2//2 7//7 3//3
f 5//5 8//8 2//2
f 2//2 8//8 7//7
f 9//9 4//4 3//3
f 10//10 9//9 3//3
f 11//11 10//10 3//3
f 12//12 11//11 3//3
f 13//13 12//12 3//3
f 14//14 13//13 3//3
f 7//7 14//14 3//3
f 15//15 6//6 4//4
f 9//9 15//15 4//4
f 5//5 16//16 8//8
f 17//17 16//16 5//5
f 6//6 17//17 5//5
f 18//18 17//17 6//6
f 15//15 18//18 6//6
f 7//7 19//19 14//14
f 8//8 19//19 7//7
f 16//16 20//20 8//8
f 8//8 20//20 19//19
f 21//21 15//15 9//9
f 10//10 21//21 9//9
f 22//22 21//21 10//10
f 11//11 22//22 10//10
f 23//23 22//22 11//11
f 12//12 23//23 11//11
f 24//24 23//23 12//12
f 13//13 24//24 12//12
f 25//25 24//24 13//13
f 14//14 25//25 13//13
f 19//19 25//25 14//14
f 26//26 18//18 15//15
f 21//21 26//26 15//15
f 16//16 27//27 20//20
f 28//28 27//27 16//16
f 17//17 28//28 16//16
f 29//29 28//28 17//17
f 18//18 29//29 17//17
f 30//30 29//29 18//18
f 26//26 30//30 18//18
f 19//19 31//31 25//25
f 20//20 31//31 19//19
f 27//27 32//32 20//20
f 20//20 32//32 31//31
f 33//33 26//26 21//21
f 22//22 33//33 21//21
f 34//34 33//33 22//22
f 23//23 34//34 22//22
f 35//35 34//34 23//23
f 24//24 35//35 23//23
f 36//36 35//35 24//24
f 25//25 36//36 24//24
f 31//31 36//36 25//25
f 37//37 30//30 26//26
f 33//33 37//37 26//26
f 27//27 38//38 32//32
f 39//39 38//38 27//27
f 28//28 39//39 27//27
f 40//40 39//39 28//28
f 29//29 40//40 28//28
f 41//41 40//40 29//29
f 30//30 41//41 29//29
f 42//42 41//41 30//30
f 37//37 42//42 30//30
f 31//31 43//43 36//36
f 32//32 43//43 31//31
f 38//38 44//44 32//32
f 32//32 44//44 43//43
f 45//45 37//37 33//33
f 34//34 45//45 33//33
f 46//46 45//45 34//34
f 35//35 46//46 34//34
f 47//47 46//46 35//35
f 36//36 47//47 35//35
f 43//43 47//47 36//36
f 48//48 42//42 37//37
f 45//45 48//48 37//37
f 38//38 49//49 44//44
f 50//50 49//49 38//38
f 39//39 50//50 38//38
f 51//51 50//50 39//39
f 40//40 51//51 39//39
f 52//52 51//51 40//40
f 41//41 52//52 40//40
f 53//53 52//52 41//41
f 42//42 53//53 41//41
f 54//54 53//53 42//42
f 48//48 54//54 42//42
f 43//43 55//55 47//47
f 44//44 55//55 43//43
f 49//49 56//56 44//44
f 44//44 56//56 55//55
f 57//57 48//48 45//45
f 46//46 57//57 45//45
f 58//58 57//57 46//46
f 47//47 58//58 46//46
f 55//55 58//58 47//47
f 59//59 54//54 48//48
f 57//57 59//59 48//48
f 49//49 60//60 56//56
f 61//61 60//60 49//49
f 50//50 61//61 49//49
f 62//62 61//61 50//50
f 51//51 62//62 50//50
f 63//63 62//62 51//51
f 52//52 63//63 51//51
f 64//64 63//63 52//52
f 53//53 64//64 52//52
f 65//65 64//64 53//53
f 54//54 65//65 53//53
f 66//66 65//65 54//54
f 59//59 66//66 54//54
f 55//55 67//67 58//58
f 56//56 67//67 55//55
f 60//60 68//68 56//56
f 56//56 68//68 67//67
f 69//69 59//59 57//57
f 58//58 69//69 57//57
f 67//67 69//69 58//58
f 70//70 66//66 59//59
f 69//69 70//70 59//59
f 60//60 71//71 68//68
f 72//72 71//71 60//60
f 61//61 72//72 60//60
f 73//73 72//72 61//61
f 62//62 73//73 61//61
f 74//74 73//73 62//62
f 63//63 74//74 62//62
f 75//75 74//74 63//63
f 64//64 75//75 63//63
f 76//76 75//75 64//64
f 65//65 76//76 64//64
f 77//77 76//76 65//65
f 66//66 77//77 65//65
f 78//78 77//77 66//66
f 70//70 78//78 66//66
f 67//67 79//79 69//69
f 68//68 79//79 67//67
f 71//71 80//80 68//68
f 68//68 80//80 79//79
f 79//79 70//70 69//69
f 81//81 78//78 70//70
f 79//79 81//81 70//70
f 71//71 82//82 80//80
f 83//83 82//82 71//71
f 72//72 83//83 71//71
f 84//84 83//83 72//72
f 73//73 84//84 72//72
f 85//85 84//84 73//73
f 74//74 85//85 73//73
f 86//86 85//85 74//74
f 75//75 86//86 74//74
f 87//87 86//86 75//75
f 76//76 87//87 75//75
f 88//88 87//87 76//76
f 77//77 88//88 76//76
f 89//89 88//88 77//77
f 78//78 89//89 77//77
f 90//90 89//89 78//78
f 81//81 90//90 78//78
f 80//80 81//81 79//79
f 82//82 91//91 80//80
f 80//80 91//91 81//81
f 91//91 90//90 81//81
f 82//82 92//92 91//91
f 93//93 92//92 82//82
f 83//83 93//93 82//82
f 94//94 93//93 83//83
f 84//84 94//94 83//83
f 95//95 94//94 84//84
f 85//85 95//95 84//84
f 96//96 95//95 85//85
f 86//86 96//96 85//85
f 97//97 96//96 86//86
f 87//87 97//97 86//86
f 98//98 97//97 87//87
f 88//88 98//98 87//87
f 99//99 98//98 88//88
f 89//89 99//99 88//88
f 100//100 99//99 89//89
f 90//90 100//100 89//89
f 91//91 101//101 90//90
f 101//101 100//100 90//90
f 92//92 101//101 91//91
f 92//92 102//102 101//101
f 103//103 102//102 92//92
f 93//93 103//103 92//92
f 104//104 103//103 93//93
f 94//94 104//104 93//93
f 105//105 104//104 94//94
f 95//95 105//105 94//94
f 106//106 105//105 95//95
f 96//96 106//106 95//95
f 107//107 106//106 96//96
f 97//97 107//107 96//96
f 108//108 107//107 97//97
f 98//98 108//108 97//97
f 109//109 108//108 98//98
f 99//99 109//109 98//98
f 110//110 109//109 99//99
f 100//100 110//110 99//99
f 101//101 111//111 100//100
f 111//111 110//110 100//100
f 102//102 111//111 101//101
f 102//102 112//112 111//111
f 113//113 112//112 102//102
f 103//103 113//113 102//102
f 114//114 113//113 103//103
f 104//104 114//114 103//103
f 115//115 114//114 104//104
f 105//105 115//115 104//104
f 116//116 115//115 105//105
f 106//106 116//116 105//105
f 117//117 116//116 106//106
f 107//107 117//117 106//106
f 118//118 117//117 107//107
f 108//108 118//118 107//107
f 119//119 118//118 108//108
f 109//109 119//119 108//108
f 120//120 119//119 109//109
f 110//110 120//120 109//109
f 111//111 121//121 110//110
f 121//121 120//120 110//110
f 112//112 121//121 111//111
f 112//112 122//122 121//121
f 113//113 122//122 112//112
f 114//114 122//122 113//113
f 115//115 122//122 114//114
f 116//116 122//122 115//115
f 117//117 122//122 116//116
f 118//118 122//122 117//117
f 119//119 122//122 118//118
f 120//120 122//122 119//119
f 121//121 122//122 120//120
