# Generated by Visualization Toolkit
v 0.005344000179320574 -0.007385000120848417 0.004459000192582607
v 0.00443999981507659 -0.007579000201076269 -0.001841000048443675
v -0.000830999983008951 -0.007602000143378973 -0.006399999838322401
v -0.005535999778658152 -0.007129000034183264 -0.001538999960757792
v -0.005109999794512987 -0.007017000112682581 0.0035800000187009573
v 0.0006569999968633056 -0.006819999776780605 0.0070050000213086605
v 0.00291600008495152 -0.012147000059485435 0.004695000126957893
v 0.0028890001121908426 -0.0122079998254776 -0.000645000021904707
v 0.0002589999930933118 -0.011311000213027 0.006568999961018562
v -0.00018899999849963933 -0.012620000168681145 -0.005266000051051378
v -0.0049680001102387905 -0.012005999684333801 -0.0010089999996125698
v -0.00456500006839633 -0.011726999655365944 0.00330700003542006
v 0.002050000010058284 -0.01724799908697605 0.004999000113457441
v 0.0014600000577047467 -0.016860000789165497 0.0007409999961964786
v 0.000007000000096013537 -0.016025999560952187 0.006285000126808882
v -0.0005939999828115106 -0.017620999366044998 -0.0032220000866800547
v -0.003642000025138259 -0.016277000308036804 0.004544000141322613
v -0.004348000045865774 -0.01688000001013279 -0.0006070000235922635
v 0.0020779999904334545 -0.022817999124526978 0.006140999961644411
v 0.0012179999612271786 -0.021817000582814217 0.0015269999857991934
v -0.00046400001156143844 -0.02065500058233738 0.006465999875217676
v -0.000770999991800636 -0.022921999916434288 -0.0020210000220686197
v -0.0031330001074820757 -0.020956000313162804 0.005394999869167805
v -0.0042039998807013035 -0.021726999431848526 0.0005119999987073243
v 0.003360999980941415 -0.02779100090265274 0.00699200015515089
v 0.002022000029683113 -0.026706000789999962 0.0024079999420791864
v 0.00010299999848939478 -0.025304999202489853 0.007098999805748463
v -0.00003199999991920777 -0.028132999315857887 -0.0004659999976865947
v -0.0028959999326616526 -0.025761999189853668 0.005404999945312738
v -0.004207999911159277 -0.026607999578118324 0.0013439999893307686
v 0.006056000012904406 -0.03213300183415413 0.007209000177681446
v 0.0032599999103695154 -0.031665999442338943 0.003287999890744686
v 0.0005629999795928597 -0.029976999387145042 0.007660000119358301
v 0.0007099999929778278 -0.033424001187086105 -0.0013439999893307686
v -0.002148000057786703 -0.030469000339508057 0.00521400012075901
v -0.003737000050023198 -0.03154100105166435 0.002116000046953559
v 0.002096999902278185 -0.034752000123262405 0.008320000022649765
v 0.0021180000621825457 -0.035645999014377594 0.005135000217705965
v 0.0005920000257901847 -0.03467100113630295 0.008005999960005283
v -0.001218999968841672 -0.03627999871969223 0.002136999974027276
v -0.00020500000391621143 -0.03478899970650673 0.006029999814927578
v -0.0015899999998509884 -0.035930000245571136 0.00227600010111928
vn 0.8520810008049011 0.25944098830223083 0.454585999250412
vn 0.8694660067558289 0.09204500168561935 -0.48534199595451355
vn -0.05419300124049187 0.2595129907131195 -0.964218020439148
vn -0.881941020488739 0.34363698959350586 -0.3226349949836731
vn -0.7749080061912537 0.4136660099029541 0.47791001200675964
vn -0.009537000209093094 0.41029098629951477 0.9119049906730652
vn 0.8497549891471863 -0.24391800165176392 0.46735501289367676
vn 0.863165020942688 -0.368927001953125 -0.3447290062904358
vn -0.014391999691724777 -0.06064299866557121 0.9980559945106506
vn 0.005791000090539455 -0.43786799907684326 -0.8990210294723511
vn -0.9246870279312134 -0.19336800277233124 -0.3279680013656616
vn -0.8518519997596741 -0.06241400167346001 0.5200510025024414
vn 0.8904520273208618 -0.0846719965338707 0.4471319913864136
vn 0.9442139863967896 -0.1785530000925064 -0.2767280042171478
vn 0.024827999994158745 0.03656899929046631 0.9990230202674866
vn 0.16210199892520905 -0.341156005859375 -0.9259240031242371
vn -0.836329996585846 0.030378999188542366 0.5473840236663818
vn -0.9205750226974487 -0.146247997879982 -0.36215099692344666
vn 0.8672429919242859 0.10903300344944 0.48579999804496765
vn 0.9500439763069153 0.03628300130367279 -0.3100009858608246
vn -0.006060000043362379 0.06607300043106079 0.9977959990501404
vn 0.2099580019712448 -0.20472900569438934 -0.9560350179672241
vn -0.7874619960784912 0.038940999656915665 0.6151319742202759
vn -0.9319480061531067 -0.12430199980735779 -0.3406189978122711
vn 0.7445449829101562 0.35082000494003296 0.5679590106010437
vn 0.905197024345398 0.23161399364471436 -0.3563329875469208
vn -0.12091399729251862 0.043754998594522476 0.9916980266571045
vn 0.23260700702667236 -0.020878000184893608 -0.9723470211029053
vn -0.7657449841499329 -0.03653499856591225 0.6421059966087341
vn -0.9321669936180115 -0.06536100059747696 -0.35607901215553284
vn 0.7215219736099243 -0.0422310009598732 0.6911020278930664
vn 0.8802130222320557 -0.18111400306224823 -0.43866100907325745
vn -0.23796099424362183 -0.015185000374913216 0.9711560010910034
vn 0.23445799946784973 -0.21123799681663513 -0.94889897108078
vn -0.7454890012741089 -0.17338700592517853 0.6435700058937073
vn -0.9404619932174683 -0.22354799509048462 -0.2560420036315918
vn 0.21959100663661957 -0.8702229857444763 0.4410119950771332
vn 0.30867499113082886 -0.9509739875793457 -0.019199000671505928
vn -0.2744869887828827 -0.440311998128891 0.8548579812049866
vn 0.008565000258386135 -0.9419620037078857 -0.3356109857559204
vn -0.4884200096130371 -0.6765459775924683 0.551118016242981
vn -0.7031639814376831 -0.7023400068283081 0.1108120009303093
f 1//1 2//2 3//3 4//4 5//5 6//6
f 2//2 1//1 7//7 8//8
f 1//1 6//6 9//9 7//7
f 3//3 2//2 8//8 10//10
f 4//4 3//3 10//10 11//11
f 5//5 4//4 11//11 12//12
f 6//6 5//5 12//12 9//9
f 8//8 7//7 13//13 14//14
f 7//7 9//9 15//15 13//13
f 10//10 8//8 14//14 16//16
f 9//9 12//12 17//17 15//15
f 11//11 10//10 16//16 18//18
f 12//12 11//11 18//18 17//17
f 14//14 13//13 19//19 20//20
f 13//13 15//15 21//21 19//19
f 16//16 14//14 20//20 22//22
f 15//15 17//17 23//23 21//21
f 18//18 16//16 22//22 24//24
f 17//17 18//18 24//24 23//23
f 20//20 19//19 25//25 26//26
f 19//19 21//21 27//27 25//25
f 22//22 20//20 26//26 28//28
f 21//21 23//23 29//29 27//27
f 24//24 22//22 28//28 30//30
f 23//23 24//24 30//30 29//29
f 26//26 25//25 31//31 32//32
f 25//25 27//27 33//33 31//31
f 28//28 26//26 32//32 34//34
f 27//27 29//29 35//35 33//33
f 30//30 28//28 34//34 36//36
f 29//29 30//30 36//36 35//35
f 32//32 31//31 37//37 38//38
f 31//31 33//33 39//39 37//37
f 34//34 32//32 38//38 40//40
f 33//33 35//35 41//41 39//39
f 36//36 34//34 40//40 42//42
f 35//35 36//36 42//42 41//41
f 38//38 37//37 39//39 41//41
f 40//40 38//38 41//41 42//42
