# Generated by Visualization Toolkit
v 0.00443200021982193 -0.13297200202941895 -0.001142999972216785
v 0.003539999946951866 -0.13329699635505676 -0.007439999841153622
v -0.0017269999952986836 -0.13389000296592712 -0.011988000012934208
v -0.006459999829530716 -0.13385699689388275 -0.007120999973267317
v -0.006039999891072512 -0.13367600739002228 -0.0020039998926222324
v -0.00005900000178371556 -0.16539700329303741 -0.003169999923557043
v 0.002346999943256378 -0.13845700025558472 -0.0008559999987483025
v 0.0023219999857246876 -0.13853999972343445 -0.006196000147610903
v -0.00029200001154094934 -0.13284100592136383 0.0014059999957680702
v -0.00036800000816583633 -0.13781499862670898 0.00101500004529953
v -0.0007259999983943999 -0.13932999968528748 -0.010804999619722366
v -0.005543000064790249 -0.1391499936580658 -0.0065460000187158585
v -0.005158999934792519 -0.13879099488258362 -0.0022330000065267086
v 0.0032309999223798513 -0.164341002702713 -0.0001849999971454963
v 0.0008490000036545098 -0.1636430025100708 0.0007060000207275152
v -0.000455000001238659 -0.16505199670791626 -0.0030350000597536564
v -0.0029140000697225332 -0.1604599952697754 -0.003232999937608838
v 0.0016629999736323953 -0.1620669960975647 -0.006682000122964382
v 0.00408599991351366 -0.15985499322414398 -0.002073999959975481
v 0.00184599997010082 -0.14414800703525543 -0.0005009999731555581
v 0.0012280000373721123 -0.14379599690437317 -0.0047610001638531685
v -0.00028199999360367656 -0.14301900565624237 0.0007769999792799354
v -0.0007719999994151294 -0.1448580026626587 -0.00871300045400858
v -0.003911000210791826 -0.14368599653244019 -0.0009529999806545675
v -0.004575000144541264 -0.14443500339984894 -0.00609700009226799
v 0.006914000026881695 -0.1600620001554489 0.0018469999777153134
v 0.0031469999812543392 -0.16335399448871613 0.0029909999575465918
v 0.0016370000084862113 -0.1634249985218048 0.00267999991774559
v 0.001272000023163855 -0.15827499330043793 0.0022869999520480633
v -0.0014019999653100967 -0.1591069996356964 -0.00014800000644754618
v -0.0024870000779628754 -0.15401899814605713 -9.999999974752427e-7
v -0.0037380000576376915 -0.15509699285030365 -0.004052000120282173
v 0.0005430000019259751 -0.15633299946784973 -0.0058559998869895935
v 0.0024939998984336853 -0.1545419991016388 -0.0029990000184625387
v 0.003911000210791826 -0.15558099746704102 0.0015920000150799751
v 0.0022730000782757998 -0.15025800466537476 0.0006960000027902424
v 0.0013409999664872885 -0.1492609977722168 -0.003926000092178583
v -0.00042100000428035855 -0.1481509953737259 0.0010049999691545963
v -0.0005680000176653266 -0.15069399774074554 -0.007459999993443489
v -0.0030670000705868006 -0.14876699447631836 -0.000058000001445179805
v -0.004083000123500824 -0.14973899722099304 -0.0049310000613331795
v 0.0004780000017490238 -0.15319499373435974 0.0016820000018924475
vn 0.8214979767799377 0.3492090106010437 0.4507710039615631
vn 0.8526870012283325 0.18485799431800842 -0.4886229932308197
vn -0.08648400008678436 0.27707499265670776 -0.9569479823112488
vn -0.901619017124176 0.2896389961242676 -0.3212369978427887
vn -0.802960991859436 0.36792799830436707 0.46891599893569946
vn 0.09190499782562256 -0.6923930048942566 -0.7156440019607544
vn 0.8693370223045349 -0.16192400455474854 0.4669420123100281
vn 0.8950589895248413 -0.2818650007247925 -0.3455730080604553
vn -0.01207400020211935 -0.11405400186777115 0.9934009909629822
vn -0.00823500007390976 -0.04697300121188164 0.9988620281219482
vn 0.04367600008845329 -0.4094170033931732 -0.9113019704818726
vn -0.9121509790420532 -0.24079999327659607 -0.33165499567985535
vn -0.8458849787712097 -0.10799100250005722 0.5223180055618286
vn 0.408814013004303 -0.9126070141792297 -0.0043379999697208405
vn -0.4324190020561218 -0.6908649802207947 0.5794129967689514
vn -0.6642109751701355 -0.7359390258789062 0.1312129944562912
vn -0.9279189705848694 -0.27206799387931824 -0.25484499335289
vn 0.24931000173091888 -0.18635199964046478 -0.9503250122070312
vn 0.8922619819641113 -0.11100800335407257 -0.43765899538993835
vn 0.8945209980010986 -0.014866000041365623 0.4467790126800537
vn 0.9553400278091431 -0.10294400155544281 -0.27699899673461914
vn 0.022328000515699387 0.04367300122976303 0.9987959861755371
vn 0.19039300084114075 -0.30868399143218994 -0.9319139719009399
vn -0.8364390134811401 -0.022312000393867493 0.5476049780845642
vn -0.9098150134086609 -0.1972080022096634 -0.36516499519348145
vn 0.7409330010414124 0.010420000180602074 0.6714980006217957
vn 0.31571298837661743 -0.8352109789848328 0.4502750039100647
vn -0.23157300055027008 -0.4429450035095215 0.8661260008811951
vn -0.23524199426174164 -0.020904000848531723 0.9717119932174683
vn -0.731719970703125 -0.20255599915981293 0.6508129835128784
vn -0.7602660059928894 -0.07729600369930267 0.6449970006942749
vn -0.9254080057144165 -0.1244179978966713 -0.35796600580215454
vn 0.23104499280452728 -0.01372699998319149 -0.9728459715843201
vn 0.8921110033988953 0.27233999967575073 -0.36051300168037415
vn 0.7285770177841187 0.3822709918022156 0.5683709979057312
vn 0.8591639995574951 0.16095399856567383 0.4857270121574402
vn 0.9456809759140015 0.0927719995379448 -0.31157800555229187
vn -0.01107800006866455 0.06840399652719498 0.997596025466919
vn 0.2233320027589798 -0.18133500218391418 -0.9577270150184631
vn -0.7876719832420349 -0.010386000387370586 0.6160069704055786
vn -0.9217470288276672 -0.1779720038175583 -0.3445410132408142
vn -0.12339899688959122 0.040477000176906586 0.9915310144424438
f 1//1 2//2 3//3 4//4 5//5 6//6
f 2//2 1//1 7//7 8//8
f 1//1 9//9 10//10 7//7
f 3//3 2//2 8//8 11//11
f 4//4 3//3 11//11 12//12
f 5//5 4//4 12//12 13//13
f 9//9 5//5 13//13 10//10
f 6//6 14//14 15//15 16//16
f 17//17 18//18 6//6 16//16
f 18//18 19//19 14//14 6//6
f 8//8 7//7 20//20 21//21
f 7//7 10//10 22//22 20//20
f 11//11 8//8 21//21 23//23
f 10//10 13//13 24//24 22//22
f 12//12 11//11 23//23 25//25
f 13//13 12//12 25//25 24//24
f 19//19 26//26 27//27 14//14
f 14//14 27//27 28//28 15//15
f 29//29 30//30 15//15 28//28
f 30//30 17//17 16//16 15//15
f 31//31 32//32 17//17 30//30
f 32//32 33//33 18//18 17//17
f 33//33 34//34 19//19 18//18
f 34//34 35//35 26//26 19//19
f 21//21 20//20 36//36 37//37
f 20//20 22//22 38//38 36//36
f 23//23 21//21 37//37 39//39
f 22//22 24//24 40//40 38//38
f 25//25 23//23 39//39 41//41
f 24//24 25//25 41//41 40//40
f 26//26 29//29 28//28 27//27
f 35//35 42//42 29//29 26//26
f 42//42 31//31 30//30 29//29
f 38//38 40//40 31//31 42//42
f 40//40 41//41 32//32 31//31
f 41//41 39//39 33//33 32//32
f 39//39 37//37 34//34 33//33
f 37//37 36//36 35//35 34//34
f 36//36 38//38 42//42 35//35
