# Generated by Visualization Toolkit
v -0.013275000266730785 -0.0036959999706596136 0.007151999976485968
v -0.011963999830186367 0.0013790000230073929 0.007464999798685312
v -0.009459000080823898 -0.0012440000427886844 0.003720999928191304
v -0.010897999629378319 -0.005588999949395657 0.0024029999040067196
v -0.013024000450968742 -0.006364000029861927 0.010091000236570835
v -0.01217699982225895 -0.0025530001148581505 0.012365000322461128
v -0.010014999657869339 -0.007600999902933836 0.005919000133872032
v -0.0055240001529455185 0.004935000091791153 0.005516999866813421
v -0.005111999809741974 -0.00042699999175965786 0.002957999939098954
v -0.007466999813914299 0.003745000110939145 0.010792000219225883
v -0.0068339998833835125 -0.005565000232309103 -0.0010779999429360032
v -0.006111999973654747 -0.008138000033795834 0.002778999973088503
v -0.009080000221729279 -0.00894199963659048 0.009734000079333782
v -0.011881999671459198 -0.007716999854892492 0.012412000447511673
v -0.01091499999165535 -0.005934999790042639 0.014671999961137772
v -0.007178000174462795 -0.0015999999595806003 0.015782000496983528
v -0.005123000126332045 -0.010576000437140465 0.009058999828994274
v 0.00020599999697878957 0.0028810000512748957 0.00711800018325448
v -0.0014860000228509307 -0.000012000000424450263 0.0038010000716894865
v -0.0009120000177063048 0.00227600010111928 0.011908000335097313
v -0.002061000093817711 -0.004757999908179045 -0.002455000067129731
v 0.0019030000548809767 -0.003771000076085329 0.001297999988310039
v -0.001576000009663403 -0.002655999967828393 0.015783000737428665
v -0.0019990000873804092 -0.008586999960243702 0.0024850000627338886
v -0.0005549999768845737 -0.010649999603629112 0.009069000370800495
v -0.007555000018328428 -0.014317000284790993 0.015275999903678894
v -0.010259999893605709 -0.012993000447750092 0.017116999253630638
v -0.00430600019171834 -0.014534999616444111 0.0136329997330904
v -0.009828000329434872 -0.011366000398993492 0.018871000036597252
v -0.0056859999895095825 -0.008604999631643295 0.021335000172257423
v -0.0013279999839141965 -0.007782999891787767 0.020573999732732773
v -0.0007559999939985573 -0.01485500019043684 0.01459100004285574
v 0.002394000068306923 -0.0010489999549463391 0.006643999833613634
v 0.0026710000820457935 -0.0027069998905062675 0.011222000233829021
v 0.0020840000361204147 -0.005688000004738569 0.014041000045835972
v 0.00029399999766610563 -0.008849999867379665 0.005272999871522188
v 0.002749999985098839 -0.009255999699234962 0.018647000193595886
v -0.005987999960780144 -0.024546999484300613 0.024118000641465187
v -0.008333999663591385 -0.023888999596238136 0.02510800026357174
v -0.0028329999186098576 -0.024872999638319016 0.023319000378251076
v -0.008983000181615353 -0.021782999858260155 0.02680099941790104
v 0.0011249999515712261 -0.024306999519467354 0.023778999224305153
v -0.003593999892473221 -0.019301999360322952 0.02996799908578396
v 0.0005029999883845448 -0.01913199946284294 0.030393999069929123
v 0.00443200021982193 -0.020212000235915184 0.02848299965262413
v -0.0031969998963177204 -0.03242500126361847 0.0296580009162426
v -0.005683000199496746 -0.03301199898123741 0.03119100071489811
v -0.007664999924600124 -0.03266200050711632 0.033854998648166656
v -0.0067369998432695866 -0.03030500002205372 0.036531999707221985
v 0.002529999939724803 -0.030771000310778618 0.029659999534487724
v -0.0017810000572353601 -0.026845000684261322 0.03824400156736374
v 0.005450000055134296 -0.02594500035047531 0.035319000482559204
v 0.002400999888777733 -0.02571599930524826 0.03767099976539612
v -0.003155000042170286 -0.040189001709222794 0.031785998493433
v -0.005140999797731638 -0.039847999811172485 0.0344420000910759
v 0.00046800001291558146 -0.03761700168251991 0.033775001764297485
v 0.004654000047594309 -0.0358630008995533 0.03293199837207794
v -0.00737100001424551 -0.03678400069475174 0.03789300099015236
v -0.006773999892175198 -0.03213600069284439 0.03937600180506706
v -0.0011790000135079026 -0.02977599948644638 0.0416410006582737
v 0.007029000204056501 -0.034685999155044556 0.030709000304341316
v 0.0068430001847445965 -0.032235998660326004 0.034866999834775925
v 0.007234000135213137 -0.028543999418616295 0.03920299932360649
v 0.0030950000509619713 -0.028426000848412514 0.041241999715566635
v 0.0021039999555796385 -0.040247999131679535 0.03523600101470947
v -0.0017219999572262168 -0.043175000697374344 0.03378299996256828
v -0.0037400000728666782 -0.04262100160121918 0.03824499994516373
v -0.005022999830543995 -0.038123998790979385 0.04194200038909912
v 0.00646300008520484 -0.03866500034928322 0.03502200171351433
v 0.00891599990427494 -0.03717000037431717 0.03386799991130829
v -0.006486999802291393 -0.03420399874448776 0.04236900061368942
v -0.0015490000369027257 -0.031975001096725464 0.04462200030684471
v 0.0037239999510347843 -0.03012000024318695 0.044084999710321426
v 0.00866399984806776 -0.03646700084209442 0.03773299977183342
v 0.00800899975001812 -0.03234900161623955 0.04260599985718727
v 0.005518999882042408 -0.030169999226927757 0.043724000453948975
v 0.0013150000013411045 -0.04098900035023689 0.03915400058031082
v 0.005917000118643045 -0.0378200002014637 0.0398700013756752
v -0.001323999953456223 -0.037271998822689056 0.04403200000524521
v 0.004714000038802624 -0.03371499851346016 0.04402200132608414
vn -0.9472000002861023 0.07542300224304199 -0.31164801120758057
vn -0.774058997631073 0.5878069996833801 -0.23519399762153625
vn -0.5060219764709473 0.36524099111557007 -0.781370997428894
vn -0.7209290266036987 -0.22631700336933136 -0.6550130248069763
vn -0.9244930148124695 -0.3629179894924164 0.11663799732923508
vn -0.729731023311615 0.4193660020828247 0.5400230288505554
vn -0.5492830276489258 -0.8041499853134155 -0.22722400724887848
vn -0.05170999839901924 0.9723290205001831 -0.2278210073709488
vn -0.13347500562667847 0.608089029788971 -0.7825679779052734
vn -0.1342640072107315 0.7842289805412292 0.6057699918746948
vn -0.3493439853191376 -0.21880899369716644 -0.9110879898071289
vn -0.25290200114250183 -0.890733003616333 -0.3776719868183136
vn -0.5050119757652283 -0.7888579964637756 -0.35023799538612366
vn -0.9073470234870911 -0.41648000478744507 0.05715100094676018
vn -0.798882007598877 0.25827398896217346 0.5432149767875671
vn -0.27643200755119324 0.6048489809036255 0.7468219995498657
vn -0.2276969999074936 -0.8728520274162292 -0.4316059947013855
vn 0.5595660209655762 0.7902659773826599 -0.24973000586032867
vn 0.3265570104122162 0.7073609828948975 -0.6268979907035828
vn 0.49476298689842224 0.685122013092041 0.5346180200576782
vn 0.13252000510692596 0.02422799915075302 -0.990884006023407
vn 0.783195972442627 0.22654500603675842 -0.5790349841117859
vn 0.3899349868297577 0.5952309966087341 0.7026029825210571
vn 0.208515003323555 -0.8609330058097839 -0.4640209972858429
vn 0.47695401310920715 -0.8078669905662537 -0.34621700644493103
vn -0.48552799224853516 -0.6589189767837524 -0.5745329856872559
vn -0.9443920254707336 -0.3045560121536255 -0.1239750012755394
vn -0.11962500214576721 -0.7325320243835449 -0.6701390147209167
vn -0.8436400294303894 0.24791300296783447 0.4762459993362427
vn -0.31437399983406067 0.5602399706840515 0.7663549780845642
vn 0.34587499499320984 0.6256269812583923 0.699258029460907
vn 0.5488330125808716 -0.6022379994392395 -0.5797340273857117
vn 0.8823320269584656 0.3876250088214874 -0.26690301299095154
vn 0.9664859771728516 0.04314500093460083 0.2530660033226013
vn 0.9573140144348145 0.05391399934887886 0.2839779853820801
vn 0.7674360275268555 -0.5962389707565308 -0.2356719970703125
vn 0.9734079837799072 0.17205500602722168 0.1512400060892105
vn -0.4900360107421875 -0.6048349738121033 -0.6277260184288025
vn -0.9069910049438477 -0.33322298526763916 -0.25754401087760925
vn -0.059411000460386276 -0.6628999710083008 -0.7463470101356506
vn -0.9011499881744385 0.23105399310588837 0.366800993680954
vn 0.6024680137634277 -0.47620201110839844 -0.6405190229415894
vn -0.3489440083503723 0.6095240116119385 0.7118409872055054
vn 0.23095999658107758 0.6982190012931824 0.6776040196418762
vn 0.9379739761352539 0.3250100016593933 0.12072400003671646
vn -0.12594999372959137 -0.5041940212249756 -0.8543570041656494
vn -0.6159070134162903 -0.5026599764823914 -0.6066229939460754
vn -0.953125 -0.24581100046634674 -0.1764339953660965
vn -0.8717820048332214 0.31109800934791565 0.37843599915504456
vn 0.5185930132865906 -0.2476000040769577 -0.8183860182762146
vn -0.3344990015029907 0.6712039709091187 0.6615110039710999
vn 0.8254259824752808 0.5643829703330994 0.011983999982476234
vn 0.12959499657154083 0.7865830063819885 0.6037319898605347
vn -0.18799899518489838 -0.4014970064163208 -0.896356999874115
vn -0.8294000029563904 -0.46438300609588623 -0.31055301427841187
vn 0.3238910138607025 -0.36685800552368164 -0.8720719814300537
vn -0.07642800360918045 -0.630728006362915 -0.7722309827804565
vn -0.9568489789962769 -0.2563380002975464 0.13685999810695648
vn -0.8177880048751831 0.42082899808883667 0.3925879895687103
vn -0.3441379964351654 0.7320780158042908 0.5879039764404297
vn 0.5065249800682068 -0.09993699938058853 -0.8564140200614929
vn 0.8381050229072571 0.45813998579978943 -0.2961220145225525
vn 0.6950010061264038 0.6984999775886536 0.1704999953508377
vn 0.015721000730991364 0.8323559761047363 0.5540189743041992
vn 0.44751599431037903 -0.7479760050773621 -0.49016401171684265
vn 0.10566099733114243 -0.8794199824333191 -0.46417200565338135
vn -0.4555310010910034 -0.8586859703063965 0.23483799397945404
vn -0.6857089996337891 -0.5394260287284851 0.4886949956417084
vn 0.2647320032119751 -0.8757609724998474 -0.40368199348449707
vn 0.7515249848365784 -0.6135240197181702 -0.24248400330543518
vn -0.8169950246810913 0.09335699677467346 0.5690370202064514
vn -0.2874760031700134 0.3856639862060547 0.8767099976539612
vn 0.13623900711536407 0.45943400263786316 0.8777009844779968
vn 0.9618250131607056 -0.18052999675273895 0.20567399263381958
vn 0.8089060187339783 0.07361400127410889 0.5833119750022888
vn 0.4611789882183075 0.5335760116577148 0.7089499831199646
vn 0.29060399532318115 -0.8673499822616577 0.40404701232910156
vn 0.4791629910469055 -0.7939919829368591 0.3741390109062195
vn 0.0010100000072270632 -0.462009996175766 0.8868740200996399
vn 0.37583601474761963 -0.35947299003601074 0.8541229963302612
f 1//1 2//2 3//3
f 3//3 4//4 1//1
f 2//2 1//1 5//5 6//6
f 1//1 4//4 7//7 5//5
f 8//8 9//9 3//3 2//2
f 8//8 2//2 6//6 10//10
f 4//4 3//3 9//9 11//11
f 12//12 7//7 4//4 11//11
f 5//5 7//7 13//13 14//14
f 5//5 14//14 15//15 6//6
f 16//16 10//10 6//6 15//15
f 17//17 13//13 7//7 12//12
f 18//18 19//19 9//9 8//8
f 18//18 8//8 10//10 20//20
f 11//11 9//9 21//21
f 21//21 9//9 19//19 22//22
f 20//20 10//10 16//16 23//23
f 11//11 21//21 24//24 12//12
f 12//12 24//24 25//25 17//17
f 14//14 13//13 26//26 27//27
f 17//17 28//28 26//26 13//13
f 29//29 15//15 14//14 27//27
f 16//16 15//15 29//29 30//30
f 23//23 16//16 30//30 31//31
f 17//17 25//25 32//32 28//28
f 33//33 19//19 18//18
f 33//33 18//18 20//20 34//34
f 22//22 19//19 33//33
f 20//20 23//23 35//35 34//34
f 21//21 22//22 36//36 24//24
f 34//34 36//36 22//22 33//33
f 35//35 23//23 31//31 37//37
f 36//36 25//25 24//24
f 37//37 32//32 25//25 35//35
f 25//25 36//36 34//34 35//35
f 27//27 26//26 38//38 39//39
f 40//40 38//38 26//26 28//28
f 41//41 29//29 27//27 39//39
f 28//28 32//32 42//42 40//40
f 30//30 29//29 41//41 43//43
f 31//31 30//30 43//43 44//44
f 37//37 31//31 44//44 45//45
f 45//45 42//42 32//32 37//37
f 46//46 47//47 38//38 40//40
f 47//47 48//48 39//39 38//38
f 41//41 39//39 48//48 49//49
f 50//50 46//46 40//40 42//42
f 49//49 51//51 43//43 41//41
f 52//52 50//50 42//42 45//45
f 44//44 43//43 51//51 53//53
f 53//53 52//52 45//45 44//44
f 54//54 55//55 46//46
f 46//46 56//56 54//54
f 57//57 56//56 46//46 50//50
f 46//46 55//55 47//47
f 55//55 58//58 48//48 47//47
f 49//49 48//48 58//58 59//59
f 59//59 60//60 51//51 49//49
f 50//50 61//61 57//57
f 61//61 50//50 62//62
f 62//62 50//50 52//52 63//63
f 53//53 51//51 60//60 64//64
f 64//64 63//63 52//52 53//53
f 56//56 65//65 66//66 54//54
f 54//54 66//66 67//67 55//55
f 55//55 68//68 58//58
f 67//67 68//68 55//55
f 69//69 65//65 56//56 57//57
f 57//57 61//61 70//70 69//69
f 58//58 71//71 59//59
f 58//58 68//68 71//71
f 71//71 72//72 60//60 59//59
f 64//64 60//60 72//72 73//73
f 74//74 70//70 61//61 62//62
f 75//75 74//74 62//62 63//63
f 76//76 75//75 63//63
f 64//64 73//73 76//76 63//63
f 67//67 66//66 65//65 77//77
f 77//77 65//65 69//69 78//78
f 77//77 79//79 68//68 67//67
f 79//79 72//72 71//71 68//68
f 78//78 69//69 70//70 74//74
f 73//73 72//72 79//79 80//80
f 80//80 75//75 76//76 73//73
f 74//74 75//75 80//80 78//78
f 78//78 80//80 79//79 77//77
