# Generated by Visualization Toolkit
v -0.002517000073567033 -0.17003700137138367 0.03150700032711029
v 0.0007639999967068434 -0.166935995221138 0.02638399973511696
v -0.0012400000123307109 -0.1667180061340332 0.021362999454140663
v -0.006424000021070242 -0.16783800721168518 0.026043999940156937
v -0.002612000098451972 -0.17299899458885193 0.030220000073313713
v 0.0006939999875612557 -0.1708039939403534 0.025682000443339348
v -0.0061980001628398895 -0.17186300456523895 0.024911999702453613
v -0.0013139999937266111 -0.17112599313259125 0.02111399918794632
v -0.003043999895453453 -0.17616499960422516 0.02944199927151203
v -0.00037799999699927866 -0.17455600202083588 0.02584500052034855
v -0.005200999788939953 -0.17576399445533752 0.02507000043988228
v -0.002397000091150403 -0.17507199943065643 0.02274399995803833
v -0.0030269999988377094 -0.17903099954128265 0.02850000001490116
v -0.0005460000247694552 -0.17849600315093994 0.02572299912571907
v -0.0050570000894367695 -0.17988799512386322 0.025270000100135803
v -0.002669000066816807 -0.17941099405288696 0.023194000124931335
v -0.001800999976694584 -0.18202799558639526 0.028947999700903893
v -0.0005840000230818987 -0.18232500553131104 0.02626200020313263
v -0.004767000209540129 -0.18402199447155 0.025419000536203384
v -0.002082000020891428 -0.18419599533081055 0.023159999400377274
v -0.0008789999992586672 -0.18503700196743011 0.02912300080060959
v 0.00033099998836405575 -0.18604399263858795 0.026491999626159668
v -0.0033390000462532043 -0.18762800097465515 0.026124000549316406
v -0.0012080000014975667 -0.18846799433231354 0.023996999487280846
v -0.00011000000085914508 -0.18806999921798706 0.029187999665737152
v -0.0007239999831654131 -0.18976299464702606 0.0270019993185997
v -0.0012519999872893095 -0.19035199284553528 0.02769099920988083
vn -0.31769201159477234 0.3398669958114624 0.8851900100708008
vn 0.8731380105018616 0.45082300901412964 0.1854410022497177
vn -0.15958699584007263 0.7273560166358948 -0.6674469709396362
vn -0.9396640062332153 0.3420889973640442 0.002472999971359968
vn 0.022252000868320465 -0.3909960091114044 0.9201229810714722
vn 0.9810839891433716 -0.18653300404548645 0.05177000164985657
vn -0.9730299711227417 -0.16463500261306763 -0.16157999634742737
vn 0.23405000567436218 -0.14080999791622162 -0.961974024772644
vn -0.03168899938464165 -0.29172900319099426 0.9559760093688965
vn 0.9790210127830505 -0.2009669989347458 0.03361799940466881
vn -0.9710180163383484 -0.1338289976119995 -0.19802600145339966
vn 0.1961890012025833 -0.1916940063238144 -0.9616460204124451
vn -0.11590699851512909 0.06675100326538086 0.9910150170326233
vn 0.9995999932289124 0.02643899992108345 0.010023999959230423
vn -0.9822070002555847 -0.053394000977277756 -0.1800529956817627
vn 0.12486200034618378 -0.08373299986124039 -0.9886350035667419
vn -0.00648899981752038 0.204816997051239 0.9787790179252625
vn 0.9731829762458801 0.22771500051021576 -0.03255400061607361
vn -0.9785749912261963 -0.1845259964466095 -0.09133200347423553
vn 0.12971900403499603 -0.09980499744415283 -0.9865149855613708
vn 0.1782429963350296 0.11446300148963928 0.9773060083389282
vn 0.9931240081787109 0.11429599672555923 -0.025314999744296074
vn -0.8800709843635559 -0.4549170136451721 0.1361059993505478
vn 0.25693199038505554 -0.5380359888076782 -0.8028090000152588
vn 0.6296529769897461 -0.26189300417900085 0.7314029932022095
vn 0.8351240158081055 -0.5500209927558899 -0.00672700023278594
vn -0.26517000794410706 -0.8860629796981812 0.3802340030670166
f 1//1 2//2 3//3 4//4
f 2//2 1//1 5//5 6//6
f 1//1 4//4 7//7 5//5
f 3//3 2//2 6//6 8//8
f 4//4 3//3 8//8 7//7
f 6//6 5//5 9//9 10//10
f 5//5 7//7 11//11 9//9
f 8//8 6//6 10//10 12//12
f 7//7 8//8 12//12 11//11
f 10//10 9//9 13//13 14//14
f 9//9 11//11 15//15 13//13
f 12//12 10//10 14//14 16//16
f 11//11 12//12 16//16 15//15
f 14//14 13//13 17//17 18//18
f 13//13 15//15 19//19 17//17
f 16//16 14//14 18//18 20//20
f 15//15 16//16 20//20 19//19
f 18//18 17//17 21//21 22//22
f 17//17 19//19 23//23 21//21
f 20//20 18//18 22//22 24//24
f 19//19 20//20 24//24 23//23
f 22//22 21//21 25//25 26//26
f 21//21 23//23 27//27 25//25
f 24//24 22//22 26//26
f 23//23 24//24 26//26 27//27
f 26//26 25//25 27//27
