# Generated by Visualization Toolkit
v 0.004118999931961298 -0.04592600092291832 0.0024649999104440212
v 0.004497999791055918 -0.04472700133919716 0.0057230000384151936
v 0.006792000029236078 -0.05113700032234192 0.005462000146508217
v 0.0075159999541938305 -0.051329001784324646 0.004002999980002642
v 0.0012390000047162175 -0.04045800119638443 0.0016060000052675605
v 0.0031510000117123127 -0.03856699913740158 0.004763000179082155
v 0.0009950000094249845 -0.0433179996907711 0.0014420000370591879
v 0.0025629999581724405 -0.04883100092411041 0.0033199999015778303
v 0.00012700000661425292 -0.03764199838042259 -0.00021100000594742596
v 0.0021669999696314335 -0.04374200105667114 0.007096000015735626
v 0.004668999928981066 -0.0492670014500618 0.008088000118732452
v 0.0016980000073090196 -0.03747100010514259 0.0063390000723302364
v 0.002383999992161989 -0.05459100008010864 0.008875999599695206
v 0.002732000080868602 -0.05487100034952164 0.005288999993354082
v 0.0010519999777898192 -0.03383199870586395 0.00006900000153109431
v 0.0017000000225380063 -0.03240299969911575 0.002962999977171421
v 0.00008099999831756577 -0.03181900084018707 -0.0017369999550282955
v 0.0009130000253207982 -0.03131299838423729 0.005582000128924847
v -0.001766999950632453 -0.04319800063967705 0.002598999999463558
v 0.0000470000013592653 -0.0489949993789196 0.003501000115647912
v -0.0030930000357329845 -0.037376999855041504 0.0013129999861121178
v -0.0036869999021291733 -0.03164700046181679 -0.0007730000070296228
v 0.0019630000460892916 -0.044787999242544174 0.012760000303387642
v 0.005456999875605106 -0.05010699853301048 0.013850999996066093
v -0.0004900000058114529 -0.03890300169587135 0.01116199977695942
v 0.0018820000113919377 -0.054242998361587524 0.011409999802708626
v -0.0001449999981559813 -0.032280001789331436 0.010329999960958958
v 0.0007389999809674919 -0.055048998445272446 0.006461999844759703
v 0.0010339999571442604 -0.05407800152897835 0.013024000450968742
v -0.002887000096961856 -0.05305499956011772 0.011106000281870365
v -0.0018550000386312604 -0.049532998353242874 0.006231999956071377
v 0.0016499999910593033 -0.02707800082862377 -0.0017010000301524997
v 0.0016029999824240804 -0.025971999391913414 0.0018060000147670507
v 0.000007000000096013537 -0.02602200023829937 -0.003379999892786145
v 0.0007340000011026859 -0.025133000686764717 0.004798999987542629
v -0.0035669999197125435 -0.02584500052034855 -0.0028009999077767134
v -0.0005239999736659229 -0.025815000757575035 0.009173000231385231
v -0.0029929999727755785 -0.04343299940228462 0.005547999870032072
v -0.004738000221550465 -0.03757699951529503 0.004561000037938356
v -0.005869000218808651 -0.0316770002245903 0.0032049999572336674
v -0.006446999963372946 -0.025668999180197716 0.0017750000115484
v -0.0006769999745301902 -0.04235700145363808 0.011668999679386616
v 0.0002739999908953905 -0.048165999352931976 0.01270699966698885
v -0.0015409999759867787 -0.036552999168634415 0.010626000352203846
v -0.002570000011473894 -0.030712999403476715 0.009583000093698502
v -0.003312000073492527 -0.024840999394655228 0.008670000359416008
v -0.0023040000814944506 -0.0474729984998703 0.009824000298976898
v -0.0032190000638365746 -0.041861001402139664 0.009372999891638756
v 0.002641000086441636 -0.020723000168800354 -0.0033199999015778303
v 0.002652999944984913 -0.019717000424861908 -0.00007899999764049426
v 0.0003640000068116933 -0.020385999232530594 -0.005437999963760376
v 0.0014979999978095293 -0.01891399919986725 0.003836000105366111
v -0.0034099998883903027 -0.020036999136209488 -0.004739999771118164
v -0.00010299999848939478 -0.0192709993571043 0.007784999907016754
v -0.007083999924361706 -0.01967800036072731 0.00039500001003034413
v -0.0023789999540895224 -0.018967000767588615 0.008484999649226665
v -0.004604000132530928 -0.03628699854016304 0.008785000070929527
v -0.005619000177830458 -0.030758999288082123 0.007592999842017889
v -0.006087999790906906 -0.025172000750899315 0.006393999792635441
v -0.006587999872863293 -0.019565999507904053 0.005235000047832727
v 0.004976999945938587 -0.014619999565184116 -0.004360000137239695
v 0.005795000120997429 -0.014089000411331654 -0.0013119999784976244
v 0.0017290000105276704 -0.014833999797701836 -0.007203000131994486
v 0.005183999892324209 -0.013922000303864479 0.0037559999618679285
v -0.004430000204592943 -0.014512999914586544 -0.00725100003182888
v 0.002964999992400408 -0.013438000343739986 0.008169000037014484
v -0.0075159999541938305 -0.013763000257313251 -0.0013650000328198075
v -0.0023759999312460423 -0.013028999790549278 0.008963000029325485
v -0.007387999910861254 -0.014001999981701374 0.004071999806910753
v 0.0039029999170452356 -0.008461999706923962 -0.006570999976247549
v 0.005882999859750271 -0.008117999881505966 -0.0032130000181496143
v 0.004974000155925751 -0.007828000001609325 0.002524999901652336
v -0.0037090000696480274 -0.008504999801516533 -0.007000999990850687
v 0.003461000043898821 -0.007069999817758799 0.006996000185608864
v -0.006792000029236078 -0.007625000085681677 -0.00145800004247576
v -0.0020290000829845667 -0.007284999825060368 0.007799999788403511
v -0.006742999888956547 -0.008325000293552876 0.003596999915316701
v 0.00030300000798888505 -0.009026999585330486 -0.00041700000292621553
vn 0.8518670201301575 0.23103399574756622 -0.47005000710487366
vn 0.9423620104789734 0.2906390130519867 0.16578100621700287
vn 0.8760430216789246 0.006202000193297863 0.4821929931640625
vn 0.7489060163497925 -0.4425809979438782 -0.49321600794792175
vn 0.9337170124053955 0.16535399854183197 -0.31753799319267273
vn 0.9892789721488953 0.14602099359035492 0.002400000113993883
vn 0.0939439982175827 -0.1551859974861145 -0.9834079742431641
vn -0.06666699796915054 -0.3009530007839203 -0.9513059854507446
vn 0.42211300134658813 -0.07894100248813629 -0.9031000137329102
vn 0.7642769813537598 0.3998129963874817 0.505994975566864
vn 0.9045220017433167 0.05876399949193001 0.42235898971557617
vn 0.8990910053253174 0.1824979931116104 0.3979080021381378
vn 0.5823950171470642 -0.7739539742469788 0.2486180067062378
vn 0.0016400000313296914 -0.786566972732544 -0.617501974105835
vn 0.9037299752235413 -0.053640998899936676 -0.42473000288009644
vn 0.9939730167388916 0.09472999721765518 0.0551769994199276
vn 0.291812002658844 -0.25275498628616333 -0.9224749803543091
vn 0.9657639861106873 0.07399199903011322 0.248648002743721
vn -0.6603659987449646 -0.3493900001049042 -0.6647130250930786
vn -0.5295659899711609 -0.40981000661849976 -0.7427080273628235
vn -0.6307929754257202 -0.294979989528656 -0.7176949977874756
vn -0.5710880160331726 -0.2554920017719269 -0.7801169753074646
vn 0.37112098932266235 0.4194459915161133 0.828453004360199
vn 0.591530978679657 -0.20252299308776855 0.7804329991340637
vn 0.44803300499916077 0.23241400718688965 0.8632789850234985
vn 0.5273849964141846 -0.8407649993896484 0.12239199876785278
vn 0.5393270254135132 0.12082800269126892 0.8333830237388611
vn -0.43063899874687195 -0.9003790020942688 -0.06218300014734268
vn -0.10113000124692917 -0.552075982093811 0.8276379704475403
vn -0.7127400040626526 -0.5449560284614563 0.4416159987449646
vn -0.9034960269927979 -0.3721579909324646 -0.21258600056171417
vn 0.8987590074539185 -0.18658700585365295 -0.39675799012184143
vn 0.9873290061950684 -0.03696500137448311 0.15431800484657288
vn 0.2392680048942566 -0.31030601263046265 -0.9200329780578613
vn 0.951125979423523 0.02960200048983097 0.3073810040950775
vn -0.5444719791412354 -0.25085699558258057 -0.800387978553772
vn 0.6145269870758057 0.07480400055646896 0.7853410243988037
vn -0.9436720013618469 -0.2764759957790375 -0.18177899718284607
vn -0.9485489726066589 -0.25664201378822327 -0.1854429990053177
vn -0.9613180160522461 -0.17463700473308563 -0.2130029946565628
vn -0.962548017501831 -0.12959100306034088 -0.2381329983472824
vn -0.41962799429893494 0.04818800091743469 0.9064159989356995
vn -0.48367300629615784 0.08549399673938751 0.8710629940032959
vn -0.36531201004981995 0.08394800126552582 0.9270920157432556
vn -0.39193201065063477 0.11880099773406982 0.9122909903526306
vn -0.29829901456832886 0.09178700298070908 0.9500489830970764
vn -0.8958560228347778 -0.11597099900245667 0.4289439916610718
vn -0.8668910264968872 -0.14866000413894653 0.475816011428833
vn 0.8410549759864807 -0.3527750074863434 -0.41009199619293213
vn 0.9355589747428894 -0.3435089886188507 0.08204600214958191
vn 0.28524601459503174 -0.3442060053348541 -0.8945149779319763
vn 0.9039589762687683 -0.28210800886154175 0.3213610053062439
vn -0.5203580260276794 -0.31580299139022827 -0.7934079766273499
vn 0.6059920191764832 -0.14598700404167175 0.7819600105285645
vn -0.9596260190010071 -0.17246100306510925 -0.22220399975776672
vn -0.250093013048172 0.016316000372171402 0.9680839776992798
vn -0.8408839702606201 -0.10990700125694275 0.5299379825592041
vn -0.8719850182533264 -0.014593999832868576 0.489315003156662
vn -0.8819379806518555 0.01614600047469139 0.4710890054702759
vn -0.898751974105835 0.0014459999511018395 0.4384559988975525
vn 0.7834929823875427 -0.3096579909324646 -0.5387489795684814
vn 0.9415069818496704 -0.32277798652648926 -0.09684699773788452
vn 0.35968300700187683 -0.19715499877929688 -0.9120079874992371
vn 0.9269160032272339 -0.2580839991569519 0.27243199944496155
vn -0.4994199872016907 -0.13153600692749023 -0.8563169836997986
vn 0.5895599722862244 -0.10158699750900269 0.8013110160827637
vn -0.9734929800033569 -0.04352099820971489 -0.22453700006008148
vn -0.3079249858856201 0.08214499801397324 0.9478579759597778
vn -0.9135810136795044 0.0638979971408844 0.4016050100326538
vn 0.45098501443862915 0.5635690093040466 -0.6920999884605408
vn 0.6130750179290771 0.7705519795417786 -0.17431999742984772
vn 0.6263319849967957 0.7760800123214722 0.07353299856185913
vn -0.22818000614643097 0.8102689981460571 -0.5398129820823669
vn 0.3627859950065613 0.8628119826316833 0.35205399990081787
vn -0.5527359843254089 0.8210170269012451 -0.14287999272346497
vn -0.23798400163650513 0.8501229882240295 0.46973899006843567
vn -0.550275981426239 0.7990429997444153 0.24233800172805786
vn -0.027486000210046768 0.9971070289611816 -0.07086300104856491
f 1//1 2//2 3//3 4//4
f 5//5 6//6 2//2 1//1
f 7//7 1//1 4//4 8//8
f 9//9 5//5 1//1 7//7
f 2//2 10//10 11//11 3//3
f 6//6 12//12 10//10 2//2
f 3//3 11//11 13//13
f 4//4 3//3 13//13
f 13//13 14//14 4//4
f 14//14 8//8 4//4
f 15//15 16//16 6//6 5//5
f 17//17 15//15 5//5 9//9
f 16//16 18//18 12//12 6//6
f 19//19 7//7 8//8 20//20
f 21//21 9//9 7//7 19//19
f 8//8 14//14 20//20
f 22//22 17//17 9//9 21//21
f 10//10 23//23 24//24 11//11
f 12//12 25//25 23//23 10//10
f 11//11 24//24 26//26 13//13
f 18//18 27//27 25//25 12//12
f 28//28 13//13 26//26 29//29 30//30
f 13//13 28//28 14//14
f 31//31 20//20 14//14 28//28
f 32//32 33//33 16//16 15//15
f 34//34 32//32 15//15 17//17
f 33//33 35//35 18//18 16//16
f 36//36 34//34 17//17 22//22
f 35//35 37//37 27//27 18//18
f 38//38 19//19 20//20 31//31
f 39//39 21//21 19//19 38//38
f 40//40 22//22 21//21 39//39
f 41//41 36//36 22//22 40//40
f 23//23 42//42 43//43 24//24
f 25//25 44//44 42//42 23//23
f 24//24 29//29 26//26
f 24//24 43//43 29//29
f 27//27 45//45 44//44 25//25
f 37//37 46//46 45//45 27//27
f 47//47 31//31 28//28 30//30
f 43//43 47//47 30//30 29//29
f 48//48 38//38 31//31 47//47
f 49//49 50//50 33//33 32//32
f 51//51 49//49 32//32 34//34
f 50//50 52//52 35//35 33//33
f 53//53 51//51 34//34 36//36
f 52//52 54//54 37//37 35//35
f 55//55 53//53 36//36 41//41
f 54//54 56//56 46//46 37//37
f 57//57 39//39 38//38 48//48
f 58//58 40//40 39//39 57//57
f 59//59 41//41 40//40 58//58
f 60//60 55//55 41//41 59//59
f 42//42 48//48 47//47 43//43
f 44//44 57//57 48//48 42//42
f 45//45 58//58 57//57 44//44
f 46//46 59//59 58//58 45//45
f 56//56 60//60 59//59 46//46
f 61//61 62//62 50//50 49//49
f 63//63 61//61 49//49 51//51
f 62//62 64//64 52//52 50//50
f 65//65 63//63 51//51 53//53
f 64//64 66//66 54//54 52//52
f 67//67 65//65 53//53 55//55
f 66//66 68//68 56//56 54//54
f 69//69 67//67 55//55 60//60
f 68//68 69//69 60//60 56//56
f 70//70 71//71 62//62 61//61
f 70//70 61//61 63//63
f 71//71 72//72 64//64 62//62
f 73//73 70//70 63//63 65//65
f 72//72 74//74 66//66 64//64
f 75//75 73//73 65//65 67//67
f 74//74 76//76 68//68 66//66
f 77//77 75//75 67//67 69//69
f 76//76 77//77 69//69 68//68
f 70//70 73//73 78//78
f 71//71 70//70 78//78
f 72//72 71//71 78//78
f 74//74 72//72 78//78
f 73//73 75//75 78//78
f 76//76 74//74 78//78
f 75//75 77//77 78//78
f 77//77 76//76 78//78
