# Generated by Visualization Toolkit
v 0.0017180000431835651 -0.166485995054245 0.004528000019490719
v 0.00471000000834465 -0.1639840006828308 -0.001019999966956675
v 0.002555999904870987 -0.1643030047416687 -0.005956999957561493
v -0.0024210000410676003 -0.16497600078582764 -0.0009980000322684646
v 0.0017000000225380063 -0.16945500671863556 0.0035800000187009573
v 0.004769999999552965 -0.16776099801063538 -0.0012870000209659338
v -0.0020729999523609877 -0.16894400119781494 -0.001686000032350421
v 0.0026469998992979527 -0.16855299472808838 -0.005714999977499247
v 0.0013699999544769526 -0.1725730001926422 0.003172999946400523
v 0.003854000009596348 -0.1713549941778183 -0.0006730000022798777
v -0.0009239999926649034 -0.17265300452709198 -0.0011340000201016665
v 0.0017719999887049198 -0.1721860021352768 -0.003622000105679035
v 0.0014700000174343586 -0.17541299760341644 0.002553999889642
v 0.003837000112980604 -0.1751450002193451 -0.0003530000103637576
v -0.0006130000110715628 -0.17658400535583496 -0.00048499999684281647
v 0.0016830000095069408 -0.17630299925804138 -0.0026859999634325504
v 0.002822000067681074 -0.17822399735450745 0.0032850001007318497
v 0.003965000156313181 -0.17876100540161133 0.0006060000159777701
v -0.00015900000289548188 -0.180527001619339 0.00010900000052060932
v 0.002454000059515238 -0.1808840036392212 -0.0022120000794529915
v 0.0038620000705122948 -0.18107900023460388 0.003756999969482422
v 0.005028000101447105 -0.18229100108146667 0.0012130000395700336
v 0.0014250000240281224 -0.18389399349689484 0.0011549999471753836
v 0.0035149999894201756 -0.1848829984664917 -0.0009410000056959689
v 0.004747999832034111 -0.18396900594234467 0.004129000008106232
v 0.004137999843806028 -0.18581700325012207 0.002167999977245927
v 0.0036559998989105225 -0.1863200068473816 0.0029360000044107437
vn -0.2859080135822296 0.4305860102176666 0.8560680150985718
vn 0.8614879846572876 0.4968859851360321 0.10461100190877914
vn -0.1883469969034195 0.6533240079879761 -0.7332749962806702
vn -0.9496880173683167 0.3131900131702423 -0.0023139999248087406
vn 0.06374000012874603 -0.29515400528907776 0.9533209800720215
vn 0.9879559874534607 -0.15010200440883636 0.03757600113749504
vn -0.9690250158309937 -0.22188299894332886 -0.10843899846076965
vn 0.20692400634288788 -0.24719899892807007 -0.9466130137443542
vn 0.007801000028848648 -0.19093899428844452 0.9815710186958313
vn 0.9857320189476013 -0.16703100502490997 0.02079799957573414
vn -0.9698579907417297 -0.19457300007343292 -0.1466829925775528
vn 0.17067499458789825 -0.300368994474411 -0.9384289979934692
vn -0.08886600285768509 0.17615799605846405 0.9803419709205627
vn 0.9975780248641968 0.06253299862146378 -0.030463000759482384
vn -0.9842870235443115 -0.11123500019311905 -0.13713200390338898
vn 0.09562599658966064 -0.19573499262332916 -0.9759830236434937
vn 0.013276999816298485 0.3190020024776459 0.9476609826087952
vn 0.9606260061264038 0.26179298758506775 -0.09307499974966049
vn -0.9717370271682739 -0.23361100256443024 -0.03396400064229965
vn 0.1021289974451065 -0.21096999943256378 -0.9721429944038391
vn 0.1999099999666214 0.23374100029468536 0.9515259861946106
vn 0.9862340092658997 0.14863599836826324 -0.07246100157499313
vn -0.8553329706192017 -0.47107699513435364 0.2156209945678711
vn 0.25096699595451355 -0.6208739876747131 -0.7426509857177734
vn 0.657912015914917 -0.16486400365829468 0.734827995300293
vn 0.850117027759552 -0.5261170268058777 0.022413000464439392
vn -0.22269999980926514 -0.8506900072097778 0.47616299986839294
f 1//1 2//2 3//3 4//4
f 2//2 1//1 5//5 6//6
f 1//1 4//4 7//7 5//5
f 3//3 2//2 6//6 8//8
f 4//4 3//3 8//8 7//7
f 6//6 5//5 9//9 10//10
f 5//5 7//7 11//11 9//9
f 8//8 6//6 10//10 12//12
f 7//7 8//8 12//12 11//11
f 10//10 9//9 13//13 14//14
f 9//9 11//11 15//15 13//13
f 12//12 10//10 14//14 16//16
f 11//11 12//12 16//16 15//15
f 14//14 13//13 17//17 18//18
f 13//13 15//15 19//19 17//17
f 16//16 14//14 18//18 20//20
f 15//15 16//16 20//20 19//19
f 18//18 17//17 21//21 22//22
f 17//17 19//19 23//23 21//21
f 20//20 18//18 22//22 24//24
f 19//19 20//20 24//24 23//23
f 22//22 21//21 25//25 26//26
f 21//21 23//23 27//27 25//25
f 24//24 22//22 26//26
f 23//23 24//24 26//26 27//27
f 26//26 25//25 27//27
