# Generated by Visualization Toolkit
v 0.0010290000354871154 -0.12311799824237823 -0.011369000189006329
v 0.001408000010997057 -0.1224299967288971 -0.007954999804496765
v 0.0037010000087320805 -0.1292009949684143 -0.009301000274717808
v 0.004424999933689833 -0.12914200127124786 -0.010769999586045742
v -0.0018500000005587935 -0.11714699864387512 -0.011285999789834023
v 0.00006199999916134402 -0.11570499837398529 -0.007853999733924866
v -0.002094999887049198 -0.12015900015830994 -0.011934000067412853
v -0.000526999996509403 -0.12636099755764008 -0.011020000092685223
v -0.0029619999695569277 -0.11382299661636353 -0.012597999535501003
v -0.0009219999774359167 -0.12162899971008301 -0.006434000097215176
v 0.0015790000325068831 -0.12768399715423584 -0.006395000033080578
v -0.0013909999979659915 -0.11482299864292145 -0.006113999988883734
v -0.0007070000283420086 -0.1334889978170395 -0.006523000076413155
v -0.0003600000054575503 -0.13314099609851837 -0.010104999877512455
v -0.00203699991106987 -0.10982199758291245 -0.011673999950289726
v -0.0013879999751225114 -0.1088239997625351 -0.008580000139772892
v -0.0030070000793784857 -0.107355996966362 -0.013112000189721584
v -0.0021750000305473804 -0.10813699662685394 -0.005814000032842159
v -0.004856999963521957 -0.12024000287055969 -0.010773000307381153
v -0.003043999895453453 -0.126568004488945 -0.010869000107049942
v -0.006182000041007996 -0.11381600052118301 -0.01105200033634901
v -0.006773999892175198 -0.10734599828720093 -0.012133000418543816
v -0.0011269999668002129 -0.12376300245523453 -0.0010290000354871154
v 0.002366000087931752 -0.12961700558662415 -0.0008590000215917826
v -0.003579000011086464 -0.11721500009298325 -0.0016049999976530671
v -0.0012100000167265534 -0.13357600569725037 -0.003967000171542168
v -0.003232999937608838 -0.11002100259065628 -0.001297999988310039
v -0.002351999981328845 -0.13354100286960602 -0.008980999700725079
v -0.0020580000709742308 -0.1336899995803833 -0.002348999958485365
v -0.00597799988463521 -0.13225699961185455 -0.004064000211656094
v -0.004945999942719936 -0.1276320070028305 -0.008270000107586384
v -0.001436999998986721 -0.10232000052928925 -0.012269999831914902
v -0.001484000007621944 -0.10177599638700485 -0.008627999573946
v -0.0030799999367445707 -0.10089299827814102 -0.01374599989503622
v -0.0023529999889433384 -0.10142199695110321 -0.005535999778658152
v -0.006653999909758568 -0.1008090004324913 -0.013145999982953072
v -0.003611000021919608 -0.10293599963188171 -0.0013409999664872885
v -0.006082999985665083 -0.12101999670267105 -0.007907000370323658
v -0.007826000452041626 -0.11461400240659714 -0.007884000428020954
v -0.008957000449299812 -0.1080939993262291 -0.008217999711632729
v -0.00953300017863512 -0.1014460027217865 -0.008604999631643295
v -0.0037670000456273556 -0.12098000198602676 -0.0016919999616220593
v -0.0028170000296086073 -0.1273459941148758 -0.0016560000367462635
v -0.004629999864846468 -0.11461900174617767 -0.0017330000409856439
v -0.005657999776303768 -0.10821899771690369 -0.0017689999658614397
v -0.006399000063538551 -0.10180900245904922 -0.0016710000345483422
v -0.005394999869167805 -0.1260879933834076 -0.004379000049084425
v -0.006308999843895435 -0.1200380027294159 -0.003869999898597598
v -0.0004450000124052167 -0.09526900202035904 -0.01278700027614832
v -0.0004330000083427876 -0.0947830006480217 -0.009421999566257
v -0.002722000004723668 -0.09452799707651138 -0.01481700036674738
v -0.0015879999846220016 -0.0946350023150444 -0.0054270001128315926
v -0.006496000103652477 -0.09428200125694275 -0.014069000259041786
v -0.003189000068232417 -0.09572599828243256 -0.0015960000455379486
v -0.010169999673962593 -0.09482599794864655 -0.008946999907493591
v -0.005464999936521053 -0.0955289974808693 -0.0008549999911338091
v -0.007691999897360802 -0.11400400102138519 -0.0035019998904317617
v -0.008706999942660332 -0.10790800303220749 -0.0037380000576376915
v -0.00917499978095293 -0.10175000131130219 -0.003969999961555004
v -0.009674999862909317 -0.09557899832725525 -0.0041600000113248825
v 0.0018919999711215496 -0.08859000355005264 -0.012775000184774399
v 0.0027099999133497477 -0.08857599645853043 -0.009681000374257565
v -0.0013559999642893672 -0.0883060023188591 -0.01561299990862608
v 0.0020989999175071716 -0.08931100368499756 -0.004658000078052282
v -0.007515000179409981 -0.08795499801635742 -0.015604999847710133
v -0.00012099999730708078 -0.08959200233221054 -0.00022699999681208283
v -0.010600999929010868 -0.08821599930524826 -0.009677999652922153
v -0.005462000146508217 -0.08929900079965591 0.0006270000012591481
v -0.010472999885678291 -0.08945199847221375 -0.004358999896794558
v 0.0008190000080503523 -0.0816430002450943 -0.013907000422477722
v 0.0027989998925477266 -0.08188199996948242 -0.010538999922573566
v 0.0018899999558925629 -0.08260799944400787 -0.00483600003644824
v -0.006792999804019928 -0.08160900324583054 -0.01433700043708086
v 0.0003769999893847853 -0.08260799944400787 -0.0003009999927598983
v -0.009875999763607979 -0.08167199790477753 -0.008724999614059925
v -0.005113000050187111 -0.08298099786043167 0.000455000001238659
v -0.009827000088989735 -0.0833280012011528 -0.003863000078126788
v -0.002781999995931983 -0.0833519995212555 -0.007938999682664871
vn 0.8585839867591858 0.28764501214027405 -0.4243740141391754
vn 0.9470139741897583 0.2409369945526123 0.21239900588989258
vn 0.8766670227050781 -0.07249400019645691 0.4756050109863281
vn 0.7602149844169617 -0.33808499574661255 -0.5547710061073303
vn 0.9370869994163513 0.20249900221824646 -0.28436198830604553
vn 0.9907490015029907 0.1331460028886795 0.026241999119520187
vn 0.09735599905252457 0.014595000073313713 -0.9951429963111877
vn -0.06728000193834305 -0.12563200294971466 -0.9897930026054382
vn 0.4264270067214966 0.07237400114536285 -0.9016219973564148
vn 0.7703700065612793 0.28890299797058105 0.5683879852294922
vn 0.9060570001602173 -0.0129399998113513 0.42295700311660767
vn 0.8998339772224426 0.1046219989657402 0.42350199818611145
vn 0.6020399928092957 -0.7899600267410278 0.11623600125312805
vn 0.010552000254392624 -0.6581649780273438 -0.7527999877929688
vn 0.903784990310669 0.017866000533103943 -0.4276140034198761
vn 0.9945030212402344 0.0778060033917427 0.07006999850273132
vn 0.2921839952468872 -0.08565899729728699 -0.9525179862976074
vn 0.9658610224723816 0.02831600047647953 0.2575100064277649
vn -0.6633530259132385 -0.21535800397396088 -0.7166479825973511
vn -0.5334979891777039 -0.2591620087623596 -0.8051180243492126
vn -0.632552981376648 -0.15667100250720978 -0.7585060000419617
vn -0.5719419717788696 -0.11056400090456009 -0.8128089904785156
vn 0.3788749873638153 0.25674399733543396 0.8891209959983826
vn 0.6048700213432312 -0.3156970143318176 0.7310730218887329
vn 0.44975900650024414 0.07718600332736969 0.8898090124130249
vn 0.5486029982566833 -0.8358799815177917 -0.01843300089240074
vn 0.539385974407196 -0.020949000492691994 0.8417980074882507
vn -0.4377239942550659 -0.8720489740371704 -0.21892599761486053
vn -0.09029100090265274 -0.6767470240592957 0.7306579947471619
vn -0.717881977558136 -0.6046559810638428 0.3450160026550293
vn -0.9106150269508362 -0.30929601192474365 -0.27407199144363403
vn 0.8996610045433044 -0.1082959994673729 -0.42294400930404663
vn 0.9875670075416565 -0.05829299986362457 0.1459919959306717
vn 0.23973199725151062 -0.13892999291419983 -0.960847020149231
vn 0.9511510133743286 -0.021539000794291496 0.30797499418258667
vn -0.5449870228767395 -0.10317199677228928 -0.8320720195770264
vn 0.6144919991493225 -0.055518001317977905 0.7869669795036316
vn -0.9477699995040894 -0.22477799654006958 -0.2262910008430481
vn -0.9520490169525146 -0.20585499703884125 -0.22633099555969238
vn -0.9626780152320862 -0.1260329931974411 -0.23951399326324463
vn -0.9631459712982178 -0.08078700304031372 -0.25655901432037354
vn -0.41989898681640625 -0.09880100190639496 0.9021769762039185
vn -0.48385798931121826 -0.059126000851392746 0.8731470108032227
vn -0.36538299918174744 -0.0693340003490448 0.9282709956169128
vn -0.3920240104198456 -0.03510800004005432 0.919284999370575
vn -0.2980929911136627 -0.06583700329065323 0.9522640109062195
vn -0.8982149958610535 -0.17464399337768555 0.40337300300598145
vn -0.8700550198554993 -0.2113499939441681 0.44534799456596375
vn 0.8460149765014648 -0.26011401414871216 -0.4654029905796051
vn 0.9430490136146545 -0.3318819999694824 0.022639000788331032
vn 0.28621798753738403 -0.17420600354671478 -0.9421949982643127
vn 0.9102050065994263 -0.3134540021419525 0.27069100737571716
vn -0.5220890045166016 -0.1640090048313141 -0.8369730114936829
vn 0.6096839904785156 -0.25914499163627625 0.7490860223770142
vn -0.9608190059661865 -0.12275400012731552 -0.24851399660110474
vn -0.24978899955749512 -0.1379449963569641 0.9584239721298218
vn -0.8433709740638733 -0.18435299396514893 0.5047169923782349
vn -0.8726270198822021 -0.09038200229406357 0.47995099425315857
vn -0.8822169899940491 -0.05937400087714195 0.46708500385284424
vn -0.8990799784660339 -0.06770899891853333 0.43251699209213257
vn 0.7867869734764099 -0.199971005320549 -0.5839329957962036
vn 0.9469410181045532 -0.284400999546051 -0.14972800016403198
vn 0.35965800285339355 -0.03647800162434578 -0.9323710203170776
vn 0.9318550229072571 -0.2835899889469147 0.22632500529289246
vn -0.49982500076293945 0.01471799984574318 -0.8660020232200623
vn 0.5927379727363586 -0.22138600051403046 0.7743710279464722
vn -0.9733999967575073 -0.00442600017413497 -0.22906799614429474
vn -0.307561993598938 -0.07439400255680084 0.9486150145530701
vn -0.9136210083961487 -0.004736000206321478 0.4065389931201935
vn 0.45141199231147766 0.6736609935760498 -0.5851560235023499
vn 0.6071680188179016 0.7937570214271545 -0.03600899875164032
vn 0.6213899850845337 0.7562379837036133 0.2048880010843277
vn -0.22732900083065033 0.8901489973068237 -0.394912987947464
vn 0.35851800441741943 0.7943660020828247 0.4903550148010254
vn -0.5523920059204102 0.8335549831390381 0.007027000188827515
vn -0.24146099388599396 0.7593370079994202 0.604237973690033
vn -0.5495370030403137 0.7437710165977478 0.3805449903011322
vn -0.029644999653100967 0.9941319823265076 0.10403700172901154
f 1//1 2//2 3//3 4//4
f 5//5 6//6 2//2 1//1
f 7//7 1//1 4//4 8//8
f 9//9 5//5 1//1 7//7
f 2//2 10//10 11//11 3//3
f 6//6 12//12 10//10 2//2
f 3//3 11//11 13//13
f 4//4 3//3 13//13
f 13//13 14//14 4//4
f 14//14 8//8 4//4
f 15//15 16//16 6//6 5//5
f 17//17 15//15 5//5 9//9
f 16//16 18//18 12//12 6//6
f 19//19 7//7 8//8 20//20
f 21//21 9//9 7//7 19//19
f 8//8 14//14 20//20
f 22//22 17//17 9//9 21//21
f 10//10 23//23 24//24 11//11
f 12//12 25//25 23//23 10//10
f 11//11 24//24 26//26 13//13
f 18//18 27//27 25//25 12//12
f 28//28 13//13 26//26 29//29 30//30
f 13//13 28//28 14//14
f 31//31 20//20 14//14 28//28
f 32//32 33//33 16//16 15//15
f 34//34 32//32 15//15 17//17
f 33//33 35//35 18//18 16//16
f 36//36 34//34 17//17 22//22
f 35//35 37//37 27//27 18//18
f 38//38 19//19 20//20 31//31
f 39//39 21//21 19//19 38//38
f 40//40 22//22 21//21 39//39
f 41//41 36//36 22//22 40//40
f 23//23 42//42 43//43 24//24
f 25//25 44//44 42//42 23//23
f 24//24 29//29 26//26
f 24//24 43//43 29//29
f 27//27 45//45 44//44 25//25
f 37//37 46//46 45//45 27//27
f 47//47 31//31 28//28 30//30
f 43//43 47//47 30//30 29//29
f 48//48 38//38 31//31 47//47
f 49//49 50//50 33//33 32//32
f 51//51 49//49 32//32 34//34
f 50//50 52//52 35//35 33//33
f 53//53 51//51 34//34 36//36
f 52//52 54//54 37//37 35//35
f 55//55 53//53 36//36 41//41
f 54//54 56//56 46//46 37//37
f 57//57 39//39 38//38 48//48
f 58//58 40//40 39//39 57//57
f 59//59 41//41 40//40 58//58
f 60//60 55//55 41//41 59//59
f 42//42 48//48 47//47 43//43
f 44//44 57//57 48//48 42//42
f 45//45 58//58 57//57 44//44
f 46//46 59//59 58//58 45//45
f 56//56 60//60 59//59 46//46
f 61//61 62//62 50//50 49//49
f 63//63 61//61 49//49 51//51
f 62//62 64//64 52//52 50//50
f 65//65 63//63 51//51 53//53
f 64//64 66//66 54//54 52//52
f 67//67 65//65 53//53 55//55
f 66//66 68//68 56//56 54//54
f 69//69 67//67 55//55 60//60
f 68//68 69//69 60//60 56//56
f 70//70 71//71 62//62 61//61
f 70//70 61//61 63//63
f 71//71 72//72 64//64 62//62
f 73//73 70//70 63//63 65//65
f 72//72 74//74 66//66 64//64
f 75//75 73//73 65//65 67//67
f 74//74 76//76 68//68 66//66
f 77//77 75//75 67//67 69//69
f 76//76 77//77 69//69 68//68
f 70//70 73//73 78//78
f 71//71 70//70 78//78
f 72//72 71//71 78//78
f 74//74 72//72 78//78
f 73//73 75//75 78//78
f 76//76 74//74 78//78
f 75//75 77//77 78//78
f 77//77 76//76 78//78
