# Generated by Visualization Toolkit
v 0.007590999826788902 -0.11032400280237198 -0.031279001384973526
v 0.006897000130265951 -0.1102679967880249 -0.03645100072026253
v 0.0025969999842345715 -0.11028099805116653 -0.040226999670267105
v -0.001310999970883131 -0.11021900177001953 -0.03626900166273117
v -0.0010010000551119447 -0.11031600087881088 -0.032072000205516815
v 0.0022589999716728926 -0.13647900521755219 -0.03438799828290939
v 0.00559999980032444 -0.11470700055360794 -0.031296998262405396
v 0.005619000177830458 -0.11454100161790848 -0.035670001059770584
v 0.0037140001077204943 -0.1100820004940033 -0.02921300008893013
v 0.003398000029847026 -0.11412200331687927 -0.029752999544143677
v 0.0031250000465661287 -0.114826999604702 -0.03949199989438057
v -0.0008399999933317304 -0.11461400240659714 -0.0360260009765625
v -0.0005430000019259751 -0.11452899873256683 -0.03248000144958496
v 0.004978999961167574 -0.1359180063009262 -0.031881000846624374
v 0.003060000017285347 -0.13526299595832825 -0.03113500028848648
v 0.0019519999623298645 -0.1361829936504364 -0.03426399827003479
v 0.00018099999579135329 -0.13229699432849884 -0.034237999469041824
v 0.0038689998909831047 -0.13369600474834442 -0.037105999886989594
v 0.005925999954342842 -0.13221700489521027 -0.03322499990463257
v 0.0048940000124275684 -0.11934299767017365 -0.031259000301361084
v 0.004441000055521727 -0.11883799731731415 -0.03473300114274025
v 0.003200999926775694 -0.11836600303649902 -0.03017600066959858
v 0.0027840000111609697 -0.11942899972200394 -0.03802400082349777
v 0.00021399999968707561 -0.118647001683712 -0.031640999019145966
v -0.00032500000088475645 -0.11900000274181366 -0.035886000841856
v 0.008196000009775162 -0.1327040046453476 -0.030009999871253967
v 0.004935000091791153 -0.13524599373340607 -0.029239999130368233
v 0.003700000001117587 -0.1352110058069229 -0.029505999758839607
v 0.0036700000055134296 -0.13097000122070312 -0.029603000730276108
v 0.0014609999489039183 -0.13140499591827393 -0.0316459983587265
v 0.0008360000210814178 -0.12720000743865967 -0.031307999044656754
v -0.0002099999983329326 -0.12783800065517426 -0.03467699885368347
v 0.0032430000137537718 -0.1289920061826706 -0.036184001713991165
v 0.004906000103801489 -0.1277559995651245 -0.03375700116157532
v 0.0059739998541772366 -0.12887699902057648 -0.030037999153137207
v 0.004916999954730272 -0.12440700083971024 -0.030546000227332115
v 0.004244000185281038 -0.12334299832582474 -0.03428899869322777
v 0.0028200000524520874 -0.12255900353193283 -0.030215999111533165
v 0.002638000063598156 -0.12426000088453293 -0.037255000323057175
v 0.0006329999887384474 -0.12287800014019012 -0.03112800046801567
v -0.00020700000459328294 -0.12340699881315231 -0.03516300022602081
v 0.0032889998983591795 -0.1267549991607666 -0.029879000037908554
vn 0.8372529745101929 0.27176201343536377 0.4745030105113983
vn 0.867542028427124 0.1559859961271286 -0.47227001190185547
vn -0.05952899903059006 0.33237698674201965 -0.9412660002708435
vn -0.8783689737319946 0.3628929853439331 -0.31108900904655457
vn -0.782945990562439 0.39267298579216003 0.4824970066547394
vn 0.05474900081753731 -0.6579930186271667 -0.7510309815406799
vn 0.8526600003242493 -0.24143700301647186 0.4633350074291229
vn 0.8789510130882263 -0.3193889856338501 -0.3541699945926666
vn -0.02926900051534176 -0.1658809930086136 0.9857109785079956
vn -0.021284999325871468 -0.0994739979505539 0.99481201171875
vn 0.02695300057530403 -0.3624640107154846 -0.9316080212593079
vn -0.922137975692749 -0.1644120067358017 -0.3501870036125183
vn -0.8562769889831543 -0.08165600150823593 0.5100209712982178
vn 0.35023099184036255 -0.9352989792823792 -0.05054499953985214
vn -0.4811739921569824 -0.6917250156402588 0.5385059714317322
vn -0.7107040286064148 -0.6980950236320496 0.08696699887514114
vn -0.9406149983406067 -0.19860699772834778 -0.27531400322914124
vn 0.24677200615406036 -0.15096400678157806 -0.957243025302887
vn 0.8878610134124756 -0.14404599368572235 -0.43698200583457947
vn 0.887241005897522 -0.09539999812841415 0.45133501291275024
vn 0.9496840238571167 -0.14856800436973572 -0.27573299407958984
vn 0.014778000302612782 -0.010976999998092651 0.9998310208320618
vn 0.17999699711799622 -0.27014198899269104 -0.9458460211753845
vn -0.8416979908943176 0.0018129999516531825 0.5399460196495056
vn -0.916720986366272 -0.11923699826002121 -0.3813210129737854
vn 0.7332580089569092 -0.07242699712514877 0.6760820150375366
vn 0.2574000060558319 -0.8764259815216064 0.40696701407432556
vn -0.2680869996547699 -0.4726789891719818 0.8394669890403748
vn -0.24595199525356293 -0.05751800164580345 0.9675740003585815
vn -0.7495399713516235 -0.18997399508953094 0.6341130137443542
vn -0.770110011100769 -0.06292600184679031 0.6348000168800354
vn -0.9277729988098145 -0.04621899873018265 -0.3702720105648041
vn 0.23962900042533875 0.02335900068283081 -0.970583975315094
vn 0.9110900163650513 0.23391899466514587 -0.3394069969654083
vn 0.7454180121421814 0.3045249879360199 0.592972993850708
vn 0.8626139760017395 0.07998000085353851 0.49950000643730164
vn 0.9527320265769958 0.048907000571489334 -0.2998499870300293
vn -0.017109999433159828 0.015898000448942184 0.9997270107269287
vn 0.22110700607299805 -0.1440420001745224 -0.9645540118217468
vn -0.7930279970169067 0.0071000000461936 0.6091439723968506
vn -0.9276289939880371 -0.1004050001502037 -0.3597539961338043
vn -0.13080599904060364 -0.004459000192582607 0.9913979768753052
f 1//1 2//2 3//3 4//4 5//5 6//6
f 2//2 1//1 7//7 8//8
f 1//1 9//9 10//10 7//7
f 3//3 2//2 8//8 11//11
f 4//4 3//3 11//11 12//12
f 5//5 4//4 12//12 13//13
f 9//9 5//5 13//13 10//10
f 6//6 14//14 15//15 16//16
f 17//17 18//18 6//6 16//16
f 18//18 19//19 14//14 6//6
f 8//8 7//7 20//20 21//21
f 7//7 10//10 22//22 20//20
f 11//11 8//8 21//21 23//23
f 10//10 13//13 24//24 22//22
f 12//12 11//11 23//23 25//25
f 13//13 12//12 25//25 24//24
f 19//19 26//26 27//27 14//14
f 14//14 27//27 28//28 15//15
f 29//29 30//30 15//15 28//28
f 30//30 17//17 16//16 15//15
f 31//31 32//32 17//17 30//30
f 32//32 33//33 18//18 17//17
f 33//33 34//34 19//19 18//18
f 34//34 35//35 26//26 19//19
f 21//21 20//20 36//36 37//37
f 20//20 22//22 38//38 36//36
f 23//23 21//21 37//37 39//39
f 22//22 24//24 40//40 38//38
f 25//25 23//23 39//39 41//41
f 24//24 25//25 41//41 40//40
f 26//26 29//29 28//28 27//27
f 35//35 42//42 29//29 26//26
f 42//42 31//31 30//30 29//29
f 38//38 40//40 31//31 42//42
f 40//40 41//41 32//32 31//31
f 41//41 39//39 33//33 32//32
f 39//39 37//37 34//34 33//33
f 37//37 36//36 35//35 34//34
f 36//36 38//38 42//42 35//35
