# Generated by Visualization Toolkit
v 0.006126000080257654 -0.13693299889564514 -0.026988999918103218
v 0.009135999716818333 -0.1351500004529953 -0.031307000666856766
v 0.007606999948620796 -0.1350249946117401 -0.03545299917459488
v 0.0032470000442117453 -0.1350650042295456 -0.0316540002822876
v 0.005795000120997429 -0.1393119990825653 -0.027855999767780304
v 0.008732999674975872 -0.1382099986076355 -0.03163899853825569
v 0.0030759999062865973 -0.1383039951324463 -0.032322000712156296
v 0.007145000156015158 -0.13848300278186798 -0.035381998866796494
v 0.005164999980479479 -0.14178499579429626 -0.028300000354647636
v 0.007519000209867954 -0.14101900160312653 -0.031289998441934586
v 0.0035200000274926424 -0.1414629966020584 -0.03193100169301033
v 0.005884000100195408 -0.1413629949092865 -0.033824000507593155
v 0.004927999805659056 -0.1440819948911667 -0.028889000415802002
v 0.007021999917924404 -0.14409300684928894 -0.03114599920809269
v 0.003254000097513199 -0.14469900727272034 -0.03150700032711029
v 0.005257999990135431 -0.14470599591732025 -0.03319000080227852
v 0.005636999849230051 -0.1465429961681366 -0.028315000236034393
v 0.006632000207901001 -0.14705799520015717 -0.03046800009906292
v 0.0031059999018907547 -0.14796200394630432 -0.031122000887989998
v 0.005293000023812056 -0.1485220044851303 -0.03290800005197525
v 0.00610300013795495 -0.14899499714374542 -0.02796800062060356
v 0.007025999948382378 -0.15006199479103088 -0.030030999332666397
v 0.003918999806046486 -0.15090900659561157 -0.030295999720692635
v 0.005594000220298767 -0.15192100405693054 -0.03194199874997139
v 0.006444999948143959 -0.15145400166511536 -0.027712000533938408
v 0.005824000108987093 -0.15282799303531647 -0.029400000348687172
v 0.005332999862730503 -0.15319299697875977 -0.028811000287532806
vn -0.27090299129486084 0.4444350004196167 0.8538669943809509
vn 0.9180960059165955 0.35691899061203003 0.17236199975013733
vn -0.04222400113940239 0.6949120163917542 -0.7178540229797363
vn -0.8899319767951965 0.45387300848960876 -0.04493499919772148
vn -0.04072299972176552 -0.3284420073032379 0.9436460137367249
vn 0.9499379992485046 -0.2996949851512909 0.08832100033760071
vn -0.9827029705047607 -0.06866800040006638 -0.17198899388313293
vn 0.2259480059146881 -0.248758003115654 -0.9418420195579529
vn -0.08201099932193756 -0.2177239954471588 0.9725589752197266
vn 0.9462199807167053 -0.31567901372909546 0.07080899924039841
vn -0.9770560264587402 -0.04038500040769577 -0.20911799371242523
vn 0.18167400360107422 -0.2960759997367859 -0.9377279877662659
vn -0.12204799801111221 0.1594810038805008 0.9796280264854431
vn 0.9955899715423584 -0.08921100199222565 0.029023999348282814
vn -0.9793639779090881 0.04384100064635277 -0.1972929984331131
vn 0.12582199275493622 -0.18003199994564056 -0.9755809903144836
vn 0.0021210000850260258 0.2860490083694458 0.9582129716873169
vn 0.9929519891738892 0.11515700072050095 -0.028036000207066536
vn -0.9917780160903931 -0.08199600130319595 -0.09825500100851059
vn 0.12972299754619598 -0.19616000354290009 -0.9719529747962952
vn 0.1731259971857071 0.17348900437355042 0.9694989919662476
vn 0.9999459981918335 -0.0010789999505504966 -0.010323000140488148
vn -0.9281259775161743 -0.34140899777412415 0.14839500188827515
vn 0.20061199367046356 -0.6303719878196716 -0.7499240040779114
vn 0.5785409808158875 -0.284155011177063 0.7645559906959534
vn 0.7583270072937012 -0.649865984916687 0.051128000020980835
vn -0.3772299885749817 -0.8201119899749756 0.43024900555610657
f 1//1 2//2 3//3 4//4
f 2//2 1//1 5//5 6//6
f 1//1 4//4 7//7 5//5
f 3//3 2//2 6//6 8//8
f 4//4 3//3 8//8 7//7
f 6//6 5//5 9//9 10//10
f 5//5 7//7 11//11 9//9
f 8//8 6//6 10//10 12//12
f 7//7 8//8 12//12 11//11
f 10//10 9//9 13//13 14//14
f 9//9 11//11 15//15 13//13
f 12//12 10//10 14//14 16//16
f 11//11 12//12 16//16 15//15
f 14//14 13//13 17//17 18//18
f 13//13 15//15 19//19 17//17
f 16//16 14//14 18//18 20//20
f 15//15 16//16 20//20 19//19
f 18//18 17//17 21//21 22//22
f 17//17 19//19 23//23 21//21
f 20//20 18//18 22//22 24//24
f 19//19 20//20 24//24 23//23
f 22//22 21//21 25//25 26//26
f 21//21 23//23 27//27 25//25
f 24//24 22//22 26//26
f 23//23 24//24 26//26 27//27
f 26//26 25//25 27//27
