# Generated by Visualization Toolkit
v 0.00019700000120792538 -0.13676099479198456 0.026993000879883766
v -0.0006210000137798488 -0.13651500642299652 0.020680999383330345
v -0.00584500003606081 -0.13664600253105164 0.01603100076317787
v -0.010642999783158302 -0.13698799908161163 0.020824000239372253
v -0.01028599962592125 -0.1372700035572052 0.025942999869585037
v -0.005032999906688929 -0.1701200008392334 0.02180200070142746
v -0.002022000029683113 -0.1424430012702942 0.026726000010967255
v -0.001979999942705035 -0.1420450061559677 0.021400999277830124
v -0.00455900002270937 -0.13679200410842896 0.02948799915611744
v -0.004747000057250261 -0.14191000163555145 0.02861900068819523
v -0.004987000022083521 -0.14240500330924988 0.016697999089956284
v -0.009856999851763248 -0.14253799617290497 0.020898999646306038
v -0.0095210000872612 -0.14256200194358826 0.02523300051689148
v -0.0017549999756738544 -0.16933999955654144 0.02491600066423416
v -0.004133999813348055 -0.16866500675678253 0.025840999558568
v -0.005423000082373619 -0.16976900398731232 0.02196500077843666
v -0.007772000040858984 -0.16495899856090546 0.022179000079631805
v -0.003186000045388937 -0.16637299954891205 0.018644999712705612
v -0.0007689999765716493 -0.16453200578689575 0.023476000875234604
v -0.00266100000590086 -0.14836600422859192 0.026527000591158867
v -0.0032160000409930944 -0.1476069986820221 0.022311000153422356
v -0.004780999850481749 -0.14728300273418427 0.02788200043141842
v -0.005189999938011169 -0.1483220010995865 0.01824899949133396
v -0.008403999730944633 -0.14776800572872162 0.026050999760627747
v -0.009019000455737114 -0.14806899428367615 0.02084900066256523
v 0.0020039998926222324 -0.1651410013437271 0.02739500068128109
v -0.0018570000538602471 -0.16860400140285492 0.028171999379992485
v -0.0033660000190138817 -0.1686290055513382 0.027837000787258148
v -0.003604999976232648 -0.16325199604034424 0.02793700061738491
v -0.006268000230193138 -0.16385699808597565 0.02539999969303608
v -0.007234999909996986 -0.15858200192451477 0.026023000478744507
v -0.008460000157356262 -0.15931500494480133 0.021870000287890434
v -0.004182000178843737 -0.1604910045862198 0.020005999132990837
v -0.002225999953225255 -0.1589210033416748 0.02304700016975403
v -0.0008919999818317592 -0.16043199598789215 0.027535999193787575
v -0.002394000068306923 -0.1548130065202713 0.027135999873280525
v -0.0032430000137537718 -0.15334799885749817 0.022617999464273453
v -0.005044000223278999 -0.15262000262737274 0.02761399932205677
v -0.005140999797731638 -0.1544869989156723 0.01893799938261509
v -0.007691999897360802 -0.15312600135803223 0.026464000344276428
v -0.008667999878525734 -0.15367799997329712 0.02150600031018257
v -0.004271000158041716 -0.15792199969291687 0.027814000844955444
vn 0.8198300004005432 0.29661598801612854 0.48979300260543823
vn 0.8595420122146606 0.22214999794960022 -0.46025800704956055
vn -0.0729999989271164 0.37650999426841736 -0.9235320091247559
vn -0.8891400098800659 0.34347400069236755 -0.30241701006889343
vn -0.80171799659729 0.34466099739074707 0.4883210062980652
vn 0.08286099880933762 -0.6104909777641296 -0.787676990032196
vn 0.8606640100479126 -0.2186339944601059 0.4598430097103119
vn 0.8964089751243591 -0.25933900475502014 -0.3594369888305664
vn -0.026732999831438065 -0.20052599906921387 0.9793239831924438
vn -0.02200400084257126 -0.1369210034608841 0.9903380274772644
vn 0.049577001482248306 -0.3107990026473999 -0.9491819739341736
vn -0.9142249822616577 -0.1791210025548935 -0.3634670078754425
vn -0.8550019860267639 -0.13176299631595612 0.5016080141067505
vn 0.401977002620697 -0.9124270081520081 -0.07675600051879883
vn -0.45236700773239136 -0.7246009707450867 0.5199210047721863
vn -0.6878849864006042 -0.7229830026626587 0.0640999972820282
vn -0.9325900077819824 -0.21704499423503876 -0.2883880138397217
vn 0.25804901123046875 -0.09741900116205215 -0.9612079858779907
vn 0.8959469795227051 -0.08755700290203094 -0.43544501066207886
vn 0.8880190253257751 -0.0766109973192215 0.4533790051937103
vn 0.956853985786438 -0.09561599791049957 -0.274385005235672
vn 0.009600000455975533 -0.05080199986696243 0.9986630082130432
vn 0.19782699644565582 -0.21476399898529053 -0.9564210176467896
vn -0.8439549803733826 -0.05201900005340576 0.5338860154151917
vn -0.9098830223083496 -0.13393700122833252 -0.39264899492263794
vn 0.738860011100769 -0.07117100059986115 0.6700900197029114
vn 0.30432000756263733 -0.8738260269165039 0.3792319893836975
vn -0.24837900698184967 -0.5113160014152527 0.822717010974884
vn -0.24835099279880524 -0.10402800142765045 0.9630680084228516
vn -0.7444909811019897 -0.23738999664783478 0.624002993106842
vn -0.7698690295219421 -0.11547800153493881 0.627668023109436
vn -0.9232739806175232 -0.06470199674367905 -0.37865298986434937
vn 0.24254100024700165 0.07054699957370758 -0.9675729870796204
vn 0.9043759703636169 0.27515000104904175 -0.3261849880218506
vn 0.7339100241661072 0.3003830015659332 0.6092169880867004
vn 0.8567590117454529 0.08944699913263321 0.5079010128974915
vn 0.9516289830207825 0.09536399692296982 -0.2920750081539154
vn -0.02342900075018406 -0.02609799988567829 0.9993849992752075
vn 0.23155200481414795 -0.09106499701738358 -0.968550980091095
vn -0.7957000136375427 -0.04794500023126602 0.6037899851799011
vn -0.9212440252304077 -0.11723099648952484 -0.3708989918231964
vn -0.13581499457359314 -0.04964800179004669 0.9894890189170837
f 1//1 2//2 3//3 4//4 5//5 6//6
f 2//2 1//1 7//7 8//8
f 1//1 9//9 10//10 7//7
f 3//3 2//2 8//8 11//11
f 4//4 3//3 11//11 12//12
f 5//5 4//4 12//12 13//13
f 9//9 5//5 13//13 10//10
f 6//6 14//14 15//15 16//16
f 17//17 18//18 6//6 16//16
f 18//18 19//19 14//14 6//6
f 8//8 7//7 20//20 21//21
f 7//7 10//10 22//22 20//20
f 11//11 8//8 21//21 23//23
f 10//10 13//13 24//24 22//22
f 12//12 11//11 23//23 25//25
f 13//13 12//12 25//25 24//24
f 19//19 26//26 27//27 14//14
f 14//14 27//27 28//28 15//15
f 29//29 30//30 15//15 28//28
f 30//30 17//17 16//16 15//15
f 31//31 32//32 17//17 30//30
f 32//32 33//33 18//18 17//17
f 33//33 34//34 19//19 18//18
f 34//34 35//35 26//26 19//19
f 21//21 20//20 36//36 37//37
f 20//20 22//22 38//38 36//36
f 23//23 21//21 37//37 39//39
f 22//22 24//24 40//40 38//38
f 25//25 23//23 39//39 41//41
f 24//24 25//25 41//41 40//40
f 26//26 29//29 28//28 27//27
f 35//35 42//42 29//29 26//26
f 42//42 31//31 30//30 29//29
f 38//38 40//40 31//31 42//42
f 40//40 41//41 32//32 31//31
f 41//41 39//39 33//33 32//32
f 39//39 37//37 34//34 33//33
f 37//37 36//36 35//35 34//34
f 36//36 38//38 42//42 35//35
