# Generated by Visualization Toolkit
v -0.00761799979954958 -0.07631900161504745 0.019802000373601913
v -0.012697000056505203 -0.08011399954557419 0.02101000025868416
v -0.0074350000359117985 -0.08515000343322754 0.01814199984073639
v -0.007830999791622162 -0.08323399722576141 0.020521000027656555
v -0.007480999920517206 -0.0694039985537529 0.019481999799609184
v -0.012497000396251678 -0.07300499826669693 0.021040000021457672
v 0.00011700000322889537 -0.0785989984869957 0.021474000066518784
v -0.003063000040128827 -0.08413100242614746 0.017823999747633934
v 0.0009379999828524888 -0.07129400223493576 0.02052599936723709
v -0.009808000177145004 -0.0796160027384758 0.010587000288069248
v -0.007402999792248011 -0.08490099757909775 0.014821999706327915
v -0.011537999846041203 -0.07317300140857697 0.008039000444114208
v -0.004933000076562166 -0.08453299850225449 0.015381000004708767
v -0.008356000296771526 -0.06269200146198273 0.017897000536322594
v -0.013217000290751457 -0.06623400002717972 0.01808900013566017
v -0.0016749999485909939 -0.06494399905204773 0.017326999455690384
v -0.012035000137984753 -0.06605999916791916 0.0074339997954666615
v 0.0012019999558106065 -0.08025799691677094 0.018580999225378036
v -0.0034729999024420977 -0.08501499891281128 0.016628000885248184
v 0.001970000099390745 -0.07363200187683105 0.01647000014781952
v -0.0006590000120922923 -0.06645099818706512 0.015177999623119831
v -0.005770999938249588 -0.07948499917984009 0.008210999891161919
v -0.007108999881893396 -0.08497100323438644 0.012709000147879124
v -0.00519500020891428 -0.07270599901676178 0.0060709998942911625
v -0.006889000069350004 -0.06563399732112885 0.005526999942958355
v -0.0025110000278800726 -0.08460400253534317 0.011486999690532684
v -0.0021039999555796385 -0.08377400040626526 0.009665999561548233
v -0.009278999641537666 -0.05597199872136116 0.016137000173330307
v -0.013476000167429447 -0.05920099839568138 0.01581300050020218
v -0.00446499977260828 -0.05824799835681915 0.015150000341236591
v -0.01234500017017126 -0.05881199985742569 0.007431000005453825
v -0.0026340000331401825 -0.05963100120425224 0.01384500041604042
v -0.009270000271499157 -0.0588579997420311 0.0047889999113976955
v 0.0026489999145269394 -0.07957299798727036 0.010870000347495079
v 0.003725999966263771 -0.07302600145339966 0.010320999659597874
v -0.0002690000110305846 -0.06663200259208679 0.010734000243246555
v -0.0035470000002533197 -0.06057000160217285 0.00901199970394373
v 0.002326000016182661 -0.07914900034666061 0.006283999886363745
v 0.0020669999066740274 -0.07196100056171417 0.005789999850094318
v -0.0032389999832957983 -0.06773100048303604 0.007965000346302986
v -0.005032000131905079 -0.06029000133275986 0.007275999989360571
v -0.009499000385403633 -0.04911699891090393 0.014948000200092793
v -0.013983000069856644 -0.05214599892497063 0.013611000031232834
v -0.005714999977499247 -0.05090000107884407 0.014196000061929226
v -0.01304600015282631 -0.051674000918865204 0.007156999781727791
v -0.0034920000471174717 -0.05272499844431877 0.01157000008970499
v -0.011284999549388885 -0.05194399878382683 0.005016999784857035
v -0.004511999897658825 -0.05371199920773506 0.007468000054359436
v -0.005994000006467104 -0.05288799852132797 0.005787999834865332
v -0.00902399979531765 -0.04226899892091751 0.01384000014513731
v -0.013836000114679337 -0.04494599997997284 0.012063000351190567
v -0.005276000127196312 -0.04360700026154518 0.012508000247180462
v -0.013439999893307686 -0.04454600065946579 0.006583999842405319
v -0.0037690000608563423 -0.045559998601675034 0.009939000010490417
v -0.012020999565720558 -0.04477600008249283 0.005200999788939953
v -0.004482999909669161 -0.04644300043582916 0.0063240001909434795
v -0.006692999973893166 -0.04588000103831291 0.004414000082761049
v -0.008174999617040157 -0.035454001277685165 0.012728000059723854
v -0.012946000322699547 -0.03763499855995178 0.011136000044643879
v -0.004302999936044216 -0.036242999136447906 0.01145199965685606
v -0.013255000114440918 -0.03739999979734421 0.005849000066518784
v -0.0036100000143051147 -0.038217999041080475 0.009479999542236328
v -0.011730000376701355 -0.03753799945116043 0.0047109997831285
v -0.004526999779045582 -0.03914099931716919 0.0056570000015199184
v -0.006647999864071608 -0.038621000945568085 0.0033839999232441187
v -0.007548999972641468 -0.028567999601364136 0.012013000436127186
v -0.011900999583303928 -0.030357999727129936 0.010355999693274498
v -0.00392200006172061 -0.028769999742507935 0.011819000355899334
v -0.012636000290513039 -0.030280999839305878 0.005162000190466642
v -0.00267699989490211 -0.030937999486923218 0.009242000058293343
v -0.010970000177621841 -0.030403999611735344 0.0038219999987632036
v -0.004112999886274338 -0.03202600032091141 0.0050760000012815
v -0.005781000014394522 -0.0312809981405735 0.002553999889642
v -0.00712599977850914 -0.021622000262141228 0.011803999543190002
v -0.010954000055789948 -0.02304599992930889 0.009704000316560268
v -0.0043830000795423985 -0.02136100083589554 0.012354999780654907
v -0.01199399959295988 -0.023155000060796738 0.0046339998953044415
v -0.001475999946705997 -0.023730000481009483 0.008359000086784363
v -0.01015899982303381 -0.023288000375032425 0.0028460000175982714
v -0.0023089998867362738 -0.025129999965429306 0.00395399983972311
v -0.004302999936044216 -0.02406900003552437 0.0015999999595806003
v -0.006583999842405319 -0.014689000323414803 0.01202400028705597
v -0.010696999728679657 -0.01572199910879135 0.00890399981290102
v -0.0038300000596791506 -0.013624999672174454 0.012407000176608562
v -0.011707999743521214 -0.01599299907684326 0.004265999887138605
v -0.000007999999979801942 -0.01659099943935871 0.007573999930173159
v -0.009571000002324581 -0.016203999519348145 0.0015450000064447522
v -0.0007719999994151294 -0.0182460006326437 0.0025049999821931124
v -0.0035210000351071358 -0.017117999494075775 -0.0003539999888744205
v -0.006554000079631805 -0.007734999991953373 0.011950000189244747
v -0.011814000084996223 -0.00836899969726801 0.00786999985575676
v 0.0008410000009462237 -0.007734999991953373 0.01345600001513958
v -0.011862999759614468 -0.008898000232875347 0.003197999903932214
v 0.0029460000805556774 -0.009982000105082989 0.00874400045722723
v -0.009604999795556068 -0.009296000003814697 -0.0005869999877177179
v 0.001231999951414764 -0.01158900000154972 0.0008800000068731606
v -0.003978999797254801 -0.007164999842643738 -0.0028649999294430017
v -0.005446000024676323 -0.0014669999945908785 0.010773000307381153
v -0.012268999591469765 -0.0012799999676644802 0.007672999985516071
v 0.004676999989897013 -0.001496999990195036 0.01241500023752451
v -0.00901699997484684 -0.00020399999630171806 0.00494999997317791
v 0.0038159999530762434 -0.002822000067681074 0.008473999798297882
v -0.009119999594986439 -0.0009950000094249845 0.0019109999993816018
v 0.0011139999842271209 -0.004346999805420637 -0.0005959999980404973
v -0.005177999846637249 -0.004637999925762415 -0.003739000065252185
v -0.005299000069499016 -0.0012959999730810523 0.0037690000608563423
vn 0.09241300076246262 -0.006157000083476305 0.9957020282745361
vn -0.5077090263366699 -0.47096800804138184 0.7214019894599915
vn 0.16301299631595612 -0.8793630003929138 0.447378009557724
vn 0.2524459958076477 -0.48761698603630066 0.8357629776000977
vn 0.03238200023770332 0.16857199370861053 0.9851570129394531
vn -0.745809018611908 -0.0027389999013394117 0.6661549806594849
vn 0.37456101179122925 -0.18494999408721924 0.9085689783096313
vn -0.12951800227165222 -0.6469820141792297 0.75142502784729
vn 0.614700973033905 0.21122699975967407 0.7599509954452515
vn -0.6893979907035828 -0.4579170048236847 -0.561286985874176
vn -0.2751440107822418 -0.9119439721107483 -0.304392009973526
vn -0.7597879767417908 -0.2334579974412918 -0.606810986995697
vn -0.06433700025081635 -0.9916329979896545 0.11191300302743912
vn -0.010116999968886375 0.3058770000934601 0.9520170092582703
vn -0.8341040015220642 0.17719000577926636 0.5223730206489563
vn 0.5894349813461304 0.4003170132637024 0.7016500234603882
vn -0.8288050293922424 -0.1609330028295517 -0.535893976688385
vn 0.834496021270752 -0.4767630100250244 0.2762489914894104
vn 0.10493099689483643 -0.9266070127487183 0.36109399795532227
vn 0.9652330279350281 0.17725500464439392 0.19210900366306305
vn 0.9134560227394104 0.38710901141166687 0.12547700107097626
vn -0.23459899425506592 -0.3362250030040741 -0.912093997001648
vn -0.07638700306415558 -0.8768100142478943 -0.4747300148010254
vn -0.019393999129533768 0.10305199772119522 -0.9944869875907898
vn 0.04882600158452988 0.14750899374485016 -0.9878550171852112
vn 0.29934701323509216 -0.9450880289077759 -0.1311510056257248
vn 0.00811699964106083 -0.8865330219268799 -0.46259400248527527
vn -0.033243998885154724 0.26008498668670654 0.9650130271911621
vn -0.8663769960403442 0.12326599657535553 0.483938992023468
vn 0.5619149804115295 0.2993200123310089 0.7711420059204102
vn -0.8884580135345459 -0.1707029938697815 -0.4260309934616089
vn 0.9518359899520874 0.2607409954071045 0.161312997341156
vn -0.23119300603866577 -0.19274699687957764 -0.9536240100860596
vn 0.8931180238723755 -0.4479529857635498 -0.04097599908709526
vn 0.9624860286712646 0.15438300371170044 -0.223129004240036
vn 0.8548539876937866 0.32488200068473816 -0.4045700132846832
vn 0.8826670050621033 0.11825300008058548 -0.4548789858818054
vn 0.44690001010894775 -0.46275100111961365 -0.7655990123748779
vn 0.6291959881782532 0.2968420088291168 -0.7183290123939514
vn 0.6507390141487122 0.4009130001068115 -0.6448310017585754
vn 0.562745988368988 0.013659999705851078 -0.8265169858932495
vn -0.058768000453710556 0.19891400635242462 0.9782530069351196
vn -0.8775839805603027 0.0854720026254654 0.47174298763275146
vn 0.6219279766082764 0.14966799318790436 0.768638014793396
vn -0.907073974609375 -0.1107959970831871 -0.40612998604774475
vn 0.9846029877662659 0.08043300360441208 0.15520000457763672
vn -0.421970009803772 -0.1766500025987625 -0.8892329931259155
vn 0.869156002998352 -0.03641900047659874 -0.4931949973106384
vn 0.35331299901008606 -0.15300600230693817 -0.9229080080986023
vn -0.02975899912416935 0.16070100665092468 0.9865540266036987
vn -0.8411030173301697 0.09900099784135818 0.5317370295524597
vn 0.6757299900054932 0.06095200031995773 0.734624981880188
vn -0.9067929983139038 -0.031106999143958092 -0.42042699456214905
vn 0.9929839968681335 -0.013275999575853348 0.11750199645757675
vn -0.45506200194358826 -0.10944700241088867 -0.8837080001831055
vn 0.8689050078392029 -0.058455999940633774 -0.49151501059532166
vn 0.2533609867095947 -0.14813600480556488 -0.9559620022773743
vn -0.10383400321006775 0.13840800523757935 0.9849169850349426
vn -0.8019049763679504 0.1297360062599182 0.5831959843635559
vn 0.6149839758872986 0.021278999745845795 0.7882519960403442
vn -0.918828010559082 0.020361000671982765 -0.39413198828697205
vn 0.9923580288887024 -0.08013399690389633 0.0938350036740303
vn -0.4474309980869293 -0.06967800110578537 -0.8916000127792358
vn 0.8869730234146118 -0.08163599669933319 -0.4545480012893677
vn 0.3026599884033203 -0.10904999822378159 -0.9468399882316589
vn -0.27362000942230225 0.11218699812889099 0.9552729725837708
vn -0.8025990128517151 0.13887299597263336 0.580128014087677
vn 0.4529390037059784 0.0233169998973608 0.8912370204925537
vn -0.9425510168075562 0.04393000155687332 -0.3311600089073181
vn 0.979449987411499 -0.10021699965000153 0.17502400279045105
vn -0.46262800693511963 -0.05472699925303459 -0.8848620057106018
vn 0.8823410272598267 -0.17865300178527832 -0.4353809952735901
vn 0.2983570098876953 -0.16001300513744354 -0.9409459829330444
vn -0.37641000747680664 0.06922599673271179 0.9238629937171936
vn -0.830344021320343 0.10797499865293503 0.5466910004615784
vn 0.3631179928779602 -0.00889899954199791 0.9317010045051575
vn -0.9655429720878601 0.024215999990701675 -0.2591150104999542
vn 0.9538620114326477 -0.11852599680423737 0.275860995054245
vn -0.5297709703445435 -0.09735599905252457 -0.8425340056419373
vn 0.8646889925003052 -0.2574029862880707 -0.4313429892063141
vn 0.21486200392246246 -0.25256600975990295 -0.9434220194816589
vn -0.4033919870853424 0.0295609999448061 0.9145500063896179
vn -0.8724070191383362 0.041958000510931015 0.4869750142097473
vn 0.30750998854637146 -0.19094300270080566 0.9321900010108948
vn -0.9702640175819397 -0.04672899842262268 -0.23749500513076782
vn 0.8997859954833984 -0.34042200446128845 0.27294299006462097
vn -0.5954779982566833 -0.17845900356769562 -0.78329998254776
vn 0.7987840175628662 -0.3361760079860687 -0.4989289939403534
vn 0.10524400323629379 -0.2982630133628845 -0.9486640095710754
vn -0.35419800877571106 0.060568999499082565 0.9332069754600525
vn -0.9245740175247192 0.11916700005531311 0.36188599467277527
vn 0.38580000400543213 -0.309143990278244 0.8692460060119629
vn -0.9512659907341003 0.061202000826597214 -0.30223700404167175
vn 0.8987259864807129 -0.43655499815940857 0.041370999068021774
vn -0.8465499877929688 -0.23908500373363495 -0.47559601068496704
vn 0.7492380142211914 -0.28206101059913635 -0.599236011505127
vn -0.09659899771213531 -0.3823939859867096 -0.918936014175415
vn -0.18604299426078796 0.7404410243034363 0.6458600163459778
vn -0.2938680052757263 0.8522610068321228 0.43277299404144287
vn 0.5242210030555725 0.79169100522995 0.31371599435806274
vn -0.48210400342941284 0.8721500039100647 -0.08324799686670303
vn 0.858659029006958 0.40712499618530273 -0.3113740086555481
vn -0.6386209726333618 0.6491889953613281 -0.4131790101528168
vn 0.6163070201873779 0.5141770243644714 -0.5964789986610413
vn 0.014039999805390835 0.5040640234947205 -0.8635519742965698
vn 0.22275599837303162 0.9673140048980713 -0.12117300182580948
f 1//1 2//2 3//3 4//4
f 5//5 6//6 2//2 1//1
f 7//7 1//1 4//4 8//8
f 9//9 5//5 1//1 7//7
f 2//2 10//10 11//11 3//3
f 6//6 12//12 10//10 2//2
f 3//3 11//11 13//13
f 4//4 3//3 13//13
f 8//8 4//4 13//13
f 14//14 15//15 6//6 5//5
f 16//16 14//14 5//5 9//9
f 15//15 17//17 12//12 6//6
f 18//18 7//7 8//8 19//19
f 20//20 9//9 7//7 18//18
f 19//19 8//8 13//13
f 21//21 16//16 9//9 20//20
f 10//10 22//22 23//23 11//11
f 12//12 24//24 22//22 10//10
f 11//11 23//23 13//13
f 17//17 25//25 24//24 12//12
f 26//26 19//19 13//13
f 27//27 26//26 13//13
f 23//23 27//27 13//13
f 28//28 29//29 15//15 14//14
f 30//30 28//28 14//14 16//16
f 29//29 31//31 17//17 15//15
f 32//32 30//30 16//16 21//21
f 31//31 33//33 25//25 17//17
f 34//34 18//18 26//26
f 35//35 20//20 18//18 34//34
f 19//19 26//26 18//18
f 36//36 21//21 20//20 35//35
f 37//37 32//32 21//21 36//36
f 22//22 38//38 27//27 23//23
f 24//24 39//39 38//38 22//22
f 25//25 40//40 39//39 24//24
f 33//33 41//41 40//40 25//25
f 38//38 34//34 26//26 27//27
f 42//42 43//43 29//29 28//28
f 44//44 42//42 28//28 30//30
f 43//43 45//45 31//31 29//29
f 46//46 44//44 30//30 32//32
f 45//45 47//47 33//33 31//31
f 48//48 46//46 32//32 37//37
f 47//47 49//49 41//41 33//33
f 39//39 35//35 34//34 38//38
f 40//40 36//36 35//35 39//39
f 41//41 37//37 36//36 40//40
f 49//49 48//48 37//37 41//41
f 50//50 51//51 43//43 42//42
f 52//52 50//50 42//42 44//44
f 51//51 53//53 45//45 43//43
f 54//54 52//52 44//44 46//46
f 53//53 55//55 47//47 45//45
f 56//56 54//54 46//46 48//48
f 55//55 57//57 49//49 47//47
f 57//57 56//56 48//48 49//49
f 58//58 59//59 51//51 50//50
f 60//60 58//58 50//50 52//52
f 59//59 61//61 53//53 51//51
f 62//62 60//60 52//52 54//54
f 61//61 63//63 55//55 53//53
f 64//64 62//62 54//54 56//56
f 63//63 65//65 57//57 55//55
f 65//65 64//64 56//56 57//57
f 66//66 67//67 59//59 58//58
f 68//68 66//66 58//58 60//60
f 67//67 69//69 61//61 59//59
f 70//70 68//68 60//60 62//62
f 69//69 71//71 63//63 61//61
f 72//72 70//70 62//62 64//64
f 71//71 73//73 65//65 63//63
f 73//73 72//72 64//64 65//65
f 74//74 75//75 67//67 66//66
f 76//76 74//74 66//66 68//68
f 75//75 77//77 69//69 67//67
f 78//78 76//76 68//68 70//70
f 77//77 79//79 71//71 69//69
f 80//80 78//78 70//70 72//72
f 79//79 81//81 73//73 71//71
f 81//81 80//80 72//72 73//73
f 82//82 83//83 75//75 74//74
f 84//84 82//82 74//74 76//76
f 83//83 85//85 77//77 75//75
f 86//86 84//84 76//76 78//78
f 85//85 87//87 79//79 77//77
f 88//88 86//86 78//78 80//80
f 87//87 89//89 81//81 79//79
f 89//89 88//88 80//80 81//81
f 90//90 91//91 83//83 82//82
f 92//92 90//90 82//82 84//84
f 91//91 93//93 85//85 83//83
f 94//94 92//92 84//84 86//86
f 93//93 95//95 87//87 85//85
f 96//96 94//94 86//86 88//88
f 95//95 97//97 89//89 87//87
f 97//97 96//96 88//88 89//89
f 98//98 99//99 91//91 90//90
f 100//100 98//98 90//90 92//92
f 99//99 101//101 93//93 91//91
f 102//102 100//100 92//92 94//94
f 101//101 103//103 95//95 93//93
f 104//104 102//102 94//94 96//96
f 103//103 105//105 97//97 95//95
f 105//105 104//104 96//96 97//97
f 106//106 99//99 98//98
f 106//106 98//98 100//100
f 106//106 101//101 99//99
f 106//106 100//100 102//102
f 106//106 103//103 101//101
f 106//106 102//102 104//104
f 106//106 105//105 103//103
f 106//106 104//104 105//105
