# Generated by Visualization Toolkit
v 0.004637000150978565 -0.10104800015687943 -0.03911000117659569
v 0.004947000183165073 -0.10064499825239182 -0.03628399968147278
v 0.0068259998224675655 -0.1061210036277771 -0.03770099952816963
v 0.0074189999140799046 -0.10600399971008301 -0.03890100121498108
v 0.0022780001163482666 -0.09616699814796448 -0.038763001561164856
v 0.0038449999410659075 -0.0951479971408844 -0.03588699921965599
v 0.0020779999904334545 -0.09860099852085114 -0.03943299874663353
v 0.003361999988555908 -0.10371699929237366 -0.038975998759269714
v 0.0013670000480487943 -0.09338700026273727 -0.03968000039458275
v 0.0030380000825971365 -0.10006099939346313 -0.035002999007701874
v 0.005086999852210283 -0.10501600056886673 -0.03525400161743164
v 0.0026539999525994062 -0.09450799971818924 -0.03442300111055374
v 0.0032140000257641077 -0.10975799709558487 -0.0356299988925457
v 0.003498000092804432 -0.10930600017309189 -0.03854399919509888
v 0.002125999890267849 -0.09015700221061707 -0.03873800113797188
v 0.0026579999830573797 -0.0894860029220581 -0.03615900129079819
v 0.0013310000067576766 -0.08807200193405151 -0.039799001067876816
v 0.0020119999535381794 -0.0890519991517067 -0.03386500105261803
v -0.0001849999971454963 -0.09872099757194519 -0.0384880006313324
v 0.0013000000035390258 -0.10389299690723419 -0.03886200115084648
v -0.0012710000155493617 -0.09345299750566483 -0.03841499984264374
v -0.0017559999832883477 -0.08810999989509583 -0.03899800032377243
v 0.0028699999675154686 -0.10205899924039841 -0.030680999159812927
v 0.00573199987411499 -0.10685600340366364 -0.03081499971449375
v 0.0008619999862276018 -0.09667500108480453 -0.030845999717712402
v 0.0028019999153912067 -0.10994900017976761 -0.03354300186038017
v 0.0011449999874457717 -0.09080500155687332 -0.03025900013744831
v 0.0018660000059753656 -0.1096860021352768 -0.03764300048351288
v 0.0021069999784231186 -0.11011800169944763 -0.03222399950027466
v -0.0011050000321120024 -0.10886500030755997 -0.03356099873781204
v -0.0002589999930933118 -0.10488499701023102 -0.03678499907255173
v 0.0026179999113082886 -0.08399199694395065 -0.038874998688697815
v 0.002580000087618828 -0.08371700346469879 -0.03586899861693382
v 0.001272000023163855 -0.08275599777698517 -0.040015000849962234
v 0.001867000013589859 -0.08357200026512146 -0.033323999494314194
v -0.0016570000443607569 -0.0827149972319603 -0.039521001279354095
v 0.0008360000210814178 -0.0850059986114502 -0.029962999746203423
v -0.0011899999808520079 -0.09949299693107605 -0.03617899864912033
v -0.0026179999113082886 -0.09425400197505951 -0.035861000418663025
v -0.0035439999774098396 -0.0889040008187294 -0.03582900017499924
v -0.004015999846160412 -0.08344899863004684 -0.03583599999547005
v 0.000707999977748841 -0.09975100308656693 -0.031092999503016472
v 0.0014850000152364373 -0.10496000200510025 -0.03136099874973297
v 9.999999974752427e-7 -0.09454599767923355 -0.03082999959588051
v -0.0008420000085607171 -0.08930899947881699 -0.030559999868273735
v -0.0014479999663308263 -0.08406899869441986 -0.03017999976873398
v -0.0006270000012591481 -0.10380399972200394 -0.03353000059723854
v -0.0013749999925494194 -0.09887900203466415 -0.03283099830150604
v 0.0034310000482946634 -0.07819999754428864 -0.03896800056099892
v 0.0034409998916089535 -0.07795999944210052 -0.03619199991226196
v 0.0015650000423192978 -0.07749900221824646 -0.04059400036931038
v 0.0024949999060481787 -0.07802499830722809 -0.032917000353336334
v -0.0015269999857991934 -0.07733199745416641 -0.0399710014462471
v 0.001183000043965876 -0.0790959969162941 -0.029834000393748283
v -0.0045369998551905155 -0.078015998005867 -0.03580600023269653
v -0.0006820000126026571 -0.07897000014781952 -0.029218999668955803
v -0.002509000012651086 -0.09395900368690491 -0.03224800154566765
v -0.0033390000462532043 -0.08896200358867645 -0.03215600177645683
v -0.0037219999358057976 -0.08391299843788147 -0.032058000564575195
v -0.004131000023335218 -0.07885599881410599 -0.03192500025033951
v 0.0053460001945495605 -0.07273799926042557 -0.03864600136876106
v 0.006016999948769808 -0.07287000119686127 -0.03611399978399277
v 0.002684999955818057 -0.07237199693918228 -0.04095400124788284
v 0.0055160000920295715 -0.0737060010433197 -0.03203999996185303
v -0.0023610000498592854 -0.07208400219678879 -0.04093199968338013
v 0.003696999978274107 -0.07414299994707108 -0.02842799946665764
v -0.004889999981969595 -0.07257500290870667 -0.03609500080347061
v -0.000678999989759177 -0.07394299656152725 -0.027715999633073807
v -0.004786000121384859 -0.07383400201797485 -0.03180199861526489
v 0.004468000028282404 -0.06700100004673004 -0.03924800083041191
v 0.006089999806135893 -0.0673540011048317 -0.036504000425338745
v 0.0053449999541044235 -0.06821399927139282 -0.03187200054526329
v -0.001769999973475933 -0.06695300340652466 -0.039597999304533005
v 0.004104999825358391 -0.06842599809169769 -0.028162000700831413
v -0.004296000115573406 -0.06726700067520142 -0.035009998828172684
v -0.0003929999948013574 -0.06876599788665771 -0.027560999616980553
v -0.004255999810993671 -0.06884799897670746 -0.031109999865293503
v 0.0015170000260695815 -0.06867799907922745 -0.03444499894976616
vn 0.8586260080337524 0.31122300028800964 -0.40731000900268555
vn 0.9469730257987976 0.22833099961280823 0.226065993309021
vn 0.8766149878501892 -0.09967599809169769 0.470755010843277
vn 0.7599350214004517 -0.30626800656318665 -0.5733230113983154
vn 0.9371110200881958 0.21827499568462372 -0.2723599970340729
vn 0.9907559752464294 0.1312980055809021 0.03409799933433533
vn 0.09707099944353104 0.07113900035619736 -0.9927319884300232
vn -0.06743399798870087 -0.06909099966287613 -0.9953290224075317
vn 0.4263339936733246 0.12352699786424637 -0.8960919976234436
vn 0.7703390121459961 0.2559340000152588 0.5840169787406921
vn 0.9059969782829285 -0.03706999868154526 0.4216580092906952
vn 0.8997610211372375 0.0802140012383461 0.42894700169563293
vn 0.6020259857177734 -0.7953230142593384 0.07089599967002869
vn 0.010551000013947487 -0.6141610145568848 -0.789110004901886
vn 0.9037140011787415 0.042114999145269394 -0.4260599911212921
vn 0.9944959878921509 0.07354100048542023 0.07463199645280838
vn 0.29212701320648193 -0.031230000779032707 -0.9558699727058411
vn 0.965794026851654 0.013485999777913094 0.2589600086212158
vn -0.6633210182189941 -0.1740580052137375 -0.7278109788894653
vn -0.5334830284118652 -0.21272200345993042 -0.8186240196228027
vn -0.6326029896736145 -0.11320599913597107 -0.7661579847335815
vn -0.5719349980354309 -0.0640069991350174 -0.8177980184555054
vn 0.37884798645973206 0.20564599335193634 0.9023209810256958
vn 0.6049090027809143 -0.3568420112133026 0.7118629813194275
vn 0.4497080147266388 0.026287000626325607 0.8927890062332153
vn 0.5487040281295776 -0.8333950042724609 -0.06614600121974945
vn 0.5393949747085571 -0.06897299736738205 0.8392230272293091
vn -0.43764200806617737 -0.8581579923629761 -0.26839199662208557
vn -0.09020400047302246 -0.7173659801483154 0.6908320188522339
vn -0.7178940176963806 -0.6233810186386108 0.3098759949207306
vn -0.9106460213661194 -0.29305100440979004 -0.2912810146808624
vn 0.899599015712738 -0.08402299880981445 -0.42855799198150635
vn 0.9875540137290955 -0.06665600091218948 0.1424580067396164
vn 0.2397419959306717 -0.08387800306081772 -0.9672060012817383
vn 0.9511169791221619 -0.03926299884915352 0.3063249886035919
vn -0.544946014881134 -0.05547500029206276 -0.8366339802742004
vn 0.6144779920578003 -0.10042800009250641 0.7825160026550293
vn -0.9477739930152893 -0.2114430069923401 -0.23878300189971924
vn -0.9520699977874756 -0.19256900250911713 -0.23765499889850616
vn -0.9627199769020081 -0.11211899667978287 -0.24616900086402893
vn -0.9631829857826233 -0.06591799855232239 -0.2606379985809326
vn -0.41995298862457275 -0.15001900494098663 0.8950610160827637
vn -0.48388299345970154 -0.10875300318002701 0.868349015712738
vn -0.36550500988960266 -0.1221420019865036 0.9227610230445862
vn -0.392084002494812 -0.08746500313282013 0.9157620072364807
vn -0.2981550097465515 -0.12001500278711319 0.9469429850578308
vn -0.8982589840888977 -0.19726799428462982 0.3927049934864044
vn -0.870061993598938 -0.2363480031490326 0.43258699774742126
vn 0.8459810018539429 -0.2331629991531372 -0.47953200340270996
vn 0.9430199861526489 -0.3327159881591797 0.003639000002294779
vn 0.28624799847602844 -0.12018600106239319 -0.9505879878997803
vn 0.9101679921150208 -0.3285149931907654 0.25233399868011475
vn -0.5220699906349182 -0.1159529983997345 -0.8449839949607849
vn 0.6096360087394714 -0.3015269935131073 0.7330930233001709
vn -0.9608340263366699 -0.10825999826192856 -0.2551040053367615
vn -0.2498359978199005 -0.19236800074577332 0.9489870071411133
vn -0.8434020280838013 -0.21276800334453583 0.4933589994907379
vn -0.872651994228363 -0.11751800030469894 0.4739910066127777
vn -0.8822140097618103 -0.08582799881696701 0.4629589915275574
vn -0.8990899920463562 -0.09220899641513824 0.42794299125671387
vn 0.7867640256881714 -0.16645100712776184 -0.5943869948387146
vn 0.946927011013031 -0.27546700835227966 -0.16567100584506989
vn 0.35966500639915466 0.016658000648021698 -0.93293297290802
vn 0.9318400025367737 -0.2960740029811859 0.2097959965467453
vn -0.499796986579895 0.06408099830150604 -0.863768994808197
vn 0.5927180051803589 -0.2652139961719513 0.7604910135269165
vn -0.9733859896659851 0.008682000450789928 -0.22900499403476715
vn -0.3075520098209381 -0.12837499380111694 0.9428319931030273
vn -0.9136369824409485 -0.02790199965238571 0.40557199716567993
vn 0.4514729976654053 0.7058519721031189 -0.5458430051803589
vn 0.6072090268135071 0.7944869995117188 0.00930199958384037
vn 0.6213740110397339 0.7433410286903381 0.24766699969768524
vn -0.22736600041389465 0.9112030267715454 -0.343531996011734
vn 0.3585290014743805 0.7651039958000183 0.534857988357544
vn -0.5524049997329712 0.831794023513794 0.054482001811265945
vn -0.24140599370002747 0.7236850261688232 0.6465319991111755
vn -0.5495200157165527 0.7209330201148987 0.42223599553108215
vn -0.02963400073349476 0.9865909814834595 0.16050100326538086
f 1//1 2//2 3//3 4//4
f 5//5 6//6 2//2 1//1
f 7//7 1//1 4//4 8//8
f 9//9 5//5 1//1 7//7
f 2//2 10//10 11//11 3//3
f 6//6 12//12 10//10 2//2
f 3//3 11//11 13//13
f 4//4 3//3 13//13
f 13//13 14//14 4//4
f 14//14 8//8 4//4
f 15//15 16//16 6//6 5//5
f 17//17 15//15 5//5 9//9
f 16//16 18//18 12//12 6//6
f 19//19 7//7 8//8 20//20
f 21//21 9//9 7//7 19//19
f 8//8 14//14 20//20
f 22//22 17//17 9//9 21//21
f 10//10 23//23 24//24 11//11
f 12//12 25//25 23//23 10//10
f 11//11 24//24 26//26 13//13
f 18//18 27//27 25//25 12//12
f 28//28 13//13 26//26 29//29 30//30
f 13//13 28//28 14//14
f 31//31 20//20 14//14 28//28
f 32//32 33//33 16//16 15//15
f 34//34 32//32 15//15 17//17
f 33//33 35//35 18//18 16//16
f 36//36 34//34 17//17 22//22
f 35//35 37//37 27//27 18//18
f 38//38 19//19 20//20 31//31
f 39//39 21//21 19//19 38//38
f 40//40 22//22 21//21 39//39
f 41//41 36//36 22//22 40//40
f 23//23 42//42 43//43 24//24
f 25//25 44//44 42//42 23//23
f 24//24 29//29 26//26
f 24//24 43//43 29//29
f 27//27 45//45 44//44 25//25
f 37//37 46//46 45//45 27//27
f 47//47 31//31 28//28 30//30
f 43//43 47//47 30//30 29//29
f 48//48 38//38 31//31 47//47
f 49//49 50//50 33//33 32//32
f 51//51 49//49 32//32 34//34
f 50//50 52//52 35//35 33//33
f 53//53 51//51 34//34 36//36
f 52//52 54//54 37//37 35//35
f 55//55 53//53 36//36 41//41
f 54//54 56//56 46//46 37//37
f 57//57 39//39 38//38 48//48
f 58//58 40//40 39//39 57//57
f 59//59 41//41 40//40 58//58
f 60//60 55//55 41//41 59//59
f 42//42 48//48 47//47 43//43
f 44//44 57//57 48//48 42//42
f 45//45 58//58 57//57 44//44
f 46//46 59//59 58//58 45//45
f 56//56 60//60 59//59 46//46
f 61//61 62//62 50//50 49//49
f 63//63 61//61 49//49 51//51
f 62//62 64//64 52//52 50//50
f 65//65 63//63 51//51 53//53
f 64//64 66//66 54//54 52//52
f 67//67 65//65 53//53 55//55
f 66//66 68//68 56//56 54//54
f 69//69 67//67 55//55 60//60
f 68//68 69//69 60//60 56//56
f 70//70 71//71 62//62 61//61
f 70//70 61//61 63//63
f 71//71 72//72 64//64 62//62
f 73//73 70//70 63//63 65//65
f 72//72 74//74 66//66 64//64
f 75//75 73//73 65//65 67//67
f 74//74 76//76 68//68 66//66
f 77//77 75//75 67//67 69//69
f 76//76 77//77 69//69 68//68
f 70//70 73//73 78//78
f 71//71 70//70 78//78
f 72//72 71//71 78//78
f 74//74 72//72 78//78
f 73//73 75//75 78//78
f 76//76 74//74 78//78
f 75//75 77//77 78//78
f 77//77 76//76 78//78
