# Generated by Visualization Toolkit
v 0.011837000027298927 -0.027605999261140823 -0.013919999822974205
v 0.011978000402450562 -0.02404800057411194 -0.01312899962067604
v 0.013152999803423882 -0.02742299996316433 -0.011730000376701355
v 0.011281999759376049 -0.030205000191926956 -0.013013999909162521
v 0.009948999620974064 -0.027267999947071075 -0.015843000262975693
v 0.010017000138759613 -0.02456199936568737 -0.01609399914741516
v 0.009850000031292439 -0.02302899956703186 -0.01522700022906065
v 0.012284000404179096 -0.025570999830961227 -0.010449999943375587
v 0.009619000367820263 -0.02644599974155426 -0.01075000036507845
v 0.007890000008046627 -0.023343000560998917 -0.012943999841809273
v 0.011997000314295292 -0.03145499899983406 -0.011629000306129456
v 0.011636000126600266 -0.028957000002264977 -0.009720000438392162
v 0.010572999715805054 -0.03280600160360336 -0.01293100044131279
v 0.008639000356197357 -0.03278300166130066 -0.01361900009214878
v 0.007087999954819679 -0.024188999086618423 -0.017410999163985252
v 0.0036170000676065683 -0.027264999225735664 -0.017142999917268753
v 0.006624999921768904 -0.03206200152635574 -0.014171999879181385
v 0.0060339998453855515 -0.029231000691652298 -0.015393000096082687
v 0.008496999740600586 -0.022631000727415085 -0.015673000365495682
v 0.0066709998063743114 -0.029147999361157417 -0.01092899963259697
v 0.005890999920666218 -0.025422999635338783 -0.011700999923050404
v 0.006539999973028898 -0.022766999900341034 -0.013387000188231468
v 0.010123999789357185 -0.03179699927568436 -0.010261000134050846
v 0.009014000184834003 -0.03356799855828285 -0.011509999632835388
v 0.008066999725997448 -0.03357499837875366 -0.01153200026601553
v 0.003942999988794327 -0.02418600022792816 -0.01810700073838234
v 0.004383999854326248 -0.029844999313354492 -0.01457899995148182
v 0.000901999999769032 -0.025326000526547432 -0.02112000063061714
v 0.0025110000278800726 -0.027977000921964645 -0.0156230004504323
v -0.0010779999429360032 -0.027651000767946243 -0.019175000488758087
v 0.005317999981343746 -0.03150099888443947 -0.011535000056028366
v 0.004162000026553869 -0.02131200022995472 -0.014654000289738178
v 0.004302999936044216 -0.021890999749302864 -0.01628899946808815
v 0.004887999966740608 -0.028300000354647636 -0.01089600007981062
v 0.009042000398039818 -0.031902000308036804 -0.010797999799251556
v 0.003312000073492527 -0.023886000737547874 -0.011315999552607536
v 0.0026499999221414328 -0.02659600041806698 -0.010143999941647053
v 0.0024530000519007444 -0.0203000009059906 -0.012426000088453293
v 0.003000000026077032 -0.02180599980056286 -0.01691100001335144
v 0.00101500004529953 -0.027758000418543816 -0.01297600008547306
v -0.001988000003620982 -0.023669999092817307 -0.022216999903321266
v -0.0015180000336840749 -0.02539600059390068 -0.02281700074672699
v -0.000881000014487654 -0.01729400083422661 -0.016902999952435493
v -0.006513999775052071 -0.02666899934411049 -0.02293499931693077
v -0.0040779998525977135 -0.026030000299215317 -0.023303000256419182
v -0.0008960000122897327 -0.02733900025486946 -0.007023000158369541
v -0.011246999725699425 -0.02751000039279461 -0.010638000443577766
v -0.008255000226199627 -0.028630999848246574 -0.020302999764680862
v -0.009483999572694302 -0.028542999178171158 -0.018376000225543976
v 0.0021039999555796385 -0.028192000463604927 -0.010041999630630016
v 0.0018269999418407679 -0.019355999305844307 -0.014453000389039516
v 0.0018629999831318855 -0.022640999406576157 -0.01002500019967556
v 0.0008609999786131084 -0.02794799953699112 -0.00865199975669384
v 0.0018579999450594187 -0.020304000005126 -0.00811500009149313
v 0.0016039999900385737 -0.017381999641656876 -0.00875800009816885
v 0.0017130000051110983 -0.012776999734342098 -0.010929999873042107
v 0.00020599999697878957 -0.027816999703645706 -0.007410999853163958
v -0.005547000095248222 -0.023300999775528908 -0.023691000416874886
v -0.00228299992159009 -0.014538000337779522 -0.015062999911606312
v -0.008251000195741653 -0.01895200088620186 -0.020509999245405197
v 0.00028899998869746923 -0.011602000333368778 -0.01346299983561039
v -0.009138000197708607 -0.026921000331640244 -0.01986199989914894
v 0.0008069999748840928 -0.019773999229073524 -0.006672999821603298
v -0.011885000392794609 -0.02371699921786785 -0.011428999714553356
v 0.0006440000142902136 -0.025299999862909317 -0.007462000008672476
v -0.011575000360608101 -0.027396000921726227 -0.012938999570906162
v 0.0013119999784976244 -0.015350000001490116 -0.007530999835580587
v 0.0008319999906234443 -0.009278999641537666 -0.009405000135302544
v -0.007794999983161688 -0.02239600010216236 -0.020671000704169273
v -0.002125999890267849 -0.012807999737560749 -0.013179999776184559
v -0.01028900034725666 -0.015154000371694565 -0.014140999875962734
v -0.010649999603629112 -0.016770999878644943 -0.012496000155806541
v -0.011227999813854694 -0.015131999738514423 -0.009572000242769718
v -0.009902999736368656 -0.013983000069856644 -0.009046999737620354
v -0.0017040000529959798 -0.010812999680638313 -0.008542000316083431
v -0.010058999992907047 -0.014240000396966934 -0.012035000137984753
vn 0.7823370099067688 -0.13067400455474854 -0.6089929938316345
vn 0.7735859751701355 0.6214590072631836 -0.12391199916601181
vn 0.9934520125389099 -0.07625699788331985 -0.08507899940013885
vn 0.6659870147705078 -0.29381000995635986 -0.6856650114059448
vn 0.4419260025024414 -0.2903119921684265 -0.8487759828567505
vn 0.6381210088729858 0.19035500288009644 -0.7460340261459351
vn 0.4672420024871826 0.8001229763031006 -0.3761489987373352
vn 0.433802992105484 0.48982399702072144 0.7562320232391357
vn -0.15315499901771545 0.45579400658607483 0.8768100142478943
vn 0.12166900187730789 0.8006849884986877 0.5866010189056396
vn 0.8314679861068726 -0.5382500290870667 0.13764899969100952
vn 0.3238080143928528 -0.06582800298929214 0.9438300132751465
vn 0.5553479790687561 -0.6420689821243286 -0.5285230278968811
vn 0.17682799696922302 -0.6979159712791443 -0.6940069794654846
vn 0.3253389894962311 0.17321699857711792 -0.929597020149231
vn 0.18799200654029846 -0.6244770288467407 -0.7580810189247131
vn -0.2994369864463806 -0.6935629844665527 -0.6552159786224365
vn -0.022897999733686447 -0.5267249941825867 -0.8497269749641418
vn 0.3050520122051239 0.9105200171470642 -0.2790989875793457
vn -0.1903509944677353 -0.049779001623392105 0.9804530143737793
vn 0.1356229931116104 0.3478879928588867 0.9276739954948425
vn 0.3513210117816925 0.7323819994926453 0.5832589864730835
vn 0.01539899967610836 -0.42836999893188477 0.9034720063209534
vn 0.17782999575138092 -0.9026569724082947 0.3919009864330292
vn -0.3047339916229248 -0.8276680111885071 0.47127801179885864
vn 0.41233399510383606 0.32731300592422485 -0.8502039909362793
vn -0.4590489864349365 -0.7284089922904968 -0.5086209774017334
vn 0.6123780012130737 0.020082000643014908 -0.7903100252151489
vn -0.23769700527191162 -0.9200639724731445 -0.3114210069179535
vn 0.1500989943742752 -0.9580079913139343 -0.2443159967660904
vn -0.49559199810028076 -0.7094200253486633 0.5011100172996521
vn 0.48886799812316895 0.8723509907722473 -0.0032770000398159027
vn 0.37028300762176514 0.7448580265045166 -0.5550469756126404
vn 0.20926499366760254 -0.010518999770283699 0.9778019785881042
vn -0.2834259867668152 -0.323855996131897 0.9026550054550171
vn 0.5368760228157043 0.32375600934028625 0.7790679931640625
vn 0.5230460166931152 0.06966099888086319 0.8494529724121094
vn 0.8979189991950989 0.36184200644493103 0.25062400102615356
vn 0.5118420124053955 0.6011710166931152 -0.6136860251426697
vn -0.397148996591568 -0.9155009984970093 -0.06427600234746933
vn 0.39264100790023804 0.38638800382614136 -0.8345879912376404
vn 0.4126020073890686 -0.2573550045490265 -0.8738009929656982
vn 0.43675801157951355 0.5539860129356384 -0.7087609767913818
vn -0.3085640072822571 -0.5098119974136353 -0.8030440211296082
vn 0.201556995511055 -0.3443169891834259 -0.9169629812240601
vn -0.10103800147771835 -0.6146529912948608 0.7822999954223633
vn -0.45960599184036255 -0.8123940229415894 0.3588559925556183
vn -0.4054490029811859 -0.7641459703445435 -0.5016899704933167
vn -0.6652759909629822 -0.7194910049438477 -0.1993499994277954
vn 0.10722099989652634 -0.6113150119781494 0.784089982509613
vn 0.7673360109329224 0.5430330038070679 -0.34104400873184204
vn 0.865028977394104 0.06782399863004684 0.49711599946022034
vn 0.7045080065727234 -0.4977709949016571 0.5058580040931702
vn 0.9334099888801575 -0.03461199998855591 0.3571380078792572
vn 0.9611899852752686 0.07426399737596512 0.26570600271224976
vn 0.9828889966011047 0.17094199359416962 -0.06861399859189987
vn 0.19453300535678864 -0.8274120092391968 0.5268269777297974
vn -0.268002986907959 0.21950499713420868 -0.9380789995193481
vn -0.10715000331401825 0.7035220265388489 -0.7025499939918518
vn -0.6273469924926758 0.3769550025463104 -0.6814259886741638
vn 0.3459480106830597 0.6227419972419739 -0.7017920017242432
vn -0.8494200110435486 -0.028421999886631966 -0.5269520282745361
vn 0.47308000922203064 0.03094100020825863 0.8804759979248047
vn -0.9442769885063171 0.026845000684261322 0.3280540108680725
vn 0.6879100203514099 -0.12074200063943863 0.7156820297241211
vn -0.9223669767379761 -0.37656599283218384 -0.08623699843883514
vn 0.46498000621795654 0.11851400136947632 0.8773530125617981
vn 0.3743169903755188 0.9251750111579895 0.06275700032711029
vn -0.8632979989051819 0.03633600100874901 -0.5033850073814392
vn -0.36424100399017334 0.8013399839401245 -0.4745340049266815
vn -0.5329210162162781 0.7185770273208618 -0.4468129873275757
vn -0.9613990187644958 0.1391409933567047 -0.23738400638103485
vn -0.9355549812316895 0.3340129852294922 0.11476799845695496
vn -0.42630499601364136 0.41211599111557007 0.8052480220794678
vn -0.3124690055847168 0.9290329813957214 0.19814500212669373
vn -0.696461021900177 0.6956070065498352 -0.17627400159835815
f 1//1 2//2 3//3
f 4//4 1//1 3//3
f 1//1 5//5 2//2
f 4//4 5//5 1//1
f 5//5 6//6 2//2
f 2//2 6//6 7//7
f 2//2 8//8 3//3
f 2//2 9//9 8//8
f 2//2 10//10 9//9
f 7//7 10//10 2//2
f 11//11 4//4 3//3
f 12//12 3//3 8//8
f 3//3 12//12 11//11
f 11//11 13//13 4//4
f 5//5 4//4 14//14
f 13//13 14//14 4//4
f 15//15 6//6 5//5
f 15//15 5//5 16//16
f 5//5 14//14 17//17
f 18//18 5//5 17//17
f 16//16 5//5 18//18
f 6//6 15//15 7//7
f 19//19 7//7 15//15
f 7//7 19//19 10//10
f 8//8 9//9 12//12
f 20//20 9//9 21//21
f 20//20 12//12 9//9
f 10//10 21//21 9//9
f 10//10 19//19 22//22
f 22//22 21//21 10//10
f 23//23 11//11 12//12
f 13//13 11//11 24//24
f 23//23 24//24 11//11
f 23//23 12//12 20//20
f 24//24 14//14 13//13
f 25//25 14//14 24//24
f 14//14 25//25 17//17
f 15//15 16//16 26//26
f 19//19 15//15 26//26
f 18//18 27//27 16//16
f 28//28 26//26 16//16
f 16//16 27//27 29//29
f 30//30 28//28 16//16
f 30//30 16//16 29//29
f 31//31 17//17 25//25
f 27//27 17//17 31//31
f 17//17 27//27 18//18
f 32//32 22//22 19//19
f 33//33 32//32 19//19
f 33//33 19//19 26//26
f 34//34 20//20 21//21
f 23//23 20//20 35//35
f 35//35 20//20 25//25
f 34//34 31//31 20//20
f 31//31 25//25 20//20
f 36//36 21//21 22//22
f 21//21 36//36 37//37
f 34//34 21//21 37//37
f 38//38 36//36 22//22
f 22//22 32//32 38//38
f 23//23 35//35 24//24
f 24//24 35//35 25//25
f 33//33 26//26 39//39
f 26//26 28//28 39//39
f 29//29 27//27 40//40
f 27//27 31//31 40//40
f 41//41 28//28 42//42
f 28//28 30//30 42//42
f 43//43 28//28 41//41
f 28//28 43//43 39//39
f 30//30 29//29 40//40
f 44//44 45//45 30//30
f 30//30 46//46 47//47
f 48//48 30//30 49//49
f 30//30 48//48 44//44
f 47//47 49//49 30//30
f 45//45 42//42 30//30
f 46//46 30//30 40//40
f 31//31 34//34 50//50
f 50//50 40//40 31//31
f 51//51 32//32 33//33
f 51//51 38//38 32//32
f 51//51 33//33 39//39
f 37//37 50//50 34//34
f 37//37 36//36 52//52
f 52//52 36//36 38//38
f 52//52 53//53 37//37
f 50//50 37//37 53//53
f 54//54 38//38 55//55
f 52//52 38//38 54//54
f 51//51 56//56 38//38
f 55//55 38//38 56//56
f 51//51 39//39 43//43
f 40//40 53//53 57//57
f 40//40 57//57 46//46
f 40//40 50//50 53//53
f 42//42 45//45 41//41
f 58//58 41//41 45//45
f 41//41 58//58 43//43
f 59//59 43//43 60//60
f 43//43 58//58 60//60
f 43//43 59//59 61//61
f 51//51 43//43 61//61
f 48//48 62//62 44//44
f 62//62 58//58 44//44
f 44//44 58//58 45//45
f 63//63 64//64 46//46
f 57//57 65//65 46//46
f 46//46 65//65 63//63
f 46//46 64//64 47//47
f 64//64 66//66 47//47
f 49//49 47//47 66//66
f 48//48 49//49 62//62
f 49//49 66//66 64//64
f 49//49 64//64 62//62
f 61//61 56//56 51//51
f 54//54 53//53 52//52
f 57//57 53//53 65//65
f 54//54 65//65 53//53
f 54//54 63//63 65//65
f 55//55 63//63 54//54
f 67//67 63//63 55//55
f 56//56 67//67 55//55
f 68//68 67//67 56//56
f 61//61 68//68 56//56
f 69//69 58//58 62//62
f 58//58 69//69 60//60
f 61//61 59//59 70//70
f 59//59 71//71 70//70
f 60//60 71//71 59//59
f 60//60 69//69 64//64
f 60//60 72//72 71//71
f 64//64 72//72 60//60
f 61//61 70//70 68//68
f 69//69 62//62 64//64
f 67//67 64//64 63//63
f 73//73 72//72 64//64
f 74//74 64//64 67//67
f 64//64 74//74 73//73
f 74//74 67//67 75//75
f 67//67 68//68 75//75
f 68//68 70//70 75//75
f 71//71 75//75 70//70
f 76//76 75//75 71//71
f 71//71 72//72 76//76
f 73//73 76//76 72//72
f 74//74 76//76 73//73
f 75//75 76//76 74//74
