# Generated by Visualization Toolkit
v 0.017906000837683678 -0.1362909972667694 0.0231890007853508
v 0.018743999302387238 -0.13855700194835663 0.02368899993598461
v 0.01902499981224537 -0.13516800105571747 0.024390999227762222
v 0.012101000174880028 -0.12817400693893433 0.019541999325156212
v 0.017361000180244446 -0.13615599274635315 0.02133299969136715
v 0.01891399919986725 -0.134443998336792 0.024174999445676804
v 0.015406999737024307 -0.1322759985923767 0.02215700037777424
v 0.024450000375509262 -0.13671299815177917 0.025397000834345818
v 0.02080100029706955 -0.14105099439620972 0.023786000907421112
v 0.019680000841617584 -0.14080899953842163 0.022045999765396118
v 0.021550999954342842 -0.13431000709533691 0.025026999413967133
v 0.009298999793827534 -0.12301500141620636 0.02038699947297573
v 0.01166599988937378 -0.12600499391555786 0.017302999272942543
v 0.017875999212265015 -0.13606399297714233 0.01700899936258793
v 0.018679000437259674 -0.13873699307441711 0.017635000869631767
v 0.019617000594735146 -0.14054900407791138 0.019605999812483788
v 0.014782000333070755 -0.12672899663448334 0.024178000167012215
v 0.016705000773072243 -0.12622599303722382 0.02403399907052517
v 0.020694000646471977 -0.1335189938545227 0.023499999195337296
v 0.020570000633597374 -0.1338919997215271 0.024616999551653862
v 0.02162100002169609 -0.14135600626468658 0.023896999657154083
v 0.024091999977827072 -0.14031000435352325 0.024467000737786293
v 0.024654999375343323 -0.1385989934206009 0.024992000311613083
v 0.024896999821066856 -0.13511499762535095 0.024563999846577644
v 0.02583100087940693 -0.13730399310588837 0.02429099939763546
v 0.02131599932909012 -0.14176400005817413 0.022257000207901
v 0.022622000426054 -0.13360799849033356 0.02400200068950653
v 0.004745999816805124 -0.11291900277137756 0.016313999891281128
v 0.012388999573886395 -0.12122999876737595 0.024483000859618187
v 0.009170999750494957 -0.11249300092458725 0.026386000216007233
v 0.003926999866962433 -0.11146999895572662 0.022659000009298325
v 0.007656999863684177 -0.11350700259208679 0.014293000102043152
v 0.02029000036418438 -0.13896100223064423 0.015212999656796455
v 0.018720999360084534 -0.13469499349594116 0.015706000849604607
v 0.02042900025844574 -0.14101600646972656 0.01608400046825409
v 0.021733000874519348 -0.14217300713062286 0.017163999378681183
v 0.021424999460577965 -0.14157600700855255 0.019555000588297844
v 0.012138999998569489 -0.11507199704647064 0.02532999962568283
v 0.014007000252604485 -0.11758799850940704 0.024222999811172485
v 0.015407999977469444 -0.12053799629211426 0.023159999400377274
v 0.02132599987089634 -0.13324500620365143 0.02167999930679798
v 0.02402699925005436 -0.14117099344730377 0.02313699945807457
v 0.02575399912893772 -0.13830099999904633 0.024097999557852745
v 0.024862000718712807 -0.14027200639247894 0.023528000339865685
v 0.0251499991863966 -0.13552899658679962 0.021984999999403954
v 0.026019999757409096 -0.13759499788284302 0.021987000480294228
v 0.023845000192523003 -0.14112700521945953 0.020448999479413033
v 0.023182999342679977 -0.1339150071144104 0.022028999403119087
v 0.002022000029683113 -0.10764200240373611 0.021911999210715294
v 0.0024349999148398638 -0.10790999978780746 0.015799999237060547
v 0.0029070000164210796 -0.10632699728012085 0.01381400041282177
v 0.010243000462651253 -0.1123809963464737 0.026277000084519386
v 0.003498000092804432 -0.10886699706315994 0.02520200051367283
v 0.0075079998932778835 -0.10758999735116959 0.028663000091910362
v 0.009279999881982803 -0.11077599972486496 0.013129999861121178
v 0.010925999842584133 -0.11319799721240997 0.01372199971228838
v 0.007679999805986881 -0.10874699801206589 0.012306000106036663
v 0.017625000327825546 -0.12864600121974945 0.015639999881386757
v 0.021436000242829323 -0.13645699620246887 0.014316000044345856
v 0.022187000140547752 -0.13619600236415863 0.014120000414550304
v 0.024475999176502228 -0.139832004904747 0.014173000119626522
v 0.021608000621199608 -0.14098000526428223 0.015011999756097794
v 0.024170000106096268 -0.13736100494861603 0.013868000358343124
v 0.02463199943304062 -0.13813899457454681 0.013873999938368797
v 0.020313000306487083 -0.13390900194644928 0.015893999487161636
v 0.02207300066947937 -0.1345759928226471 0.014888999983668327
v 0.021762000396847725 -0.14200900495052338 0.015819000080227852
v 0.023739999160170555 -0.14179900288581848 0.015567000024020672
v 0.023708000779151917 -0.1410129964351654 0.019658999517560005
v 0.012527000159025192 -0.10983700305223465 0.024651000276207924
v 0.012036999687552452 -0.11229400336742401 0.01600099913775921
v 0.01667499914765358 -0.12300299853086472 0.02019600011408329
v 0.021250000223517418 -0.1334719955921173 0.019610000774264336
v 0.02585200034081936 -0.1384429931640625 0.02176699973642826
v 0.025102000683546066 -0.13678699731826782 0.019480999559164047
v 0.025383999571204185 -0.13773700594902039 0.019497999921441078
v 0.024450000375509262 -0.14024999737739563 0.019626999273896217
v 0.0017320000333711505 -0.10558000206947327 0.018893999978899956
v 0.0017729999963194132 -0.10551399737596512 0.0213639996945858
v 0.003938999958336353 -0.10360900312662125 0.026719000190496445
v 0.004139000084251165 -0.10395299643278122 0.012307999655604362
v 0.0023060000967234373 -0.10411600023508072 0.014897000044584274
v 0.009959000162780285 -0.10713200271129608 0.028302999213337898
v 0.010824000462889671 -0.10726899653673172 0.027563000097870827
v 0.0043390002101659775 -0.10519800335168839 0.02730800025165081
v 0.0081599997356534 -0.10505200177431107 0.028649000450968742
v 0.006752000190317631 -0.1052670031785965 0.028873000293970108
v 0.010463000275194645 -0.11157800257205963 0.01360000018030405
v 0.004898999817669392 -0.10334999859333038 0.012218999676406384
v 0.009007999673485756 -0.10520800203084946 0.012403000146150589
v 0.021190999075770378 -0.133432999253273 0.017330000177025795
v 0.024176999926567078 -0.13590799272060394 0.014576000161468983
v 0.025054000318050385 -0.1402129977941513 0.014894999563694
v 0.025471000000834465 -0.13809099793434143 0.014562999829649925
v 0.022644000127911568 -0.13421300053596497 0.017013000324368477
v 0.02448900043964386 -0.13542500138282776 0.016836000606417656
v 0.025560999289155006 -0.13987399637699127 0.017278000712394714
v 0.011648000217974186 -0.10184399783611298 0.02441300079226494
v 0.010762999765574932 -0.10456400364637375 0.013566000387072563
v 0.025894999504089355 -0.13769200444221497 0.01709599979221821
v 0.0035910001024603844 -0.10251999646425247 0.013458999805152416
v 0.00710699986666441 -0.1022460013628006 0.018880000337958336
v 0.004184000194072723 -0.10245300084352493 0.02513200044631958
v 0.005843999795615673 -0.10153800249099731 0.026461999863386154
v 0.006074000149965286 -0.10256999731063843 0.02795800007879734
v 0.010583999566733837 -0.10598400235176086 0.0278290007263422
v 0.00860000029206276 -0.10266199707984924 0.02784699946641922
v 0.010418999940156937 -0.10239499807357788 0.02672700025141239
v 0.00520200002938509 -0.10178899765014648 0.013284999877214432
v 0.007970999926328659 -0.10256099700927734 0.012860000133514404
v 0.009758000262081623 -0.10259900242090225 0.013867000117897987
v 0.01013800036162138 -0.1005299985408783 0.023351000621914864
v 0.008453000336885452 -0.10138799995183945 0.014870000071823597
v 0.00796900037676096 -0.10106399655342102 0.026443000882864
v 0.007687999866902828 -0.10098099708557129 0.015699999406933784
v 0.007162999827414751 -0.10141599923372269 0.013883999548852444
vn -0.8093240261077881 -0.23892100155353546 0.5365740060806274
vn -0.6988670229911804 -0.32765498757362366 0.6357880234718323
vn -0.4618839919567108 -0.015336999669671059 0.8868079781532288
vn -0.8642269968986511 -0.501899003982544 0.034772999584674835
vn -0.8990100026130676 -0.43586501479148865 0.042465999722480774
vn -0.3740929961204529 0.154230996966362 0.9144769906997681
vn -0.724232017993927 -0.3494270145893097 0.5944650173187256
vn 0.03393099829554558 -0.0737600028514862 0.9966989755630493
vn -0.46748799085617065 -0.6054859757423401 0.6440820097923279
vn -0.7386959791183472 -0.6630039811134338 0.12146800011396408
vn -0.05073000118136406 0.39133700728416443 0.9188479781150818
vn -0.8282520174980164 -0.44565701484680176 0.3396899998188019
vn -0.7755860090255737 -0.439179003238678 -0.45341700315475464
vn -0.796317994594574 -0.42483198642730713 -0.43057599663734436
vn -0.8789820075035095 -0.40211498737335205 -0.25630900263786316
vn -0.6996610164642334 -0.7139080166816711 -0.02845500037074089
vn -0.36506301164627075 -0.21117599308490753 0.906715989112854
vn 0.46573498845100403 0.13833099603652954 0.8740460276603699
vn 0.28308698534965515 0.7511979937553406 0.5962910056114197
vn -0.17848500609397888 0.7860119938850403 0.591884970664978
vn -0.07487999647855759 -0.7221930027008057 0.6876270174980164
vn 0.3394150137901306 -0.5430700182914734 0.7680320143699646
vn 0.45730000734329224 -0.2540769875049591 0.8522449731826782
vn 0.6163290143013 0.5777559876441956 0.535103976726532
vn 0.8865659832954407 0.10791800171136856 0.4498380124568939
vn -0.19995500147342682 -0.977167010307312 0.0718500018119812
vn 0.28732699155807495 0.9192249774932861 0.26920101046562195
vn -0.8297230005264282 -0.4462429881095886 -0.3352999985218048
vn -0.356456995010376 -0.2695919871330261 0.8945720195770264
vn -0.2727609872817993 -0.4219290018081665 0.8646259903907776
vn -0.810588002204895 -0.4922640025615692 0.31721198558807373
vn -0.34424299001693726 -0.31989800930023193 -0.8827019929885864
vn -0.4580940008163452 -0.22317400574684143 -0.8604320287704468
vn -0.24285699427127838 0.13078199326992035 -0.9612060189247131
vn -0.7207430005073547 -0.583594024181366 -0.37409698963165283
vn -0.28272199630737305 -0.9586259722709656 0.03323499858379364
vn 0.013554000295698643 -0.998537003993988 0.05235600098967552
vn 0.30870598554611206 -0.03932899981737137 0.9503440260887146
vn 0.7273160219192505 0.15963299572467804 0.6674799919128418
vn 0.8865309953689575 0.318217009305954 0.33585798740386963
vn 0.6424649953842163 0.7641199827194214 0.05795900151133537
vn 0.40591099858283997 -0.8845790028572083 0.22968600690364838
vn 0.8660899996757507 -0.32167598605155945 0.38263800740242004
vn 0.7828549742698669 -0.5950819849967957 0.18170399963855743
vn 0.7897719740867615 0.606024980545044 -0.09483599662780762
vn 0.9901450276374817 0.10592599958181381 -0.09161300212144852
vn 0.5661540031433105 -0.8174440264701843 -0.10608699917793274
vn 0.5191919803619385 0.8375930190086365 -0.16993799805641174
vn -0.9602850079536438 -0.24244800209999084 0.1381009966135025
vn -0.9386640191078186 -0.2696149945259094 -0.21498200297355652
vn -0.7634379863739014 -0.24463999271392822 -0.5977579951286316
vn 0.4045189917087555 -0.24586400389671326 0.8808609843254089
vn -0.7538959980010986 -0.34260499477386475 0.5605909824371338
vn -0.14254699647426605 -0.2865000069141388 0.9474160075187683
vn 0.12889400124549866 -0.22045500576496124 -0.9668430089950562
vn 0.41867899894714355 0.0071749999187886715 -0.9081060290336609
vn -0.048144999891519547 -0.20786699652671814 -0.9769719839096069
vn 0.5778329968452454 0.21373699605464935 -0.7876710295677185
vn -0.3342309892177582 -0.041381001472473145 -0.9415820240974426
vn -0.11827100068330765 0.1823129951953888 -0.9761009812355042
vn 0.10877999663352966 -0.41059398651123047 -0.9053059816360474
vn -0.3775089979171753 -0.42602500319480896 -0.8221859931945801
vn 0.06591600179672241 0.11608199775218964 -0.9910500049591064
vn 0.38511401414871216 -0.00609700009226799 -0.9228489995002747
vn 0.2848550081253052 0.6413580179214478 -0.7124019861221313
vn 0.17659799754619598 0.7631070017814636 -0.6216760277748108
vn -0.24635100364685059 -0.795009970664978 -0.5543199777603149
vn 0.4559670090675354 -0.8805189728736877 -0.12953899800777435
vn 0.49673300981521606 -0.8676720261573792 -0.020044999197125435
vn 0.8970789909362793 0.08684699982404709 0.4332520067691803
vn 0.9279999732971191 0.23648199439048767 -0.28791099786758423
vn 0.907496988773346 0.4072679877281189 -0.10287299752235413
vn 0.6724590063095093 0.739018976688385 -0.040630001574754715
vn 0.917506992816925 -0.38589900732040405 -0.09624700248241425
vn 0.8269690275192261 0.5528590083122253 -0.10232199728488922
vn 0.9978920221328735 -0.06488599628210068 -0.0015140000032261014
vn 0.8076639771461487 -0.5891540050506592 0.024027999490499496
vn -0.9487299919128418 0.3160409927368164 -0.005518000107258558
vn -0.8925079703330994 0.44477400183677673 0.074863001704216
vn -0.8330850005149841 0.27296000719070435 0.4811049997806549
vn -0.5646740198135376 0.06222200021147728 -0.8229650259017944
vn -0.9206900000572205 0.20713099837303162 -0.3307960033416748
vn 0.4127329885959625 -0.1043189987540245 0.9048590064048767
vn 0.7846559882164001 -0.06999000161886215 0.6159679889678955
vn -0.6400290131568909 -0.06289999932050705 0.7657719850540161
vn 0.28797000646591187 0.1501850038766861 0.9457889795303345
vn -0.16208599507808685 0.10784599930047989 0.980866014957428
vn 0.565750002861023 -0.018776999786496162 -0.8243629932403564
vn -0.11381199955940247 0.3131740093231201 -0.9428510069847107
vn 0.3423730134963989 0.13400399684906006 -0.9299589991569519
vn 0.7089980244636536 0.6304600238800049 -0.31597900390625
vn 0.5736179947853088 0.5357720255851746 -0.6196060180664062
vn 0.7559059858322144 -0.41729500889778137 -0.5044509768486023
vn 0.8917239904403687 0.05179600045084953 -0.44960498809814453
vn 0.4319300055503845 0.882161021232605 -0.1876939982175827
vn 0.6728730201721191 0.7368469834327698 -0.06556399911642075
vn 0.9166960120201111 -0.39422300457954407 0.0652410015463829
vn 0.8392350077629089 0.5106490254402161 0.18687500059604645
vn 0.857716977596283 0.18220899999141693 -0.48075100779533386
vn 0.9628159999847412 0.2696549892425537 -0.016450999304652214
vn -0.6364690065383911 0.7160549759864807 -0.286655992269516
vn -0.4978010058403015 0.8661540150642395 0.04439400136470795
vn -0.6679440140724182 0.742842972278595 0.04510100185871124
vn -0.42357099056243896 0.8800309896469116 0.21478800475597382
vn -0.31910398602485657 0.4974699914455414 0.8066570162773132
vn 0.673130989074707 0.14811299741268158 0.7245389819145203
vn 0.2111479938030243 0.45789000391960144 0.863569974899292
vn 0.5275819897651672 0.4715479910373688 0.7066109776496887
vn -0.24208100140094757 0.8850449919700623 -0.39760899543762207
vn 0.22293800115585327 0.5345249772071838 -0.815218985080719
vn 0.5507460236549377 0.6248810291290283 -0.5533559918403625
vn 0.04949599876999855 0.9985799789428711 0.019717000424861908
vn 0.45464399456977844 0.8488370180130005 -0.26976901292800903
vn 0.13817499577999115 0.8526390194892883 0.5038999915122986
vn -0.1722009927034378 0.983739972114563 -0.05101900175213814
vn 0.1773429960012436 0.865103006362915 -0.46919700503349304
f 1//1 2//2 3//3
f 4//4 5//5 1//1
f 3//3 6//6 1//1
f 7//7 1//1 6//6
f 2//2 1//1 5//5
f 1//1 7//7 4//4
f 8//8 2//2 9//9
f 3//3 2//2 8//8
f 10//10 9//9 2//2
f 2//2 5//5 10//10
f 11//11 3//3 8//8
f 3//3 11//11 6//6
f 4//4 7//7 12//12
f 4//4 12//12 13//13
f 13//13 14//14 4//4
f 5//5 4//4 14//14
f 5//5 14//14 15//15
f 5//5 16//16 10//10
f 15//15 16//16 5//5
f 6//6 17//17 7//7
f 17//17 6//6 18//18
f 19//19 18//18 6//6
f 20//20 19//19 6//6
f 11//11 20//20 6//6
f 12//12 7//7 17//17
f 9//9 21//21 8//8
f 21//21 22//22 8//8
f 22//22 23//23 8//8
f 11//11 8//8 24//24
f 8//8 25//25 24//24
f 25//25 8//8 23//23
f 21//21 9//9 26//26
f 9//9 10//10 26//26
f 26//26 10//10 16//16
f 27//27 20//20 11//11
f 24//24 27//27 11//11
f 12//12 28//28 13//13
f 29//29 12//12 17//17
f 12//12 29//29 30//30
f 12//12 30//30 31//31
f 28//28 12//12 31//31
f 32//32 14//14 13//13
f 13//13 28//28 32//32
f 14//14 33//33 15//15
f 34//34 14//14 32//32
f 35//35 15//15 33//33
f 35//35 16//16 15//15
f 36//36 16//16 35//35
f 26//26 16//16 37//37
f 37//37 16//16 36//36
f 17//17 38//38 29//29
f 18//18 38//38 17//17
f 18//18 39//39 38//38
f 19//19 40//40 18//18
f 40//40 39//39 18//18
f 19//19 20//20 27//27
f 19//19 41//41 40//40
f 19//19 27//27 41//41
f 42//42 21//21 26//26
f 42//42 22//22 21//21
f 22//22 43//43 23//23
f 22//22 42//42 44//44
f 43//43 22//22 44//44
f 23//23 43//43 25//25
f 24//24 25//25 45//45
f 27//27 24//24 45//45
f 46//46 45//45 25//25
f 25//25 43//43 46//46
f 26//26 47//47 42//42
f 37//37 47//47 26//26
f 27//27 45//45 48//48
f 48//48 41//41 27//27
f 49//49 28//28 31//31
f 50//50 28//28 49//49
f 28//28 50//50 51//51
f 32//32 28//28 51//51
f 30//30 29//29 38//38
f 38//38 52//52 30//30
f 30//30 53//53 31//31
f 52//52 54//54 30//30
f 30//30 54//54 53//53
f 53//53 49//49 31//31
f 32//32 55//55 56//56
f 32//32 51//51 57//57
f 57//57 55//55 32//32
f 32//32 58//58 34//34
f 56//56 58//58 32//32
f 33//33 59//59 60//60
f 61//61 62//62 33//33
f 33//33 62//62 35//35
f 63//63 33//33 60//60
f 64//64 33//33 63//63
f 64//64 61//61 33//33
f 33//33 34//34 59//59
f 58//58 65//65 34//34
f 66//66 34//34 65//65
f 60//60 59//59 34//34
f 66//66 60//60 34//34
f 35//35 67//67 36//36
f 62//62 67//67 35//35
f 67//67 68//68 36//36
f 68//68 37//37 36//36
f 69//69 37//37 68//68
f 69//69 47//47 37//37
f 70//70 52//52 38//38
f 38//38 39//39 70//70
f 40//40 70//70 39//39
f 71//71 70//70 40//40
f 72//72 71//71 40//40
f 40//40 41//41 72//72
f 72//72 41//41 73//73
f 41//41 48//48 73//73
f 44//44 42//42 47//47
f 43//43 44//44 74//74
f 74//74 46//46 43//43
f 74//74 44//44 47//47
f 45//45 75//75 48//48
f 75//75 45//45 46//46
f 75//75 46//46 76//76
f 46//46 74//74 76//76
f 47//47 77//77 74//74
f 47//47 69//69 77//77
f 73//73 48//48 75//75
f 78//78 50//50 49//49
f 79//79 78//78 49//49
f 49//49 80//80 79//79
f 80//80 49//49 53//53
f 51//51 50//50 78//78
f 51//51 81//81 57//57
f 78//78 82//82 51//51
f 81//81 51//51 82//82
f 54//54 52//52 83//83
f 84//84 52//52 70//70
f 83//83 52//52 84//84
f 80//80 53//53 85//85
f 53//53 54//54 85//85
f 86//86 54//54 83//83
f 87//87 85//85 54//54
f 87//87 54//54 86//86
f 88//88 56//56 55//55
f 88//88 55//55 57//57
f 58//58 56//56 71//71
f 71//71 56//56 88//88
f 89//89 57//57 81//81
f 90//90 88//88 57//57
f 89//89 90//90 57//57
f 72//72 91//91 58//58
f 65//65 58//58 91//91
f 71//71 72//72 58//58
f 63//63 60//60 92//92
f 66//66 92//92 60//60
f 61//61 68//68 67//67
f 62//62 61//61 67//67
f 64//64 93//93 61//61
f 93//93 68//68 61//61
f 92//92 64//64 63//63
f 64//64 94//94 93//93
f 92//92 94//94 64//64
f 91//91 95//95 65//65
f 66//66 65//65 95//95
f 92//92 66//66 96//96
f 66//66 95//95 96//96
f 69//69 68//68 77//77
f 68//68 97//97 77//77
f 93//93 97//97 68//68
f 70//70 98//98 84//84
f 71//71 99//99 70//70
f 99//99 98//98 70//70
f 99//99 71//71 88//88
f 91//91 72//72 73//73
f 73//73 75//75 96//96
f 95//95 73//73 96//96
f 95//95 91//91 73//73
f 77//77 76//76 74//74
f 96//96 75//75 100//100
f 76//76 100//100 75//75
f 76//76 77//77 97//97
f 76//76 97//97 100//100
f 101//101 82//82 78//78
f 79//79 102//102 78//78
f 101//101 78//78 102//102
f 79//79 103//103 102//102
f 103//103 79//79 80//80
f 80//80 104//104 103//103
f 105//105 104//104 80//80
f 105//105 80//80 85//85
f 101//101 81//81 82//82
f 81//81 101//101 89//89
f 84//84 106//106 83//83
f 86//86 83//83 106//106
f 106//106 84//84 98//98
f 85//85 87//87 105//105
f 86//86 107//107 87//87
f 106//106 108//108 86//86
f 107//107 86//86 108//108
f 107//107 105//105 87//87
f 90//90 99//99 88//88
f 89//89 101//101 109//109
f 90//90 89//89 110//110
f 89//89 109//109 110//110
f 110//110 111//111 90//90
f 99//99 90//90 111//111
f 94//94 92//92 100//100
f 92//92 96//96 100//100
f 93//93 94//94 97//97
f 97//97 94//94 100//100
f 112//112 98//98 113//113
f 111//111 113//113 98//98
f 111//111 98//98 99//99
f 108//108 106//106 98//98
f 108//108 98//98 114//114
f 112//112 114//114 98//98
f 109//109 101//101 102//102
f 112//112 102//102 104//104
f 102//102 103//103 104//104
f 115//115 109//109 102//102
f 102//102 112//112 115//115
f 114//114 104//104 105//105
f 104//104 114//114 112//112
f 107//107 114//114 105//105
f 107//107 108//108 114//114
f 116//116 110//110 109//109
f 109//109 115//115 116//116
f 111//111 110//110 116//116
f 111//111 116//116 113//113
f 112//112 113//113 115//115
f 113//113 116//116 115//115
