# Generated by Visualization Toolkit
v 0.03930800035595894 -0.1601880043745041 0.01653200015425682
v 0.039684001356363297 -0.16033199429512024 0.01776999980211258
v 0.037679001688957214 -0.1580680012702942 0.018509000539779663
v 0.04108000174164772 -0.16066999733448029 0.017854999750852585
v 0.04064000025391579 -0.16088099777698517 0.016551999375224113
v 0.03676899895071983 -0.1569720059633255 0.017892999574542046
v 0.03720699995756149 -0.15757399797439575 0.014793000183999538
v 0.039788998663425446 -0.15961800515651703 0.011345000006258488
v 0.03996500000357628 -0.1601559966802597 0.013400999829173088
v 0.04243500158190727 -0.15743400156497955 0.019592000171542168
v 0.036986999213695526 -0.15563400089740753 0.019238000735640526
v 0.038346998393535614 -0.15556000173091888 0.01981700025498867
v 0.04243199899792671 -0.1599150002002716 0.018293999135494232
v 0.04290800169110298 -0.1598760038614273 0.017364000901579857
v 0.0406000018119812 -0.16040000319480896 0.014138000085949898
v 0.042649999260902405 -0.15912599861621857 0.014523999765515327
v 0.032628998160362244 -0.15336400270462036 0.0149959996342659
v 0.03475100174546242 -0.15511499345302582 0.01761999912559986
v 0.03667299821972847 -0.1561959981918335 0.013119000010192394
v 0.041039999574422836 -0.1600620001554489 0.011006000451743603
v 0.03764199838042259 -0.1568010002374649 0.011760000139474869
v 0.03860900178551674 -0.15656700730323792 0.011095999740064144
v 0.04058000072836876 -0.15921300649642944 0.010611999779939651
v 0.041131000965833664 -0.16039499640464783 0.012107999995350838
v 0.042819999158382416 -0.15881100296974182 0.018926000222563744
v 0.041335999965667725 -0.15632599592208862 0.01996699906885624
v 0.039746999740600586 -0.1556520015001297 0.020090999081730843
v 0.04146600142121315 -0.15529799461364746 0.019619999453425407
v 0.04298799857497215 -0.15671099722385406 0.01896500028669834
v 0.0378590002655983 -0.1546030044555664 0.018921000882983208
v 0.03670800104737282 -0.1534699946641922 0.01929900050163269
v 0.03561900183558464 -0.15436699986457825 0.01918400079011917
v 0.03916899859905243 -0.15444399416446686 0.019321000203490257
v 0.043441999703645706 -0.1581210047006607 0.018268000334501266
v 0.04340999945998192 -0.1579110026359558 0.016459999606013298
v 0.04261799901723862 -0.15956999361515045 0.01267900038510561
v 0.042812999337911606 -0.15713000297546387 0.01487400010228157
v 0.043400999158620834 -0.15773199498653412 0.012760999612510204
v 0.033362001180648804 -0.15231099724769592 0.013106999918818474
v 0.03660999983549118 -0.15518799424171448 0.012330000288784504
v 0.028562000021338463 -0.14936499297618866 0.015494000166654587
v 0.02779800072312355 -0.14837199449539185 0.0147299999371171
v 0.031567998230457306 -0.1501930058002472 0.012814999558031559
v 0.02686299942433834 -0.14600299298763275 0.013318000361323357
v 0.028725000098347664 -0.14863499999046326 0.020907999947667122
v 0.032962001860141754 -0.15165500342845917 0.020145000889897346
v 0.031092999503016472 -0.1494089961051941 0.02137799933552742
v 0.03768699988722801 -0.1553570032119751 0.0115769999101758
v 0.042305998504161835 -0.15926100313663483 0.010722000151872635
v 0.03860500082373619 -0.15594300627708435 0.010995999909937382
v 0.0403750017285347 -0.15711399912834167 0.011003999970853329
v 0.042417000979185104 -0.15749700367450714 0.010231999680399895
v 0.04170899838209152 -0.15520000457763672 0.01746400073170662
v 0.04314199835062027 -0.1565520018339157 0.017111999914050102
v 0.03810799866914749 -0.1540829986333847 0.017504999414086342
v 0.03425300121307373 -0.15010300278663635 0.01728999987244606
v 0.03520200029015541 -0.15168499946594238 0.01961500011384487
v 0.034890998154878616 -0.15218600630760193 0.019927000626921654
v 0.04133100062608719 -0.1552090048789978 0.015312000177800655
v 0.04286700114607811 -0.1560090035200119 0.013044999912381172
v 0.04300199821591377 -0.15777599811553955 0.010688000358641148
v 0.04288800060749054 -0.1569100022315979 0.010758000425994396
v 0.036910999566316605 -0.15438899397850037 0.012407000176608562
v 0.036118000745773315 -0.15291200578212738 0.01291900034993887
v 0.02319199964404106 -0.14534500241279602 0.01617800071835518
v 0.023729000240564346 -0.14517299830913544 0.022050999104976654
v 0.023068999871611595 -0.14548499882221222 0.017193999141454697
v 0.03236600011587143 -0.14900599420070648 0.012949000112712383
v 0.023757999762892723 -0.14396800100803375 0.013873999938368797
v 0.02519400045275688 -0.14358699321746826 0.012764000333845615
v 0.027854999527335167 -0.1451359987258911 0.012906000018119812
v 0.029729999601840973 -0.14586800336837769 0.013123000040650368
v 0.026859000325202942 -0.14694499969482422 0.022644000127911568
v 0.0293940007686615 -0.1463800072669983 0.023327000439167023
v 0.03206900134682655 -0.14892999827861786 0.02139499969780445
v 0.0372139997780323 -0.15379400551319122 0.012773999944329262
v 0.03975899890065193 -0.15439000725746155 0.011459000408649445
v 0.04067299887537956 -0.15533800423145294 0.010595999658107758
v 0.04191099852323532 -0.15620699524879456 0.010312999598681927
v 0.037863001227378845 -0.1537030041217804 0.013907999731600285
v 0.04093800112605095 -0.1545889973640442 0.013224000111222267
v 0.03258400037884712 -0.14816200733184814 0.02063100039958954
v 0.04257600009441376 -0.1560630053281784 0.010859999805688858
v 0.04078200086951256 -0.15471400320529938 0.011260000057518482
v 0.021865999326109886 -0.14345699548721313 0.016808999702334404
v 0.02187200076878071 -0.14391399919986725 0.019432000815868378
v 0.026037000119686127 -0.14565500617027283 0.024229999631643295
v 0.023646999150514603 -0.1439639925956726 0.022700000554323196
v 0.024325000122189522 -0.14392000436782837 0.02406799979507923
v 0.030616000294685364 -0.14496299624443054 0.022276999428868294
v 0.02988399937748909 -0.14408600330352783 0.016269000247120857
v 0.024217000231146812 -0.14216099679470062 0.013063999824225903
v 0.022949999198317528 -0.14304399490356445 0.014632999897003174
v 0.026189999654889107 -0.14268800616264343 0.012640000320971012
v 0.028873000293970108 -0.14444300532341003 0.013265999965369701
v 0.02740499936044216 -0.1450670063495636 0.02490299940109253
v 0.02818799950182438 -0.14301900565624237 0.025384999811649323
v 0.02922699972987175 -0.14254899322986603 0.024661999195814133
v 0.023446999490261078 -0.1429470032453537 0.015448999591171741
v 0.023719999939203262 -0.14354999363422394 0.01936200074851513
v 0.026593999937176704 -0.14390599727630615 0.025498999282717705
v 0.025147000327706337 -0.1432269960641861 0.024958999827504158
v 0.027219999581575394 -0.14047999680042267 0.023269999772310257
v 0.02652299962937832 -0.14162799715995789 0.02493100054562092
v 0.026643000543117523 -0.14157600700855255 0.019504999741911888
v 0.025784000754356384 -0.1425590068101883 0.019550999626517296
v 0.027132999151945114 -0.14114899933338165 0.02064099907875061
v 0.025064999237656593 -0.1428530067205429 0.02439899928867817
v 0.02483999915421009 -0.14306600391864777 0.01923000067472458
v 0.02903199940919876 -0.140407994389534 0.022895000874996185
v 0.02840700000524521 -0.14115199446678162 0.014379999600350857
v 0.024907000362873077 -0.1409820020198822 0.013500000350177288
v 0.025756999850273132 -0.14164899289608002 0.016178999096155167
v 0.027383999899029732 -0.14163899421691895 0.013214999809861183
v 0.02708500064909458 -0.1429630070924759 0.02566399984061718
v 0.02687700092792511 -0.1423410028219223 0.02574699930846691
v 0.028511999174952507 -0.14130200445652008 0.024647999554872513
v 0.024612000212073326 -0.14328500628471375 0.018206000328063965
v 0.025940999388694763 -0.14214499294757843 0.017868999391794205
v 0.02606000006198883 -0.14263099431991577 0.025661999359726906
v 0.02773600071668625 -0.13950400054454803 0.022474000230431557
v 0.027615999802947044 -0.14012999832630157 0.02371099963784218
v 0.027187999337911606 -0.14040400087833405 0.024349000304937363
v 0.027091000229120255 -0.14037300646305084 0.020114999264478683
v 0.02599100023508072 -0.14201100170612335 0.01908300071954727
v 0.026794999837875366 -0.14008399844169617 0.01912900060415268
v 0.026528000831604004 -0.14157499372959137 0.018695000559091568
v 0.025647999718785286 -0.14263099431991577 0.018709000200033188
v 0.02741999924182892 -0.13914600014686584 0.020831000059843063
v 0.026287000626325607 -0.1402300000190735 0.013957999646663666
v 0.026623999699950218 -0.1394760012626648 0.015273000113666058
v 0.02578200027346611 -0.13995400071144104 0.014289000071585178
v 0.026466000825166702 -0.13987299799919128 0.01594099961221218
v 0.02672399953007698 -0.14110800623893738 0.01787699945271015
vn -0.6190850138664246 -0.7853090167045593 0.0048489999026060104
vn -0.37235501408576965 -0.7398480176925659 0.5603370070457458
vn -0.5533549785614014 -0.5468220114707947 0.6283190250396729
vn -0.005621999967843294 -0.8964139819145203 0.4431830048561096
vn 0.06744199991226196 -0.9943689703941345 -0.08173900097608566
vn -0.7441520094871521 -0.6303150057792664 0.2212280035018921
vn -0.7301530241966248 -0.6695209741592407 -0.13644999265670776
vn -0.6431660056114197 -0.6166269779205322 -0.45399099588394165
vn -0.39585500955581665 -0.9042400121688843 -0.16015399992465973
vn 0.10787300020456314 -0.30719301104545593 0.9455140233039856
vn -0.39940398931503296 -0.22379200160503387 0.889041006565094
vn -0.28556200861930847 0.05254799872636795 0.9569190144538879
vn 0.4513919949531555 -0.6397200226783752 0.6220970153808594
vn 0.7368419766426086 -0.675773024559021 0.019852999597787857
vn 0.22782599925994873 -0.9733049869537354 -0.027813000604510307
vn 0.8392699956893921 -0.5401149988174438 -0.062470998615026474
vn -0.667523980140686 -0.6642869710922241 -0.3363550007343292
vn -0.5757039785385132 -0.6886669993400574 0.44079700112342834
vn -0.7254670262336731 -0.5032349824905396 -0.46952399611473083
vn -0.15934599936008453 -0.822147011756897 -0.5465199947357178
vn -0.7003939747810364 -0.24880099296569824 -0.6689890027046204
vn -0.4024930000305176 -0.1290220022201538 -0.9062849879264832
vn -0.21310299634933472 -0.21248100697994232 -0.9536449909210205
vn 0.16389599442481995 -0.9742599725723267 -0.15477700531482697
vn 0.6475780010223389 -0.3073660135269165 0.6972569823265076
vn 0.21798500418663025 0.03671500086784363 0.9752609729766846
vn -0.030410999432206154 0.09393999725580215 0.9951130151748657
vn 0.46174299716949463 0.5677459836006165 0.6815119981765747
vn 0.8342990279197693 0.3297869861125946 0.44179800152778625
vn 0.04234199970960617 0.6459050178527832 0.7622420191764832
vn 0.5252389907836914 0.3227899968624115 0.787356972694397
vn -0.20855699479579926 -0.41067200899124146 0.8876109719276428
vn 0.06219499930739403 0.8872449994087219 0.4570870101451874
vn 0.9569299817085266 -0.14482100307941437 0.25161901116371155
vn 0.9864400029182434 -0.02491299994289875 -0.16222000122070312
vn 0.7040640115737915 -0.7101110219955444 -0.006051999982446432
vn 0.9329059720039368 0.35929301381111145 -0.02437799982726574
vn 0.9956089854240417 -0.0922819972038269 -0.01569800078868866
vn -0.3317579925060272 -0.20697900652885437 -0.9203780293464661
vn -0.540369987487793 -0.2646329998970032 -0.7987300157546997
vn -0.6381469964981079 -0.7688770294189453 -0.03996099904179573
vn -0.6150779724121094 -0.6532229781150818 -0.44156399369239807
vn -0.2784300148487091 -0.2739369869232178 -0.9205620288848877
vn -0.35542699694633484 -0.4197019934654236 -0.835178017616272
vn -0.4384779930114746 -0.7782520055770874 0.4495120048522949
vn -0.22607600688934326 -0.5638049840927124 0.7943639755249023
vn -0.13396599888801575 -0.5626260042190552 0.8157849907875061
vn -0.49258899688720703 0.17939500510692596 -0.8515710234642029
vn 0.5701190233230591 -0.5651530027389526 -0.5962939858436584
vn -0.29217299818992615 -0.021755000576376915 -0.9561179876327515
vn -0.21135899424552917 -0.047352999448776245 -0.9762610197067261
vn 0.20370599627494812 -0.011526999995112419 -0.9789639711380005
vn 0.5858989953994751 0.8099370002746582 -0.026910999789834023
vn 0.8864169716835022 0.4594520032405853 -0.056292999535799026
vn 0.45248401165008545 0.8714330196380615 0.18937399983406067
vn 0.7120370268821716 0.7021340131759644 -0.0033489998895674944
vn 0.7192140221595764 0.41060298681259155 0.5604789853096008
vn 0.229436993598938 -0.18419599533081055 0.955735981464386
vn 0.5528380274772644 0.8294090032577515 0.0803230032324791
vn 0.8111259937286377 0.5839750170707703 0.032370999455451965
vn 0.8400110006332397 -0.10885600000619888 -0.5315369963645935
vn 0.8268219828605652 0.27337801456451416 -0.4915589988231659
vn -0.11488699913024902 0.364095002412796 -0.924248993396759
vn 0.34408798813819885 0.4928700029850006 -0.7991759777069092
vn -0.67119300365448 -0.6310189962387085 -0.38899099826812744
vn -0.6692969799041748 -0.6713430285453796 0.3183409869670868
vn -0.7212640047073364 -0.6917150020599365 -0.036166001111269
vn 0.6074849963188171 0.5216159820556641 -0.5990650057792664
vn -0.6745820045471191 -0.38253799080848694 -0.6313499808311462
vn -0.28129300475120544 -0.218858003616333 -0.9343309998512268
vn 0.05962900072336197 -0.10613500326871872 -0.9925619959831238
vn 0.3912070095539093 0.23431900143623352 -0.889972984790802
vn -0.2157839983701706 -0.8124210238456726 0.5416719913482666
vn 0.3805069923400879 -0.4000990092754364 0.8337479829788208
vn 0.490772008895874 -0.027421999722719193 0.8708570003509521
vn 0.14787200093269348 0.79584801197052 -0.587162971496582
vn 0.005903000012040138 0.8329219818115234 -0.5533589720726013
vn -0.036678001284599304 0.4244590103626251 -0.9047039747238159
vn 0.18423999845981598 0.2424509972333908 -0.9525089859962463
vn 0.48134100437164307 0.8619459867477417 -0.15925000607967377
vn 0.38436099886894226 0.9231680035591125 -0.005169000010937452
vn 0.8080639839172363 0.4467810094356537 0.38395199179649353
vn 0.6066380143165588 0.6179680228233337 -0.5001050233840942
vn 0.40499401092529297 0.8439750075340271 -0.35169100761413574
vn -0.9680569767951965 0.03749899938702583 -0.24790899455547333
vn -0.8669829964637756 0.41015198826789856 0.28304800391197205
vn -0.37494200468063354 -0.6476349830627441 0.663316011428833
vn -0.7494419813156128 0.6392409801483154 0.17235800623893738
vn -0.7187029719352722 -0.27017998695373535 0.6406790018081665
vn 0.9238439798355103 0.2724109888076782 0.2688960134983063
vn 0.874472975730896 0.4360800087451935 -0.21243999898433685
vn -0.6742219924926758 0.31803199648857117 -0.6665440201759338
vn -0.7725200057029724 0.6005390286445618 -0.20631399750709534
vn 0.055240001529455185 0.18177099525928497 -0.9817879796028137
vn 0.5732319951057434 0.2798730134963989 -0.7701150178909302
vn 0.10640999674797058 -0.577318012714386 0.8095560073852539
vn 0.3778049945831299 -0.15105299651622772 0.9134799838066101
vn 0.7090979814529419 0.16818000376224518 0.6847599744796753
vn -0.34329500794410706 0.9169650077819824 0.2032800018787384
vn -0.2530969977378845 0.9633600115776062 0.08877000212669373
vn -0.17895199358463287 -0.36239299178123474 0.914683997631073
vn -0.7420409917831421 0.16062100231647491 0.6508269906044006
vn -0.7795770168304443 0.6262699961662292 0.0068270000629127026
vn -0.6546419858932495 0.6675580143928528 0.3546980023384094
vn -0.844012975692749 0.5104089975357056 0.16469399631023407
vn -0.6615260243415833 0.7482380270957947 0.05023600161075592
vn -0.9054120182991028 0.41350001096725464 0.09615600109100342
vn -0.7268120050430298 0.5959839820861816 0.34139201045036316
vn -0.43280699849128723 0.901449978351593 -0.008074999786913395
vn 0.7644720077514648 0.6141420006752014 0.19598999619483948
vn 0.7109280228614807 0.5847619771957397 -0.39068499207496643
vn -0.43061599135398865 0.6508340239524841 -0.6252880096435547
vn -0.7591620087623596 0.5894629955291748 0.27605700492858887
vn 0.29781100153923035 0.43755799531936646 -0.8484410047531128
vn 0.09272599965333939 -0.15832699835300446 0.9830229878425598
vn 0.0761210024356842 0.34878599643707275 0.9341059923171997
vn 0.46213498711586 0.5747510194778442 0.6753460168838501
vn -0.4544430077075958 0.8858489990234375 0.0935640037059784
vn -0.6997349858283997 0.6929410099983215 0.1737940013408661
vn -0.4396730065345764 0.23762699961662292 0.8661530017852783
vn -0.5032089948654175 0.8232539892196655 0.2627429962158203
vn -0.04102800041437149 0.9088649749755859 0.41506901383399963
vn -0.35350900888442993 0.7937859892845154 0.49490898847579956
vn -0.9426609873771667 0.1360500007867813 0.304764986038208
vn -0.7615410089492798 0.6386820077896118 0.11018700152635574
vn -0.9758480191230774 0.15898500382900238 0.14981700479984283
vn -0.8466650247573853 0.530351996421814 0.04341299831867218
vn -0.7509999871253967 0.6544389724731445 0.0877939984202385
vn -0.610526978969574 0.771793007850647 0.17774400115013123
vn 0.18100300431251526 0.7047510147094727 -0.6859769821166992
vn -0.3425480127334595 0.9245240092277527 -0.16707900166511536
vn -0.5423780083656311 0.8250709772109985 -0.15837499499320984
vn -0.9343850016593933 0.32816699147224426 0.13867799937725067
vn -0.9191150069236755 0.36106500029563904 0.1576710045337677
f 1//1 2//2 3//3
f 4//4 2//2 1//1
f 1//1 5//5 4//4
f 6//6 1//1 3//3
f 1//1 6//6 7//7
f 8//8 1//1 7//7
f 8//8 9//9 1//1
f 5//5 1//1 9//9
f 10//10 3//3 2//2
f 4//4 10//10 2//2
f 11//11 3//3 12//12
f 12//12 3//3 10//10
f 6//6 3//3 11//11
f 4//4 13//13 10//10
f 14//14 4//4 5//5
f 14//14 13//13 4//4
f 15//15 5//5 9//9
f 15//15 16//16 5//5
f 16//16 14//14 5//5
f 17//17 6//6 18//18
f 18//18 6//6 11//11
f 17//17 7//7 6//6
f 19//19 7//7 17//17
f 7//7 19//19 8//8
f 20//20 9//9 8//8
f 8//8 21//21 22//22
f 22//22 23//23 8//8
f 23//23 20//20 8//8
f 19//19 21//21 8//8
f 24//24 9//9 20//20
f 9//9 24//24 15//15
f 13//13 25//25 10//10
f 26//26 27//27 10//10
f 27//27 12//12 10//10
f 10//10 28//28 26//26
f 10//10 29//29 28//28
f 29//29 10//10 25//25
f 30//30 31//31 11//11
f 18//18 11//11 32//32
f 32//32 11//11 31//31
f 12//12 30//30 11//11
f 30//30 12//12 33//33
f 33//33 12//12 27//27
f 34//34 13//13 14//14
f 34//34 25//25 13//13
f 35//35 34//34 14//14
f 14//14 16//16 35//35
f 16//16 15//15 36//36
f 36//36 15//15 24//24
f 35//35 16//16 37//37
f 16//16 38//38 37//37
f 16//16 36//36 38//38
f 39//39 40//40 17//17
f 17//17 18//18 41//41
f 42//42 17//17 41//41
f 39//39 17//17 43//43
f 44//44 43//43 17//17
f 44//44 17//17 42//42
f 19//19 17//17 40//40
f 18//18 45//45 41//41
f 32//32 46//46 18//18
f 46//46 47//47 18//18
f 45//45 18//18 47//47
f 48//48 21//21 19//19
f 19//19 40//40 48//48
f 20//20 49//49 24//24
f 20//20 23//23 49//49
f 21//21 48//48 22//22
f 22//22 48//48 50//50
f 51//51 22//22 50//50
f 51//51 23//23 22//22
f 51//51 52//52 23//23
f 23//23 52//52 49//49
f 36//36 24//24 49//49
f 34//34 29//29 25//25
f 27//27 26//26 28//28
f 27//27 28//28 33//33
f 28//28 29//29 53//53
f 28//28 53//53 33//33
f 54//54 53//53 29//29
f 29//29 34//34 54//54
f 30//30 55//55 31//31
f 30//30 33//33 55//55
f 56//56 57//57 31//31
f 56//56 31//31 55//55
f 57//57 58//58 31//31
f 31//31 58//58 32//32
f 46//46 32//32 58//58
f 55//55 33//33 59//59
f 53//53 59//59 33//33
f 35//35 54//54 34//34
f 54//54 35//35 37//37
f 38//38 36//36 49//49
f 59//59 53//53 37//37
f 38//38 60//60 37//37
f 37//37 60//60 59//59
f 54//54 37//37 53//53
f 61//61 62//62 38//38
f 38//38 62//62 60//60
f 61//61 38//38 49//49
f 39//39 63//63 40//40
f 64//64 63//63 39//39
f 39//39 43//43 64//64
f 63//63 48//48 40//40
f 42//42 41//41 65//65
f 66//66 67//67 41//41
f 45//45 66//66 41//41
f 41//41 67//67 65//65
f 42//42 65//65 44//44
f 68//68 64//64 43//43
f 44//44 68//68 43//43
f 69//69 44//44 65//65
f 70//70 44//44 69//69
f 44//44 70//70 71//71
f 44//44 71//71 72//72
f 44//44 72//72 68//68
f 73//73 45//45 74//74
f 74//74 45//45 47//47
f 73//73 66//66 45//45
f 46//46 58//58 47//47
f 58//58 75//75 47//47
f 75//75 74//74 47//47
f 76//76 77//77 48//48
f 76//76 48//48 63//63
f 78//78 50//50 48//48
f 77//77 78//78 48//48
f 52//52 61//61 49//49
f 51//51 50//50 78//78
f 79//79 51//51 78//78
f 79//79 52//52 51//51
f 79//79 62//62 52//52
f 61//61 52//52 62//62
f 80//80 56//56 55//55
f 55//55 59//59 81//81
f 81//81 80//80 55//55
f 64//64 68//68 56//56
f 56//56 80//80 64//64
f 56//56 68//68 82//82
f 57//57 56//56 82//82
f 82//82 75//75 57//57
f 57//57 75//75 58//58
f 81//81 59//59 60//60
f 60//60 62//62 83//83
f 83//83 84//84 60//60
f 84//84 81//81 60//60
f 79//79 83//83 62//62
f 64//64 76//76 63//63
f 76//76 64//64 80//80
f 85//85 65//65 67//67
f 69//69 65//65 85//85
f 67//67 66//66 86//86
f 73//73 87//87 66//66
f 66//66 88//88 86//86
f 89//89 88//88 66//66
f 89//89 66//66 87//87
f 67//67 86//86 85//85
f 82//82 68//68 90//90
f 91//91 68//68 72//72
f 68//68 91//91 90//90
f 92//92 69//69 93//93
f 85//85 93//93 69//69
f 92//92 70//70 69//69
f 94//94 71//71 70//70
f 70//70 92//92 94//94
f 71//71 94//94 95//95
f 95//95 72//72 71//71
f 95//95 91//91 72//72
f 87//87 73//73 96//96
f 74//74 96//96 73//73
f 96//96 74//74 97//97
f 74//74 75//75 82//82
f 82//82 90//90 74//74
f 98//98 74//74 90//90
f 97//97 74//74 98//98
f 80//80 81//81 76//76
f 77//77 76//76 81//81
f 77//77 84//84 78//78
f 84//84 77//77 81//81
f 79//79 78//78 83//83
f 84//84 83//83 78//78
f 86//86 99//99 85//85
f 99//99 93//93 85//85
f 88//88 100//100 86//86
f 99//99 86//86 100//100
f 101//101 89//89 87//87
f 96//96 101//101 87//87
f 102//102 88//88 89//89
f 103//103 88//88 104//104
f 105//105 106//106 88//88
f 107//107 105//105 88//88
f 108//108 88//88 102//102
f 104//104 88//88 108//108
f 109//109 100//100 88//88
f 103//103 107//107 88//88
f 109//109 88//88 106//106
f 89//89 101//101 102//102
f 110//110 90//90 91//91
f 98//98 90//90 110//110
f 111//111 110//110 91//91
f 111//111 91//91 95//95
f 112//112 94//94 92//92
f 113//113 112//112 92//92
f 93//93 113//113 92//92
f 113//113 93//93 99//99
f 114//114 95//95 94//94
f 112//112 114//114 94//94
f 114//114 111//111 95//95
f 101//101 96//96 97//97
f 115//115 97//97 116//116
f 101//101 97//97 115//115
f 116//116 97//97 98//98
f 110//110 117//117 98//98
f 116//116 98//98 117//117
f 118//118 99//99 100//100
f 119//119 99//99 118//118
f 119//119 113//113 99//99
f 109//109 118//118 100//100
f 115//115 120//120 101//101
f 101//101 120//120 102//102
f 102//102 120//120 108//108
f 121//121 103//103 122//122
f 123//123 122//122 103//103
f 103//103 104//104 123//123
f 107//107 103//103 121//121
f 104//104 108//108 120//120
f 120//120 116//116 104//104
f 116//116 123//123 104//104
f 107//107 124//124 105//105
f 106//106 105//105 125//125
f 124//124 126//126 105//105
f 127//127 105//105 126//126
f 105//105 127//127 125//125
f 118//118 109//109 106//106
f 106//106 128//128 118//118
f 128//128 106//106 125//125
f 129//129 124//124 107//107
f 121//121 129//129 107//107
f 111//111 129//129 110//110
f 121//121 110//110 129//129
f 117//117 110//110 122//122
f 121//121 122//122 110//110
f 130//130 111//111 114//114
f 111//111 130//130 131//131
f 111//111 131//131 129//129
f 112//112 132//132 130//130
f 130//130 114//114 112//112
f 132//132 112//112 113//113
f 133//133 131//131 113//113
f 131//131 132//132 113//113
f 133//133 113//113 134//134
f 134//134 113//113 119//119
f 116//116 120//120 115//115
f 116//116 117//117 123//123
f 122//122 123//123 117//117
f 119//119 118//118 128//128
f 127//127 134//134 119//119
f 119//119 128//128 125//125
f 127//127 119//119 125//125
f 129//129 126//126 124//124
f 129//129 133//133 126//126
f 133//133 134//134 126//126
f 126//126 134//134 127//127
f 129//129 131//131 133//133
f 131//131 130//130 132//132
