# Generated by Visualization Toolkit
v 0 0.05291999876499176 0
v 0 0.05027399957180023 0.012600000016391277
v 0 0.044982001185417175 0.021764000877738
v 0 0.035280000418424606 0.024708999320864677
v 0 0.023814000189304352 0.021436000242829323
v 0 0.018345000222325325 0.015545999631285667
v 0 0.00864300038665533 0.013418000191450119
v 0 0.0042329998686909676 0.008182000368833542
v 0 0 0
v 0.005481999833136797 0.0491270013153553 0.007546000182628632
v 0.01014699973165989 0.04436499997973442 0.013965999707579613
v 0.012023000046610832 0.03395700082182884 0.016548000276088715
v 0.011013000272214413 0.023814000189304352 0.015158000402152538
v 0.008511999621987343 0.016493000090122223 0.01171599980443716
v 0.006924999877810478 0.00873200036585331 0.009530999697744846
v 0.003990999888628721 0.003969000186771154 0.005495000164955854
v 0.005758000072091818 0.04797999933362007 0.0018710000440478325
v 0.012138999998569489 0.04374700039625168 0.003944000229239464
v 0.015406999737024307 0.03263400122523308 0.005005999933928251
v 0.01525100041180849 0.023814000189304352 0.004954999778419733
v 0.012760999612510204 0.01464099995791912 0.004145999904721975
v 0.009649000130593777 0.008820000104606152 0.0031349998898804188
v 0.005135000217705965 0.003705000039190054 0.0016690000193193555
v 0.005758000072091818 0.04797999933362007 -0.0018710000440478325
v 0.012138999998569489 0.04374700039625168 -0.003944000229239464
v 0.015406999737024307 0.03263400122523308 -0.005005999933928251
v 0.01525100041180849 0.023814000189304352 -0.004954999778419733
v 0.012760999612510204 0.01464099995791912 -0.004145999904721975
v 0.009649000130593777 0.008820000104606152 -0.0031349998898804188
v 0.005135000217705965 0.003705000039190054 -0.0016690000193193555
v 0.0038950000889599323 0.04974399879574776 -0.005361999850720167
v 0.008992999792098999 0.04656900092959404 -0.012377999722957611
v 0.012600000016391277 0.03492699936032295 -0.017342999577522278
v 0.011590000241994858 0.02346000075340271 -0.015953000634908676
v 0.009088999591767788 0.016228999942541122 -0.012511000037193298
v 0.007550999987870455 0.008555999957025051 -0.01039199996739626
v 0.004616999998688698 0.00343999988399446 -0.00635500019416213
v 0 0.05150900036096573 -0.007199999876320362
v 0 0.04939199984073639 -0.01783600077033043
v 0 0.037220001220703125 -0.026673000305891037
v 0 0.02310900017619133 -0.023399999365210533
v 0 0.017815999686717987 -0.01750900037586689
v 0 0.008290999568998814 -0.015545999631285667
v 0 0.0031739999540150166 -0.010308999568223953
v -0.003367000026628375 0.05159600079059601 -0.004633000120520592
v -0.006781000178307295 0.04559899866580963 -0.009332999587059021
v -0.008751999586820602 0.035985998809337616 -0.012047000229358673
v -0.007934999652206898 0.025225000455975533 -0.01092199981212616
v -0.008464000187814236 0.015170999802649021 -0.011649999767541885
v -0.007550999987870455 0.007761000189930201 -0.01039199996739626
v -0.0050490000285208225 0.0030869999900460243 -0.006949999835342169
v -0.004046000074595213 0.05168500170111656 -0.0013150000013411045
v -0.004980999976396561 0.04180699959397316 -0.001617999980226159
v -0.002956999931484461 0.03475100174546242 -0.0009609999833628535
v -0.00342399999499321 0.027341999113559723 -0.0011119999689981341
v -0.010738000273704529 0.012524000369012356 -0.0034890000242739916
v -0.009649000130593777 0.00723200011998415 -0.0031349998898804188
v -0.006535999942570925 0.0029990000184625387 -0.002124000107869506
v -0.004046000074595213 0.05168500170111656 0.0013150000013411045
v -0.004980999976396561 0.04180699959397316 0.001617999980226159
v -0.002956999931484461 0.03475100174546242 0.0009609999833628535
v -0.00342399999499321 0.027341999113559723 0.0011119999689981341
v -0.010738000273704529 0.012524000369012356 0.0034890000242739916
v -0.009649000130593777 0.00723200011998415 0.0031349998898804188
v -0.006535999942570925 0.0029990000184625387 0.002124000107869506
v -0.004954000003635883 0.050978999584913254 0.006818000227212906
v -0.007934999652206898 0.04339500144124031 0.01092199981212616
v -0.008175999857485294 0.03501499816775322 0.011253000237047672
v -0.00735800014808774 0.0255769994109869 0.010127999819815159
v -0.00788700021803379 0.015434999950230122 0.010855999775230885
v -0.006924999877810478 0.007937000133097172 0.009530999697744846
v -0.004424000158905983 0.003616000059992075 0.006089000031352043
vn 0.1959179937839508 0.9806039929389954 -0.005723999813199043
vn -0.015503999777138233 0.926118016242981 0.37691599130630493
vn -0.21793000400066376 0.5723789930343628 0.7904989719390869
vn -0.23588299751281738 -0.033038001507520676 0.9712200164794922
vn -0.23746100068092346 -0.3219720125198364 0.9164860248565674
vn -0.10754799842834473 -0.3034990131855011 0.9467430114746094
vn 0.041875001043081284 -0.5124049782752991 0.8577219843864441
vn 0.07183100283145905 -0.8177629709243774 0.5710560083389282
vn 0.0962430015206337 -0.9921910166740417 0.07933100312948227
vn 0.5405930280685425 0.8259959816932678 0.15965600311756134
vn 0.7062519788742065 0.5571449995040894 0.43680399656295776
vn 0.7879930138587952 0.023821000009775162 0.6152240037918091
vn 0.6138330101966858 -0.43507200479507446 0.6587280035018921
vn 0.6017600297927856 -0.4562940001487732 0.6554999947547913
vn 0.6581220030784607 -0.4983699917793274 0.5643600225448608
vn 0.47382599115371704 -0.7885739803314209 0.3919700086116791
vn 0.6340749859809875 0.7732279896736145 -0.008181000128388405
vn 0.8252620100975037 0.557790994644165 0.08838900178670883
vn 0.9825929999351501 0.09088099747896194 0.16202500462532043
vn 0.9423069953918457 -0.23822200298309326 0.2351759970188141
vn 0.8916509747505188 -0.38980698585510254 0.23023700714111328
vn 0.8299430012702942 -0.5337880253791809 0.1620669960975647
vn 0.6518759727478027 -0.7488409876823425 0.11955799907445908
vn 0.6079059839248657 0.7936570048332214 0.023641999810934067
vn 0.8042889833450317 0.5936859846115112 -0.025622999295592308
vn 0.9830480217933655 0.13743799924850464 -0.12135600298643112
vn 0.9704959988594055 -0.1465190052986145 -0.19149400293827057
vn 0.9086130261421204 -0.38249099254608154 -0.16770300269126892
vn 0.8126519918441772 -0.5787429809570312 -0.0682160034775734
vn 0.6688500046730042 -0.7432309985160828 -0.015734000131487846
vn 0.523838996887207 0.8500289916992188 -0.05517100170254707
vn 0.6799950003623962 0.689041018486023 -0.2506589889526367
vn 0.8250719904899597 0.16201500594615936 -0.5413010120391846
vn 0.7270709872245789 -0.25251901149749756 -0.6384369730949402
vn 0.6887540221214294 -0.42019200325012207 -0.5908100008964539
vn 0.6979590058326721 -0.5805429816246033 -0.4193139970302582
vn 0.5486999750137329 -0.8048030138015747 -0.22631999850273132
vn 0.029103999957442284 0.9826890230178833 -0.18296100199222565
vn -0.16778899729251862 0.854902982711792 -0.4909060001373291
vn -0.2117680013179779 0.20526200532913208 -0.9555220007896423
vn -0.058044999837875366 -0.4702860116958618 -0.880603015422821
vn 0.03397100046277046 -0.49101999402046204 -0.8704860210418701
vn 0.02153100073337555 -0.5546429753303528 -0.8318099975585938
vn 0.053412001579999924 -0.8781729936599731 -0.4753530025482178
vn -0.5437710285186768 0.8388599753379822 -0.025026999413967133
vn -0.9156519770622253 0.3984470069408417 0.05311800166964531
vn -0.9972450137138367 0.06929899752140045 -0.02645999938249588
vn -0.9174200296401978 -0.24961799383163452 -0.3098900020122528
vn -0.7684289813041687 -0.2835119962692261 -0.5737059712409973
vn -0.7248939871788025 -0.42817598581314087 -0.5396239757537842
vn -0.45782598853111267 -0.8193179965019226 -0.34512799978256226
vn -0.7338899970054626 0.6749789714813232 0.07621700316667557
vn -0.977308988571167 0.03150000050663948 0.2094610035419464
vn -0.9718459844589233 -0.048826999962329865 0.23050199449062347
vn -0.9884840250015259 0.14419199526309967 0.04591900110244751
vn -0.9895640015602112 0.03790599852800369 -0.13901999592781067
vn -0.9053540229797363 -0.4016839861869812 -0.1377830058336258
vn -0.6150529980659485 -0.7822759747505188 -0.09876199811697006
vn -0.7652140259742737 0.6397500038146973 -0.071881003677845
vn -0.9775609970092773 -0.08063700050115585 -0.19460700452327728
vn -0.9718850255012512 -0.09657000005245209 -0.21473899483680725
vn -0.9625290036201477 0.26426300406455994 -0.06085199862718582
vn -0.9798049926757812 0.13130399584770203 0.15080299973487854
vn -0.8790180087089539 -0.4210920035839081 0.2236260026693344
vn -0.5802029967308044 -0.7898489832878113 0.19875499606132507
vn -0.6198440194129944 0.7742249965667725 0.1279429942369461
vn -0.9896559715270996 0.12883099913597107 0.063120998442173
vn -0.9955599904060364 -0.07149600237607956 0.06122500076889992
vn -0.9328070282936096 0.13549600541591644 0.3339340090751648
vn -0.7728729844093323 0.03465000167489052 0.6336140036582947
vn -0.6071490049362183 -0.4594799876213074 0.64826500415802
vn -0.3398509919643402 -0.7989869713783264 0.49610498547554016
f 1//1 2//2 10//10
f 2//2 3//3 11//11 10//10
f 3//3 4//4 12//12 11//11
f 4//4 5//5 13//13 12//12
f 5//5 6//6 14//14 13//13
f 6//6 7//7 15//15 14//14
f 7//7 8//8 16//16 15//15
f 8//8 9//9 16//16
f 1//1 10//10 17//17
f 10//10 11//11 18//18 17//17
f 11//11 12//12 19//19 18//18
f 12//12 13//13 20//20 19//19
f 13//13 14//14 21//21 20//20
f 14//14 15//15 22//22 21//21
f 15//15 16//16 23//23 22//22
f 16//16 9//9 23//23
f 1//1 17//17 24//24
f 17//17 18//18 25//25 24//24
f 18//18 19//19 26//26 25//25
f 19//19 20//20 27//27 26//26
f 20//20 21//21 28//28 27//27
f 21//21 22//22 29//29 28//28
f 22//22 23//23 30//30 29//29
f 23//23 9//9 30//30
f 1//1 24//24 31//31
f 24//24 25//25 32//32 31//31
f 25//25 26//26 33//33 32//32
f 26//26 27//27 34//34 33//33
f 27//27 28//28 35//35 34//34
f 28//28 29//29 36//36 35//35
f 29//29 30//30 37//37 36//36
f 30//30 9//9 37//37
f 1//1 31//31 38//38
f 31//31 32//32 39//39 38//38
f 32//32 33//33 40//40 39//39
f 33//33 34//34 41//41 40//40
f 34//34 35//35 42//42 41//41
f 35//35 36//36 43//43 42//42
f 36//36 37//37 44//44 43//43
f 37//37 9//9 44//44
f 1//1 38//38 45//45
f 38//38 39//39 46//46 45//45
f 39//39 40//40 47//47 46//46
f 40//40 41//41 48//48 47//47
f 41//41 42//42 49//49 48//48
f 42//42 43//43 50//50 49//49
f 43//43 44//44 51//51 50//50
f 44//44 9//9 51//51
f 1//1 45//45 52//52
f 45//45 46//46 53//53 52//52
f 46//46 47//47 54//54 53//53
f 47//47 48//48 55//55 54//54
f 48//48 49//49 56//56 55//55
f 49//49 50//50 57//57 56//56
f 50//50 51//51 58//58 57//57
f 51//51 9//9 58//58
f 1//1 52//52 59//59
f 52//52 53//53 60//60 59//59
f 53//53 54//54 61//61 60//60
f 54//54 55//55 62//62 61//61
f 55//55 56//56 63//63 62//62
f 56//56 57//57 64//64 63//63
f 57//57 58//58 65//65 64//64
f 58//58 9//9 65//65
f 1//1 59//59 66//66
f 59//59 60//60 67//67 66//66
f 60//60 61//61 68//68 67//67
f 61//61 62//62 69//69 68//68
f 62//62 63//63 70//70 69//69
f 63//63 64//64 71//71 70//70
f 64//64 65//65 72//72 71//71
f 65//65 9//9 72//72
f 1//1 66//66 2//2
f 66//66 67//67 3//3 2//2
f 67//67 68//68 4//4 3//3
f 68//68 69//69 5//5 4//4
f 69//69 70//70 6//6 5//5
f 70//70 71//71 7//7 6//6
f 71//71 72//72 8//8 7//7
f 72//72 9//9 8//8
