# Generated by Visualization Toolkit
v 0.031546998769044876 -0.13224999606609344 -0.04577400162816048
v 0.03090599924325943 -0.13172399997711182 -0.04671899974346161
v 0.03338399901986122 -0.13343000411987305 -0.046929001808166504
v 0.030091000720858574 -0.1302109956741333 -0.045145001262426376
v 0.030553000047802925 -0.13021500408649445 -0.04468800127506256
v 0.02998499944806099 -0.13061100244522095 -0.04560299962759018
v 0.03434300050139427 -0.13079899549484253 -0.04442499950528145
v 0.033132001757621765 -0.13320299983024597 -0.045935001224279404
v 0.03255600109696388 -0.13231800496578217 -0.05107000097632408
v 0.029922999441623688 -0.1305440068244934 -0.047012001276016235
v 0.03370099887251854 -0.13329699635505676 -0.045882001519203186
v 0.03328999876976013 -0.13300199806690216 -0.04884900152683258
v 0.03472999855875969 -0.13203799724578857 -0.048507001250982285
v 0.03502799943089485 -0.1326889991760254 -0.046250998973846436
v 0.028351999819278717 -0.12858200073242188 -0.04532099887728691
v 0.029851000756025314 -0.1292870044708252 -0.04469799995422363
v 0.030905000865459442 -0.12926100194454193 -0.0442270003259182
v 0.02615099959075451 -0.12734299898147583 -0.04806499928236008
v 0.03466099873185158 -0.13273100554943085 -0.045510001480579376
v 0.034821998327970505 -0.13187900185585022 -0.044982001185417175
v 0.033341001719236374 -0.1299149990081787 -0.044109001755714417
v 0.03201200067996979 -0.12936100363731384 -0.04400499910116196
v 0.034683000296354294 -0.13022500276565552 -0.0449099987745285
v 0.033590998500585556 -0.1326799988746643 -0.051343999803066254
v 0.029788000509142876 -0.1297069936990738 -0.049626000225543976
v 0.030513999983668327 -0.13006900250911713 -0.050693999975919724
v 0.03312300145626068 -0.1319960057735443 -0.05164499953389168
v 0.03460000082850456 -0.13047200441360474 -0.04818800091743469
v 0.03513700142502785 -0.13091400265693665 -0.04988599941134453
v 0.03447800129652023 -0.13206300139427185 -0.0515500009059906
v 0.03521899878978729 -0.13133099675178528 -0.04549200087785721
v 0.034999001771211624 -0.13056699931621552 -0.04667399823665619
v 0.02380100078880787 -0.12485100328922272 -0.044248998165130615
v 0.026190999895334244 -0.1261020004749298 -0.043914999812841415
v 0.02861800044775009 -0.12826499342918396 -0.04472300037741661
v 0.030401000753045082 -0.12848000228405 -0.04492799937725067
v 0.029354000464081764 -0.12757599353790283 -0.04460899904370308
v 0.03140399977564812 -0.12838399410247803 -0.04459900036454201
v 0.02658900059759617 -0.12648600339889526 -0.049550000578165054
v 0.02245499938726425 -0.12413299828767776 -0.04760799929499626
v 0.021730000153183937 -0.1233230009675026 -0.0482029989361763
v 0.020694000646471977 -0.12141100317239761 -0.04929099977016449
v 0.033309999853372574 -0.1290999948978424 -0.04436599835753441
v 0.03478199988603592 -0.13006499409675598 -0.046386998146772385
v 0.03348800167441368 -0.1289830058813095 -0.04608599841594696
v 0.034338001161813736 -0.13066299259662628 -0.051906999200582504
v 0.029500000178813934 -0.12879200279712677 -0.05021199956536293
v 0.03036399930715561 -0.12892700731754303 -0.050811998546123505
v 0.031156999990344048 -0.12939199805259705 -0.051284000277519226
v 0.031311001628637314 -0.13039599359035492 -0.051128000020980835
v 0.03449799865484238 -0.12955200672149658 -0.04962800070643425
v 0.03319400176405907 -0.12894099950790405 -0.047807998955249786
v 0.03483099862933159 -0.1309020072221756 -0.051545001566410065
v 0.034630000591278076 -0.1302179992198944 -0.05147299915552139
v 0.02443999983370304 -0.12432499974966049 -0.04289500042796135
v 0.020002000033855438 -0.12133999913930893 -0.04056699946522713
v 0.020997000858187675 -0.12091100215911865 -0.040010999888181686
v 0.01799900084733963 -0.12075100094079971 -0.04226300120353699
v 0.027767999097704887 -0.12654699385166168 -0.04409100115299225
v 0.030527999624609947 -0.12804600596427917 -0.04604800045490265
v 0.02321700006723404 -0.12167699635028839 -0.04945100098848343
v 0.02374899946153164 -0.12117800116539001 -0.04472300037741661
v 0.029923999682068825 -0.12744799256324768 -0.04874499887228012
v 0.02544499933719635 -0.12335000187158585 -0.04346099868416786
v 0.02928999997675419 -0.12796400487422943 -0.0500200018286705
v 0.028821999207139015 -0.12700000405311584 -0.04969999939203262
v 0.017660999670624733 -0.12101999670267105 -0.04619999974966049
v 0.01800299994647503 -0.11976700276136398 -0.04882099851965904
v 0.019077999517321587 -0.11946699768304825 -0.0496940016746521
v 0.02205199934542179 -0.1209620013833046 -0.049501001834869385
v 0.03377600014209747 -0.12963899970054626 -0.051819998770952225
v 0.031091999262571335 -0.12806500494480133 -0.05075100064277649
v 0.029791999608278275 -0.1277099996805191 -0.049828000366687775
v 0.03172500059008598 -0.12880800664424896 -0.05139400064945221
v 0.03269600123167038 -0.12893900275230408 -0.05158200114965439
v 0.03427699953317642 -0.12954699993133545 -0.05137699842453003
v 0.032701000571250916 -0.12846200168132782 -0.05103899911046028
v 0.02270900085568428 -0.12127099931240082 -0.04105300083756447
v 0.025141999125480652 -0.12396200001239777 -0.0428679995238781
v 0.01844000071287155 -0.11994100362062454 -0.0406700000166893
v 0.02021300047636032 -0.11999399960041046 -0.03951599821448326
v 0.021345000714063644 -0.11931700259447098 -0.0395830012857914
v 0.016517000272870064 -0.11980099976062775 -0.04438500106334686
v 0.01732500083744526 -0.11999800056219101 -0.04256699979305267
v 0.022064000368118286 -0.12021099776029587 -0.049293000251054764
v 0.021276000887155533 -0.11762899905443192 -0.04834200069308281
v 0.021669000387191772 -0.11721999943256378 -0.04151900112628937
v 0.02349499985575676 -0.12082699686288834 -0.042093999683856964
v 0.016457999125123024 -0.1193929985165596 -0.046473998576402664
v 0.01665700040757656 -0.11938600242137909 -0.0471160002052784
v 0.018130000680685043 -0.11833299696445465 -0.04943099990487099
v 0.017253000289201736 -0.11904100328683853 -0.048200998455286026
v 0.019740000367164612 -0.11877100169658661 -0.04977099969983101
v 0.020539000630378723 -0.11797399818897247 -0.04928699880838394
v 0.02209700085222721 -0.11894799768924713 -0.040146999061107635
v 0.020261000841856003 -0.11725600063800812 -0.041228998452425
v 0.019863000139594078 -0.11818400025367737 -0.03992699831724167
v 0.02027899958193302 -0.11772999912500381 -0.04334300011396408
v 0.019951000809669495 -0.11803799867630005 -0.04426199942827225
v 0.019631000235676765 -0.11898300051689148 -0.03936399891972542
v 0.01873300038278103 -0.11917900294065475 -0.04451800137758255
v 0.019406000152230263 -0.11879999935626984 -0.04424799978733063
v 0.020476000383496284 -0.1192609965801239 -0.03936399891972542
v 0.020729999989271164 -0.11855900287628174 -0.0395050011575222
v 0.01858299970626831 -0.11932799965143204 -0.04534199833869934
v 0.019499000161886215 -0.11686000227928162 -0.048670001327991486
v 0.019664999097585678 -0.11629600077867508 -0.047603998333215714
v 0.020245999097824097 -0.11615800112485886 -0.04315200075507164
v 0.021376999095082283 -0.11795199662446976 -0.04013799875974655
v 0.020539000630378723 -0.11647800356149673 -0.041843999177217484
v 0.02052599936723709 -0.11699499934911728 -0.04086799919605255
v 0.018056999891996384 -0.11892499774694443 -0.047231998294591904
v 0.01851700060069561 -0.11742199957370758 -0.0490569993853569
v 0.01942799985408783 -0.11814100295305252 -0.04651099815964699
v 0.020225999876856804 -0.11721699684858322 -0.04036499932408333
v 0.020109999924898148 -0.11760099977254868 -0.04397900030016899
v 0.01949699968099594 -0.11836200207471848 -0.044610001146793365
v 0.01988000050187111 -0.11712200194597244 -0.044488999992609024
v 0.019860999658703804 -0.1180189996957779 -0.0449099987745285
v 0.019308999180793762 -0.11883799731731415 -0.044923000037670135
vn -0.5115159749984741 -0.7142339944839478 0.477726012468338
vn -0.6787670254707336 -0.7324749827384949 -0.05248500034213066
vn -0.0896959975361824 -0.991703987121582 -0.0920720025897026
vn -0.5660369992256165 -0.5311269760131836 0.6304810047149658
vn -0.38326600193977356 -0.46670201420783997 0.7970550060272217
vn -0.6887509822845459 -0.6675300002098083 0.2828870117664337
vn 0.023879000917077065 -0.38760000467300415 0.9215180277824402
vn -0.29055100679397583 -0.7756500244140625 0.5603100061416626
vn -0.5781090259552002 -0.7404720187187195 -0.3427709937095642
vn -0.6984840035438538 -0.7058069705963135 -0.11814200133085251
vn 0.1131490021944046 -0.8672199845314026 0.48489901423454285
vn 0.13821899890899658 -0.9759020209312439 -0.1688539981842041
vn 0.8156470060348511 -0.5737770199775696 -0.07416199892759323
vn 0.8693310022354126 -0.4917289912700653 -0.04966700077056885
vn -0.562952995300293 -0.6542099714279175 0.5050680041313171
vn -0.35792601108551025 -0.23015399277210236 0.9049410223960876
vn -0.29045000672340393 0.036761000752449036 0.9561840295791626
vn -0.6554129719734192 -0.7343509793281555 -0.17652800679206848
vn 0.47920799255371094 -0.6171680092811584 0.6240710020065308
vn 0.6742969751358032 -0.22844499349594116 0.702235996723175
vn 0.3208569884300232 0.1266389936208725 0.9386230111122131
vn -0.035610001534223557 0.0684560015797615 0.9970179796218872
vn 0.7671549916267395 0.40401801466941833 0.49823999404907227
vn 0.09850800037384033 -0.7886949777603149 -0.6068419814109802
vn -0.6833069920539856 -0.5855100154876709 -0.43619999289512634
vn -0.6560810208320618 -0.3327920138835907 -0.6773520112037659
vn -0.34147998690605164 -0.34793099761009216 -0.873117983341217
vn 0.9126200079917908 0.40864700078964233 -0.01148299966007471
vn 0.9968870282173157 0.07865499705076218 -0.005491999909281731
vn 0.7133340239524841 -0.4767940044403076 -0.5136359930038452
vn 0.9708830118179321 0.011777999810874462 0.23926399648189545
vn 0.9672719836235046 0.20258300006389618 -0.15279099345207214
vn -0.47307300567626953 -0.8034300208091736 0.36152899265289307
vn -0.2915160059928894 -0.6351540088653564 0.7152600288391113
vn -0.1998720020055771 -0.44233399629592896 0.8742949962615967
vn 0.029495999217033386 0.6325610280036926 0.7739480137825012
vn 0.5883169770240784 0.495714008808136 0.6388670206069946
vn -0.03043700009584427 0.8124290108680725 0.5822650194168091
vn -0.3676699995994568 -0.25312700867652893 -0.8948439955711365
vn -0.6039170026779175 -0.7953050136566162 -0.05266699939966202
vn -0.5810220241546631 -0.6923009753227234 -0.4279400110244751
vn -0.31543299555778503 -0.39308300614356995 -0.8637059926986694
vn 0.4195219874382019 0.723239004611969 0.5485680103302002
vn 0.8196409940719604 0.5721549987792969 -0.028767000883817673
vn 0.576229989528656 0.8172429800033569 -0.008573000319302082
vn 0.2117149978876114 -0.018396999686956406 -0.9771580100059509
vn -0.48089900612831116 -0.2431049942970276 -0.842399001121521
vn -0.5305830240249634 0.0882359966635704 -0.8430280089378357
vn -0.4088839888572693 0.02521499991416931 -0.9122380018234253
vn -0.30499300360679626 -0.14111700654029846 -0.9418420195579529
vn 0.7764790058135986 0.6280030012130737 0.051885999739170074
vn 0.5699840188026428 0.8193079829216003 0.06206599995493889
vn 0.8507599830627441 0.03205199912190437 -0.5245760083198547
vn 0.7963669896125793 0.3985460102558136 -0.454928994178772
vn -0.020565999671816826 -0.5619199872016907 0.8269360065460205
vn -0.3788590133190155 -0.6881020069122314 0.6188549995422363
vn 0.09661900252103806 -0.5470790266990662 0.8314859867095947
vn -0.6355739831924438 -0.7270129919052124 0.2598020136356354
vn 0.21731600165367126 -0.19489699602127075 0.9564459919929504
vn 0.26127099990844727 0.9291480183601379 0.26157599687576294
vn 0.5361610054969788 0.5185850262641907 -0.6660330295562744
vn 0.8250399827957153 0.5605840086936951 -0.07109100371599197
vn 0.4112130105495453 0.9110580086708069 -0.029608000069856644
vn 0.7355020046234131 0.39244601130485535 0.5522890090942383
vn -0.09849999845027924 0.3343049883842468 -0.9373040199279785
vn 0.23361000418663025 0.4117569923400879 -0.8808419704437256
vn -0.6706579923629761 -0.7189300060272217 -0.18264099955558777
vn -0.6288809776306152 -0.48669299483299255 -0.6063330173492432
vn -0.26289600133895874 -0.23284299671649933 -0.9363059997558594
vn 0.1281830072402954 0.027408000081777573 -0.9913719892501831
vn 0.2248769998550415 0.3231779932975769 -0.9192309975624084
vn -0.22437599301338196 0.6211580038070679 -0.7508779764175415
vn 0.12011100351810455 0.8018500208854675 -0.585328996181488
vn -0.15650799870491028 0.32526299357414246 -0.9325820207595825
vn 0.053098998963832855 0.4718270003795624 -0.8800910115242004
vn 0.581991970539093 0.6787559986114502 -0.44785600900650024
vn 0.2944850027561188 0.9052680134773254 -0.3062179982662201
vn 0.6062250137329102 -0.10441099852323532 0.7884089946746826
vn 0.47670701146125793 -0.04537000134587288 0.8778910040855408
vn -0.8693320155143738 0.31703299283981323 0.379146009683609
vn -0.13970300555229187 -0.3965759873390198 0.9073100090026855
vn 0.3917990028858185 -0.10831700265407562 0.9136530160903931
vn -0.9106929898262024 -0.37003400921821594 0.18361400067806244
vn -0.6825379729270935 0.6638799905776978 0.30562201142311096
vn 0.6334440112113953 0.4271720051765442 -0.64519202709198
vn 0.6770280003547668 0.6549190282821655 -0.33573099970817566
vn 0.7133439779281616 0.6700860261917114 0.2052450031042099
vn 0.8773279786109924 0.3564079999923706 0.3213540017604828
vn -0.6666470170021057 0.743332028388977 0.05512600019574165
vn -0.9248579740524292 0.10229700058698654 -0.36629700660705566
vn -0.7358459830284119 0.40882399678230286 -0.539808988571167
vn -0.8239240050315857 0.4777640104293823 -0.3047800064086914
vn 0.020563000813126564 0.22631099820137024 -0.9738379716873169
vn 0.31388598680496216 0.45644599199295044 -0.8325459957122803
vn 0.7131779789924622 0.25275400280952454 0.6538289785385132
vn -0.8600450158119202 0.5098919868469238 0.01824299991130829
vn -0.6002209782600403 0.5841240286827087 0.5463830232620239
vn -0.9562349915504456 0.27416500449180603 0.10221599787473679
vn -0.8827729821205139 0.41491299867630005 0.22035899758338928
vn -0.3705030083656311 0.13515399396419525 0.9189450144767761
vn -0.47077399492263794 0.8813049793243408 0.04091000184416771
vn -0.7118949890136719 0.6935920119285583 0.11016099900007248
vn 0.006541999988257885 0.17254899442195892 0.984978973865509
vn 0.20324400067329407 0.3602040112018585 0.9104639887809753
vn -0.4607290029525757 0.8768079876899719 0.13761399686336517
vn -0.20609299838542938 0.875 -0.4380649924278259
vn -0.7956560254096985 0.60521399974823 -0.025436999276280403
vn -0.6339920163154602 0.7326890230178833 0.2474289983510971
vn 0.4633220136165619 0.6144359707832336 0.6385930180549622
vn -0.5830510258674622 0.7592620253562927 0.28909000754356384
vn -0.07246900349855423 0.9032710194587708 0.4229069948196411
vn -0.3984360098838806 0.8998110294342041 0.17773300409317017
vn -0.44056200981140137 0.7062640190124512 -0.5541629791259766
vn -0.7954379916191101 0.5553479790687561 0.24262399971485138
vn -0.3395949900150299 0.6922029852867126 0.6368119716644287
vn -0.9445319771766663 0.012439999729394913 0.32818400859832764
vn -0.8090710043907166 0.5591710209846497 0.18091699481010437
vn -0.9747440218925476 0.017859000712633133 0.22261099517345428
vn -0.9137899875640869 0.3798989951610565 0.1437550038099289
vn -0.8142309784889221 0.5657920241355896 0.13002799451351166
f 1//1 2//2 3//3
f 4//4 1//1 5//5
f 1//1 6//6 2//2
f 7//7 1//1 8//8
f 5//5 1//1 7//7
f 3//3 8//8 1//1
f 6//6 1//1 4//4
f 3//3 2//2 9//9
f 9//9 2//2 10//10
f 6//6 10//10 2//2
f 3//3 11//11 8//8
f 12//12 3//3 9//9
f 12//12 13//13 3//3
f 13//13 14//14 3//3
f 14//14 11//11 3//3
f 15//15 4//4 16//16
f 5//5 16//16 4//4
f 6//6 4//4 15//15
f 16//16 5//5 17//17
f 17//17 5//5 7//7
f 18//18 10//10 6//6
f 6//6 15//15 18//18
f 8//8 11//11 7//7
f 11//11 19//19 7//7
f 19//19 20//20 7//7
f 21//21 22//22 7//7
f 22//22 17//17 7//7
f 7//7 23//23 21//21
f 23//23 7//7 20//20
f 9//9 24//24 12//12
f 10//10 25//25 9//9
f 26//26 9//9 25//25
f 27//27 9//9 26//26
f 27//27 24//24 9//9
f 18//18 25//25 10//10
f 14//14 19//19 11//11
f 13//13 12//12 24//24
f 14//14 13//13 28//28
f 13//13 29//29 28//28
f 29//29 13//13 30//30
f 13//13 24//24 30//30
f 31//31 19//19 14//14
f 31//31 14//14 32//32
f 32//32 14//14 28//28
f 33//33 15//15 34//34
f 33//33 18//18 15//15
f 16//16 35//35 15//15
f 35//35 34//34 15//15
f 36//36 37//37 16//16
f 35//35 16//16 37//37
f 17//17 36//36 16//16
f 38//38 17//17 22//22
f 36//36 17//17 38//38
f 25//25 18//18 39//39
f 18//18 33//33 40//40
f 41//41 18//18 40//40
f 39//39 18//18 42//42
f 18//18 41//41 42//42
f 31//31 20//20 19//19
f 31//31 23//23 20//20
f 22//22 21//21 43//43
f 21//21 23//23 43//43
f 22//22 43//43 38//38
f 44//44 45//45 23//23
f 23//23 31//31 44//44
f 43//43 23//23 45//45
f 24//24 46//46 30//30
f 27//27 46//46 24//24
f 39//39 47//47 25//25
f 48//48 26//26 25//25
f 25//25 47//47 48//48
f 49//49 50//50 26//26
f 49//49 26//26 48//48
f 50//50 27//27 26//26
f 50//50 46//46 27//27
f 29//29 51//51 28//28
f 28//28 51//51 52//52
f 44//44 28//28 45//45
f 28//28 52//52 45//45
f 44//44 32//32 28//28
f 53//53 54//54 29//29
f 29//29 54//54 51//51
f 53//53 29//29 30//30
f 53//53 30//30 46//46
f 32//32 44//44 31//31
f 55//55 33//33 34//34
f 56//56 33//33 57//57
f 57//57 33//33 55//55
f 33//33 56//56 58//58
f 40//40 33//33 58//58
f 34//34 35//35 59//59
f 34//34 59//59 55//55
f 37//37 59//59 35//35
f 36//36 60//60 37//37
f 36//36 38//38 60//60
f 37//37 61//61 62//62
f 63//63 61//61 37//37
f 37//37 60//60 63//63
f 37//37 62//62 64//64
f 64//64 59//59 37//37
f 63//63 38//38 43//43
f 63//63 60//60 38//38
f 39//39 65//65 47//47
f 42//42 66//66 39//39
f 39//39 66//66 65//65
f 67//67 41//41 40//40
f 58//58 67//67 40//40
f 68//68 41//41 67//67
f 42//42 41//41 68//68
f 42//42 68//68 69//69
f 42//42 69//69 70//70
f 42//42 70//70 61//61
f 61//61 66//66 42//42
f 43//43 45//45 63//63
f 45//45 52//52 63//63
f 46//46 50//50 71//71
f 71//71 54//54 46//46
f 53//53 46//46 54//54
f 65//65 48//48 47//47
f 72//72 49//49 48//48
f 73//73 72//72 48//48
f 73//73 48//48 65//65
f 49//49 72//72 74//74
f 50//50 49//49 74//74
f 75//75 50//50 74//74
f 71//71 50//50 75//75
f 51//51 54//54 76//76
f 76//76 77//77 51//51
f 77//77 52//52 51//51
f 63//63 52//52 77//77
f 71//71 76//76 54//54
f 57//57 55//55 78//78
f 79//79 78//78 55//55
f 59//59 79//79 55//55
f 80//80 58//58 56//56
f 80//80 56//56 81//81
f 56//56 57//57 81//81
f 81//81 57//57 82//82
f 57//57 78//78 82//82
f 67//67 58//58 83//83
f 58//58 84//84 83//83
f 84//84 58//58 80//80
f 64//64 79//79 59//59
f 85//85 61//61 70//70
f 66//66 61//61 63//63
f 61//61 85//85 62//62
f 62//62 85//85 86//86
f 87//87 62//62 86//86
f 62//62 88//88 64//64
f 87//87 88//88 62//62
f 63//63 77//77 73//73
f 73//73 66//66 63//63
f 78//78 79//79 64//64
f 64//64 88//88 78//78
f 66//66 73//73 65//65
f 67//67 83//83 89//89
f 90//90 68//68 67//67
f 90//90 67//67 89//89
f 91//91 68//68 92//92
f 90//90 92//92 68//68
f 91//91 69//69 68//68
f 69//69 91//91 93//93
f 70//70 69//69 93//93
f 70//70 94//94 85//85
f 70//70 93//93 94//94
f 71//71 75//75 76//76
f 72//72 77//77 74//74
f 72//72 73//73 77//77
f 77//77 75//75 74//74
f 77//77 76//76 75//75
f 95//95 78//78 88//88
f 82//82 78//78 95//95
f 96//96 80//80 97//97
f 80//80 98//98 99//99
f 97//97 80//80 100//100
f 80//80 81//81 100//100
f 101//101 84//84 80//80
f 98//98 80//80 96//96
f 101//101 80//80 102//102
f 99//99 102//102 80//80
f 103//103 100//100 81//81
f 81//81 82//82 103//103
f 103//103 82//82 104//104
f 104//104 82//82 95//95
f 83//83 84//84 89//89
f 84//84 105//105 89//89
f 101//101 105//105 84//84
f 86//86 85//85 94//94
f 106//106 86//86 94//94
f 86//86 106//106 107//107
f 107//107 108//108 86//86
f 86//86 108//108 87//87
f 87//87 109//109 95//95
f 110//110 87//87 108//108
f 95//95 88//88 87//87
f 109//109 87//87 111//111
f 110//110 111//111 87//87
f 89//89 112//112 90//90
f 105//105 112//112 89//89
f 112//112 92//92 90//90
f 93//93 91//91 113//113
f 112//112 91//91 92//92
f 112//112 114//114 91//91
f 114//114 113//113 91//91
f 113//113 94//94 93//93
f 106//106 94//94 113//113
f 104//104 95//95 109//109
f 110//110 98//98 96//96
f 110//110 96//96 111//111
f 115//115 111//111 96//96
f 96//96 97//97 115//115
f 100//100 103//103 97//97
f 103//103 115//115 97//97
f 98//98 116//116 99//99
f 110//110 108//108 98//98
f 116//116 98//98 108//108
f 102//102 99//99 117//117
f 116//116 118//118 99//99
f 119//119 99//99 118//118
f 99//99 119//119 117//117
f 105//105 101//101 102//102
f 102//102 120//120 105//105
f 120//120 102//102 117//117
f 103//103 104//104 115//115
f 104//104 109//109 115//115
f 114//114 112//112 105//105
f 114//114 105//105 120//120
f 107//107 106//106 114//114
f 106//106 113//113 114//114
f 108//108 107//107 118//118
f 107//107 114//114 119//119
f 118//118 107//107 119//119
f 116//116 108//108 118//118
f 111//111 115//115 109//109
f 114//114 120//120 117//117
f 119//119 114//114 117//117
