# Generated by Visualization Toolkit
v 0.1584250032901764 0.005231000017374754 0.011870999820530415
v 0.1546510010957718 -0.000003000000106112566 0.013154000043869019
v 0.15259000658988953 0.001829999964684248 0.013182000257074833
v 0.15675200521945953 0.00688599981367588 0.012559999711811543
v 0.1549540013074875 0.007189000025391579 0.01216300018131733
v 0.15952399373054504 0.006221000105142593 0.01252800039947033
v 0.15937800705432892 -0.0030060000717639923 0.011467999778687954
v 0.16141599416732788 0.004333999939262867 0.013321000151336193
v 0.15702399611473083 -0.00406099995598197 0.012914000079035759
v 0.1572979986667633 -0.006345000118017197 0.014643999747931957
v 0.1521189957857132 0.0012629999546334147 0.014426000416278839
v 0.1576559990644455 -0.004887999966740608 0.012273999862372875
v 0.1449050009250641 0.005127999931573868 0.013384999707341194
v 0.14491599798202515 0.008628999814391136 0.010622000321745872
v 0.14811000227928162 0.01107999961823225 0.011819999665021896
v 0.15970300137996674 0.0064409999176859856 0.013763999566435814
v 0.1620199978351593 -0.0010349999647587538 0.011783000081777573
v 0.16105200350284576 -0.003938000183552504 0.01170899998396635
v 0.15852099657058716 -0.005109000019729137 0.011973000131547451
v 0.16033700108528137 0.0055680000223219395 0.015519999898970127
v 0.16336099803447723 0.004178999923169613 0.013999000191688538
v 0.15935200452804565 -0.006523999851197004 0.014551999978721142
v 0.15856599807739258 -0.0028019999153912067 0.018021000549197197
v 0.15837900340557098 -0.005280000157654285 0.016448000445961952
v 0.15707899630069733 -0.0002770000137388706 0.017242999747395515
v 0.15966099500656128 -0.005650999955832958 0.01635099947452545
v 0.15498599410057068 0.005841999780386686 0.016735000535845757
v 0.15539099276065826 0.0014280000468716025 0.01768999919295311
v 0.1263660043478012 0.012171999551355839 0.012512000277638435
v 0.1360889971256256 0.009101999923586845 0.01075700018554926
v 0.1350719928741455 0.017261000350117683 0.01260400004684925
v 0.1303980052471161 0.013466999866068363 0.008837999776005745
v 0.13165700435638428 0.017627999186515808 0.008848000317811966
v 0.15347599983215332 0.009390000253915787 0.014495999552309513
v 0.1220339983701706 0.02314000017940998 0.009045000188052654
v 0.15708400309085846 0.007267000153660774 0.016210999339818954
v 0.16151399910449982 -0.005247000139206648 0.012759000062942505
v 0.16447199881076813 -0.00007599999662488699 0.014152999967336655
v 0.16078400611877441 -0.005878999829292297 0.01257800031453371
v 0.159510999917984 0.00419300002977252 0.017162000760436058
v 0.16243399679660797 0.004900000058114529 0.015521000139415264
v 0.16424599289894104 0.0005869999877177179 0.016674000769853592
v 0.1607690006494522 -0.005626999773085117 0.0158270001411438
v 0.16319799423217773 -0.0015269999857991934 0.0176829993724823
v 0.16187499463558197 0.004058000165969133 0.017280999571084976
v 0.16140399873256683 -0.004412999842315912 0.017062999308109283
v 0.1573449969291687 0.005692000035196543 0.01771700009703636
v 0.10968700051307678 0.015189999714493752 0.008376999758183956
v 0.11077500134706497 0.015124999918043613 0.005584000144153833
v 0.10357700288295746 0.02352299913764 0.014940000139176846
v 0.11154700070619583 0.028095999732613564 0.009681000374257565
v 0.11077400296926498 0.021825000643730164 0.004738000221550465
v 0.10502199828624725 0.028421999886631966 0.005456000100821257
v 0.16228599846363068 -0.004157999996095896 0.01632699929177761
v 0.10373599827289581 0.014756999909877777 0.004654000047594309
v 0.1014069989323616 0.016124000772833824 0.005309999920427799
v 0.10046800225973129 0.0216669999063015 0.012267000041902065
v 0.10123299807310104 0.026575999334454536 0.014182999730110168
v 0.10056900233030319 0.025414999574422836 0.014037000015377998
v 0.09991700202226639 0.024421000853180885 0.013411000370979309
v 0.10460299998521805 0.028939999639987946 0.006178999785333872
v 0.10374400019645691 0.029364999383687973 0.007195999845862389
v 0.10243400186300278 0.02855999954044819 0.01252800039947033
v 0.10405399650335312 0.019305000081658363 0.004567999858409166
v 0.10392799973487854 0.020514000207185745 0.004182000178843737
v 0.10425499826669693 0.026559000834822655 0.004251000005751848
v 0.10126200318336487 0.01755700074136257 0.00533400010317564
v 0.10286399722099304 0.027060000225901604 0.004825000185519457
v 0.10350699722766876 0.028836999088525772 0.006066999863833189
vn 0.1031000018119812 0.15309500694274902 -0.9828190207481384
vn -0.5700240135192871 -0.33978700637817383 -0.7480760216712952
vn -0.2508060038089752 -0.4588620066642761 -0.8523740172386169
vn 0.2599729895591736 0.6429809927940369 -0.7204089760780334
vn 0.1437090039253235 0.1808999925851822 -0.9729459881782532
vn 0.4435659945011139 0.6279060244560242 -0.6395180225372314
vn -0.0802680030465126 -0.004387000110000372 -0.9967640042304993
vn 0.49133700132369995 0.4939900040626526 -0.7173290252685547
vn -0.6951239705085754 -0.6104390025138855 -0.37969401478767395
vn -0.6581130027770996 -0.7300419807434082 0.1841920018196106
vn -0.7348620295524597 -0.6300380229949951 0.2510569989681244
vn -0.6430709958076477 -0.5168269872665405 -0.5651100277900696
vn -0.43176499009132385 -0.8895519971847534 0.14925499260425568
vn 0.04385099932551384 -0.23547300696372986 -0.970890998840332
vn 0.37069499492645264 0.6683850288391113 -0.6448609828948975
vn 0.5258839726448059 0.8397939801216125 -0.13488000631332397
vn 0.45898398756980896 0.039294999092817307 -0.8875749707221985
vn 0.32511499524116516 -0.2805190086364746 -0.9031109809875488
vn -0.17418299615383148 -0.5602520108222961 -0.8098019957542419
vn 0.4642699956893921 0.86490398645401 0.19077399373054504
vn 0.6831719875335693 0.6077229976654053 -0.4049060046672821
vn -0.12891699373722076 -0.9866639971733093 -0.09937100112438202
vn -0.22918100655078888 -0.22116899490356445 0.947924017906189
vn -0.3472909927368164 -0.5918239951133728 0.7274159789085388
vn -0.42649000883102417 -0.27167800068855286 0.8627269864082336
vn 0.03051700070500374 -0.7611879706382751 0.6478130221366882
vn -0.29607900977134705 0.23698300123214722 0.9252979755401611
vn -0.2823440134525299 -0.13267399370670319 0.9500939846038818
vn -0.24095000326633453 -0.9257339835166931 0.2914789915084839
vn -0.1989089995622635 -0.7092610001564026 -0.6763020157814026
vn 0.2322860062122345 0.638733983039856 0.7335270047187805
vn 0.009793000295758247 -0.4299429953098297 -0.9028030037879944
vn 0.26642999053001404 0.3025059998035431 -0.9151530265808105
vn 0.3073529899120331 0.8942109942436218 0.3254539966583252
vn 0.4035339951515198 0.822816014289856 -0.4001680016517639
vn 0.2883630096912384 0.7474820017814636 0.5984290242195129
vn 0.7738050222396851 -0.5261200070381165 -0.35273799300193787
vn 0.9455310106277466 -0.1637759953737259 -0.2813340127468109
vn 0.3781589865684509 -0.8008170127868652 -0.4644230008125305
vn 0.19009700417518616 0.40908101201057434 0.8924769759178162
vn 0.4970160126686096 0.7816849946975708 0.3767539858818054
vn 0.9225729703903198 0.10180900245904922 0.37214699387550354
vn 0.4984920024871826 -0.820455014705658 0.27992698550224304
vn 0.5207610130310059 -0.2208479940891266 0.82464200258255
vn 0.2970620095729828 0.40054699778556824 0.8667849898338318
vn 0.34950798749923706 -0.5947700142860413 0.7239429950714111
vn 0.036428000777959824 0.3886210024356842 0.9206770062446594
vn -0.21124599874019623 -0.8738120198249817 0.4379819929599762
vn 0.037400998175144196 -0.8064749836921692 -0.5900840163230896
vn -0.15887700021266937 -0.16624599695205688 0.9732009768486023
vn 0.33116400241851807 0.9177060127258301 0.21942099928855896
vn 0.16916699707508087 0.01408699993044138 -0.9854869842529297
vn 0.2148759961128235 0.6486430168151855 -0.7301309704780579
vn 0.793300986289978 -0.5614380240440369 0.23549999296665192
vn -0.16028200089931488 -0.497530996799469 -0.8525099754333496
vn -0.7478569746017456 -0.6622099876403809 0.04676799848675728
vn -0.8490189909934998 -0.41493499279022217 0.32710200548171997
vn -0.18132199347019196 0.48855501413345337 0.8534849882125854
vn -0.8465330004692078 0.34157198667526245 0.4083020091056824
vn -0.9033390283584595 -0.050186000764369965 0.4259819984436035
vn 0.02161400020122528 0.8439279794692993 -0.5360199809074402
vn -0.1472959965467453 0.9760890007019043 -0.15986000001430511
vn -0.6585109829902649 0.7421389818191528 0.12487299740314484
vn -0.04243599995970726 -0.1581840068101883 -0.9864969849586487
vn -0.13388800621032715 -0.11206500232219696 -0.9846400022506714
vn -0.08074399828910828 0.41078999638557434 -0.9081479907035828
vn -0.5939409732818604 -0.04912000149488449 -0.8030080199241638
vn -0.791018009185791 0.32460498809814453 -0.518576979637146
vn -0.43030598759651184 0.7359840273857117 -0.5226519703865051
f 1//1 2//2 3//3
f 4//4 1//1 5//5
f 4//4 6//6 1//1
f 7//7 1//1 8//8
f 1//1 3//3 5//5
f 1//1 7//7 2//2
f 8//8 1//1 6//6
f 2//2 9//9 10//10
f 2//2 11//11 3//3
f 11//11 2//2 10//10
f 9//9 2//2 12//12
f 12//12 2//2 7//7
f 3//3 11//11 13//13
f 13//13 14//14 3//3
f 5//5 3//3 14//14
f 5//5 15//15 4//4
f 15//15 16//16 4//4
f 4//4 16//16 6//6
f 15//15 5//5 14//14
f 6//6 16//16 8//8
f 8//8 17//17 7//7
f 17//17 18//18 7//7
f 19//19 12//12 7//7
f 18//18 19//19 7//7
f 16//16 20//20 8//8
f 21//21 8//8 20//20
f 21//21 17//17 8//8
f 10//10 9//9 22//22
f 9//9 12//12 22//22
f 23//23 10//10 24//24
f 25//25 10//10 23//23
f 25//25 11//11 10//10
f 24//24 10//10 26//26
f 26//26 10//10 22//22
f 11//11 27//27 13//13
f 11//11 25//25 28//28
f 11//11 28//28 27//27
f 12//12 19//19 22//22
f 29//29 30//30 13//13
f 30//30 14//14 13//13
f 13//13 27//27 31//31
f 31//31 29//29 13//13
f 14//14 30//30 32//32
f 14//14 33//33 15//15
f 14//14 32//32 33//33
f 15//15 34//34 16//16
f 35//35 31//31 15//15
f 31//31 34//34 15//15
f 15//15 33//33 35//35
f 34//34 36//36 16//16
f 16//16 36//36 20//20
f 37//37 17//17 38//38
f 17//17 21//21 38//38
f 18//18 17//17 37//37
f 39//39 19//19 18//18
f 18//18 37//37 39//39
f 22//22 19//19 39//39
f 20//20 36//36 40//40
f 20//20 40//40 41//41
f 21//21 20//20 41//41
f 41//41 42//42 21//21
f 38//38 21//21 42//42
f 39//39 43//43 22//22
f 43//43 26//26 22//22
f 44//44 45//45 23//23
f 40//40 25//25 23//23
f 44//44 23//23 46//46
f 23//23 45//45 40//40
f 23//23 24//24 26//26
f 46//46 23//23 26//26
f 25//25 40//40 28//28
f 43//43 46//46 26//26
f 34//34 27//27 36//36
f 27//27 34//34 31//31
f 47//47 27//27 28//28
f 47//47 36//36 27//27
f 40//40 47//47 28//28
f 48//48 49//49 29//29
f 32//32 30//30 29//29
f 49//49 32//32 29//29
f 29//29 31//31 50//50
f 48//48 29//29 50//50
f 51//51 50//50 31//31
f 51//51 31//31 35//35
f 32//32 49//49 52//52
f 52//52 33//33 32//32
f 33//33 53//53 35//35
f 52//52 53//53 33//33
f 51//51 35//35 53//53
f 36//36 47//47 40//40
f 37//37 43//43 39//39
f 43//43 37//37 54//54
f 54//54 37//37 38//38
f 38//38 42//42 54//54
f 45//45 41//41 40//40
f 42//42 41//41 45//45
f 45//45 44//44 42//42
f 42//42 44//44 54//54
f 46//46 43//43 54//54
f 54//54 44//44 46//46
f 49//49 48//48 55//55
f 48//48 56//56 55//55
f 50//50 57//57 48//48
f 48//48 57//57 56//56
f 55//55 52//52 49//49
f 50//50 51//51 58//58
f 50//50 59//59 60//60
f 59//59 50//50 58//58
f 57//57 50//50 60//60
f 61//61 51//51 53//53
f 51//51 61//61 62//62
f 63//63 51//51 62//62
f 63//63 58//58 51//51
f 52//52 64//64 65//65
f 55//55 64//64 52//52
f 52//52 66//66 53//53
f 65//65 66//66 52//52
f 61//61 53//53 66//66
f 55//55 67//67 64//64
f 67//67 55//55 56//56
f 57//57 67//67 56//56
f 57//57 68//68 67//67
f 68//68 57//57 60//60
f 58//58 63//63 59//59
f 59//59 68//68 60//60
f 63//63 68//68 59//59
f 61//61 66//66 69//69
f 61//61 69//69 62//62
f 62//62 69//69 63//63
f 63//63 69//69 68//68
f 65//65 64//64 67//67
f 66//66 65//65 68//68
f 65//65 67//67 68//68
f 66//66 68//68 69//69
