# Generated by Visualization Toolkit
v 0.1621749997138977 0.0033499998971819878 -0.0003440000000409782
v 0.16236799955368042 0.00356299988925457 0.0005249999812804163
v 0.16900299489498138 -0.005142000038176775 -0.0010870000114664435
v 0.15954099595546722 0.005028999876230955 -0.0003760000108741224
v 0.15640400350093842 0.007590999826788902 0.0023219999857246876
v 0.17218199372291565 -0.0020359999034553766 -0.005412000231444836
v 0.17037400603294373 0.0008960000122897327 -0.003971000202000141
v 0.17207199335098267 -0.00469700014218688 -0.003790999995544553
v 0.16745099425315857 0.0029329999815672636 -0.0047690002247691154
v 0.16225400567054749 0.005198999773710966 -0.0013379999436438084
v 0.1695449948310852 -0.002939000027254224 0.0014590000500902534
v 0.1708260029554367 0.006998000200837851 0.003693999955430627
v 0.17053699493408203 -0.0038920000661164522 0.002303000073879957
v 0.174235999584198 -0.005946999881416559 -0.0011350000277161598
v 0.1732490062713623 -0.005166999995708466 -0.0037090000696480274
v 0.1721539944410324 -0.005193999968469143 -0.0005869999877177179
v 0.15221799910068512 0.014611000195145607 -0.0005660000024363399
v 0.1390949934720993 0.014758000150322914 0.00108299998100847
v 0.13212299346923828 0.017558999359607697 0.0054870001040399075
v 0.13933199644088745 0.01859699934720993 0.006570000201463699
v 0.17681799829006195 -0.002213000087067485 -0.005555000156164169
v 0.17816400527954102 0.0026549999602138996 -0.0045819999650120735
v 0.16830599308013916 0.005547999870032072 -0.005090999882668257
v 0.1696159988641739 0.007424999959766865 -0.00406799977645278
v 0.16399599611759186 0.007720000110566616 -0.0025579999200999737
v 0.15394900739192963 0.01676500029861927 0.001117000007070601
v 0.16837100684642792 0.009941999800503254 0.0015589999966323376
v 0.17256399989128113 0.007910000160336494 0.0030799999367445707
v 0.17866599559783936 0.005146999843418598 0.0012179999612271786
v 0.17706799507141113 -0.002222999930381775 0.002964999992400408
v 0.1752520054578781 -0.004385000094771385 0.002877000020816922
v 0.15004000067710876 0.01738099940121174 0.005293000023812056
v 0.1757570058107376 -0.00532800005748868 0.0015930000226944685
v 0.1772170066833496 -0.004097000230103731 0.001978999935090542
v 0.1645050048828125 0.00864499993622303 -0.0021840000990778208
v 0.16396699845790863 0.011939000338315964 0.00043799998820759356
v 0.138387992978096 0.018323000520467758 0.0004250000056345016
v 0.13660599291324615 0.02492699958384037 0.0023350000847131014
v 0.12771600484848022 0.017071999609470367 0.001765000051818788
v 0.13450099527835846 0.021720999851822853 0.007864000275731087
v 0.11963299661874771 0.020092999562621117 0.010215999558568
v 0.12930800020694733 0.019386999309062958 0.008364999666810036
v 0.13523100316524506 0.02426999993622303 0.007081000134348869
v 0.17979800701141357 -0.0003100000030826777 -0.00367900007404387
v 0.17982199788093567 0.0032220000866800547 -0.0015140000032261014
v 0.17737099528312683 0.005975000094622374 -0.0008379999781027436
v 0.18021200597286224 0.00004400000034365803 0.0010379999876022339
v 0.1203169971704483 0.03363800048828125 0.005688999779522419
v 0.1184139996767044 0.0334010012447834 0.0026340000331401825
v 0.12200000137090683 0.025860000401735306 -0.0016670000040903687
v 0.11862999945878983 0.019809000194072723 0.005849000066518784
v 0.1312289983034134 0.025282999500632286 0.008311999961733818
v 0.1128230020403862 0.019598999992012978 0.010737000033259392
v 0.11416099965572357 0.020912999287247658 0.011672000400722027
v 0.12171799689531326 0.024252999573946 0.011145000346004963
v 0.12431299686431885 0.025537999346852303 0.010906999930739403
v 0.18053099513053894 0.000582000007852912 -0.0013200000394135714
v 0.11879199743270874 0.032304998487234116 0.011270999908447266
v 0.1122170016169548 0.03489400073885918 0.010804999619722366
v 0.11271300166845322 0.03518199920654297 0.006268000230193138
v 0.11265499889850616 0.028875000774860382 -0.0025059999898076057
v 0.11165300011634827 0.034306999295949936 0.0010920000495389104
v 0.11672999709844589 0.02237600088119507 0.003969999961555004
v 0.11354999989271164 0.02225399948656559 0.005113000050187111
v 0.11355800181627274 0.023097999393939972 0.002845000009983778
v 0.11228500306606293 0.021462999284267426 0.0051299999468028545
v 0.11061199754476547 0.0267730001360178 0.0003459999861661345
v 0.10965599864721298 0.021321000531315804 0.01028599962592125
v 0.12120600044727325 0.025053000077605247 0.01116000022739172
v 0.11997900158166885 0.027860000729560852 0.012357000261545181
v 0.11948399990797043 0.028503000736236572 0.012609000317752361
v 0.11103899776935577 0.028857000172138214 0.01118400041013956
v 0.12236200273036957 0.025661999359726906 0.011478000320494175
v 0.11406199634075165 0.03220900148153305 0.012834999710321426
v 0.11026400327682495 0.028276000171899796 0.00012599999899975955
v 0.11184199899435043 0.032919999212026596 0.011951000429689884
v 0.11187099665403366 0.033966001123189926 0.0068259998224675655
v 0.1100120022892952 0.029817000031471252 -0.0006000000284984708
v 0.111626997590065 0.021529000252485275 0.007013999857008457
v 0.11183299869298935 0.021562999114394188 0.005543999839574099
v 0.11001099646091461 0.024330999702215195 0.0035039999056607485
v 0.10945399850606918 0.022633999586105347 0.00823500007390976
vn -0.6246010065078735 -0.6094800233840942 -0.48827001452445984
vn -0.53615802526474 -0.6353549957275391 0.5557510256767273
vn -0.4610059857368469 -0.8761420249938965 0.14088599383831024
vn -0.43498000502586365 -0.750855028629303 -0.4970000088214874
vn -0.2806070148944855 -0.7159370183944702 0.6392920017242432
vn -0.27433401346206665 -0.0698309987783432 -0.9590950012207031
vn -0.042736999690532684 -0.003148999996483326 -0.999081015586853
vn -0.3377859890460968 -0.5434449911117554 -0.7684850096702576
vn -0.406235009431839 -0.3528890013694763 -0.8428769707679749
vn -0.437171995639801 -0.2182530015707016 -0.8724939823150635
vn -0.5603200197219849 -0.7635310292243958 0.32103198766708374
vn 0.09634000062942505 0.1208610013127327 0.987982988357544
vn -0.4888960123062134 -0.674485981464386 0.5532169938087463
vn 0.25272101163864136 -0.9673519730567932 -0.01903199963271618
vn -0.030837999656796455 -0.8306159973144531 -0.555990993976593
vn -0.28095901012420654 -0.8615710139274597 0.42279699444770813
vn -0.027445999905467033 0.1772560030221939 -0.9837819933891296
vn -0.25598499178886414 -0.630020022392273 -0.7331749796867371
vn -0.10156500339508057 -0.8278149962425232 0.5517309904098511
vn 0.065652996301651 -0.19928200542926788 0.9777399897575378
vn 0.3158720135688782 -0.4062289893627167 -0.8574399948120117
vn 0.40845298767089844 0.3690800070762634 -0.834833025932312
vn -0.14272600412368774 0.25200599431991577 -0.9571430087089539
vn 0.28276100754737854 0.6024439930915833 -0.746396005153656
vn -0.2750459909439087 0.14455999433994293 -0.950501024723053
vn 0.41301798820495605 0.9027699828147888 -0.12009300291538239
vn 0.3624410033226013 0.9192109704017639 0.1539050042629242
vn 0.346998006105423 0.7361660003662109 0.5810779929161072
vn 0.6633710265159607 0.44897401332855225 0.5986329913139343
vn 0.3996869921684265 -0.10747600346803665 0.9103289842605591
vn 0.04879499971866608 -0.5744069814682007 0.817113995552063
vn 0.39584100246429443 0.6751180291175842 0.6225159764289856
vn 0.14557300508022308 -0.9180179834365845 0.3688499927520752
vn 0.6924149990081787 -0.6795849800109863 0.24233299493789673
vn -0.026514999568462372 0.5297009944915771 -0.8477699756622314
vn 0.18006399273872375 0.7417380213737488 -0.6460660099983215
vn 0.037188999354839325 0.06686799973249435 -0.9970690011978149
vn 0.33172398805618286 0.7589020133018494 -0.5603809952735901
vn -0.250544011592865 -0.8779370188713074 -0.4079900085926056
vn 0.23289400339126587 -0.15828299522399902 0.9595350027084351
vn 0.07156000286340714 -0.7573189735412598 0.6491129994392395
vn 0.2163960039615631 -0.3905160129070282 0.8948019742965698
vn 0.33893001079559326 0.37879401445388794 0.8611860275268555
vn 0.8791319727897644 -0.27355900406837463 -0.3902460038661957
vn 0.8822550177574158 0.4280399978160858 -0.19597899913787842
vn 0.49886199831962585 0.8325960040092468 -0.24066799879074097
vn 0.9108999967575073 -0.16609999537467957 0.3777190148830414
vn 0.3850780129432678 0.902076005935669 0.19486699998378754
vn 0.27081501483917236 0.745477020740509 -0.6090350151062012
vn -0.03916399925947189 -0.5637339949607849 -0.8250269889831543
vn -0.29603999853134155 -0.8749129772186279 -0.38325899839401245
vn 0.37274399399757385 0.3239159882068634 0.8695639967918396
vn -0.24907100200653076 -0.9527180194854736 0.17404800653457642
vn 0.0012209999840706587 -0.2431579977273941 0.9699860215187073
vn 0.11498399823904037 -0.22235900163650513 0.9681609869003296
vn 0.2810260057449341 -0.10314299911260605 0.9541410207748413
vn 0.9963390231132507 -0.040337998420000076 -0.07537899911403656
vn 0.44822901487350464 0.5167179703712463 0.7294470071792603
vn -0.5619069933891296 0.7505289912223816 0.347802996635437
vn -0.25710800290107727 0.9638599753379822 -0.06978199630975723
vn -0.30300599336624146 0.039799001067876816 -0.9521570205688477
vn -0.4614729881286621 0.7700070142745972 -0.44060400128364563
vn -0.2102549970149994 -0.8433510065078735 -0.49452200531959534
vn 0.205717995762825 -0.9570680260658264 -0.20420899987220764
vn -0.431443989276886 -0.6402390003204346 -0.6355699896812439
vn 0.010015999898314476 -0.9736589789390564 -0.22779099643230438
vn -0.49556300044059753 -0.5616899728775024 -0.6625109910964966
vn -0.6171550154685974 -0.7208999991416931 0.31531399488449097
vn 0.017796000465750694 -0.2099660038948059 0.9775469899177551
vn 0.38016000390052795 -0.05840599909424782 0.9230750203132629
vn 0.19399100542068481 0.03424600139260292 0.9804059863090515
vn -0.7676180005073547 0.046268999576568604 0.6392359733581543
vn 0.19360600411891937 -0.0776050016283989 0.9780049920082092
vn -0.051639001816511154 0.2616879940032959 0.9637699723243713
vn -0.9785670042037964 -0.050119999796152115 -0.19973500072956085
vn -0.6371899843215942 0.2544170022010803 0.7275030016899109
vn -0.9355279803276062 0.34556901454925537 0.07328400015830994
vn -0.9278579950332642 0.102292999625206 -0.3586310148239136
vn -0.14326000213623047 -0.9796249866485596 -0.14075499773025513
vn -0.6218929886817932 -0.676859974861145 -0.3938409984111786
vn -0.7373819947242737 -0.5318549871444702 -0.41641101241111755
vn -0.8879950046539307 -0.3987570106983185 -0.22903500497341156
f 3//3 2//2 1//1
f 1//1 5//5 4//4
f 7//7 6//6 1//1
f 5//5 1//1 2//2
f 6//6 8//8 1//1
f 9//9 7//7 1//1
f 10//10 9//9 1//1
f 1//1 4//4 10//10
f 8//8 3//3 1//1
f 3//3 11//11 2//2
f 2//2 12//12 5//5
f 2//2 13//13 12//12
f 13//13 2//2 11//11
f 3//3 15//15 14//14
f 16//16 11//11 3//3
f 3//3 14//14 16//16
f 3//3 8//8 15//15
f 4//4 17//17 10//10
f 4//4 19//19 18//18
f 19//19 4//4 5//5
f 17//17 4//4 18//18
f 5//5 20//20 19//19
f 20//20 5//5 12//12
f 7//7 21//21 6//6
f 6//6 21//21 8//8
f 7//7 22//22 21//21
f 7//7 9//9 23//23
f 23//23 24//24 7//7
f 7//7 24//24 22//22
f 15//15 8//8 21//21
f 23//23 9//9 10//10
f 17//17 25//25 10//10
f 25//25 23//23 10//10
f 16//16 13//13 11//11
f 12//12 27//27 26//26
f 27//27 12//12 28//28
f 12//12 30//30 29//29
f 12//12 31//31 30//30
f 28//28 12//12 29//29
f 12//12 13//13 31//31
f 12//12 26//26 32//32
f 20//20 12//12 32//32
f 16//16 31//31 13//13
f 14//14 33//33 16//16
f 15//15 21//21 14//14
f 34//34 33//33 14//14
f 34//34 14//14 21//21
f 16//16 33//33 31//31
f 17//17 36//36 35//35
f 17//17 26//26 36//36
f 35//35 25//25 17//17
f 17//17 18//18 37//37
f 37//37 38//38 17//17
f 17//17 38//38 26//26
f 39//39 18//18 19//19
f 37//37 18//18 39//39
f 20//20 40//40 19//19
f 41//41 39//39 19//19
f 40//40 42//42 19//19
f 41//41 19//19 42//42
f 20//20 43//43 40//40
f 43//43 20//20 32//32
f 44//44 21//21 22//22
f 34//34 21//21 44//44
f 45//45 44//44 22//22
f 46//46 45//45 22//22
f 24//24 46//46 22//22
f 35//35 36//36 23//23
f 25//25 35//35 23//23
f 24//24 23//23 36//36
f 36//36 27//27 24//24
f 24//24 27//27 46//46
f 38//38 32//32 26//26
f 27//27 36//36 26//26
f 28//28 46//46 27//27
f 29//29 46//46 28//28
f 45//45 29//29 47//47
f 46//46 29//29 45//45
f 47//47 29//29 30//30
f 34//34 47//47 30//30
f 31//31 34//34 30//30
f 31//31 33//33 34//34
f 38//38 48//48 32//32
f 43//43 32//32 48//48
f 47//47 34//34 44//44
f 37//37 50//50 49//49
f 38//38 37//37 49//49
f 50//50 37//37 39//39
f 38//38 49//49 48//48
f 39//39 41//41 51//51
f 51//51 50//50 39//39
f 43//43 52//52 40//40
f 42//42 40//40 52//52
f 41//41 53//53 51//51
f 41//41 54//54 53//53
f 55//55 54//54 41//41
f 55//55 41//41 56//56
f 42//42 56//56 41//41
f 56//56 42//42 52//52
f 48//48 52//52 43//43
f 44//44 45//45 57//57
f 57//57 47//47 44//44
f 57//57 45//45 47//47
f 58//58 52//52 48//48
f 60//60 59//59 48//48
f 58//58 48//48 59//59
f 60//60 48//48 49//49
f 61//61 49//49 50//50
f 60//60 49//49 62//62
f 61//61 62//62 49//49
f 64//64 50//50 63//63
f 66//66 65//65 50//50
f 64//64 66//66 50//50
f 67//67 50//50 65//65
f 67//67 61//61 50//50
f 51//51 63//63 50//50
f 51//51 53//53 63//63
f 52//52 58//58 56//56
f 68//68 53//53 54//54
f 53//53 68//68 63//63
f 69//69 54//54 55//55
f 70//70 54//54 69//69
f 54//54 70//70 71//71
f 71//71 72//72 54//54
f 72//72 68//68 54//54
f 69//69 55//55 73//73
f 55//55 56//56 73//73
f 58//58 73//73 56//56
f 58//58 74//74 71//71
f 71//71 70//70 58//58
f 70//70 73//73 58//58
f 74//74 58//58 59//59
f 59//59 75//75 72//72
f 76//76 59//59 72//72
f 77//77 75//75 59//59
f 74//74 59//59 76//76
f 60//60 77//77 59//59
f 62//62 77//77 60//60
f 78//78 61//61 75//75
f 78//78 62//62 61//61
f 75//75 61//61 67//67
f 78//78 77//77 62//62
f 68//68 79//79 63//63
f 64//64 63//63 79//79
f 64//64 79//79 66//66
f 66//66 80//80 65//65
f 65//65 81//81 67//67
f 65//65 82//82 81//81
f 80//80 82//82 65//65
f 80//80 66//66 79//79
f 75//75 67//67 81//81
f 68//68 82//82 79//79
f 82//82 68//68 72//72
f 69//69 73//73 70//70
f 71//71 74//74 72//72
f 72//72 75//75 82//82
f 72//72 74//74 76//76
f 81//81 82//82 75//75
f 77//77 78//78 75//75
f 82//82 80//80 79//79
