# Generated by Visualization Toolkit
v 0.1584250032901764 0.005231000017374754 -0.011870999820530415
v 0.1546510010957718 -0.000003000000106112566 -0.013154000043869019
v 0.15259000658988953 0.001829999964684248 -0.013182000257074833
v 0.15675200521945953 0.00688599981367588 -0.012559999711811543
v 0.1549540013074875 0.007189000025391579 -0.01216300018131733
v 0.15952399373054504 0.006221000105142593 -0.01252800039947033
v 0.15937800705432892 -0.0030060000717639923 -0.011467999778687954
v 0.16141599416732788 0.004333999939262867 -0.013321000151336193
v 0.15702399611473083 -0.00406099995598197 -0.012914000079035759
v 0.1572979986667633 -0.006345000118017197 -0.014643999747931957
v 0.1521189957857132 0.0012629999546334147 -0.014426000416278839
v 0.1576559990644455 -0.004887999966740608 -0.012273999862372875
v 0.1449050009250641 0.005127999931573868 -0.013384999707341194
v 0.14491599798202515 0.008628999814391136 -0.010622000321745872
v 0.14811000227928162 0.01107999961823225 -0.011819999665021896
v 0.15970300137996674 0.0064409999176859856 -0.013763999566435814
v 0.1620199978351593 -0.0010349999647587538 -0.011783000081777573
v 0.16105200350284576 -0.003938000183552504 -0.01170899998396635
v 0.15852099657058716 -0.005109000019729137 -0.011973000131547451
v 0.16033700108528137 0.0055680000223219395 -0.015519999898970127
v 0.16336099803447723 0.004178999923169613 -0.013999000191688538
v 0.15935200452804565 -0.006523999851197004 -0.014551999978721142
v 0.15856599807739258 -0.0028019999153912067 -0.018021000549197197
v 0.15837900340557098 -0.005280000157654285 -0.016448000445961952
v 0.15707899630069733 -0.0002770000137388706 -0.017242999747395515
v 0.15966099500656128 -0.005650999955832958 -0.01635099947452545
v 0.15498599410057068 0.005841999780386686 -0.016735000535845757
v 0.15539099276065826 0.0014280000468716025 -0.01768999919295311
v 0.1263660043478012 0.012171999551355839 -0.012512000277638435
v 0.1360889971256256 0.009101999923586845 -0.01075700018554926
v 0.1350719928741455 0.017261000350117683 -0.01260400004684925
v 0.1303980052471161 0.013466999866068363 -0.008837999776005745
v 0.13165700435638428 0.017627999186515808 -0.008848000317811966
v 0.15347599983215332 0.009390000253915787 -0.014495999552309513
v 0.1220339983701706 0.02314000017940998 -0.009045000188052654
v 0.15708400309085846 0.007267000153660774 -0.016210999339818954
v 0.16151399910449982 -0.005247000139206648 -0.012759000062942505
v 0.16447199881076813 -0.00007599999662488699 -0.014152999967336655
v 0.16078400611877441 -0.005878999829292297 -0.01257800031453371
v 0.159510999917984 0.00419300002977252 -0.017162000760436058
v 0.16243399679660797 0.004900000058114529 -0.015521000139415264
v 0.16424599289894104 0.0005869999877177179 -0.016674000769853592
v 0.1607690006494522 -0.005626999773085117 -0.0158270001411438
v 0.16319799423217773 -0.0015269999857991934 -0.0176829993724823
v 0.16187499463558197 0.004058000165969133 -0.017280999571084976
v 0.16140399873256683 -0.004412999842315912 -0.017062999308109283
v 0.1573449969291687 0.005692000035196543 -0.01771700009703636
v 0.10968700051307678 0.015189999714493752 -0.008376999758183956
v 0.11077500134706497 0.015124999918043613 -0.005584000144153833
v 0.10357700288295746 0.02352299913764 -0.014940000139176846
v 0.11154700070619583 0.028095999732613564 -0.009681000374257565
v 0.11077400296926498 0.021825000643730164 -0.004738000221550465
v 0.10502199828624725 0.028421999886631966 -0.005456000100821257
v 0.16228599846363068 -0.004157999996095896 -0.01632699929177761
v 0.10373599827289581 0.014756999909877777 -0.004654000047594309
v 0.1014069989323616 0.016124000772833824 -0.005309999920427799
v 0.10046800225973129 0.0216669999063015 -0.012267000041902065
v 0.10123299807310104 0.026575999334454536 -0.014182999730110168
v 0.10056900233030319 0.025414999574422836 -0.014037000015377998
v 0.09991700202226639 0.024421000853180885 -0.013411000370979309
v 0.10460299998521805 0.028939999639987946 -0.006178999785333872
v 0.10374400019645691 0.029364999383687973 -0.007195999845862389
v 0.10243400186300278 0.02855999954044819 -0.01252800039947033
v 0.10405399650335312 0.019305000081658363 -0.004567999858409166
v 0.10392799973487854 0.020514000207185745 -0.004182000178843737
v 0.10425499826669693 0.026559000834822655 -0.004251000005751848
v 0.10126200318336487 0.01755700074136257 -0.00533400010317564
v 0.10286399722099304 0.027060000225901604 -0.004825000185519457
v 0.10350699722766876 0.028836999088525772 -0.006066999863833189
vn 0.10310599952936172 0.15310199558734894 0.9828169941902161
vn -0.5700129866600037 -0.3397749960422516 0.7480900287628174
vn -0.250793993473053 -0.45885398983955383 0.8523820042610168
vn 0.25998300313949585 0.6429839730262756 0.7204030156135559
vn 0.1437149941921234 0.1809149980545044 0.9729419946670532
vn 0.44356998801231384 0.6278949975967407 0.6395260095596313
vn -0.0802680030465126 -0.004395000170916319 0.9967640042304993
vn 0.4913429915904999 0.4939880073070526 0.7173269987106323
vn -0.6951249837875366 -0.6104220151901245 0.37971800565719604
vn -0.6581190228462219 -0.7300379872322083 -0.1841839998960495
vn -0.7348620295524597 -0.630046010017395 -0.2510389983654022
vn -0.6430699825286865 -0.5168079733848572 0.5651289820671082
vn -0.4317629933357239 -0.8895559906959534 -0.1492370069026947
vn 0.043852001428604126 -0.2354699969291687 0.9708920121192932
vn 0.3706960082054138 0.6683899760246277 0.6448559761047363
vn 0.5258920192718506 0.839788019657135 0.13488799333572388
vn 0.4589810073375702 0.03929699957370758 0.8875769972801208
vn 0.32510998845100403 -0.2805210053920746 0.90311199426651
vn -0.17418499290943146 -0.5602579712867737 0.8097959756851196
vn 0.4642679989337921 0.86490398645401 -0.1907770037651062
vn 0.6831640005111694 0.6077250242233276 0.40491700172424316
vn -0.12891599535942078 -0.9866639971733093 0.09937000274658203
vn -0.2291789948940277 -0.22116899490356445 -0.9479249715805054
vn -0.3472859859466553 -0.5918400287628174 -0.7274050116539001
vn -0.426486998796463 -0.27167999744415283 -0.8627279996871948
vn 0.030532000586390495 -0.7611969709396362 -0.6478019952774048
vn -0.29608801007270813 0.2369769960641861 -0.9252970218658447
vn -0.28234198689460754 -0.13267700374126434 -0.9500939846038818
vn -0.24095000326633453 -0.9257370233535767 -0.2914699912071228
vn -0.19890600442886353 -0.7092530131340027 0.6763110160827637
vn 0.23228700459003448 0.6387379765510559 -0.7335240244865417
vn 0.009793000295758247 -0.4299429953098297 0.9028030037879944
vn 0.2664310038089752 0.30250799655914307 0.9151520133018494
vn 0.30734699964523315 0.8942109942436218 -0.32545900344848633
vn 0.403533011674881 0.8228129744529724 0.400175005197525
vn 0.2883619964122772 0.7474799752235413 -0.5984320044517517
vn 0.7737979888916016 -0.5261200070381165 0.3527509868144989
vn 0.9455320239067078 -0.16377100348472595 0.2813340127468109
vn 0.3781619966030121 -0.8008120059967041 0.46442899107933044
vn 0.1901009976863861 0.40908101201057434 -0.8924760222434998
vn 0.49700498580932617 0.7816950082778931 -0.3767479956150055
vn 0.9225760102272034 0.10181300342082977 -0.37213999032974243
vn 0.4984990060329437 -0.8204529881477356 -0.2799209952354431
vn 0.5207669734954834 -0.22084900736808777 -0.8246380090713501
vn 0.2970559895038605 0.40054500102996826 -0.8667880296707153
vn 0.3495129942893982 -0.5947790145874023 -0.7239329814910889
vn 0.036423999816179276 0.38861700892448425 -0.920678973197937
vn -0.21124699711799622 -0.8738129734992981 -0.4379790127277374
vn 0.03740600124001503 -0.8064730167388916 0.5900869965553284
vn -0.15887300670146942 -0.16624799370765686 -0.9732009768486023
vn 0.33116599917411804 0.9177079796791077 -0.21941199898719788
vn 0.16917100548744202 0.014089999720454216 0.9854859709739685
vn 0.2148679941892624 0.6486520171165466 0.7301250100135803
vn 0.793300986289978 -0.5614399909973145 -0.235494002699852
vn -0.16028399765491486 -0.49752599000930786 0.852512001991272
vn -0.747859001159668 -0.6622080206871033 -0.04676799848675728
vn -0.8490189909934998 -0.41493499279022217 -0.3271009922027588
vn -0.18131199479103088 0.48855501413345337 -0.8534870147705078
vn -0.8465330004692078 0.3415679931640625 -0.40830400586128235
vn -0.9033380150794983 -0.050181999802589417 -0.4259830117225647
vn 0.021637000143527985 0.8439339995384216 0.5360100269317627
vn -0.147257998585701 0.9760950207710266 0.15985499322414398
vn -0.6585080027580261 0.7421410083770752 -0.12487500160932541
vn -0.04244399815797806 -0.15818199515342712 0.9864969849586487
vn -0.13388900458812714 -0.1120619997382164 0.9846400022506714
vn -0.08072800189256668 0.4108000099658966 0.908145010471344
vn -0.5939499735832214 -0.04912000149488449 0.8030009865760803
vn -0.791018009185791 0.32460200786590576 0.5185779929161072
vn -0.4302709996700287 0.7360039949417114 0.5226510167121887
f 3//3 2//2 1//1
f 5//5 1//1 4//4
f 1//1 6//6 4//4
f 8//8 1//1 7//7
f 5//5 3//3 1//1
f 2//2 7//7 1//1
f 6//6 1//1 8//8
f 10//10 9//9 2//2
f 3//3 11//11 2//2
f 10//10 2//2 11//11
f 12//12 2//2 9//9
f 7//7 2//2 12//12
f 13//13 11//11 3//3
f 3//3 14//14 13//13
f 14//14 3//3 5//5
f 4//4 15//15 5//5
f 4//4 16//16 15//15
f 6//6 16//16 4//4
f 14//14 5//5 15//15
f 8//8 16//16 6//6
f 7//7 17//17 8//8
f 7//7 18//18 17//17
f 7//7 12//12 19//19
f 7//7 19//19 18//18
f 8//8 20//20 16//16
f 20//20 8//8 21//21
f 8//8 17//17 21//21
f 22//22 9//9 10//10
f 22//22 12//12 9//9
f 24//24 10//10 23//23
f 23//23 10//10 25//25
f 10//10 11//11 25//25
f 26//26 10//10 24//24
f 22//22 10//10 26//26
f 13//13 27//27 11//11
f 28//28 25//25 11//11
f 27//27 28//28 11//11
f 22//22 19//19 12//12
f 13//13 30//30 29//29
f 13//13 14//14 30//30
f 31//31 27//27 13//13
f 13//13 29//29 31//31
f 32//32 30//30 14//14
f 15//15 33//33 14//14
f 33//33 32//32 14//14
f 16//16 34//34 15//15
f 15//15 31//31 35//35
f 15//15 34//34 31//31
f 35//35 33//33 15//15
f 16//16 36//36 34//34
f 20//20 36//36 16//16
f 38//38 17//17 37//37
f 38//38 21//21 17//17
f 37//37 17//17 18//18
f 18//18 19//19 39//39
f 39//39 37//37 18//18
f 39//39 19//19 22//22
f 40//40 36//36 20//20
f 41//41 40//40 20//20
f 41//41 20//20 21//21
f 21//21 42//42 41//41
f 42//42 21//21 38//38
f 22//22 43//43 39//39
f 22//22 26//26 43//43
f 23//23 45//45 44//44
f 23//23 25//25 40//40
f 46//46 23//23 44//44
f 40//40 45//45 23//23
f 26//26 24//24 23//23
f 26//26 23//23 46//46
f 28//28 40//40 25//25
f 26//26 46//46 43//43
f 36//36 27//27 34//34
f 31//31 34//34 27//27
f 28//28 27//27 47//47
f 27//27 36//36 47//47
f 28//28 47//47 40//40
f 29//29 49//49 48//48
f 29//29 30//30 32//32
f 29//29 32//32 49//49
f 50//50 31//31 29//29
f 50//50 29//29 48//48
f 31//31 50//50 51//51
f 35//35 31//31 51//51
f 52//52 49//49 32//32
f 32//32 33//33 52//52
f 35//35 53//53 33//33
f 33//33 53//53 52//52
f 53//53 35//35 51//51
f 40//40 47//47 36//36
f 39//39 43//43 37//37
f 54//54 37//37 43//43
f 38//38 37//37 54//54
f 54//54 42//42 38//38
f 40//40 41//41 45//45
f 45//45 41//41 42//42
f 42//42 44//44 45//45
f 54//54 44//44 42//42
f 54//54 43//43 46//46
f 46//46 44//44 54//54
f 55//55 48//48 49//49
f 55//55 56//56 48//48
f 48//48 57//57 50//50
f 56//56 57//57 48//48
f 49//49 52//52 55//55
f 58//58 51//51 50//50
f 60//60 59//59 50//50
f 58//58 50//50 59//59
f 60//60 50//50 57//57
f 53//53 51//51 61//61
f 62//62 61//61 51//51
f 62//62 51//51 63//63
f 51//51 58//58 63//63
f 65//65 64//64 52//52
f 52//52 64//64 55//55
f 53//53 66//66 52//52
f 52//52 66//66 65//65
f 66//66 53//53 61//61
f 64//64 67//67 55//55
f 56//56 55//55 67//67
f 56//56 67//67 57//57
f 67//67 68//68 57//57
f 60//60 57//57 68//68
f 59//59 63//63 58//58
f 60//60 68//68 59//59
f 59//59 68//68 63//63
f 69//69 66//66 61//61
f 62//62 69//69 61//61
f 63//63 69//69 62//62
f 68//68 69//69 63//63
f 67//67 64//64 65//65
f 68//68 65//65 66//66
f 68//68 67//67 65//65
f 69//69 68//68 66//66
