# Generated by Visualization Toolkit
v 0.1621749997138977 0.0033499998971819878 0.0003440000000409782
v 0.16236799955368042 0.00356299988925457 -0.0005249999812804163
v 0.16900299489498138 -0.005142000038176775 0.0010870000114664435
v 0.15954099595546722 0.005028999876230955 0.0003760000108741224
v 0.15640400350093842 0.007590999826788902 -0.0023219999857246876
v 0.17218199372291565 -0.0020359999034553766 0.005412000231444836
v 0.17037400603294373 0.0008960000122897327 0.003971000202000141
v 0.17207199335098267 -0.00469700014218688 0.003790999995544553
v 0.16745099425315857 0.0029329999815672636 0.0047690002247691154
v 0.16225400567054749 0.005198999773710966 0.0013379999436438084
v 0.1695449948310852 -0.002939000027254224 -0.0014590000500902534
v 0.1708260029554367 0.006998000200837851 -0.003693999955430627
v 0.17053699493408203 -0.0038920000661164522 -0.002303000073879957
v 0.174235999584198 -0.005946999881416559 0.0011350000277161598
v 0.1732490062713623 -0.005166999995708466 0.0037090000696480274
v 0.1721539944410324 -0.005193999968469143 0.0005869999877177179
v 0.15221799910068512 0.014611000195145607 0.0005660000024363399
v 0.1390949934720993 0.014758000150322914 -0.00108299998100847
v 0.13212299346923828 0.017558999359607697 -0.0054870001040399075
v 0.13933199644088745 0.01859699934720993 -0.006570000201463699
v 0.17681799829006195 -0.002213000087067485 0.005555000156164169
v 0.17816400527954102 0.0026549999602138996 0.0045819999650120735
v 0.16830599308013916 0.005547999870032072 0.005090999882668257
v 0.1696159988641739 0.007424999959766865 0.00406799977645278
v 0.16399599611759186 0.007720000110566616 0.0025579999200999737
v 0.15394900739192963 0.01676500029861927 -0.001117000007070601
v 0.16837100684642792 0.009941999800503254 -0.0015589999966323376
v 0.17256399989128113 0.007910000160336494 -0.0030799999367445707
v 0.17866599559783936 0.005146999843418598 -0.0012179999612271786
v 0.17706799507141113 -0.002222999930381775 -0.002964999992400408
v 0.1752520054578781 -0.004385000094771385 -0.002877000020816922
v 0.15004000067710876 0.01738099940121174 -0.005293000023812056
v 0.1757570058107376 -0.00532800005748868 -0.0015930000226944685
v 0.1772170066833496 -0.004097000230103731 -0.001978999935090542
v 0.1645050048828125 0.00864499993622303 0.0021840000990778208
v 0.16396699845790863 0.011939000338315964 -0.00043799998820759356
v 0.138387992978096 0.018323000520467758 -0.0004250000056345016
v 0.13660599291324615 0.02492699958384037 -0.0023350000847131014
v 0.12771600484848022 0.017071999609470367 -0.001765000051818788
v 0.13450099527835846 0.021720999851822853 -0.007864000275731087
v 0.11963299661874771 0.020092999562621117 -0.010215999558568
v 0.12930800020694733 0.019386999309062958 -0.008364999666810036
v 0.13523100316524506 0.02426999993622303 -0.007081000134348869
v 0.17979800701141357 -0.0003100000030826777 0.00367900007404387
v 0.17982199788093567 0.0032220000866800547 0.0015140000032261014
v 0.17737099528312683 0.005975000094622374 0.0008379999781027436
v 0.18021200597286224 0.00004400000034365803 -0.0010379999876022339
v 0.1203169971704483 0.03363800048828125 -0.005688999779522419
v 0.1184139996767044 0.0334010012447834 -0.0026340000331401825
v 0.12200000137090683 0.025860000401735306 0.0016670000040903687
v 0.11862999945878983 0.019809000194072723 -0.005849000066518784
v 0.1312289983034134 0.025282999500632286 -0.008311999961733818
v 0.1128230020403862 0.019598999992012978 -0.010737000033259392
v 0.11416099965572357 0.020912999287247658 -0.011672000400722027
v 0.12171799689531326 0.024252999573946 -0.011145000346004963
v 0.12431299686431885 0.025537999346852303 -0.010906999930739403
v 0.18053099513053894 0.000582000007852912 0.0013200000394135714
v 0.11879199743270874 0.032304998487234116 -0.011270999908447266
v 0.1122170016169548 0.03489400073885918 -0.010804999619722366
v 0.11271300166845322 0.03518199920654297 -0.006268000230193138
v 0.11265499889850616 0.028875000774860382 0.0025059999898076057
v 0.11165300011634827 0.034306999295949936 -0.0010920000495389104
v 0.11672999709844589 0.02237600088119507 -0.003969999961555004
v 0.11354999989271164 0.02225399948656559 -0.005113000050187111
v 0.11355800181627274 0.023097999393939972 -0.002845000009983778
v 0.11228500306606293 0.021462999284267426 -0.0051299999468028545
v 0.11061199754476547 0.0267730001360178 -0.0003459999861661345
v 0.10965599864721298 0.021321000531315804 -0.01028599962592125
v 0.12120600044727325 0.025053000077605247 -0.01116000022739172
v 0.11997900158166885 0.027860000729560852 -0.012357000261545181
v 0.11948399990797043 0.028503000736236572 -0.012609000317752361
v 0.11103899776935577 0.028857000172138214 -0.01118400041013956
v 0.12236200273036957 0.025661999359726906 -0.011478000320494175
v 0.11406199634075165 0.03220900148153305 -0.012834999710321426
v 0.11026400327682495 0.028276000171899796 -0.00012599999899975955
v 0.11184199899435043 0.032919999212026596 -0.011951000429689884
v 0.11187099665403366 0.033966001123189926 -0.0068259998224675655
v 0.1100120022892952 0.029817000031471252 0.0006000000284984708
v 0.111626997590065 0.021529000252485275 -0.007013999857008457
v 0.11183299869298935 0.021562999114394188 -0.005543999839574099
v 0.11001099646091461 0.024330999702215195 -0.0035039999056607485
v 0.10945399850606918 0.022633999586105347 -0.00823500007390976
vn -0.6245949864387512 -0.6094719767570496 0.4882879853248596
vn -0.5361719727516174 -0.6353660225868225 -0.555724024772644
vn -0.46101000905036926 -0.8761410117149353 -0.14088299870491028
vn -0.43497198820114136 -0.7508559823036194 0.49700599908828735
vn -0.28060999512672424 -0.7159420251846313 -0.6392850279808044
vn -0.2743319869041443 -0.06983599811792374 0.9590960144996643
vn -0.04273800179362297 -0.0031510000117123127 0.999081015586853
vn -0.33778300881385803 -0.5434349775314331 0.7684919834136963
vn -0.40624499320983887 -0.3528909981250763 0.8428720235824585
vn -0.4371669888496399 -0.21825799345970154 0.8724960088729858
vn -0.5603190064430237 -0.7635380029678345 -0.3210180103778839
vn 0.09633900225162506 0.12086399644613266 -0.987982988357544
vn -0.48889800906181335 -0.6744959950447083 -0.5532029867172241
vn 0.2527259886264801 -0.9673510193824768 0.019020000472664833
vn -0.030838999897241592 -0.8306080102920532 0.556003987789154
vn -0.2809630036354065 -0.8615620136260986 -0.42281201481819153
vn -0.02744399942457676 0.17726199328899384 0.9837809801101685
vn -0.2559880018234253 -0.630020022392273 0.7331740260124207
vn -0.10156600177288055 -0.8278189897537231 -0.5517240166664124
vn 0.06565500050783157 -0.1992810070514679 -0.977741003036499
vn 0.3158720135688782 -0.4062260091304779 0.8574410080909729
vn 0.4084550142288208 0.36907699704170227 0.834833025932312
vn -0.14272500574588776 0.25200599431991577 0.9571430087089539
vn 0.28276899456977844 0.6024500131607056 0.7463889718055725
vn -0.2750389873981476 0.14456899464130402 0.9505019783973694
vn 0.41301798820495605 0.9027720093727112 0.1200760006904602
vn 0.36243900656700134 0.9192100167274475 -0.15391899645328522
vn 0.346994012594223 0.7361680269241333 -0.5810779929161072
vn 0.6633700132369995 0.4489710032939911 -0.5986369848251343
vn 0.3996790051460266 -0.1074720025062561 -0.910332977771759
vn 0.0487929992377758 -0.5743950009346008 -0.8171229958534241
vn 0.39584100246429443 0.6751149892807007 -0.6225190162658691
vn 0.145563006401062 -0.9180110096931458 -0.3688719868659973
vn 0.6924189925193787 -0.6795769929885864 -0.24234500527381897
vn -0.026503000408411026 0.5297160148620605 0.8477609753608704
vn 0.1800689995288849 0.7417470216751099 0.6460540294647217
vn 0.037188999354839325 0.06686799973249435 0.9970690011978149
vn 0.33172398805618286 0.7589020133018494 0.5603799819946289
vn -0.250544011592865 -0.8779370188713074 0.40798699855804443
vn 0.23290100693702698 -0.15828000009059906 -0.9595339894294739
vn 0.07156000286340714 -0.757319986820221 -0.6491119861602783
vn 0.2163970023393631 -0.3905180096626282 -0.8948000073432922
vn 0.33893001079559326 0.37879401445388794 -0.8611860275268555
vn 0.8791329860687256 -0.27355799078941345 0.3902460038661957
vn 0.8822590112686157 0.42803099751472473 0.1959809958934784
vn 0.498865008354187 0.8325949907302856 0.24066400527954102
vn 0.9109020233154297 -0.16609899699687958 -0.37771499156951904
vn 0.38507598638534546 0.9020770192146301 -0.19486799836158752
vn 0.2708140015602112 0.745477020740509 0.6090350151062012
vn -0.039163000881671906 -0.5637379884719849 0.8250250220298767
vn -0.2960380017757416 -0.8749150037765503 0.3832559883594513
vn 0.37274500727653503 0.32392099499702454 -0.8695610165596008
vn -0.24906499683856964 -0.9527180194854736 -0.17405599355697632
vn 0.0012260000221431255 -0.24315400421619415 -0.9699869751930237
vn 0.11498700082302094 -0.2223690003156662 -0.9681580066680908
vn 0.28102999925613403 -0.10314200073480606 -0.9541400074958801
vn 0.9963380098342896 -0.040337998420000076 0.07538799941539764
vn 0.44822901487350464 0.5167170166969299 -0.7294480204582214
vn -0.561905026435852 0.7505300045013428 -0.347804993391037
vn -0.25710999965667725 0.9638590216636658 0.06978700309991837
vn -0.30301499366760254 0.03980400040745735 0.9521539807319641
vn -0.4614740014076233 0.7700039744377136 0.4406070113182068
vn -0.21025200188159943 -0.8433510065078735 0.49452298879623413
vn 0.20571599900722504 -0.957065999507904 0.2042199969291687
vn -0.4314369857311249 -0.6402480006217957 0.635565996170044
vn 0.010042999871075153 -0.9736589789390564 0.22778600454330444
vn -0.4955720007419586 -0.5616850256919861 0.662509024143219
vn -0.617156982421875 -0.7208970189094543 -0.3153179883956909
vn 0.017788000404834747 -0.20996500551700592 -0.9775469899177551
vn 0.380156010389328 -0.05840900167822838 -0.9230759739875793
vn 0.19400200247764587 0.03423900157213211 -0.9804030060768127
vn -0.7676169872283936 0.04627100005745888 -0.6392359733581543
vn 0.19359800219535828 -0.0776119977235794 -0.9780060052871704
vn -0.05163799971342087 0.2616899907588959 -0.9637699723243713
vn -0.9785680174827576 -0.05011399835348129 0.1997320055961609
vn -0.6371889710426331 0.25442400574684143 -0.7275009751319885
vn -0.9355260133743286 0.3455750048160553 -0.07327800244092941
vn -0.9278540015220642 0.10230600088834763 0.3586359918117523
vn -0.1432500034570694 -0.9796259999275208 0.1407579928636551
vn -0.6218720078468323 -0.6768820285797119 0.39383500814437866
vn -0.7373819947242737 -0.5318580269813538 0.4164069890975952
vn -0.8879960179328918 -0.3987559974193573 0.22903400659561157
f 1//1 2//2 3//3
f 4//4 5//5 1//1
f 1//1 6//6 7//7
f 2//2 1//1 5//5
f 1//1 8//8 6//6
f 1//1 7//7 9//9
f 1//1 9//9 10//10
f 10//10 4//4 1//1
f 1//1 3//3 8//8
f 2//2 11//11 3//3
f 5//5 12//12 2//2
f 12//12 13//13 2//2
f 11//11 2//2 13//13
f 14//14 15//15 3//3
f 3//3 11//11 16//16
f 16//16 14//14 3//3
f 15//15 8//8 3//3
f 10//10 17//17 4//4
f 18//18 19//19 4//4
f 5//5 4//4 19//19
f 18//18 4//4 17//17
f 19//19 20//20 5//5
f 12//12 5//5 20//20
f 6//6 21//21 7//7
f 8//8 21//21 6//6
f 21//21 22//22 7//7
f 23//23 9//9 7//7
f 7//7 24//24 23//23
f 22//22 24//24 7//7
f 21//21 8//8 15//15
f 10//10 9//9 23//23
f 10//10 25//25 17//17
f 10//10 23//23 25//25
f 11//11 13//13 16//16
f 26//26 27//27 12//12
f 28//28 12//12 27//27
f 29//29 30//30 12//12
f 30//30 31//31 12//12
f 29//29 12//12 28//28
f 31//31 13//13 12//12
f 32//32 26//26 12//12
f 32//32 12//12 20//20
f 13//13 31//31 16//16
f 16//16 33//33 14//14
f 14//14 21//21 15//15
f 14//14 33//33 34//34
f 21//21 14//14 34//34
f 31//31 33//33 16//16
f 35//35 36//36 17//17
f 36//36 26//26 17//17
f 17//17 25//25 35//35
f 37//37 18//18 17//17
f 17//17 38//38 37//37
f 26//26 38//38 17//17
f 19//19 18//18 39//39
f 39//39 18//18 37//37
f 19//19 40//40 20//20
f 19//19 39//39 41//41
f 19//19 42//42 40//40
f 42//42 19//19 41//41
f 40//40 43//43 20//20
f 32//32 20//20 43//43
f 22//22 21//21 44//44
f 44//44 21//21 34//34
f 22//22 44//44 45//45
f 22//22 45//45 46//46
f 22//22 46//46 24//24
f 23//23 36//36 35//35
f 23//23 35//35 25//25
f 36//36 23//23 24//24
f 24//24 27//27 36//36
f 46//46 27//27 24//24
f 26//26 32//32 38//38
f 26//26 36//36 27//27
f 27//27 46//46 28//28
f 28//28 46//46 29//29
f 47//47 29//29 45//45
f 45//45 29//29 46//46
f 30//30 29//29 47//47
f 30//30 47//47 34//34
f 30//30 34//34 31//31
f 34//34 33//33 31//31
f 32//32 48//48 38//38
f 48//48 32//32 43//43
f 44//44 34//34 47//47
f 49//49 50//50 37//37
f 49//49 37//37 38//38
f 39//39 37//37 50//50
f 48//48 49//49 38//38
f 51//51 41//41 39//39
f 39//39 50//50 51//51
f 40//40 52//52 43//43
f 52//52 40//40 42//42
f 51//51 53//53 41//41
f 53//53 54//54 41//41
f 41//41 54//54 55//55
f 56//56 41//41 55//55
f 41//41 56//56 42//42
f 52//52 42//42 56//56
f 43//43 52//52 48//48
f 57//57 45//45 44//44
f 44//44 47//47 57//57
f 47//47 45//45 57//57
f 48//48 52//52 58//58
f 48//48 59//59 60//60
f 59//59 48//48 58//58
f 49//49 48//48 60//60
f 50//50 49//49 61//61
f 62//62 49//49 60//60
f 49//49 62//62 61//61
f 63//63 50//50 64//64
f 50//50 65//65 66//66
f 50//50 66//66 64//64
f 65//65 50//50 67//67
f 50//50 61//61 67//67
f 50//50 63//63 51//51
f 63//63 53//53 51//51
f 56//56 58//58 52//52
f 54//54 53//53 68//68
f 63//63 68//68 53//53
f 55//55 54//54 69//69
f 69//69 54//54 70//70
f 71//71 70//70 54//54
f 54//54 72//72 71//71
f 54//54 68//68 72//72
f 73//73 55//55 69//69
f 73//73 56//56 55//55
f 56//56 73//73 58//58
f 71//71 74//74 58//58
f 58//58 70//70 71//71
f 58//58 73//73 70//70
f 59//59 58//58 74//74
f 72//72 75//75 59//59
f 72//72 59//59 76//76
f 59//59 75//75 77//77
f 76//76 59//59 74//74
f 59//59 77//77 60//60
f 60//60 77//77 62//62
f 75//75 61//61 78//78
f 61//61 62//62 78//78
f 67//67 61//61 75//75
f 62//62 77//77 78//78
f 63//63 79//79 68//68
f 79//79 63//63 64//64
f 66//66 79//79 64//64
f 65//65 80//80 66//66
f 67//67 81//81 65//65
f 81//81 82//82 65//65
f 65//65 82//82 80//80
f 79//79 66//66 80//80
f 81//81 67//67 75//75
f 79//79 82//82 68//68
f 72//72 68//68 82//82
f 70//70 73//73 69//69
f 72//72 74//74 71//71
f 82//82 75//75 72//72
f 76//76 74//74 72//72
f 75//75 82//82 81//81
f 75//75 78//78 77//77
f 79//79 80//80 82//82
