# Generated by Visualization Toolkit
v 0.07586999982595444 0.012508000247180462 0.03015200048685074
v 0.07737100124359131 0.009441999718546867 0.031046999618411064
v 0.07299599796533585 0.012880000285804272 0.031838998198509216
v 0.07891300320625305 0.011215999722480774 0.029927000403404236
v 0.08153200149536133 0.012767000123858452 0.02490600012242794
v 0.07276500016450882 0.014964999631047249 0.032600998878479004
v 0.07531700283288956 0.009820999577641487 0.03365100175142288
v 0.07212799787521362 0.011843999847769737 0.03305700048804283
v 0.08367499709129333 0.008597999811172485 0.03245500102639198
v 0.0809440016746521 0.008407000452280045 0.033344998955726624
v 0.0718189999461174 0.014306999742984772 0.03476300090551376
v 0.08421999961137772 0.012350999750196934 0.024282999336719513
v 0.08316799998283386 0.01451599970459938 0.024013999849557877
v 0.0778840035200119 0.020515000447630882 0.03132300078868866
v 0.07349299639463425 0.01682399958372116 0.032993998378515244
v 0.07193300127983093 0.01296900026500225 0.03511299937963486
v 0.07334200292825699 0.01321600005030632 0.03702300041913986
v 0.07676000148057938 0.011222000233829021 0.03757600113749504
v 0.08868400007486343 0.010599999688565731 0.02498999983072281
v 0.09110599756240845 0.00901199970394373 0.03213699907064438
v 0.09189999848604202 0.010985000059008598 0.035395000129938126
v 0.08772099763154984 0.011889999732375145 0.035714998841285706
v 0.07332900166511536 0.01457700040191412 0.037342000752687454
v 0.07651399821043015 0.018874000757932663 0.03385100141167641
v 0.09281899780035019 0.01227600034326315 0.025237999856472015
v 0.08359599858522415 0.02371400035917759 0.029683999717235565
v 0.08021099865436554 0.018689999356865883 0.03563399985432625
v 0.07629500329494476 0.014314999803900719 0.03833099827170372
v 0.08055000007152557 0.014123000204563141 0.03750399872660637
v 0.09526199847459793 0.011521000415086746 0.026686999946832657
v 0.09879499673843384 0.008396999910473824 0.03260499984025955
v 0.10397999733686447 0.00853700004518032 0.031077999621629715
v 0.11414899677038193 0.006031000055372715 0.0364300012588501
v 0.08748999983072281 0.02060599997639656 0.03374600037932396
v 0.07779599726200104 0.015549000352621078 0.036945998668670654
v 0.09240599721670151 0.02283800020813942 0.029225999489426613
v 0.09779399633407593 0.01523599959909916 0.026562999933958054
v 0.08889500051736832 0.02319899946451187 0.03136000037193298
v 0.09938299655914307 0.013133999891579151 0.02698799967765808
v 0.11825600266456604 0.0035119999665766954 0.03512199968099594
v 0.1128539964556694 0.008400999940931797 0.031158000230789185
v 0.12152399867773056 0.002985999919474125 0.03485099971294403
v 0.12275099754333496 0.0027620000764727592 0.03819100186228752
v 0.11084900051355362 0.01564900018274784 0.03441900014877319
v 0.12259399890899658 0.009252999909222126 0.039083998650312424
v 0.12760299444198608 0.008558999747037888 0.040849000215530396
v 0.1256909966468811 0.0037350000347942114 0.04007299989461899
v 0.12545500695705414 0.0052999998442828655 0.040897998958826065
v 0.09801200032234192 0.02000799961388111 0.030553000047802925
v 0.09953200072050095 0.018231000751256943 0.02827499993145466
v 0.11074099689722061 0.015383999794721603 0.032517001032829285
v 0.1250160038471222 0.007691999897360802 0.03328299894928932
v 0.12836399674415588 0.000534999999217689 0.03411699831485748
v 0.12959299981594086 -0.0005639999872073531 0.03569899871945381
v 0.1285489946603775 -0.0009430000209249556 0.03939000144600868
v 0.11746200174093246 0.013577999547123909 0.03493500128388405
v 0.12310100346803665 0.01107800006866455 0.037696000188589096
v 0.12853200733661652 0.008256999775767326 0.04320099949836731
v 0.12721200287342072 0.005601000040769577 0.04320700094103813
v 0.12855499982833862 0.009456999599933624 0.03803899884223938
v 0.13411100208759308 0.008163999766111374 0.042451001703739166
v 0.1315390020608902 0.0015569999814033508 0.04318400099873543
v 0.12926700711250305 0.0037690000608563423 0.04419900104403496
v 0.12856599688529968 0.00936300028115511 0.035916998982429504
v 0.13279299437999725 0.004021999891847372 0.03421600162982941
v 0.13086800277233124 0.0028540000785142183 0.03434799984097481
v 0.13233399391174316 -0.0011749999830499291 0.03668399900197983
v 0.1325799971818924 -0.0018759999657049775 0.040862999856472015
v 0.13349300622940063 -0.0017740000039339066 0.04194699972867966
v 0.13419599831104279 0.005491999909281731 0.0458419993519783
v 0.1401599943637848 0.005524999927729368 0.04085899889469147
v 0.13548000156879425 0.006994000170379877 0.04538299888372421
v 0.13760100305080414 0.0051819998770952225 0.04628700017929077
v 0.13811799883842468 0.0012120000319555402 0.04522699862718582
v 0.135684996843338 -0.0007360000163316727 0.04394900053739548
v 0.13304300606250763 0.005431999918073416 0.03484499827027321
v 0.1351419985294342 0.003957000095397234 0.036545999348163605
v 0.13505999743938446 0.0009840000420808792 0.0357699990272522
v 0.13435600697994232 -0.0015640000347048044 0.04024000093340874
v 0.13553500175476074 -0.0022239999379962683 0.03935199975967407
v 0.1342560052871704 -0.0021689999848604202 0.04103799909353256
v 0.13499799370765686 -0.0026279999874532223 0.04183100163936615
v 0.1402450054883957 0.002445999998599291 0.0426350012421608
v 0.14058099687099457 0.0037640000227838755 0.03948599845170975
v 0.13812899589538574 -0.0004349999944679439 0.043811000883579254
v 0.13909900188446045 -0.0009619999909773469 0.04149400070309639
v 0.13908100128173828 0.0009490000084042549 0.037960998713970184
v 0.13861200213432312 -0.0008200000156648457 0.03853899985551834
v 0.13787199556827545 -0.00165200000628829 0.042399000376462936
v 0.1395989954471588 0.0003490000090096146 0.038830000907182693
vn -0.4907020032405853 -0.3305929899215698 -0.8061760067939758
vn -0.29988500475883484 -0.7336969971656799 -0.60971999168396
vn -0.7123749852180481 -0.09092599898576736 -0.6958839893341064
vn -0.20399600267410278 -0.704695999622345 -0.6795499920845032
vn -0.5218769907951355 -0.39701899886131287 -0.7549970149993896
vn -0.7226279973983765 0.2315569967031479 -0.651298999786377
vn -0.4352410137653351 -0.8683949708938599 0.23760400712490082
vn -0.833329975605011 -0.4779700040817261 -0.2776789963245392
vn -0.09280899912118912 -0.9124860167503357 -0.39844098687171936
vn -0.03557800129055977 -0.9489120244979858 0.31352901458740234
vn -0.9441480040550232 0.3292759954929352 0.012737000361084938
vn -0.12431299686431885 -0.4980179965496063 -0.858210027217865
vn -0.24031099677085876 0.21136699616909027 -0.9474040269851685
vn -0.6177210211753845 0.7198740243911743 -0.3165470063686371
vn -0.7569140195846558 0.6454489827156067 -0.10235700011253357
vn -0.8254010081291199 -0.3767690062522888 0.42042601108551025
vn -0.5209239721298218 -0.45661601424217224 0.7212079763412476
vn -0.09428499639034271 -0.5747720003128052 0.8128640055656433
vn 0.08191400021314621 -0.7890340089797974 -0.6088629961013794
vn 0.02813499979674816 -0.9986730217933655 -0.04313499853014946
vn -0.028098000213503838 -0.5505049824714661 0.8343589901924133
vn 0.17348000407218933 -0.11760199815034866 0.9777910113334656
vn -0.6553859710693359 0.2586649954319 0.709621012210846
vn -0.3656870126724243 0.7604079842567444 0.5367059707641602
vn 0.1803250014781952 0.02104100026190281 -0.983381986618042
vn -0.14026300609111786 0.9322199821472168 -0.33360400795936584
vn -0.051833998411893845 0.626891016960144 0.7773810029029846
vn -0.07075300067663193 0.2580159902572632 0.9635459780693054
vn 0.187172994017601 0.2097959965467453 0.9596629738807678
vn 0.21808600425720215 -0.6052529811859131 -0.7655770182609558
vn -0.1774429976940155 -0.974016010761261 0.14073899388313293
vn -0.029426999390125275 -0.7847139835357666 -0.6191589832305908
vn -0.3015129864215851 -0.31834399700164795 0.898747980594635
vn 0.11854100227355957 0.44901901483535767 0.8856239914894104
vn -0.016495000571012497 0.5869759917259216 0.809436023235321
vn 0.22990599274635315 0.794992983341217 -0.5613639950752258
vn 0.2570360004901886 0.11761999875307083 -0.9592170119285583
vn 0.1290140002965927 0.8317319750785828 0.5399789810180664
vn 0.29662901163101196 -0.10408099740743637 -0.9493039846420288
vn -0.25697800517082214 -0.9664000272750854 -0.0057830000296235085
vn 0.15187999606132507 -0.2458849996328354 -0.9573259949684143
vn -0.24206599593162537 -0.8204500079154968 -0.5179449915885925
vn -0.4137299954891205 -0.7764869928359985 0.47528401017189026
vn 0.14409999549388885 0.8167129755020142 0.5587620139122009
vn -0.2158149927854538 0.36427998542785645 0.9059380292892456
vn -0.32043299078941345 0.7001280188560486 0.638077974319458
vn -0.5181670188903809 -0.49199798703193665 0.6995999813079834
vn -0.60384601354599 -0.04735700041055679 0.7956929802894592
vn 0.3735460042953491 0.9174349904060364 0.13702300190925598
vn 0.41215699911117554 0.5425819754600525 -0.7319369912147522
vn 0.37194401025772095 0.6746230125427246 -0.6376060247421265
vn 0.15256600081920624 0.07326500117778778 -0.9855740070343018
vn 0.010327000170946121 -0.5211390256881714 -0.853410005569458
vn -0.21164600551128387 -0.9325230121612549 -0.292587012052536
vn -0.46143901348114014 -0.7954429984092712 0.39286699891090393
vn 0.31924399733543396 0.9475820064544678 0.013119000010192394
vn 0.12502700090408325 0.8363040089607239 0.5338199734687805
vn -0.31821000576019287 0.7186020016670227 0.6183480024337769
vn -0.6795780062675476 0.06194400042295456 0.7309830188751221
vn 0.2246520072221756 0.9567729830741882 0.18470899760723114
vn 0.09410499781370163 0.9664170145988464 0.2391279935836792
vn -0.36226099729537964 -0.4814159870147705 0.7981259822845459
vn -0.45418500900268555 -0.4313260018825531 0.7795349955558777
vn 0.3545069992542267 0.7935469746589661 -0.4945780038833618
vn 0.38983801007270813 0.03541899845004082 -0.9202020168304443
vn 0.27184998989105225 -0.2901360094547272 -0.9175609946250916
vn 0.062366001307964325 -0.8520349860191345 -0.519756019115448
vn -0.14652399718761444 -0.9857079982757568 -0.08313199877738953
vn -0.39534300565719604 -0.7817509770393372 0.4822539985179901
vn -0.25562700629234314 0.18300500512123108 0.9492959976196289
vn 0.7237870097160339 0.6684039831161499 -0.17137399315834045
vn 0.09581100195646286 0.8103920221328735 0.5780019760131836
vn 0.3734560012817383 0.13377299904823303 0.9179520010948181
vn 0.3900800049304962 -0.4055190086364746 0.8266760110855103
vn -0.16669200360774994 -0.5931990146636963 0.7876099944114685
vn 0.5146239995956421 0.34585800766944885 -0.7845659852027893
vn 0.5701079964637756 0.09505899995565414 -0.8160520195960999
vn 0.37154799699783325 -0.2576949894428253 -0.8919339776039124
vn -0.2932179868221283 -0.9008060097694397 -0.32027000188827515
vn -0.036313001066446304 -0.9354419708251953 -0.3516109883785248
vn -0.38724198937416077 -0.8892509937286377 -0.2434680014848709
vn -0.10510899871587753 -0.9444059729576111 0.3115270137786865
vn 0.9345390200614929 -0.08640599995851517 0.34521201252937317
vn 0.8713669776916504 0.07716099917888641 -0.48452600836753845
vn 0.40186700224876404 -0.6775649785995483 0.6159610152244568
vn 0.8266980051994324 -0.5395159721374512 0.15966300666332245
vn 0.6236889958381653 -0.17843100428581238 -0.7610350251197815
vn 0.5176640152931213 -0.7189710140228271 -0.4637939929962158
vn 0.4181880056858063 -0.8944180011749268 0.15854400396347046
vn 0.8542389869689941 -0.3765160143375397 -0.35848599672317505
f 1//1 2//2 3//3
f 4//4 2//2 1//1
f 4//4 1//1 5//5
f 5//5 1//1 6//6
f 6//6 1//1 3//3
f 7//7 8//8 2//2
f 9//9 2//2 4//4
f 7//7 2//2 10//10
f 2//2 9//9 10//10
f 3//3 2//2 8//8
f 3//3 11//11 6//6
f 3//3 8//8 11//11
f 9//9 4//4 5//5
f 12//12 9//9 5//5
f 13//13 12//12 5//5
f 5//5 6//6 14//14
f 13//13 5//5 14//14
f 15//15 6//6 11//11
f 6//6 15//15 14//14
f 16//16 8//8 7//7
f 17//17 16//16 7//7
f 18//18 17//17 7//7
f 7//7 10//10 18//18
f 8//8 16//16 11//11
f 12//12 19//19 9//9
f 9//9 19//19 20//20
f 20//20 10//10 9//9
f 10//10 20//20 21//21
f 10//10 21//21 22//22
f 18//18 10//10 22//22
f 23//23 24//24 11//11
f 16//16 23//23 11//11
f 11//11 24//24 15//15
f 12//12 25//25 19//19
f 12//12 13//13 25//25
f 26//26 13//13 14//14
f 25//25 13//13 26//26
f 26//26 14//14 27//27
f 15//15 24//24 14//14
f 27//27 14//14 24//24
f 23//23 16//16 17//17
f 17//17 28//28 23//23
f 17//17 18//18 28//28
f 22//22 29//29 18//18
f 29//29 28//28 18//18
f 25//25 30//30 19//19
f 19//19 30//30 20//20
f 31//31 21//21 20//20
f 20//20 30//30 32//32
f 20//20 32//32 31//31
f 21//21 31//31 33//33
f 21//21 33//33 34//34
f 21//21 34//34 22//22
f 34//34 27//27 22//22
f 27//27 29//29 22//22
f 28//28 24//24 23//23
f 27//27 24//24 35//35
f 28//28 35//35 24//24
f 36//36 37//37 25//25
f 25//25 37//37 30//30
f 25//25 26//26 36//36
f 36//36 26//26 38//38
f 26//26 27//27 38//38
f 27//27 35//35 29//29
f 38//38 27//27 34//34
f 28//28 29//29 35//35
f 30//30 39//39 32//32
f 37//37 39//39 30//30
f 31//31 32//32 40//40
f 40//40 33//33 31//31
f 41//41 32//32 39//39
f 32//32 42//42 40//40
f 41//41 42//42 32//32
f 43//43 33//33 40//40
f 44//44 33//33 45//45
f 34//34 33//33 44//44
f 33//33 46//46 45//45
f 47//47 33//33 43//43
f 46//46 33//33 48//48
f 33//33 47//47 48//48
f 38//38 34//34 49//49
f 44//44 49//49 34//34
f 36//36 38//38 49//49
f 36//36 49//49 50//50
f 37//37 36//36 50//50
f 39//39 37//37 50//50
f 41//41 39//39 51//51
f 51//51 39//39 50//50
f 42//42 43//43 40//40
f 51//51 52//52 41//41
f 41//41 52//52 42//42
f 53//53 54//54 42//42
f 55//55 42//42 54//54
f 53//53 42//42 52//52
f 55//55 43//43 42//42
f 43//43 55//55 47//47
f 51//51 44//44 56//56
f 49//49 44//44 51//51
f 44//44 45//45 57//57
f 56//56 44//44 57//57
f 45//45 46//46 57//57
f 58//58 46//46 59//59
f 60//60 46//46 61//61
f 58//58 61//61 46//46
f 59//59 46//46 48//48
f 57//57 46//46 60//60
f 59//59 48//48 47//47
f 47//47 55//55 62//62
f 62//62 63//63 47//47
f 59//59 47//47 63//63
f 49//49 51//51 50//50
f 51//51 56//56 64//64
f 52//52 51//51 64//64
f 52//52 64//64 65//65
f 53//53 52//52 66//66
f 66//66 52//52 65//65
f 66//66 67//67 53//53
f 53//53 67//67 54//54
f 68//68 54//54 67//67
f 54//54 68//68 55//55
f 69//69 55//55 68//68
f 69//69 62//62 55//55
f 60//60 56//56 57//57
f 64//64 56//56 60//60
f 61//61 58//58 70//70
f 70//70 58//58 59//59
f 70//70 59//59 63//63
f 60//60 61//61 64//64
f 71//71 64//64 61//61
f 70//70 72//72 61//61
f 61//61 72//72 71//71
f 62//62 73//73 70//70
f 74//74 62//62 75//75
f 73//73 62//62 74//74
f 75//75 62//62 69//69
f 62//62 70//70 63//63
f 76//76 64//64 71//71
f 76//76 65//65 64//64
f 77//77 66//66 65//65
f 65//65 76//76 77//77
f 66//66 78//78 67//67
f 78//78 66//66 77//77
f 79//79 67//67 80//80
f 79//79 68//68 67//67
f 67//67 78//78 80//80
f 68//68 79//79 81//81
f 69//69 68//68 81//81
f 69//69 81//81 82//82
f 69//69 82//82 75//75
f 70//70 73//73 72//72
f 76//76 71//71 77//77
f 83//83 84//84 71//71
f 77//77 71//71 84//84
f 71//71 73//73 83//83
f 72//72 73//73 71//71
f 73//73 74//74 83//83
f 74//74 85//85 86//86
f 74//74 86//86 83//83
f 85//85 74//74 75//75
f 85//85 75//75 82//82
f 84//84 78//78 77//77
f 87//87 78//78 84//84
f 80//80 78//78 88//88
f 87//87 88//88 78//78
f 81//81 79//79 80//80
f 81//81 80//80 82//82
f 80//80 88//88 89//89
f 80//80 89//89 82//82
f 85//85 82//82 89//89
f 83//83 86//86 84//84
f 84//84 86//86 90//90
f 84//84 90//90 87//87
f 85//85 89//89 86//86
f 90//90 86//86 88//88
f 88//88 86//86 89//89
f 90//90 88//88 87//87
