# Generated by Visualization Toolkit
v 0.018136000260710716 -0.00004400000034365803 0.03615399822592735
v 0.020309999585151672 -0.0015160000184550881 0.03467800095677376
v 0.017653999850153923 -0.001382000045850873 0.034474000334739685
v 0.01588200032711029 0.0004030000127386302 0.03418099880218506
v 0.016627000644803047 0.0006910000229254365 0.03698299825191498
v 0.020003000274300575 -0.0013139999937266111 0.03932899981737137
v 0.021252000704407692 0.000056000000768108293 0.0355600006878376
v 0.020137999206781387 -0.0029539999086409807 0.034060999751091
v 0.020990999415516853 -0.003197999903932214 0.03421600162982941
v 0.016085000708699226 -0.0037589999847114086 0.032836999744176865
v 0.016029000282287598 -0.004807999823242426 0.03320999816060066
v 0.017389999702572823 -0.0037090000696480274 0.03374499827623367
v 0.01537299994379282 0.0007089999853633344 0.03436899930238724
v 0.014498000033199787 -0.0021349999587982893 0.03307899832725525
v 0.014026000164449215 0.0005590000073425472 0.03530700132250786
v 0.015499000437557697 -0.00047599998652003706 0.040084999054670334
v 0.014507999643683434 0.0005849999724887311 0.037372998893260956
v 0.02275099977850914 -0.0019859999883919954 0.04129499942064285
v 0.01846499927341938 -0.003085999982431531 0.04095900058746338
v 0.019902000203728676 -0.002553999889642 0.041405998170375824
v 0.02365799993276596 -0.0010100000072270632 0.03671199828386307
v 0.021477999165654182 -0.0035429999697953463 0.034311000257730484
v 0.015494000166654587 -0.005981000140309334 0.03933800011873245
v 0.018302999436855316 -0.005563999991863966 0.04083399847149849
v 0.02213199995458126 -0.0034719998948276043 0.03441699966788292
v 0.015522999688982964 -0.0044200001284480095 0.03271099925041199
v 0.014945000410079956 -0.006384000182151794 0.03840800002217293
v 0.013650000095367432 -0.006572999991476536 0.03875900059938431
v 0.014930999837815762 -0.0050559998489916325 0.03328400105237961
v 0.014019999653100967 -0.0035830000415444374 0.03387400135397911
v 0.013752000406384468 0.000577000027988106 0.03610900044441223
v 0.01396199967712164 -0.004155999980866909 0.03535100072622299
v 0.013346999883651733 0.00015100000018719584 0.03647499904036522
v 0.012887000106275082 -0.00060299999313429 0.03772199898958206
v 0.013772999867796898 -0.003659999929368496 0.03625300154089928
v 0.013333999551832676 -0.0005360000068321824 0.04035099968314171
v 0.01522899977862835 -0.0018060000147670507 0.04043800011277199
v 0.013245999813079834 -0.00021499999274965376 0.03988000005483627
v 0.013081000186502934 0.00011300000187475234 0.037703998386859894
v 0.023854000493884087 -0.0015920000150799751 0.03662699833512306
v 0.022460000589489937 -0.002392000053077936 0.04171200096607208
v 0.023832999169826508 -0.0025110000278800726 0.036058999598026276
v 0.021952999755740166 -0.004666999913752079 0.04142799973487854
v 0.012866999953985214 -0.00456500006839633 0.03981399908661842
v 0.012992000207304955 -0.0025430000387132168 0.04027099907398224
v 0.013004999607801437 -0.005594999995082617 0.03930399939417839
v 0.013659999705851078 -0.004503999836742878 0.034678999334573746
v 0.012984000146389008 -0.0056420001201331615 0.0385110005736351
v 0.013151999562978745 -0.004906999878585339 0.03691500052809715
v 0.013491000048816204 -0.004480000119656324 0.0352259986102581
v 0.013530000112950802 -0.004449999891221523 0.03600500151515007
v 0.012668999843299389 -0.0007960000075399876 0.03921499848365784
v 0.01291900034993887 -0.0016919999616220593 0.04026100039482117
v 0.013363000005483627 -0.004807999823242426 0.03798000141978264
v 0.013585999608039856 -0.00459699984639883 0.03657300025224686
v 0.01300899963825941 -0.0010379999876022339 0.04032900184392929
v 0.01271899975836277 -0.0009219999774359167 0.039788998663425446
vn 0.271465003490448 0.8959320187568665 -0.3515850007534027
vn 0.10869500041007996 0.49845701456069946 -0.8600729703903198
vn 0.3585140109062195 0.3693310022354126 -0.8573579788208008
vn 0.2065100073814392 0.5722529888153076 -0.7936499714851379
vn 0.2086700052022934 0.9751120209693909 0.07492300122976303
vn 0.059029001742601395 0.8908129930496216 0.45051899552345276
vn 0.20766299962997437 0.9103220105171204 -0.35803601145744324
vn 0.16144099831581116 -0.33290499448776245 -0.9290379881858826
vn 0.28345298767089844 0.25666099786758423 -0.9240019917488098
vn 0.445699006319046 0.05463400110602379 -0.8935139775276184
vn 0.49686399102211 -0.6724209785461426 -0.5486130118370056
vn 0.40156999230384827 -0.39941099286079407 -0.8241440057754517
vn -0.07740999758243561 0.8438270092010498 -0.5310029983520508
vn -0.4235270023345947 0.22576600313186646 -0.8773000240325928
vn -0.8006569743156433 0.41659098863601685 -0.4305810034275055
vn 0.10491099953651428 0.7194240093231201 0.686601996421814
vn -0.08315300196409225 0.9817969799041748 0.17076200246810913
vn 0.5705609917640686 0.6539120078086853 0.496849000453949
vn -0.14711900055408478 0.24333399534225464 0.9587200284004211
vn -0.2450290024280548 0.49244698882102966 0.8351389765739441
vn 0.6628260016441345 0.5642910003662109 -0.49217599630355835
vn 0.05408500134944916 -0.5853319764137268 -0.8089879751205444
vn 0.21155500411987305 -0.8063229918479919 0.5523480176925659
vn 0.025993000715970993 -0.9466760158538818 0.3211379945278168
vn 0.477618008852005 -0.27926498651504517 -0.833001971244812
vn -0.15104900300502777 -0.27324599027633667 -0.9500110149383545
vn 0.34075498580932617 -0.9397299885749817 -0.02817399986088276
vn -0.41076600551605225 -0.9105939865112305 -0.045719001442193985
vn -0.42472100257873535 -0.647491991519928 -0.6327450275421143
vn -0.9024329781532288 0.018825000151991844 -0.430418998003006
vn -0.5933889746665955 0.8034579753875732 -0.04842999950051308
vn -0.8767629861831665 0.46432000398635864 -0.1252720057964325
vn -0.9034770131111145 0.3375760018825531 -0.2641420066356659
vn -0.9705029726028442 -0.0004309999931138009 -0.24108999967575073
vn -0.9774720072746277 0.07758600264787674 -0.19628700613975525
vn -0.15637099742889404 0.3410309851169586 0.926954984664917
vn -0.10198599845170975 -0.013523999601602554 0.9946939945220947
vn -0.5130760073661804 0.7715920209884644 0.3760310113430023
vn -0.7309430241584778 0.6823390126228333 0.011661999858915806
vn 0.9843270182609558 0.17116999626159668 -0.042447999119758606
vn 0.6053360104560852 0.0034600000362843275 0.7959619760513306
vn 0.9174950122833252 -0.35596901178359985 -0.17745299637317657
vn 0.2186170071363449 -0.4507730007171631 0.8654540181159973
vn -0.8982920050621033 -0.14307400584220886 0.4154529869556427
vn -0.47221899032592773 -0.10542900115251541 0.8751540184020996
vn -0.6226860284805298 -0.5344809889793396 0.5714830160140991
vn -0.9419639706611633 -0.09885299950838089 -0.32082900404930115
vn -0.997829020023346 0.0310830008238554 -0.058058999478816986
vn -0.972091019153595 0.22593100368976593 -0.06320299953222275
vn -0.8049229979515076 0.5784159898757935 -0.13241499662399292
vn -0.765591025352478 0.643248975276947 0.01006999984383583
vn -0.9858279824256897 0.1666489988565445 0.01928599923849106
vn -0.9791420102119446 -0.15281300246715546 0.13390199840068817
vn -0.973809003829956 0.13663700222969055 -0.18173299729824066
vn -0.8160960078239441 0.5638520121574402 0.1267170011997223
vn -0.6327750086784363 0.2126850038766861 0.7445539832115173
vn -0.9140790104866028 0.24030500650405884 0.3266710042953491
f 1//1 2//2 3//3
f 4//4 1//1 3//3
f 5//5 6//6 1//1
f 1//1 7//7 2//2
f 7//7 1//1 6//6
f 1//1 4//4 5//5
f 8//8 2//2 9//9
f 2//2 7//7 9//9
f 3//3 2//2 8//8
f 3//3 10//10 4//4
f 11//11 10//10 3//3
f 12//12 11//11 3//3
f 12//12 3//3 8//8
f 4//4 13//13 5//5
f 10//10 14//14 4//4
f 13//13 4//4 15//15
f 14//14 15//15 4//4
f 16//16 6//6 5//5
f 16//16 5//5 17//17
f 13//13 15//15 5//5
f 15//15 17//17 5//5
f 18//18 7//7 6//6
f 16//16 19//19 6//6
f 6//6 19//19 20//20
f 20//20 18//18 6//6
f 9//9 7//7 21//21
f 21//21 7//7 18//18
f 22//22 8//8 9//9
f 8//8 23//23 12//12
f 8//8 22//22 24//24
f 8//8 24//24 23//23
f 9//9 21//21 25//25
f 25//25 22//22 9//9
f 26//26 14//14 10//10
f 10//10 11//11 26//26
f 23//23 11//11 12//12
f 27//27 28//28 11//11
f 23//23 27//27 11//11
f 29//29 11//11 28//28
f 26//26 11//11 29//29
f 30//30 15//15 14//14
f 14//14 26//26 30//30
f 31//31 17//17 15//15
f 15//15 30//30 32//32
f 15//15 33//33 31//31
f 15//15 34//34 33//33
f 34//34 15//15 35//35
f 35//35 15//15 32//32
f 16//16 36//36 37//37
f 19//19 16//16 37//37
f 17//17 38//38 16//16
f 36//36 16//16 38//38
f 38//38 17//17 39//39
f 39//39 17//17 31//31
f 40//40 21//21 18//18
f 20//20 41//41 18//18
f 18//18 41//41 42//42
f 18//18 42//42 40//40
f 24//24 43//43 19//19
f 19//19 37//37 24//24
f 43//43 20//20 19//19
f 43//43 41//41 20//20
f 21//21 42//42 25//25
f 42//42 21//21 40//40
f 22//22 25//25 24//24
f 44//44 23//23 45//45
f 37//37 45//45 23//23
f 37//37 23//23 24//24
f 46//46 28//28 23//23
f 27//27 23//23 28//28
f 44//44 46//46 23//23
f 24//24 25//25 42//42
f 43//43 24//24 42//42
f 30//30 26//26 29//29
f 28//28 47//47 29//29
f 28//28 46//46 48//48
f 49//49 28//28 48//48
f 47//47 28//28 49//49
f 47//47 30//30 29//29
f 30//30 47//47 32//32
f 34//34 39//39 31//31
f 31//31 33//33 34//34
f 50//50 32//32 47//47
f 51//51 32//32 50//50
f 32//32 51//51 35//35
f 39//39 34//34 52//52
f 34//34 53//53 52//52
f 53//53 34//34 35//35
f 54//54 53//53 35//35
f 55//55 35//35 51//51
f 55//55 54//54 35//35
f 36//36 45//45 37//37
f 36//36 56//56 45//45
f 36//36 38//38 56//56
f 38//38 39//39 52//52
f 56//56 38//38 57//57
f 57//57 38//38 52//52
f 43//43 42//42 41//41
f 54//54 44//44 45//45
f 48//48 46//46 44//44
f 48//48 44//44 54//54
f 45//45 56//56 53//53
f 45//45 53//53 54//54
f 47//47 49//49 50//50
f 48//48 55//55 49//49
f 54//54 55//55 48//48
f 49//49 55//55 51//51
f 49//49 51//51 50//50
f 53//53 57//57 52//52
f 57//57 53//53 56//56
