# Generated by Visualization Toolkit
v 0.03886900097131729 -0.0037879999727010727 0.02051199972629547
v 0.03648199886083603 -0.0017740000039339066 0.02073800005018711
v 0.039319999516010284 -0.0034890000242739916 0.020646000280976295
v 0.037689000368118286 -0.0029639999847859144 0.020532000809907913
v 0.039976999163627625 -0.003524000057950616 0.021245000883936882
v 0.037039998918771744 -0.002867999952286482 0.021025000140070915
v 0.038554999977350235 -0.004333000164479017 0.02406900003552437
v 0.03579099848866463 -0.003702000016346574 0.02706499956548214
v 0.034616999328136444 -0.000881000014487654 0.022616000846028328
v 0.03676600009202957 -0.0005810000002384186 0.021304000169038773
v 0.03669000044465065 -0.0026519999373704195 0.02065099962055683
v 0.03622199967503548 -0.002759000053629279 0.021074000746011734
v 0.03451399877667427 -0.0022670000325888395 0.021418999880552292
v 0.03973900154232979 -0.001095999963581562 0.022064000368118286
v 0.039737001061439514 -0.0034030000679194927 0.024620000272989273
v 0.0404059998691082 -0.002311999909579754 0.022199999541044235
v 0.03426399827003479 -0.0038169999606907368 0.024057000875473022
v 0.038217999041080475 -0.00481100007891655 0.027837000787258148
v 0.03747899830341339 -0.004635999910533428 0.0279300007969141
v 0.03928700089454651 -0.004433999769389629 0.02594600059092045
v 0.03177100047469139 -0.004292000085115433 0.026364000514149666
v 0.03262399882078171 -0.002452000044286251 0.026527000591158867
v 0.037133000791072845 -0.004220999777317047 0.02783999964594841
v 0.031045999377965927 -0.0006189999985508621 0.02471200004220009
v 0.03548600152134895 -0.0016580000519752502 0.026688000187277794
v 0.03110400028526783 -0.0006820000126026571 0.02236899919807911
v 0.039329998195171356 -0.00145800004247576 0.025225000455975533
v 0.035468000918626785 -0.003068000078201294 0.021285999566316605
v 0.03357800096273422 -0.0032470000442117453 0.021190999075770378
v 0.03161900117993355 -0.002119000069797039 0.020692000165581703
v 0.04008600115776062 -0.002891999902203679 0.026038000360131264
v 0.0342090018093586 -0.003510999958962202 0.021587999537587166
v 0.031062999740242958 -0.004470000043511391 0.02644200064241886
v 0.03253699839115143 -0.00408599991351366 0.021146999672055244
v 0.03931799903512001 -0.00420599989593029 0.02742999978363514
v 0.03880799934267998 -0.004253999795764685 0.027838999405503273
v 0.03768699988722801 -0.003777999896556139 0.027657000347971916
v 0.03954099863767624 -0.0036200000904500484 0.027348000556230545
v 0.03125999867916107 -0.0037010000087320805 0.02639799937605858
v 0.032648999243974686 -0.001353000057861209 0.025995999574661255
v 0.0359870009124279 -0.0030239999759942293 0.02771800011396408
v 0.032085999846458435 -0.0019499999471008778 0.02630000002682209
v 0.03679100051522255 -0.0032339999452233315 0.027761999517679214
v 0.029443999752402306 -0.0007890000124461949 0.025428999215364456
v 0.028706999495625496 -0.0003589999978430569 0.021523000672459602
v 0.03699599951505661 -0.001614999957382679 0.027403999119997025
v 0.03606000170111656 -0.0019399999873712659 0.027518000453710556
v 0.029881000518798828 -0.0010720000136643648 0.01975099928677082
v 0.03949299827218056 -0.0021379999816417694 0.02722500078380108
v 0.0325700007379055 -0.003452999982982874 0.020990999415516853
v 0.03139600157737732 -0.003531999886035919 0.019399000331759453
v 0.032203998416662216 -0.0034799999557435513 0.02058899961411953
v 0.03187999874353409 -0.004244999960064888 0.02068600058555603
v 0.0292930006980896 -0.00507500022649765 0.026926999911665916
v 0.02967900037765503 -0.0055069997906684875 0.026384999975562096
v 0.029683999717235565 -0.0053460001945495605 0.020656999200582504
v 0.0386199988424778 -0.002340999897569418 0.02762099914252758
v 0.02782999910414219 -0.004277000203728676 0.027110999450087547
v 0.028082000091671944 -0.000818000000435859 0.0263030007481575
v 0.02804199978709221 -0.001310999970883131 0.02661599963903427
v 0.027674000710248947 -0.0018649999983608723 0.026819000020623207
v 0.0277670007199049 -0.003409000113606453 0.02725199982523918
v 0.027963999658823013 -0.00045200000749900937 0.02574400044977665
v 0.02735700085759163 -0.0005039999959990382 0.023854000493884087
v 0.02782999910414219 -0.0008040000102482736 0.021983999758958817
v 0.0284620001912117 -0.0015269999857991934 0.020215999335050583
v 0.02931799925863743 -0.00279999990016222 0.019000999629497528
v 0.030274000018835068 -0.0038159999530762434 0.0188790000975132
v 0.03065500035881996 -0.004449000116437674 0.019233999773859978
v 0.028311999514698982 -0.0051020001992583275 0.026799999177455902
v 0.028598999604582787 -0.0054870001040399075 0.026101000607013702
v 0.028320999816060066 -0.005530999973416328 0.0231890007853508
v 0.028829999268054962 -0.004858000203967094 0.020375000312924385
v 0.02846500091254711 -0.005386000033468008 0.022161999717354774
v 0.02829599939286709 -0.002365000080317259 0.023262999951839447
v 0.027728000655770302 -0.0021569998934865 0.025312000885605812
v 0.028832999989390373 -0.00446499977260828 0.02357099950313568
v 0.028080999851226807 -0.005210000090301037 0.026322999969124794
v 0.027307000011205673 -0.0016039999900385737 0.02638999931514263
v 0.027481000870466232 -0.000994000001810491 0.0258760005235672
v 0.027627000585198402 -0.0027119999285787344 0.027024000883102417
v 0.027000999078154564 -0.0012870000209659338 0.025408999994397163
v 0.02709200046956539 -0.0013000000035390258 0.024010999128222466
v 0.028940999880433083 -0.004275000188499689 0.02295600064098835
v 0.02933100052177906 -0.0035210000351071358 0.01897599920630455
v 0.028269000351428986 -0.005313000176101923 0.025005999952554703
v 0.02873699925839901 -0.0038419999182224274 0.023250000551342964
vn -0.02175699919462204 -0.6827930212020874 -0.730288028717041
vn -0.18012599647045135 0.2663060128688812 -0.9469079971313477
vn 0.4029400050640106 0.18509800732135773 -0.8963140249252319
vn -0.21106800436973572 -0.37999600172042847 -0.9005849957466125
vn 0.7895069718360901 -0.445376992225647 -0.4222770035266876
vn -0.23545800149440765 -0.9159449934959412 -0.32496699690818787
vn 0.10818000137805939 -0.9823709726333618 -0.15245799720287323
vn -0.3184100091457367 -0.9322249889373779 0.17196500301361084
vn -0.12014299631118774 0.9235799908638 -0.364096999168396
vn 0.027811000123620033 0.9082300066947937 -0.41754698753356934
vn -0.375016987323761 -0.5678369998931885 -0.7327510118484497
vn -0.22103999555110931 -0.6504030227661133 -0.7267159819602966
vn -0.05236300081014633 0.30258500576019287 -0.951682984828949
vn 0.6369460225105286 0.6124410033226013 -0.46820399165153503
vn 0.9301789999008179 -0.36473599076271057 -0.04166200011968613
vn 0.9887620210647583 0.14509299397468567 -0.036035001277923584
vn 0.2156910002231598 -0.9707080125808716 -0.10584600269794464
vn 0.2702850103378296 -0.8872569799423218 0.37379300594329834
vn -0.26941901445388794 -0.4316590130329132 0.8608620166778564
vn 0.7296350002288818 -0.6828830242156982 -0.03610299900174141
vn 0.08562099933624268 -0.5530740022659302 0.8287209868431091
vn -0.22739200294017792 0.04667700082063675 0.9726840257644653
vn -0.21515600383281708 -0.20553700625896454 0.954704999923706
vn 0.06121699884533882 0.9779930114746094 0.19945399463176727
vn -0.16519999504089355 0.8567960262298584 0.4884760081768036
vn 0.23524199426174164 0.9006829857826233 -0.36528098583221436
vn 0.5879669785499573 0.7971289753913879 0.13740499317646027
vn 0.14653100073337555 -0.6591140031814575 -0.7376300096511841
vn 0.20952199399471283 -0.22492000460624695 -0.951583981513977
vn 0.5258600115776062 0.4039210081100464 -0.7485449910163879
vn 0.9983699917793274 -0.012539000250399113 0.05568299815058708
vn 0.30511200428009033 -0.8241620063781738 -0.47714200615882874
vn 0.39149099588394165 -0.8125240206718445 0.43190300464630127
vn 0.45728299021720886 -0.690310001373291 -0.5606819987297058
vn 0.7306219935417175 -0.5326229929924011 0.42720499634742737
vn 0.2929939925670624 -0.048144999891519547 0.9549009799957275
vn 0.050220001488924026 0.1624860018491745 0.9854320287704468
vn 0.7976719737052917 -0.12255000323057175 0.5905089974403381
vn 0.08451200276613235 0.029691999778151512 0.9959800243377686
vn 0.024968000128865242 0.7132300138473511 0.7004849910736084
vn -0.25344499945640564 0.1581369936466217 0.9543370008468628
vn 0.0954279974102974 0.24081900715827942 0.9658669829368591
vn 0.06305799633264542 0.08799199759960175 0.9941229820251465
vn 0.1406870037317276 0.953436017036438 0.266772985458374
vn -0.15182699263095856 0.9699980020523071 -0.18987500667572021
vn 0.02910899929702282 0.8326759934425354 0.5529940128326416
vn -0.2936199903488159 0.4297589957714081 0.8538699746131897
vn 0.1974239945411682 0.6535840034484863 -0.7306519746780396
vn 0.6094369888305664 0.5315049886703491 0.5882940292358398
vn 0.5003349781036377 -0.046140000224113464 -0.8646020293235779
vn 0.6784049868583679 0.01709499955177307 -0.7344890236854553
vn 0.7554190158843994 -0.047651998698711395 -0.6535069942474365
vn 0.586292028427124 -0.7235959768295288 -0.36423999071121216
vn 0.15020599961280823 -0.36650699377059937 0.9182100296020508
vn 0.16003599762916565 -0.9336569905281067 0.3204270005226135
vn 0.12549899518489838 -0.9677129983901978 -0.21859200298786163
vn 0.13164399564266205 0.20882999897003174 0.9690510034561157
vn -0.8245480060577393 -0.28516700863838196 0.4886719882488251
vn -0.09264399856328964 0.7154049873352051 0.6925410032272339
vn -0.2613770067691803 0.526423990726471 0.8090479969978333
vn -0.25417599081993103 0.3306010067462921 0.9088990092277527
vn -0.4683069884777069 0.04735799878835678 0.8822960257530212
vn -0.2848989963531494 0.9119579792022705 0.2952370047569275
vn -0.7206670045852661 0.6873530149459839 -0.09046900272369385
vn -0.9382429718971252 0.10040199756622314 -0.33108800649642944
vn -0.8363959789276123 0.254381000995636 -0.485522985458374
vn -0.5007990002632141 0.17011000216007233 -0.8486829996109009
vn 0.1461610049009323 -0.02536799944937229 -0.9889349937438965
vn 0.15532000362873077 -0.6767629981040955 -0.7196300029754639
vn -0.27675899863243103 -0.7583630084991455 0.5901619791984558
vn -0.7144929766654968 -0.6980119943618774 0.04774099960923195
vn -0.4462380111217499 -0.8937299847602844 -0.04603299871087074
vn -0.8197169899940491 -0.3636600077152252 -0.4425100088119507
vn -0.9844610095024109 -0.032600000500679016 -0.17255200445652008
vn -0.8945580124855042 -0.3859339952468872 -0.22543400526046753
vn -0.8497499823570251 -0.5118370056152344 -0.12628300487995148
vn -0.987625002861023 0.08232799917459488 -0.13349099457263947
vn -0.773239016532898 -0.6328290104866028 0.04036499932408333
vn -0.8929970264434814 0.13237899541854858 0.4301539957523346
vn -0.6153849959373474 0.6045339703559875 0.505806028842926
vn -0.693693995475769 0.13298100233078003 0.7078880071640015
vn -0.9648270010948181 0.2011599987745285 0.16924500465393066
vn -0.9300150275230408 -0.3036479949951172 -0.20704799890518188
vn -0.9912580251693726 -0.07159800082445145 -0.11081799864768982
vn -0.4633199870586395 -0.3454119861125946 -0.8161029815673828
vn -0.9535099864006042 0.2936969995498657 0.06754200160503387
vn -0.9297530055046082 -0.27343499660491943 -0.24656300246715546
f 1//1 2//2 3//3
f 4//4 2//2 1//1
f 3//3 5//5 1//1
f 1//1 6//6 4//4
f 7//7 8//8 1//1
f 8//8 6//6 1//1
f 1//1 5//5 7//7
f 9//9 10//10 2//2
f 11//11 12//12 2//2
f 11//11 2//2 4//4
f 10//10 3//3 2//2
f 2//2 13//13 9//9
f 13//13 2//2 12//12
f 10//10 14//14 3//3
f 14//14 5//5 3//3
f 4//4 6//6 11//11
f 15//15 7//7 5//5
f 5//5 16//16 15//15
f 5//5 14//14 16//16
f 6//6 12//12 11//11
f 6//6 8//8 17//17
f 17//17 12//12 6//6
f 7//7 18//18 19//19
f 7//7 19//19 8//8
f 20//20 18//18 7//7
f 7//7 15//15 20//20
f 8//8 21//21 17//17
f 8//8 22//22 21//21
f 8//8 19//19 23//23
f 8//8 23//23 22//22
f 24//24 25//25 9//9
f 13//13 26//26 9//9
f 10//10 9//9 25//25
f 9//9 26//26 24//24
f 27//27 10//10 25//25
f 14//14 10//10 27//27
f 13//13 12//12 28//28
f 12//12 17//17 28//28
f 29//29 30//30 13//13
f 13//13 30//30 26//26
f 28//28 29//29 13//13
f 27//27 16//16 14//14
f 15//15 27//27 31//31
f 27//27 15//15 16//16
f 31//31 20//20 15//15
f 28//28 17//17 32//32
f 17//17 33//33 34//34
f 17//17 21//21 33//33
f 34//34 32//32 17//17
f 35//35 18//18 20//20
f 35//35 36//36 18//18
f 18//18 36//36 19//19
f 19//19 37//37 23//23
f 36//36 37//37 19//19
f 20//20 31//31 38//38
f 35//35 20//20 38//38
f 33//33 21//21 39//39
f 22//22 39//39 21//21
f 22//22 25//25 40//40
f 22//22 41//41 25//25
f 42//42 39//39 22//22
f 42//42 22//22 40//40
f 23//23 41//41 22//22
f 43//43 41//41 23//23
f 37//37 43//43 23//23
f 44//44 40//40 24//24
f 45//45 24//24 26//26
f 45//45 44//44 24//24
f 40//40 25//25 24//24
f 46//46 27//27 25//25
f 41//41 47//47 25//25
f 25//25 47//47 46//46
f 48//48 26//26 30//30
f 26//26 48//48 45//45
f 46//46 49//49 27//27
f 27//27 49//49 31//31
f 32//32 29//29 28//28
f 32//32 34//34 29//29
f 50//50 29//29 34//34
f 29//29 50//50 30//30
f 30//30 51//51 48//48
f 52//52 51//51 30//30
f 50//50 52//52 30//30
f 31//31 49//49 38//38
f 53//53 34//34 33//33
f 54//54 55//55 33//33
f 33//33 39//39 54//54
f 56//56 53//53 33//33
f 56//56 33//33 55//55
f 52//52 34//34 53//53
f 50//50 34//34 52//52
f 36//36 35//35 38//38
f 36//36 57//57 37//37
f 36//36 38//38 57//57
f 37//37 57//57 43//43
f 49//49 57//57 38//38
f 54//54 39//39 58//58
f 58//58 39//39 42//42
f 59//59 40//40 44//44
f 42//42 40//40 59//59
f 41//41 57//57 47//47
f 57//57 41//41 43//43
f 59//59 60//60 42//42
f 60//60 61//61 42//42
f 62//62 42//42 61//61
f 42//42 62//62 58//58
f 44//44 45//45 63//63
f 59//59 44//44 63//63
f 64//64 45//45 65//65
f 45//45 66//66 65//65
f 66//66 45//45 48//48
f 64//64 63//63 45//45
f 57//57 46//46 47//47
f 57//57 49//49 46//46
f 67//67 66//66 48//48
f 51//51 68//68 48//48
f 68//68 67//67 48//48
f 53//53 51//51 52//52
f 68//68 51//51 69//69
f 51//51 53//53 69//69
f 69//69 53//53 56//56
f 55//55 54//54 70//70
f 70//70 54//54 58//58
f 55//55 70//70 71//71
f 71//71 72//72 55//55
f 56//56 55//55 72//72
f 56//56 73//73 69//69
f 72//72 74//74 56//56
f 74//74 73//73 56//56
f 75//75 58//58 76//76
f 75//75 77//77 58//58
f 58//58 78//78 70//70
f 78//78 58//58 71//71
f 79//79 58//58 62//62
f 58//58 77//77 71//71
f 76//76 58//58 79//79
f 80//80 59//59 63//63
f 60//60 59//59 80//80
f 79//79 61//61 60//60
f 60//60 80//80 79//79
f 81//81 61//61 79//79
f 62//62 61//61 81//81
f 79//79 62//62 81//81
f 63//63 64//64 82//82
f 80//80 63//63 82//82
f 64//64 83//83 82//82
f 64//64 65//65 83//83
f 65//65 75//75 83//83
f 65//65 66//66 84//84
f 65//65 84//84 75//75
f 84//84 66//66 73//73
f 73//73 66//66 67//67
f 67//67 68//68 85//85
f 73//73 67//67 85//85
f 85//85 68//68 69//69
f 85//85 69//69 73//73
f 78//78 71//71 70//70
f 72//72 71//71 86//86
f 86//86 71//71 77//77
f 86//86 74//74 72//72
f 74//74 84//84 73//73
f 84//84 74//74 77//77
f 74//74 86//86 77//77
f 75//75 76//76 83//83
f 75//75 84//84 87//87
f 77//77 75//75 87//87
f 82//82 83//83 76//76
f 82//82 76//76 79//79
f 84//84 77//77 87//87
f 79//79 80//80 82//82
