# Generated by Visualization Toolkit
v 0 0.05291999876499176 0
v 0 0.05027399957180023 0.012600000016391277
v 0.005481999833136797 0.0491270013153553 0.007546000182628632
v 0.005758000072091818 0.04797999933362007 0.0018710000440478325
v -0.004954000003635883 0.050978999584913254 0.006818000227212906
v 0.005758000072091818 0.04797999933362007 -0.0018710000440478325
v 0.0038950000889599323 0.04974399879574776 -0.005361999850720167
v 0 0.05150900036096573 -0.007199999876320362
v -0.003367000026628375 0.05159600079059601 -0.004633000120520592
v -0.004046000074595213 0.05168500170111656 -0.0013150000013411045
v -0.004046000074595213 0.05168500170111656 0.0013150000013411045
v 0 0.044982001185417175 0.021764000877738
v -0.007934999652206898 0.04339500144124031 0.01092199981212616
v 0.01014699973165989 0.04436499997973442 0.013965999707579613
v 0.012138999998569489 0.04374700039625168 0.003944000229239464
v -0.004980999976396561 0.04180699959397316 0.001617999980226159
v 0.012138999998569489 0.04374700039625168 -0.003944000229239464
v 0.008992999792098999 0.04656900092959404 -0.012377999722957611
v 0 0.04939199984073639 -0.01783600077033043
v -0.006781000178307295 0.04559899866580963 -0.009332999587059021
v -0.004980999976396561 0.04180699959397316 -0.001617999980226159
v 0 0.035280000418424606 0.024708999320864677
v -0.008175999857485294 0.03501499816775322 0.011253000237047672
v -0.002956999931484461 0.03475100174546242 0.0009609999833628535
v 0.012023000046610832 0.03395700082182884 0.016548000276088715
v 0.015406999737024307 0.03263400122523308 0.005005999933928251
v -0.002956999931484461 0.03475100174546242 -0.0009609999833628535
v 0.015406999737024307 0.03263400122523308 -0.005005999933928251
v 0.012600000016391277 0.03492699936032295 -0.017342999577522278
v 0 0.037220001220703125 -0.026673000305891037
v -0.008751999586820602 0.035985998809337616 -0.012047000229358673
v 0 0.023814000189304352 0.021436000242829323
v -0.00735800014808774 0.0255769994109869 0.010127999819815159
v -0.00342399999499321 0.027341999113559723 0.0011119999689981341
v -0.00342399999499321 0.027341999113559723 -0.0011119999689981341
v 0.011013000272214413 0.023814000189304352 0.015158000402152538
v 0.01525100041180849 0.023814000189304352 0.004954999778419733
v -0.007934999652206898 0.025225000455975533 -0.01092199981212616
v 0.01525100041180849 0.023814000189304352 -0.004954999778419733
v 0.011590000241994858 0.02346000075340271 -0.015953000634908676
v 0 0.02310900017619133 -0.023399999365210533
v 0 0.018345000222325325 0.015545999631285667
v -0.00788700021803379 0.015434999950230122 0.010855999775230885
v -0.010738000273704529 0.012524000369012356 0.0034890000242739916
v -0.010738000273704529 0.012524000369012356 -0.0034890000242739916
v -0.008464000187814236 0.015170999802649021 -0.011649999767541885
v 0.008511999621987343 0.016493000090122223 0.01171599980443716
v 0.012760999612510204 0.01464099995791912 0.004145999904721975
v 0 0.017815999686717987 -0.01750900037586689
v 0.012760999612510204 0.01464099995791912 -0.004145999904721975
v 0.009088999591767788 0.016228999942541122 -0.012511000037193298
v 0 0.00864300038665533 0.013418000191450119
v -0.006924999877810478 0.007937000133097172 0.009530999697744846
v -0.009649000130593777 0.00723200011998415 0.0031349998898804188
v -0.009649000130593777 0.00723200011998415 -0.0031349998898804188
v -0.007550999987870455 0.007761000189930201 -0.01039199996739626
v 0 0.008290999568998814 -0.015545999631285667
v 0.006924999877810478 0.00873200036585331 0.009530999697744846
v 0.009649000130593777 0.008820000104606152 0.0031349998898804188
v 0.007550999987870455 0.008555999957025051 -0.01039199996739626
v 0.009649000130593777 0.008820000104606152 -0.0031349998898804188
v 0 0.0042329998686909676 0.008182000368833542
v -0.004424000158905983 0.003616000059992075 0.006089000031352043
v -0.006535999942570925 0.0029990000184625387 0.002124000107869506
v -0.006535999942570925 0.0029990000184625387 -0.002124000107869506
v -0.0050490000285208225 0.0030869999900460243 -0.006949999835342169
v 0 0.0031739999540150166 -0.010308999568223953
v 0.004616999998688698 0.00343999988399446 -0.00635500019416213
v 0.003990999888628721 0.003969000186771154 0.005495000164955854
v 0.005135000217705965 0.003705000039190054 0.0016690000193193555
v 0.005135000217705965 0.003705000039190054 -0.0016690000193193555
v 0 0 0
vn 0.1959179937839508 0.9806039929389954 -0.005723999813199043
vn -0.10461299866437912 0.9017289876937866 0.4194529950618744
vn 0.5638729929924011 0.8091570138931274 0.16526299715042114
vn 0.6416530013084412 0.7663900256156921 -0.03045099973678589
vn -0.7183570265769958 0.6889280080795288 0.0966539978981018
vn 0.598809003829956 0.800432026386261 0.027122000232338905
vn 0.5502719879150391 0.834892988204956 -0.012381999753415585
vn 0.22182099521160126 0.9601569771766663 -0.16998399794101715
vn -0.4298909902572632 0.8807809948921204 -0.19853900372982025
vn -0.7764340043067932 0.6301959753036499 0.001690999954007566
vn -0.8495519757270813 0.5272210240364075 -0.017305999994277954
vn -0.19757400453090668 0.6471740007400513 0.7362949848175049
vn -0.9649230241775513 0.24159599840641022 0.10273700207471848
vn 0.7141500115394592 0.5807939767837524 0.3907279968261719
vn 0.8028339743614197 0.5902400016784668 0.08410800248384476
vn -0.9893720149993896 -0.07304099947214127 -0.12572599947452545
vn 0.8079109787940979 0.5891069769859314 -0.015282000415027142
vn 0.6975269913673401 0.6773769855499268 -0.23370300233364105
vn -0.02446099929511547 0.836558997631073 -0.5473300218582153
vn -0.9132980108261108 0.3752889931201935 -0.15825699269771576
vn -0.9856389760971069 -0.016952000558376312 0.16801199316978455
vn -0.21044500172138214 0.040782999247312546 0.9767550230026245
vn -0.9981570243835449 0.017347000539302826 0.05816100165247917
vn -0.9780460000038147 -0.058563001453876495 -0.19998900592327118
vn 0.8119890093803406 0.05003499984741211 0.5815240144729614
vn 0.9805309772491455 0.11814200133085251 0.1568470001220703
vn -0.9673399925231934 -0.11572399735450745 0.22552399337291718
vn 0.9833629727363586 0.14833299815654755 -0.10485699772834778
vn 0.8343700170516968 0.1846189945936203 -0.5193679928779602
vn -0.20385099947452545 0.1727299988269806 -0.9636440277099609
vn -0.9979699850082397 -0.009351000189781189 -0.06299199908971786
vn -0.09425999969244003 -0.417620986700058 0.9037190079689026
vn -0.9732890129089355 0.04130600020289421 0.22583800554275513
vn -0.9509469866752625 0.23400400578975677 -0.2023400068283081
vn -0.9738280177116394 0.1893160045146942 0.12577100098133087
vn 0.7030280232429504 -0.3554939925670624 0.6159350275993347
vn 0.9598339796066284 -0.1782280057668686 0.21668599545955658
vn -0.9916769862174988 -0.08992800116539001 -0.0921349972486496
vn 0.9767029881477356 -0.16191700100898743 -0.1408350020647049
vn 0.7432770133018494 -0.3020339906215668 -0.5969200134277344
vn -0.28036201000213623 -0.4834100008010864 -0.8292840123176575
vn -0.007981999777257442 -0.4618319869041443 0.8869310021400452
vn -0.7652509808540344 -0.21856999397277832 0.6054909825325012
vn -0.9953920245170593 0.051006000488996506 0.08120100200176239
vn -0.9830390214920044 0.13460899889469147 -0.12456099689006805
vn -0.872340977191925 0.0029090000316500664 -0.48888900876045227
vn 0.6227160096168518 -0.357574999332428 0.6959630250930786
vn 0.9034479856491089 -0.35627099871635437 0.2384369969367981
vn -0.1439789980649948 -0.3689750134944916 -0.9182189702987671
vn 0.887365996837616 -0.41677600145339966 -0.19718100130558014
vn 0.6380149722099304 -0.4908919930458069 -0.5932639837265015
vn 0.041669998317956924 -0.5393099784851074 0.8410760164260864
vn -0.6106780171394348 -0.4612619876861572 0.6436690092086792
vn -0.8849279880523682 -0.4166260063648224 0.20814499258995056
vn -0.89860600233078 -0.41698700189590454 -0.13649100065231323
vn -0.7153540253639221 -0.4539400041103363 -0.5312309861183167
vn 0.012227999977767467 -0.5054879784584045 -0.8627470135688782
vn 0.6073430180549622 -0.5674980282783508 0.5559499859809875
vn 0.7978770136833191 -0.5842729806900024 0.14838099479675293
vn 0.7123739719390869 -0.4876669943332672 -0.5046820044517517
vn 0.8209130167961121 -0.5513299703598022 -0.1487870067358017
vn 0.1358110010623932 -0.8135989904403687 0.5653430223464966
vn -0.3071120083332062 -0.8041110038757324 0.5090060234069824
vn -0.5933020114898682 -0.7715680003166199 0.22951099276542664
vn -0.6552209854125977 -0.7513970136642456 -0.07801999896764755
vn -0.5201219916343689 -0.7890509963035583 -0.3269129991531372
vn -0.030765000730752945 -0.8418869972229004 -0.5387750267982483
vn 0.5682479739189148 -0.7559769749641418 -0.3249489963054657
vn 0.5150480270385742 -0.7735059857368469 0.36934199929237366
vn 0.6686149835586548 -0.7375680208206177 0.09458500146865845
vn 0.7032099962234497 -0.70899498462677 -0.053119998425245285
vn 0.0962430015206337 -0.9921910166740417 0.07933100312948227
f 1//1 2//2 3//3
f 1//1 3//3 4//4
f 1//1 5//5 2//2
f 1//1 4//4 6//6
f 1//1 6//6 7//7
f 1//1 7//7 8//8
f 1//1 8//8 9//9
f 1//1 9//9 10//10
f 1//1 10//10 11//11
f 1//1 11//11 5//5
f 2//2 12//12 3//3
f 13//13 12//12 2//2
f 5//5 13//13 2//2
f 12//12 14//14 3//3
f 3//3 14//14 4//4
f 14//14 15//15 4//4
f 4//4 15//15 6//6
f 16//16 13//13 5//5
f 11//11 16//16 5//5
f 15//15 17//17 6//6
f 6//6 17//17 7//7
f 17//17 18//18 7//7
f 7//7 18//18 8//8
f 18//18 19//19 8//8
f 8//8 19//19 9//9
f 19//19 20//20 9//9
f 9//9 20//20 10//10
f 20//20 21//21 10//10
f 10//10 21//21 11//11
f 21//21 16//16 11//11
f 12//12 22//22 14//14
f 23//23 22//22 12//12
f 13//13 23//23 12//12
f 24//24 23//23 13//13
f 16//16 24//24 13//13
f 22//22 25//25 14//14
f 14//14 25//25 15//15
f 25//25 26//26 15//15
f 15//15 26//26 17//17
f 27//27 24//24 16//16
f 21//21 27//27 16//16
f 26//26 28//28 17//17
f 17//17 28//28 18//18
f 28//28 29//29 18//18
f 18//18 29//29 19//19
f 29//29 30//30 19//19
f 19//19 30//30 20//20
f 30//30 31//31 20//20
f 20//20 31//31 21//21
f 31//31 27//27 21//21
f 22//22 32//32 25//25
f 33//33 32//32 22//22
f 23//23 33//33 22//22
f 34//34 33//33 23//23
f 24//24 34//34 23//23
f 35//35 34//34 24//24
f 27//27 35//35 24//24
f 32//32 36//36 25//25
f 25//25 36//36 26//26
f 36//36 37//37 26//26
f 26//26 37//37 28//28
f 38//38 35//35 27//27
f 31//31 38//38 27//27
f 37//37 39//39 28//28
f 28//28 39//39 29//29
f 39//39 40//40 29//29
f 29//29 40//40 30//30
f 40//40 41//41 30//30
f 30//30 41//41 31//31
f 41//41 38//38 31//31
f 32//32 42//42 36//36
f 43//43 42//42 32//32
f 33//33 43//43 32//32
f 44//44 43//43 33//33
f 34//34 44//44 33//33
f 45//45 44//44 34//34
f 35//35 45//45 34//34
f 46//46 45//45 35//35
f 38//38 46//46 35//35
f 42//42 47//47 36//36
f 36//36 47//47 37//37
f 47//47 48//48 37//37
f 37//37 48//48 39//39
f 49//49 46//46 38//38
f 41//41 49//49 38//38
f 48//48 50//50 39//39
f 39//39 50//50 40//40
f 50//50 51//51 40//40
f 40//40 51//51 41//41
f 51//51 49//49 41//41
f 42//42 52//52 47//47
f 53//53 52//52 42//42
f 43//43 53//53 42//42
f 54//54 53//53 43//43
f 44//44 54//54 43//43
f 55//55 54//54 44//44
f 45//45 55//55 44//44
f 56//56 55//55 45//45
f 46//46 56//56 45//45
f 57//57 56//56 46//46
f 49//49 57//57 46//46
f 52//52 58//58 47//47
f 47//47 58//58 48//48
f 58//58 59//59 48//48
f 48//48 59//59 50//50
f 60//60 57//57 49//49
f 51//51 60//60 49//49
f 59//59 61//61 50//50
f 50//50 61//61 51//51
f 61//61 60//60 51//51
f 52//52 62//62 58//58
f 63//63 62//62 52//52
f 53//53 63//63 52//52
f 64//64 63//63 53//53
f 54//54 64//64 53//53
f 65//65 64//64 54//54
f 55//55 65//65 54//54
f 66//66 65//65 55//55
f 56//56 66//66 55//55
f 67//67 66//66 56//56
f 57//57 67//67 56//56
f 68//68 67//67 57//57
f 60//60 68//68 57//57
f 62//62 69//69 58//58
f 58//58 69//69 59//59
f 69//69 70//70 59//59
f 59//59 70//70 61//61
f 71//71 68//68 60//60
f 61//61 71//71 60//60
f 70//70 71//71 61//61
f 62//62 72//72 69//69
f 63//63 72//72 62//62
f 64//64 72//72 63//63
f 65//65 72//72 64//64
f 66//66 72//72 65//65
f 67//67 72//72 66//66
f 68//68 72//72 67//67
f 71//71 72//72 68//68
f 69//69 72//72 70//70
f 70//70 72//72 71//71
