# Generated by Visualization Toolkit
v -0.10000000149011612 0.014999999664723873 0
v 0.10000000149011612 0.014999999664723873 0
v -0.10000000149011612 0.007499999832361937 -0.012990380637347698
v 0.10000000149011612 0.007499999832361937 -0.012990380637347698
v -0.10000000149011612 -0.007499999832361937 -0.012990380637347698
v 0.10000000149011612 -0.007499999832361937 -0.012990380637347698
v -0.10000000149011612 -0.014999999664723873 6.153102766887075e-12
v 0.10000000149011612 -0.014999999664723873 6.153102766887075e-12
v -0.10000000149011612 -0.007499999832361937 0.012990380637347698
v 0.10000000149011612 -0.007499999832361937 0.012990380637347698
v -0.10000000149011612 0.007499999832361937 0.012990380637347698
v 0.10000000149011612 0.007499999832361937 0.012990380637347698
v -0.10000000149011612 0.014999999664723873 0
v -0.10000000149011612 0.007499999832361937 -0.012990380637347698
v -0.10000000149011612 -0.007499999832361937 -0.012990380637347698
v -0.10000000149011612 -0.014999999664723873 6.153102766887075e-12
v -0.10000000149011612 -0.007499999832361937 0.012990380637347698
v -0.10000000149011612 0.007499999832361937 0.012990380637347698
v 0.10000000149011612 0.007499999832361937 0.012990380637347698
v 0.10000000149011612 -0.007499999832361937 0.012990380637347698
v 0.10000000149011612 -0.014999999664723873 6.153102766887075e-12
v 0.10000000149011612 -0.007499999832361937 -0.012990380637347698
v 0.10000000149011612 0.007499999832361937 -0.012990380637347698
v 0.10000000149011612 0.014999999664723873 0
v 0.014999999664723873 2.2204460823375376e-17 0.10000000149011612
v 0.014999999664723873 -2.2204460823375376e-17 -0.10000000149011612
v 0.007499999832361937 0.012990380637347698 0.10000000149011612
v 0.007499999832361937 0.012990380637347698 -0.10000000149011612
v -0.007499999832361937 0.012990380637347698 0.10000000149011612
v -0.007499999832361937 0.012990380637347698 -0.10000000149011612
v -0.014999999664723873 -6.1530806491627565e-12 0.10000000149011612
v -0.014999999664723873 -6.153124884611394e-12 -0.10000000149011612
v -0.007499999832361937 -0.012990380637347698 0.10000000149011612
v -0.007499999832361937 -0.012990380637347698 -0.10000000149011612
v 0.007499999832361937 -0.012990380637347698 0.10000000149011612
v 0.007499999832361937 -0.012990380637347698 -0.10000000149011612
v 0.014999999664723873 2.2204460823375376e-17 0.10000000149011612
v 0.007499999832361937 0.012990380637347698 0.10000000149011612
v -0.007499999832361937 0.012990380637347698 0.10000000149011612
v -0.014999999664723873 -6.1530806491627565e-12 0.10000000149011612
v -0.007499999832361937 -0.012990380637347698 0.10000000149011612
v 0.007499999832361937 -0.012990380637347698 0.10000000149011612
v 0.007499999832361937 -0.012990380637347698 -0.10000000149011612
v -0.007499999832361937 -0.012990380637347698 -0.10000000149011612
v -0.014999999664723873 -6.153124884611394e-12 -0.10000000149011612
v -0.007499999832361937 0.012990380637347698 -0.10000000149011612
v 0.007499999832361937 0.012990380637347698 -0.10000000149011612
v 0.014999999664723873 -2.2204460823375376e-17 -0.10000000149011612
v 0.019999999552965164 0.5 0
v 0.019999999552965164 0 0
v 0.009999999776482582 0.5 -0.017320508137345314
v 0.009999999776482582 0 -0.017320508137345314
v -0.009999999776482582 0.5 -0.017320508137345314
v -0.009999999776482582 0 -0.017320508137345314
v -0.019999999552965164 0.5 8.2041370225161e-12
v -0.019999999552965164 0 8.2041370225161e-12
v -0.009999999776482582 0.5 0.017320508137345314
v -0.009999999776482582 0 0.017320508137345314
v 0.009999999776482582 0.5 0.017320508137345314
v 0.009999999776482582 0 0.017320508137345314
v 0.019999999552965164 0.5 0
v 0.009999999776482582 0.5 -0.017320508137345314
v -0.009999999776482582 0.5 -0.017320508137345314
v -0.019999999552965164 0.5 8.2041370225161e-12
v -0.009999999776482582 0.5 0.017320508137345314
v 0.009999999776482582 0.5 0.017320508137345314
v 0.009999999776482582 0 0.017320508137345314
v -0.009999999776482582 0 0.017320508137345314
v -0.019999999552965164 0 8.2041370225161e-12
v -0.009999999776482582 0 -0.017320508137345314
v 0.009999999776482582 0 -0.017320508137345314
v 0.019999999552965164 0 0
v 0 0 0.07500000298023224
v 0 0 -0.07500000298023224
v 0.03254128247499466 0 0.06757266819477081
v 0.058637361973524094 0 0.046761732548475266
v 0.07311959564685822 0 0.01668906770646572
v 0.07311959564685822 0 -0.01668907329440117
v 0.058637358248233795 0 -0.04676173999905586
v 0.03254127502441406 0 -0.06757266819477081
v 0.02632644958794117 0.019127285107970238 0.06757266819477081
v 0.047438621520996094 0.034466177225112915 0.046761732548475266
v 0.059154994785785675 0.042978618294000626 0.01668906770646572
v 0.05915499106049538 0.042978618294000626 -0.01668907329440117
v 0.047438617795705795 0.03446617349982262 -0.04676173999905586
v 0.026326444000005722 0.01912728138267994 -0.06757266819477081
v 0.010055807419121265 0.030948597937822342 0.06757266819477081
v 0.018119938671588898 0.055767446756362915 0.046761732548475266
v 0.022595195099711418 0.06954086571931839 0.01668906770646572
v 0.022595195099711418 0.06954086571931839 -0.01668907329440117
v 0.018119938671588898 0.05576744303107262 -0.04676173999905586
v 0.01005580648779869 0.030948592349886894 -0.06757266819477081
v -0.01005581021308899 0.030948597937822342 0.06757266819477081
v -0.018119944259524345 0.05576744303107262 0.046761732548475266
v -0.022595200687646866 0.06954086571931839 0.01668906770646572
v -0.022595200687646866 0.06954086571931839 -0.01668907329440117
v -0.018119942396879196 0.05576743930578232 -0.04676173999905586
v -0.01005580835044384 0.030948592349886894 -0.06757266819477081
v -0.02632645145058632 0.01912728324532509 0.06757266819477081
v -0.04743862524628639 0.03446617349982262 0.046761732548475266
v -0.059154998511075974 0.04297861456871033 0.01668906770646572
v -0.059154994785785675 0.04297861456871033 -0.01668907329440117
v -0.047438621520996094 0.03446616977453232 -0.04676173999905586
v -0.02632644586265087 0.01912727952003479 -0.06757266819477081
v -0.03254128247499466 -2.8448492450650065e-9 0.06757266819477081
v -0.058637361973524094 -5.1262412092967224e-9 0.046761732548475266
v -0.07311959564685822 -6.392318230297178e-9 0.01668906770646572
v -0.07311959564685822 -6.392318230297178e-9 -0.01668907329440117
v -0.058637358248233795 -5.126240765207513e-9 -0.04676173999905586
v -0.03254127502441406 -2.8448488009757966e-9 -0.06757266819477081
v -0.02632644772529602 -0.019127288833260536 0.06757266819477081
v -0.047438617795705795 -0.034466180950403214 0.046761732548475266
v -0.05915499106049538 -0.04297862574458122 0.01668906770646572
v -0.05915498733520508 -0.04297862574458122 -0.01668907329440117
v -0.0474386140704155 -0.034466180950403214 -0.04676173999905586
v -0.026326442137360573 -0.019127285107970238 -0.06757266819477081
v -0.010055805556476116 -0.030948597937822342 0.06757266819477081
v -0.0181199349462986 -0.055767446756362915 0.046761732548475266
v -0.02259518951177597 -0.06954086571931839 0.01668906770646572
v -0.02259518764913082 -0.06954086571931839 -0.01668907329440117
v -0.01811993308365345 -0.05576744303107262 -0.04676173999905586
v -0.010055803693830967 -0.030948592349886894 -0.06757266819477081
v 0.010055813007056713 -0.030948596075177193 0.06757266819477081
v 0.018119949847459793 -0.05576744303107262 0.046761732548475266
v 0.022595206275582314 -0.06954086571931839 0.01668906770646572
v 0.022595206275582314 -0.06954085826873779 -0.01668907329440117
v 0.018119947984814644 -0.05576743930578232 -0.04676173999905586
v 0.010055811144411564 -0.030948590487241745 -0.06757266819477081
v 0.026326453313231468 -0.01912728138267994 0.06757266819477081
v 0.04743862897157669 -0.03446616977453232 0.046761732548475266
v 0.05915500223636627 -0.04297861084342003 0.01668906770646572
v 0.059154998511075974 -0.04297860711812973 -0.01668907329440117
v 0.04743862524628639 -0.03446616604924202 -0.04676173999905586
v 0.02632644772529602 -0.01912727765738964 -0.06757266819477081
vn 2.220446049250313e-16 1 0
vn 2.220446049250313e-16 1 0
vn 1.1102230246251565e-16 0.5 -0.8660253882408142
vn 1.1102230246251565e-16 0.5 -0.8660253882408142
vn -1.1102230246251565e-16 -0.5 -0.8660253882408142
vn -1.1102230246251565e-16 -0.5 -0.8660253882408142
vn -2.220446049250313e-16 -1 4.102068684730398e-10
vn -2.220446049250313e-16 -1 4.102068684730398e-10
vn -1.1102230246251565e-16 -0.5 0.8660253882408142
vn -1.1102230246251565e-16 -0.5 0.8660253882408142
vn 1.1102230246251565e-16 0.5 0.8660253882408142
vn 1.1102230246251565e-16 0.5 0.8660253882408142
vn -1 2.220446049250313e-16 0
vn -1 2.220446049250313e-16 0
vn -1 2.220446049250313e-16 0
vn -1 2.220446049250313e-16 0
vn -1 2.220446049250313e-16 0
vn -1 2.220446049250313e-16 0
vn 1 -2.220446049250313e-16 0
vn 1 -2.220446049250313e-16 0
vn 1 -2.220446049250313e-16 0
vn 1 -2.220446049250313e-16 0
vn 1 -2.220446049250313e-16 0
vn 1 -2.220446049250313e-16 0
vn 1 0 0
vn 1 0 0
vn 0.5 0.8660253882408142 -1.9229626518697845e-16
vn 0.5 0.8660253882408142 -1.9229626518697845e-16
vn -0.5 0.8660253882408142 -1.9229626518697845e-16
vn -0.5 0.8660253882408142 -1.9229626518697845e-16
vn -1 -4.102068684730398e-10 9.10842220476304e-26
vn -1 -4.102068684730398e-10 9.10842220476304e-26
vn -0.5 -0.8660253882408142 1.9229626518697845e-16
vn -0.5 -0.8660253882408142 1.9229626518697845e-16
vn 0.5 -0.8660253882408142 1.9229626518697845e-16
vn 0.5 -0.8660253882408142 1.9229626518697845e-16
vn 0 2.220446049250313e-16 1
vn 0 2.220446049250313e-16 1
vn 0 2.220446049250313e-16 1
vn 0 2.220446049250313e-16 1
vn 0 2.220446049250313e-16 1
vn 0 2.220446049250313e-16 1
vn 0 -2.220446049250313e-16 -1
vn 0 -2.220446049250313e-16 -1
vn 0 -2.220446049250313e-16 -1
vn 0 -2.220446049250313e-16 -1
vn 0 -2.220446049250313e-16 -1
vn 0 -2.220446049250313e-16 -1
vn 1 0 0
vn 1 0 0
vn 0.5 0 -0.8660253882408142
vn 0.5 0 -0.8660253882408142
vn -0.5 0 -0.8660253882408142
vn -0.5 0 -0.8660253882408142
vn -1 0 4.102068684730398e-10
vn -1 0 4.102068684730398e-10
vn -0.5 0 0.8660253882408142
vn -0.5 0 0.8660253882408142
vn 0.5 0 0.8660253882408142
vn 0.5 0 0.8660253882408142
vn 0 1 0
vn 0 1 0
vn 0 1 0
vn 0 1 0
vn 0 1 0
vn 0 1 0
vn 0 -1 0
vn 0 -1 0
vn 0 -1 0
vn 0 -1 0
vn 0 -1 0
vn 0 -1 0
vn 0 0 1
vn 0 0 -1
vn 0.43388375639915466 0 0.9009688496589661
vn 0.7818315029144287 0 0.6234897971153259
vn 0.9749279022216797 0 0.22252090275287628
vn 0.9749279022216797 0 -0.22252097725868225
vn 0.7818314433097839 0 -0.6234898567199707
vn 0.4338836669921875 0 -0.9009689092636108
vn 0.35101932287216187 0.25503048300743103 0.9009688496589661
vn 0.6325149536132812 0.45954903960227966 0.6234897971153259
vn 0.7887332439422607 0.5730482935905457 0.22252090275287628
vn 0.7887332439422607 0.5730482339859009 -0.22252097725868225
vn 0.6325148940086365 0.4595490097999573 -0.6234898567199707
vn 0.3510192632675171 0.25503042340278625 -0.9009689092636108
vn 0.13407744467258453 0.41264796257019043 0.9009688496589661
vn 0.2415991872549057 0.7435659766197205 0.6234897971153259
vn 0.3012692630290985 0.927211582660675 0.22252090275287628
vn 0.3012692630290985 0.9272115230560303 -0.22252097725868225
vn 0.2415991723537445 0.7435659170150757 -0.6234898567199707
vn 0.13407741487026215 0.41264790296554565 -0.9009689092636108
vn -0.13407747447490692 0.41264796257019043 0.9009688496589661
vn -0.24159926176071167 0.7435659170150757 0.6234897971153259
vn -0.3012693524360657 0.9272115230560303 0.22252090275287628
vn -0.3012693524360657 0.9272115230560303 -0.22252097725868225
vn -0.24159924685955048 0.7435658574104309 -0.6234898567199707
vn -0.13407744467258453 0.41264787316322327 -0.9009689092636108
vn -0.35101935267448425 0.25503045320510864 0.9009688496589661
vn -0.632515013217926 0.4595489799976349 0.6234897971153259
vn -0.7887333035469055 0.5730481743812561 0.22252090275287628
vn -0.7887333035469055 0.5730481743812561 -0.22252097725868225
vn -0.6325149536132812 0.4595489501953125 -0.6234898567199707
vn -0.3510192930698395 0.25503039360046387 -0.9009689092636108
vn -0.43388375639915466 -3.7931322083295527e-8 0.9009688496589661
vn -0.7818315029144287 -6.834988397486086e-8 0.6234897971153259
vn -0.9749279022216797 -8.523090855305782e-8 0.22252090275287628
vn -0.9749279022216797 -8.523090855305782e-8 -0.22252097725868225
vn -0.7818314433097839 -6.83498768694335e-8 -0.6234898567199707
vn -0.4338836669921875 -3.793131853058185e-8 -0.9009689092636108
vn -0.3510192930698395 -0.2550305128097534 0.9009688496589661
vn -0.6325148940086365 -0.45954909920692444 0.6234897971153259
vn -0.788733184337616 -0.5730483531951904 0.22252090275287628
vn -0.788733184337616 -0.5730483531951904 -0.22252097725868225
vn -0.6325148940086365 -0.45954906940460205 -0.6234898567199707
vn -0.3510192334651947 -0.25503045320510864 -0.9009689092636108
vn -0.13407739996910095 -0.4126479923725128 0.9009688496589661
vn -0.24159912765026093 -0.7435659766197205 0.6234897971153259
vn -0.30126917362213135 -0.927211582660675 0.22252090275287628
vn -0.30126917362213135 -0.927211582660675 -0.22252097725868225
vn -0.24159911274909973 -0.7435659170150757 -0.6234898567199707
vn -0.13407737016677856 -0.41264790296554565 -0.9009689092636108
vn 0.1340775042772293 -0.41264796257019043 0.9009688496589661
vn 0.24159932136535645 -0.7435659170150757 0.6234897971153259
vn 0.30126941204071045 -0.9272115230560303 0.22252090275287628
vn 0.30126941204071045 -0.9272114634513855 -0.22252097725868225
vn 0.24159930646419525 -0.7435658574104309 -0.6234898567199707
vn 0.13407748937606812 -0.41264787316322327 -0.9009689092636108
vn 0.35101938247680664 -0.25503042340278625 0.9009688496589661
vn 0.632515013217926 -0.4595489203929901 0.6234897971153259
vn 0.7887333631515503 -0.5730481147766113 0.22252090275287628
vn 0.7887333035469055 -0.5730481147766113 -0.22252097725868225
vn 0.632515013217926 -0.4595488905906677 -0.6234898567199707
vn 0.3510192930698395 -0.2550303637981415 -0.9009689092636108
f 1//1 2//2 4//4 3//3
f 3//3 4//4 6//6 5//5
f 5//5 6//6 8//8 7//7
f 7//7 8//8 10//10 9//9
f 9//9 10//10 12//12 11//11
f 11//11 12//12 2//2 1//1
f 13//13 14//14 15//15 16//16 17//17 18//18
f 19//19 20//20 21//21 22//22 23//23 24//24
f 25//25 26//26 28//28 27//27
f 27//27 28//28 30//30 29//29
f 29//29 30//30 32//32 31//31
f 31//31 32//32 34//34 33//33
f 33//33 34//34 36//36 35//35
f 35//35 36//36 26//26 25//25
f 37//37 38//38 39//39 40//40 41//41 42//42
f 43//43 44//44 45//45 46//46 47//47 48//48
f 49//49 50//50 52//52 51//51
f 51//51 52//52 54//54 53//53
f 53//53 54//54 56//56 55//55
f 55//55 56//56 58//58 57//57
f 57//57 58//58 60//60 59//59
f 59//59 60//60 50//50 49//49
f 61//61 62//62 63//63 64//64 65//65 66//66
f 67//67 68//68 69//69 70//70 71//71 72//72
f 75//75 81//81 73//73
f 81//81 87//87 73//73
f 87//87 93//93 73//73
f 93//93 99//99 73//73
f 99//99 105//105 73//73
f 105//105 111//111 73//73
f 111//111 117//117 73//73
f 117//117 123//123 73//73
f 123//123 129//129 73//73
f 129//129 75//75 73//73
f 80//80 74//74 86//86
f 86//86 74//74 92//92
f 92//92 74//74 98//98
f 98//98 74//74 104//104
f 104//104 74//74 110//110
f 110//110 74//74 116//116
f 116//116 74//74 122//122
f 122//122 74//74 128//128
f 128//128 74//74 134//134
f 134//134 74//74 80//80
f 75//75 76//76 82//82
f 75//75 82//82 81//81
f 76//76 77//77 83//83
f 76//76 83//83 82//82
f 77//77 78//78 84//84
f 77//77 84//84 83//83
f 78//78 79//79 85//85
f 78//78 85//85 84//84
f 79//79 80//80 86//86
f 79//79 86//86 85//85
f 81//81 82//82 88//88
f 81//81 88//88 87//87
f 82//82 83//83 89//89
f 82//82 89//89 88//88
f 83//83 84//84 90//90
f 83//83 90//90 89//89
f 84//84 85//85 91//91
f 84//84 91//91 90//90
f 85//85 86//86 92//92
f 85//85 92//92 91//91
f 87//87 88//88 94//94
f 87//87 94//94 93//93
f 88//88 89//89 95//95
f 88//88 95//95 94//94
f 89//89 90//90 96//96
f 89//89 96//96 95//95
f 90//90 91//91 97//97
f 90//90 97//97 96//96
f 91//91 92//92 98//98
f 91//91 98//98 97//97
f 93//93 94//94 100//100
f 93//93 100//100 99//99
f 94//94 95//95 101//101
f 94//94 101//101 100//100
f 95//95 96//96 102//102
f 95//95 102//102 101//101
f 96//96 97//97 103//103
f 96//96 103//103 102//102
f 97//97 98//98 104//104
f 97//97 104//104 103//103
f 99//99 100//100 106//106
f 99//99 106//106 105//105
f 100//100 101//101 107//107
f 100//100 107//107 106//106
f 101//101 102//102 108//108
f 101//101 108//108 107//107
f 102//102 103//103 109//109
f 102//102 109//109 108//108
f 103//103 104//104 110//110
f 103//103 110//110 109//109
f 105//105 106//106 112//112
f 105//105 112//112 111//111
f 106//106 107//107 113//113
f 106//106 113//113 112//112
f 107//107 108//108 114//114
f 107//107 114//114 113//113
f 108//108 109//109 115//115
f 108//108 115//115 114//114
f 109//109 110//110 116//116
f 109//109 116//116 115//115
f 111//111 112//112 118//118
f 111//111 118//118 117//117
f 112//112 113//113 119//119
f 112//112 119//119 118//118
f 113//113 114//114 120//120
f 113//113 120//120 119//119
f 114//114 115//115 121//121
f 114//114 121//121 120//120
f 115//115 116//116 122//122
f 115//115 122//122 121//121
f 117//117 118//118 124//124
f 117//117 124//124 123//123
f 118//118 119//119 125//125
f 118//118 125//125 124//124
f 119//119 120//120 126//126
f 119//119 126//126 125//125
f 120//120 121//121 127//127
f 120//120 127//127 126//126
f 121//121 122//122 128//128
f 121//121 128//128 127//127
f 123//123 124//124 130//130
f 123//123 130//130 129//129
f 124//124 125//125 131//131
f 124//124 131//131 130//130
f 125//125 126//126 132//132
f 125//125 132//132 131//131
f 126//126 127//127 133//133
f 126//126 133//133 132//132
f 127//127 128//128 134//134
f 127//127 134//134 133//133
f 129//129 130//130 76//76
f 129//129 76//76 75//75
f 130//130 131//131 77//77
f 130//130 77//77 76//76
f 131//131 132//132 78//78
f 131//131 78//78 77//77
f 132//132 133//133 79//79
f 132//132 79//79 78//78
f 133//133 134//134 80//80
f 133//133 80//80 79//79
