# Generated by Visualization Toolkit
v 0.006025000009685755 -0.011087000370025635 -0.02687700092792511
v 0.004025000147521496 -0.01082099974155426 -0.025805000215768814
v 0.006562999915331602 -0.008431999944150448 -0.02607399970293045
v 0.002976000076159835 -0.01278000045567751 -0.025374000892043114
v 0.008372999727725983 -0.009840999729931355 -0.026965999975800514
v 0.006856000050902367 -0.01329800020903349 -0.026955999433994293
v 0.0021609999239444733 -0.009758000262081623 -0.02531999908387661
v 0.007672000210732222 -0.006837000139057636 -0.02520499937236309
v 0.0014400000218302011 -0.00737700005993247 -0.023499000817537308
v 0.004647000227123499 -0.017994999885559082 -0.024423999711871147
v 0.0037150001153349876 -0.015197999775409698 -0.020397000014781952
v 0.005400999914854765 -0.018710000440478325 -0.024596000090241432
v 0.008917000144720078 -0.007861999794840813 -0.025655999779701233
v 0.00967899989336729 -0.013578999787569046 -0.026830999180674553
v 0.010479000397026539 -0.010565999895334244 -0.026050999760627747
v 0.008430000394582748 -0.0070489998906850815 -0.025186000391840935
v 0.006498999893665314 -0.005625999998301268 -0.022297000512480736
v 0.001766999950632453 -0.006393999792635441 -0.020584000274538994
v 0.005384999793022871 -0.018719999119639397 -0.022523999214172363
v 0.00595899997279048 -0.014569999650120735 -0.017626000568270683
v 0.003536999924108386 -0.009196000173687935 -0.018350999802350998
v 0.006031999830156565 -0.018177999183535576 -0.020312000066041946
v 0.007193999830633402 -0.019644999876618385 -0.023202000185847282
v 0.011129000224173069 -0.011699000373482704 -0.023586999624967575
v 0.012078000232577324 -0.014728999696671963 -0.024455999955534935
v 0.00911800004541874 -0.008541000075638294 -0.021619999781250954
v 0.007385999895632267 -0.00873200036585331 -0.01980300061404705
v 0.010037999600172043 -0.012272000312805176 -0.020016999915242195
v 0.006930999923497438 -0.01627100072801113 -0.018139999359846115
v 0.007782999891787767 -0.019070999696850777 -0.0209330003708601
v 0.010719000361859798 -0.0173179991543293 -0.021035000681877136
v 0.012292000465095043 -0.014973999932408333 -0.022050000727176666
v 0.011253000237047672 -0.012745999731123447 -0.021014999598264694
v 0.010497000068426132 -0.016840999945998192 -0.02025499939918518
vn -0.31237098574638367 0.12772899866104126 -0.9413340091705322
vn -0.34478700160980225 0.11059000343084335 -0.9321439862251282
vn -0.23959100246429443 0.4051640033721924 -0.8822910189628601
vn -0.6469380259513855 -0.2082670032978058 -0.7335500121116638
vn 0.11810500174760818 0.2789140045642853 -0.9530259966850281
vn -0.16281099617481232 -0.1639380007982254 -0.9729430079460144
vn -0.7036160230636597 0.005123999901115894 -0.710561990737915
vn 0.013609999790787697 0.7065100073814392 -0.7075729966163635
vn -0.6723340153694153 0.5573539733886719 -0.48715800046920776
vn -0.8353750109672546 -0.5135419964790344 -0.19601699709892273
vn -0.8934140205383301 -0.3515529930591583 0.2796800136566162
vn -0.34763699769973755 -0.6394240260124207 -0.685774028301239
vn 0.5865939855575562 0.5818549990653992 -0.5633410215377808
vn 0.3399850130081177 -0.2657890021800995 -0.9020900130271912
vn 0.7707200050354004 0.2999100089073181 -0.5621790289878845
vn 0.6569309830665588 0.727741003036499 -0.19706499576568604
vn 0.2520129978656769 0.9450330138206482 0.20833000540733337
vn -0.7663589715957642 0.4789780080318451 0.42810600996017456
vn -0.6450809836387634 -0.7455350160598755 0.16747500002384186
vn -0.1482750028371811 -0.1488019973039627 0.9776870012283325
vn -0.24636100232601166 0.30717599391937256 0.9192109704017639
vn -0.47626999020576477 -0.7098349928855896 0.5189409852027893
vn 0.13081899285316467 -0.9734500050544739 -0.1878329962491989
vn 0.90174400806427 0.431551992893219 0.0249170009046793
vn 0.8846840262413025 -0.24997499585151672 -0.3935050070285797
vn 0.7467389702796936 0.5464959740638733 0.3791080117225647
vn 0.4286850094795227 0.4557799994945526 0.7800610065460205
vn 0.5718749761581421 0.19709600508213043 0.7963119745254517
vn 0.15729600191116333 -0.42628800868988037 0.8908069729804993
vn 0.17970600724220276 -0.8351939916610718 0.5197659730911255
vn 0.6988509893417358 -0.6999449729919434 0.14725400507450104
vn 0.9664369821548462 -0.05873899906873703 0.25009700655937195
vn 0.8181480169296265 0.27818700671195984 0.5032359957695007
vn 0.6180610060691833 -0.2950420081615448 0.7286630272865295
f 1//1 2//2 3//3
f 1//1 4//4 2//2
f 3//3 5//5 1//1
f 1//1 6//6 4//4
f 1//1 5//5 6//6
f 7//7 2//2 4//4
f 3//3 2//2 7//7
f 8//8 3//3 9//9
f 7//7 9//9 3//3
f 5//5 3//3 8//8
f 10//10 11//11 4//4
f 12//12 10//10 4//4
f 12//12 4//4 6//6
f 11//11 7//7 4//4
f 8//8 13//13 5//5
f 14//14 6//6 5//5
f 15//15 14//14 5//5
f 15//15 5//5 13//13
f 6//6 14//14 12//12
f 9//9 7//7 11//11
f 13//13 8//8 16//16
f 8//8 9//9 17//17
f 17//17 16//16 8//8
f 18//18 17//17 9//9
f 11//11 18//18 9//9
f 10//10 12//12 19//19
f 10//10 19//19 11//11
f 11//11 20//20 21//21
f 19//19 22//22 11//11
f 11//11 22//22 20//20
f 21//21 18//18 11//11
f 12//12 14//14 23//23
f 12//12 23//23 19//19
f 13//13 24//24 15//15
f 16//16 24//24 13//13
f 14//14 25//25 23//23
f 15//15 25//25 14//14
f 25//25 15//15 24//24
f 26//26 24//24 16//16
f 16//16 17//17 26//26
f 18//18 21//21 17//17
f 27//27 17//17 21//21
f 26//26 17//17 27//27
f 19//19 23//23 22//22
f 27//27 20//20 28//28
f 21//21 20//20 27//27
f 20//20 29//29 28//28
f 22//22 29//29 20//20
f 23//23 30//30 22//22
f 22//22 30//30 29//29
f 23//23 31//31 30//30
f 23//23 25//25 31//31
f 25//25 24//24 32//32
f 33//33 32//32 24//24
f 33//33 24//24 26//26
f 32//32 31//31 25//25
f 27//27 28//28 26//26
f 33//33 26//26 28//28
f 34//34 28//28 29//29
f 33//33 28//28 34//34
f 30//30 34//34 29//29
f 34//34 30//30 31//31
f 32//32 34//34 31//31
f 32//32 33//33 34//34
