# Generated by Visualization Toolkit
v 0.02088399976491928 -0.00002300000051036477 -0.018417999148368835
v 0.021643999963998795 -0.000653000024612993 -0.018681000918149948
v 0.021138999611139297 -0.002865999937057495 -0.018303999677300453
v 0.01962199993431568 0.00026000000070780516 -0.017757000401616096
v 0.019706999883055687 -0.0006270000012591481 -0.02534100040793419
v 0.021616000682115555 -0.0005179999861866236 -0.020781999453902245
v 0.011754999868571758 0.0012610000558197498 -0.02126700058579445
v 0.017537999898195267 -0.0005460000247694552 -0.02526099979877472
v 0.021990999579429626 -0.002211000071838498 -0.02012299932539463
v 0.02167299948632717 -0.0025239998940378428 -0.019060999155044556
v 0.020796999335289 -0.003826000029221177 -0.018193000927567482
v 0.01904899999499321 -0.004381000064313412 -0.01758500002324581
v 0.01771700009703636 -0.003891000058501959 -0.017405999824404716
v 0.017470000311732292 -0.00008099999831756577 -0.017945000901818275
v 0.017167000100016594 0.0004579999949783087 -0.018378999084234238
v 0.0203660000115633 -0.0018420000560581684 -0.02644599974155426
v 0.021017000079154968 -0.002259999979287386 -0.023723000660538673
v 0.010950000025331974 0.00042600001324899495 -0.01773199997842312
v 0.004900000058114529 0.0020779999904334545 -0.02057100087404251
v 0.011068999767303467 -0.002483000047504902 -0.022811999544501305
v 0.01451599970459938 -0.003464000066742301 -0.02391899935901165
v 0.018180999904870987 -0.00254100002348423 -0.026465000584721565
v 0.02178799919784069 -0.0029090000316500664 -0.019797999411821365
v 0.020378999412059784 -0.004970999900251627 -0.01909100078046322
v 0.018456000834703445 -0.005388000048696995 -0.018303999677300453
v 0.017517000436782837 -0.005200000014156103 -0.01806499995291233
v 0.016301000490784645 -0.0012369999894872308 -0.017618000507354736
v 0.017023999243974686 -0.001091000041924417 -0.017777999863028526
v 0.016961000859737396 -0.004606999922543764 -0.01811799965798855
v 0.0157919991761446 -0.00023499999952036887 -0.017743999138474464
v 0.02032800018787384 -0.003576999995857477 -0.026288000866770744
v 0.020086999982595444 -0.005086999852210283 -0.024464000016450882
v 0.018502000719308853 -0.0061519998125731945 -0.02366200089454651
v 0.018888000398874283 -0.004488999955356121 -0.02257700078189373
v 0.020865000784397125 -0.004602999892085791 -0.020579999312758446
v 0.0029810001142323017 0.0015399999683722854 -0.016315000131726265
v 0.011061999946832657 -0.00032500000088475645 -0.017457999289035797
v 0.001184999942779541 0.002767999889329076 -0.016985999420285225
v 0.0007450000266544521 0.002919000107795 -0.018869999796152115
v -0.001534000039100647 -0.003837000112980604 -0.018011000007390976
v 0.015426999889314175 -0.004015000071376562 -0.022902000695466995
v 0.01822800002992153 -0.0045739999040961266 -0.022312000393867493
v -0.0028639999218285084 -0.004224999807775021 -0.014395000413060188
v 0.011225000023841858 -0.0015750000020489097 -0.01782899908721447
v 0.016498999670147896 -0.0033889999613165855 -0.02004300057888031
v 0.01629900000989437 -0.005392000079154968 -0.023079000413417816
v 0.014961999841034412 -0.004645000211894512 -0.023876000195741653
v 0.019764000549912453 -0.005330000072717667 -0.025616999715566635
v 0.018074000254273415 -0.006275999825447798 -0.024762999266386032
v 0.017045000568032265 -0.006132999900728464 -0.024397000670433044
v 0.019457999616861343 -0.005549000110477209 -0.01964399963617325
v 0.017726000398397446 -0.005390999838709831 -0.018962999805808067
v 0.015706000849604607 -0.0013780000153928995 -0.01802399940788746
v 0.016176000237464905 -0.002486000070348382 -0.018281999975442886
v 0.01752699911594391 -0.00610999995842576 -0.02338000014424324
v 0.018278000876307487 -0.004705999977886677 -0.021333999931812286
v -0.0025949999690055847 0.003476999932900071 -0.016651999205350876
v 0.0006639999919570982 -0.0013889999827370048 -0.015112999826669693
v -0.0033100000582635403 0.003648000070825219 -0.01801699958741665
v -0.0037070000544190407 0.0032339999452233315 -0.018580999225378036
v -0.006275999825447798 -0.0007960000075399876 -0.0193719994276762
v -0.006599000189453363 -0.003570999950170517 -0.01895900070667267
v -0.007350000087171793 -0.004885000176727772 -0.017983999103307724
v -0.005824000108987093 -0.004143999889492989 -0.01834299974143505
v -0.00841199979186058 -0.00570600014179945 -0.017472999170422554
v -0.005750999785959721 -0.005272999871522188 -0.014705999754369259
v -0.005803000181913376 0.000645000021904707 -0.0114120002835989
v -0.005758000072091818 -0.004052000120282173 -0.011649000458419323
v -0.0035149999894201756 0.0005159999709576368 -0.01368900015950203
v -0.005421999841928482 -0.005018000025302172 -0.012666000053286552
v -0.005210000090301037 -0.004271000158041716 -0.012306000106036663
v -0.005164000205695629 0.004648999776691198 -0.01607399992644787
v -0.006016000173985958 0.004966000095009804 -0.016068000346422195
v -0.007255000062286854 0.004459000192582607 -0.018549000844359398
v -0.007753999903798103 0.003957999870181084 -0.019363999366760254
v -0.007776999846100807 0.0006270000012591481 -0.020323000848293304
v -0.007521000225096941 -0.0037690000608563423 -0.01948300004005432
v -0.007691999897360802 -0.004743000026792288 -0.018605999648571014
v -0.008159000426530838 -0.004939999897032976 -0.018208999186754227
v -0.009824000298976898 -0.005016000010073185 -0.01875399984419346
v -0.010381000116467476 -0.005179000087082386 -0.016390999779105186
v -0.010162999853491783 -0.005423000082373619 -0.017199000343680382
v -0.010400000028312206 -0.005357999820262194 -0.017893999814987183
v -0.007962999865412712 -0.005626999773085117 -0.014070999808609486
v -0.007801000028848648 -0.004910999909043312 -0.013036999851465225
v -0.00814600009471178 -0.003650000086054206 -0.01129399985074997
v -0.005594000220298767 0.0028409999795258045 -0.012281999923288822
v -0.00646300008520484 0.002457000082358718 -0.012357000261545181
v -0.006984999869018793 -0.004652000032365322 -0.012303999625146389
v -0.00836899969726801 -0.004621999803930521 -0.012268999591469765
v -0.005386000033468008 0.004459999967366457 -0.014189999550580978
v -0.00623599998652935 0.004335000179708004 -0.01385900005698204
v -0.00979200005531311 -0.0012919999426230788 -0.0196090005338192
v -0.008585999719798565 0.0027650000993162394 -0.020062999799847603
v -0.008906000293791294 0.0019910000264644623 -0.020238999277353287
v -0.00949500035494566 -0.0040699997916817665 -0.01945500075817108
v -0.010619999840855598 -0.00394799979403615 -0.019047999754548073
v -0.01056700013577938 -0.004757999908179045 -0.01851700060069561
v -0.010827000252902508 -0.0047519998624920845 -0.016933999955654144
v -0.010463999584317207 -0.004728000145405531 -0.014267000369727612
v -0.009699000045657158 -0.004939999897032976 -0.01331700012087822
v -0.00841199979186058 -0.0055160000920295715 -0.013199999928474426
v -0.00939099956303835 -0.004662000108510256 -0.012745999731123447
vn 0.39257699251174927 0.885250985622406 0.24942700564861298
vn 0.8844349980354309 0.2124119997024536 0.41551899909973145
vn 0.5039520263671875 -0.008762000128626823 0.8636869788169861
vn 0.14131499826908112 0.5742530226707458 0.8063889741897583
vn 0.26557600498199463 0.8996220231056213 -0.34662699699401855
vn 0.8413029909133911 0.515067994594574 -0.1640540063381195
vn 0.010346000082790852 0.9758239984512329 -0.21831199526786804
vn -0.21760199964046478 0.6302880048751831 -0.7452419996261597
vn 0.9985830187797546 -0.05313999950885773 0.003034000052139163
vn 0.9015309810638428 -0.2476540058851242 0.35483700037002563
vn 0.6328049898147583 -0.45093899965286255 0.6294530034065247
vn 0.2156910002231598 -0.339946985244751 0.9153760075569153
vn -0.0613120011985302 -0.05725099891424179 0.9964749813079834
vn -0.18863600492477417 0.3105260133743286 0.931659996509552
vn -0.05426200106739998 0.7044280171394348 0.7076990008354187
vn 0.5553929805755615 0.3768230080604553 -0.7413120269775391
vn 0.9453070163726807 -0.31522899866104126 -0.08381800353527069
vn 0.12464500218629837 0.7752739787101746 0.6192049980163574
vn 0.1274539977312088 0.9605550169944763 -0.24716299772262573
vn -0.3630419969558716 -0.7477350234985352 -0.555961012840271
vn -0.8041880130767822 -0.4386279881000519 -0.4011079967021942
vn -0.31459400057792664 -0.1376889944076538 -0.9391869902610779
vn 0.9186009764671326 -0.3913609981536865 0.05485900118947029
vn 0.6781299710273743 -0.6734480261802673 0.2942909896373749
vn 0.18499299883842468 -0.8608779907226562 0.47398999333381653
vn -0.3037939965724945 -0.7192429900169373 0.6248189806938171
vn -0.36327698826789856 -0.11709100008010864 0.9242939949035645
vn 0.031106999143958092 0.2527509927749634 0.9670310020446777
vn -0.800242006778717 -0.4600360095500946 0.3846819996833801
vn 0.02214300073683262 0.12237299978733063 0.9922369718551636
vn 0.7184709906578064 -0.28689301013946533 -0.633633017539978
vn 0.8473830223083496 -0.5177590250968933 0.11776100099086761
vn 0.4074940085411072 -0.8464239835739136 0.34280601143836975
vn 0.39323800802230835 -0.8886340260505676 0.23599599301815033
vn 0.5609279870986938 -0.7913579940795898 -0.24313199520111084
vn 0.23519599437713623 0.6281139850616455 0.7417250275611877
vn 0.1753779947757721 0.07025499641895294 0.9819909930229187
vn 0.2755880057811737 0.9166190028190613 0.289588987827301
vn -0.005903000012040138 0.6526780128479004 -0.7576119899749756
vn 0.1297989934682846 -0.6863579750061035 -0.7155879735946655
vn -0.4697740077972412 -0.7410560250282288 0.4797379970550537
vn -0.18920600414276123 -0.8369839787483215 0.5134770274162292
vn 0.4852539896965027 -0.5855370163917542 0.6493650078773499
vn 0.048020001500844955 -0.6312260031700134 0.7741109728813171
vn -0.5904480218887329 -0.8057659864425659 0.04596100002527237
vn -0.5021799802780151 -0.6003659963607788 0.6223949790000916
vn -0.7713419795036316 -0.580070972442627 -0.261819988489151
vn 0.422450989484787 -0.7295979857444763 -0.5377939939498901
vn -0.06706400215625763 -0.8432040214538574 -0.5333939790725708
vn -0.3903160095214844 -0.8921359777450562 -0.2274779975414276
vn 0.17549599707126617 -0.979282021522522 -0.10103800147771835
vn -0.4818049967288971 -0.8691179752349854 -0.11179599910974503
vn -0.23141199350357056 -0.2597169876098633 0.9375470280647278
vn -0.5398679971694946 -0.4979409873485565 0.6786730289459229
vn -0.005547999870032072 -0.8120909929275513 0.5835040211677551
vn -0.21952100098133087 -0.9339960217475891 -0.28189000487327576
vn 0.3117949962615967 0.8131489753723145 0.49149999022483826
vn 0.2580299973487854 0.20595300197601318 0.9439299702644348
vn 0.2458599954843521 0.9170439839363098 -0.31398099660873413
vn 0.14153699576854706 0.5442389845848083 -0.8269039988517761
vn 0.31212499737739563 -0.02741900086402893 -0.9496449828147888
vn 0.32452601194381714 -0.44871199131011963 -0.8326709866523743
vn 0.19135400652885437 -0.7753490209579468 -0.6018450260162354
vn 0.21059300005435944 -0.6771690249443054 -0.7050480246543884
vn 0.051222000271081924 -0.9575260281562805 -0.2837600111961365
vn 0.223471999168396 -0.9683489799499512 0.11117900162935257
vn 0.2964960038661957 0.1496880054473877 0.9432299733161926
vn 0.29846900701522827 -0.5393159985542297 0.787434995174408
vn 0.6619359850883484 0.32330599427223206 0.6762499809265137
vn 0.19154399633407593 -0.8501409888267517 0.4904809892177582
vn 0.3869270086288452 -0.6042100191116333 0.6965759992599487
vn 0.5274180173873901 0.833594024181366 0.16416700184345245
vn -0.49310800433158875 0.8578529953956604 0.144678995013237
vn -0.058462001383304596 0.906728982925415 -0.4176430106163025
vn -0.3528420031070709 0.6864240169525146 -0.6358649730682373
vn 0.21870900690555573 0.02898300066590309 -0.9753599762916565
vn 0.2437949925661087 -0.3402079939842224 -0.9081969857215881
vn 0.21856699883937836 -0.7812359929084778 -0.584721028804779
vn 0.16794300079345703 -0.792119026184082 -0.5868070125579834
vn -0.13286200165748596 -0.704459011554718 -0.6971979737281799
vn -0.4509409964084625 -0.882889986038208 0.13098600506782532
vn -0.6290310025215149 -0.7697460055351257 0.10867399722337723
vn -0.523410975933075 -0.8225489854812622 -0.22238600254058838
vn -0.04567300155758858 -0.9831179976463318 0.17717799544334412
vn 0.20566600561141968 -0.8799300193786621 0.4282819926738739
vn -0.3562749922275543 -0.19824199378490448 0.9131090044975281
vn 0.24500299990177155 0.5553200244903564 0.7947279810905457
vn -0.7554479837417603 0.3909370005130768 0.5257999897003174
vn 0.03486499935388565 -0.8130069971084595 0.5812100172042847
vn -0.02391199953854084 -0.7616710066795349 0.64752197265625
vn 0.48070698976516724 0.7931870222091675 0.373865008354187
vn -0.39495301246643066 0.768913984298706 0.502776026725769
vn -0.9377279877662659 0.26996099948883057 -0.21860499680042267
vn -0.632070004940033 0.5317869782447815 -0.5636389851570129
vn -0.5108659863471985 0.17750400304794312 -0.8411350250244141
vn -0.07533899694681168 -0.5070620179176331 -0.858610987663269
vn -0.6698690056800842 -0.26979100704193115 -0.6917279958724976
vn -0.9448130130767822 -0.2926560044288635 -0.1472409963607788
vn -0.9388949871063232 -0.34415900707244873 -0.005437000188976526
vn -0.8918949961662292 -0.3134920001029968 0.32595399022102356
vn -0.5252839922904968 -0.7945690155029297 0.30452701449394226
vn 0.0009980000322684646 -0.8647649884223938 0.5021770000457764
vn -0.6484609842300415 -0.33671000599861145 0.6827329993247986
f 3//3 2//2 1//1
f 1//1 4//4 3//3
f 1//1 6//6 5//5
f 6//6 1//1 2//2
f 1//1 7//7 4//4
f 1//1 5//5 8//8
f 1//1 8//8 7//7
f 2//2 10//10 9//9
f 2//2 3//3 10//10
f 6//6 2//2 9//9
f 3//3 12//12 11//11
f 3//3 11//11 10//10
f 3//3 13//13 12//12
f 3//3 4//4 13//13
f 4//4 14//14 13//13
f 4//4 15//15 14//14
f 15//15 4//4 7//7
f 6//6 16//16 5//5
f 5//5 16//16 8//8
f 6//6 9//9 17//17
f 6//6 17//17 16//16
f 18//18 15//15 7//7
f 7//7 19//19 18//18
f 19//19 7//7 20//20
f 20//20 7//7 8//8
f 8//8 22//22 21//21
f 8//8 21//21 20//20
f 8//8 16//16 22//22
f 17//17 9//9 23//23
f 23//23 9//9 10//10
f 11//11 24//24 10//10
f 23//23 10//10 24//24
f 25//25 24//24 11//11
f 11//11 12//12 25//25
f 26//26 12//12 13//13
f 26//26 25//25 12//12
f 28//28 27//27 13//13
f 28//28 13//13 14//14
f 27//27 29//29 13//13
f 29//29 26//26 13//13
f 14//14 15//15 28//28
f 30//30 15//15 18//18
f 30//30 28//28 15//15
f 16//16 31//31 22//22
f 16//16 17//17 31//31
f 17//17 33//33 32//32
f 17//17 34//34 33//33
f 35//35 34//34 17//17
f 35//35 17//17 23//23
f 31//31 17//17 32//32
f 19//19 36//36 18//18
f 37//37 30//30 18//18
f 36//36 37//37 18//18
f 38//38 36//36 19//19
f 39//39 38//38 19//19
f 19//19 20//20 39//39
f 39//39 20//20 40//40
f 41//41 20//20 21//21
f 42//42 20//20 41//41
f 43//43 40//40 20//20
f 44//44 43//43 20//20
f 45//45 20//20 42//42
f 45//45 44//44 20//20
f 21//21 46//46 41//41
f 47//47 46//46 21//21
f 47//47 21//21 22//22
f 22//22 31//31 48//48
f 22//22 48//48 49//49
f 47//47 22//22 50//50
f 22//22 49//49 50//50
f 35//35 23//23 24//24
f 24//24 51//51 35//35
f 51//51 24//24 25//25
f 52//52 25//25 26//26
f 52//52 51//51 25//25
f 26//26 29//29 52//52
f 30//30 53//53 27//27
f 30//30 27//27 28//28
f 27//27 53//53 54//54
f 27//27 54//54 29//29
f 45//45 29//29 54//54
f 29//29 45//45 52//52
f 30//30 37//37 44//44
f 53//53 30//30 44//44
f 48//48 31//31 32//32
f 32//32 33//33 48//48
f 33//33 50//50 49//49
f 33//33 55//55 50//50
f 33//33 49//49 48//48
f 55//55 33//33 34//34
f 42//42 55//55 34//34
f 34//34 56//56 42//42
f 56//56 34//34 35//35
f 51//51 56//56 35//35
f 58//58 36//36 57//57
f 57//57 36//36 38//38
f 36//36 58//58 37//37
f 44//44 37//37 43//43
f 43//43 37//37 58//58
f 38//38 39//39 57//57
f 57//57 39//39 59//59
f 60//60 59//59 39//39
f 61//61 60//60 39//39
f 40//40 61//61 39//39
f 61//61 40//40 62//62
f 64//64 40//40 63//63
f 64//64 62//62 40//40
f 65//65 63//63 40//40
f 65//65 40//40 66//66
f 66//66 40//40 43//43
f 42//42 41//41 46//46
f 46//46 55//55 42//42
f 42//42 56//56 45//45
f 68//68 43//43 67//67
f 69//69 67//67 43//43
f 66//66 43//43 70//70
f 70//70 43//43 71//71
f 43//43 58//58 69//69
f 71//71 43//43 68//68
f 44//44 45//45 54//54
f 53//53 44//44 54//54
f 56//56 52//52 45//45
f 50//50 55//55 46//46
f 46//46 47//47 50//50
f 52//52 56//56 51//51
f 72//72 69//69 57//57
f 72//72 57//57 59//59
f 57//57 69//69 58//58
f 73//73 72//72 59//59
f 60//60 74//74 59//59
f 59//59 74//74 73//73
f 74//74 60//60 75//75
f 61//61 75//75 60//60
f 76//76 75//75 61//61
f 61//61 62//62 77//77
f 61//61 77//77 76//76
f 62//62 78//78 77//77
f 62//62 64//64 78//78
f 64//64 63//63 78//78
f 63//63 65//65 79//79
f 78//78 63//63 79//79
f 65//65 80//80 79//79
f 82//82 65//65 81//81
f 83//83 65//65 82//82
f 83//83 80//80 65//65
f 65//65 66//66 84//84
f 81//81 65//65 84//84
f 85//85 66//66 70//70
f 85//85 84//84 66//66
f 67//67 86//86 68//68
f 88//88 67//67 87//87
f 88//88 86//86 67//67
f 87//87 67//67 69//69
f 89//89 71//71 68//68
f 68//68 90//90 89//89
f 68//68 86//86 90//90
f 72//72 91//91 69//69
f 91//91 87//87 69//69
f 70//70 89//89 85//85
f 89//89 70//70 71//71
f 72//72 73//73 91//91
f 91//91 73//73 92//92
f 74//74 75//75 73//73
f 92//92 73//73 88//88
f 88//88 73//73 93//93
f 93//93 73//73 75//75
f 76//76 94//94 75//75
f 93//93 75//75 94//94
f 76//76 95//95 94//94
f 76//76 93//93 95//95
f 77//77 93//93 76//76
f 96//96 93//93 77//77
f 77//77 78//78 96//96
f 78//78 79//79 96//96
f 79//79 80//80 96//96
f 98//98 97//97 80//80
f 98//98 80//80 83//83
f 97//97 96//96 80//80
f 81//81 99//99 82//82
f 84//84 100//100 81//81
f 81//81 100//100 99//99
f 98//98 82//82 99//99
f 98//98 83//83 82//82
f 84//84 102//102 101//101
f 102//102 84//84 85//85
f 101//101 100//100 84//84
f 85//85 89//89 90//90
f 90//90 102//102 85//85
f 86//86 103//103 90//90
f 88//88 103//103 86//86
f 88//88 87//87 92//92
f 87//87 91//91 92//92
f 103//103 88//88 100//100
f 93//93 100//100 88//88
f 103//103 102//102 90//90
f 95//95 93//93 94//94
f 93//93 96//96 97//97
f 93//93 97//97 98//98
f 98//98 99//99 93//93
f 93//93 99//99 100//100
f 100//100 101//101 103//103
f 102//102 103//103 101//101
