# Generated by Visualization Toolkit
v -0.017121000215411186 0.0038300000596791506 -0.02895900048315525
v -0.014654000289738178 0.0015849999617785215 -0.02837499976158142
v -0.016806000843644142 0.0005409999866969883 -0.026926999911665916
v -0.016405999660491943 0.004652999807149172 -0.03121500089764595
v -0.018974000588059425 0.006238999776542187 -0.03101000003516674
v -0.019435999915003777 0.0064929998479783535 -0.02879899926483631
v -0.019067000597715378 0.00495600001886487 -0.02645700052380562
v -0.019121000543236732 0.005903999786823988 -0.027652999386191368
v -0.011225000023841858 0.0013849999522790313 -0.029249999672174454
v -0.0068720001727342606 0.00216599996201694 -0.0314750000834465
v -0.013113999739289284 -0.001366000040434301 -0.0281009990721941
v -0.016462000086903572 -0.003317000111564994 -0.026822999119758606
v -0.018712999299168587 -0.0005849999724887311 -0.024209000170230865
v -0.01547400001436472 0.00381199992261827 -0.03292800113558769
v -0.011339000426232815 0.002529999939724803 -0.034306999295949936
v -0.019241999834775925 0.005055000074207783 -0.03305299952626228
v -0.019780000671744347 0.006604999769479036 -0.031120000407099724
v -0.019770000129938126 0.005551000125706196 -0.027567999437451363
v -0.020975999534130096 0.005396000109612942 -0.03365200012922287
v -0.021344000473618507 -0.0016830000095069408 -0.023938000202178955
v -0.01968199945986271 0.00456500006839633 -0.02656799927353859
v -0.011235999874770641 -0.001155999954789877 -0.02869899943470955
v -0.0036989999935030937 0.0014959999825805426 -0.03522700071334839
v -0.002824000082910061 0.00009999999747378752 -0.031362999230623245
v 0.0003980000037699938 0.0008609999786131084 -0.03437900170683861
v -0.01337399985641241 -0.0021100000012665987 -0.02826800011098385
v -0.019965000450611115 -0.004470000043511391 -0.026791999116539955
v -0.0179820004850626 -0.004435999784618616 -0.03010600060224533
v -0.018933000043034554 -0.003647000063210726 -0.0248819999396801
v -0.018672000616788864 -0.0027719999197870493 -0.024687999859452248
v -0.019153999164700508 -0.002343999920412898 -0.024080000817775726
v -0.017559999600052834 0.003926999866962433 -0.033225998282432556
v -0.016196999698877335 0.002449000021442771 -0.03337400034070015
v -0.01753699965775013 -0.0037320000119507313 -0.03144599869847298
v -0.012136000208556652 -0.0026110000908374786 -0.03300999850034714
v -0.0018840000266209245 -0.003860000055283308 -0.0365619994699955
v -0.01674799993634224 0.000012000000424450263 -0.03284600004553795
v -0.021712999790906906 0.003848999971523881 -0.03478199988603592
v -0.02011599950492382 0.0020200000144541264 -0.03392399847507477
v -0.023065000772476196 -0.0016250000335276127 -0.03366699814796448
v -0.019460000097751617 -0.0028689999599009752 -0.02442999929189682
v -0.021795999258756638 -0.004145999904721975 -0.02546600066125393
v -0.022950999438762665 -0.0034799999557435513 -0.025814000517129898
v -0.01209499966353178 -0.002776999957859516 -0.0316229984164238
v -0.0009389999904669821 -0.0013760000001639128 -0.031683001667261124
v 0.003082999959588051 -0.001883000019006431 -0.038809001445770264
v 0.00008299999899463728 -0.0012039999710395932 -0.03820300102233887
v 0.00164899998344481 0.000058000001445179805 -0.031870998442173004
v 0.006155999843031168 0.0004459999909158796 -0.03263000026345253
v 0.005805999971926212 0.00010900000052060932 -0.03529899939894676
v -0.02198999933898449 -0.0054709999822080135 -0.029908999800682068
v -0.01947999931871891 -0.0041669998317956924 -0.031112000346183777
v -0.020215999335050583 -0.0036849998869001865 -0.031943000853061676
v -0.02096099965274334 -0.004794000182300806 -0.03060699999332428
v 0.003625999903306365 -0.005568999797105789 -0.035078998655080795
v 0.00043799998820759356 -0.005253000184893608 -0.036100998520851135
v -0.0004990000161342323 -0.004794999957084656 -0.03689900040626526
v 0.002177000045776367 -0.004114000126719475 -0.03409099951386452
v -0.021425999701023102 -0.0023980000987648964 -0.03349899873137474
v -0.02233099937438965 0.0021440000273287296 -0.03486299887299538
v -0.021831000223755836 0.0015529999509453773 -0.03478600084781647
v -0.023972000926733017 -0.004602999892085791 -0.03137600049376488
v -0.02298000082373619 -0.004191000014543533 -0.03248099982738495
v -0.02382900007069111 -0.0050860000774264336 -0.0305550005286932
v 0.002094999887049198 -0.0024399999529123306 -0.03179199993610382
v 0.0016090000281110406 -0.0012069999938830733 -0.03182400017976761
v 0.007457000203430653 -0.000986000057309866 -0.03538300096988678
v 0.0064849997870624065 -0.0032629999332129955 -0.03911599889397621
v 0.0027779999654740095 -0.0031709999311715364 -0.03879600018262863
v 0.00216599996201694 -0.0009889999637380242 -0.03152500092983246
v 0.006744000129401684 -0.0038999998942017555 -0.031605999916791916
v 0.007544999942183495 -0.0006419999990612268 -0.032924000173807144
v 0.003470000112429261 -0.005284999962896109 -0.030928000807762146
v -0.021734999492764473 -0.004867999814450741 -0.03087100014090538
v -0.023313000798225403 -0.004989000037312508 -0.03151499852538109
v -0.02112000063061714 -0.0039900001138448715 -0.03248700127005577
v 0.005036999937146902 -0.0053369998931884766 -0.03556099906563759
v 0.0015770000172778964 -0.0072200000286102295 -0.03578300029039383
v 0.005359000060707331 -0.005979000125080347 -0.03229999914765358
v -0.00013699999544769526 -0.006053000222891569 -0.0365619994699955
v 0.0008370000286959112 -0.007319000083953142 -0.03640099987387657
v 0.006812999956309795 -0.004863000009208918 -0.038458000868558884
v 0.007395000196993351 -0.0030580000020563602 -0.0363209992647171
v 0.008042999543249607 -0.002520000096410513 -0.03367700055241585
v 0.0029700000304728746 -0.007879000157117844 -0.03670499846339226
v 0.0063299997709691525 -0.005919999908655882 -0.03800100088119507
v 0.00433199992403388 -0.0074720000848174095 -0.03713500127196312
v 0.006357999984174967 -0.005255000200122595 -0.031991999596357346
v 0.005437000188976526 -0.0056039998307824135 -0.03149000182747841
v 0.007660999894142151 -0.003868000116199255 -0.03338199853897095
v 0.006215000059455633 -0.004470000043511391 -0.036139000207185745
v 0.003541999962180853 -0.007569999899715185 -0.035937998443841934
v 0.00747800013050437 -0.003938000183552504 -0.03432599827647209
v 0.0068350001238286495 -0.0051460000686347485 -0.03339599817991257
v 0.005799999926239252 -0.006448000203818083 -0.03673499822616577
vn 0.664680004119873 0.6259989738464355 0.40783101320266724
vn 0.34594500064849854 0.48360198736190796 0.8040220141410828
vn 0.6581659913063049 0.28175899386405945 0.6981610059738159
vn 0.40076300501823425 0.9050279855728149 0.14252500236034393
vn 0.5162280201911926 0.8486229777336121 -0.11552999913692474
vn -0.0311840008944273 0.969989001750946 0.24114100635051727
vn 0.2730560004711151 0.558184027671814 0.783499002456665
vn 0.09378600120544434 0.8227239847183228 0.5606499910354614
vn 0.3005309998989105 0.34425899386405945 0.8894749879837036
vn 0.2803019881248474 0.8331400156021118 0.47676900029182434
vn 0.3330000042915344 -0.006486999802291393 0.9429050087928772
vn 0.5843409895896912 -0.43174898624420166 0.6871230006217957
vn 0.5396109819412231 0.09791799634695053 0.836201012134552
vn 0.20361599326133728 0.6714180111885071 -0.7125579714775085
vn -0.08715199679136276 0.37371501326560974 -0.9234399795532227
vn 0.3326460123062134 0.5336719751358032 -0.7775220274925232
vn 0.10420800000429153 0.9522479772567749 -0.28699299693107605
vn -0.6907899975776672 0.5804600119590759 0.4311330020427704
vn -0.7952560186386108 0.5997769832611084 -0.08851800113916397
vn -0.38309401273727417 -0.1357640027999878 0.913677990436554
vn -0.7503439784049988 0.45783498883247375 0.4768329858779907
vn 0.3368160128593445 -0.2989799976348877 0.8928419947624207
vn -0.033587999641895294 0.7945730090141296 -0.6062380075454712
vn 0.22698399424552917 0.5054119825363159 0.832489013671875
vn 0.1406009942293167 0.9900050163269043 0.01105900015681982
vn 0.4391289949417114 -0.72257000207901 0.533909022808075
vn 0.1696300059556961 -0.910082995891571 0.37811899185180664
vn 0.267316997051239 -0.9380180239677429 -0.22059699892997742
vn 0.16102999448776245 -0.6606289744377136 0.7332389950752258
vn 0.5486829876899719 -0.32454100251197815 0.77046799659729
vn 0.2830770015716553 -0.34443899989128113 0.895114004611969
vn 0.08243300020694733 0.14033399522304535 -0.9866669774055481
vn -0.12441200017929077 0.08093400299549103 -0.9889240264892578
vn 0.03941800072789192 -0.6952250003814697 -0.717710018157959
vn -0.176596000790596 -0.7316269874572754 -0.6584349870681763
vn -0.46083399653434753 -0.880698025226593 -0.10955899953842163
vn 0.07502900063991547 -0.26180499792099 -0.9621999859809875
vn -0.092739999294281 0.33914700150489807 -0.9361510276794434
vn 0.3528119921684265 -0.01681400090456009 -0.9355430006980896
vn -0.9654099941253662 0.16239699721336365 -0.20398999750614166
vn 0.10166899859905243 -0.5250040292739868 0.8450049757957458
vn -0.1899300068616867 -0.8098589777946472 0.5550270080566406
vn -0.9207159876823425 -0.054482001811265945 0.38641101121902466
vn 0.1876019984483719 -0.9791979789733887 0.07730799913406372
vn 0.0007590000168420374 -0.3954229950904846 0.9184989929199219
vn 0.10935799777507782 0.6379920244216919 -0.7622380256652832
vn -0.3469089865684509 0.06007099896669388 -0.9359729886054993
vn -0.037539999932050705 0.46124398708343506 0.8864790201187134
vn 0.32723501324653625 0.7445840239524841 0.5818179845809937
vn 0.2837049961090088 0.8741589784622192 -0.39415499567985535
vn 0.08397000283002853 -0.9860420227050781 -0.14377300441265106
vn 0.23406699299812317 -0.7960330247879028 -0.5581619739532471
vn 0.3243680000305176 -0.6712639927864075 -0.6664760112762451
vn 0.2106959968805313 -0.8509029746055603 -0.48121801018714905
vn -0.2908119857311249 -0.7912909984588623 0.537854015827179
vn -0.5257070064544678 -0.39273801445961 0.7545779943466187
vn -0.717395007610321 -0.5319160223007202 -0.44989898800849915
vn -0.5528740286827087 -0.7335739731788635 0.395220011472702
vn 0.17358799278736115 -0.3755500018596649 -0.9104009866714478
vn -0.37483400106430054 -0.12247899919748306 -0.9189659953117371
vn 0.22349999845027924 -0.15226000547409058 -0.9627379775047302
vn -0.8762369751930237 -0.32821500301361084 -0.3528229892253876
vn -0.1431809961795807 -0.6487839818000793 -0.7473809719085693
vn -0.5889359712600708 -0.8053330183029175 0.06776700168848038
vn -0.5134850144386292 -0.3150379955768585 0.7981759905815125
vn -0.209647998213768 -0.003659999929368496 0.9777699708938599
vn 0.7845600247383118 0.5098119974136353 -0.35292699933052063
vn 0.3511210083961487 0.16053999960422516 -0.9224650263786316
vn -0.18709400296211243 -0.28606700897216797 -0.9397670030593872
vn -0.27608099579811096 0.07895900309085846 0.9578859806060791
vn 0.6106280088424683 -0.0789790004491806 0.7879689931869507
vn 0.8382499814033508 0.4053570032119751 0.3647240102291107
vn -0.3725839853286743 -0.4933589994907379 0.7859879732131958
vn 0.25025999546051025 -0.847241997718811 -0.4685620069503784
vn -0.1334809958934784 -0.8665400147438049 -0.4809280037879944
vn 0.3171440064907074 -0.7103859782218933 -0.6283090114593506
vn 0.46988600492477417 -0.8574479818344116 0.20973500609397888
vn -0.2689400017261505 -0.46905800700187683 0.8412230014801025
vn 0.2088329941034317 -0.9735109806060791 0.0930899977684021
vn -0.781906008720398 -0.3427410125732422 0.5207229852676392
vn -0.49391499161720276 -0.7228839993476868 -0.4832040071487427
vn 0.8149359822273254 -0.34593498706817627 -0.46498098969459534
vn 0.9420469999313354 -0.2848280072212219 -0.17726099491119385
vn 0.9959989786148071 -0.06681899726390839 0.05934799835085869
vn -0.10402700304985046 -0.9683390259742737 -0.22693200409412384
vn 0.6634939908981323 -0.6279789805412292 -0.4067150056362152
vn 0.2988530099391937 -0.8707519769668579 -0.3904849886894226
vn 0.6857280135154724 -0.6118919849395752 0.39416301250457764
vn 0.35624998807907104 -0.6256340146064758 0.6940230131149292
vn 0.9025530219078064 -0.39394301176071167 0.17380200326442719
vn 0.7846480011940002 -0.5532770156860352 0.27966299653053284
vn 0.35518500208854675 -0.7090809941291809 0.6091369986534119
vn 0.7919210195541382 -0.5648130178451538 -0.23205099999904633
vn 0.6720179915428162 -0.735185980796814 -0.0888419970870018
vn 0.6919310092926025 -0.6293789744377136 0.3537130057811737
f 3//3 2//2 1//1
f 5//5 1//1 4//4
f 5//5 6//6 1//1
f 1//1 7//7 3//3
f 2//2 4//4 1//1
f 1//1 6//6 8//8
f 7//7 1//1 8//8
f 10//10 2//2 9//9
f 2//2 10//10 4//4
f 12//12 11//11 2//2
f 3//3 12//12 2//2
f 9//9 2//2 11//11
f 7//7 13//13 3//3
f 12//12 3//3 13//13
f 4//4 15//15 14//14
f 10//10 15//15 4//4
f 14//14 5//5 4//4
f 16//16 5//5 14//14
f 17//17 5//5 16//16
f 5//5 17//17 6//6
f 18//18 8//8 6//6
f 6//6 17//17 19//19
f 6//6 19//19 18//18
f 7//7 21//21 20//20
f 7//7 20//20 13//13
f 21//21 7//7 8//8
f 18//18 21//21 8//8
f 10//10 9//9 22//22
f 11//11 22//22 9//9
f 10//10 23//23 15//15
f 25//25 10//10 24//24
f 23//23 10//10 25//25
f 22//22 24//24 10//10
f 26//26 22//22 11//11
f 11//11 12//12 26//26
f 28//28 12//12 27//27
f 28//28 26//26 12//12
f 27//27 12//12 29//29
f 29//29 12//12 30//30
f 30//30 12//12 13//13
f 30//30 13//13 31//31
f 13//13 20//20 31//31
f 32//32 16//16 14//14
f 33//33 14//14 15//15
f 33//33 32//32 14//14
f 15//15 35//35 34//34
f 36//36 35//35 15//15
f 15//15 23//23 36//36
f 33//33 15//15 37//37
f 34//34 37//37 15//15
f 16//16 39//39 38//38
f 16//16 32//32 39//39
f 16//16 19//19 17//17
f 19//19 16//16 38//38
f 21//21 18//18 19//19
f 19//19 40//40 21//21
f 40//40 19//19 38//38
f 31//31 20//20 41//41
f 20//20 27//27 29//29
f 20//20 42//42 27//27
f 42//42 20//20 43//43
f 41//41 20//20 29//29
f 40//40 20//20 21//21
f 40//40 43//43 20//20
f 26//26 44//44 22//22
f 36//36 45//45 22//22
f 44//44 36//36 22//22
f 24//24 22//22 45//45
f 25//25 46//46 23//23
f 23//23 46//46 47//47
f 23//23 47//47 36//36
f 25//25 24//24 48//48
f 48//48 24//24 45//45
f 49//49 25//25 48//48
f 49//49 50//50 25//25
f 46//46 25//25 50//50
f 28//28 44//44 26//26
f 27//27 51//51 28//28
f 42//42 51//51 27//27
f 53//53 28//28 52//52
f 44//44 28//28 34//34
f 52//52 28//28 54//54
f 28//28 53//53 34//34
f 51//51 54//54 28//28
f 41//41 29//29 30//30
f 41//41 30//30 31//31
f 32//32 37//37 39//39
f 37//37 32//32 33//33
f 37//37 34//34 53//53
f 44//44 34//34 35//35
f 36//36 44//44 35//35
f 56//56 55//55 36//36
f 56//56 36//36 57//57
f 47//47 57//57 36//36
f 36//36 58//58 45//45
f 36//36 55//55 58//58
f 59//59 39//39 37//37
f 53//53 59//59 37//37
f 38//38 61//61 60//60
f 61//61 38//38 39//39
f 40//40 38//38 60//60
f 59//59 61//61 39//39
f 62//62 43//43 40//40
f 59//59 40//40 60//60
f 59//59 63//63 40//40
f 40//40 63//63 62//62
f 42//42 64//64 51//51
f 64//64 42//42 43//43
f 64//64 43//43 62//62
f 45//45 58//58 65//65
f 66//66 45//45 65//65
f 66//66 48//48 45//45
f 46//46 50//50 67//67
f 46//46 67//67 68//68
f 46//46 68//68 69//69
f 46//46 69//69 47//47
f 57//57 47//47 69//69
f 48//48 66//66 70//70
f 49//49 48//48 70//70
f 72//72 49//49 71//71
f 71//71 49//49 73//73
f 49//49 70//70 73//73
f 49//49 72//72 67//67
f 49//49 67//67 50//50
f 51//51 75//75 74//74
f 64//64 75//75 51//51
f 54//54 51//51 74//74
f 52//52 54//54 74//74
f 53//53 52//52 74//74
f 59//59 53//53 76//76
f 53//53 74//74 76//76
f 55//55 78//78 77//77
f 55//55 73//73 58//58
f 55//55 56//56 78//78
f 79//79 55//55 77//77
f 79//79 73//73 55//55
f 57//57 78//78 56//56
f 78//78 57//57 80//80
f 57//57 69//69 81//81
f 81//81 80//80 57//57
f 58//58 73//73 65//65
f 63//63 59//59 76//76
f 59//59 60//60 61//61
f 64//64 62//62 75//75
f 62//62 63//63 75//75
f 76//76 74//74 63//63
f 74//74 75//75 63//63
f 70//70 66//66 65//65
f 70//70 65//65 73//73
f 67//67 82//82 68//68
f 67//67 83//83 82//82
f 67//67 72//72 84//84
f 84//84 83//83 67//67
f 68//68 82//82 69//69
f 81//81 69//69 85//85
f 69//69 82//82 86//86
f 69//69 86//86 87//87
f 69//69 87//87 85//85
f 89//89 88//88 71//71
f 72//72 71//71 84//84
f 73//73 89//89 71//71
f 90//90 84//84 71//71
f 90//90 71//71 88//88
f 89//89 73//73 79//79
f 92//92 91//91 77//77
f 78//78 92//92 77//77
f 93//93 77//77 91//91
f 94//94 77//77 93//93
f 94//94 79//79 77//77
f 81//81 78//78 80//80
f 78//78 81//81 85//85
f 92//92 78//78 85//85
f 88//88 79//79 94//94
f 79//79 88//88 89//89
f 83//83 91//91 82//82
f 91//91 86//86 82//82
f 91//91 83//83 93//93
f 83//83 84//84 93//93
f 93//93 84//84 90//90
f 85//85 87//87 92//92
f 86//86 95//95 87//87
f 95//95 86//86 91//91
f 92//92 87//87 95//95
f 94//94 90//90 88//88
f 94//94 93//93 90//90
f 91//91 92//92 95//95
