# Generated by Visualization Toolkit
v -0.017121000215411186 0.0038300000596791506 0.02895900048315525
v -0.014654000289738178 0.0015849999617785215 0.02837499976158142
v -0.016806000843644142 0.0005409999866969883 0.026926999911665916
v -0.016405999660491943 0.004652999807149172 0.03121500089764595
v -0.018974000588059425 0.006238999776542187 0.03101000003516674
v -0.019435999915003777 0.0064929998479783535 0.02879899926483631
v -0.019067000597715378 0.00495600001886487 0.02645700052380562
v -0.019121000543236732 0.005903999786823988 0.027652999386191368
v -0.011225000023841858 0.0013849999522790313 0.029249999672174454
v -0.0068720001727342606 0.00216599996201694 0.0314750000834465
v -0.013113999739289284 -0.001366000040434301 0.0281009990721941
v -0.016462000086903572 -0.003317000111564994 0.026822999119758606
v -0.018712999299168587 -0.0005849999724887311 0.024209000170230865
v -0.01547400001436472 0.00381199992261827 0.03292800113558769
v -0.011339000426232815 0.002529999939724803 0.034306999295949936
v -0.019241999834775925 0.005055000074207783 0.03305299952626228
v -0.019780000671744347 0.006604999769479036 0.031120000407099724
v -0.019770000129938126 0.005551000125706196 0.027567999437451363
v -0.020975999534130096 0.005396000109612942 0.03365200012922287
v -0.021344000473618507 -0.0016830000095069408 0.023938000202178955
v -0.01968199945986271 0.00456500006839633 0.02656799927353859
v -0.011235999874770641 -0.001155999954789877 0.02869899943470955
v -0.0036989999935030937 0.0014959999825805426 0.03522700071334839
v -0.002824000082910061 0.00009999999747378752 0.031362999230623245
v 0.0003980000037699938 0.0008609999786131084 0.03437900170683861
v -0.01337399985641241 -0.0021100000012665987 0.02826800011098385
v -0.019965000450611115 -0.004470000043511391 0.026791999116539955
v -0.0179820004850626 -0.004435999784618616 0.03010600060224533
v -0.018933000043034554 -0.003647000063210726 0.0248819999396801
v -0.018672000616788864 -0.0027719999197870493 0.024687999859452248
v -0.019153999164700508 -0.002343999920412898 0.024080000817775726
v -0.017559999600052834 0.003926999866962433 0.033225998282432556
v -0.016196999698877335 0.002449000021442771 0.03337400034070015
v -0.01753699965775013 -0.0037320000119507313 0.03144599869847298
v -0.012136000208556652 -0.0026110000908374786 0.03300999850034714
v -0.0018840000266209245 -0.003860000055283308 0.0365619994699955
v -0.01674799993634224 0.000012000000424450263 0.03284600004553795
v -0.021712999790906906 0.003848999971523881 0.03478199988603592
v -0.02011599950492382 0.0020200000144541264 0.03392399847507477
v -0.023065000772476196 -0.0016250000335276127 0.03366699814796448
v -0.019460000097751617 -0.0028689999599009752 0.02442999929189682
v -0.021795999258756638 -0.004145999904721975 0.02546600066125393
v -0.022950999438762665 -0.0034799999557435513 0.025814000517129898
v -0.01209499966353178 -0.002776999957859516 0.0316229984164238
v -0.0009389999904669821 -0.0013760000001639128 0.031683001667261124
v 0.003082999959588051 -0.001883000019006431 0.038809001445770264
v 0.00008299999899463728 -0.0012039999710395932 0.03820300102233887
v 0.00164899998344481 0.000058000001445179805 0.031870998442173004
v 0.006155999843031168 0.0004459999909158796 0.03263000026345253
v 0.005805999971926212 0.00010900000052060932 0.03529899939894676
v -0.02198999933898449 -0.0054709999822080135 0.029908999800682068
v -0.01947999931871891 -0.0041669998317956924 0.031112000346183777
v -0.020215999335050583 -0.0036849998869001865 0.031943000853061676
v -0.02096099965274334 -0.004794000182300806 0.03060699999332428
v 0.003625999903306365 -0.005568999797105789 0.035078998655080795
v 0.00043799998820759356 -0.005253000184893608 0.036100998520851135
v -0.0004990000161342323 -0.004794999957084656 0.03689900040626526
v 0.002177000045776367 -0.004114000126719475 0.03409099951386452
v -0.021425999701023102 -0.0023980000987648964 0.03349899873137474
v -0.02233099937438965 0.0021440000273287296 0.03486299887299538
v -0.021831000223755836 0.0015529999509453773 0.03478600084781647
v -0.023972000926733017 -0.004602999892085791 0.03137600049376488
v -0.02298000082373619 -0.004191000014543533 0.03248099982738495
v -0.02382900007069111 -0.0050860000774264336 0.0305550005286932
v 0.002094999887049198 -0.0024399999529123306 0.03179199993610382
v 0.0016090000281110406 -0.0012069999938830733 0.03182400017976761
v 0.007457000203430653 -0.000986000057309866 0.03538300096988678
v 0.0064849997870624065 -0.0032629999332129955 0.03911599889397621
v 0.0027779999654740095 -0.0031709999311715364 0.03879600018262863
v 0.00216599996201694 -0.0009889999637380242 0.03152500092983246
v 0.006744000129401684 -0.0038999998942017555 0.031605999916791916
v 0.007544999942183495 -0.0006419999990612268 0.032924000173807144
v 0.003470000112429261 -0.005284999962896109 0.030928000807762146
v -0.021734999492764473 -0.004867999814450741 0.03087100014090538
v -0.023313000798225403 -0.004989000037312508 0.03151499852538109
v -0.02112000063061714 -0.0039900001138448715 0.03248700127005577
v 0.005036999937146902 -0.0053369998931884766 0.03556099906563759
v 0.0015770000172778964 -0.0072200000286102295 0.03578300029039383
v 0.005359000060707331 -0.005979000125080347 0.03229999914765358
v -0.00013699999544769526 -0.006053000222891569 0.0365619994699955
v 0.0008370000286959112 -0.007319000083953142 0.03640099987387657
v 0.006812999956309795 -0.004863000009208918 0.038458000868558884
v 0.007395000196993351 -0.0030580000020563602 0.0363209992647171
v 0.008042999543249607 -0.002520000096410513 0.03367700055241585
v 0.0029700000304728746 -0.007879000157117844 0.03670499846339226
v 0.0063299997709691525 -0.005919999908655882 0.03800100088119507
v 0.00433199992403388 -0.0074720000848174095 0.03713500127196312
v 0.006357999984174967 -0.005255000200122595 0.031991999596357346
v 0.005437000188976526 -0.0056039998307824135 0.03149000182747841
v 0.007660999894142151 -0.003868000116199255 0.03338199853897095
v 0.006215000059455633 -0.004470000043511391 0.036139000207185745
v 0.003541999962180853 -0.007569999899715185 0.035937998443841934
v 0.00747800013050437 -0.003938000183552504 0.03432599827647209
v 0.0068350001238286495 -0.0051460000686347485 0.03339599817991257
v 0.005799999926239252 -0.006448000203818083 0.03673499822616577
vn 0.6646810173988342 0.625993013381958 -0.40783700346946716
vn 0.3459419906139374 0.48361098766326904 -0.8040180206298828
vn 0.6581640243530273 0.2817560136318207 -0.6981649994850159
vn 0.40077000856399536 0.9050260186195374 -0.1425199955701828
vn 0.5162240266799927 0.8486250042915344 0.11553099751472473
vn -0.031191999092698097 0.9699919819831848 -0.24112999439239502
vn 0.27303698658943176 0.5581820011138916 -0.7835069894790649
vn 0.09375599771738052 0.8227199912071228 -0.5606619715690613
vn 0.3005340099334717 0.3442690074443817 -0.8894709944725037
vn 0.28029799461364746 0.8331440091133118 -0.4767639935016632
vn 0.3330099880695343 -0.006508000195026398 -0.9429010152816772
vn 0.5843430161476135 -0.43174999952316284 -0.6871209740638733
vn 0.5396140217781067 0.09792699664831161 -0.8361979722976685
vn 0.20362600684165955 0.6714169979095459 0.712556004524231
vn -0.08715000003576279 0.3737129867076874 0.9234409928321838
vn 0.33264800906181335 0.5336719751358032 0.777521014213562
vn 0.10419899970293045 0.9522489905357361 0.28699201345443726
vn -0.6908019781112671 0.5804550051689148 -0.43112000823020935
vn -0.7952449917793274 0.599789023399353 0.08853299915790558
vn -0.3831090033054352 -0.13575099408626556 -0.9136729836463928
vn -0.7503589987754822 0.45781999826431274 -0.4768249988555908
vn 0.3368209898471832 -0.29899701476097107 -0.8928340077400208
vn -0.03358599916100502 0.7945740222930908 0.60623699426651
vn 0.2269829958677292 0.5054029822349548 -0.8324940204620361
vn 0.14059999585151672 0.9900050163269043 -0.011057999916374683
vn 0.43912699818611145 -0.7225880026817322 -0.5338850021362305
vn 0.16962899267673492 -0.910082995891571 -0.3781200051307678
vn 0.2673099935054779 -0.9380220174789429 0.2205909937620163
vn 0.1610330045223236 -0.6606299877166748 -0.7332370281219482
vn 0.5487040281295776 -0.3245280086994171 -0.7704579830169678
vn 0.2830919921398163 -0.3444109857082367 -0.8951200246810913
vn 0.08245900273323059 0.14033600687980652 0.9866639971733093
vn -0.12439300119876862 0.08094500005245209 0.9889259934425354
vn 0.03942500054836273 -0.695235013961792 0.7177000045776367
vn -0.17659500241279602 -0.7316280007362366 0.6584339737892151
vn -0.4608379900455475 -0.8806959986686707 0.10955899953842163
vn 0.07503899931907654 -0.26180198788642883 0.9621999859809875
vn -0.09274700284004211 0.33914899826049805 0.9361500144004822
vn 0.35280200839042664 -0.016818000003695488 0.9355469942092896
vn -0.9654110074043274 0.1624000072479248 0.2039790004491806
vn 0.10168199986219406 -0.5249879956245422 -0.8450139760971069
vn -0.18993400037288666 -0.8098549842834473 -0.5550320148468018
vn -0.9207170009613037 -0.05446799844503403 -0.3864099979400635
vn 0.1876010000705719 -0.9791989922523499 -0.07730100303888321
vn 0.0007680000271648169 -0.39541900157928467 -0.9185010194778442
vn 0.10936299711465836 0.6379910111427307 0.7622380256652832
vn -0.34689998626708984 0.06007999926805496 0.9359760284423828
vn -0.03752800077199936 0.4612410068511963 -0.886480987071991
vn 0.327237993478775 0.7445769906044006 -0.5818250179290771
vn 0.28370699286460876 0.8741570115089417 0.3941589891910553
vn 0.08397000283002853 -0.9860420227050781 0.14377300441265106
vn 0.23406800627708435 -0.7960569858551025 0.5581269860267639
vn 0.32437101006507874 -0.6712759733200073 0.6664620041847229
vn 0.2107190042734146 -0.8509089946746826 0.4811969995498657
vn -0.290800005197525 -0.7913079857826233 -0.5378350019454956
vn -0.5257120132446289 -0.39276400208473206 -0.7545610070228577
vn -0.7173939943313599 -0.5319259762763977 0.44989100098609924
vn -0.5528720021247864 -0.733568012714386 -0.39523500204086304
vn 0.17357400059700012 -0.37554699182510376 0.9104049801826477
vn -0.3748539984226227 -0.12247399985790253 0.9189590215682983
vn 0.22346700727939606 -0.15226499736309052 0.9627450108528137
vn -0.8762350082397461 -0.32821300625801086 0.3528290092945099
vn -0.14319799840450287 -0.6487849950790405 0.7473769783973694
vn -0.5889350175857544 -0.8053349852561951 -0.06775999814271927
vn -0.5134620070457458 -0.31501999497413635 -0.7981979846954346
vn -0.2096240073442459 -0.0036430000327527523 -0.977774977684021
vn 0.7845590114593506 0.5098130106925964 0.3529280126094818
vn 0.3511120080947876 0.16054899990558624 0.922465980052948
vn -0.18709300458431244 -0.286065012216568 0.9397680163383484
vn -0.2760559916496277 0.07896900177001953 -0.9578920006752014
vn 0.6106110215187073 -0.07897000014781952 -0.7879830002784729
vn 0.8382409811019897 0.40536201000213623 -0.36473900079727173
vn -0.37257999181747437 -0.49334800243377686 -0.7859969735145569
vn 0.2502659857273102 -0.8472520112991333 0.4685420095920563
vn -0.13348500430583954 -0.8665379881858826 0.4809289872646332
vn 0.3171429932117462 -0.7103819847106934 0.6283130049705505
vn 0.46988898515701294 -0.857450008392334 -0.20972299575805664
vn -0.26892000436782837 -0.4690589904785156 -0.8412290215492249
vn 0.20883099734783173 -0.9735109806060791 -0.09309100359678268
vn -0.7818800210952759 -0.3427349925041199 -0.520766019821167
vn -0.49392399191856384 -0.7228999733924866 0.4831719994544983
vn 0.8149330019950867 -0.34595000743865967 0.4649749994277954
vn 0.9420419931411743 -0.28484100103378296 0.17726199328899384
vn 0.9959980249404907 -0.06682299822568893 -0.05934999883174896
vn -0.10402700304985046 -0.9683420062065125 0.22691699862480164
vn 0.6634979844093323 -0.6279810070991516 0.4067060053348541
vn 0.298880010843277 -0.8707470297813416 0.39047399163246155
vn 0.6857219934463501 -0.6118869781494141 -0.3941830098628998
vn 0.35624998807907104 -0.6256279945373535 -0.6940280199050903
vn 0.9025470018386841 -0.39395299553871155 -0.17381000518798828
vn 0.7846450209617615 -0.5532739758491516 -0.27967798709869385
vn 0.35518598556518555 -0.7090579867362976 -0.6091629862785339
vn 0.7919089794158936 -0.5648220181465149 0.2320680022239685
vn 0.6720060110092163 -0.7351970076560974 0.08884099870920181
vn 0.6919429898262024 -0.6293569803237915 -0.3537310063838959
f 1//1 2//2 3//3
f 4//4 1//1 5//5
f 1//1 6//6 5//5
f 3//3 7//7 1//1
f 1//1 4//4 2//2
f 8//8 6//6 1//1
f 8//8 1//1 7//7
f 9//9 2//2 10//10
f 4//4 10//10 2//2
f 2//2 11//11 12//12
f 2//2 12//12 3//3
f 11//11 2//2 9//9
f 3//3 13//13 7//7
f 13//13 3//3 12//12
f 14//14 15//15 4//4
f 4//4 15//15 10//10
f 4//4 5//5 14//14
f 14//14 5//5 16//16
f 16//16 5//5 17//17
f 6//6 17//17 5//5
f 6//6 8//8 18//18
f 19//19 17//17 6//6
f 18//18 19//19 6//6
f 20//20 21//21 7//7
f 13//13 20//20 7//7
f 8//8 7//7 21//21
f 8//8 21//21 18//18
f 22//22 9//9 10//10
f 9//9 22//22 11//11
f 15//15 23//23 10//10
f 24//24 10//10 25//25
f 25//25 10//10 23//23
f 10//10 24//24 22//22
f 11//11 22//22 26//26
f 26//26 12//12 11//11
f 27//27 12//12 28//28
f 12//12 26//26 28//28
f 29//29 12//12 27//27
f 30//30 12//12 29//29
f 13//13 12//12 30//30
f 31//31 13//13 30//30
f 31//31 20//20 13//13
f 14//14 16//16 32//32
f 15//15 14//14 33//33
f 14//14 32//32 33//33
f 34//34 35//35 15//15
f 15//15 35//35 36//36
f 36//36 23//23 15//15
f 37//37 15//15 33//33
f 15//15 37//37 34//34
f 38//38 39//39 16//16
f 39//39 32//32 16//16
f 17//17 19//19 16//16
f 38//38 16//16 19//19
f 19//19 18//18 21//21
f 21//21 40//40 19//19
f 38//38 19//19 40//40
f 41//41 20//20 31//31
f 29//29 27//27 20//20
f 27//27 42//42 20//20
f 43//43 20//20 42//42
f 29//29 20//20 41//41
f 21//21 20//20 40//40
f 20//20 43//43 40//40
f 22//22 44//44 26//26
f 22//22 45//45 36//36
f 22//22 36//36 44//44
f 45//45 22//22 24//24
f 23//23 46//46 25//25
f 47//47 46//46 23//23
f 36//36 47//47 23//23
f 48//48 24//24 25//25
f 45//45 24//24 48//48
f 48//48 25//25 49//49
f 25//25 50//50 49//49
f 50//50 25//25 46//46
f 26//26 44//44 28//28
f 28//28 51//51 27//27
f 27//27 51//51 42//42
f 52//52 28//28 53//53
f 34//34 28//28 44//44
f 54//54 28//28 52//52
f 34//34 53//53 28//28
f 28//28 54//54 51//51
f 30//30 29//29 41//41
f 31//31 30//30 41//41
f 39//39 37//37 32//32
f 33//33 32//32 37//37
f 53//53 34//34 37//37
f 35//35 34//34 44//44
f 35//35 44//44 36//36
f 36//36 55//55 56//56
f 57//57 36//36 56//56
f 36//36 57//57 47//47
f 45//45 58//58 36//36
f 58//58 55//55 36//36
f 37//37 39//39 59//59
f 37//37 59//59 53//53
f 60//60 61//61 38//38
f 39//39 38//38 61//61
f 60//60 38//38 40//40
f 39//39 61//61 59//59
f 40//40 43//43 62//62
f 60//60 40//40 59//59
f 40//40 63//63 59//59
f 62//62 63//63 40//40
f 51//51 64//64 42//42
f 43//43 42//42 64//64
f 62//62 43//43 64//64
f 65//65 58//58 45//45
f 65//65 45//45 66//66
f 45//45 48//48 66//66
f 67//67 50//50 46//46
f 68//68 67//67 46//46
f 69//69 68//68 46//46
f 47//47 69//69 46//46
f 69//69 47//47 57//57
f 70//70 66//66 48//48
f 70//70 48//48 49//49
f 71//71 49//49 72//72
f 73//73 49//49 71//71
f 73//73 70//70 49//49
f 67//67 72//72 49//49
f 50//50 67//67 49//49
f 74//74 75//75 51//51
f 51//51 75//75 64//64
f 74//74 51//51 54//54
f 74//74 54//54 52//52
f 74//74 52//52 53//53
f 76//76 53//53 59//59
f 76//76 74//74 53//53
f 77//77 78//78 55//55
f 58//58 73//73 55//55
f 78//78 56//56 55//55
f 77//77 55//55 79//79
f 55//55 73//73 79//79
f 56//56 78//78 57//57
f 80//80 57//57 78//78
f 81//81 69//69 57//57
f 57//57 80//80 81//81
f 65//65 73//73 58//58
f 76//76 59//59 63//63
f 61//61 60//60 59//59
f 75//75 62//62 64//64
f 75//75 63//63 62//62
f 63//63 74//74 76//76
f 63//63 75//75 74//74
f 65//65 66//66 70//70
f 73//73 65//65 70//70
f 68//68 82//82 67//67
f 82//82 83//83 67//67
f 84//84 72//72 67//67
f 67//67 83//83 84//84
f 69//69 82//82 68//68
f 85//85 69//69 81//81
f 86//86 82//82 69//69
f 87//87 86//86 69//69
f 85//85 87//87 69//69
f 71//71 88//88 89//89
f 84//84 71//71 72//72
f 71//71 89//89 73//73
f 71//71 84//84 90//90
f 88//88 71//71 90//90
f 79//79 73//73 89//89
f 77//77 91//91 92//92
f 77//77 92//92 78//78
f 91//91 77//77 93//93
f 93//93 77//77 94//94
f 77//77 79//79 94//94
f 80//80 78//78 81//81
f 85//85 81//81 78//78
f 85//85 78//78 92//92
f 94//94 79//79 88//88
f 89//89 88//88 79//79
f 82//82 91//91 83//83
f 82//82 86//86 91//91
f 93//93 83//83 91//91
f 93//93 84//84 83//83
f 90//90 84//84 93//93
f 92//92 87//87 85//85
f 87//87 95//95 86//86
f 91//91 86//86 95//95
f 95//95 87//87 92//92
f 88//88 90//90 94//94
f 90//90 93//93 94//94
f 95//95 92//92 91//91
