# Generated by Visualization Toolkit
v 0.04300399869680405 0.0006290000164881349 -0.026990000158548355
v 0.04512700065970421 -0.0012199999764561653 -0.026917999610304832
v 0.04069700092077255 -0.00023099999816622585 -0.028596999123692513
v 0.03861900046467781 0.0014140000566840172 -0.02646300010383129
v 0.04196900129318237 0.0014639999717473984 -0.024542000144720078
v 0.0455159991979599 -0.004230000078678131 -0.02113799937069416
v 0.04560299962759018 -0.00506999995559454 -0.026796000078320503
v 0.043570999056100845 -0.0061889998614788055 -0.029231999069452286
v 0.045295000076293945 -0.0037640000227838755 -0.0165570005774498
v 0.039868999272584915 -0.0065009999088943005 -0.0307180006057024
v 0.03856100142002106 -0.0048940000124275684 -0.030386999249458313
v 0.03830999881029129 -0.0011060000397264957 -0.028425000607967377
v 0.038957998156547546 0.0005239999736659229 -0.02751999907195568
v 0.02390200085937977 0.004468999803066254 -0.01807600073516369
v 0.0368489995598793 0.0006569999968633056 -0.02909800037741661
v 0.04417499899864197 -0.007782999891787767 -0.02610200084745884
v 0.04246100038290024 -0.007414000108838081 -0.02185799926519394
v 0.0438230000436306 -0.009096000343561172 -0.01947000063955784
v 0.044109001755714417 -0.00853899959474802 -0.01625099964439869
v 0.04305899888277054 -0.00808900035917759 -0.02833300083875656
v 0.0401340015232563 -0.00841199979186058 -0.029577000066637993
v 0.04147300124168396 -0.004788000136613846 -0.014623000286519527
v 0.03884600102901459 -0.00801400002092123 -0.029868999496102333
v 0.03717400133609772 -0.003493000054731965 -0.028099000453948975
v 0.02112399972975254 0.005229000002145767 -0.01779099926352501
v 0.023653000593185425 0.00013800000306218863 -0.0171549990773201
v 0.035950999706983566 -0.0037040000315755606 -0.015085999853909016
v 0.025537999346852303 0.0029670000076293945 -0.028450999408960342
v 0.02141599915921688 0.0063299997709691525 -0.024431999772787094
v 0.021247999742627144 0.00596500001847744 -0.01925699971616268
v 0.025678999722003937 -0.00003600000127335079 -0.0291920006275177
v 0.04171999916434288 -0.00902399979531765 -0.027406999841332436
v 0.04084999859333038 -0.010731999762356281 -0.019651999697089195
v 0.04029599949717522 -0.007747999858111143 -0.02201800048351288
v 0.04357000067830086 -0.009720000438392162 -0.016889000311493874
v 0.04175800085067749 -0.010120999999344349 -0.015745999291539192
v 0.039174001663923264 -0.008554000407457352 -0.0281360000371933
v 0.03724600002169609 -0.008948000147938728 -0.015207000076770782
v 0.039000000804662704 -0.0102530000731349 -0.015472999773919582
v 0.03767399862408638 -0.005628000013530254 -0.023586999624967575
v 0.02583800069987774 -0.001879999996162951 -0.02829200029373169
v 0.01856599934399128 0.005311000160872936 -0.017998000606894493
v 0.015969999134540558 0.00026199998683296144 -0.015154999680817127
v 0.0310210008174181 -0.004273000173270702 -0.016860000789165497
v 0.019953999668359756 -0.004449999891221523 -0.017508000135421753
v 0.035346999764442444 -0.006115000229328871 -0.016245000064373016
v 0.017746999859809875 -0.0008919999818317592 -0.03267800062894821
v 0.01826299913227558 0.004468000028282404 -0.030534999445080757
v 0.016790999099612236 0.007187999784946442 -0.027217000722885132
v 0.017083000391721725 0.006858999840915203 -0.019353000447154045
v 0.04040300101041794 -0.01118099968880415 -0.016811000183224678
v 0.038759998977184296 -0.010905999690294266 -0.016635000705718994
v 0.038116998970508575 -0.01013800036162138 -0.019202999770641327
v 0.038575999438762665 -0.006670000031590462 -0.021877000108361244
v 0.03644999861717224 -0.009464000351727009 -0.016440000385046005
v 0.016927000135183334 -0.004654000047594309 -0.01860399916768074
v 0.01561999972909689 -0.0034280000254511833 -0.03370999917387962
v 0.011137999594211578 -0.007091000210493803 -0.03170499950647354
v 0.014189999550580978 0.006519000045955181 -0.014719000086188316
v 0.015092999674379826 -0.005049999803304672 -0.015809999778866768
v 0.007259000092744827 0.005361999850720167 -0.013356000185012817
v 0.014615999534726143 -0.0015829999465495348 -0.03654399886727333
v 0.012618999928236008 0.008441999554634094 -0.033914998173713684
v 0.01504599954932928 0.0038769999518990517 -0.03547799959778786
v 0.015699999406933784 0.009189999662339687 -0.02515999972820282
v 0.013274000026285648 0.011013000272214413 -0.02964399941265583
v 0.014891999773681164 0.00864300038665533 -0.01875299960374832
v 0.01082600001245737 -0.0074970000423491 -0.028663000091910362
v 0.009115999564528465 -0.008508999831974506 -0.018042000010609627
v 0.010525000281631947 -0.0075599998235702515 -0.024630999192595482
v 0.010834000073373318 -0.00519500020891428 -0.03668700158596039
v 0.008882000111043453 -0.0067889997735619545 -0.03414800018072128
v 0.01003399956971407 -0.006444999948143959 -0.031321000307798386
v 0.010087000206112862 0.008995999582111835 -0.015941999852657318
v 0.006295999977737665 0.0010420000180602074 -0.013350999914109707
v 0.008709000423550606 -0.007565999869257212 -0.01657699979841709
v 0.004381999839097261 -0.002263000002130866 -0.016311999410390854
v 0.007751999888569117 0.007871000096201897 -0.016279999166727066
v 0.012191000394523144 0.004170999862253666 -0.036316998302936554
v 0.01053600013256073 0.009507999755442142 -0.03168699890375137
v 0.01018499955534935 0.010745000094175339 -0.02665100060403347
v 0.008694999851286411 -0.007155000232160091 -0.02891699969768524
v 0.007184999994933605 -0.00749799981713295 -0.01646599918603897
v 0.008836999535560608 -0.007145999930799007 -0.026688000187277794
v 0.007958999834954739 -0.00798999983817339 -0.01912900060415268
v 0.005373000167310238 -0.0052709998562932014 -0.03443700075149536
v 0.006823999807238579 -0.007261999882757664 -0.03205600008368492
v 0.005900000222027302 -0.006876999977976084 -0.015607000328600407
v 0.0037769998889416456 -0.006010999903082848 -0.01735600084066391
v 0.0036830001045018435 -0.005322999786585569 -0.019507000222802162
v 0.004567999858409166 -0.004497999791055918 -0.01941699907183647
v 0.007313000038266182 -0.009294000454246998 -0.02324499934911728
v 0.004182000178843737 -0.009190999902784824 -0.022192999720573425
v 0.001588999992236495 -0.0066559999249875546 -0.028596999123692513
v 0.004844000097364187 -0.00860700011253357 -0.018012000247836113
v 0.006459000054746866 -0.009544000029563904 -0.02015499956905842
v 0.004213999956846237 -0.008243000134825706 -0.018476000055670738
v 0.0035620001144707203 -0.00684700021520257 -0.01981000043451786
v 0.0030930000357329845 -0.006868000142276287 -0.020519999787211418
v 0.0018129999516531825 -0.007025000173598528 -0.024267999455332756
v 0.005491999909281731 -0.008980999700725079 -0.020687999203801155
v 0.0035470000002533197 -0.008677000179886818 -0.0206300001591444
vn 0.35415899753570557 0.8215309977531433 -0.44683098793029785
vn 0.8274049758911133 0.42948898673057556 -0.36185699701309204
vn 0.1049799993634224 0.5102429986000061 -0.8535990118980408
vn 0.07313700020313263 0.8581209778785706 -0.5082119703292847
vn 0.40832099318504333 0.9122229814529419 0.033518001437187195
vn 0.9558129906654358 -0.29250600934028625 -0.029363000765442848
vn 0.9188339710235596 -0.2584249973297119 -0.2982639968395233
vn 0.5523459911346436 -0.13296300172805786 -0.8229429721832275
vn 0.7583770155906677 0.43596500158309937 0.4845609962940216
vn 0.09588500112295151 -0.1280529946088791 -0.9871209859848022
vn -0.3553279936313629 0.1300410032272339 -0.925652027130127
vn 0.10207799822092056 0.5418959856033325 -0.8342229723930359
vn -0.2935590147972107 0.6342800259590149 -0.7152010202407837
vn 0.24902300536632538 0.8596349954605103 0.4461120069026947
vn 0.16488699615001678 0.5245370268821716 -0.8352680206298828
vn 0.6817010045051575 -0.7308740019798279 0.033254001289606094
vn 0.4562720060348511 -0.8497719764709473 -0.26401498913764954
vn 0.7348229885101318 -0.5897799730300903 -0.33495399355888367
vn 0.8033249974250793 -0.34978601336479187 0.48199400305747986
vn 0.5883650183677673 -0.6645870208740234 -0.46059900522232056
vn 0.1323229968547821 -0.7744219899177551 -0.618677020072937
vn 0.1537490040063858 0.049573998898267746 0.9868659973144531
vn -0.6839450001716614 -0.5295950174331665 -0.5017449855804443
vn -0.5906550288200378 -0.4611310064792633 -0.6621819734573364
vn 0.13489499688148499 0.5866990089416504 0.7984910011291504
vn 0.037668999284505844 -0.006682999897748232 0.9992679953575134
vn -0.2534619867801666 -0.079134002327919 0.9641029834747314
vn 0.3536210060119629 0.6731399893760681 -0.6494889855384827
vn 0.378248006105423 0.9176740050315857 -0.1216680034995079
vn 0.22615499794483185 0.9047660231590271 0.3609049916267395
vn 0.1594569981098175 -0.12166299670934677 -0.9796789884567261
vn 0.16260799765586853 -0.9864699840545654 -0.02085600048303604
vn 0.12119600176811218 -0.8838440179824829 -0.45180800557136536
vn -0.31361499428749084 -0.8943889737129211 -0.31892699003219604
vn 0.5969259738922119 -0.786916971206665 0.15633699297904968
vn 0.31646299362182617 -0.5614780187606812 0.7645869851112366
vn -0.4701319932937622 -0.8825749754905701 -0.006165999919176102
vn -0.43497800827026367 -0.39342600107192993 0.8099439740180969
vn -0.07141699641942978 -0.6009020209312439 0.7961260080337524
vn -0.6073319911956787 -0.7844899892807007 -0.1253879964351654
vn 0.1801699995994568 -0.802757978439331 -0.56843501329422
vn 0.2627280056476593 0.6730129718780518 0.6913959980010986
vn 0.25794699788093567 0.04274800047278404 0.9652130007743835
vn -0.2688319981098175 -0.8918570280075073 0.36375799775123596
vn 0.16137400269508362 -0.6300820112228394 0.7595750093460083
vn -0.7497439980506897 -0.5123569965362549 0.4187789857387543
vn 0.5482119917869568 -0.012842000462114811 -0.8362410068511963
vn 0.6157010197639465 0.5326979756355286 -0.5806419849395752
vn 0.6561440229415894 0.7186570167541504 -0.23023200035095215
vn 0.4901309907436371 0.8293949961662292 0.268095999956131
vn 0.14147299528121948 -0.9534050226211548 0.2664659917354584
vn -0.3473629951477051 -0.9182149767875671 0.19031700491905212
vn -0.5035049915313721 -0.7018560171127319 -0.503866970539093
vn -0.628928005695343 -0.6560869812965393 -0.41713300347328186
vn -0.8232539892196655 -0.5668540000915527 0.030480999499559402
vn 0.2921609878540039 -0.9563649892807007 -0.002735000103712082
vn 0.5727090239524841 -0.5513110160827637 -0.6066799759864807
vn 0.16888999938964844 -0.9682549834251404 -0.18427599966526031
vn 0.4379279911518097 0.5343859791755676 0.7229459881782532
vn 0.2594529986381531 -0.5801680088043213 0.7720680236816406
vn -0.31159600615501404 0.2960059940814972 0.9029330015182495
vn 0.5986120104789734 -0.10522899776697159 -0.7940980195999146
vn 0.35280901193618774 0.6820679903030396 -0.6405529975891113
vn 0.5639640092849731 0.31707701086997986 -0.762499988079071
vn 0.5874260067939758 0.8057439923286438 0.07554599642753601
vn 0.3222610056400299 0.9124410152435303 -0.2521890103816986
vn 0.42452099919319153 0.8607190251350403 0.2809720039367676
vn 0.02214900031685829 -0.9917250275611877 -0.126459002494812
vn 0.05412599816918373 -0.9861270189285278 0.15692099928855896
vn 0.0776590034365654 -0.9962689876556396 -0.037647999823093414
vn 0.1459680050611496 -0.5907109975814819 -0.7935709953308105
vn -0.10607600212097168 -0.9570649862289429 -0.26976799964904785
vn -0.11920499801635742 -0.9901210069656372 -0.0738309994339943
vn -0.06443800032138824 0.8731669783592224 0.48314300179481506
vn -0.38565200567245483 -0.13549500703811646 0.9126409888267517
vn 0.11103600263595581 -0.6456779837608337 0.7554939985275269
vn -0.953482985496521 0.29481300711631775 0.06288900226354599
vn -0.8235999941825867 0.5607839822769165 0.08488299697637558
vn -0.18444199860095978 0.28699401021003723 -0.9400079846382141
vn -0.6629260182380676 0.6070259809494019 -0.43823400139808655
vn -0.36643800139427185 0.9299780130386353 0.029395999386906624
vn 0.029360000044107437 -0.9870669841766357 -0.15759700536727905
vn -0.0332770012319088 -0.9049590229988098 0.4241960048675537
vn 0.2409459948539734 -0.9682090282440186 -0.06720300018787384
vn 0.2789759933948517 -0.9436370134353638 0.17810800671577454
vn -0.7100250124931335 -0.1378069967031479 -0.690559983253479
vn -0.053665000945329666 -0.9765520095825195 -0.20848600566387177
vn -0.24699099361896515 -0.5698990225791931 0.7837160229682922
vn -0.8860719799995422 -0.17271199822425842 0.43017199635505676
vn -0.9342169761657715 0.34132999181747437 -0.10359600186347961
vn -0.827892005443573 0.5329340100288391 -0.17486299574375153
vn 0.34509798884391785 -0.936348021030426 -0.06449899822473526
vn -0.3039669990539551 -0.9501330256462097 -0.06965900212526321
vn -0.7546079754829407 -0.6163790225982666 -0.22504200041294098
vn -0.29097801446914673 -0.8499109745025635 0.43929800391197205
vn 0.03274000063538551 -0.9864199757575989 0.16094300150871277
vn -0.7335060238838196 -0.6088230013847351 0.3021659851074219
vn -0.931581974029541 -0.1279129981994629 0.3402850031852722
vn -0.9580820202827454 0.11818599700927734 0.2609789967536926
vn -0.971422016620636 -0.17396299540996552 0.1614830046892166
vn -0.29201000928878784 -0.953453004360199 0.07521499693393707
vn -0.7004629969596863 -0.6375300288200378 0.32079198956489563
f 1//1 2//2 3//3
f 4//4 1//1 3//3
f 2//2 1//1 5//5
f 5//5 1//1 4//4
f 2//2 6//6 7//7
f 8//8 3//3 2//2
f 9//9 2//2 5//5
f 6//6 2//2 9//9
f 8//8 2//2 7//7
f 8//8 10//10 3//3
f 10//10 11//11 3//3
f 12//12 3//3 11//11
f 3//3 13//13 4//4
f 13//13 3//3 12//12
f 14//14 4//4 15//15
f 12//12 4//4 13//13
f 14//14 5//5 4//4
f 4//4 12//12 15//15
f 9//9 5//5 14//14
f 16//16 6//6 17//17
f 7//7 6//6 16//16
f 18//18 17//17 6//6
f 18//18 6//6 19//19
f 6//6 9//9 19//19
f 20//20 7//7 16//16
f 20//20 8//8 7//7
f 8//8 20//20 21//21
f 21//21 10//10 8//8
f 19//19 9//9 22//22
f 14//14 22//22 9//9
f 11//11 10//10 23//23
f 10//10 21//21 23//23
f 24//24 11//11 23//23
f 11//11 24//24 15//15
f 11//11 15//15 12//12
f 25//25 26//26 14//14
f 27//27 22//22 14//14
f 28//28 14//14 15//15
f 29//29 14//14 28//28
f 30//30 14//14 29//29
f 14//14 30//30 25//25
f 26//26 27//27 14//14
f 28//28 15//15 31//31
f 24//24 31//31 15//15
f 32//32 16//16 17//17
f 20//20 16//16 32//32
f 17//17 33//33 34//34
f 18//18 33//33 17//17
f 17//17 34//34 32//32
f 18//18 35//35 33//33
f 35//35 18//18 19//19
f 36//36 19//19 22//22
f 36//36 35//35 19//19
f 21//21 20//20 32//32
f 32//32 37//37 21//21
f 23//23 21//21 37//37
f 22//22 38//38 39//39
f 39//39 36//36 22//22
f 22//22 27//27 38//38
f 40//40 23//23 37//37
f 24//24 23//23 40//40
f 41//41 24//24 40//40
f 41//41 31//31 24//24
f 30//30 42//42 25//25
f 25//25 42//42 43//43
f 43//43 26//26 25//25
f 26//26 44//44 27//27
f 45//45 44//44 26//26
f 43//43 45//45 26//26
f 44//44 46//46 27//27
f 46//46 38//38 27//27
f 28//28 47//47 48//48
f 28//28 48//48 29//29
f 31//31 47//47 28//28
f 49//49 29//29 48//48
f 50//50 29//29 49//49
f 50//50 30//30 29//29
f 30//30 50//50 42//42
f 47//47 31//31 41//41
f 34//34 37//37 32//32
f 33//33 35//35 51//51
f 51//51 52//52 33//33
f 52//52 53//53 33//33
f 53//53 34//34 33//33
f 40//40 37//37 34//34
f 34//34 53//53 54//54
f 40//40 34//34 54//54
f 35//35 36//36 51//51
f 39//39 51//51 36//36
f 39//39 38//38 52//52
f 55//55 52//52 38//38
f 46//46 55//55 38//38
f 39//39 52//52 51//51
f 44//44 40//40 54//54
f 44//44 41//41 40//40
f 41//41 44//44 56//56
f 41//41 57//57 47//47
f 58//58 41//41 56//56
f 58//58 57//57 41//41
f 59//59 42//42 50//50
f 42//42 59//59 43//43
f 43//43 60//60 45//45
f 43//43 59//59 61//61
f 60//60 43//43 61//61
f 56//56 44//44 45//45
f 46//46 44//44 54//54
f 45//45 60//60 56//56
f 55//55 46//46 54//54
f 48//48 47//47 62//62
f 62//62 47//47 57//57
f 63//63 48//48 64//64
f 49//49 48//48 63//63
f 62//62 64//64 48//48
f 65//65 50//50 49//49
f 66//66 65//65 49//49
f 49//49 63//63 66//66
f 67//67 59//59 50//50
f 50//50 65//65 67//67
f 52//52 55//55 53//53
f 55//55 54//54 53//53
f 68//68 58//58 56//56
f 69//69 56//56 60//60
f 56//56 69//69 70//70
f 56//56 70//70 68//68
f 71//71 57//57 58//58
f 62//62 57//57 71//71
f 71//71 58//58 72//72
f 73//73 72//72 58//58
f 73//73 58//58 68//68
f 61//61 59//59 74//74
f 59//59 67//67 74//74
f 61//61 75//75 60//60
f 60//60 76//76 69//69
f 60//60 75//75 76//76
f 77//77 61//61 78//78
f 61//61 74//74 78//78
f 75//75 61//61 77//77
f 64//64 62//62 79//79
f 62//62 71//71 79//79
f 63//63 64//64 79//79
f 66//66 63//63 80//80
f 63//63 79//79 80//80
f 67//67 65//65 81//81
f 66//66 81//81 65//65
f 80//80 81//81 66//66
f 81//81 74//74 67//67
f 68//68 70//70 82//82
f 82//82 73//73 68//68
f 69//69 76//76 83//83
f 70//70 69//69 84//84
f 83//83 85//85 69//69
f 85//85 84//84 69//69
f 84//84 82//82 70//70
f 79//79 71//71 86//86
f 86//86 71//71 72//72
f 87//87 72//72 73//73
f 72//72 87//87 86//86
f 73//73 82//82 87//87
f 74//74 81//81 78//78
f 76//76 75//75 88//88
f 77//77 89//89 75//75
f 89//89 88//88 75//75
f 88//88 83//83 76//76
f 90//90 89//89 77//77
f 77//77 91//91 90//90
f 77//77 78//78 91//91
f 81//81 91//91 78//78
f 79//79 86//86 80//80
f 86//86 91//91 80//80
f 80//80 91//91 81//81
f 92//92 93//93 82//82
f 94//94 82//82 93//93
f 92//92 82//82 84//84
f 87//87 82//82 94//94
f 83//83 88//88 95//95
f 83//83 95//95 85//85
f 85//85 92//92 84//84
f 92//92 85//85 96//96
f 95//95 96//96 85//85
f 94//94 86//86 87//87
f 86//86 94//94 91//91
f 95//95 88//88 89//89
f 95//95 89//89 97//97
f 98//98 89//89 90//90
f 97//97 89//89 98//98
f 90//90 99//99 98//98
f 91//91 99//99 90//90
f 91//91 100//100 99//99
f 94//94 100//100 91//91
f 93//93 92//92 101//101
f 92//92 96//96 101//101
f 101//101 102//102 93//93
f 102//102 100//100 93//93
f 94//94 93//93 100//100
f 101//101 96//96 95//95
f 95//95 97//97 101//101
f 97//97 98//98 102//102
f 97//97 102//102 101//101
f 102//102 98//98 99//99
f 100//100 102//102 99//99
