# Generated by Visualization Toolkit
v 0.01384199969470501 0.004139000084251165 0.01217000000178814
v 0.014669000171124935 0.0035989999305456877 0.011626999825239182
v 0.014595000073313713 0.01068700011819601 0.009674999862909317
v 0.012582000344991684 0.016992999240756035 0.008759000338613987
v 0.004261999856680632 0.004230999853461981 0.010638000443577766
v 0.00661400007084012 0.013043999671936035 0.008999000303447247
v -0.00133200001437217 -0.005896000191569328 0.008341999724507332
v 0.010805999860167503 -0.006430999841541052 0.011460999958217144
v 0.014065999537706375 -0.005981000140309334 0.012678000144660473
v 0.015798000618815422 0.0032319999299943447 0.010196000337600708
v 0.015193000435829163 0.006519000045955181 0.009186999872326851
v 0.01510199997574091 -0.0037769998889416456 0.010893000289797783
v 0.015728000551462173 0.006434000097215176 0.007402000017464161
v 0.015448000282049179 0.010751999914646149 0.006705000065267086
v 0.01447100006043911 0.016239000484347343 0.0037150001153349876
v 0.004774000030010939 0.014313999563455582 0.003524000057950616
v 0.004155999980866909 0.004000000189989805 0.008515999652445316
v 0.004308000206947327 0.008712000213563442 0.008434000425040722
v -0.0011249999515712261 -0.006147999782115221 0.004393999930471182
v 0.0039450000040233135 0.01043500006198883 0.004137999843806028
v -0.0006009999779053032 -0.007464999798685312 0.0023380001075565815
v -0.0005660000024363399 -0.009448000229895115 0.0020000000949949026
v 0.013957000337541103 -0.007964000105857849 0.007565999869257212
v 0.015065000392496586 -0.0070130000822246075 0.008833999745547771
v 0.014667999930679798 -0.005034000147134066 0.008768999949097633
v 0.015691999346017838 0.001446999958716333 0.007803000044077635
v 0.01666799932718277 0.005421000067144632 0.00445799995213747
v 0.016342999413609505 0.008445999585092068 0.001961000030860305
v 0.016840999945998192 0.012969999574124813 -0.0038819999899715185
v 0.007741999812424183 0.009495999664068222 -0.005940000060945749
v 0.004832000005990267 0.007674000225961208 -0.001193000003695488
v 0.0034729999024420977 0.003622000105679035 0.005144000053405762
v 0.0035200000274926424 0.005551000125706196 0.004811999853700399
v -0.00030399998649954796 -0.00215000007301569 0.0032190000638365746
v 0.003338000038638711 0.0064050001092255116 0.00266400002874434
v 0.000859999970998615 -0.001339999958872795 0.002167999977245927
v 0.004021000117063522 0.006087000016123056 0.0015119999879971147
v 0.0010059999767690897 -0.001285000005736947 0.0008510000188834965
v -0.000615999975707382 -0.0067889997735619545 -0.0002809999859891832
v 0.002940000034868717 -0.010443000122904778 -0.002368000103160739
v 0.00990699976682663 -0.008191999979317188 0.000052999999752501026
v 0.014822999946773052 -0.005522000137716532 0.00546699995175004
v 0.015444000251591206 -0.0029959999956190586 0.007269000168889761
v 0.015452999621629715 0.000004999999873689376 0.006306000053882599
v 0.017176000401377678 0.0032220000866800547 0.005748999770730734
v 0.01606599986553192 0.0028899998869746923 0.0023610000498592854
v 0.015247000381350517 0.0036140000447630882 -0.00013600000238511711
v 0.0054270001128315926 0.0037040000315755606 -0.004399000201374292
v 0.004042999818921089 0.0028349999338388443 -0.0014479999663308263
v 0.004002999980002642 0.002942000050097704 0.0007929999846965075
v 0.002383999992161989 0.002263000002130866 0.002167999977245927
v 0.002085000043734908 0.00012099999730708078 0.0003370000049471855
v 0.0025130000431090593 -0.0006309999735094607 -0.0011820000363513827
v 0.004093000199645758 -0.0014990000054240227 -0.003788999980315566
v 0.013535999692976475 -0.0015490000369027257 -0.00014699999883305281
v 0.015048000030219555 -0.0012710000155493617 0.0035780000034719706
vn -0.036247000098228455 0.15971699357032776 0.9864969849586487
vn 0.5772330164909363 0.1800689995288849 0.7964779734611511
vn 0.8454139828681946 0.2464269995689392 0.47386598587036133
vn 0.350165992975235 0.6431909799575806 0.6809470057487488
vn -0.724390983581543 0.32573699951171875 0.6075800061225891
vn -0.7827919721603394 0.5299739837646484 0.32613399624824524
vn -0.8735420107841492 -0.17712700366973877 0.45337700843811035
vn -0.08985300362110138 -0.5454580187797546 0.8333079814910889
vn 0.7646229863166809 -0.25414401292800903 0.5922520160675049
vn 0.9685819745063782 0.0817210003733635 0.23488500714302063
vn 0.9569129943847656 0.14725500345230103 0.2502659857273102
vn 0.9991229772567749 -0.034040000289678574 0.02438800036907196
vn 0.9568510055541992 0.060756001621484756 0.284155011177063
vn 0.9554430246353149 0.18997499346733093 0.2259169965982437
vn 0.46412599086761475 0.871392011642456 -0.15894299745559692
vn -0.7263320088386536 0.6520199775695801 -0.21751199662685394
vn -0.950160026550293 0.2802099883556366 0.1366650015115738
vn -0.9620670080184937 0.2032960057258606 0.18192799389362335
vn -0.9632869958877563 0.26465898752212524 -0.045090001076459885
vn -0.9716669917106628 0.23335500061511993 -0.03753700107336044
vn -0.9696329832077026 0.009677000343799591 -0.24437299370765686
vn -0.5185649991035461 -0.8396850228309631 -0.16130700707435608
vn 0.3825890123844147 -0.9226160049438477 0.049052998423576355
vn 0.8761039972305298 -0.4781560003757477 -0.06171499937772751
vn 0.9948989748954773 -0.10019300132989883 0.011692999862134457
vn 0.9803959727287292 -0.014638000167906284 0.19649100303649902
vn 0.8361240029335022 0.2909199893474579 0.46504101157188416
vn 0.9608349800109863 0.181535005569458 0.2093849927186966
vn 0.8504509925842285 0.2599329948425293 -0.4573490023612976
vn -0.5813559889793396 0.3084479868412018 -0.7529169917106628
vn -0.9266830086708069 0.19578500092029572 -0.32082200050354004
vn -0.9381369948387146 0.24112099409103394 0.24851499497890472
vn -0.9743180274963379 0.10490400344133377 0.19924600422382355
vn -0.9203010201454163 0.36775699257850647 -0.133419007062912
vn -0.9675469994544983 0.20967799425125122 -0.14102500677108765
vn -0.9186890125274658 0.3063879907131195 -0.24927300214767456
vn -0.869350016117096 0.21308200061321259 -0.44589900970458984
vn -0.9001100063323975 0.3795369863510132 -0.21390299499034882
vn -0.9262670278549194 0.05892699956893921 -0.37223300337791443
vn -0.323650985956192 -0.5635759830474854 -0.7600209712982178
vn 0.6596779823303223 -0.5613470077514648 -0.4997139871120453
vn 0.9323580265045166 -0.30804699659347534 -0.18925100564956665
vn 0.9912409782409668 -0.12209700047969818 0.05033399909734726
vn 0.9642059803009033 -0.2595300078392029 -0.05431700125336647
vn 0.9243379831314087 0.016210999339818954 0.3812290132045746
vn 0.9917910099029541 -0.1215130016207695 -0.03982299938797951
vn 0.7533169984817505 -0.25940701365470886 -0.6043360233306885
vn -0.373522013425827 -0.03942900151014328 -0.92678302526474
vn -0.9309599995613098 0.2512049973011017 -0.26497000455856323
vn -0.8571900129318237 0.338250994682312 -0.38834598660469055
vn -0.8919240236282349 0.3546909987926483 -0.2804740071296692
vn -0.8205320239067078 0.45021799206733704 -0.35218000411987305
vn -0.9035040140151978 0.25241801142692566 -0.3463599979877472
vn -0.35006099939346313 -0.045214999467134476 -0.935634970664978
vn 0.6828410029411316 -0.2370550036430359 -0.6910380125045776
vn 0.921684980392456 -0.27112698554992676 -0.27746498584747314
f 1//1 2//2 3//3 4//4
f 5//5 1//1 4//4 6//6
f 7//7 8//8 1//1 5//5
f 8//8 9//9 2//2 1//1
f 2//2 10//10 11//11 3//3
f 9//9 12//12 10//10 2//2
f 3//3 11//11 13//13 14//14
f 4//4 3//3 14//14 15//15
f 6//6 4//4 15//15 16//16
f 17//17 5//5 6//6 18//18
f 19//19 7//7 5//5 17//17
f 18//18 6//6 16//16 20//20
f 21//21 22//22 7//7 19//19
f 22//22 23//23 8//8 7//7
f 23//23 24//24 9//9 8//8
f 24//24 25//25 12//12 9//9
f 26//26 11//11 10//10
f 26//26 10//10 12//12
f 26//26 13//13 11//11
f 26//26 12//12 25//25
f 14//14 13//13 27//27 28//28
f 26//26 27//27 13//13
f 15//15 14//14 28//28 29//29
f 16//16 15//15 29//29 30//30
f 20//20 16//16 30//30 31//31
f 32//32 17//17 18//18 33//33
f 34//34 19//19 17//17 32//32
f 33//33 18//18 20//20 35//35
f 36//36 21//21 19//19 34//34
f 35//35 20//20 31//31 37//37
f 38//38 39//39 21//21 36//36
f 39//39 40//40 22//22 21//21
f 40//40 41//41 23//23 22//22
f 41//41 42//42 24//24 23//23
f 42//42 43//43 25//25 24//24
f 26//26 25//25 43//43
f 26//26 43//43 44//44
f 26//26 44//44 45//45
f 26//26 45//45 27//27
f 28//28 27//27 45//45 46//46
f 29//29 28//28 46//46 47//47
f 30//30 29//29 47//47 48//48
f 31//31 30//30 48//48 49//49
f 37//37 31//31 49//49 50//50
f 32//32 33//33 51//51
f 34//34 32//32 51//51
f 33//33 35//35 51//51
f 36//36 34//34 51//51
f 35//35 37//37 51//51
f 38//38 36//36 51//51
f 37//37 50//50 51//51
f 52//52 53//53 39//39 38//38
f 52//52 38//38 51//51
f 53//53 54//54 40//40 39//39
f 54//54 55//55 41//41 40//40
f 55//55 56//56 42//42 41//41
f 56//56 44//44 43//43 42//42
f 46//46 45//45 44//44 56//56
f 47//47 46//46 56//56 55//55
f 48//48 47//47 55//55 54//54
f 49//49 48//48 54//54 53//53
f 50//50 49//49 53//53 52//52
f 50//50 52//52 51//51
