# Generated by Visualization Toolkit
v -0.06244799867272377 -0.07190100103616714 0.057002000510692596
v -0.06241700053215027 -0.06295300275087357 0.05553999915719032
v -0.04591900110244751 -0.0700170025229454 0.06940799951553345
v -0.05768200010061264 -0.05388399958610535 0.0645349994301796
v -0.04741299897432327 -0.0508590005338192 0.0811920017004013
v -0.08474999666213989 -0.08135099709033966 0.070701003074646
v -0.08732900023460388 -0.06496699899435043 0.06591200083494186
v -0.08048299700021744 -0.07264400273561478 0.06224900111556053
v -0.07697699964046478 -0.06699900329113007 0.05576999858021736
v -0.09478399902582169 -0.07856400310993195 0.0807029977440834
v -0.0757249966263771 -0.050801001489162445 0.05926299840211868
v -0.0776899978518486 -0.04427500069141388 0.06588400155305862
v -0.0845090001821518 -0.04830000177025795 0.06462199985980988
v -0.07020200043916702 -0.04483100026845932 0.06514400243759155
v -0.08986199647188187 -0.05421699956059456 0.07283099740743637
v -0.0915910005569458 -0.05018499866127968 0.08978500217199326
v -0.08514200150966644 -0.05386500060558319 0.0602400004863739
v -0.07879500091075897 -0.05839800089597702 0.056620001792907715
v -0.07162400335073471 -0.05830100178718567 0.055727001279592514
v -0.06702599674463272 -0.05392400175333023 0.056784000247716904
v -0.09766100347042084 -0.06094000115990639 0.09240300208330154
v -0.04888100177049637 -0.04884200170636177 0.09623400121927261
v -0.06169800087809563 -0.040081001818180084 0.08911299705505371
v -0.061427999287843704 -0.0461059994995594 0.06941100209951401
v -0.06535100191831589 -0.04949000105261803 0.06138300150632858
v -0.07242800295352936 -0.040380001068115234 0.07777100056409836
v -0.08804400265216827 -0.0489329993724823 0.10026100277900696
v -0.01810700073838234 0.019491000100970268 0.13293500244617462
v -0.02826699987053871 -0.009664000011980534 0.11259099841117859
v -0.04506099969148636 0.04386400058865547 0.12358400225639343
v -0.06304799765348434 -0.006570000201463699 0.09977000206708908
v -0.008839000016450882 -0.013895999640226364 0.1217460036277771
v -0.0010730000212788582 0.011409999802708626 0.12809500098228455
v -0.016222000122070312 0.03847299888730049 0.13264499604701996
v -0.042118001729249954 0.0512240007519722 0.13258600234985352
v -0.04267499968409538 0.07201399654150009 0.11913999915122986
v -0.06582900136709213 0.08302199840545654 0.1034889966249466
v -0.07751400023698807 0.02703399956226349 0.07983099669218063
v -0.0637039989233017 0.08993099629878998 0.10071299970149994
v -0.08681000024080276 0.09383200109004974 0.07634499669075012
v -0.10511799901723862 0.08241300284862518 0.07360199838876724
v -0.09758000075817108 0.07212600111961365 0.0717409998178482
v -0.12706400454044342 0.04984400048851967 0.06825800240039825
v -0.10192500054836273 -0.005537999793887138 0.07328999787569046
v -0.14004500210285187 0.0478379987180233 0.05786899849772453
v -0.13218900561332703 0.020569000393152237 0.06378500163555145
v -0.1357090026140213 0.025433000177145004 0.056811001151800156
v -0.14275600016117096 0.037852998822927475 0.05598900094628334
v -0.1218309998512268 0.07479699701070786 0.061409998685121536
v -0.1340949982404709 0.010596999898552895 0.05587499961256981
v -0.12025900185108185 -0.006688000168651342 0.06321600079536438
v -0.13033899664878845 -0.000990999978967011 0.05714099854230881
v -0.05893699824810028 -0.031863000243902206 0.06212899833917618
v -0.08371199667453766 0.01170899998396635 0.06080099940299988
v -0.03601500019431114 -0.01819700002670288 0.09512700140476227
v -0.04560700058937073 -0.037891000509262085 0.07883299887180328
v -0.0952640026807785 -0.012132000178098679 0.07011999934911728
v -0.09717199951410294 0.024295000359416008 0.05511000007390976
v -0.10435900092124939 0.010080000385642052 0.05077100172638893
v -0.1341399997472763 0.009514999575912952 0.05585600063204765
v -0.1188960000872612 0.02169100008904934 0.059151001274585724
v -0.06860499829053879 0.09188699722290039 0.08519399911165237
v -0.05693899840116501 0.031116999685764313 0.09857600182294846
v -0.08251599967479706 0.04438000172376633 0.06627599895000458
v -0.02383499965071678 -0.00930000003427267 0.10686399787664413
v 0 0 0.11871799826622009
v -0.008365999907255173 0.02201000042259693 0.1227789968252182
v -0.0011840000515803695 0.011483999900519848 0.1277489960193634
v -0.02613000012934208 0.04682299867272377 0.12051799893379211
v -0.0842449963092804 0.06599000096321106 0.05955300107598305
v -0.08052100241184235 0.08927000313997269 0.07094699889421463
v -0.09993299841880798 0.08017099648714066 0.05890699848532677
v -0.11078300327062607 0.04148799926042557 0.052253998816013336
v -0.14028300344944 0.027056999504566193 0.051667001098394394
v -0.1425669938325882 0.03686000034213066 0.05053799971938133
v -0.13044199347496033 0.03609300032258034 0.043880999088287354
v -0.13776400685310364 0.05295500159263611 0.051670998334884644
v -0.13577699661254883 0.02518099918961525 0.05677900090813637
v -0.10118400305509567 0.08732900023460388 0.06762400269508362
v -0.12133000046014786 0.05518599972128868 0.04885299876332283
v -0.09630300104618073 -0.10280700027942657 0.04032500088214874
v -0.10671199858188629 -0.11179099977016449 0.03616100177168846
v -0.0650470033288002 -0.09588900208473206 0.019015999510884285
v -0.04687799885869026 -0.07289200276136398 0.002406999934464693
v -0.026301000267267227 -0.07163099944591522 0.004815000109374523
v -0.02506200037896633 -0.07902900129556656 0.002220999915152788
v -0.05566300079226494 -0.09783899784088135 -0.00035099999513477087
v -0.055378999561071396 -0.08285000175237656 0.0017989999614655972
v -0.06275700032711029 -0.09050700068473816 0.01924300007522106
v -0.05560100078582764 -0.06462500244379044 0.037257999181747437
v -0.07277099788188934 -0.11734700202941895 0.02522999979555607
v -0.09212899953126907 -0.12087000161409378 0.035677000880241394
v -0.1191909983754158 -0.10148999840021133 0.06947500258684158
v -0.13573800027370453 -0.09693100303411484 0.06025899946689606
v -0.1318179965019226 -0.07584399729967117 0.0691239982843399
v -0.13561099767684937 -0.08439700305461884 0.054166000336408615
v -0.09889800101518631 -0.09076999872922897 0.05012999847531319
v -0.11430799961090088 -0.11507699638605118 0.05203000083565712
v -0.11174599826335907 -0.08662399649620056 0.07247799634933472
v -0.11836200207471848 -0.06669600307941437 0.06776399910449982
v -0.12694400548934937 -0.07042799890041351 0.06155899912118912
v -0.12535299360752106 -0.05440500006079674 0.052960000932216644
v -0.11085499823093414 -0.059932999312877655 0.06760399788618088
v -0.08937299996614456 -0.030293000862002373 0.06689000129699707
v -0.10255700349807739 -0.07941199839115143 0.07167500257492065
v -0.10534399747848511 -0.06381499767303467 0.07554300129413605
v -0.08078800141811371 -0.07560399919748306 0.04991300031542778
v -0.10096900165081024 -0.048285000026226044 0.0840580016374588
v -0.0624920018017292 -0.05519000068306923 0.05286100134253502
v -0.0546410009264946 -0.07442700117826462 0.05175400152802467
v -0.05262500047683716 -0.06742600351572037 0.04425499960780144
v -0.04187700152397156 -0.045942001044750214 0.08883299678564072
v -0.05991600081324577 -0.02758999913930893 0.0989999994635582
v -0.029562000185251236 -0.031116999685764313 0.09683000296354294
v -0.08815799653530121 -0.031197000294923782 0.09258099645376205
v -0.07133299857378006 -0.042764000594615936 0.10457500070333481
v -0.03156299889087677 -0.08354999870061874 0.016874000430107117
v -0.043487001210451126 -0.04759899899363518 0.0647059977054596
v -0.041829999536275864 -0.06555899977684021 0.06029500067234039
v -0.052737001329660416 -0.07682300359010696 0.05998000130057335
v -0.02194100059568882 -0.07554099708795547 0.02386699989438057
v -0.04335800185799599 -0.05973900109529495 0.04173799976706505
v -0.05417700111865997 -0.10202600061893463 0.005630999803543091
v -0.03627600148320198 -0.07274899631738663 0.03644900023937225
v -0.059230998158454895 -0.03203999996185303 0.06198599934577942
vn -0.17932400107383728 0.26663199067115784 0.9469689726829529
vn -0.3540230095386505 -0.10492700338363647 0.9293320178985596
vn -0.267536997795105 -0.6007310152053833 0.7533569931983948
vn -0.6371549963951111 -0.4717159867286682 0.6095229983329773
vn -0.7613509893417358 -0.5882250070571899 0.2726469933986664
vn 0.5379589796066284 -0.6008819937705994 0.5912200212478638
vn 0.8361070156097412 0.11347699910402298 0.5367010235786438
vn 0.4614369869232178 0.5107619762420654 0.7253950238227844
vn 0.3109149932861328 0.21517600119113922 0.9257599711418152
vn 0.010792000219225883 -0.5493320226669312 0.8355349898338318
vn 0.11499500274658203 -0.5735229849815369 0.8110780119895935
vn 0.36055800318717957 -0.8701059818267822 0.3360249996185303
vn 0.5583199858665466 -0.7019640207290649 0.4421829879283905
vn -0.14865699410438538 -0.8349959850311279 0.5297949910163879
vn 0.9119219779968262 -0.37702998518943787 0.16200700402259827
vn 0.8002229928970337 -0.5927960276603699 0.09074900299310684
vn 0.6700860261917114 -0.2539849877357483 0.6974779963493347
vn 0.3846319913864136 -0.10770100355148315 0.9167649745941162
vn 0.06675499677658081 -0.19842900335788727 0.9778389930725098
vn -0.24211999773979187 -0.45597898960113525 0.856423020362854
vn 0.05126100033521652 -0.5063949823379517 0.8607770204544067
vn -0.4350399971008301 -0.8194090127944946 0.3732430040836334
vn -0.210330992937088 -0.977590024471283 0.008925000205636024
vn -0.44244301319122314 -0.8020430207252502 0.4012109935283661
vn -0.33420899510383606 -0.6767500042915344 0.6559829711914062
vn 0.10453099757432938 -0.9862920045852661 0.12767499685287476
vn -0.011921999976038933 -0.8287659883499146 0.5594679713249207
vn -0.23118899762630463 -0.2731969952583313 0.9337639808654785
vn -0.3893429934978485 -0.7452449798583984 0.5413150191307068
vn -0.6928899884223938 -0.24489900469779968 0.6781799793243408
vn -0.5023120045661926 -0.21843700110912323 0.8366410136222839
vn 0.27570998668670654 -0.8323910236358643 0.4807389974594116
vn 0.20480599999427795 -0.14780600368976593 0.9675779938697815
vn 0.7149339914321899 0.5015169978141785 0.487185001373291
vn -0.3844529986381531 0.08969400078058243 0.9187769889831543
vn 0.47006601095199585 0.7807360291481018 0.41169100999832153
vn -0.6393499970436096 0.14480499923229218 0.755158007144928
vn -0.5654299855232239 0.010556000284850597 0.8247290253639221
vn -0.06700100004673004 0.8693150281906128 0.4896959960460663
vn -0.2669059932231903 0.9538969993591309 0.13726699352264404
vn -0.5633689761161804 0.38053399324417114 0.7333549857139587
vn -0.3655700087547302 -0.2011999934911728 0.9087780117988586
vn -0.393667995929718 0.039438001811504364 0.9184070229530334
vn -0.6134060025215149 -0.4941810071468353 0.6160500049591064
vn -0.863398015499115 0.27042001485824585 0.42593100666999817
vn -0.7208589911460876 -0.19362899661064148 0.6654850244522095
vn -0.8715370297431946 -0.3432309925556183 0.350165992975235
vn -0.9326260089874268 -0.18444399535655975 0.31014299392700195
vn -0.6627569794654846 0.7431150078773499 -0.09237899631261826
vn -0.7595729827880859 -0.18778599798679352 0.6227239966392517
vn -0.35253000259399414 -0.839148998260498 0.4141879975795746
vn -0.4372990131378174 -0.6412990093231201 -0.6304799914360046
vn 0.4729059934616089 0.10885799676179886 -0.8743619918823242
vn 0.40701499581336975 -0.11767599731683731 -0.9058099985122681
vn 0.6702150106430054 0.25932401418685913 -0.6953870058059692
vn 0.8423560261726379 0.21514999866485596 -0.4941120147705078
vn -0.9658769965171814 0.14281199872493744 -0.2160699963569641
vn 0.2117989957332611 0.10339599847793579 -0.9718279838562012
vn 0.06461299955844879 -0.1376110017299652 -0.9883769750595093
vn -0.05860999971628189 0.11708500236272812 -0.9913910031318665
vn 0.005119999870657921 -0.11179500073194504 -0.9937180280685425
vn 0.730417013168335 0.47332999110221863 -0.49239200353622437
vn 0.6090019941329956 0.17647799849510193 -0.7732869982719421
vn 0.6646580100059509 0.016411999240517616 -0.7469679713249207
vn 0.5276070237159729 -0.7081639766693115 -0.469184011220932
vn 0.7993829846382141 0.0027630000840872526 -0.6008149981498718
vn 0.7295460104942322 0.43183600902557373 -0.5303580164909363
vn 0.9768419861793518 0.21394899487495422 0.0023499999660998583
vn 0.746819019317627 0.37946799397468567 -0.5461360216140747
vn 0.5235580205917358 0.07765199989080429 -0.8484439849853516
vn 0.31398698687553406 0.6513950228691101 -0.6907219886779785
vn 0.028978999704122543 0.5518919825553894 -0.8334119915962219
vn 0.3223249912261963 -0.12805700302124023 -0.9379280209541321
vn -0.9288830161094666 -0.34763699769973755 -0.12776699662208557
vn -0.8928380012512207 0.07693299651145935 -0.4437580108642578
vn -0.07489900290966034 -0.1610260009765625 -0.9841039776802063
vn -0.6392930150032043 0.4549500048160553 -0.6199390292167664
vn 0.05143500119447708 -0.37915000319480896 -0.9239050149917603
vn -0.30183398723602295 0.9018759727478027 -0.30905699729919434
vn 0.04242200031876564 0.28662100434303284 -0.9571040272712708
vn 0.7165070176124573 0.5510269999504089 0.4277699887752533
vn -0.6033080220222473 -0.12241700291633606 -0.7880570292472839
vn 0.12269499897956848 0.8492259979248047 0.5135759711265564
vn -0.17475999891757965 0.523639976978302 -0.833823025226593
vn 0.442903995513916 0.8016039729118347 -0.4015809893608093
vn 0.6927639842033386 -0.3011780083179474 -0.6552630066871643
vn -0.3869769871234894 -0.14640900492668152 -0.9103919863700867
vn -0.7598490118980408 0.33230701088905334 -0.5587490200996399
vn -0.3167850077152252 -0.4571389853954315 0.8310670256614685
vn -0.7649080157279968 0.5704079866409302 -0.29924800992012024
vn 0.4892849922180176 -0.8651570081710815 0.11001700162887573
vn 0.15000300109386444 -0.9382920265197754 0.31161901354789734
vn 0.06780999898910522 -0.5151730179786682 0.8543990254402161
vn -0.8754240274429321 -0.473345011472702 0.09786500036716461
vn -0.6776139736175537 0.2975179851055145 0.6725500226020813
vn -0.5713139772415161 0.4390450119972229 -0.6934270262718201
vn 0.8067190051078796 -0.5903469920158386 -0.02636599913239479
vn 0.1028750017285347 -0.8770179748535156 0.4693149924278259
vn 0.1690559983253479 -0.13222399353981018 0.9766970276832581
vn -0.4075759947299957 0.47950300574302673 0.7771480083465576
vn -0.6600019931793213 0.5510690212249756 -0.5106080174446106
vn -0.7624949812889099 0.5741699934005737 -0.2982099950313568
vn -0.6309109926223755 0.16652999818325043 0.7577729821205139
vn 0.008816000074148178 0.26801401376724243 -0.9633749723434448
vn -0.2708759903907776 -0.652059018611908 0.7081279754638672
vn -0.8367319703102112 -0.2045609951019287 0.5079709887504578
vn 0.004592999815940857 -0.26767000555992126 -0.9635000228881836
vn -0.8375750184059143 0.17527399957180023 0.5174430012702942
vn -0.5226770043373108 0.1637360006570816 -0.8366590142250061
vn -0.5240190029144287 -0.5889700055122375 -0.6152380108833313
vn -0.808007001876831 -0.531387984752655 -0.2544650137424469
vn 0.9024739861488342 -0.10589200258255005 0.4175249934196472
vn -0.028317000716924667 -0.10282900184392929 0.9942960143089294
vn 0.9282789826393127 -0.3560599982738495 -0.10733100026845932
vn -0.5313230156898499 0.3292039930820465 0.7805899977684021
vn 0.08169200271368027 -0.10637100040912628 0.9909650087356567
vn 0.2984449863433838 -0.9322800040245056 0.2044139951467514
vn 0.9049810171127319 0.3832300007343292 -0.18477900326251984
vn 0.9792600274085999 -0.15669000148773193 0.12844599783420563
vn 0.10298900306224823 -0.9901869893074036 0.09446000307798386
vn 0.9750019907951355 0.12051299959421158 0.18667300045490265
vn 0.5979620218276978 0.7124410271644592 -0.36724498867988586
vn 0.6760439872741699 -0.6871309876441956 0.26611199975013733
vn 0.8741459846496582 -0.08039800077676773 0.4789629876613617
vn 0.08266700059175491 0.5013329982757568 -0.8612959980964661
f 3//3 2//2 1//1
f 5//5 4//4 3//3
f 8//8 7//7 6//6
f 9//9 7//7 8//8
f 6//6 7//7 10//10
f 11//11 12//12 13//13
f 12//12 11//11 14//14
f 12//12 15//15 13//13
f 15//15 12//12 16//16
f 1//1 2//2 9//9
f 17//17 15//15 7//7
f 18//18 17//17 7//7
f 18//18 7//7 9//9
f 19//19 11//11 18//18
f 20//20 19//19 2//2
f 7//7 21//21 10//10
f 15//15 16//16 7//7
f 7//7 16//16 21//21
f 3//3 22//22 5//5
f 23//23 5//5 22//22
f 24//24 4//4 5//5
f 24//24 5//5 23//23
f 25//25 11//11 20//20
f 25//25 20//20 4//4
f 26//26 23//23 27//27
f 26//26 24//24 23//23
f 20//20 2//2 4//4
f 25//25 4//4 24//24
f 14//14 25//25 24//24
f 14//14 24//24 26//26
f 19//19 9//9 2//2
f 19//19 18//18 9//9
f 17//17 11//11 13//13
f 18//18 11//11 17//17
f 16//16 12//12 26//26
f 26//26 27//27 16//16
f 16//16 27//27 21//21
f 20//20 11//11 19//19
f 14//14 11//11 25//25
f 13//13 15//15 17//17
f 30//30 29//29 28//28
f 31//31 29//29 30//30
f 32//32 28//28 29//29
f 33//33 28//28 32//32
f 28//28 33//33 34//34
f 35//35 28//28 34//34
f 35//35 30//30 28//28
f 35//35 34//34 36//36
f 37//37 38//38 30//30
f 35//35 37//37 30//30
f 37//37 35//35 36//36
f 37//37 36//36 39//39
f 41//41 37//37 40//40
f 41//41 42//42 37//37
f 40//40 37//37 39//39
f 42//42 43//43 38//38
f 37//37 42//42 38//38
f 31//31 30//30 38//38
f 44//44 31//31 38//38
f 44//44 38//38 43//43
f 45//45 46//46 43//43
f 47//47 46//46 48//48
f 74//74 47//47 48//48
f 48//48 46//46 45//45
f 49//49 43//43 41//41
f 41//41 43//43 42//42
f 49//49 45//45 43//43
f 50//50 46//46 47//47
f 50//50 51//51 46//46
f 52//52 51//51 50//50
f 51//51 44//44 43//43
f 43//43 46//46 51//51
f 53//53 54//54 55//55
f 55//55 114//114 56//56
f 55//55 56//56 53//53
f 57//57 54//54 53//53
f 59//59 58//58 54//54
f 59//59 54//54 51//51
f 59//59 51//51 52//52
f 60//60 59//59 52//52
f 59//59 61//61 58//58
f 44//44 54//54 57//57
f 51//51 54//54 44//44
f 62//62 63//63 64//64
f 63//63 54//54 64//64
f 114//114 55//55 65//65
f 66//66 32//32 65//65
f 68//68 66//66 67//67
f 32//32 66//66 68//68
f 54//54 63//63 55//55
f 55//55 63//63 65//65
f 65//65 63//63 66//66
f 67//67 63//63 69//69
f 69//69 63//63 62//62
f 68//68 67//67 34//34
f 34//34 67//67 69//69
f 36//36 34//34 69//69
f 36//36 69//69 62//62
f 36//36 62//62 39//39
f 64//64 70//70 62//62
f 71//71 70//70 72//72
f 73//73 70//70 64//64
f 58//58 73//73 64//64
f 58//58 61//61 73//73
f 74//74 75//75 76//76
f 77//77 75//75 45//45
f 75//75 77//77 76//76
f 73//73 61//61 76//76
f 76//76 61//61 78//78
f 78//78 74//74 76//76
f 76//76 74//74 78//78
f 61//61 60//60 78//78
f 79//79 49//49 41//41
f 79//79 72//72 49//49
f 40//40 71//71 79//79
f 40//40 79//79 41//41
f 39//39 62//62 40//40
f 71//71 40//40 62//62
f 77//77 45//45 49//49
f 72//72 70//70 80//80
f 73//73 80//80 70//70
f 80//80 77//77 49//49
f 76//76 77//77 80//80
f 60//60 61//61 59//59
f 76//76 80//80 73//73
f 58//58 64//64 54//54
f 62//62 70//70 71//71
f 79//79 71//71 72//72
f 67//67 66//66 63//63
f 83//83 82//82 81//81
f 84//84 85//85 86//86
f 87//87 84//84 86//86
f 84//84 87//87 88//88
f 87//87 89//89 90//90
f 88//88 87//87 90//90
f 90//90 84//84 88//88
f 82//82 91//91 92//92
f 95//95 94//94 93//93
f 96//96 94//94 95//95
f 82//82 94//94 96//96
f 82//82 96//96 81//81
f 96//96 97//97 81//81
f 94//94 82//82 98//98
f 94//94 98//98 93//93
f 100//100 95//95 99//99
f 100//100 101//101 95//95
f 100//100 103//103 102//102
f 104//104 102//102 57//57
f 100//100 99//99 103//103
f 103//103 99//99 105//105
f 106//106 103//103 105//105
f 107//107 101//101 102//102
f 21//21 106//106 10//10
f 108//108 106//106 21//21
f 104//104 107//107 102//102
f 110//110 107//107 109//109
f 110//110 109//109 111//111
f 111//111 109//109 90//90
f 114//114 113//113 112//112
f 65//65 113//113 114//114
f 31//31 113//113 65//65
f 115//115 113//113 31//31
f 113//113 116//116 112//112
f 115//115 31//31 57//57
f 31//31 44//44 57//57
f 108//108 21//21 27//27
f 115//115 108//108 27//27
f 115//115 27//27 116//116
f 108//108 115//115 57//57
f 108//108 57//57 103//103
f 10//10 105//105 6//6
f 97//97 96//96 101//101
f 107//107 97//97 101//101
f 86//86 117//117 87//87
f 119//119 118//118 112//112
f 90//90 122//122 121//121
f 90//90 121//121 85//85
f 90//90 85//85 84//84
f 123//123 91//91 87//87
f 82//82 87//87 91//91
f 98//98 97//97 93//93
f 81//81 97//97 98//98
f 81//81 98//98 92//92
f 92//92 91//91 81//81
f 121//121 124//124 117//117
f 117//117 124//124 119//119
f 119//119 120//120 117//117
f 90//90 117//117 111//111
f 111//111 117//117 110//110
f 110//110 117//117 120//120
f 121//121 117//117 86//86
f 121//121 86//86 85//85
f 93//93 97//97 99//99
f 97//97 107//107 6//6
f 97//97 6//6 105//105
f 99//99 97//97 105//105
f 83//83 91//91 123//123
f 89//89 83//83 123//123
f 83//83 81//81 91//91
f 89//89 123//123 117//117
f 123//123 87//87 117//117
f 109//109 107//107 125//125
f 122//122 118//118 119//119
f 122//122 119//119 124//124
f 122//122 124//124 121//121
f 112//112 118//118 56//56
f 56//56 118//118 125//125
f 109//109 122//122 90//90
f 112//112 56//56 114//114
f 57//57 125//125 104//104
f 125//125 107//107 104//104
f 109//109 125//125 122//122
f 125//125 118//118 122//122
f 90//90 89//89 117//117
f 98//98 82//82 92//92
f 87//87 82//82 83//83
f 95//95 93//93 99//99
f 103//103 57//57 102//102
f 95//95 101//101 96//96
f 106//106 105//105 10//10
f 113//113 115//115 116//116
f 14//14 26//26 12//12
f 3//3 4//4 2//2
f 1//1 8//8 6//6
f 8//8 1//1 9//9
f 22//22 116//116 23//23
f 27//27 23//23 116//116
f 112//112 116//116 22//22
f 3//3 112//112 22//22
f 112//112 3//3 119//119
f 1//1 120//120 3//3
f 3//3 120//120 119//119
f 107//107 120//120 6//6
f 110//110 120//120 107//107
f 102//102 101//101 100//100
f 106//106 108//108 103//103
f 65//65 32//32 29//29
f 31//31 65//65 29//29
f 49//49 72//72 80//80
f 89//89 87//87 83//83
f 45//45 75//75 48//48
f 48//48 75//75 74//74
