# Generated by Visualization Toolkit
v 0.061751000583171844 -0.1617719978094101 0.026194000616669655
v 0.06262499839067459 -0.1625870019197464 0.029903000220656395
v 0.060662999749183655 -0.16241799294948578 0.028044000267982483
v 0.06045899912714958 -0.16112400591373444 0.025728000327944756
v 0.06333599984645844 -0.16271300613880157 0.028202999383211136
v 0.06215500086545944 -0.16090600192546844 0.02566399984061718
v 0.06416299939155579 -0.16199499368667603 0.027274999767541885
v 0.0589740015566349 -0.16244499385356903 0.02897300012409687
v 0.0641850009560585 -0.16252200305461884 0.029572999104857445
v 0.059537000954151154 -0.16230100393295288 0.03005100041627884
v 0.06031699851155281 -0.16181999444961548 0.03093699924647808
v 0.06343399733304977 -0.1623309999704361 0.030820000916719437
v 0.06242400035262108 -0.16193300485610962 0.03142999857664108
v 0.056046999990940094 -0.16127599775791168 0.027506999671459198
v 0.05714099854230881 -0.16039900481700897 0.02638299949467182
v 0.0577859990298748 -0.1602959930896759 0.026170000433921814
v 0.05940999835729599 -0.1597840040922165 0.024979999288916588
v 0.05751200020313263 -0.15932400524616241 0.025102000683546066
v 0.05812299996614456 -0.1594109982252121 0.024991000071167946
v 0.057812999933958054 -0.1596670001745224 0.025376999750733376
v 0.06473000347614288 -0.16233199834823608 0.028769999742507935
v 0.06266800314188004 -0.16059599816799164 0.02627200074493885
v 0.06445900350809097 -0.16185200214385986 0.02921699918806553
v 0.06308399885892868 -0.16072100400924683 0.028432000428438187
v 0.056644998490810394 -0.1617179960012436 0.02950499951839447
v 0.06419400125741959 -0.1622689962387085 0.03047100082039833
v 0.05806000158190727 -0.16051000356674194 0.03138099983334541
v 0.05726400017738342 -0.1605830043554306 0.03125400096178055
v 0.056682001799345016 -0.16043299436569214 0.03130299970507622
v 0.05513099953532219 -0.1607310026884079 0.030866000801324844
v 0.061524998396635056 -0.16112199425697327 0.03221900016069412
v 0.058681998401880264 -0.16058200597763062 0.03217700123786926
v 0.06289199739694595 -0.1618189960718155 0.031599000096321106
v 0.06327000260353088 -0.16142700612545013 0.03089199960231781
v 0.05539900064468384 -0.1604440063238144 0.026590999215841293
v 0.05288900062441826 -0.16014300286769867 0.025950999930500984
v 0.048893000930547714 -0.1598220020532608 0.030861999839544296
v 0.05591699853539467 -0.1598310023546219 0.026272999122738838
v 0.05692699924111366 -0.15987800061702728 0.02647699974477291
v 0.05772700160741806 -0.1596660017967224 0.02653999999165535
v 0.058208998292684555 -0.15898899734020233 0.02539299987256527
v 0.05816899985074997 -0.15949100255966187 0.027155999094247818
v 0.059866998344659805 -0.15968500077724457 0.029121000319719315
v 0.05091499909758568 -0.15999799966812134 0.03133099898695946
v 0.057659998536109924 -0.16012699902057648 0.031996000558137894
v 0.05764399841427803 -0.1599379926919937 0.03135000169277191
v 0.056908998638391495 -0.1598850041627884 0.03099299967288971
v 0.05628800019621849 -0.16003799438476562 0.03119800053536892
v 0.05564400181174278 -0.16022300720214844 0.031116999685764313
v 0.053752001374959946 -0.15965600311756134 0.0314130000770092
v 0.059431999921798706 -0.16033299267292023 0.03256300091743469
v 0.05952399969100952 -0.1597999930381775 0.03235600143671036
v 0.05356600135564804 -0.15991100668907166 0.025797000154852867
v 0.05335500091314316 -0.15891000628471375 0.025270000100135803
v 0.05097699910402298 -0.15955600142478943 0.024430999532341957
v 0.050276998430490494 -0.15998099744319916 0.02536799944937229
v 0.04930099844932556 -0.15964500606060028 0.03169599920511246
v 0.04708800092339516 -0.16008399426937103 0.03007199987769127
v 0.04846600070595741 -0.16017000377178192 0.024385999888181686
v 0.0570949986577034 -0.1596290022134781 0.02689399942755699
v 0.05602499842643738 -0.15925900638103485 0.027052000164985657
v 0.055073998868465424 -0.158827006816864 0.02672000043094158
v 0.057565998286008835 -0.15943999588489532 0.02893799915909767
v 0.05809900164604187 -0.15941399335861206 0.032294999808073044
v 0.05803700163960457 -0.15973199903964996 0.0310210008174181
v 0.051681999117136 -0.15859100222587585 0.032356999814510345
v 0.04999599978327751 -0.15904900431632996 0.03271599858999252
v 0.05804000049829483 -0.1598999947309494 0.032620999962091446
v 0.05720899999141693 -0.15970100462436676 0.03242599964141846
v 0.05572900176048279 -0.1595579981803894 0.030858999118208885
v 0.05479099974036217 -0.15903900563716888 0.030995000153779984
v 0.05153400078415871 -0.15737399458885193 0.0328029990196228
v 0.058809999376535416 -0.15982399880886078 0.032604001462459564
v 0.0516199991106987 -0.15827499330043793 0.023730000481009483
v 0.05350600183010101 -0.15799100697040558 0.02597000077366829
v 0.05289600044488907 -0.1581919938325882 0.025064000859856606
v 0.04884599894285202 -0.15990999341011047 0.02338399924337864
v 0.04913400113582611 -0.15942500531673431 0.022691000252962112
v 0.04956100136041641 -0.1589210033416748 0.022314999252557755
v 0.046943001449108124 -0.1595280021429062 0.03187299892306328
v 0.04593300074338913 -0.1598930060863495 0.030274000018835068
v 0.04603800177574158 -0.15986500680446625 0.02695400081574917
v 0.04770499840378761 -0.15994399785995483 0.02437100000679493
v 0.05391300097107887 -0.157927006483078 0.03024899959564209
v 0.055723000317811966 -0.15892399847507477 0.029557999223470688
v 0.05020799860358238 -0.15531599521636963 0.02660300023853779
v 0.047919001430273056 -0.15886500477790833 0.03339000046253204
v 0.049125999212265015 -0.15790300071239471 0.034008000046014786
v 0.05066100135445595 -0.15548300743103027 0.03294700011610985
v 0.0503540001809597 -0.15581999719142914 0.03350700065493584
v 0.05052600055932999 -0.15765799582004547 0.02245599962770939
v 0.05153999850153923 -0.15706400573253632 0.023667000234127045
v 0.048340000212192535 -0.15964899957180023 0.02333500050008297
v 0.048836998641490936 -0.15772099792957306 0.02255300059914589
v 0.04799500107765198 -0.1593330055475235 0.023587999865412712
v 0.04980500042438507 -0.15740300714969635 0.022221999242901802
v 0.047463998198509216 -0.15842700004577637 0.028324000537395477
v 0.04812299832701683 -0.1576160043478012 0.028291000053286552
v 0.048987001180648804 -0.1562660038471222 0.02974499948322773
v 0.04818800091743469 -0.1576170027256012 0.0328500010073185
v 0.04828000068664551 -0.1582310050725937 0.025144999846816063
v 0.05087599903345108 -0.15528300404548645 0.032207001000642776
v 0.048719000071287155 -0.15491299331188202 0.029205000028014183
v 0.04904799908399582 -0.1553869992494583 0.02482599951326847
v 0.05037999898195267 -0.1561100035905838 0.023832999169826508
v 0.048266999423503876 -0.1575309932231903 0.03389900177717209
v 0.048399001359939575 -0.15645000338554382 0.03382699936628342
v 0.04870200157165527 -0.1559399962425232 0.03368400037288666
v 0.05009699985384941 -0.15530699491500854 0.032947998493909836
v 0.04930099844932556 -0.15489600598812103 0.03215700015425682
v 0.04913900047540665 -0.15549300611019135 0.03339099884033203
v 0.05105099827051163 -0.1568470001220703 0.023228000849485397
v 0.04992299899458885 -0.1563819944858551 0.023034999147057533
v 0.048799000680446625 -0.15705400705337524 0.022718999534845352
v 0.048489999026060104 -0.1576099991798401 0.023933999240398407
v 0.048478998243808746 -0.15708300471305847 0.02833399921655655
v 0.048902999609708786 -0.1563660055398941 0.027285000309348106
v 0.04882099851965904 -0.15665499866008759 0.027883000671863556
v 0.048367999494075775 -0.1554969996213913 0.0322519987821579
v 0.04879099875688553 -0.15659099817276 0.028656000271439552
v 0.04862099885940552 -0.1559309959411621 0.028263000771403313
v 0.04838399961590767 -0.15529200434684753 0.02709599956870079
v 0.04977500066161156 -0.15590499341487885 0.023725999519228935
v 0.048409998416900635 -0.1560090035200119 0.023879000917077065
v 0.04825099930167198 -0.1555429995059967 0.025508999824523926
vn -0.008604999631643295 -0.8490800261497498 -0.528194010257721
vn -0.06278499960899353 -0.9862319827079773 0.15298399329185486
vn -0.12721699476242065 -0.8932070136070251 -0.4312739968299866
vn -0.20611600577831268 -0.6962400078773499 -0.6875799894332886
vn 0.0980369970202446 -0.9766430258750916 -0.19119900465011597
vn 0.3468509912490845 -0.17993099987506866 -0.9204999804496765
vn 0.8036249876022339 -0.013910000212490559 -0.5949739813804626
vn -0.17399699985980988 -0.9844430088996887 -0.024438999593257904
vn 0.47607100009918213 -0.8482180237770081 0.23212799429893494
vn -0.1528709977865219 -0.8219670057296753 0.5486350059509277
vn -0.21472999453544617 -0.8355979919433594 0.5056350231170654
vn 0.2979680001735687 -0.7484570145606995 0.5924760103225708
vn -0.1040090024471283 -0.8469589948654175 0.5213860273361206
vn -0.16369399428367615 -0.8934379816055298 -0.41829800605773926
vn -0.08983799815177917 -0.4338969886302948 -0.8964719772338867
vn -0.47030699253082275 -0.3983609974384308 -0.7874770164489746
vn 0.2213899940252304 0.2734380066394806 -0.9360650181770325
vn -0.6445519924163818 -0.2584820091724396 -0.7195410132408142
vn -0.08228500187397003 0.04707400128245354 -0.9954969882965088
vn -0.994903028011322 0.04772999882698059 -0.08882199972867966
vn 0.8718209862709045 -0.4897879958152771 0.0059529999271035194
vn 0.5210480093955994 0.7799779772758484 -0.3466170132160187
vn 0.8744639754295349 0.4552989900112152 0.1673779934644699
vn 0.4293220043182373 0.8954139947891235 0.11796700209379196
vn -0.22729499638080597 -0.9498339891433716 0.21483300626277924
vn 0.7919800281524658 -0.23530499637126923 0.5633820295333862
vn -0.2576110064983368 -0.8173140287399292 0.5153980255126953
vn -0.2628830075263977 -0.48005300760269165 0.8369240164756775
vn -0.10995300114154816 -0.10192199796438217 0.9886969923973083
vn -0.10940200090408325 -0.6208599805831909 0.7762500047683716
vn 0.2698580026626587 -0.03795799985527992 0.9621520042419434
vn -0.31692200899124146 -0.7575809955596924 0.5706409811973572
vn 0.3732979893684387 0.08302100002765656 0.9239889979362488
vn 0.5465949773788452 0.6119449734687805 0.5716260075569153
vn 0.07180099934339523 -0.6005079746246338 -0.7963879704475403
vn 0.009120999835431576 -0.9012960195541382 -0.43310800194740295
vn -0.08093000203371048 -0.9934970140457153 0.08008799701929092
vn 0.26930099725723267 0.39508700370788574 -0.8782839775085449
vn -0.050988998264074326 0.5529239773750305 -0.8316699862480164
vn -0.4172140061855316 0.8117390275001526 -0.4086720049381256
vn -0.13628600537776947 0.981777012348175 -0.1324390023946762
vn -0.26512399315834045 0.9641159772872925 0.013795999810099602
vn 0.17907199263572693 0.9815549850463867 0.06695300340652466
vn -0.00967399962246418 -0.7923669815063477 0.6099680066108704
vn -0.7295780181884766 -0.503462016582489 0.4628629982471466
vn -0.5790449976921082 0.6517040133476257 0.48988598585128784
vn -0.07383999973535538 0.8353559970855713 0.5447279810905457
vn -0.09944699704647064 0.63857102394104 0.7631099820137024
vn -0.019677000120282173 0.23121300339698792 0.9727039933204651
vn 0.17620299756526947 -0.29034900665283203 0.9405580163002014
vn -0.021933000534772873 -0.2675679922103882 0.9632890224456787
vn 0.3578279912471771 0.7257260084152222 0.5876060128211975
vn 0.29496899247169495 -0.5864350199699402 -0.7543789744377136
vn 0.5651299953460693 0.07016400247812271 -0.8220130205154419
vn 0.30406901240348816 -0.8303080201148987 -0.46704500913619995
vn 0.07104700058698654 -0.9862139821052551 -0.1494469940662384
vn -0.035597000271081924 -0.9313820004463196 0.36229801177978516
vn -0.07183100283145905 -0.9922410249710083 0.10147900134325027
vn 0.021890999749302864 -0.9923380017280579 -0.12159500271081924
vn 0.12592600286006927 0.9490100145339966 -0.289002001285553
vn 0.36682599782943726 0.8521689772605896 -0.37315699458122253
vn 0.5443909764289856 0.7395809888839722 -0.39580100774765015
vn 0.11420600116252899 0.9870030283927917 0.11306100338697433
vn -0.3001079857349396 0.9498819708824158 0.08751299977302551
vn -0.2101770043373108 0.9756439924240112 0.06280600279569626
vn 0.23386399447917938 -0.48107901215553284 0.8449079990386963
vn 0.1840589940547943 -0.7161639928817749 0.6732249855995178
vn -0.18915599584579468 -0.36890798807144165 0.9100149869918823
vn -0.40277600288391113 0.49612799286842346 0.7691739797592163
vn 0.304284006357193 0.7092679738998413 0.635886013507843
vn 0.5343289971351624 0.4217579960823059 0.7325389981269836
vn 0.4020490050315857 -0.22139599919319153 0.8884479999542236
vn 0.08985599875450134 0.46331000328063965 0.8816289901733398
vn 0.6440160274505615 -0.235725998878479 -0.7277889847755432
vn 0.6856889724731445 0.5312730073928833 -0.49757298827171326
vn 0.7443299889564514 0.20225399732589722 -0.6364480257034302
vn -0.07567299902439117 -0.8997949957847595 -0.4297010004520416
vn -0.2637549936771393 -0.5400620102882385 -0.7992290258407593
vn 0.20260900259017944 -0.3960059881210327 -0.8956170082092285
vn -0.8663079738616943 -0.18091000616550446 0.465599000453949
vn -0.9324340224266052 -0.25304898619651794 0.25793999433517456
vn -0.9673600196838379 0.10730399936437607 -0.22956499457359314
vn -0.47847801446914673 -0.7993119955062866 -0.3635370135307312
vn 0.5735219717025757 0.8149049878120422 0.08368299901485443
vn 0.44220098853111267 0.8681380152702332 0.22537599503993988
vn 0.46256300806999207 0.8738470077514648 -0.14975400269031525
vn -0.5525259971618652 -0.3899630010128021 0.7366440296173096
vn 0.15661700069904327 -0.16421499848365784 0.9739120006561279
vn 0.502174973487854 0.7635729908943176 0.40592700242996216
vn 0.33159199357032776 0.3989039957523346 0.8549399971961975
vn 0.5632680058479309 0.14113999903202057 -0.8141310214996338
vn 0.744359016418457 0.4322589933872223 -0.5090000033378601
vn -0.5498769879341125 -0.5207769870758057 -0.6530140042304993
vn -0.6875079870223999 0.03391699865460396 -0.725383996963501
vn -0.8567839860916138 0.057691000401973724 -0.5124379992485046
vn -0.03499399870634079 0.27953100204467773 -0.9594990015029907
vn -0.7065560221672058 0.7013689875602722 0.09413500130176544
vn -0.8029940128326416 0.5959870219230652 0.00031599999056197703
vn -0.9733719825744629 0.22922000288963318 0.0023219999857246876
vn -0.9694309830665588 0.2368679940700531 0.06401299685239792
vn -0.859453022480011 0.49365198612213135 -0.13284499943256378
vn 0.43023601174354553 0.895982027053833 0.11006399989128113
vn -0.5948179960250854 0.8038550019264221 0.0030739998910576105
vn -0.054802000522613525 0.9701679944992065 -0.23615799844264984
vn 0.45119398832321167 0.8424460291862488 -0.29446399211883545
vn -0.7473120093345642 0.04718500003218651 0.6627960205078125
vn -0.7833880186080933 0.44178900122642517 0.43717899918556213
vn -0.16527999937534332 0.4528310000896454 0.8761429786682129
vn 0.18090300261974335 0.8612779974937439 0.474839985370636
vn -0.14555400609970093 0.9524570107460022 0.26765701174736023
vn -0.32978901267051697 0.8515200018882751 0.40761798620224
vn 0.5054669976234436 0.6400660276412964 -0.5786349773406982
vn 0.11898999661207199 0.6977980136871338 -0.7063419818878174
vn -0.6394420266151428 0.34927499294281006 -0.6849240064620972
vn -0.9920510053634644 0.07922700047492981 -0.09776099771261215
vn -0.8293190002441406 0.5563880205154419 -0.05160899832844734
vn -0.9995369911193848 0.01756500080227852 0.024829000234603882
vn -0.9540590047836304 0.29638999700546265 -0.043855998665094376
vn -0.9333620071411133 0.35374000668525696 0.06086000055074692
vn -0.9796440005302429 0.19860300421714783 0.029234999790787697
vn -0.9793109893798828 -0.19537800550460815 0.05269800126552582
vn -0.9599440097808838 0.28019100427627563 -0.0006689999718219042
vn 0.17893600463867188 0.8627309799194336 -0.4729439914226532
vn -0.5851539969444275 0.6418370008468628 -0.4956200122833252
vn -0.9563869833946228 0.28977400064468384 -0.03682199865579605
f 1//1 2//2 3//3
f 4//4 1//1 3//3
f 5//5 2//2 1//1
f 6//6 1//1 4//4
f 5//5 1//1 7//7
f 7//7 1//1 6//6
f 3//3 2//2 8//8
f 5//5 9//9 2//2
f 10//10 2//2 11//11
f 10//10 8//8 2//2
f 12//12 2//2 9//9
f 2//2 13//13 11//11
f 2//2 12//12 13//13
f 3//3 8//8 14//14
f 15//15 3//3 14//14
f 3//3 15//15 16//16
f 4//4 3//3 16//16
f 17//17 6//6 4//4
f 4//4 18//18 19//19
f 4//4 20//20 18//18
f 19//19 17//17 4//4
f 16//16 20//20 4//4
f 7//7 21//21 5//5
f 5//5 21//21 9//9
f 17//17 22//22 6//6
f 7//7 6//6 22//22
f 23//23 21//21 7//7
f 22//22 24//24 7//7
f 7//7 24//24 23//23
f 14//14 8//8 25//25
f 10//10 25//25 8//8
f 26//26 12//12 9//9
f 23//23 26//26 9//9
f 23//23 9//9 21//21
f 27//27 10//10 11//11
f 10//10 28//28 29//29
f 10//10 30//30 25//25
f 29//29 30//30 10//10
f 28//28 10//10 27//27
f 11//11 13//13 31//31
f 11//11 31//31 32//32
f 11//11 32//32 27//27
f 12//12 33//33 13//13
f 34//34 33//33 12//12
f 26//26 34//34 12//12
f 13//13 33//33 31//31
f 35//35 14//14 36//36
f 36//36 14//14 37//37
f 14//14 35//35 15//15
f 14//14 25//25 37//37
f 38//38 15//15 35//35
f 38//38 39//39 15//15
f 16//16 15//15 39//39
f 39//39 40//40 16//16
f 40//40 20//20 16//16
f 19//19 41//41 17//17
f 22//22 17//17 41//41
f 18//18 41//41 19//19
f 20//20 41//41 18//18
f 41//41 20//20 42//42
f 42//42 20//20 40//40
f 24//24 22//22 43//43
f 43//43 22//22 41//41
f 26//26 23//23 34//34
f 34//34 23//23 24//24
f 24//24 31//31 33//33
f 24//24 43//43 31//31
f 33//33 34//34 24//24
f 37//37 25//25 44//44
f 44//44 25//25 30//30
f 32//32 45//45 27//27
f 45//45 28//28 27//27
f 28//28 46//46 29//29
f 46//46 28//28 45//45
f 46//46 47//47 29//29
f 48//48 29//29 47//47
f 49//49 30//30 29//29
f 49//49 29//29 48//48
f 30//30 50//50 44//44
f 30//30 49//49 50//50
f 32//32 31//31 51//51
f 52//52 51//51 31//31
f 31//31 43//43 52//52
f 51//51 45//45 32//32
f 36//36 53//53 35//35
f 35//35 54//54 38//38
f 54//54 35//35 53//53
f 36//36 55//55 53//53
f 55//55 36//36 56//56
f 37//37 56//56 36//36
f 57//57 58//58 37//37
f 37//37 44//44 57//57
f 37//37 58//58 59//59
f 56//56 37//37 59//59
f 38//38 60//60 39//39
f 60//60 38//38 61//61
f 38//38 62//62 61//61
f 38//38 54//54 62//62
f 39//39 60//60 40//40
f 60//60 42//42 40//40
f 42//42 43//43 41//41
f 42//42 60//60 63//63
f 63//63 43//43 42//42
f 43//43 64//64 52//52
f 63//63 65//65 43//43
f 65//65 64//64 43//43
f 44//44 50//50 66//66
f 44//44 66//66 67//67
f 57//57 44//44 67//67
f 51//51 68//68 45//45
f 64//64 46//46 45//45
f 69//69 45//45 68//68
f 64//64 45//45 69//69
f 47//47 46//46 65//65
f 64//64 65//65 46//46
f 70//70 47//47 63//63
f 47//47 65//65 63//63
f 47//47 70//70 49//49
f 48//48 47//47 49//49
f 49//49 71//71 50//50
f 70//70 71//71 49//49
f 71//71 72//72 50//50
f 50//50 72//72 66//66
f 51//51 52//52 73//73
f 51//51 73//73 68//68
f 52//52 64//64 73//73
f 53//53 55//55 74//74
f 53//53 74//74 54//54
f 75//75 54//54 76//76
f 76//76 54//54 74//74
f 62//62 54//54 75//75
f 55//55 56//56 59//59
f 55//55 59//59 77//77
f 55//55 78//78 79//79
f 55//55 77//77 78//78
f 74//74 55//55 79//79
f 58//58 57//57 80//80
f 80//80 57//57 67//67
f 80//80 81//81 58//58
f 82//82 58//58 81//81
f 83//83 58//58 82//82
f 83//83 59//59 58//58
f 77//77 59//59 83//83
f 84//84 85//85 60//60
f 61//61 84//84 60//60
f 85//85 63//63 60//60
f 61//61 62//62 84//84
f 84//84 62//62 86//86
f 86//86 62//62 75//75
f 63//63 85//85 70//70
f 73//73 64//64 69//69
f 72//72 67//67 66//66
f 87//87 67//67 88//88
f 67//67 87//87 80//80
f 88//88 67//67 72//72
f 73//73 69//69 68//68
f 85//85 71//71 70//70
f 71//71 85//85 84//84
f 71//71 84//84 89//89
f 71//71 90//90 72//72
f 71//71 89//89 90//90
f 90//90 88//88 72//72
f 74//74 79//79 91//91
f 76//76 74//74 92//92
f 92//92 74//74 91//91
f 75//75 76//76 92//92
f 86//86 75//75 92//92
f 77//77 93//93 78//78
f 93//93 77//77 83//83
f 94//94 79//79 78//78
f 78//78 93//93 95//95
f 78//78 95//95 94//94
f 96//96 91//91 79//79
f 96//96 79//79 94//94
f 80//80 97//97 81//81
f 98//98 80//80 99//99
f 100//100 80//80 87//87
f 80//80 100//100 99//99
f 98//98 97//97 80//80
f 81//81 97//97 82//82
f 83//83 82//82 95//95
f 82//82 101//101 95//95
f 98//98 82//82 97//97
f 98//98 101//101 82//82
f 93//93 83//83 95//95
f 102//102 89//89 84//84
f 86//86 102//102 84//84
f 102//102 86//86 103//103
f 104//104 103//103 86//86
f 105//105 104//104 86//86
f 92//92 105//105 86//86
f 88//88 106//106 87//87
f 100//100 87//87 106//106
f 106//106 88//88 107//107
f 107//107 88//88 108//108
f 88//88 90//90 108//108
f 109//109 90//90 89//89
f 110//110 89//89 102//102
f 110//110 109//109 89//89
f 90//90 109//109 111//111
f 108//108 90//90 111//111
f 112//112 92//92 91//91
f 91//91 113//113 112//112
f 113//113 91//91 96//96
f 112//112 105//105 92//92
f 96//96 94//94 114//114
f 115//115 94//94 95//95
f 115//115 114//114 94//94
f 95//95 101//101 115//115
f 114//114 113//113 96//96
f 116//116 98//98 99//99
f 117//117 101//101 98//98
f 117//117 98//98 118//118
f 116//116 118//118 98//98
f 99//99 119//119 103//103
f 116//116 99//99 120//120
f 119//119 99//99 100//100
f 99//99 103//103 121//121
f 121//121 120//120 99//99
f 107//107 100//100 106//106
f 100//100 107//107 119//119
f 115//115 101//101 117//117
f 102//102 103//103 110//110
f 119//119 110//110 103//103
f 103//103 104//104 122//122
f 122//122 121//121 103//103
f 104//104 105//105 123//123
f 104//104 123//123 124//124
f 125//125 104//104 124//124
f 104//104 125//125 122//122
f 123//123 105//105 112//112
f 107//107 108//108 111//111
f 107//107 110//110 119//119
f 111//111 110//110 107//107
f 110//110 111//111 109//109
f 123//123 112//112 113//113
f 124//124 123//123 113//113
f 113//113 114//114 124//124
f 114//114 115//115 124//124
f 124//124 115//115 125//125
f 117//117 125//125 115//115
f 116//116 120//120 118//118
f 122//122 117//117 121//121
f 118//118 121//121 117//117
f 122//122 125//125 117//117
f 121//121 118//118 120//120
