# Generated by Visualization Toolkit
v 0.022458000108599663 -0.13851700723171234 0.021595999598503113
v 0.025033999234437943 -0.1391250044107437 0.020639000460505486
v 0.021265000104904175 -0.1415189951658249 0.022206999361515045
v 0.01928200013935566 -0.1395290046930313 0.022141000255942345
v 0.021486999467015266 -0.13438500463962555 0.02017899975180626
v 0.01923700049519539 -0.13607899844646454 0.020937999710440636
v 0.01974100060760975 -0.13419100642204285 0.020685000345110893
v 0.02463800087571144 -0.14097900688648224 0.021391000598669052
v 0.026101000607013702 -0.13757899403572083 0.021157000213861465
v 0.026131000369787216 -0.13868600130081177 0.02147199958562851
v 0.024622000753879547 -0.13704000413417816 0.020013000816106796
v 0.02214900031685829 -0.14191600680351257 0.022123999893665314
v 0.020106999203562737 -0.14101000130176544 0.023919999599456787
v 0.021880000829696655 -0.14214399456977844 0.02380399964749813
v 0.01802000030875206 -0.1362760066986084 0.022306999191641808
v 0.017849000170826912 -0.13505899906158447 0.028387999162077904
v 0.02047399990260601 -0.13390399515628815 0.020560000091791153
v 0.02254899963736534 -0.13353599607944489 0.021098999306559563
v 0.024960000067949295 -0.1352120041847229 0.02065899968147278
v 0.018857000395655632 -0.13444100320339203 0.021095000207424164
v 0.024661000818014145 -0.1417659968137741 0.02282699942588806
v 0.025438999757170677 -0.1408499926328659 0.022311000153422356
v 0.026345999911427498 -0.13762600719928741 0.023486999794840813
v 0.02607100084424019 -0.13953299820423126 0.024088000878691673
v 0.02095099911093712 -0.14051300287246704 0.02983199991285801
v 0.021984999999403954 -0.1415719985961914 0.02645000070333481
v 0.024671999737620354 -0.14169999957084656 0.02371099963784218
v 0.016814999282360077 -0.13086600601673126 0.020820999518036842
v 0.013779000379145145 -0.12947900593280792 0.025319000706076622
v 0.012740000151097775 -0.12723399698734283 0.02232000045478344
v 0.018592000007629395 -0.13317500054836273 0.02948799915611744
v 0.014817999675869942 -0.12588700652122498 0.028232000768184662
v 0.013226999901235104 -0.12716799974441528 0.026861000806093216
v 0.02001900039613247 -0.1343419998884201 0.030412999913096428
v 0.020080000162124634 -0.13666099309921265 0.030334999784827232
v 0.02049499936401844 -0.13495700061321259 0.03073200024664402
v 0.020600000396370888 -0.13339699804782867 0.021626999601721764
v 0.024846000596880913 -0.135452002286911 0.025824999436736107
v 0.021263999864459038 -0.13292500376701355 0.02339399978518486
v 0.025728000327944756 -0.13745899498462677 0.025992000475525856
v 0.02498600073158741 -0.1402139961719513 0.02617800049483776
v 0.022374000400304794 -0.14193500578403473 0.028883999213576317
v 0.02242100052535534 -0.14162400364875793 0.03020399995148182
v 0.022151000797748566 -0.14033299684524536 0.03086400032043457
v 0.02442000061273575 -0.14137400686740875 0.03039100021123886
v 0.02429099939763546 -0.14103899896144867 0.026249000802636147
v 0.0021039999555796385 -0.10993599891662598 0.020569000393152237
v 0.009960999712347984 -0.11732300370931625 0.018845999613404274
v 0.013470999896526337 -0.12027300149202347 0.019564000889658928
v 0.016795000061392784 -0.12535299360752106 0.02098100073635578
v 0.007031999994069338 -0.11881399899721146 0.024935999885201454
v 0.0187740009278059 -0.12959299981594086 0.028922000899910927
v 0.020114999264478683 -0.13244900107383728 0.029180999845266342
v 0.019790999591350555 -0.1331070065498352 0.02965099923312664
v 0.007329999934881926 -0.11864600330591202 0.025989999994635582
v 0.008414000272750854 -0.1143139973282814 0.02714800089597702
v 0.00949000008404255 -0.11116699874401093 0.02744000032544136
v 0.020576000213623047 -0.13332599401474 0.030153000727295876
v 0.0250410009175539 -0.13910099864006042 0.03153099864721298
v 0.02205199934542179 -0.13445299863815308 0.03108000010251999
v 0.02445800043642521 -0.13623599708080292 0.03151100128889084
v 0.025043999776244164 -0.1371850073337555 0.031612999737262726
v 0.026295000687241554 -0.13716700673103333 0.028365999460220337
v 0.02555900067090988 -0.13586899638175964 0.028410999104380608
v 0.022634999826550484 -0.1332309991121292 0.028087999671697617
v 0.020632000640034676 -0.13242000341415405 0.02848700061440468
v 0.026096999645233154 -0.13949799537658691 0.028435999527573586
v 0.02566000074148178 -0.13962100446224213 0.030856000259518623
v 0.007294000126421452 -0.11124999821186066 0.017456000670790672
v 0.005532999988645315 -0.11608199775218964 0.024517999961972237
v 0.0026859999634325504 -0.11095699667930603 0.025104999542236328
v 0.0005569999921135604 -0.10548099875450134 0.026280999183654785
v -0.00003400000059627928 -0.10585100203752518 0.02077599987387657
v 0.0013559999642893672 -0.10734599828720093 0.018257999792695045
v 0.009329999797046185 -0.11087299883365631 0.01756400056183338
v 0.014386000111699104 -0.11962399631738663 0.020603999495506287
v 0.010823000222444534 -0.11073499917984009 0.0189410001039505
v 0.00598399993032217 -0.11571899801492691 0.02544499933719635
v 0.011003999970853329 -0.1123490035533905 0.025443000718951225
v 0.020955000072717667 -0.1326490044593811 0.02969999983906746
v 0.0026599999982863665 -0.10257700085639954 0.02884499914944172
v 0.008510000072419643 -0.10743899643421173 0.026743000373244286
v 0.008275999687612057 -0.1083419993519783 0.027473999187350273
v 0.010002999566495419 -0.11077599972486496 0.026308000087738037
v 0.025929000228643417 -0.1373019963502884 0.030930999666452408
v 0.023118000477552414 -0.133774995803833 0.030435999855399132
v 0.02434300072491169 -0.13475200533866882 0.030646000057458878
v 0.008170000277459621 -0.10727400332689285 0.015829000622034073
v 0.004401000216603279 -0.10401000082492828 0.014096000231802464
v 0.0010160000529140234 -0.10364100337028503 0.027753999456763268
v -0.00040099999750964344 -0.10355900228023529 0.022298000752925873
v -0.00020700000459328294 -0.10287699848413467 0.02542000077664852
v 0.0008870000019669533 -0.10306300222873688 0.016860000789165497
v 0.0016120000509545207 -0.10224000364542007 0.01584799960255623
v 0.008803999982774258 -0.10329599678516388 0.015314999967813492
v 0.00974700041115284 -0.10543300211429596 0.017170000821352005
v 0.009724999777972698 -0.10990899801254272 0.02552199922502041
v 0.0024429999757558107 -0.10150200128555298 0.02877799980342388
v 0.003836000105366111 -0.10011299699544907 0.02873699925839901
v 0.007888000458478928 -0.10570099949836731 0.027876999229192734
v 0.007946999743580818 -0.10192500054836273 0.028293000534176826
v 0.00481799989938736 -0.09970799833536148 0.028635000810027122
v 0.009573999792337418 -0.1060120016336441 0.025088999420404434
v 0.009138000197708607 -0.10583700239658356 0.026441000401973724
v 0.00930000003427267 -0.10768400132656097 0.025275999680161476
v 0.003765000030398369 -0.101453997194767 0.01477499958127737
v 0.006173999980092049 -0.10118900239467621 0.01444500032812357
v 0.0004729999927803874 -0.10137200355529785 0.0264699999243021
v 0.0015279999934136868 -0.09971299767494202 0.027892999351024628
v 0.00107999995816499 -0.10145600140094757 0.017847999930381775
v 0.000826000003144145 -0.10213100165128708 0.024598000571131706
v 0.0006689999718219042 -0.10267200320959091 0.021366000175476074
v 0.0032470000442117453 -0.09966699779033661 0.015444000251591206
v 0.009298999793827534 -0.0999549999833107 0.017378000542521477
v 0.007153000216931105 -0.10102099925279617 0.01482400018721819
v 0.00916299968957901 -0.10309399664402008 0.02399899996817112
v 0.009456999599933624 -0.10604699701070786 0.024064000695943832
v 0.0031030001118779182 -0.0988989993929863 0.027981000021100044
v 0.0035989999305456877 -0.09968999773263931 0.02829499915242195
v 0.008599000051617622 -0.1017019972205162 0.027830999344587326
v 0.0076790000312030315 -0.09967000037431717 0.027560999616980553
v 0.005919999908655882 -0.09956599771976471 0.02837900072336197
v 0.004505000077188015 -0.09915799647569656 0.028164999559521675
v 0.00468500005081296 -0.10051000118255615 0.015285000205039978
v 0.005468999966979027 -0.0993570014834404 0.0155239999294281
v 0.0021299999207258224 -0.10078399628400803 0.025880999863147736
v 0.007706999778747559 -0.09845700114965439 0.01827099919319153
v 0.004736999981105328 -0.09991099685430527 0.023548999801278114
v 0.006281000096350908 -0.09855400025844574 0.02656099945306778
v 0.006560000125318766 -0.09825199842453003 0.02332800067961216
v 0.005022000055760145 -0.09851700067520142 0.027428999543190002
v 0.00456599984318018 -0.09854400157928467 0.026739999651908875
vn -0.19599400460720062 -0.2452940046787262 -0.949429988861084
vn 0.10112100094556808 -0.29907798767089844 -0.948855996131897
vn -0.4179530143737793 -0.5357139706611633 -0.7337070107460022
vn -0.6993650197982788 -0.4475899934768677 -0.5572710037231445
vn -0.12620100378990173 0.11359699815511703 -0.9854789972305298
vn -0.39634400606155396 -0.18158100545406342 -0.8999670147895813
vn -0.29805898666381836 0.1289130002260208 -0.9458019733428955
vn 0.33351099491119385 -0.5681800246238708 -0.7522910237312317
vn 0.8316799998283386 0.05365600064396858 -0.5526570081710815
vn 0.8810030221939087 -0.2725769877433777 -0.38669800758361816
vn 0.3064340054988861 -0.004395999945700169 -0.951882004737854
vn -0.09676100313663483 -0.8594210147857666 -0.5020300149917603
vn -0.6961560249328613 -0.7169409990310669 0.03691200166940689
vn -0.19026200473308563 -0.9816910028457642 0.009128999896347523
vn -0.8062300086021423 -0.3841789960861206 -0.44988998770713806
vn -0.807004988193512 -0.3069320023059845 0.5045149922370911
vn -0.22341500222682953 0.7685840129852295 -0.599469006061554
vn 0.2543509900569916 0.8880730271339417 -0.38292500376701355
vn 0.6756439805030823 0.5494999885559082 -0.4914819896221161
vn -0.45284900069236755 0.27943798899650574 -0.8466650247573853
vn 0.3850019872188568 -0.9029889702796936 -0.19074499607086182
vn 0.8045859932899475 -0.5637490153312683 -0.18662500381469727
vn 0.9786689877510071 0.20027799904346466 0.045784998685121536
vn 0.9342920184135437 -0.32298898696899414 0.15092100203037262
vn -0.7039780020713806 -0.5841230154037476 0.403999000787735
vn -0.10644099861383438 -0.9904999732971191 0.08706100285053253
vn 0.5676310062408447 -0.8020539879798889 0.18575599789619446
vn -0.16303299367427826 -0.20428499579429626 -0.9652400016784668
vn -0.8514660000801086 -0.5164080262184143 0.09126099944114685
vn -0.7723079919815063 -0.4824090003967285 -0.41330599784851074
vn -0.2678070068359375 0.19377300143241882 0.9437860250473022
vn -0.3707529902458191 -0.09540499746799469 0.9238179922103882
vn -0.725941002368927 -0.3875559866428375 0.5681639909744263
vn -0.43423599004745483 0.20542100071907043 0.8770639896392822
vn -0.4087679982185364 -0.11319100111722946 0.9055920243263245
vn -0.41614699363708496 0.07344599813222885 0.9063259959220886
vn 0.1832910031080246 0.6728590130805969 -0.7167050242424011
vn 0.7650420069694519 0.6431599855422974 -0.03248799964785576
vn 0.6325839757919312 0.7677599787712097 -0.10189100354909897
vn 0.9996439814567566 0.026667000725865364 -0.0010939999483525753
vn 0.8442729711532593 -0.5321710109710693 0.06322100013494492
vn -0.24233999848365784 -0.9677820205688477 0.06833700090646744
vn -0.24936999380588531 -0.7052199840545654 0.663686990737915
vn -0.366813987493515 -0.3055729866027832 0.8786759972572327
vn 0.48939698934555054 -0.8425570130348206 0.22491799294948578
vn 0.5253459811210632 -0.8445600271224976 0.10358499735593796
vn -0.8114349842071533 -0.5070909857749939 -0.29057198762893677
vn -0.170196995139122 -0.26305100321769714 -0.9496510028839111
vn 0.46219199895858765 0.048650000244379044 -0.8854439854621887
vn 0.7603039741516113 0.3021770119667053 -0.5750020146369934
vn -0.8502870202064514 -0.4648120105266571 0.24690300226211548
vn 0.707726001739502 0.42469000816345215 0.5645899772644043
vn 0.22180399298667908 0.7207000255584717 0.6568059921264648
vn -0.2524630129337311 0.5721049904823303 0.7803580164909363
vn -0.67010098695755 -0.2921060025691986 0.6823769807815552
vn -0.30778801441192627 -0.1418900042772293 0.9408159852027893
vn 0.4814560115337372 0.19625699520111084 0.8542150259017944
vn -0.2516610026359558 0.47078800201416016 0.8455920219421387
vn 0.18917199969291687 -0.24772900342941284 0.9501810073852539
vn -0.09085699915885925 0.3123129904270172 0.9456239938735962
vn 0.21104200184345245 0.3172459900379181 0.9245629906654358
vn 0.1961289942264557 0.08756600320339203 0.9766600131988525
vn 0.9817150235176086 0.1876700073480606 -0.031867001205682755
vn 0.7675129771232605 0.6408290266990662 0.016172999516129494
vn 0.5052980184555054 0.8625280261039734 0.026812000200152397
vn 0.63435298204422 0.7333559989929199 0.2445099949836731
vn 0.9238479733467102 -0.3732660114765167 -0.0847259983420372
vn 0.8545590043067932 -0.30693501234054565 0.41894999146461487
vn -0.21380400657653809 -0.45562800765037537 -0.8641129732131958
vn -0.8436350226402283 -0.4603689908981323 0.276297003030777
vn -0.7319729924201965 -0.44043299555778503 0.5198410153388977
vn -0.9120330214500427 -0.31632599234580994 0.26102399826049805
vn -0.9517480134963989 -0.2831290066242218 -0.11838000267744064
vn -0.697920024394989 -0.4250839948654175 -0.5763779878616333
vn 0.34065601229667664 -0.16456399857997894 -0.9256740212440491
vn 0.89301598072052 0.33878499269485474 -0.296220988035202
vn 0.8916839957237244 0.1527940034866333 -0.4260900020599365
vn -0.6756139993667603 -0.3314160108566284 0.6585659980773926
vn 0.8890849947929382 0.4104140102863312 0.20270200073719025
vn 0.024653999134898186 0.8175680041313171 0.5753039717674255
vn -0.09565799683332443 -0.1227170005440712 0.9878209829330444
vn 0.884361982345581 0.09837699681520462 0.4563170075416565
vn 0.5886369943618774 0.11006499826908112 0.8008700013160706
vn 0.8761810064315796 0.3619750142097473 0.3182460069656372
vn 0.8106520175933838 0.25794199109077454 0.5256519913673401
vn 0.4263029992580414 0.7640380263328552 0.48426398634910583
vn 0.6364229917526245 0.6237509846687317 0.4537619948387146
vn 0.3754810094833374 -0.26880499720573425 -0.8869940042495728
vn -0.1692740023136139 -0.17544299364089966 -0.9698280096054077
vn -0.7130879759788513 -0.11160899698734283 0.6921340227127075
vn -0.9384369850158691 0.34413599967956543 -0.03012399934232235
vn -0.9621430039405823 0.24323999881744385 0.1229420006275177
vn -0.9185619950294495 0.009198999963700771 -0.39517098665237427
vn -0.7076079845428467 0.0836229994893074 -0.7016389966011047
vn 0.6239479780197144 0.015426999889314175 -0.7813130021095276
vn 0.9932510256767273 0.10082600265741348 -0.05733000114560127
vn 0.9263709783554077 0.3309270143508911 0.17978599667549133
vn -0.3485049903392792 0.21157599985599518 0.9131159782409668
vn -0.15907399356365204 0.32429200410842896 0.9324859976768494
vn 0.580748975276947 -0.10062699764966965 0.8078399896621704
vn 0.3310930132865906 0.09995900094509125 0.9382889866828918
vn 0.016290999948978424 0.3607479929924011 0.9325209856033325
vn 0.9844800233840942 -0.04587399959564209 0.1693979948759079
vn 0.8545179963111877 -0.14334499835968018 0.49924999475479126
vn 0.9796779751777649 0.0174189992249012 0.19982099533081055
vn -0.24574199318885803 0.30940499901771545 -0.918628990650177
vn 0.03616200014948845 0.3138180077075958 -0.9487940073013306
vn -0.8226990103721619 0.5635250210762024 -0.0748710036277771
vn -0.738851010799408 0.5811179876327515 0.34117600321769714
vn -0.7382280230522156 0.673600971698761 -0.0357929989695549
vn -0.589622974395752 0.7797669768333435 -0.2104959934949875
vn -0.5445230007171631 0.8355640172958374 0.07298900187015533
vn -0.3663940131664276 0.6537830233573914 -0.662060022354126
vn 0.8566200137138367 0.49932101368904114 -0.12992499768733978
vn 0.4231559932231903 0.49510401487350464 -0.7588220238685608
vn 0.9923250079154968 0.11906400322914124 0.03337499871850014
vn 0.9993469715118408 -0.011398999951779842 -0.03428399935364723
vn -0.27368998527526855 0.8172450065612793 0.5071539878845215
vn -0.2131589949131012 0.48322901129722595 0.8491479754447937
vn 0.8817669749259949 0.1354369968175888 0.45182299613952637
vn 0.5554159879684448 0.6394199728965759 0.5316519737243652
vn 0.2339179962873459 0.552295982837677 0.8001570105552673
vn -0.008960000239312649 0.6181210279464722 0.7860320210456848
vn -0.09141899645328522 0.4007279872894287 -0.9116250276565552
vn 0.050023000687360764 0.6300070285797119 -0.7749770283699036
vn -0.4812310039997101 0.7688239812850952 -0.42110300064086914
vn -0.15828700363636017 0.976859986782074 -0.1438409984111786
vn -0.5920330286026001 0.7686060070991516 -0.2423650026321411
vn 0.3524959981441498 0.9236639738082886 0.15030300617218018
vn 0.028762999922037125 0.9987679719924927 -0.040435001254081726
vn 0.11022800207138062 0.8959010243415833 0.4303610026836395
vn -0.3430120050907135 0.9232850074768066 -0.17288100719451904
f 1//1 2//2 3//3
f 3//3 4//4 1//1
f 2//2 1//1 5//5
f 1//1 4//4 6//6
f 1//1 7//7 5//5
f 1//1 6//6 7//7
f 3//3 2//2 8//8
f 9//9 10//10 2//2
f 11//11 2//2 5//5
f 2//2 11//11 9//9
f 2//2 10//10 8//8
f 3//3 8//8 12//12
f 4//4 3//3 13//13
f 14//14 3//3 12//12
f 14//14 13//13 3//3
f 6//6 4//4 15//15
f 4//4 13//13 16//16
f 16//16 15//15 4//4
f 7//7 17//17 5//5
f 5//5 17//17 18//18
f 5//5 18//18 19//19
f 19//19 11//11 5//5
f 15//15 20//20 6//6
f 7//7 6//6 20//20
f 7//7 20//20 17//17
f 12//12 8//8 21//21
f 22//22 21//21 8//8
f 22//22 8//8 10//10
f 23//23 10//10 9//9
f 9//9 19//19 23//23
f 19//19 9//9 11//11
f 10//10 23//23 24//24
f 24//24 22//22 10//10
f 14//14 12//12 21//21
f 16//16 13//13 25//25
f 25//25 13//13 26//26
f 26//26 13//13 14//14
f 26//26 14//14 27//27
f 21//21 27//27 14//14
f 20//20 15//15 28//28
f 15//15 16//16 29//29
f 28//28 15//15 30//30
f 29//29 30//30 15//15
f 16//16 31//31 32//32
f 33//33 29//29 16//16
f 32//32 33//33 16//16
f 34//34 31//31 16//16
f 16//16 25//25 35//35
f 36//36 16//16 35//35
f 36//36 34//34 16//16
f 18//18 17//17 37//37
f 20//20 37//37 17//17
f 18//18 38//38 19//19
f 38//38 18//18 39//39
f 39//39 18//18 37//37
f 23//23 19//19 38//38
f 20//20 28//28 37//37
f 27//27 21//21 22//22
f 27//27 22//22 24//24
f 40//40 24//24 23//23
f 40//40 23//23 38//38
f 24//24 41//41 27//27
f 24//24 40//40 41//41
f 42//42 43//43 25//25
f 42//42 25//25 26//26
f 25//25 44//44 35//35
f 25//25 43//43 44//44
f 45//45 26//26 46//46
f 42//42 26//26 45//45
f 27//27 46//46 26//26
f 41//41 46//46 27//27
f 47//47 48//48 28//28
f 28//28 30//30 47//47
f 28//28 48//48 49//49
f 28//28 49//49 50//50
f 28//28 50//50 37//37
f 29//29 47//47 30//30
f 51//51 47//47 29//29
f 33//33 51//51 29//29
f 31//31 52//52 32//32
f 31//31 53//53 52//52
f 31//31 54//54 53//53
f 31//31 34//34 54//54
f 55//55 32//32 56//56
f 55//55 33//33 32//32
f 32//32 52//52 57//57
f 57//57 56//56 32//32
f 51//51 33//33 55//55
f 34//34 58//58 54//54
f 34//34 36//36 58//58
f 35//35 44//44 59//59
f 60//60 35//35 61//61
f 61//61 35//35 62//62
f 35//35 59//59 62//62
f 35//35 60//60 36//36
f 60//60 58//58 36//36
f 39//39 37//37 50//50
f 38//38 63//63 40//40
f 64//64 38//38 65//65
f 63//63 38//38 64//64
f 38//38 39//39 65//65
f 39//39 52//52 66//66
f 39//39 50//50 52//52
f 39//39 66//66 65//65
f 41//41 40//40 67//67
f 40//40 63//63 67//67
f 41//41 45//45 46//46
f 41//41 67//67 45//45
f 42//42 45//45 43//43
f 45//45 59//59 43//43
f 43//43 59//59 44//44
f 59//59 45//45 68//68
f 45//45 67//67 68//68
f 47//47 69//69 48//48
f 47//47 51//51 70//70
f 47//47 70//70 71//71
f 47//47 72//72 73//73
f 47//47 71//71 72//72
f 47//47 74//74 69//69
f 47//47 73//73 74//74
f 75//75 48//48 69//69
f 48//48 75//75 49//49
f 50//50 49//49 76//76
f 49//49 77//77 76//76
f 77//77 49//49 75//75
f 50//50 76//76 52//52
f 78//78 70//70 51//51
f 55//55 78//78 51//51
f 57//57 52//52 79//79
f 66//66 52//52 53//53
f 79//79 52//52 76//76
f 53//53 65//65 66//66
f 65//65 53//53 80//80
f 54//54 80//80 53//53
f 54//54 58//58 80//80
f 56//56 78//78 55//55
f 57//57 81//81 56//56
f 78//78 56//56 81//81
f 57//57 82//82 83//83
f 57//57 84//84 82//82
f 81//81 57//57 83//83
f 79//79 84//84 57//57
f 60//60 80//80 58//58
f 59//59 85//85 62//62
f 85//85 59//59 68//68
f 61//61 86//86 60//60
f 60//60 86//86 80//80
f 87//87 86//86 61//61
f 61//61 85//85 87//87
f 62//62 85//85 61//61
f 85//85 68//68 63//63
f 63//63 68//68 67//67
f 63//63 64//64 85//85
f 64//64 65//65 86//86
f 64//64 86//86 87//87
f 64//64 87//87 85//85
f 65//65 80//80 86//86
f 88//88 75//75 69//69
f 89//89 69//69 74//74
f 69//69 89//89 88//88
f 78//78 71//71 70//70
f 90//90 71//71 81//81
f 71//71 78//78 81//81
f 71//71 90//90 72//72
f 91//91 73//73 72//72
f 92//92 91//91 72//72
f 90//90 92//92 72//72
f 91//91 93//93 73//73
f 74//74 73//73 93//93
f 93//93 94//94 74//74
f 74//74 94//94 89//89
f 75//75 88//88 77//77
f 79//79 76//76 77//77
f 77//77 95//95 96//96
f 77//77 96//96 97//97
f 79//79 77//77 97//97
f 95//95 77//77 88//88
f 84//84 79//79 97//97
f 81//81 98//98 90//90
f 98//98 81//81 99//99
f 81//81 83//83 100//100
f 81//81 100//100 101//101
f 81//81 101//101 102//102
f 81//81 102//102 99//99
f 83//83 82//82 100//100
f 82//82 103//103 104//104
f 104//104 100//100 82//82
f 82//82 84//84 97//97
f 103//103 82//82 105//105
f 105//105 82//82 97//97
f 89//89 95//95 88//88
f 89//89 106//106 107//107
f 106//106 89//89 94//94
f 107//107 95//95 89//89
f 108//108 90//90 109//109
f 90//90 108//108 92//92
f 109//109 90//90 98//98
f 91//91 110//110 93//93
f 111//111 91//91 92//92
f 111//111 112//112 91//91
f 91//91 112//112 110//110
f 111//111 92//92 108//108
f 94//94 93//93 110//110
f 94//94 113//113 106//106
f 94//94 110//110 113//113
f 95//95 114//114 96//96
f 95//95 115//115 114//114
f 115//115 95//95 107//107
f 116//116 117//117 96//96
f 96//96 117//117 105//105
f 97//97 96//96 105//105
f 114//114 116//116 96//96
f 118//118 109//109 98//98
f 98//98 99//99 119//119
f 98//98 119//119 118//118
f 102//102 119//119 99//99
f 100//100 120//120 101//101
f 120//120 100//100 104//104
f 101//101 121//121 122//122
f 121//121 101//101 120//120
f 102//102 101//101 122//122
f 122//122 123//123 102//102
f 102//102 123//123 119//119
f 104//104 103//103 120//120
f 105//105 117//117 103//103
f 103//103 116//116 120//120
f 103//103 117//117 116//116
f 124//124 107//107 106//106
f 106//106 113//113 124//124
f 124//124 125//125 107//107
f 125//125 115//115 107//107
f 126//126 108//108 109//109
f 108//108 126//126 111//111
f 126//126 109//109 118//118
f 110//110 127//127 113//113
f 127//127 110//110 112//112
f 111//111 128//128 127//127
f 112//112 111//111 127//127
f 111//111 126//126 128//128
f 124//124 113//113 125//125
f 127//127 125//125 113//113
f 116//116 114//114 120//120
f 114//114 129//129 121//121
f 114//114 121//121 120//120
f 130//130 129//129 114//114
f 130//130 114//114 127//127
f 127//127 114//114 115//115
f 115//115 125//125 127//127
f 118//118 123//123 131//131
f 123//123 118//118 119//119
f 132//132 126//126 118//118
f 118//118 131//131 132//132
f 131//131 122//122 121//121
f 129//129 131//131 121//121
f 131//131 123//123 122//122
f 128//128 126//126 132//132
f 128//128 130//130 127//127
f 132//132 130//130 128//128
f 132//132 131//131 129//129
f 129//129 130//130 132//132
