# Generated by Visualization Toolkit
v 0.10420600324869156 0.03172500059008598 0.005107000004500151
v 0.09425400197505951 0.03243400156497955 0.008425000123679638
v 0.09928900003433228 0.030900999903678894 0.0050760000012815
v 0.10493099689483643 0.03245899826288223 0.005840000230818987
v 0.10328400135040283 0.030232999473810196 0.0041589997708797455
v 0.10476399958133698 0.031082000583410263 0.004819000139832497
v 0.09081900119781494 0.032655999064445496 0.009147999808192253
v 0.09098599851131439 0.03362800180912018 0.01042299997061491
v 0.10316800326108932 0.034745000302791595 0.011723999865353107
v 0.09365499764680862 0.03434399887919426 0.016304999589920044
v 0.10549599677324295 0.03411100059747696 0.010510999709367752
v 0.09172099828720093 0.03422499820590019 0.01310999970883131
v 0.09393499791622162 0.031780000776052475 0.008156999945640564
v 0.09542399644851685 0.03125400096178055 0.007127000018954277
v 0.09830299764871597 0.02889700047671795 0.005652999971061945
v 0.10095100104808807 0.028829000890254974 0.004730999935418367
v 0.09926699846982956 0.02879899926483631 0.0051020001992583275
v 0.10553800314664841 0.03307399898767471 0.007934999652206898
v 0.10547299683094025 0.031821999698877335 0.005576000083237886
v 0.1042490005493164 0.029179999604821205 0.0048050000332295895
v 0.10247600078582764 0.02890400029718876 0.00456599984318018
v 0.10331100225448608 0.02899800054728985 0.004648999776691198
v 0.10500399768352509 0.029875999316573143 0.005319000221788883
v 0.0901779979467392 0.0320109985768795 0.009479999542236328
v 0.09064900130033493 0.03219300135970116 0.008938999846577644
v 0.0907910019159317 0.03349699825048447 0.013387000188231468
v 0.0902860015630722 0.032735999673604965 0.011641000397503376
v 0.10688599944114685 0.033264998346567154 0.013747000135481358
v 0.10637199878692627 0.032409001141786575 0.016954999417066574
v 0.10737600177526474 0.03218499943614006 0.015960000455379486
v 0.10268300026655197 0.03198299929499626 0.018942000344395638
v 0.094759002327919 0.032687000930309296 0.018510999158024788
v 0.0934469997882843 0.03140399977564812 0.019061999395489693
v 0.0926010012626648 0.03295399993658066 0.016527000814676285
v 0.09170299768447876 0.033323999494314194 0.0149940000846982
v 0.09305699914693832 0.03221600130200386 0.017810000106692314
v 0.10604500025510788 0.033337000757455826 0.010370999574661255
v 0.10670799762010574 0.03296399861574173 0.012159000150859356
v 0.09066999703645706 0.03101000003516674 0.009208000265061855
v 0.0922980010509491 0.030713999643921852 0.008849999867379665
v 0.09564600139856339 0.029844999313354492 0.007327000144869089
v 0.09716600179672241 0.029234999790787697 0.006326000206172466
v 0.09751799702644348 0.027667000889778137 0.006659000180661678
v 0.09623000025749207 0.019392000511288643 0.009107000194489956
v 0.10726200044155121 0.03184700012207031 0.014000999741256237
v 0.10442499816417694 0.027898000553250313 0.005384999793022871
v 0.09791699796915054 0.019096000120043755 0.008654000237584114
v 0.09961599856615067 0.01893400028347969 0.00834100041538477
v 0.10179799795150757 0.019666999578475952 0.007797999773174524
v 0.10252299904823303 0.0196749996393919 0.007883000187575817
v 0.10391300171613693 0.020452000200748444 0.008511999621987343
v 0.10641799867153168 0.02584500052034855 0.0154600003734231
v 0.10496500134468079 0.022249000146985054 0.012237999588251114
v 0.09008999913930893 0.0308810006827116 0.010577999986708164
v 0.09024400264024734 0.030764000490307808 0.009823000058531761
v 0.10739800333976746 0.0321200005710125 0.014825999736785889
v 0.1071380004286766 0.03261600062251091 0.013875000178813934
v 0.10745599865913391 0.03201499953866005 0.016467999666929245
v 0.10793299973011017 0.030347999185323715 0.017173999920487404
v 0.10767199844121933 0.03143899887800217 0.015831999480724335
v 0.10775099694728851 0.031230999156832695 0.016409000381827354
v 0.09478099644184113 0.030365999788045883 0.021491000428795815
v 0.09454300254583359 0.030964000150561333 0.021067000925540924
v 0.10398200154304504 0.02980099990963936 0.018619999289512634
v 0.10207200050354004 0.029836999252438545 0.019349999725818634
v 0.0998150035738945 0.02967499941587448 0.019998999312520027
v 0.09362900257110596 0.030579999089241028 0.02012299932539463
v 0.09348200261592865 0.029055999591946602 0.019856000319123268
v 0.09331099689006805 0.021423999220132828 0.016662999987602234
v 0.09254399687051773 0.02043999917805195 0.01042800024151802
v 0.09513299912214279 0.018828999251127243 0.009813000448048115
v 0.09833899885416031 0.018332000821828842 0.008926000446081161
v 0.09292100369930267 0.019574999809265137 0.010459999553859234
v 0.09395600110292435 0.019200000911951065 0.010143999941647053
v 0.1078369989991188 0.030432000756263733 0.016186000779271126
v 0.1008789986371994 0.019037999212741852 0.008158000186085701
v 0.10144899785518646 0.01876699924468994 0.00851999968290329
v 0.10228099673986435 0.019252000376582146 0.008194999769330025
v 0.10296499729156494 0.019620999693870544 0.008460000157356262
v 0.10353100299835205 0.019953999668359756 0.008717999793589115
v 0.10397700220346451 0.020566999912261963 0.009267999790608883
v 0.10053800046443939 0.02057499997317791 0.015507999807596207
v 0.10682400315999985 0.029438000172376633 0.017416000366210938
v 0.1044749990105629 0.021624000743031502 0.014004000462591648
v 0.10754899680614471 0.029177000746130943 0.01706399954855442
v 0.1036669984459877 0.020390000194311142 0.009732999838888645
v 0.10409899801015854 0.0212009996175766 0.013116000220179558
v 0.10369200259447098 0.02081199921667576 0.012258999980986118
v 0.10378599911928177 0.020654000341892242 0.010456000454723835
v 0.1039000004529953 0.02090499922633171 0.011153999716043472
v 0.10379599779844284 0.02085600048303604 0.011699999682605267
v 0.09214399755001068 0.022444000467658043 0.01323499996215105
v 0.0928409993648529 0.020961999893188477 0.015941999852657318
v 0.10583800077438354 0.02962700091302395 0.01787099987268448
v 0.09481299668550491 0.028996000066399574 0.021105999127030373
v 0.09424100071191788 0.030177999287843704 0.021268000826239586
v 0.09764699637889862 0.029458999633789062 0.020401999354362488
v 0.09600800275802612 0.029201000928878784 0.02079400047659874
v 0.09383200109004974 0.029975999146699905 0.020958999171853065
v 0.09370700269937515 0.02844800055027008 0.020729999989271164
v 0.09360899776220322 0.026763999834656715 0.020459000021219254
v 0.09339699894189835 0.021789999678730965 0.017597999423742294
v 0.09358499944210052 0.01962300017476082 0.01618500053882599
v 0.09319999814033508 0.02027300000190735 0.01611500047147274
v 0.09262300282716751 0.02010899968445301 0.010928000323474407
v 0.09408999979496002 0.018918000161647797 0.010629000142216682
v 0.09958700090646744 0.01788399927318096 0.011668999679386616
v 0.0930979996919632 0.019334999844431877 0.01093200035393238
v 0.10342299938201904 0.019985999912023544 0.00927099958062172
v 0.10116700083017349 0.020089000463485718 0.01460800040513277
v 0.10028699785470963 0.01979300007224083 0.01484300009906292
v 0.09859099984169006 0.019525999203324318 0.015035999938845634
v 0.0968799963593483 0.019286999478936195 0.015150999650359154
v 0.10206600278615952 0.020363999530673027 0.014340000227093697
v 0.09479399770498276 0.019770000129938126 0.01616000011563301
v 0.09570000320672989 0.019166000187397003 0.015283999964594841
v 0.10263500362634659 0.020526999607682228 0.01410599984228611
v 0.10354000329971313 0.020891999825835228 0.013601000420749187
v 0.09278199821710587 0.02037299983203411 0.01522700022906065
v 0.09277600049972534 0.019903000444173813 0.014535999856889248
v 0.09288699924945831 0.01981399953365326 0.011397999711334705
v 0.09255000203847885 0.02064099907875061 0.013151000253856182
v 0.09267599880695343 0.02026900090277195 0.01387100014835596
v 0.09414499998092651 0.01964000053703785 0.016186999157071114
v 0.09560099989175797 0.018616000190377235 0.014134000055491924
v 0.09336599707603455 0.019202999770641327 0.014825999736785889
v 0.09366100281476974 0.01888200081884861 0.012330000288784504
v 0.09303800016641617 0.01974399946630001 0.011915000155568123
v 0.09309700131416321 0.019725000485777855 0.01271199993789196
v 0.09420999884605408 0.018825000151991844 0.013546999543905258
vn -0.006304999813437462 0.6573860049247742 -0.7535279989242554
vn -0.1025329977273941 0.820779025554657 -0.561968982219696
vn -0.3098379969596863 0.2819550037384033 -0.9080209732055664
vn 0.2145570069551468 0.7845860123634338 -0.5817130208015442
vn 0.08060300350189209 -0.005828999914228916 -0.9967290163040161
vn 0.45929399132728577 0.22065700590610504 -0.8604410290718079
vn -0.4066329896450043 0.5972380042076111 -0.6913440227508545
vn -0.5513619780540466 0.7939779758453369 -0.25612199306488037
vn 0.13495099544525146 0.9780619740486145 0.15869300067424774
vn -0.3647669851779938 0.8445320129394531 0.39205899834632874
vn 0.4557889997959137 0.8501620292663574 -0.26359298825263977
vn -0.287678986787796 0.9562050104141235 0.053971000015735626
vn -0.33472201228141785 0.11763700097799301 -0.9349449872970581
vn -0.5179579854011536 0.076944999396801 -0.851938009262085
vn -0.5137649774551392 -0.15926499664783478 -0.8430190086364746
vn -0.16501300036907196 -0.19961200654506683 -0.9658809900283813
vn -0.4132849872112274 -0.16919800639152527 -0.8947439789772034
vn 0.6804720163345337 0.664247989654541 -0.3094080090522766
vn 0.8542680144309998 0.298801988363266 -0.42537400126457214
vn 0.4619460105895996 -0.2565630078315735 -0.8489890098571777
vn -0.021479999646544456 -0.3350439965724945 -0.9419580101966858
vn 0.17918699979782104 -0.38650399446487427 -0.9047139883041382
vn 0.8791720271110535 -0.19720199704170227 -0.43378400802612305
vn -0.9083700180053711 0.18379400670528412 -0.37561100721359253
vn -0.5222200155258179 0.15476900339126587 -0.8386489748954773
vn -0.8678489923477173 0.42562898993492126 0.25627800822257996
vn -0.9543939828872681 0.29498299956321716 0.04601500183343887
vn 0.7558259963989258 0.654600977897644 0.015011000446975231
vn 0.38652199506759644 0.7718899846076965 0.5047640204429626
vn 0.7370420098304749 0.6644009947776794 0.12385699898004532
vn 0.2460460066795349 0.4980520009994507 0.8315079808235168
vn -0.11811800301074982 0.8350570201873779 0.5373340249061584
vn -0.8169199824333191 0.3865399956703186 0.42805200815200806
vn -0.8237590193748474 0.25802698731422424 0.5048199892044067
vn -0.7949129939079285 0.3608990013599396 0.4877150058746338
vn -0.8616470098495483 0.22972699999809265 0.45253700017929077
vn 0.8390859961509705 0.4991759955883026 -0.2162349969148636
vn 0.907230019569397 0.36844199895858765 -0.2029380053281784
vn -0.5205540060997009 -0.20669500529766083 -0.8284329771995544
vn -0.3368780016899109 -0.1256439983844757 -0.9331279993057251
vn -0.5098440051078796 -0.1682409942150116 -0.843654990196228
vn -0.5725039839744568 -0.2297379970550537 -0.7870579957962036
vn -0.5542280077934265 -0.24801599979400635 -0.7945560216903687
vn -0.34911400079727173 -0.2994849979877472 -0.8879349827766418
vn 0.9733999967575073 -0.0035000001080334187 -0.22908399999141693
vn 0.4624600112438202 -0.34991300106048584 -0.8146730065345764
vn -0.25155699253082275 -0.36118099093437195 -0.89792400598526
vn -0.1397629976272583 -0.4137830138206482 -0.8995829820632935
vn 0.02848999947309494 -0.4774479866027832 -0.8781980276107788
vn 0.3241100013256073 -0.5400779843330383 -0.7767040133476257
vn 0.7927070260047913 -0.4893600046634674 -0.3635140061378479
vn 0.8907930254936218 -0.4052729904651642 0.20552699267864227
vn 0.8250330090522766 -0.5646719932556152 0.02157299965620041
vn -0.9689549803733826 -0.11116000264883041 0.22083799540996552
vn -0.8942239880561829 -0.19119000434875488 -0.4047349989414215
vn 0.9568920135498047 0.27388399839401245 -0.09667400270700455
vn 0.9583839774131775 0.23243799805641174 -0.1657470017671585
vn 0.7702640295028687 0.56010502576828 0.3049199879169464
vn 0.7650560140609741 0.026847999542951584 0.6434040069580078
vn 0.9716770052909851 0.21568100154399872 -0.09656599909067154
vn 0.9637470245361328 0.2667509913444519 -0.006039999891072512
vn 0.06842800229787827 -0.02334200032055378 0.9973829984664917
vn -0.4540869891643524 0.6056140065193176 0.6534799933433533
vn 0.3440290093421936 -0.16952499747276306 0.9235290288925171
vn 0.3163599967956543 -0.1639149934053421 0.9343699812889099
vn 0.2587209939956665 -0.21944500505924225 0.9406949877738953
vn -0.9025409817695618 0.22618499398231506 0.36641600728034973
vn -0.9854559898376465 0.012338999658823013 0.16947999596595764
vn -0.9221670031547546 -0.10349299758672714 0.37268900871276855
vn -0.774478018283844 -0.2504059970378876 -0.5809310078620911
vn -0.33414599299430847 -0.7234110236167908 -0.6041709780693054
vn -0.15043500065803528 -0.7830950021743774 -0.6034330129623413
vn -0.6464189887046814 -0.5950859785079956 -0.477510005235672
vn -0.406715989112854 -0.6262230277061462 -0.6651520133018494
vn 0.9837480187416077 -0.02937999926507473 -0.17713600397109985
vn 0.005822999868541956 -0.6228139996528625 -0.7823479771614075
vn 0.22129400074481964 -0.8440449833869934 -0.4884839951992035
vn 0.3949440121650696 -0.782505989074707 -0.4813559949398041
vn 0.5563639998435974 -0.7937049865722656 -0.24595099687576294
vn 0.6554840207099915 -0.7550889849662781 -0.013438000343739986
vn 0.7571399807929993 -0.6418349742889404 0.12160199880599976
vn 0.2833609879016876 -0.5202170014381409 0.8056550025939941
vn 0.34720098972320557 -0.36098799109458923 0.8655290007591248
vn 0.6137170195579529 -0.6850770115852356 0.3924559950828552
vn 0.6142950057983398 -0.3961479961872101 0.6824290156364441
vn 0.660830020904541 -0.7209439873695374 0.20867100358009338
vn 0.6667870283126831 -0.7437909841537476 0.04658399894833565
vn 0.6595939993858337 -0.7484130263328552 0.06938199698925018
vn 0.661761999130249 -0.7397000193595886 0.12212400138378143
vn 0.75211101770401 -0.6513239741325378 0.10052900016307831
vn 0.7627500295639038 -0.6404179930686951 0.08987399935722351
vn -0.9708399772644043 -0.22587800025939941 0.08030600100755692
vn -0.9075490236282349 -0.1761299967765808 0.38122498989105225
vn 0.3420020043849945 -0.2975490093231201 0.8913469910621643
vn -0.06320200115442276 -0.28617599606513977 0.956089973449707
vn -0.5110200047492981 0.0535460002720356 0.857899010181427
vn 0.2376749962568283 -0.37672001123428345 0.895317018032074
vn 0.27943599224090576 -0.3271639943122864 0.9027069807052612
vn -0.6933599710464478 0.10396099835634232 0.713051974773407
vn -0.7820950150489807 -0.03728700056672096 0.6220420002937317
vn -0.48236799240112305 -0.28310200572013855 0.8289600014686584
vn -0.4894559979438782 -0.451104998588562 0.7462819814682007
vn -0.43240201473236084 -0.7124879956245422 0.552619993686676
vn -0.7924690246582031 -0.3797760009765625 0.4772450029850006
vn -0.9056140184402466 -0.41886600852012634 0.06643400341272354
vn -0.2911190092563629 -0.9394279718399048 -0.18090100586414337
vn 0.34079501032829285 -0.9116039872169495 0.22986100614070892
vn -0.738431990146637 -0.6738409996032715 0.025631999596953392
vn 0.6467469930648804 -0.7307689785957336 0.2183929979801178
vn 0.3914180099964142 -0.7527940273284912 0.5292379856109619
vn 0.29416000843048096 -0.7679280042648315 0.568996012210846
vn 0.16949300467967987 -0.7645000219345093 0.6219419836997986
vn 0.14149899780750275 -0.7973849773406982 0.5866479873657227
vn 0.4091159999370575 -0.7313249707221985 0.5457000136375427
vn 0.16465100646018982 -0.615257978439331 0.7709400057792664
vn 0.11073300242424011 -0.8032749891281128 0.5852239727973938
vn 0.4609760046005249 -0.7923529744148254 0.3995969891548157
vn 0.5196130275726318 -0.8359360098838806 0.1766750067472458
vn -0.8977670073509216 -0.34316399693489075 0.2761400043964386
vn -0.902961015701294 -0.42548200488090515 0.06021500006318092
vn -0.8753550052642822 -0.4670870006084442 0.12483800202608109
vn -0.8663129806518555 -0.4974069893360138 0.04569200053811073
vn -0.8395019769668579 -0.5237320065498352 -0.14471200108528137
vn 0.0890050008893013 -0.6757820248603821 0.7317079901695251
vn -0.07134599983692169 -0.9722269773483276 0.22289800643920898
vn -0.6509029865264893 -0.7463139891624451 0.13907000422477722
vn -0.5518860220909119 -0.8312309980392456 0.0669189989566803
vn -0.8230929970741272 -0.5559120178222656 0.11610099673271179
vn -0.7895669937133789 -0.5854660272598267 0.18388700485229492
vn -0.5768470168113708 -0.8148729801177979 0.05684199929237366
f 3//3 2//2 1//1
f 1//1 2//2 4//4
f 1//1 5//5 3//3
f 1//1 6//6 5//5
f 1//1 4//4 6//6
f 8//8 2//2 7//7
f 2//2 10//10 9//9
f 11//11 4//4 2//2
f 9//9 11//11 2//2
f 12//12 2//2 8//8
f 10//10 2//2 12//12
f 2//2 14//14 13//13
f 2//2 3//3 14//14
f 2//2 13//13 7//7
f 14//14 3//3 15//15
f 3//3 5//5 16//16
f 17//17 3//3 16//16
f 15//15 3//3 17//17
f 19//19 4//4 18//18
f 4//4 19//19 6//6
f 18//18 4//4 11//11
f 5//5 6//6 20//20
f 16//16 5//5 21//21
f 21//21 5//5 22//22
f 22//22 5//5 20//20
f 20//20 6//6 23//23
f 6//6 19//19 23//23
f 25//25 24//24 7//7
f 24//24 8//8 7//7
f 13//13 25//25 7//7
f 26//26 12//12 8//8
f 8//8 27//27 26//26
f 8//8 24//24 27//27
f 11//11 9//9 28//28
f 30//30 9//9 29//29
f 29//29 9//9 31//31
f 32//32 9//9 10//10
f 31//31 9//9 32//32
f 9//9 30//30 28//28
f 33//33 32//32 10//10
f 10//10 35//35 34//34
f 10//10 12//12 35//35
f 10//10 36//36 33//33
f 10//10 34//34 36//36
f 11//11 37//37 18//18
f 38//38 11//11 28//28
f 38//38 37//37 11//11
f 12//12 26//26 35//35
f 25//25 13//13 39//39
f 39//39 13//13 40//40
f 13//13 14//14 41//41
f 40//40 13//13 41//41
f 42//42 14//14 15//15
f 41//41 14//14 42//42
f 42//42 15//15 43//43
f 43//43 15//15 17//17
f 21//21 44//44 16//16
f 17//17 16//16 44//44
f 43//43 17//17 44//44
f 18//18 37//37 19//19
f 19//19 37//37 38//38
f 38//38 45//45 19//19
f 23//23 19//19 45//45
f 20//20 23//23 46//46
f 22//22 20//20 46//46
f 21//21 47//47 44//44
f 21//21 22//22 46//46
f 21//21 48//48 47//47
f 49//49 48//48 21//21
f 50//50 49//49 21//21
f 46//46 50//50 21//21
f 51//51 46//46 23//23
f 23//23 45//45 52//52
f 53//53 51//51 23//23
f 23//23 52//52 53//53
f 25//25 39//39 24//24
f 24//24 54//54 27//27
f 24//24 39//39 55//55
f 55//55 54//54 24//24
f 35//35 26//26 54//54
f 27//27 54//54 26//26
f 56//56 28//28 30//30
f 56//56 57//57 28//28
f 28//28 57//57 38//38
f 30//30 29//29 58//58
f 31//31 59//59 29//29
f 59//59 58//58 29//29
f 30//30 60//60 56//56
f 61//61 30//30 58//58
f 61//61 60//60 30//30
f 63//63 62//62 31//31
f 31//31 32//32 63//63
f 59//59 31//31 64//64
f 64//64 31//31 65//65
f 31//31 62//62 66//66
f 65//65 31//31 66//66
f 33//33 63//63 32//32
f 33//33 67//67 63//63
f 67//67 33//33 68//68
f 33//33 36//36 69//69
f 68//68 33//33 69//69
f 34//34 35//35 54//54
f 36//36 34//34 54//54
f 54//54 69//69 36//36
f 38//38 57//57 45//45
f 39//39 70//70 55//55
f 39//39 40//40 70//70
f 70//70 40//40 41//41
f 70//70 41//41 44//44
f 44//44 41//41 43//43
f 43//43 41//41 42//42
f 44//44 72//72 71//71
f 44//44 47//47 72//72
f 73//73 70//70 44//44
f 44//44 71//71 74//74
f 44//44 74//74 73//73
f 45//45 57//57 56//56
f 60//60 75//75 45//45
f 56//56 60//60 45//45
f 45//45 75//75 52//52
f 51//51 50//50 46//46
f 72//72 47//47 48//48
f 48//48 76//76 72//72
f 76//76 48//48 49//49
f 77//77 49//49 50//50
f 77//77 76//76 49//49
f 78//78 77//77 50//50
f 79//79 50//50 51//51
f 79//79 78//78 50//50
f 80//80 79//79 51//51
f 81//81 80//80 51//51
f 81//81 51//51 53//53
f 52//52 83//83 82//82
f 82//82 84//84 52//52
f 52//52 59//59 85//85
f 85//85 83//83 52//52
f 75//75 59//59 52//52
f 52//52 84//84 53//53
f 86//86 81//81 53//53
f 88//88 53//53 87//87
f 53//53 90//90 89//89
f 53//53 89//89 86//86
f 53//53 88//88 91//91
f 90//90 53//53 91//91
f 87//87 53//53 84//84
f 70//70 92//92 54//54
f 54//54 93//93 69//69
f 54//54 92//92 93//93
f 55//55 70//70 54//54
f 59//59 61//61 58//58
f 94//94 59//59 64//64
f 83//83 59//59 94//94
f 85//85 59//59 83//83
f 59//59 75//75 61//61
f 75//75 60//60 61//61
f 62//62 96//96 95//95
f 63//63 96//96 62//62
f 66//66 62//62 97//97
f 97//97 62//62 98//98
f 98//98 62//62 95//95
f 67//67 99//99 63//63
f 63//63 99//99 96//96
f 94//94 64//64 82//82
f 82//82 64//64 65//65
f 65//65 66//66 82//82
f 82//82 66//66 97//97
f 99//99 67//67 100//100
f 100//100 67//67 68//68
f 102//102 101//101 68//68
f 102//102 68//68 69//69
f 100//100 68//68 101//101
f 102//102 69//69 103//103
f 104//104 103//103 69//69
f 93//93 104//104 69//69
f 70//70 73//73 105//105
f 92//92 70//70 105//105
f 71//71 106//106 74//74
f 72//72 106//106 71//71
f 76//76 77//77 72//72
f 107//107 72//72 77//77
f 72//72 107//107 106//106
f 73//73 108//108 105//105
f 106//106 108//108 73//73
f 74//74 106//106 73//73
f 77//77 78//78 79//79
f 79//79 107//107 77//77
f 80//80 107//107 79//79
f 81//81 109//109 80//80
f 107//107 80//80 109//109
f 81//81 86//86 109//109
f 82//82 111//111 110//110
f 82//82 113//113 112//112
f 97//97 98//98 82//82
f 102//102 82//82 101//101
f 114//114 84//84 82//82
f 110//110 114//114 82//82
f 112//112 111//111 82//82
f 116//116 82//82 115//115
f 116//116 113//113 82//82
f 82//82 83//83 94//94
f 82//82 95//95 101//101
f 82//82 98//98 95//95
f 102//102 115//115 82//82
f 84//84 114//114 117//117
f 118//118 87//87 84//84
f 117//117 118//118 84//84
f 89//89 107//107 86//86
f 107//107 109//109 86//86
f 88//88 87//87 118//118
f 91//91 88//88 89//89
f 88//88 118//118 89//89
f 118//118 107//107 89//89
f 89//89 90//90 91//91
f 120//120 119//119 92//92
f 92//92 105//105 121//121
f 92//92 121//121 122//122
f 92//92 119//119 93//93
f 92//92 122//122 123//123
f 92//92 123//123 120//120
f 119//119 104//104 93//93
f 96//96 99//99 95//95
f 95//95 99//99 100//100
f 101//101 95//95 100//100
f 124//124 115//115 102//102
f 103//103 124//124 102//102
f 125//125 116//116 103//103
f 126//126 103//103 104//104
f 103//103 116//116 124//124
f 103//103 126//126 125//125
f 119//119 126//126 104//104
f 105//105 108//108 121//121
f 107//107 125//125 106//106
f 127//127 106//106 125//125
f 127//127 108//108 106//106
f 107//107 114//114 110//110
f 107//107 111//111 112//112
f 110//110 111//111 107//107
f 112//112 113//113 107//107
f 117//117 107//107 118//118
f 117//117 114//114 107//107
f 107//107 113//113 125//125
f 128//128 108//108 127//127
f 128//128 121//121 108//108
f 116//116 125//125 113//113
f 116//116 115//115 124//124
f 119//119 120//120 126//126
f 120//120 123//123 126//126
f 122//122 121//121 128//128
f 130//130 122//122 129//129
f 123//123 122//122 130//130
f 129//129 122//122 128//128
f 126//126 123//123 130//130
f 127//127 125//125 130//130
f 125//125 126//126 130//130
f 127//127 130//130 129//129
f 129//129 128//128 127//127
